/* XPM */
static char *bluefish[] = {
/* columns rows colors chars-per-pixel */
"128 128 61 1 ",
"  c #006600660066",
". c #046A046A046A",
"X c #07A107A107A1",
"o c #0B3E0B3E0B3E",
"O c #0E0E0E0E0E0E",
"+ c #11AB11AB11AB",
"@ c #134612DF12DF",
"# c #147A147A147A",
"$ c #187E187E187E",
"% c #1BB51BB51BB5",
"& c #1E841E841E84",
"* c #222222222222",
"= c #24F124F124F1",
"- c #27C127C127C1",
"; c #2AF72AF72AF7",
": c #2CF92C922CF9",
"> c #2E942E942E94",
", c #3232323231CB",
"< c #331932FF334C",
"1 c #350135013501",
"2 c #366736733664",
"3 c #37D137D13838",
"4 c #39D3396C396C",
"5 c #396C39D3396C",
"6 c #39D339D3396C",
"7 c #396C396C39D3",
"8 c #39D3396C39D3",
"9 c #396C39D339D3",
"0 c #3B6E3B6E3B6E",
"q c #3D093CA23CA2",
"w c #3CA23D093CA2",
"e c #3D093D093CA2",
"r c #3CA23CA23D09",
"t c #3EA43EA43EA4",
"y c #400B40113FFB",
"u c #41DB41DB41DB",
"i c #433643384348",
"p c #451145114511",
"a c #4677467D466B",
"s c #47E147E147E1",
"d c #49E3497C497C",
"f c #497C49E3497C",
"g c #49E349E3497C",
"h c #497C497C49E3",
"j c #49E3497C49E3",
"k c #497C49E349E3",
"l c #4B174B174B17",
"z c #4D194CB24CB2",
"x c #4CB24D194CB2",
"c c #4D194D194CB2",
"v c #4CB24CB24D19",
"b c #4D194CB24D19",
"n c #4CB24D194D19",
"m c #4E4E4E4E4E4E",
"M c #5019501E501B",
"N c #518451845184",
"B c #535153595360",
"V c #54BA54BA54BA",
"C c #568F568B568D",
"Z c #578A578A578A",
"A c None",
/* pixels */
"AAAAAAAAAAAAAAAAAAAAAAAAAAAAAAAAAAAAAAAAAAAAAAAAAAAAAAAAAAAAAAAAAAAAAAAAAAAAAAAAAAAAAAAAAAAAAAAAAAAAAAAAAAAAAAAAAAAAAAAAAAAAAAAA",
"AAAAAAAAAAAAAAAAAAAAAAAAAAAAAAAAAAAAAAAAAAAAAAAAAAAAAAAAAAAAAAAAAAAAAAAAAAAAAAAAAAAAAAAAAAAAAAAAAAAAAAAAAAAAAAAAAAAAAAAAAAAAAAAA",
"AAAAAAAAAAAAAAAAAAAAAAAAAAAAAAAAAAAAAAAAAAAAAAAAAAAAAAAAAAAAAAAAAAAAAAAAAAAAAAAAAAAAAAAAAAAAAAAAAAAAAAAAAAAAAAAAAAAAAAAAAAAAAAAA",
"AAAAAAAAAAAAAAAAAAAAAAAAAAAAAAAAAAAAAAAAAAAAAAAAAAAAAAAAAAAAAAAAAAAAAAAAAAAAAAAAAAAAAAAAAAAAAAAAAAAAAAAAAAAAAAAAAAAAAAAAAAAAAAAA",
"AAAAAAAAAAAAAAAAAAAAAAAAAAAAAAAAAAAAAAAAAAAAAAAAAAAAAAAAAAAAAAAAAAAAAAAAAAAAAAAAAAAAAAAAAAAAAAAAAAAAAAAAAAAAAAAAAAAAAAAAAAAAAAAA",
"AAAAAAAAAAAAAAAAAAAAAAAAAAAAAAAAAAAAAAAAAAAAAAAAAAAAAAAAAAAAAAAAAAAAAAAAAAAAAAAAAAAAAAAAAAAAAAAAAAAAAAAAAAAAAAAAAAAAAAAAAAAAAAAA",
"AAAAAAAAAAAAAAAAAAAAAAAAAAAAAAAAAAAAAAAAAAAAAAAAAAAAAAAAAAAAAAAAAAAAAAAAAAAAAAAAAAAAAAAAAAAAAAAAAAAAAAAAAAAAAAAAAAAAAAAAAAAAAAAA",
"AAAAAAAAAAAAAAAAAAAAAAAAAAAAAAAAAAAAAAAAAAAAAAAAAAAAAAAAAAAAAAAAAAAAAAAAAAAAAAAAAAAAAAAAAAAAAAAAAAAAAAAAAAAAAAAAAAAAAAAAAAAAAAAA",
"AAAAAAAAAAAAAAAAAAAAAAAAAAAAAAAAAAAAAAAAAAAAAAAAAAAAAAAAAAAAAAAAAAAAAAAAAAAAAAAAAAAAAAAAAAAAAAAAAAAAAAAAAAAAAAAAAAAAAAAAAAAAAAAA",
"AAAAAAAAAAAAAAAAAAAAAAAAAAAAAAAAAAAAAAAAAAAAAAAAAAAAAAAAAAAAAAAAAAAAAAAAAAAAAAAAAAAAAAAAAAAAAAAAAAAAAAAAAAAAAAAAAAAAAAAAAAAAAAAA",
"AAAAAAAAAAAAAAAAAAAAAAAAAAAAAAAAAAAAAAAAAAAAAAAAAAAAAAAAAAAAAAAAAAAAAAAAAAAAAAAAAAAAAAAAAAAAAAAAAAAAAAAAAAAAAAAAAAAAAAAAAAAAAAAA",
"AAAAAAAAAAAAAAAAAAAAAAAAAAAAAAAAAAAAAAAAAAAAAAAAAAAAAAAAAAAAAAAAAAAAAAAAAAAAAAAAAAAAAAAAAAAAAAAAAAAAAAAAAAAAAAAAAAAAAAAAAAAAAAAA",
"AAAAAAAAAAAAAAAAAAAAAAAAAAAAAAAAAAAAAAAAAAAAAAAAAAAAAAAAAAAAAAAAAAAAAAAAAAAAAAAAAAAAAAAAAAAAAAAAAAAAAAAAAAAAAAAAAAAAAAAAAAAAAAAA",
"AAAAAAAAAAAAAAAAAAAAAAAAAAAAAAAAAAAAAAAAAAAAAAAAAAAAAAAAAAAAAAAAAAAAAAAAAAAAAAAAAAAAAAAAAAAAAAAAAAAAAAAAAAAAAAAAAAAAAAAAAAAAAAAA",
"AAAAAAAAAAAAAAAAAAAAAAAAAAAAAAAAAAAAAAAAAAAAAAAAAAAAAAAAAAAAAAAAAAAAAAAAAAAAAAAAAAAAAAAAAAAAAAAAAAAAAAAAAAAAAAAAAAAAAAAAAAAAAAAA",
"AAAAAAAAAAAAAAAAAAAAAAAAAAAAAAAAAAAAAAAAAAAAAAAAAAAAAAAAAAAAAAAAAAAAAAAAAAAAAAAAAAAAAAAAAAAAAAAAAAAAAAAAAAAAAAAAAAAAAAAAAAAAAAAA",
"AAAAAAAAAAAAAAAAAAAAAAAAAAAAAAAAAAAAAAAAAAAAAAAAAAAAAAAAAAAAAAAAAAAAAAAAAAAAAAAAAAAAAAAAAAAAAAAAAAAAAAAAAAAAAAAAAAAAAAAAAAAAAAAA",
"AAAAAAAAAAAAAAAAAAAAAAAAAAAAAAAAAAAAAAAAAAAAAAAAAAAAAAAAAAAAAAAAAAAAAAAAAAAAAAAAAAAAAAAAAAAAAAAAAAAAAAAAAAAAAAAAAAAAAAAAAAAAAAAA",
"AAAAAAAAAAAAAAAAAAAAAAAAAAAAAAAAAAAAAAAAAAAAAAAAAAAAAAAAAAAAAAAAAAAAAAAAAAAAAAAAAAAAAAAAAAAAAAAAAAAAAAAAAAAAAAAAAAAAAAAAAAAAAAAA",
"AAAAAAAAAAAAAAAAAAAAAAAAAAAAAAAAAAAAAAAAAAAAAAAAAAAAAAAAAAAAAAAAAAAAAAAAAAAAAAAAAAAAAAAAAAAAAAAAAAAAAAAAAAAAAAAAAAAAAAAAAAAAAAAA",
"AAAAAAAAAAAAAAAAAAAAAAAAAAAAAAAAAAAAAAAAAAAAAAAAAAAAAAAAAAAAAAAAAAAAAAAAAAAAAAAAAAAAAAAAAAAAAAAAAAAAAAAAAAAAAAAAAAAAAAAAAAAAAAAA",
"AAAAAAAAAAAAAAAAAAAAAAAAAAAAAAAAAAAAAAAAAAAAAAAAAAAAAAAAAAAAAAAAAAAAAAAAAAAAAAAAAAAAAAAAAAAAAAAAAAAAAAAAAAAAAAAAAAAAAAAAAAAAAAAA",
"AAAAAAAAAAAAAAAAAAAAAAAAAAAAAAAAAAAAAAAAAAAAAAAAAAAAAAAAAAAAAAAAAAAAAAAAAAAAAAAAAAAAAAAAAAAAAAAAAAAAAAAAAAAAAAAAAAAAAAAAAAAAAAAA",
"AAAAAAAAAAAAAAAAAAAAAAAAAAAAAAAAAAAAAAAAAAAAAAAAAAAAAAAAAAAAAAAAAAAAAAAAAAAAAAAAAAAAAAAAAAAAAAAAAAAAAAAAAAAAAAAAAAAAAAAAAAAAAAAA",
"AAAAAAAAAAAAAAAAAAAAAAAAAAAAAAAAAAAAAAAAAAAAAAAAAAAAAAAAAAAAAAAAAAAAAAAAAAAZZZZZZZZZZZZZZZZZZZZZCZZZZAAAAAAAAAAAAAAAAAAAAAAAAAAA",
"AAAAAAAAAAAAAAAAAAAAAAAAAAAAAAAAAAAAAAAAAAAAAAAAAAAAAAAAAAAAAAAAAAAAACZZZZZZZZZZZZZZZZZZZZZZZZZZZZZZZZAAAAAAAAAAAAAAAAAAAAAAAAAA",
"AAAAAAAAAAAAAAAAAAAAAAAAAAAAAAAAAAAAAAAAAAAAAAAAAAAAAAAAAAAAAAAAACCCZZZCZZZZZZZZZZZZZZZZZZZZZZCCZZZZZZCAAAAAAAAAAAAAAAAAAAAAAAAA",
"AAAAAAAAAAAAAAAAAAAAAAAAAAAAAAAAAAAAAAAAAAAAAAAAAAAAAAAAAAAAAACCCZZZZCZCZZZZZCZCZZZZZCZCZZZZCCCCZCCCCCCZAAAAAAAAAAAAAAAAAAAAAAAA",
"AAAAAAAAAAAAAAAAAAAAAAAAAAAAAAAAAAAAAAAAAAAAAAAAAAAAAAAAAAACCZCCCCCCCCCCZZCCCCCCZZCCCCCCZZCCCCCCVCVCCCCCVAAAAAAAAAAAAAAAAAAAAAAA",
"AAAAAAAAAAAAAAAAAAAAAAAAAAAAAAAAAAAAAAAAAAAAAAAAAAAAAAAAVVCCCCCCCCCCCCCCCCCCCCCCZZVCCCCCZZCCVCCCCCCCCVVCVAAAAAAAAAAAAAAAAAAAAAAA",
"AAAAAAAAAAAAAAAAAAAAAAAAAAAAAAAAAAAAAAAAAAAAAAAAAAAAAAVCCCVCVCVCCCVCCCCCCVCCVCVCZCVCVCVVZCCVCVCCVVCVVCVVCCAAAAAAAAAAAAAAAAAAAAAA",
"AAAAAAAAAAAAAAAAAAAAAAAAAAAAAAAAAAAAAAAAAAAAAAAAAAAAVCVVVCVCVVVVCVCVVVVVCVVVVVVVCCVVVVVCZCVVNCCNVVVVVVVVCZAAAAAAAAAAAAAAAAAAAAAA",
"AAAAAAAAAAAAAAAAAAAAAAAAAAAAAAAAAAAAAAAAAAAAAAAAAAVVVVVVVVVVVVVVVVVVVVVVVVVVVVVVVVVVVVVCVVVVVVVVVVVVVVVNVNNAAAAAAAAAAAAAAAAAAAAA",
"AAAAAAAAAAAAAAAAAAAAAAAAAAAAAAAAAAAAAAAAAAAAAAAANCVVVVVVVVVVVCVVVVVVVVVVVVVVVVVVVVVCNVVCVVVVNCNVVVNVVVNVVNNAAAAAAAAAAAAAAAAAAAAA",
"AAAAAAAAAAAAAAAAAAAAAAAAAAAAAAAAAAAAAAAAAAAAAANVNCCVVVVVVCVVVNVVVVVNNVMVNVVVNVVVNVVNCNVNNNCNNCVNVVNVVNVNVVNAAAAAAAAAAAAAAAAAAAAA",
"AAAAAAAAAAAAAAAAAAAAAAAAAAAAAAAAAAAAAAAAAAAAANNVNCNNNVNVNNCNVVNVBBVMVVVVVNNVNVNVNVNVNVNVNVNNVNVVNVVNNVNVNVMAAAAAAAAAAAAAAAAAAAAA",
"AAAAAAAAAAAAAAAAAAAAAAAAAAAAAAAAAAAAAAAAAAANNVVNCNCCCVNCVNCNVNVNNNNVVNVVNVNVVNNNNCNNVNNNNNCMVNVNNNNNNVNNVNNAAAAAAAAAAAAAAAAAAAAA",
"AAAAAAAAAAAAAAAAAAAAAAAAAAAAAAAAAAAAAAAAAAMBVNNVNVNNNNNVNNNCVNVNNVVNNNNNNNNNNVNVNNNNVNNVNVNNNNNNNNVNVNVNNNpAAAAAAAAAAAAAAAAAAAAA",
"AAAAAAAAAAAAAAAAAAAAAAAAAAAAAAAAAAAAAAAAANNBNBNNNNVNNNNNNNNNNNNNNBNNNVNNVNNNNNNNVNNNNNNNNNNNNNNNNVNNNNNNNNAAAAAAAAAAAAAAAAAAAAAA",
"AAAAAAAAAAAAAAAAAAAAAAAAAAAAAAAAAAAAAAAmNNBNNBNNNNNNNNNNNVNNNNNNNNNNNNNNNNNNNNNNNNNNNNNNNNNNMNNNNNNNNNNmNsAAAAAAAAAAAAAAAAAAAAAA",
"AAAAAAAAAAAAAAAAAAAAAAAAAAAAAAAAAAAAAAMNNNNNNNNNNNNNNNNNNNNNNNmNNNNNNNNNMNNNMNMNMNMNMNNNMNMNMNMMmmNNNNMMMiAAAAAAAAAAAAAAAAAAAAAA",
"AAAAAAAAAAAAAAAAAAAAAAAAAAAAAAAAAAAAAMNMNNMNNMMNNNMNNMMNNNmNmNNNMMMNMMMMMMMMNMNMNNMNMMMMMMMMMMMNNNmNvNMMpAAAAAAAAAAAAAAAAAAAAAAA",
"AAAAAAAAAAAAAAAAAAAAAAAAAAAAAAAAAAAANMMMNNMNMNNMNMNmMNMMNMNNNmNmMNMMMMMMMMMMMMMMmNMmMMMMNMNmMNmmNNNmvNNv>AAAAAAAAAAAAAAAAAAAAAAA",
"AAAAAAAAAAAAAAAAAAAAAAAAAAAAAAAAAAAvMMMMMMmNMMMMMNmNMMMMNmmNmNNmMMMMMMMMMMMMMMMMMMMMMMMMmmmNMMNmmmNNNvNiAAAAAAAAAAAAAAAAAAAAAAAA",
"AAAAAAAAAAAAAAAAAAAAAAAAAAAAAAAAAAzMMMmMMMvMMMMMNmNmNNmmMNNmmNmNMMMmMMMMMMmMmMmMmMmmmmMmNmmmNmmmmmvvNNv;AAAAAAAAAAAAAAAAAAAAAAAA",
"AAAAAAAAAAAAAAAAAAAAAAAAAAAAAAAAAAvMNvvNNvNNMMvvmmmmmmmNmmmmmmmmmmmmMxMxmmmmmmmmmmmmmmmmmmmmvmmmmmmmmmfAAAAAAAAAAAAAAAAAAAAAAAAA",
"AAAAAAAAAAAAAAAAAAAAAAAAAAAAAAAAAzmNmNmmvmvMNvvNmmmmmmmmmmmmmmmmmmmmmmxMmmmmmmmmmmmmmmmmmmvmmmmmmmmmmm0AAAAAAAAAAAAAAAAAAAAAAAAA",
"AAAAAAAAAAAAAAAAAAAAAAAAAAAAAAAApmmvmmmmmmMvvNvvmmmmmmmmmmmmmmmmmmmmzmxzmxmmzmmzmmmmxmxmmlmmvvmmmmfmsm>AAAAAAAAAAAAAAAAAAAAAAAAA",
"AAAAAAAAAAAAAAAAAAAAAAAAAAAAAAAAzvvmmmmzmmmmmmmmmlmmmmlmmvmmvmmmzmzmmxmzmlmmmmzmvmvmlmmmlmlmmlmllvzvvsAAAAAAAAAAAAAAAAAAAAAAAAAA",
"AAAAAAAAAAAAAAAAAAAAAAAAAAAAAAApMvMvzvzmlmmlmlvmmmlmzmlmvmvvmllmzzxzmllmlmlmlmmlvvzmmllmmlmllvlmvzvzvpAAAAAAAAAAAAAAAAAAAAAAAAAA",
"AAAAAAAAAAAAAAAAAAAAAAAAAAAAAAAlvzvlzvvzmvmlmmmmlmlmxzmzxzlmlmlllxzzzxlzmxmxxzlzvzvllmlllmllvzzvzlsMveAAAAAAAAAAAAAAAAAAAAAAAAAA",
"AAAAAAAAAAAAAAAAAAAAAAAAAAAAAApmzvzvlzzvlmlmllllmlmlxlzlzmlllmlmmlzlxlzlllllllzlllzllllvllvlllvlvlvvs5AAAAAAAAAAzvszszvAAAAAAAAA",
"AAAAAAAAAAAAAAAAAAAAAAAAAAAAAAlvlmzlzmllllvvvlllllllzllzlllzllllllllllllllllllllzsvlllllllllllllllllsAAAAAAAAAAssvsvzszsAAAAAAAA",
"AAAAAAAAAAAAAAAAAAAAAAAAAAAAAsllllllllzlllllllllllllllllllllllllllllllllllllllllvsllllllllllllllllllsAAAAAAAAfsvszzvslsfsAAAAAAA",
"AAAAAAAAAAAAAAAAAAAAAAAAAAAApvvllllllllllllllllllllllllllllllllllllllllllllfllllszzslslllszzsllslzszsAAAAAAAszsvsszszszzsAAAAAAA",
"AAAAAAAAAAAAAAAAAAAAAAAAAAApllvsllllllllzsllllllllllllllllsllllfllslllslslllsfllfzsfzlsllffsslslfssfpAAAAApzfvsssvfsfsfsvAAAAAAA",
"AAAAAAAAAAAAAAAAAAAAAAAAAAplvsvslllslllszzfsllszllslflslfslsllslllflvssslfllflslvszlslssvsssvssvslzfeAAAAsslsslssssssvsssAAAAAAA",
"AAAAAAAAAAAAAAAAAAAAAAAAApsssvsvslllfsfsfszsszlsllfflllsslslsllssssvsvsllsslsfssslfpssfzfsvssssspfslp5epssssssslsvsssssspAAAAAAA",
"AAAAAAAAAAAAAAAAAAAAAAAApvvslsslslsszfslllfssslsslsflsssslslfsfsslssssssssfsfsffsssssslspsvsssssssssssssssssssssssssssssyAAAAAAA",
"AAAAAAAAAAAAAAAAAAAAAAApsssssvssssslsfsssssslssssssssssssssssfssssvsssssssssfsfpssssssssssssssssssssssssssspssssssssssss5AAAAAAA",
"AAAAAAAAAAAAAAAAAAAAAAsssssssssslssssfssssssssssssssssssssssssssssssssssssssppfsssssssssssssssfpssssssssfpsfsssssssfssspAAAAAAAA",
"AAAAAAAAAAAAAAAAAAAAsssssssssssssssssssssssssssssssssssssssssssssssssssssspsffsssspsspsssspsssfpspsssssppfspppssssppsppeAAAAAAAA",
"AAAAAAAAAAAAAAAAApspsssssssssssssssssssssssssssssssssspssssspsspsspssssspspssfifsspspsspspffspsspspssppsfipsspsppspspsp2AAAAAAAA",
"AAAAAAAAAspspsspssssspsssssssssssspssppssspssspsssspssspsspsspspppsppsppspfppifipspspppspspispppppsppsppfpppspppspppsppAAAAAAAAA",
"AAAAAAAAsppssspspsssspsssssssspspspspspssssspssspsisspssispsispssspssppppssppspspssssiispspppsipppppspppppppppppppppppiAAAAAAAAA",
"AAAAAAAppspippsspspspspppppsppssspsppspspisissiispsspsipspsipspppppppppsppppppppppiippspppsppppsspppipspppppppppppppppiAAAAAAAAA",
"AAAAAAAAiiiippppspsppspspppppppppppsspppppsiisisipsipppppppspppppspppppppppppppppppippppppipppppipppppisppppppppppppppiAAAAAAAAA",
"AAAAAAAAAAAA=,5ippppppppspspppppppppspppissisiispppppppppppspppppppppppppppppppppppspppppppppipppppiippippipppippppppiiAAAAAAAAA",
"AAAAAAAAAAAAAAA%:rippppppppppppppppppippppppsiiipppppippppppppipppppippipipippipisiiipiipiiiiiiisiiiipipipiiiiiiiiiiiiiAAAAAAAAA",
"AAAAAAAAAAAAAAA  o=5ipppppppppippppppppippipiiispppppppippiiiipiipipiiipipiippiiiiiiiiiiiiiiiiiiiiiiiiiiiiiiiiiiiiiiiii5AAAAAAAA",
"AAAAAAAAAAAAAAAA   +>eiipipipiiipiiipiipiiisisiiiiiiiiiiiiiiiiiiiiiiiiiiiiiiiiiiiiiiiiiiiiiiiiiiiiiiiiiiiiyiiyiiiiiiiiyyAAAAAAAA",
"AAAAAAAAAAAAAAAAAA  .$2iipiiipiiiipiiiiiiiiiiiiiiiiiiiiiiiiiiiiiiiiiiiiiiiiiiiiiiuuiiiiuiiiiiiiiyiiiyyiiyiiiiiiyiiyiiiiyAAAAAAAA",
"AAAAAAAAAAAAAAAAAAA   o=eiiiiiiiiiiiiiuiiiiiiiuiiiiiiiyiiiyiiiiiyiyiiiyiiiyiiiyiyiiyiiuiyiyiiiyiiiiyyiiyiiyiiyiiiyiyyiiyeAAAAAAA",
"AAAAAAAAAAAAAAAAAAAAA   *5iiiiyiiuiuuiuiyiiyyiiuiiiiyiyiiyiyiyiiiiiiiyiyiyiyyiiyiiyiuuiyiiiyyyiiiyyiiiyiiyiyyiiyiiyyiyyiiAAAAAAA",
"AAAAAAAAAAAAAAAAAAAAAAA  +,iiiyiuuuiuuuiiiiyiuuuyiiyyiiyyiiiiiyyiyiyyiiiyyiiyiiyiyyiuyiiyiyiyiyyyiy2>50iiieiyiieyyyiyyyyiAAAAAAA",
"AAAAAAAAAAAAAAAAAAAAAAAA  +>eiiiuuuuuuuuyiyiyiuuiyyiiyiiiiyyiyiyeiiyieiiiieiiyyiyyiyuyyyyyiyyyiyyyi> O+;2eieyieiyyyiyyiyeAAAAAAA",
"AAAAAAAAAAAAAAAAAAAAAAAAA   =5iiuyyuuuyuiyyyiiyiiyyiyyiyiyyyyyyiyyieiyieiiiyyyyiyiyyyyyyyyyyyyyyyii>    o%,eeiieyiyyieiie5AAAAAA",
"AAAAAAAAAAAAAAAAAAAAAAAAAAA  #,iyyuuyuuyyyiyeyyiyyyiyyyyyyyyyyyyyiieeieieeeieyyeryyyyyyyyyyyyyyyyey>      o*3eiyyeieyyeeyAAAAAAA",
"AAAAAAAAAAAAAAAAAAAAAAAAAAAA  +;quyyuuyyyyyyyyieeiieieyeyyeiyyyyeiyyyyyyeiieieyeiyyiyyyyyuyyyyryeyy,AAAAA   +-3eyeeyeyeeeAAAAAAA",
"AAAAAAAAAAAAAAAAAAAAAAAAAAAAA   =qiqyqyyieyyyyeyyeeyeiyyieyyeyy0yeieeieeieyeeeiyryrqyqyryryryryyyey2AAAAAAA   +-0yryyye5AAAAAAAA",
"AAAAAAAAAAAAAAAAAAAAAAAAAAAAAAA  &2yyyeyyyeyeyyeeyyeyyyyeyyyyyyyeyyyeyeyyyryeyyryeryeyeyryryyryyyeeeAAAAAAAAA   %>r5<<-AAAAAAAAA",
"AAAAAAAAAAAAAAAAAAAAAAAAAAAAAAAA  +-eyyeeyyeyeeyyeeyyeeyyeyr0yqyeyey0yeyeyyereryyyyyyeyeyy0yy00yeyeeAAAAAAAAAA   X$#XoAAAAAAAAAA",
"AAAAAAAAAAAAAAAAAAAAAAAAAAAAAAAAA   =2yeyyeyyeyyeyeyeyreeyryyy0yey0eyyy00yyeyyyy0yyrryrry0ry0yy0eyeeAAAAAAAAAAAAA   AAAAAAAAAAAA",
"AAAAAAAAAAAAAAAAAAAAAAAAAAAAAAAAAAA  O-ereryryreyryeeyeyrerr0yqqeyey00y0ye0r0r00r000r0rrrrrr0r00e0ee,AAAAAAAAAAAAAAAAAAAAAAAAAAA",
"AAAAAAAAAAAAAAAAAAAAAAAAAAAAAAAAAAAA   &>0rrryrerrrerrrreerrrrrrerrr000r0qee0rrreeeereerrr0qrr0rerrr3AAAAAAAAAAAAAAAAAAAAAAAAAAA",
"AAAAAAAAAAAAAAAAAAAAAAAAAAAAAAAAAAAAAA   =,5rrrreeeeeerrrrrrrrrrrrrr0yrr0yerr00re0ee0e0rr0000r0ree005AAAAAAAAAAAAAAAAAAAAAAAAAAA",
"AAAAAAAAAAAAAAAAAAAAAAAAAAAAAAAAAAAAAAA   X%:7rree0qrr0rrrr00r00rrr00r00000r00r0000000r0r000000000000AAAAAAAAAAAAAAAAAAAAAAAAAAA",
"AAAAAAAAAAAAAAAAAAAAAAAAAAAAAAAAAAAAAAAAA   .#=>000000rrrrr0r00q0r00000000000000000000000000000000000AAAAAAAAAAAAAAAAAAAAAAAAAAA",
"AAAAAAAAAAAAAAAAAAAAAAAAAAAAAAAAAAAAAAAAAAA    o;50000r20000000000000000000500000000000000078780500301AAAAAAAAAAAAAAAAAAAAAAAAAA",
"AAAAAAAAAAAAAAAAAAAAAAAAAAAAAAAAAAAAAAAAAAAAA   +20000r1,30005000003053000500r75505570757770r7r7050701AAAAAAAAAAAAAAAAAAAAAAAAAA",
"AAAAAAAAAAAAAAAAAAAAAAAAAAAAAAAAAAAAAAAAAAAAAAA  %7555553,;>7755300300057r0355r5705r700500027777503003AAAAAAAAAAAAAAAAAAAAAAAAAA",
"AAAAAAAAAAAAAAAAAAAAAAAAAAAAAAAAAAAAAAAAAAAAAAAA X=25r7007<&%>2000303030755577777777527772707777755535AAAAAAAAAAAAAAAAAAAAAAAAAA",
"AAAAAAAAAAAAAAAAAAAAAAAAAAAAAAAAAAAAAAAAAAAAAAAAA o>37373032;%@*><330303737357352577372r27333727533335<AAAAAAAAAAAAAAAAAAAAAAAAA",
"AAAAAAAAAAAAAAAAAAAAAAAAAAAAAAAAAAAAAAAAAAAAAAAAAA %130733033,%XXo%*>3535333337327323373273372723333332AAAAAAAAAAAAAAAAAAAAAAAAA",
"AAAAAAAAAAAAAAAAAAAAAAAAAAAAAAAAAAAAAAAAAAAAAAAAAAAX=3373333333-$.  O>337333333372773333777327273333332AAAAAAAAAAAAAAAAAAAAAAAAA",
"AAAAAAAAAAAAAAAAAAAAAAAAAAAAAAAAAAAAAAAAAAAAAAAAAAAA.=33333333331=O  *333333333327273333711772723333322AAAAAAAAAAAAAAAAAAAAAAAAA",
"AAAAAAAAAAAAAAAAAAAAAAAAAAAAAAAAAAAAAAAAAAAAAAAAAAAA o>53333333333>O #,22332333332232323313331332332322AAAAAAAAAAAAAAAAAAAAAAAAA",
"AAAAAAAAAAAAAAAAAAAAAAAAAAAAAAAAAAAAAAAAAAAAAAAAAAAAA #>23223133272#A *5332213222323<322331332222222222AAAAAAAAAAAAAAAAAAAAAAAAA",
"AAAAAAAAAAAAAAAAAAAAAAAAAAAAAAAAAAAAAAAAAAAAAAAAAAAAAA #>5222221222%AAo;22321322<3323222112111222323222AAAAAAAAAAAAAAAAAAAAAAAAA",
"AAAAAAAAAAAAAAAAAAAAAAAAAAAAAAAAAAAAAAAAAAAAAAAAAAAAAAA +>221313<22;AA #>2121112<2<22222311312112<2<22>AAAAAAAAAAAAAAAAAAAAAAAAA",
"AAAAAAAAAAAAAAAAAAAAAAAAAAAAAAAAAAAAAAAAAAAAAAAAAAAAAAAA #>222,2212>AAA +;22,222222<1111111111111111,2=AAAAAAAAAAAAAAAAAAAAAAAAA",
"AAAAAAAAAAAAAAAAAAAAAAAAAAAAAAAAAAAAAAAAAAAAAAAAAAAAAAAAA O*,2222111*AAA +=222<22<12111111112<1111112>AAAAAAAAAAAAAAAAAAAAAAAAAA",
"AAAAAAAAAAAAAAAAAAAAAAAAAAAAAAAAAAAAAAAAAAAAAAAAAAAAAAAAAA X$>221111,AAAA X%>2222,1111<1<211,2221111,=AAAAAAAAAAAAAAAAAAAAAAAAAA",
"AAAAAAAAAAAAAAAAAAAAAAAAAAAAAAAAAAAAAAAAAAAAAAAAAAAAAAAAAAA  O%>,111,;AAAA  +=>2<111,2,2<<,12<,,1,,2>AAAAAAAAAAAAAAAAAAAAAAAAAAA",
"AAAAAAAAAAAAAAAAAAAAAAAAAAAAAAAAAAAAAAAAAAAAAAAAAAAAAAAAAAAA   O$=,,,,AAAAA  XO%;<2,22,<,2,2,2,<,,1;%AAAAAAAAAAAAAAAAAAAAAAAAAAA",
"AAAAAAAAAAAAAAAAAAAAAAAAAAAAAAAAAAAAAAAAAAAAAAAAAAAAAAAAAAAAAA   A@%>>;AAAAAA   o%=>,,2,2,,,<,221,;@AAAAAAAAAAAAAAAAAAAAAAAAAAAA",
"AAAAAAAAAAAAAAAAAAAAAAAAAAAAAAAAAAAAAAAAAAAAAAAAAAAAAAAAAAAAAAAAAAAAAAAAAAAAAAA   XO%;>,22,2,,2>;%oAAAAAAAAAAAAAAAAAAAAAAAAAAAAA",
"AAAAAAAAAAAAAAAAAAAAAAAAAAAAAAAAAAAAAAAAAAAAAAAAAAAAAAAAAAAAAAAAAAAAAAAAAAAAAAAAA     O%%%;>;*%+oAAAAAAAAAAAAAAAAAAAAAAAAAAAAAAA",
"AAAAAAAAAAAAAAAAAAAAAAAAAAAAAAAAAAAAAAAAAAAAAAAAAAAAAAAAAAAAAAAAAAAAAAAAAAAAAAAAAAAA      XXo   AAAAAAAAAAAAAAAAAAAAAAAAAAAAAAAA",
"AAAAAAAAAAAAAAAAAAAAAAAAAAAAAAAAAAAAAAAAAAAAAAAAAAAAAAAAAAAAAAAAAAAAAAAAAAAAAAAAAAAAAAA      AAAAAAAAAAAAAAAAAAAAAAAAAAAAAAAAAAA",
"AAAAAAAAAAAAAAAAAAAAAAAAAAAAAAAAAAAAAAAAAAAAAAAAAAAAAAAAAAAAAAAAAAAAAAAAAAAAAAAAAAAAAAAAAAAAAAAAAAAAAAAAAAAAAAAAAAAAAAAAAAAAAAAA",
"AAAAAAAAAAAAAAAAAAAAAAAAAAAAAAAAAAAAAAAAAAAAAAAAAAAAAAAAAAAAAAAAAAAAAAAAAAAAAAAAAAAAAAAAAAAAAAAAAAAAAAAAAAAAAAAAAAAAAAAAAAAAAAAA",
"AAAAAAAAAAAAAAAAAAAAAAAAAAAAAAAAAAAAAAAAAAAAAAAAAAAAAAAAAAAAAAAAAAAAAAAAAAAAAAAAAAAAAAAAAAAAAAAAAAAAAAAAAAAAAAAAAAAAAAAAAAAAAAAA",
"AAAAAAAAAAAAAAAAAAAAAAAAAAAAAAAAAAAAAAAAAAAAAAAAAAAAAAAAAAAAAAAAAAAAAAAAAAAAAAAAAAAAAAAAAAAAAAAAAAAAAAAAAAAAAAAAAAAAAAAAAAAAAAAA",
"AAAAAAAAAAAAAAAAAAAAAAAAAAAAAAAAAAAAAAAAAAAAAAAAAAAAAAAAAAAAAAAAAAAAAAAAAAAAAAAAAAAAAAAAAAAAAAAAAAAAAAAAAAAAAAAAAAAAAAAAAAAAAAAA",
"AAAAAAAAAAAAAAAAAAAAAAAAAAAAAAAAAAAAAAAAAAAAAAAAAAAAAAAAAAAAAAAAAAAAAAAAAAAAAAAAAAAAAAAAAAAAAAAAAAAAAAAAAAAAAAAAAAAAAAAAAAAAAAAA",
"AAAAAAAAAAAAAAAAAAAAAAAAAAAAAAAAAAAAAAAAAAAAAAAAAAAAAAAAAAAAAAAAAAAAAAAAAAAAAAAAAAAAAAAAAAAAAAAAAAAAAAAAAAAAAAAAAAAAAAAAAAAAAAAA",
"AAAAAAAAAAAAAAAAAAAAAAAAAAAAAAAAAAAAAAAAAAAAAAAAAAAAAAAAAAAAAAAAAAAAAAAAAAAAAAAAAAAAAAAAAAAAAAAAAAAAAAAAAAAAAAAAAAAAAAAAAAAAAAAA",
"AAAAAAAAAAAAAAAAAAAAAAAAAAAAAAAAAAAAAAAAAAAAAAAAAAAAAAAAAAAAAAAAAAAAAAAAAAAAAAAAAAAAAAAAAAAAAAAAAAAAAAAAAAAAAAAAAAAAAAAAAAAAAAAA",
"AAAAAAAAAAAAAAAAAAAAAAAAAAAAAAAAAAAAAAAAAAAAAAAAAAAAAAAAAAAAAAAAAAAAAAAAAAAAAAAAAAAAAAAAAAAAAAAAAAAAAAAAAAAAAAAAAAAAAAAAAAAAAAAA",
"AAAAAAAAAAAAAAAAAAAAAAAAAAAAAAAAAAAAAAAAAAAAAAAAAAAAAAAAAAAAAAAAAAAAAAAAAAAAAAAAAAAAAAAAAAAAAAAAAAAAAAAAAAAAAAAAAAAAAAAAAAAAAAAA",
"AAAAAAAAAAAAAAAAAAAAAAAAAAAAAAAAAAAAAAAAAAAAAAAAAAAAAAAAAAAAAAAAAAAAAAAAAAAAAAAAAAAAAAAAAAAAAAAAAAAAAAAAAAAAAAAAAAAAAAAAAAAAAAAA",
"AAAAAAAAAAAAAAAAAAAAAAAAAAAAAAAAAAAAAAAAAAAAAAAAAAAAAAAAAAAAAAAAAAAAAAAAAAAAAAAAAAAAAAAAAAAAAAAAAAAAAAAAAAAAAAAAAAAAAAAAAAAAAAAA",
"AAAAAAAAAAAAAAAAAAAAAAAAAAAAAAAAAAAAAAAAAAAAAAAAAAAAAAAAAAAAAAAAAAAAAAAAAAAAAAAAAAAAAAAAAAAAAAAAAAAAAAAAAAAAAAAAAAAAAAAAAAAAAAAA",
"AAAAAAAAAAAAAAAAAAAAAAAAAAAAAAAAAAAAAAAAAAAAAAAAAAAAAAAAAAAAAAAAAAAAAAAAAAAAAAAAAAAAAAAAAAAAAAAAAAAAAAAAAAAAAAAAAAAAAAAAAAAAAAAA",
"AAAAAAAAAAAAAAAAAAAAAAAAAAAAAAAAAAAAAAAAAAAAAAAAAAAAAAAAAAAAAAAAAAAAAAAAAAAAAAAAAAAAAAAAAAAAAAAAAAAAAAAAAAAAAAAAAAAAAAAAAAAAAAAA",
"AAAAAAAAAAAAAAAAAAAAAAAAAAAAAAAAAAAAAAAAAAAAAAAAAAAAAAAAAAAAAAAAAAAAAAAAAAAAAAAAAAAAAAAAAAAAAAAAAAAAAAAAAAAAAAAAAAAAAAAAAAAAAAAA",
"AAAAAAAAAAAAAAAAAAAAAAAAAAAAAAAAAAAAAAAAAAAAAAAAAAAAAAAAAAAAAAAAAAAAAAAAAAAAAAAAAAAAAAAAAAAAAAAAAAAAAAAAAAAAAAAAAAAAAAAAAAAAAAAA"
};
