/* XPM */
static char *browser[] = {
/* columns rows colors chars-per-pixel */
"128 128 63 1 ",
"  c black",
". c #04D104D104D1",
"X c #073A073A073A",
"o c #0A700A700A70",
"O c #0EDB0EDB0EDB",
"+ c #114411441144",
"@ c #147A147A147A",
"# c #174A174A174A",
"$ c #1AE71AE71AE7",
"% c #1E841E841E84",
"& c #21BB21BB21BB",
"* c #248A248A248A",
"= c #282828282828",
"- c #2B5E2B5E2B5E",
"; c #2E942E942E94",
": c #316431643164",
"> c #329832983366",
", c #350135013501",
"< c #364B366C368A",
"1 c #37D137D137D1",
"2 c #39D3396C396C",
"3 c #396C39D3396C",
"4 c #39D339D3396C",
"5 c #396C396C39D3",
"6 c #39D3396C39D3",
"7 c #396C39D339D3",
"8 c #3B6E3B6E3B6E",
"9 c #3D093CA23CA2",
"0 c #3CA23D093CA2",
"q c #3D093D093CA2",
"w c #3CA23CA23D09",
"e c #3D093CA23D09",
"r c #3CA23D093D09",
"t c #3EA43EA43EA4",
"y c #400F401C401C",
"u c #417441744174",
"i c #433E43524352",
"p c #44AA44AA44AA",
"a c #467E466B4670",
"s c #47E147E147E1",
"d c #4A4A497C497C",
"f c #4B174B174B17",
"g c #4D194CB24CB2",
"h c #4CB24D194CB2",
"j c #4D194D194CB2",
"k c #4CB24CB24D19",
"l c #4D194CB24D19",
"z c #4CB24D194D19",
"x c #4EB44EB44EB4",
"c c #502250225007",
"v c #518451845184",
"b c #535253865352",
"n c #531F531F53ED",
"m c #552155215521",
"M c #56A756885686",
"N c #578A578A578A",
"B c #598C5A5A5A5A",
"V c #5B8E5B8E5B8E",
"C c #5CC25D905D90",
"Z c #5EC45EC45EC4",
"A c #61FB61FB61FB",
"S c #63FD63FD63FD",
"D c None",
/* pixels */
"DDDDDDDDDDDDDDDDDDDDDDDDDDDDDDDDDDDDDDDDDDDDDDDDDDDDDDDDDDDDDDDDDDDDDDDDDDDDDDDDDDDDDDDDDDDDDDDDDDDDDDDDDDDDDDDDDDDDDDDDDDDDDDDD",
"DDDDDDDDDDDDDDDDDDDDDDDDDDDDDDDDDDDDDDDDDDDDDDDDDDDDDDDDDDDDDDDDDDDDDDDDDDDDDDDDDDDDDDDDDDDDDDDDDDDDDDDDDDDDDDDDDDDDDDDDDDDDDDDD",
"DDDDDDDDDDDDDDDDDDDDDDDDDDDDDDDDDDDDDDDDDDDDDDDDDDDDDDDDDDDDDDDDDDDDDDDDDDDDDDDDDDDDDDDDDDDDDDDDDDDDDDDDDDDDDDDDDDDDDDDDDDDDDDDD",
"DDDDDDDDDDDDDDDDDDDDDDDDDDDDDDDDDDDDDDDDDDDDDDDDDDDDDDDDDDDDDDDDDDDDDDDDDDDDDDDDDDDDDDDDDDDDDDDDDDDDDDDDDDDDDDDDDDDDDDDDDDDDDDDD",
"DDDDDDDDDDDDDDDDDDDDDDDDDDDDDDDDDDDDDDDDDDDDDDDDDDDDDDDDDDDDDDDDDDDDDDDDDDDDDDDDDDDDDDDDDDDDDDDDDDDDDDDDDDDDDDDDDDDDDDDDDDDDDDDD",
"DDDDDDDDDDDDDDDDDDDDDDDDDDDDDDDDDDDDDDDDDDDDDDDDDDDDDDDDDDDDDDDDDDDDDDDDDDDDDDDDDDDDDDDDDDDDDDDDDDDDDDDDDDDDDDDDDDDDDDDDDDDDDDDD",
"DDDDDDDDDDDDDDDDDDDDDDDDDDDDDDDDDDDDDDDDDDDDDDDDDDDDDDDDDDDDDDDDDDDDDDDDDDDDDDDDDDDDDDDDDDDDDDDDDDDDDDDDDDDDDDDDDDDDDDDDDDDDDDDD",
"DDDDDDDDDDDDDDDDDDDDDDDDDDDDDDDDDDDDDDDDDDDDDDDDDDDDDDDDDDDDDDDDDDDDDDDDDDDDDDDDDDDDDDDDDDDDDDDDDDDDDDDDDDDDDDDDDDDDDDDDDDDDDDDD",
"DDDDDDDDDDDDDDDDDDDDDDDDDDDDDDDDDDDDDDDDDDDDDDDDDDDDDDDDDDDDDDDDDDDDDDDDDDDDDDDDDDDDDDDDDDDDDDDDDDDDDDDDDDDDDDDDDDDDDDDDDDDDDDDD",
"DDDDDDDDDDDDDDDDDDDDDDDDDDDDDDDDDDDDDDDDDDDDDDDDDDDDDDDDDDDDDDDDDDDDDDDDDDDDDDDDDDDDDDDDDDDDDDDDDDDDDDDDDDDDDDDDDDDDDDDDDDDDDDDD",
"DDDDDDDDDDDDDDDDDDDDDDDDDDDDDDDDDDDDDDDDDDDDDDDDDDDDDDDDDDDDDDDDDDDDDDDDDDDDDDDDDDDDDDDDDDDDDDDDDDDDDDDDDDDDDDDDDDDDDDDDDDDDDDDD",
"DDDDDDDDDDDDDDDDDDDDDDDDDDDDDDDDDDDDDDDDDDDDDDDDDDDDDDDDDDDDDDDDDDDDDDDDDDDDDDDDDDDDDDDDDDDDDDDDDDDDDDDDDDDDDDDDDDDDDDDDDDDDDDDD",
"DDDDDDDDDDDDDDDDDDDDDDDDDDDDDDDDDDDDDDDDDDDDDDDDDDDDDNBNNBNBNBBNBBNBBNNNNNDDDDDDDDDDDDDDDDDDDDDDDDDDDDDDDDDDDDDDDDDDDDDDDDDDDDDD",
"DDDDDDDDDDDDDDDDDDDDDDDDDDDDDDDDDDDDDDDDDDDDDDDDDmNNNBNBNNNBNNNBNNNNNBNBNBNNNNDDDDDDDDDDDDDDDDDDDDDDDDDDDDDDDDDDDDDDDDDDDDDDDDDD",
"DDDDDDDDDDDDDDDDDDDDDDDDDDDDDDDDDDDDDDDDDDDDDDNNNNNNNNNNNNNNNNNNNNNNNNNNNNNBNNNNNDDDDDDDDDDDDDDDDDDDDDDDDDDDDDDDDDDDDDDDDDDDDDDD",
"DDDDDDDDDDDDDDDDDDDDDDDDDDDDDDDDDDDDDDDDDDDNmNNNNNNNNNNNNNNNNNNNNNNNNNNNNNNNNNNNNNNmDDDDDDDDDDDDDDDDDDDDDDDDDDDDDDDDDDDDDDDDDDDD",
"DDDDDDDDDDDDDDDDDDDDDDDDDDDDDDDDDDDDDDDDDmNNNNNNNNNNNNNNNNNNNNNNNNNNmNNNNNNNNNmNNNNNmNDDDDDDDDDDDDDDDDDDDDDDDDDDDDDDDDDDDDDDDDDD",
"DDDDDDDDDDDDDDDDDDDDDDDDDDDDDDDDDDDDDDDbNNNNNNNNNmNNNmNNmNNmNNmNNNNNNNNbttdbmNNNNmNNNNNmDDDDDDDDDDDDDDDDDDDDDDDDDDDDDDDDDDDDDDDD",
"DDDDDDDDDDDDDDDDDDDDDDDDDDDDDDDDDDDDDmmNNmmNNmNmct1ibNNNNNmNmNmNNNmmNbbN=$%=,icNNNmNmNNmNmDDDDDDDDDDDDDDDDDDDDDDDDDDDDDDDDDDDDDD",
"DDDDDDDDDDDDDDDDDDDDDDDDDDDDDDDDDDDDmNNmNNmNNmNNi=%$;imNNmNNmNNNmNNNbNNd;-=*%$*:ubNnNnNNmNmDDDDDDDDDDDDDDDDDDDDDDDDDDDDDDDDDDDDD",
"DDDDDDDDDDDDDDDDDDDDDDDDDDDDDDDDDDbNbNNNbNNmNbmmmdt=&%7NbNNbNNmnbmbNNNbptpt7:-*&$-rcmmmmmmmmmDDDDDDDDDDDDDDDDDDDDDDDDDDDDDDDDDDD",
"DDDDDDDDDDDDDDDDDDDDDDDDDDDDDDDDDmNnNNnmmnmNmcmmnNnd7**dbNbNmmmNNNNmmmd8cNNbca8:=&%=tcmmmmmBmmDDDDDDDDDDDDDDDDDDDDDDDDDDDDDDDDDD",
"DDDDDDDDDDDDDDDDDDDDDDDDDDDDDDDcmmmNnmncacNa,*,ibbNbc,=2NmnNmmmmbnmmmbcdNAAAVVNdu,-&$=yxmmmmmmmbDDDDDDDDDDDDDDDDDDDDDDDDDDDDDDDD",
"DDDDDDDDDDDDDDDDDDDDDDDDDDDDDDcmmmmmmmu-8mmcct*%;8cNba::vbNbmmmmbNmmmNbNNADDDAACNcp7-&=pmmmmmmmmmDDDDDDDDDDDDDDDDDDDDDDDDDDDDDDD",
"DDDDDDDDDDDDDDDDDDDDDDDDDDDDDmmmmmmmbmt%uNambc:-*&-,as88bmbmmmmmbcddaxccmADDDDDSSZNcupdmmmmmmmbmmnDDDDDDDDDDDDDDDDDDDDDDDDDDDDDD",
"DDDDDDDDDDDDDDDDDDDDDDDDDDDDcmmmmbbmbmc:,,%8puii,:;:ifyambmbmbd7-**%**-,dCSDDDDDDSAmcmmmcmcmbmbmbmbDDDDDDDDDDDDDDDDDDDDDDDDDDDDD",
"DDDDDDDDDDDDDDDDDDDDDDDDDDDcmccmbbbbmbbt;-=-:pmmcapaccpcbmbmbu;&*==---:tcZSDDDDDDANmmmmccdmmmbbbbcmbDDDDDDDDDDDDDDDDDDDDDDDDDDDD",
"DDDDDDDDDDDDDDDDDDDDDDDDDDcmmmmnbNbbbbayut88ucVAZVNVVbicbmnni&-,8itipadcVADDDDDDABcmbmcd;=cmmcmbbbmnbDDDDDDDDDDDDDDDDDDDDDDDDDDD",
"DDDDDDDDDDDDDDDDDDDDDDDDDcmbmmcmcbbbdt7dmmbcmCADDSSSZn8abbcc7,icbNVVNVVZASZVSDDSVnmbmcm8%7mcmmnnbbmbbcDDDDDDDDDDDDDDDDDDDDDDDDDD",
"DDDDDDDDDDDDDDDDDDDDDDDDcmcmcmmcbbbs:;umCAAAASDDDDDDAN8,dccp,dNZAASSSSSSSZNcNAAZcccmmbc8=rcncccmcbcmmccDDDDDDDDDDDDDDDDDDDDDDDDD",
"DDDDDDDDDDDDDDDDDDDDDDDxcmmccmcbbbr-;ucCVNNVSDDDDDDDANi-=:::aNASDDDDDDDSANcccNAVdxccccNp1=8cmmmmmccmcmmcDDDDDDDDDDDDDDDDDDDDDDDD",
"DDDDDDDDDDDDDDDDDDDDDDdmnccmnccmbt*:ibVCmbcbNVDDDDDDSCf,-=:umASDDDDDDDSVNctcnbVmu,dccncpu::xcccccccmcbcccDDDDDDDDDDDDDDDDDDDDDDD",
"DDDDDDDDDDDDDDDDDDDDDDncbccncnncc;1dNZCncccbcmCSDDDDDACxuysmZSDDDDDDDABmcx1pccmmy-*;1rrussxvvvcbbmbccbmccDDDDDDDDDDDDDDDDDDDDDDD",
"DDDDDDDDDDDDDDDDDDDDDxcccbbccbcbcuzmAANcncncbcnCSDDDDSACmNVCSDDDDDDDACxdcd,unncmz1;*&=<sxxvvvcbxcccbbcccccDDDDDDDDDDDDDDDDDDDDDD",
"DDDDDDDDDDDDDDDDDDDDdccncccbcccncccCACcccnccbccmCDDDDDDSAAADDDDDDDDDABp,rr,,cncmnszspszccvvvvvvvcmcccccncbxDDDDDDDDDDDDDDDDDDDDD",
"DDDDDDDDDDDDDDDDDDDDccnccmccnccccccmZmcncccnccccmADDDDDDDDDDDDDDDDDDAVd77u7;rupmNcccccvcvcvcvcvccccccbcccccDDDDDDDDDDDDDDDDDDDDD",
"DDDDDDDDDDDDDDDDDDDxcccccbccccccncccmccccccccbcccCSDDDDDDDDDDDDDDDDDSZmdxxd,;,smbccccccvcccccccvcccccccbccccDDDDDDDDDDDDDDDDDDDD",
"DDDDDDDDDDDDDDDDDDpcccccccccncccccccccccccccccccccADDDDDDDDDDDDDDDDDDSACBVmpupdcccccxcccccccccccccccccccxcccxDDDDDDDDDDDDDDDDDDD",
"DDDDDDDDDDDDDDDDDDxcccccccccccccccccccccccccditpxxCSDDDDDDDDDDDDDDDDDDDSSSCmcxxxccczcccxcccccxxcccxcxccccccxxDDDDDDDDDDDDDDDDDDD",
"DDDDDDDDDDDDDDDDDsxcccxccccxccxcccccxxxcccu:*&%&:dVSDDDDDDDDDDDDDDDDDDDDDDACcccxzccccxccxcczcxcxcxcxccxcxxxxxxDDDDDDDDDDDDDDDDDD",
"DDDDDDDDDDDDDDDDDxxcxxcxxxxxcxxxcxcxxxxxxxpy>-;:1sBADDDDDDDDDDDDDDDDDDDDDDAmxxxxcccxcxxcxxxxxcxxxxcxxxxxxcxxxxDDDDDDDDDDDDDDDDDD",
"DDDDDDDDDDDDDDDDpxxxxcxxxcxxxxxxxxxxxxxxcxxcdpspdcVSDDDDDDDDDDDDDDDDDDDDDSCsxxxxxxxxxxxxxxxxxxxxxxxxxxxxxxxxxxdDDDDDDDDDDDDDDDDD",
"DDDDDDDDDDDDDDDDdxxxxxxxxxxxxxxxxxxxxxxxxxfpdmVVVCADDDDDDDDDDDDDDDDDDDDDSAcdxxxxxxxxczxxxxzxxxxxxxxxxxxxxxxxxxxDDDDDDDDDDDDDDDDD",
"DDDDDDDDDDDDDDDuzxxxxxxxxxxxxxxxxxxxxxxxxu,1fVASSSDDDDDDDDDDDDDDDDDDDDDSAmcxxxxzxt;;rczzzxxxxxxxxxxxxxfxxxxxxxxdDDDDDDDDDDDDDDDD",
"DDDDDDDDDDDDDDDdxxxxxxxxxxxxxfxfxxxxxdxp:=;unCDDDDDDDDDDDDDDDDDDDDDDDDDANxxzxxxx1&%%$>crrzxxczzzdxxfxfxxxfxxfxxfDDDDDDDDDDDDDDDD",
"DDDDDDDDDDDDDDDxdxxxxfxfxxxzxxxxxxxdxx8-=:ucCSDDDDDDDDDDDDDDDDDDDDDDDDSVcdxxxxf7*;:;**yp-azzzczzxfxxfxdxfxdxxffxDDDDDDDDDDDDDDDD",
"DDDDDDDDDDDDDDpdxzdxfxxxfxdxxfdxfxdxc7*;rdmZSDDDDDDDDDDDDDDDDDDDDDDDDDAcsxdxdxr-7pzp7=>7$>zdrpzzfxxfxfxxxfxxzfxxxDDDDDDDDDDDDDDD",
"DDDDDDDDDDDDDDdxxdxzxffxfxffzfxxxfxf7=,dcCASDDDDDDDDDDDDDDDDDDDDDDDDDACx7pczu,-rxCCNd7;:-&:-$*1afxdxfxfffxdxfxffdDDDDDDDDDDDDDDD",
"DDDDDDDDDDDDDDxzzdfxffxdfzzzzfxffff7=7fVASDDDDDDDDDDDDDDDDDDDDDDDDDDDSZx:=,7::udcNBANzpyr:-==&&=rzzzzzzzfzfzzfzfxDDDDDDDDDDDDDDD",
"DDDDDDDDDDDDDrdzdxxffxfxzzdzfzffdxr=7xVADDDDDDDDDDDDDDDDDDDDDDDDDDDDDDZc7;&;7pzdfzzzcnmmvayyy1=&$-yzdffffzfzfzfzdsDDDDDDDDDDDDDD",
"DDDDDDDDDDDDDpxxzfxffxffzffxfzfxxp:7xVADDDDDDDDDDDDDDDDDDDDDDDDDDDDDDDANd8raffdfffzszzzCABNNnzi>=%1zzdzffffffffffdDDDDDDDDDDDDDD",
"DDDDDDDDDDDDDddddfffffffffffffffs,7dVADDDDDDDDDDDDDDDDDDDDDDDDDDDDDDDDAAmdddffdxfffzzfzcnmmBVCns11pzdzddfffffffffdDDDDDDDDDDDDDD",
"DDDDDDDDDDDDDddzffffffffffffffff81dCADDDDDDDDDDDDDDDDDDDDDDDDDDDDDDDDDSAzfffffffzszdfzzdfffffzzzddfffffzfdffszffdfDDDDDDDDDDDDDD",
"DDDDDDDDDDDD7zddfdffdfdffdfddfdp,pNADDDDDDDDDDDDDDDDDDDDDDDDDDDDDDDDDSCmzdfffddfszdzfsddfdffffsfzzfsffddfffdffddffpDDDDDDDDDDDDD",
"DDDDDDDDDDDDyzddfdfdfdfdpr7rpfdtycCSDDDDDDDDDDDDDDDDDDDDDDDDDDDDDDDDDAmdfffdfdfdzdzdsfdzdffdsffffffffssfffdffafddfpDDDDDDDDDDDDD",
"DDDDDDDDDDDDpdzzsfdfddi>*$$$&,s7fCSDDDDDDDDDDDDDDDDDDDDDDDDDDDDDDDDDABddfsdddfddsdszssszddsffssfsssyfsffssfs8;pddddDDDDDDDDDDDDD",
"DDDDDDDDDDDDpdddffsfsy;*=;;=**<uNADDDDDDDDDDDDDDDDDDDDDDDDDDDDDDDDDSCzfssssfssfszsszszddfsszsfsfsss>yddddddd8*sddddDDDDDDDDDDDDD",
"DDDDDDDDDDDDsdddsdfsp;-1ysau7<txCSDDDDDDDDDDDDDDDDDDDDDDDDDDDDDDDDDZnfsssffssfsdssssssdssfsssszsszs>:sdsddsdi:psdssDDDDDDDDDDDDD",
"DDDDDDDDDDDDssdsdsssy:pcNCCNbxcVADDDDDDDDDDDDDDDDDDDDDDDDDDDDDDDDDACzszsssssssdssssssszssssssssssssy&1ssdssssisssdpDDDDDDDDDDDDD",
"DDDDDDDDDDD;sdssssfsypnZASSAZZZSDDDDDDDDDDDDDDDDDDDDDDDDDDDDDDDDDDAnssssfssffdsdzssssssssszssssfsdds:=ysssssssssssdDDDDDDDDDDDDD",
"DDDDDDDDDDD;dsssssssicZSDDDDDSSDDDDDDDDDDDDDDDDDDDDDDDDDDDDDDDDDDSCdpssssssssssssssssssssssssssssssst*;sssssspsssssDDDDDDDDDDDDD",
"DDDDDDDDDDD;sssssssssMAZVZDDDDDDDDDDDDDDDDDDDDDDDDDDDDDDDDDDDDDDDSMpsssssssspsssssssssssssssssssssssp>*1sssssssssssDDDDDDDDDDDDD",
"DDDDDDDDDDD-ssssssssszzfsdCDDDDDDDDDDDDDDDDDDDDDDDDDDDDDDDDDDDDDDZcussssssspssssssassssasssssaasassssy--spssssdssssDDDDDDDDDDDDD",
"DDDDDDDDDDD-sssppssssasssscADDDDDDDDDDDDDDDDDDDDDDDDDDDDDDDDDDDDSZdyspssspssspssspssspsassspaaasaaassp1=tpsspspdppdDDDDDDDDDDDDD",
"DDDDDDDDDDD=daaa,:dpddaapddCSDDDDDDDDDDDDDDDDDDDDDDDDDDDDDDDDDDDSVpudpsspppssspsdpaaaaaadaaaaaaaaaaaaay-,daaaaaaaaaDDDDDDDDDDDDD",
"DDDDDDDDDDD-paaa7$:upaaappdmSDDDDDDDDDDDDDDDDDDDDDDDDDDDDDDDDDDDSCpraapdpddppspsaaaadaaaapaaaaaaaaaaaap,;paaaaiaaaaDDDDDDDDDDDDD",
"DDDDDDDDDDD-aaaar=%=,ppaspadADDDDDDDDDDDDDDDDDDDDDDDDDDDDDDDDDDDSBu7paaadpdppsspaapapapaaaapaaaaaaaapaat:iapp,9aaaaDDDDDDDDDDDDD",
"DDDDDDDDDDD-paapu,;*#=,uaspdmSDDDDDSDDDDDDDDDDDDDDDDDDDDDDDDDDDDSMy,iapapppppspppaappaappapapapaappaaaaitpaa,$tapaaDDDDDDDDDDDDD",
"DDDDDDDDDDD%papappu,;&%&;tapdZSAAnxddcmVDDDDDDDDDDDDDDDDDDDDDDDDSCp:taapsppppppspapapapppaappaappappppapyaap9*tpapiDDDDDDDDDDDDD",
"DDDDDDDDDDD#upappzmxu,=*%&,picCVcappppadbVDDDDDDDDDDDDDDDDDDDDDDSBa:,pppppppppppppppppppppppppppppppppppppppa,uappaDDDDDDDDDDDDD",
"DDDDDDDDDDDDtapppxBCNcp7;=*:ypaapppppppppacSDDDDDDDDDDDDDDDDDDDDDCc7=8ppppppppppppppppppppppppppppppppppppppp8ypppiDDDDDDDDDDDDD",
"DDDDDDDDDDDDtppppxCSACNcp7;-,yppppppppppppacADDDDDDDDDDDDDDDDDDDDABu--8ppppippippipipppipipipipipppippipppipp,ipipyDDDDDDDDDDDDD",
"DDDDDDDDDDDD7pippdCSDDSAVcu,;-7pppppipppipppdSDDDDDDDDDDDDDDDDDDDACx7*=7pipippipppiipippipipiiiiipippupippupi1ppiatDDDDDDDDDDDDD",
"DDDDDDDDDDDD;ppipdCSDDDDSZNa,--uupippupuiiiiibSDDDDDDDDDDDDDDDDDDDACd:*=,uppupt,,,tpiiiipipiiaiipiiipuipupii1,iiii,DDDDDDDDDDDDD",
"DDDDDDDDDDDD%iupupmSDDDDDSANd,=tpupiuppuipiiiaNADDDDDDDDDDDDDDDDDDDAmp:*%*:1:=&%$$*8piiiiiiiiiiptiiippipiii8-8uiiiDDDDDDDDDDDDDD",
"DDDDDDDDDDDD#upiupcSDDDDDDSANp,iupupipuipyiiiiabSDDDDDDDDDDDDDDDDDDSZma,-*%%&*---=%-iiiiiiuiiiiiaiiiupyiii8--uipptDDDDDDDDDDDDDD",
"DDDDDDDDDDDDD7iiupxADDDDDDDSCdtupuiiiiuiiiyiiiuacADDDDDDDDDDDDDDDDDDSANxu7,:1rusi8;*8iuuytpiiuiuitiiypiiyt-=,uiui8DDDDDDDDDDDDDD",
"DDDDDDDDDDDDD-upuuaCSDDDDDDSVauuupuuuiuiiuiiiiuuuabSDDDDDDDDDDDDDDDDDSACBcxxcmNBVbt=:uipiiiyuuuiiiiiyiiyi,;:9uuut,DDDDDDDDDDDDDD",
"DDDDDDDDDDDDD%uuuuumSDDDDDDANpuuuupuuiuiiiiiyipuuupaNSDDDDDDDDDDDDDDDDDSAACZASSSACc,;iuuuuyiuuuuttitiyiyu:88uuuui=DDDDDDDDDDDDDD",
"DDDDDDDDDDDDDOrupuuxADDDDDDZcuuuuuuuuuuutiyuituuuuuyifNDDDDDDDDDDDDDDDDDDDDDDDDDDAmt;uuuuuuuuuuuiiyitiyit8ituuuutDDDDDDDDDDDDDDD",
"DDDDDDDDDDDDDD:uuuuaCSDDDDSVaiuuuuuuuuuuuuuuuuuuuuuuuuibADDDDDDDDDDDDDDDDDDDDDDDDSVp;8uuiuuiuuuuuyuyuyuuraatuutu,DDDDDDDDDDDDDDD",
"DDDDDDDDDDDDDD*utuuucSDDDDAmuuuuuuuuuuutuuuyyuuyuutuuuuudSDDDDDDDDDDDDDDDDDDDDDDDSCx:8uutuuttutiuuuuuuuytapuuuuu-DDDDDDDDDDDDDDD",
"DDDDDDDDDDDDDDX,tiuudADDDDCcttuuyuuytuutyyuututuuuuutuuuaADDDDDDDDDDDDDDDDDDDDDDDDZc,,utuuitttuituyutuuyudutruu7DDDDDDDDDDDDDDDD",
"DDDDDDDDDDDDDDD;uutuumSDDACd8utuuutuuyuuyutuuutututtuttuaVSDDDDDDDDDDDDDDDDDDDDDDDAm8:uttutiuittuyutuytuuuuuutu:DDDDDDDDDDDDDDDD",
"DDDDDDDDDDDDDDD@8uuttsADDSVa:7ittutuuttuututytuyyttuytyuiNSDDDDDDDDDDDDDDDDDDDDDDDSNu:tttyttuttitutuututrututu8DDDDDDDDDDDDDDDDD",
"DDDDDDDDDDDDDDDD-utuuumSDSCd;-,tttutututtututuutittitittpNADDDDDDDDDDDDDDDDDDDDDDDSVa;rttitututttttttytt7tttut:DDDDDDDDDDDDDDDDD",
"DDDDDDDDDDDDDDDD@7utttsADDZc7*-uutyututututytyttittyytttaVADDDDDDDDDDDDDDDDDDDDDDDSCd:rtyttttttttyutttu88ttut8DDDDDDDDDDDDDDDDDD",
"DDDDDDDDDDDDDDDD -tyttucSDACa:&;tttttttttttuttytttttytttdCSDDDDDDDDDDDDDDDDDDDDDDDDAc,rtttttutttttttttttttttt:DDDDDDDDDDDDDDDDDD",
"DDDDDDDDDDDDDDDDD@8ttttpASSAmp;%;tttttttttttttttttttttttcCDDDDDDDDDDDDDDDDDDDDDDDDDAc,8ttttttttttttttttttttt8DDDDDDDDDDDDDDDDDDD",
"DDDDDDDDDDDDDDDDD =tttttcADSZcy;%;ttttttttttttttttttttttcADDDDDDDDDDDDDDDDDDDDDDDDDAb,8ttttttttttttttttttttt-DDDDDDDDDDDDDDDDDDD",
"DDDDDDDDDDDDDDDDDDo,ttttumSDSCct-*,tttttttttrtrtttrttrtumADDDDDDDDDDDDDDDDDDDDDDDDDAc88ttttttttttt8ttt8tttt,DDDDDDDDDDDDDDDDDDDD",
"DDDDDDDDDDDDDDDDDD %tt8ttaADDSZc8==8t8ttttrtttrt8tttrt7iNSDDDDDDDDDDDDDDDDDDDDDDDDDZc,8r8rtt8t8tttrt8t8t8tr*DDDDDDDDDDDDDDDDDDDD",
"DDDDDDDDDDDDDDDDDDD -tttt8dSDDAVd,*:t8t88ttt8ttrt8ttrt8dCSDDDDDDDDDDDDDDDDDDDDDDDDDAc8rtt8t8t8t8t8t8tt8t8t;DDDDDDDDDDDDDDDDDDDDD",
"DDDDDDDDDDDDDDDDDDD +:888trcSDDANp;=888ttt88t8t8t8t8rr8cADDDDDDDDDDDDDDDDDDDDDDDDDDZc,,tt88t8tt8rt8t8rr8t,@DDDDDDDDDDDDDDDDDDDDD",
"DDDDDDDDDDDDDDDDDDDD $8t8t8ucSDSAc8*:88t888t8t8t8trr87tNADDDDDDDDDDDDDDDDDDDDDDDDDDAb,,t888rtt8t8rt8rrr88%DDDDDDDDDDDDDDDDDDDDDD",
"DDDDDDDDDDDDDDDDDDDDD *rr8rrumSDSVd:-8888tt88r888t88:,dVSDDDDDDDDDDDDDDDDDDDDDDDDDDAm7,rt8t88888r88r888t-DDDDDDDDDDDDDDDDDDDDDDD",
"DDDDDDDDDDDDDDDDDDDDD  =8t8r8umASAbt=,t88t888889898:=8nZDDDDDDDDDDDDDDDDDDDDDDDDDDDAN8:88888888888888t8-DDDDDDDDDDDDDDDDDDDDDDDD",
"DDDDDDDDDDDDDDDDDDDDDD +:8r88rubSAVa-,889888t88888,-8cVSDDDDDDDDDDDDDDDDDDDDDDDDDDDANi;888888888888888:@DDDDDDDDDDDDDDDDDDDDDDDD",
"DDDDDDDDDDDDDDDDDDDDDDD @:88888ubAVc,,t88888888888:8cVADDDDDDDDDDDDDDDDDDDDDDDDDDDDSVi;88888888888888,#DDDDDDDDDDDDDDDDDDDDDDDDD",
"DDDDDDDDDDDDDDDDDDDDDDDD @:78887icZb,,88888888888,,dVADDDDDDDDDDDDDDDDDDDDDDDDDDDDDAVa;,888888878887:#DDDDDDDDDDDDDDDDDDDDDDDDDD",
"DDDDDDDDDDDDDDDDDDDDDDDDD @:778888ant,878888888,r,aNADDDDDDDDDDDDDDDDDDDDDDDDDDDDDDDZc:;88887878788:#DDDDDDDDDDDDDDDDDDDDDDDDDDD",
"DDDDDDDDDDDDDDDDDDDDDDDDD  @:777787t8,778781818888cZDDDDDDDDDDDDDDDDDDDDDDDDDDDDDDDDAb8-,88,778777:#DDDDDDDDDDDDDDDDDDDDDDDDDDDD",
"DDDDDDDDDDDDDDDDDDDDDDDDDD  @;877781788718181818,aVADDDDDDDDDDDDDDDDDDDDDDDDDDDDDDDDANi;:88877777:#DDDDDDDDDDDDDDDDDDDDDDDDDDDDD",
"DDDDDDDDDDDDDDDDDDDDDDDDDDD  O=777788,8,8181818,8cZDDDDDDDDDDDDDDDDDDDDDDDDDDDDDDDDDAVa,,1817778=+DDDDDDDDDDDDDDDDDDDDDDDDDDDDDD",
"DDDDDDDDDDDDDDDDDDDDDDDDDDDD   *8777,88822,8878,tNADDDDDDDDDDDDDDDDDDDDDDDDDDDDDDDDDAct887788,,* DDDDDDDDDDDDDDDDDDDDDDDDDDDDDDD",
"DDDDDDDDDDDDDDDDDDDDDDDDDDDDDD  #;77,888,28877:,xCADDDDDDDDDDDDDDDDDDDDDDDDDDDDDDDAma8,818,18;$DDDDDDDDDDDDDDDDDDDDDDDDDDDDDDDDD",
"DDDDDDDDDDDDDDDDDDDDDDDDDDDDDDD  O*7,8,,188,,,-iBADDDDDDDDDDDDDDDDDDDDDDDDDDDDDSAvi8,,2,7,17=@DDDDDDDDDDDDDDDDDDDDDDDDDDDDDDDDDD",
"DDDDDDDDDDDDDDDDDDDDDDDDDDDDDDDD   $;88,8,118,1umSDDDDDDDDDDDDDDDDDDDDDDDDDDDSNdi8,8888,11;% DDDDDDDDDDDDDDDDDDDDDDDDDDDDDDDDDDD",
"DDDDDDDDDDDDDDDDDDDDDDDDDDDDDDDDD   o&,7,,8,7,778udmZDDDDDDDDDDDDDDDDDDDDACmdi87,87,,8,,:*o DDDDDDDDDDDDDDDDDDDDDDDDDDDDDDDDDDDD",
"DDDDDDDDDDDDDDDDDDDDDDDDDDDDDDDDDDD   O*:88,,77,8,78tpdcmVZZZSSSSSZZZCmcdpt81,,,7,,88,,=+ DDDDDDDDDDDDDDDDDDDDDDDDDDDDDDDDDDDDDD",
"DDDDDDDDDDDDDDDDDDDDDDDDDDDDDDDDDDDD    O*:,,11,,7,,,1,877rrtuuiuurrr78,7,1,7,77,7,,:*O  DDDDDDDDDDDDDDDDDDDDDDDDDDDDDDDDDDDDDDD",
"DDDDDDDDDDDDDDDDDDDDDDDDDDDDDDDDDDDDDD    O*;,7,,,7,1,7,,,,1,1,1,,7,,,7,,1,7,,,1,,;*+  DDDDDDDDDDDDDDDDDDDDDDDDDDDDDDDDDDDDDDDDD",
"DDDDDDDDDDDDDDDDDDDDDDDDDDDDDDDDDDDDDDDD    .%=:,,,,1,1,1,1,1,1,71,1,1,,1,1,1,1:=$.  DDDDDDDDDDDDDDDDDDDDDDDDDDDDDDDDDDDDDDDDDDD",
"DDDDDDDDDDDDDDDDDDDDDDDDDDDDDDDDDDDDDDDDDD     o#&;,1,11,1,11,11,,1,1,11,1,,-&#o   DDDDDDDDDDDDDDDDDDDDDDDDDDDDDDDDDDDDDDDDDDDDD",
"DDDDDDDDDDDDDDDDDDDDDDDDDDDDDDDDDDDDDDDDDDDDD     .O#%-;:>,,>1,,,,,,,::;=&#O.   DDDDDDDDDDDDDDDDDDDDDDDDDDDDDDDDDDDDDDDDDDDDDDDD",
"DDDDDDDDDDDDDDDDDDDDDDDDDDDDDDDDDDDDDDDDDDDDDDD        .oO+#$$$$$$$%+Oo.      DDDDDDDDDDDDDDDDDDDDDDDDDDDDDDDDDDDDDDDDDDDDDDDDDD",
"DDDDDDDDDDDDDDDDDDDDDDDDDDDDDDDDDDDDDDDDDDDDDDDDDDD                       DDDDDDDDDDDDDDDDDDDDDDDDDDDDDDDDDDDDDDDDDDDDDDDDDDDDDD",
"DDDDDDDDDDDDDDDDDDDDDDDDDDDDDDDDDDDDDDDDDDDDDDDDDDDDDDDDD           DDDDDDDDDDDDDDDDDDDDDDDDDDDDDDDDDDDDDDDDDDDDDDDDDDDDDDDDDDDD",
"DDDDDDDDDDDDDDDDDDDDDDDDDDDDDDDDDDDDDDDDDDDDDDDDDDDDDDDDDDDDDDDDDDDDDDDDDDDDDDDDDDDDDDDDDDDDDDDDDDDDDDDDDDDDDDDDDDDDDDDDDDDDDDDD",
"DDDDDDDDDDDDDDDDDDDDDDDDDDDDDDDDDDDDDDDDDDDDDDDDDDDDDDDDDDDDDDDDDDDDDDDDDDDDDDDDDDDDDDDDDDDDDDDDDDDDDDDDDDDDDDDDDDDDDDDDDDDDDDDD",
"DDDDDDDDDDDDDDDDDDDDDDDDDDDDDDDDDDDDDDDDDDDDDDDDDDDDDDDDDDDDDDDDDDDDDDDDDDDDDDDDDDDDDDDDDDDDDDDDDDDDDDDDDDDDDDDDDDDDDDDDDDDDDDDD",
"DDDDDDDDDDDDDDDDDDDDDDDDDDDDDDDDDDDDDDDDDDDDDDDDDDDDDDDDDDDDDDDDDDDDDDDDDDDDDDDDDDDDDDDDDDDDDDDDDDDDDDDDDDDDDDDDDDDDDDDDDDDDDDDD",
"DDDDDDDDDDDDDDDDDDDDDDDDDDDDDDDDDDDDDDDDDDDDDDDDDDDDDDDDDDDDDDDDDDDDDDDDDDDDDDDDDDDDDDDDDDDDDDDDDDDDDDDDDDDDDDDDDDDDDDDDDDDDDDDD",
"DDDDDDDDDDDDDDDDDDDDDDDDDDDDDDDDDDDDDDDDDDDDDDDDDDDDDDDDDDDDDDDDDDDDDDDDDDDDDDDDDDDDDDDDDDDDDDDDDDDDDDDDDDDDDDDDDDDDDDDDDDDDDDDD",
"DDDDDDDDDDDDDDDDDDDDDDDDDDDDDDDDDDDDDDDDDDDDDDDDDDDDDDDDDDDDDDDDDDDDDDDDDDDDDDDDDDDDDDDDDDDDDDDDDDDDDDDDDDDDDDDDDDDDDDDDDDDDDDDD",
"DDDDDDDDDDDDDDDDDDDDDDDDDDDDDDDDDDDDDDDDDDDDDDDDDDDDDDDDDDDDDDDDDDDDDDDDDDDDDDDDDDDDDDDDDDDDDDDDDDDDDDDDDDDDDDDDDDDDDDDDDDDDDDDD",
"DDDDDDDDDDDDDDDDDDDDDDDDDDDDDDDDDDDDDDDDDDDDDDDDDDDDDDDDDDDDDDDDDDDDDDDDDDDDDDDDDDDDDDDDDDDDDDDDDDDDDDDDDDDDDDDDDDDDDDDDDDDDDDDD",
"DDDDDDDDDDDDDDDDDDDDDDDDDDDDDDDDDDDDDDDDDDDDDDDDDDDDDDDDDDDDDDDDDDDDDDDDDDDDDDDDDDDDDDDDDDDDDDDDDDDDDDDDDDDDDDDDDDDDDDDDDDDDDDDD"
};
