/* XPM */
static char *ccc_large[] = {
/* columns rows colors chars-per-pixel */
"128 128 48 1 ",
"  c black",
". c #046A046A046A",
"X c #073A073A073A",
"o c gray4",
"O c #0E0E0E0E0E0E",
"+ c #11AB11AB11AB",
"@ c #14E114E114E1",
"# c #174A174A174A",
"$ c #1B4E1AE71AE7",
"% c #1E841E841E84",
"& c #208620862086",
"* c #24F124F124F1",
"= c #268C25BF25BF",
"- c #282828282828",
"; c #2B5E2B5E2B5E",
": c #2C2C2CF92C2C",
"> c #2E942E942E94",
", c #30302FC93030",
"< c #31CB31CB31CB",
"1 c #349A349A349A",
"2 c gray22",
"3 c #3BD53BD53BD5",
"4 c #3D093CA23CA2",
"5 c #3CA23D093CA2",
"6 c #3CA23D093D09",
"7 c #3EA43EA43EA4",
"8 c #3FFA4007401F",
"9 c #41DB41DB41DB",
"0 c #434243444343",
"q c #4511451144AA",
"w c #46AC467F4673",
"e c #47E147E147E1",
"r c #49E3497C497C",
"t c #497C49E3497C",
"y c #49E349E3497C",
"u c #497C497C49E3",
"i c #49E3497C49E3",
"p c #497C49E349E3",
"a c #4B174B174B17",
"s c #4CB24D194CB2",
"d c #4D194CB24D19",
"f c #4EB44EB44EB4",
"g c #5039502A500D",
"h c #51EB51EB51EB",
"j c #5327534A537C",
"k c #53ED531F531F",
"l c #53ED53ED53ED",
"z c None",
/* pixels */
"zzzzzzzzzzzzzzzzzzzzzzzzzzzzzzzzzzzzzzzzzzzzzzzzzzzzzzzzzzzzzzzzzzzzzzzzzzzzzzzzzzzzzzzzzzzzzzzzzzzzzzzzzzzzzzzzzzzzzzzzzzzzzzzz",
"zzzzzzzzzzzzzzzzzzzzzzzzzzzzzzzzzzzzzzzzzzzzzzzzzzzzzzzzzzzzzzzzzzzzzzzzzzzzzzzzzzzzzzzzzzzzzzzzzzzzzzzzzzzzzzzzzzzzzzzzzzzzzzzz",
"zzzzzzzzzzzzzzzzzzzzzzzzzzzzzzzzzzzzzzzzzzzzzzzzzzzzzzzzzzzzzzzzzzzzzzzzzzzzzzzzzzzzzzzzzzzzzzzzzzzzzzzzzzzzzzzzzzzzzzzzzzzzzzzz",
"zzzzzzzzzzzzzzzzzzzzzzzzzzzzzzzzzzzzzzzzzzzzzzzzzzzzzzzzzzzzzzzzzzzzzzzzzzzzzzzzzzzzzzzzzzzzzzzzzzzzzzzzzzzzzzzzzzzzzzzzzzzzzzzz",
"zzzzzzzzzzzzzzzzzzzzzzzzzzzzzzzzzzzzzzzzzzzzzzzzzzzzzzzzzzzzzzzzzzzzzzzzzzzzzzzzzzzzzzzzzzzzzzzzzzzzzzzzzzzzzzzzzzzzzzzzzzzzzzzz",
"zzzzzzzzzzzzzzzzzzzzzzzzzzzzzzzzzzzzzzzzzzzzzzzzzzzzzzzzzzzzzzzzzzzzzzzzzzzzzzzzzzzzzzzzzzzzzzzzzzzzzzzzzzzzzzzzzzzzzzzzzzzzzzzz",
"zzzzzzzzzzzzzzzzzzzzzzzzzzzzzzzzzzzzzzzzzzzzzzzzzzzzzzzzzzzzzzzzzzzzzzzzzzzzzzzzzzzzzzzzzzzzzzzzzzzzzzzzzzzzzzzzzzzzzzzzzzzzzzzz",
"zzzzzzzzzzzzzzzzzzzzzzzzzzzzzzzzzzzzzzzzzzzzzzzzzzzzzzzzzzzzzzzzzzzzzzzzzzzzzzzzzzzzzzzzzzzzzzzzzzzzzzzzzzzzzzzzzzzzzzzzzzzzzzzz",
"zzzzzzzzzzzzzzzzzzzzzzzzzzzzzzzzzzzzzzzzzzzzzzzzzzzzzzzzzzzzzzzzzzzzzzzzzzzzzzzzzzzzzzzzzzzzzzzzzzzzzzzzzzzzzzzzzzzzzzzzzzzzzzzz",
"zzzzzzzzzzzzzzzzzzzzzzzzzzzzzzzzzzzzzzzzzzzzzzzzzzzzzzzzzzzzzzzzzzzzzzzzzzzzzzzzzzzzzzzzzzzzzzzzzzzzzzzzzzzzzzzzzzzzzzzzzzzzzzzz",
"zzzzzzzzzzzzzzzzzzzzzzzzzzzzzzzzzzzzzzzzzzzzzzzzzzzzzzzzzzzzzzzzzzzzzzzzzzzzzzzzzzzzzzzzzzzzzzzzzzzzzzzzzzzzzzzzzzzzzzzzzzzzzzzz",
"zzzzzzzzzzzzzzzzzzzzzzzzzzzzzzzzzzzzzzzzzzzzzzzzzzzzzzzzzzzzzzzzzzzzzzzzzzzzzzzzzzzzzzzzzzzzzzzzzzzzzzzzzzzzzzzzzzzzzzzzzzzzzzzz",
"zzzzzzzzzzzzzzzzzzzzzzzzzzzzzzzzzzzzzzzzzzzzzzzzzzzzzzzzzzzzzzzzzzzzzzzzzzzzzzzzzzzzzzzzzzzzzzzzzzzzzzzzzzzzzzzzzzzzzzzzzzzzzzzz",
"zzzzzzzzzzzzzzzzzzzzzzzzzzzzzzzzzzzzzzzzzzzzzzzzzzzzzzzzzzzzzzzzzzzzzzzzzzzzzzzzzzzzzzzzzzzzzzzzzzzzzzzzzzzzzzzzzzzzzzzzzzzzzzzz",
"zzzzzzzzzzzzzzzzzzzzzzzzzzzzzzzzzzzzzzzzzzzzzzzzzzzzzzzzzzzzzzzzzzzzzzzzzzzzzzzzzzzzzzzzzzzzzzzzzzzzzzzzzzzzzzzzzzzzzzzzzzzzzzzz",
"zzzzzzzzzzzzzzzzzzzzzzzzzzzzzzzzzzzzzzzzzzzzzzzzzzzzzzzzzzzzzzzzzzzzzzzzzzzzzzzzzzzzzzzzzzzzzzzzzzzzzzzzzzzzzzzzzzzzzzzzzzzzzzzz",
"zzzzzzzzzzzzzzzzzzzzzzzzzzzzzzzzzzzzzzzzzzzzzzzzzzzzzzzzzzzzzzzzzzzzzzzzzzzzzzzzzzzzzzzzzzzzzzzzzzzzzzzzzzzzzzzzzzzzzzzzzzzzzzzz",
"zzzzzzzzzzzzzzzzzzzzzzzzzzzzzzzzzzzzzzzzzzzzzzzzzzzzzzzzzzzzzzzzzzzzzzzzzzzzzzzzzzzzzzzzzzzzzzzzzzzzzzzzzzzzzzzzzzzzzzzzzzzzzzzz",
"zzzzzzzzzzzzzzzzzzzzzzzzzzzzzzzzzzzzzzzzzzzzzzzzzzzzzzzzzzzzzzzzzzzzzzzzzzzzzzzzzzzzzzzzzzzzzzzzzzzzzzzzzzzzzzzzzzzzzzzzzzzzzzzz",
"zzzzzzzzzzzzzzzzzzzzzzzzzzzzzzzzzzzzzzzzzzzzzzzzzzzzzzzzzzzzzzzzzzzzzzzzzzzzzzzzzzzzzzzzzzzzzzzzzzzzzzzzzzzzzzzzzzzzzzzzzzzzzzzz",
"zzzzzzzzzzzzzzzzzzzzzzzzzzzzzzzzzzzzzzzzzzzzzzzzzzzzzzzzzzzzzzzzzzzzzzzzzzzzzzzzzzzzzzzzzzzzzzzzzzzzzzzzzzzzzzzzzzzzzzzzzzzzzzzz",
"zzzzzzzzzzzzzzzzzzzzzzzzzzzzzzzzzzzzzzzzzzzzzzzzzzzzzzzzzzzzzzzzzzzzzzzzzzzzzzzzzzzzzzzzzzzzzzzzzzzzzzzzzzzzzzzzzzzzzzzzzzzzzzzz",
"zzzzzzzzzzzzzzzzzzzzzzzzzzzzzzzzzzzzzzzzzzzzzzzzzzzzzzzzzzzzzzzzzzzzzzzzzzzzzzzzzzzzzzzzzzzzzzzzzzzzzzzzzzzzzzzzzzzzzzzzzzzzzzzz",
"zzzzzzzzzzzzzzzzzzzzzzzzzzzzzzzzzzzzzzzzzzzzzzzzzzzzzzzzzzzzzzzzzzzzzzzzzzzzzzzzzzzzzzzzzzzzzzzzzzzzzzzzzzzzzzzzzzzzzzzzzzzzzzzz",
"zzzzzzzzzzzzzzzzzzzzzzzzzzzzzzzzzzzzzzzzzzzzzzzzzzzzzzzzzzzzzzzzzzzzzzzzzzzzzzzzzzzzzzzzzzzzzzzzzzzzzzzzzzzzzzzzzzzzzzzzzzzzzzzz",
"zzzzzzzzzzzzzzzzzzzzzzzzzzzzzzzzzzzzzzzzzzzzzzzzzzzzzzzzzzzzzzzzzzzzzzzzzzzzzzzzzzzzzzzzzzzzzzzzzzzzzzzzzzzzzzzzzzzzzzzzzzzzzzzz",
"zzzzzzzzzzzzzzzzzzzzzzzzzzzzzzzzzzzzzzzzzzzzzzzzzzzzzzzzzzzzzzzzzzzzzzzzzzzzzzzzzzzzzzzzzzzzzzzzzzzzzzzzzzzzzzzzzzzzzzzzzzzzzzzz",
"zzzzzzzzzzzzzzzzzzzzzzzzzzzzzzzzzzzzzzzzzzzzzzzzzzzzzzzzzzzzzzzzzzzzzzzzzzzzzzzzzzzzzzzzzzzzzzzzzzzzzzzzzzzzzzzzzzzzzzzzzzzzzzzz",
"zzzzzzzzzzzzzzzzzzzzzzzzzzzzzzzzzzzzzzzzzzzzzzzzzzzzzzzzzzzzzzzzzzzzzzzzzzzzzzzzzzzzzzzzzzzzzzzzzzzzzzzzzzzzzzzzzzzzzzzzzzzzzzzz",
"zzzzzzzzzzzzzzzzzzzzzzzzzzzzzzzzzzzzzzzzzzzzzzzzzzzzzzzzzzzzzzzzzzzzzzzzzzzzzzzzzzzzzzzzzzzzzzzzzzzzzzzzzzzzzzzzzzzzzzzzzzzzzzzz",
"zzzzzzzzzzzzzzzzzzzzzzzzzzzzzzzzzzzzzzzzzzzzzzzzzzzzzzzzzzzzzzzzzzzzzzzzzzzzzzzzzzzzzzzzzzzzzzzzzzzzzzzzzzzzzzzzzzzzzzzzzzzzzzzz",
"zzzzzzzzzzzzzzzzzzzzzzzzzzzzzzzzzzzzzzzzzzzzzzzzzzzzzzzzzzzzzzzzzzzzzzzzzzzzzzzzzzzzzzzzzzzzzzzzzzzzzzzzzzzzzzzzzzzzzzzzzzzzzzzz",
"zzzzzzzzzzzzzzzzzzzzzzzzzzzzzzzzzzzzzzzzzzzzzzzzzzzzzzzzzzzzzzzzzzzzzzzzzzzzzzzzzzzzzzzzzzzzzzzzzzzzzzzzzzzzzzzzzzzzzzzzzzzzzzzz",
"zzzzzzzzzzzzzzzzzzzzzzzzzzzzzzzzzzzzzzzzzzzzzzzzzzzzzzzzzzzzzzzzzzzzzzzzzzzzzzzzzzzzzzzzzzzzzzzzzzzzzzzzzzzzzzzzzzzzzzzzzzzzzzzz",
"zzzzzzzzzzzzzzzzzzzzzzzzzzzzzzzzzzzzzzzzzzzzzzzzzzzzzzzzzzzzzzzzzzzzzzzzzzzzzzzzzzzzzzzzzzzzzzzzzzzzzzzzzzzzzzzzzzzzzzzzzzzzzzzz",
"zzzzzzzzzzzzzzzzzzzzzzzzzzzzzzzzzzzzzzzzzzzzzzzzzzzzzzzzzzzzzzzzzzzzzzzzzzzzzzzzzzzzzzzzzzzzzzzzzzzzzzzzzzzzzzzzzzzzzzzzzzzzzzzz",
"zzzzzzzzzzzzzzzzzzzzzzzzzzzzzzzzzzzzzzzzzzzzzzzzzzzzzzzzzzzzzzzzzzzzzzzzzzzzzzzzzzzzzzzzzzzzzzzzzzzzzzzzzzzzzzzzzzzzzzzzzzzzzzzz",
"zzzzzzzzzzzzzzzzzzzzzzzzzzzzzzzzzzzzzzzzzzzzzzzzzzzzzzzzzzzzzzzzzzzzzzzzzzzzzzzzzzzzzzzzzzzzzzzzzzzzzzzzzzzzzzzzzzzzzzzzzzzzzzzz",
"zzzzzzzzzzzzzzzzzzzzzzzzzzzzzzzzzzzzzzzzzzzzzzzzzzzzllkkllzzzzzzzzzzzlllllllllllllllllllllllllkkllllllzzzzzzzzzzzjjjljkzzzzzzzzz",
"zzzzzzzzzzzzzzzzzzzzzzzzzzzzzzzzzzzzzzzzzzzzzzzzzzzlllkkllllzzzzzzzzlllllllllllllllllllllllllllkllllllllzzzzzzzzlljjjjljzzzzzzzz",
"zzzzzzzzzzzzzzzzzzzzzzzzzzzzzzzzzzzzzzzzzzzzzzzzzzkllljjkkjjjzzzzzzjjklljjlllllllljjjjkjjjjjjjjklllljkjkzzzzzzzjlezzzzejjzzzzzzz",
"zzzzzzzzzzzzzzzzzzzzzzzzzzzzzzzzzzzzzzzzzzzzzzzzzjlljjjjjjjjjzzzzzjjjjjjjjhlhjlllljjjkjjjjgjjjjklljkjjkjjzzzzzjjwzzzzzzzjjzzzzzz",
"zzzzzzzzzzzzzzzzzzzzzzzzzzzzzzzzzzzzzzzzzzzzzzzzjjjkjjjjjjjjjgzzzzjjjjjjhjjhjjhhljjhhkhjjjjjjjjkjjjjjjkgjgzzzzjezzzzzzzzdjzzzzzz",
"zzzzzzzzzzzzzzzzzzzzzzzzzzzzzzzzzzzzzzzzzzzzzzzljgjkjjjjjjjjjgzzzgjjjgjjjhhjhhhjjjjjjhhhjjgjgjjgjjgjgjjjjdzzzdj9zzzzzzzz9gdzzzzz",
"zzzzzzzzzzzzzzzzzzzzzzzzzzzzzzzzzzzzzzzzzzzzzzjjjgkggjgjgjgjjdzzzahhgjhhhhhhhhhhhhhhhhhhjjggjggjgjjjggjgjdzzzejzzzzzzzzzzjezzzzz",
"zzzzzzzzzzzzzzzzzzzzzzzzzzzzzzzzzzzzzzzzzzzzzjgjgjjjjgjgjggjjdzzz0hhjghhhhhghhghhhhhhhhhdjgjggjjgggjgjgjjezzzdg7zzzzzzzz7jezzzzz",
"zzzzzzzzzzzzzzzzzzzzzzzzzzzzzzzzzzzzzzzzzzzzfjfjgggjjgjgjggjjazzz<gjhhggghghgghgfhhgghgggjgjggjdgggggggggwzzzejezzzzzzzzejezzzzz",
"zzzzzzzzzzzzzzzzzzzzzzzzzzzzzzzzzzzzzzzzzzzggfjdgjggggggggggjdzzzzegggggghgggggggggggghgggggggjggjggggggdzzzzegjwzzzzzz7jdezzzzz",
"zzzzzzzzzzzzzzzzzzzzzzzzzzzzzzzzzzzzzzzzzzgggggggjgggggggggggazzzz<djgggggjggggdggsgggggggggggdgdggggggd7zzzzedgdezzzz0dggwzzzzz",
"zzzzzzzzzzzzzzzzzzzzzzzzzzzzzzzzzzzzzzzzzsggggdgdggdggdgdggggazzzzz<egjddgdgdggjgggdgggsgsgggdjddjdddgd3zzzzzeggjdjddagggdwzzzzz",
"zzzzzzzzzzzzzzzzzzzzzzzzzzzzzzzzzzzzzzzzsggddggggggggsgggggdduzzzzz.&9eddggddgdggdgsgdgggggdgggdgggga0>zzzzzzwgdgdddsggddgqzzzzz",
"zzzzzzzzzzzzzzzzzzzzzzzzzzzzzzzzzzzzzzzdggdggddggddggggddgdggazzzzzz .#%&&&&&-8ddgdgdggsssdge,&&&&&&#ozzzzzzz0dgggdgggaggd0zzzzz",
"zzzzzzzzzzzzzzzzzzzzzzzzzzzzzzzzzzzzzzdgdggsggdgffffsdgdgdggfazzzzzzz         *ggagsaggagsgs<.      zzzzzzzzz0gddadgadaggd0zzzzz",
"zzzzzzzzzzzzzzzzzzzzzzzzzzzzzzzzzzzzzgddgsagsaggsfsgsggsddsdfazzzzzzzzzz      &agaagagagssdd-    zzzzzzzzzzzz0dsaggasssges9zzzzz",
"zzzzzzzzzzzzzzzzzzzzzzzzzzzzzzzzzzzzsdddgdgssaddssdssdssssdddezzzzzzzzzzzzzzz &asggggasssssd;zzzzzzzzzzzzzzzz0egdddgdgaddd9zzzzz",
"zzzzzzzzzzzzzzzzzzzzzzzzzzzzzzzzzzzsdsddssaddaagasssssasgsdddezzzzzzzzzzzzzzzz*adaeasaddssse>zzzzzzzzzzzzzzzz0ddaaaaaaaada9zzzzz",
"zzzzzzzzzzzzzzzzzzzzzzzzzzzzzzzzzzddgaagegaaddaasssddaddafasaezzzzzzzzzzzzzzzz*eadadaddadadd<zzzzzzzzzzzzzzzz9edaddeesddaa9zzzzz",
"zzzzzzzzzzzzzzzzzzzzzzzzzzzzzzzzzeaaaddaaagaadadaaaaaaaaaaaaaezzzzzzzzzzzzzzzzzdaaaaaaaaaaadzzzzzzzzzzzzzzzzz9ddaessddeeaa9zzzzz",
"zzzzzzzzzzzzzzzzzzzzzzzzzzzzzzzzaaaadaaaaaesdaesaaaaaaaaaaaaaezzzzzzzzzzzzzzzzzeaaadaaaaaaeezzzzzzzzzzzzzzzzz9eeaaseaaddae0zzzzz",
"zzzzzzzzzzzzzzzzzzzzzzzzzzzzzzzeaaaaeaaaeaseeaddeaaaseaseaseaezzzzzzzzzzzzzzzzzdadeeaeaaaedezzzzzzzzzzzzzzzzz9eadeadeeeeea8zzzzz",
"zzzzzzzzzzzzzzzzzzzzzzzzzzzzzzedeedeaeeadeeededeaaaeaaseaaaaaezzzzzzzzzzzzzzzzzeeaedeaaeedeazzzzzzzzzzzzzzzzz0aeeseaseasee7zzzzz",
"zzzzzzzzzzzzzzzzzzzzzzzzzzzzzeaaasesedaesesesdeeaeaeaeeeeaaeewzzzzzzzzzzzzzzzzzaeaaeaeaaaeeazzzzzzzzzzzzzzzzz8eaeeeeeeeeee7zzzzz",
"zzzzzzzzzzzzzzzzzzzzzzzzzzzzeaeeeeeeeaeaeeaaeee7euaueuueaeaeeezzzzzzzzzzzzzzzzzeeaeeeeaeeaeezzzzzzzzzzzzzzzzz8eeeaaedeeeae7zzzzz",
"zzzzzzzzzzzzzzzzzzzzzzzzzzzeeeeaaededeeaeseeee>X<eueuueueeueewzzzzzzzzzzzzzzzzzeeaeaeeeeeaeezzzzzzzzzzzzzzzzz7eeeeeeeeeeee8zzzzz",
"zzzzzzzzzzzzzzzzzzzzzzzzzzeeeeeeeeeeeeeeeeeee;. ;eeeeeeeeeeee0zzzzzzzzzzzzzzzzzeeeeeeeeeweewzzzzzzzzzzzzzzzzz8eeeeeeweewee8zzzzz",
"zzzzzzzzzzzzzzzzzzzzzzzzzeeeeeeeeeeeeeeeeeee>.  ;eeeeeeeeeeeewzzzzzzzzzzzzzzzzzeeweeeweeeewezzzzzzzzzzzzzzzzz70eeeewwwewwe8zzzzz",
"zzzzzzzzzzzzzzzzzzzzzzzzeeeweeeeeeeweeeeeww;    ;eeweweewweee0zzzzzzzzzzzzzzzzzeeewewewwewwwzzzzzzzzzzzzzzzzz70wwe0ewwwwww3zzzzz",
"zzzzzzzzzzzzzzzzzzzzzzz0eweeee0eweewwweee0;zzzzz,0ewew0eewwee0zzzzzzzzzzzzzzzzzwwwwwwwwwwwwwzzzzzzzzzzzzzzzzz7ewe0ewwwwwww3zzzzz",
"zzzzzzzzzzzzzzzzzzzzzzee0e0ee0eewewwewee0;zzzzzz>wwwe0ewww0ee9zzzzzzzzzzzzzzzzzwewwweewew0wwzzzzzzzzzzzzzzzzz30e0wew0ewwww3zzzzz",
"zzzzzzzzzzzzzzzzzzzzzwweewewww0e0ee00e00-zzzzzzz,0wwe0ww0w0ww0zzzzzzzzzzzzzzzzzw0e0w0000www0zzzzzzzzzzzzzzzzz3ww000ww00w003zzzzz",
"zzzzzzzzzzzzzzzzzzzzwwwe0e000eew0e0w0w0-zzzzzzzz>00w0ee00wwew9zzzzzzzzzzzzzzzzzw0w0w0w0w0w0wzzzzzzzzzzzzzzzzz3w0ee00w00ww03zzzzz",
"zzzzzzzzzzzzzzzzzzzw0w00w00ee00000w0w8*zzzzzzzzz<w0we00e00w000zzzzzzzzzzzzzzzzz0w0w0w0w0w0w0zzzzzzzzzzzzzzzzz300000w0ww0w07zzzzz",
"zzzzzzzzzzzzzzzzzzqqqqqqw000w00we0w03$zzzzzzzzzz>ww0wqqq9wwww9zzzzzzzzzzzzzzzzz0qw9w9w0wwww0zzzzzzzzzzzzzzzzz7900q000qw9007zzzzz",
"zzzzzzzzzzzzzzzzz0qw9qqqw00ww00w0w03$zzz13zzzzzz>0000000q09999zzzzzzzzzzzzzzzzz0009w99009990zzzzzzzzzzzzzzzzz39000000990002zzzzz",
"zzzzzzzzzzzzzzzz09q9009q00000000003$zz<00009zzzz,000000000w099zzzzzzzzzzzzzzzzz900w909009909zzzzzzzzzzzzzzzzz39000900q90092zzzzz",
"zzzzzzzzzzzzzzz90q9q0q990000000003$zz<0000000zzz>0000000999007zzzzzzzzzzzzzzzzzw999000009w09zzzzzzzzzzzzzzzzz29909q99999002zzzzz",
"zzzzzzzzzzzzzz9090090000009009997$zzz800009098zz:0080080990999zzzzzzzzzzzzzzzzz9090999999999zzzzzzzzzzzzzzzzz79999999999992zzzzz",
"zzzzzzzzzzzzz9999990999999909992#zzzz909999990zz>0800080999997zzzzzzzzzzzzzzzzz9999999999999zzzzzzzzzzzzzzzzz29999999999992zzzzz",
"zzzzzzzzzzzz9099999999999999997#zzzzz999999998zz:0080008999997zzzzzzzzzzzzzzzzz9999999998999zzzzzzzzzzzzzzzzz29998999999992zzzzz",
"zzzzzzzzzzz9999999999999999992#zzzzzz798799897zz:8807880999797zzzzzzzzzzzzzzzzz9797997979997zzzzzzzzzzzzzzzzz29979897997972zzzzz",
"zzzzzzzzzz9899887999799898972#zzzzzzz29979979<zz;9998998997977zzzzzzzzzzzzzzzzz9797977979899zzzzzzzzzzzzzzzzz27989778877872zzzzz",
"zzzzzzzzz7997997997879887982#zzzzzzzzz278898<zzz;7787979788777zzzzzzzzzzzzzzzzz7979779797977zzzzzzzzzzzzzzzzz29777798779782zzzzz",
"zzzzzzzz7987887997797979792#zzzzzzzzzzo-111*zzzz>8797878797777zzzzzzzzzzzzzzzzz7797979787777zzzzzzzzzzzzzzzzz27797777878772zzzzz",
"zzzzzzzz28787777777787877<#zzzzzzzzzzzz ...zzzzz-7777778777877zzzzzzzzzzzzzzzzz7777777777777zzzzzzzzzzzzzzzzz27777777777772zzzzz",
"zzzzzzzz77777778777777772zzzzzzzzzzzzzzzzzzzzzzz;7777777777772zzzzzzzzzzzzzzzzz7777777777777zzzzzzzzzzzzzzzzz27777777377772zzzzz",
"zzzzzzzz777877777777777<zzzzzzzzzzzzzzzzzzzzzzzz*7772777777727zzzzzzzzzzzzzzzzz7777377777777zzzzzzzzzzzzzzzzz2723737773727<zzzzz",
"zzzzzzzz277237777777772zzzzzzzzzzzzzzzzzzzzzzzzz*7777777777792zzzzzzzzzzzzzzzzz2277777277277zzzzzzzzzzzzzzzzz>7777372333722zzzzz",
"zzzzzzzz>2777737927722zzzzzzzzzzzzzzzzzzzzzzzzzzz233373737273<zzzzzzzzzzzzzzzzz<277727277722zzzzzzzzzzzzzzzzz$272773777377zzzzzz",
"zzzzzzzzz27723737277<zzzzzzzzzzzzzzzzzzzzzzzzzzzz-77727372722zzzzzzzzzzzzzzzzzz#27333333333zzzzzzzzzzzzzzzzzzz>2372733277<zzzzzz",
"zzzzzzzzz%277773722>zzzzzzzzzzzzzzzzzzzzzzzzzzzzzz>237333722zzzzzzzzzzzzzzzzzzzz&233333333<zzzzzzzzzzzzzzzzzzz+2327333722zzzzzzz",
"zzzzzzzzz #<722772-.zzzzzzzzzzzzzzzzzzzzzzzzzzzzzzo-2333332%zzzzzzzzzzzzzzzzzzzz %<333272-zzzzzzzzzzzzzzzzzzzzzO-223322<zzzzzzzz",
"zzzzzzzzzz .#&&&&+zzzzzzzzzzzzzzzzzzzzzzzzzzzzzzzz  +%%&&#zzzzzzzzzzzzzzzzzzzzzzz o#%&%%ozzzzzzzzzzzzzzzzzzzzzz  +%&&&#zzzzzzzzz",
"zzzzzzzzzzz      zzzzzzzzzzzzzzzzzzzzzzzzzzzzzzzzzz      zzzzzzzzzzzzzzzzzzzzzzzzz      zzzzzzzzzzzzzzzzzzzzzzzz      zzzzzzzzzz",
"zzzzzzzzzzzzzzzzzzzzzzzzzzzzzzzzzzzzzzzzzzzzzzzzzzzzzzzzzzzzzzzzzzzzzzzzzzzzzzzzzzzzzzzzzzzzzzzzzzzzzzzzzzzzzzzzzzzzzzzzzzzzzzzz",
"zzzzzzzzzzzzzzzzzzzzzzzzzzzzzzzzzzzzzzzzzzzzzzzzzzzzzzzzzzzzzzzzzzzzzzzzzzzzzzzzzzzzzzzzzzzzzzzzzzzzzzzzzzzzzzzzzzzzzzzzzzzzzzzz",
"zzzzzzzzzzzzzzzzzzzzzzzzzzzzzzzzzzzzzzzzzzzzzzzzzzzzzzzzzzzzzzzzzzzzzzzzzzzzzzzzzzzzzzzzzzzzzzzzzzzzzzzzzzzzzzzzzzzzzzzzzzzzzzzz",
"zzzzzzzzzzzzzzzzzzzzzzzzzzzzzzzzzzzzzzzzzzzzzzzzzzzzzzzzzzzzzzzzzzzzzzzzzzzzzzzzzzzzzzzzzzzzzzzzzzzzzzzzzzzzzzzzzzzzzzzzzzzzzzzz",
"zzzzzzzzzzzzzzzzzzzzzzzzzzzzzzzzzzzzzzzzzzzzzzzzzzzzzzzzzzzzzzzzzzzzzzzzzzzzzzzzzzzzzzzzzzzzzzzzzzzzzzzzzzzzzzzzzzzzzzzzzzzzzzzz",
"zzzzzzzzzzzzzzzzzzzzzzzzzzzzzzzzzzzzzzzzzzzzzzzzzzzzzzzzzzzzzzzzzzzzzzzzzzzzzzzzzzzzzzzzzzzzzzzzzzzzzzzzzzzzzzzzzzzzzzzzzzzzzzzz",
"zzzzzzzzzzzzzzzzzzzzzzzzzzzzzzzzzzzzzzzzzzzzzzzzzzzzzzzzzzzzzzzzzzzzzzzzzzzzzzzzzzzzzzzzzzzzzzzzzzzzzzzzzzzzzzzzzzzzzzzzzzzzzzzz",
"zzzzzzzzzzzzzzzzzzzzzzzzzzzzzzzzzzzzzzzzzzzzzzzzzzzzzzzzzzzzzzzzzzzzzzzzzzzzzzzzzzzzzzzzzzzzzzzzzzzzzzzzzzzzzzzzzzzzzzzzzzzzzzzz",
"zzzzzzzzzzzzzzzzzzzzzzzzzzzzzzzzzzzzzzzzzzzzzzzzzzzzzzzzzzzzzzzzzzzzzzzzzzzzzzzzzzzzzzzzzzzzzzzzzzzzzzzzzzzzzzzzzzzzzzzzzzzzzzzz",
"zzzzzzzzzzzzzzzzzzzzzzzzzzzzzzzzzzzzzzzzzzzzzzzzzzzzzzzzzzzzzzzzzzzzzzzzzzzzzzzzzzzzzzzzzzzzzzzzzzzzzzzzzzzzzzzzzzzzzzzzzzzzzzzz",
"zzzzzzzzzzzzzzzzzzzzzzzzzzzzzzzzzzzzzzzzzzzzzzzzzzzzzzzzzzzzzzzzzzzzzzzzzzzzzzzzzzzzzzzzzzzzzzzzzzzzzzzzzzzzzzzzzzzzzzzzzzzzzzzz",
"zzzzzzzzzzzzzzzzzzzzzzzzzzzzzzzzzzzzzzzzzzzzzzzzzzzzzzzzzzzzzzzzzzzzzzzzzzzzzzzzzzzzzzzzzzzzzzzzzzzzzzzzzzzzzzzzzzzzzzzzzzzzzzzz",
"zzzzzzzzzzzzzzzzzzzzzzzzzzzzzzzzzzzzzzzzzzzzzzzzzzzzzzzzzzzzzzzzzzzzzzzzzzzzzzzzzzzzzzzzzzzzzzzzzzzzzzzzzzzzzzzzzzzzzzzzzzzzzzzz",
"zzzzzzzzzzzzzzzzzzzzzzzzzzzzzzzzzzzzzzzzzzzzzzzzzzzzzzzzzzzzzzzzzzzzzzzzzzzzzzzzzzzzzzzzzzzzzzzzzzzzzzzzzzzzzzzzzzzzzzzzzzzzzzzz",
"zzzzzzzzzzzzzzzzzzzzzzzzzzzzzzzzzzzzzzzzzzzzzzzzzzzzzzzzzzzzzzzzzzzzzzzzzzzzzzzzzzzzzzzzzzzzzzzzzzzzzzzzzzzzzzzzzzzzzzzzzzzzzzzz",
"zzzzzzzzzzzzzzzzzzzzzzzzzzzzzzzzzzzzzzzzzzzzzzzzzzzzzzzzzzzzzzzzzzzzzzzzzzzzzzzzzzzzzzzzzzzzzzzzzzzzzzzzzzzzzzzzzzzzzzzzzzzzzzzz",
"zzzzzzzzzzzzzzzzzzzzzzzzzzzzzzzzzzzzzzzzzzzzzzzzzzzzzzzzzzzzzzzzzzzzzzzzzzzzzzzzzzzzzzzzzzzzzzzzzzzzzzzzzzzzzzzzzzzzzzzzzzzzzzzz",
"zzzzzzzzzzzzzzzzzzzzzzzzzzzzzzzzzzzzzzzzzzzzzzzzzzzzzzzzzzzzzzzzzzzzzzzzzzzzzzzzzzzzzzzzzzzzzzzzzzzzzzzzzzzzzzzzzzzzzzzzzzzzzzzz",
"zzzzzzzzzzzzzzzzzzzzzzzzzzzzzzzzzzzzzzzzzzzzzzzzzzzzzzzzzzzzzzzzzzzzzzzzzzzzzzzzzzzzzzzzzzzzzzzzzzzzzzzzzzzzzzzzzzzzzzzzzzzzzzzz",
"zzzzzzzzzzzzzzzzzzzzzzzzzzzzzzzzzzzzzzzzzzzzzzzzzzzzzzzzzzzzzzzzzzzzzzzzzzzzzzzzzzzzzzzzzzzzzzzzzzzzzzzzzzzzzzzzzzzzzzzzzzzzzzzz",
"zzzzzzzzzzzzzzzzzzzzzzzzzzzzzzzzzzzzzzzzzzzzzzzzzzzzzzzzzzzzzzzzzzzzzzzzzzzzzzzzzzzzzzzzzzzzzzzzzzzzzzzzzzzzzzzzzzzzzzzzzzzzzzzz",
"zzzzzzzzzzzzzzzzzzzzzzzzzzzzzzzzzzzzzzzzzzzzzzzzzzzzzzzzzzzzzzzzzzzzzzzzzzzzzzzzzzzzzzzzzzzzzzzzzzzzzzzzzzzzzzzzzzzzzzzzzzzzzzzz",
"zzzzzzzzzzzzzzzzzzzzzzzzzzzzzzzzzzzzzzzzzzzzzzzzzzzzzzzzzzzzzzzzzzzzzzzzzzzzzzzzzzzzzzzzzzzzzzzzzzzzzzzzzzzzzzzzzzzzzzzzzzzzzzzz",
"zzzzzzzzzzzzzzzzzzzzzzzzzzzzzzzzzzzzzzzzzzzzzzzzzzzzzzzzzzzzzzzzzzzzzzzzzzzzzzzzzzzzzzzzzzzzzzzzzzzzzzzzzzzzzzzzzzzzzzzzzzzzzzzz",
"zzzzzzzzzzzzzzzzzzzzzzzzzzzzzzzzzzzzzzzzzzzzzzzzzzzzzzzzzzzzzzzzzzzzzzzzzzzzzzzzzzzzzzzzzzzzzzzzzzzzzzzzzzzzzzzzzzzzzzzzzzzzzzzz",
"zzzzzzzzzzzzzzzzzzzzzzzzzzzzzzzzzzzzzzzzzzzzzzzzzzzzzzzzzzzzzzzzzzzzzzzzzzzzzzzzzzzzzzzzzzzzzzzzzzzzzzzzzzzzzzzzzzzzzzzzzzzzzzzz",
"zzzzzzzzzzzzzzzzzzzzzzzzzzzzzzzzzzzzzzzzzzzzzzzzzzzzzzzzzzzzzzzzzzzzzzzzzzzzzzzzzzzzzzzzzzzzzzzzzzzzzzzzzzzzzzzzzzzzzzzzzzzzzzzz",
"zzzzzzzzzzzzzzzzzzzzzzzzzzzzzzzzzzzzzzzzzzzzzzzzzzzzzzzzzzzzzzzzzzzzzzzzzzzzzzzzzzzzzzzzzzzzzzzzzzzzzzzzzzzzzzzzzzzzzzzzzzzzzzzz",
"zzzzzzzzzzzzzzzzzzzzzzzzzzzzzzzzzzzzzzzzzzzzzzzzzzzzzzzzzzzzzzzzzzzzzzzzzzzzzzzzzzzzzzzzzzzzzzzzzzzzzzzzzzzzzzzzzzzzzzzzzzzzzzzz",
"zzzzzzzzzzzzzzzzzzzzzzzzzzzzzzzzzzzzzzzzzzzzzzzzzzzzzzzzzzzzzzzzzzzzzzzzzzzzzzzzzzzzzzzzzzzzzzzzzzzzzzzzzzzzzzzzzzzzzzzzzzzzzzzz",
"zzzzzzzzzzzzzzzzzzzzzzzzzzzzzzzzzzzzzzzzzzzzzzzzzzzzzzzzzzzzzzzzzzzzzzzzzzzzzzzzzzzzzzzzzzzzzzzzzzzzzzzzzzzzzzzzzzzzzzzzzzzzzzzz",
"zzzzzzzzzzzzzzzzzzzzzzzzzzzzzzzzzzzzzzzzzzzzzzzzzzzzzzzzzzzzzzzzzzzzzzzzzzzzzzzzzzzzzzzzzzzzzzzzzzzzzzzzzzzzzzzzzzzzzzzzzzzzzzzz",
"zzzzzzzzzzzzzzzzzzzzzzzzzzzzzzzzzzzzzzzzzzzzzzzzzzzzzzzzzzzzzzzzzzzzzzzzzzzzzzzzzzzzzzzzzzzzzzzzzzzzzzzzzzzzzzzzzzzzzzzzzzzzzzzz",
"zzzzzzzzzzzzzzzzzzzzzzzzzzzzzzzzzzzzzzzzzzzzzzzzzzzzzzzzzzzzzzzzzzzzzzzzzzzzzzzzzzzzzzzzzzzzzzzzzzzzzzzzzzzzzzzzzzzzzzzzzzzzzzzz",
"zzzzzzzzzzzzzzzzzzzzzzzzzzzzzzzzzzzzzzzzzzzzzzzzzzzzzzzzzzzzzzzzzzzzzzzzzzzzzzzzzzzzzzzzzzzzzzzzzzzzzzzzzzzzzzzzzzzzzzzzzzzzzzzz"
};
