/* XPM */
static char *cmake[] = {
/* columns rows colors chars-per-pixel */
"128 128 42 1 ",
"  c black",
". c #040404040404",
"X c #14E114E114E1",
"o c #194C194C194C",
"O c #1AE71AE71AE7",
"+ c #1E1E1E1E1E1E",
"@ c #21BB21BB21BB",
"# c #255825582558",
"$ c #288E288E288E",
"% c #2B5E2B5E2B5E",
"& c #2E942E942E94",
"* c #329832983298",
"= c #329833663366",
"- c #33483323331D",
"; c #349A349A349A",
": c #3664366D366B",
"> c #37D137D137D1",
", c #39D3396C396C",
"< c #396C39D3396C",
"1 c #39D339D3396C",
"2 c #39D3396C39D3",
"3 c #396C39D339D3",
"4 c #3B073B073B07",
"5 c #3D093CA23CA2",
"6 c #3CA23D093CA2",
"7 c #3D093D093CA2",
"8 c #3CA23D093D09",
"9 c #3E3E3E3E3E3E",
"0 c #401A40183FFF",
"q c #41DB41DB4174",
"w c #4335432D4335",
"e c #451145114511",
"r c #467A4678464D",
"t c #47E147E147E1",
"y c #497C497C49E3",
"u c #4B174B174B17",
"i c #4E4E4E4E4E4E",
"p c #518451845184",
"a c #535F53465346",
"s c #54BA54BA54BA",
"d c #578A578A578A",
"f c None",
/* pixels */
"ffffffffffffffffffffffffffffffffffffffffffffffffffffffffffffffffffffffffffffffffffffffffffffffffffffffffffffffffffffffffffffffff",
"ffffffffffffffffffffffffffffffffffffffffffffffffffffffffffffffffffffffffffffffffffffffffffffffffffffffffffffffffffffffffffffffff",
"ffffffffffffffffffffffffffffffffffffffffffffffffffffffffffffffffffffffffffffffffffffffffffffffffffffffffffffffffffffffffffffffff",
"ffffffffffffffffffffffffffffffffffffffffffffffffffffffffffffffffffffffffffffffffffffffffffffffffffffffffffffffffffffffffffffffff",
"ffffffffffffffffffffffffffffffffffffffffffffffffffffffffffffffffffffffffffffffffffffffffffffffffffffffffffffffffffffffffffffffff",
"ffffffffffffffffffffffffffffffffffffffffffffffffffffffffffffffffffffffffffffffffffffffffffffffffffffffffffffffffffffffffffffffff",
"ffffffffffffffffffffffffffffffffffffffffffffffffffffffffffffffffffffffffffffffffffffffffffffffffffffffffffffffffffffffffffffffff",
"ffffffffffffffffffffffffffffffffffffffffffffffffffffffffffffffffdfffffffffffffffffffffffffffffffffffffffffffffffffffffffffffffff",
"fffffffffffffffffffffffffffffffffffffffffffffffffffffffffffffffdddffffffffffffffffffffffffffffffffffffffffffffffffffffffffffffff",
"fffffffffffffffffffffffffffffffffffffffffffffffffffffffffffffffdddffffffffffffffffffffffffffffffffffffffffffffffffffffffffffffff",
"ffffffffffffffffffffffffffffffffffffffffffffffffffffffffffffffsddddfffffffffffffffffffffffffffffffffffffffffffffffffffffffffffff",
"ffffffffffffffffffffffffffffffffffffffffffffffffffffffffffffffdddddfffffffffffffffffffffffffffffffffffffffffffffffffffffffffffff",
"fffffffffffffffffffffffffffffffffffffffffffffffffffffffffffffpddddddffffffffffffffffffffffffffffffffffffffffffffffffffffffffffff",
"fffffffffffffffffffffffffffffffffffffffffffffffffffffffffffffdddddddffffffffffffffffffffffffffffffffffffffffffffffffffffffffffff",
"ffffffffffffffffffffffffffffffffffffffffffffffffffffffffffffpddddddddfffffffffffffffffffffffffffffffffffffffffffffffffffffffffff",
"ffffffffffffffffffffffffffffffffffffffffffffffffffffffffffffsdsddddddfffffffffffffffffffffffffffffffffffffffffffffffffffffffffff",
"fffffffffffffffffffffffffffffffffffffffffffffffffffffffffffpdsdsdddsdsffffffffffffffffffffffffffffffffffffffffffffffffffffffffff",
"fffffffffffffffffffffffffffffffffffffffffffffffffffffffffffdsdsddssdssffffffffffffffffffffffffffffffffffffffffffffffffffffffffff",
"ffffffffffffffffffffffffffffffffffffffffffffffffffffffffffisssssssdsdssfffffffffffffffffffffffffffffffffffffffffffffffffffffffff",
"ffffffffffffffffffffffffffffffffffffffffffffffffffffffffffsdssssssssssdfffffffffffffffffffffffffffffffffffffffffffffffffffffffff",
"fffffffffffffffffffffffffffffffffffffffffffffffffffffffffissssssssssssssffffffffffffffffffffffffffffffffffffffffffffffffffffffff",
"fffffffffffffffffffffffffffffffffffffffffffffffffffffffffsssssssssssssssffffffffffffffffffffffffffffffffffffffffffffffffffffffff",
"ffffffffffffffffffffffffffffffffffffffffffffffffffffffffisssassssssassaspfffffffffffffffffffffffffffffffffffffffffffffffffffffff",
"ffffffffffffffffffffffffffffffffffffffffffffffffffffffffapsasspspssspssasfffffffffffffffffffffffffffffffffffffffffffffffffffffff",
"fffffffffffffffffffffffffffffffffffffffffffffffffffffffipssspsspspsssasspsffffffffffffffffffffffffffffffffffffffffffffffffffffff",
"fffffffffffffffffffffffffffffffffffffffffffffffffffffffpaapaspsppspppspaapffffffffffffffffffffffffffffffffffffffffffffffffffffff",
"ffffffffffffffffffffffffffffffffffffffffffffffffffffffusaaaapspspaspapappspfffffffffffffffffffffffffffffffffffffffffffffffffffff",
"ffffffffffffffffffffffffffffffffffffffffffffffffffffffpppppppppppappappppppfffffffffffffffffffffffffffffffffffffffffffffffffffff",
"fffffffffffffffffffffffffffffffffffffffffffffffffffffuppppppppppppppppppppppffffffffffffffffffffffffffffffffffffffffffffffffffff",
"fffffffffffffffffffffffffffffffffffffffffffffffffffffppppppppppppappppppapppffffffffffffffffffffffffffffffffffffffffffffffffffff",
"ffffffffffffffffffffffffffffffffffffffffffffffffffffuppppppppppppppppppppppppfffffffffffffffffffffffffffffffffffffffffffffffffff",
"ffffffffffffffffffffffffffffffffffffffffffffffffffffppppippppppppppppppppppppfffffffffffffffffffffffffffffffffffffffffffffffffff",
"fffffffffffffffffffffffffffffffffffffffffffffffffffupipipppippiipiippppipippppffffffffffffffffffffffffffffffffffffffffffffffffff",
"fffffffffffffffffffffffffffffffffffffffffffffffffffaippipiipipppppppiippppipiiffffffffffffffffffffffffffffffffffffffffffffffffff",
"ffffffffffffffffffffffffffffffffffffffffffffffffffuippipippiipipiipipiipiipipiafffffffffffffffffffffffffffffffffffffffffffffffff",
"ffffffffffffffffffffffffffffffffffffffffffffffffffiaiipiiipiipiiipiipiipipiipiifffffffffffffffffffffffffffffffffffffffffffffffff",
"fffffffffffffffffffffffffffffffffffffffffffffffffuiiipiiipiipiipipiiiipiipiiiaiiffffffffffffffffffffffffffffffffffffffffffffffff",
"fffffffffffffffffffffffffffffffffffffffffffffffffiiiiiiiiiiiiiiiiiiiiiiiiiiiiiiiffffffffffffffffffffffffffffffffffffffffffffffff",
"fffffffffffffffffffffffffffffffffffffffffffffffftiiiiiiiiiiiiiiiiiiiiipiiiiiiiiiifffffffffffffffffffffffffffffffffffffffffffffff",
"ffffffffffffffffffffffffffffffffffffffffffffffffiiiiiiiiiiiiiiiiiiiiiiiiiiiiiiiiifffffffffffffffffffffffffffffffffffffffffffffff",
"ffffffffffffffffffffffffffffffffffffffffffffffftiiiiiiiuiiuiuiiuiiiiiiiiiiiiiuiiiiffffffffffffffffffffffffffffffffffffffffffffff",
"ffffffffffffffffffffffffffffffffffffffffffffffftuiiuiuiiuiiiiiiiiiuiiuiuiuuiiiuiuiffffffffffffffffffffffffffffffffffffffffffffff",
"fffffffffffffffffffffffffffffffffffffffffffffftpuiuiiiiiiuuiuiiiuiuiiiiuiiiuuiuiiiufffffffffffffffffffffffffffffffffffffffffffff",
"ffffffffffffffffffffffffffffffffffffffffffffffitiuiuuuuuiuiuiuuiiuiuuuiuuiuiiuiuuuifffffffffffffffffffffffffffffffffffffffffffff",
"ffffffffffffffffffffffffffffffffffffffffffffftiiuiuiuiuiuiuiuuiuiuiuuiuiiuuuuuuiuiiuffffffffffffffffffffffffffffffffffffffffffff",
"ffffffffffffffffffffffffffffffffffffffffffffftituiuuuuuuuuuuiuuuuuuuuuuuuuiuuiuuuuuuffffffffffffffffffffffffffffffffffffffffffff",
"fffffffffffffffffffffffffffffffffffffffffffftitiuuuuuuuuuuuuuuuuuuuuuuuuiuuuiuuuuiuuufffffffffffffffffffffffffffffffffffffffffff",
"ffffffffffffffffffffffffffffffffffffffffffffttituuuuuuuuuuuuuuuuuuuuiuuuuuuuuuuuuuuuufffffffffffffffffffffffffffffffffffffffffff",
"fffffffffffffffffffffffffffffffffffffffffffeuutitiuuuuuuuuuuuuuuuuuuuuuuuuuuuuuuuuuuutffffffffffffffffffffffffffffffffffffffffff",
"fffffffffffffffffffffffffffffffffffffffffffuuuuittuuuuutyuuyuyuyuuuutuuutuyuuyuuuutuuuffffffffffffffffffffffffffffffffffffffffff",
"ffffffffffffffffffffffffffffffffffffffffffetutituittuuuuyuutyyuuuuutuutuuyuuuttuuutuuuyfffffffffffffffffffffffffffffffffffffffff",
"fffffffffffffffffffffffffffffffffffffffffftituttutuuyutuutuuyyyyrruutuuuyyyyyuyytuuutuyfffffffffffffffffffffffffffffffffffffffff",
"ffffffffffffffffffffffffffffffffffffffffftttuttuyyyyyyruyytuyuyyuuyyyyuttuyytutututtyuutffffffffffffffffffffffffffffffffffffffff",
"ffffffffffffffffffffffffffffffffffffffffftuttuttturururrytytrryuurruyyttutyyutytututyutuffffffffffffffffffffffffffffffffffffffff",
"ffffffffffffffffffffffffffffffffffffffffettutttttyurruurtytyuturrururtuuttyttytyuururuttufffffffffffffffffffffffffffffffffffffff",
"ffffffffffffffffffffffffffffffffffffffffttttttttttrruyryytttytttururturtytytyyttrururrttufffffffffffffffffffffffffffffffffffffff",
"fffffffffffffffffffffffffffffffffffffffettttttttttttttttttttttttttttttttttttttttttttttttttffffffffffffffffffffffffffffffffffffff",
"ffffffffffffffffffffffffffffffffffffffftttttttttttttttttttttttttttttttttttttttttttttttttttffffffffffffffffffffffffffffffffffffff",
"ffffffffffffffffffffffffffffffffffffffetttetttttttttttrrrttrttrtttrtetttttttrtttrttttttttrtfffffffffffffffffffffffffffffffffffff",
"ffffffffffffffffffffffffffffffffffffffettttettetrrrrrrrrrtrtrtrrrrtrtrrrtrrrttrrttetetetettfffffffffffffffffffffffffffffffffffff",
"fffffffffffffffffffffffffffffffffffffeteetteteterrrrrrrrrtrrrrrrrrrtrrrrrrrrrrrrtetrrtettrteffffffffffffffffffffffffffffffffffff",
"fffffffffffffffffffffffffffffffffffffeeteeetteetrrrrrrrrrrerrrrrrrrrrrrrrrrrrrrtrtettettetetffffffffffffffffffffffffffffffffffff",
"ffffffffffffffffffffffffffffffffffffweeteteeeeterrerrrrrrrrrrrrerrrrrrrrrrrrrrrrrrteeeteteteefffffffffffffffffffffffffffffffffff",
"ffffffffffffffffffffffffffffffffffffeeeeeeeteteerrrerrerrrerrrerrrerrrerererrerrreetereeeteeefffffffffffffffffffffffffffffffffff",
"fffffffffffffffffffffffffffffffffffqeeeeeeeeeeeeeeeeeeeereeeeeeeeereeeeeeeeeerereeeereeereereeffffffffffffffffffffffffffffffffff",
"fffffffffffffffffffffffffffffffffffeeeeeeeeeeeeeeeeweeeeeeeeeeeeeeeeeweeeeeeeeeeeeeeeeeereeeeeffffffffffffffffffffffffffffffffff",
"ffffffffffffffffffffffffffffffffff9eeeeeeeeeeeeeeeeeeeeeeeeeeeeeeeee&&weeeeeeeeeeeeeeeeeeeeeeeefffffffffffffffffffffffffffffffff",
"ffffffffffffffffffffffffffffffffffweeweweweeweeeeeeeeeweeeweeeeewww$.Oweeeweeweeeweeeeewweeeweefffffffffffffffffffffffffffffffff",
"fffffffffffffffffffffffffffffffffqwwwweewewewwwwewewwweeweweqeqqww#. Owwweewwewewwwweewwweewwwewffffffffffffffffffffffffffffffff",
"fffffffffffffffffffffffffffffffffeqwwwwwwwwwwwwewwewwwwwwwwwwwee4+   Xwewwwwwwwwwwwwwwwwwwwwwrwwffffffffffffffffffffffffffffffff",
"ffffffffffffffffffffffffffffffff9weqwwqwwwwwwwwwwwwwwwwwwwwwwwe>X ff fwwwwwwwwwwwwwwwwwwwwwwwwwwwfffffffffffffffffffffffffffffff",
"ffffffffffffffffffffffffffffffffwwwwwqwwwqwwwqwwwwqwwqwqwqwwww>fffffff9wwwwwwwwwwwwwwwwwwwwwwwwwwfffffffffffffffffffffffffffffff",
"fffffffffffffffffffffffffffffff9qwqwqwqqqwqqwqwqqqqqwqqwqwwwq&ffffffff:wwwwqwqwwqwwwwww0wqwwwwqwwqffffffffffffffffffffffffffffff",
"fffffffffffffffffffffffffffffffqqqqqqqwqqwwqwqqqqwwqqwqqwwqq$.ffffffff4wqqqwqwqqwwwqqqwwqwqqqqwwwqffffffffffffffffffffffffffffff",
"ffffffffffffffffffffffffffffff9qqqqqqqqqqqqqqqqqqqqqqqqqqqq$ffffffffff:wqqqqqqqqqqqqqqqqqqqqqqqqwqqfffffffffffffffffffffffffffff",
"ffffffffffffffffffffffffffffffqwqqqqqqqqqqqqqqqqqqqqqqqqq>Offfffffffff:wqqqqqqqqqqqqqqqqqqqqqqqqqqqfffffffffffffffffffffffffffff",
"fffffffffffffffffffffffffffff99q9q0qqq0qw9wqqqq9qqqqqq9q>Xffffffffffff:w9q9wqq0qqqqq9q9qqqq0qq99qqq9ffffffffffffffffffffffffffff",
"fffffffffffffffffffffffffffff9qqqqq0q0000w9qq9qqq9qqqqq:ffffffffffffff$9qqqq9qq09qq9wqq09qq0qqqq00q0ffffffffffffffffffffffffffff",
"ffffffffffffffffffffffffffff4qq0q9q90q00w99q9qqq9qq99q%fffffffffffffff@99qq9qq9q9wqq00qqq0q9qqqqq0q0qfffffffffffffffffffffffffff",
"ffffffffffffffffffffffffffffq9909q0099q099q9q999q99q9$.ffffffffffffffff9w99q99q90009009q9q9q9q999q9qqfffffffffffffffffffffffffff",
"fffffffffffffffffffffffffff9q99q0900w99w999w99w9q999#ffffffffffffffffff9q9qq9q9q9qq9qq9qq9qq9q9q9q9qq9ffffffffffffffffffffffffff",
"fffffffffffffffffffffffffff9999909999999900999q999>Offfffffffffffffffff99q9999q9999999999q99999q99q9999fffffffffffffffffffffffff",
"ffffffffffffffffffffffffff499999q99999999w999999q>Xffffffffffffffffffff99999999q9q99q99099999q9999q9999fffffffffffffffffffffffff",
"ffffffffffffffffffffffffff9999999999999999999999;ffffffffffffffffffffff>99999999999999999999999999999999ffffffffffffffffffffffff",
"fffffffffffffffffffffffff9999999999999999999999$fffffffffffffffffffffff>9999999999999999999999999999999>ffffffffffffffffffffffff",
"fffffffffffffffffffffffff999499999899559994999$ffffffffffffffffffffffff;99999999999999949999949999999999ffffffffffffffffffffffff",
"ffffffffffffffffffffffff49949>994699898994994;fffffffffffffffffffffffff;9494>9>q9>99999994999999969999999fffffffffffffffffffffff",
"ffffffffffffffffffffffff4949999999884949494999>$fffffffffffffffffffffff=949996999949>9949>999>99>9999>9q>9ffffffffffffffffffffff",
"fffffffffffffffffffffff4944949944949999494494494>>fffffffffffffffffffff$9949999949959494949949999994949499ffffffffffffffffffffff",
"fffffffffffffffffffffff44944944964994449949>49499>9>fffffffffffffffffff@44>9>9>9949>4949494494>90>944949>9>fffffffffffffffffffff",
"ffffffffffffffffffffff4444494444449>494444994>4999>999>ffffffffffffffff+4494949494449544>994494469494949999fffffffffffffffffffff",
"ffffffffffffffffffffff44444>944444494>9444449944>q>99>9>>fffffffffffffff449444444494>94449449>94>6444444>9>:ffffffffffffffffffff",
"fffffffffffffffffffff>449444444444444444444444449>9>9>9>9>9>ffffffffffff44444444444444444444444444444444>9>9ffffffffffffffffffff",
"fffffffffffffffffffff444444444444444444444444444>9>9>9>9>9>99>ffffffffff444444444444444444444444444444449>9>>fffffffffffffffffff",
"ffffffffffffffffffff>444:44444>4>4444>444444>4449>9;9;9>>949>99>>fffffff;4>44944444444444444444444444444>9>9>fffffffffffffffffff",
"ffffffffffffffffffff44>444444:94444444>44>4>4444;9>9>9>9>>9;>5>944>fffff;4444>:444>94>44444444>9444444449>9>9>ffffffffffffffffff",
"fffffffffffffffffff>>>>>5>4>4>4444>4>4>>9>9>45>54>>5>5>>>4>>5>>>9>6>>*ff*99>6>>9>99>9>44>9>9>9>9>44>444>>6:44>ffffffffffffffffff",
"fffffffffffffffffff>9>>9>>:9>4>>>44>4>>5>>>>>>>>>49>>>:94>>5>>>9>>>9>9>;>>>>>9>>>>>>>4>4>>>>>>>>6>4>4>>4464>44>fffffffffffffffff",
"ffffffffffffffffff>>>>>>9>4>>44>>>>4>>9>>59>>9>5>5>>:94>>44>>5>>>>>>>>>>>>>9>>9>>9>9>>9>9>9>>9>6>4>44>>9>>>4>4:fffffffffffffffff",
"ffffffffffffffffff>>>9>>:>>>>>>>4>>>>>>>>>>>>>>>>>4>>>>>4>>59>>>9>>>9>6>>>>>>6>>>>>>>6>>>>>>>>9>>>4>>4>:>4>>>4>fffffffffffffffff",
"fffffffffffffffff>>>>>>>>>>>>4>>>>>>>>>>>>>>>>>>>>>>>>9>>>>>>>>>>>>>>>>>>>>9>>>>>>>>>>>>>>>>>>>>>>>4>>>>>>>6>>>>ffffffffffffffff",
"fffffffffffffffff>>>>>>>>>>>>>>>>>>>>>>>>>>>>>>>>>>>>>>>>>>>>>>>>>>>>>>>>>>>>>>>>>>>>>>>>>4>>>>>>>>>>>>>4>>>>>>>ffffffffffffffff",
"ffffffffffffffff;>>>>>>>>>>>>>>>>>>>>>>>>>>>>>>>>>>>>>>>>>>>>>>>>>>>>>>>>>>>>>>>>>>>>>>>>>>>>>>>>>>>>>>>>>>>>>>>>fffffffffffffff",
"ffffffffffffffff>>>;>>>>>>;>>>>>>>>>>>>>>>>>>>>>>>>;>>>>;>>>>>>>;>>>>>;>>>>>>>>>>>>>>>>>>>>>>>>>>>>>>>>>>>>>>>>>>fffffffffffffff",
"fffffffffffffff;>>>;:>:>>>;>>>;>>>>;>;>>;>>>;>>>>;>;>>;>;;>;>;>>>>>>;>>>>>>>>>>>>>>;>>>>>>;>>>>;>>>;>>>>>>>>>>>>>;ffffffffffffff",
"fffffffffffffff>;;>>:>;>>;>>;>>:;>;>;>;>>>;;>>;;;>;>>>>>>>>>>>>;>>>>>;>>>>>;>;>;>>>>>>>;>>>;>;>>>>>>;>>;>;>;;>;>>>ffffffffffffff",
"ffffffffffffff=>>;>;;>>;;>;;>;;;>;>;>;>;;>>>;>>>;>>>>;>;;>;>;>;>;>>>>>;>>;>;>>>>;>;>;>;>>;>;>>>>;>;>;>;>>>>;;>;>;>>fffffffffffff",
"ffffffffffffff;;>;;>;;;>;>;>;>;>;>;>;>;>>;;;>;;>;>;;;>;>>;>;>;>;>;;;;;;;;>;>;;;;;>;;>;>;;>;>;;;;>;>;>;>;;;;>>;>:>;;fffffffffffff",
"fffffffffffff;;;;;;;>;;;;;>;;>;;;>;>;;;>;>;>;;>;>;;>;;>;;;;;>;;>>;>;;;;>>;;;;;;>>;;;;>;;>;;;;;;;;;>;>;;>;>;>;;>;;>;;ffffffffffff",
"fffffffffffff;;;;;;;;;;;;;;;;;;;;;;;>;;;;;;;;;;;;;;>>;;;;;>;;;;>;;;>;>;;;>;>;>;;;;>>;;;;;>;>;>;;;;;;;;;>;;;>>;;:;;>;=fffffffffff",
"ffffffffffff*;;;;;:;;;;;:;;;:;;;;;;;;;;;;;;;;;;;;;;;;;;;;;>;;;;;;;;;;;;;;;;;;;;;;;;;;;;;;;;;;;;;;;>;;;:;;;;;;;;;;;;;;fffffffffff",
"ffffffffffff;;;;;;;;;;;;;;;;;;;;;;;;;;;;;;;;;;;;;;;;;;;;;;;;;;;;;;;;;;;;;;;;;;;;;;;;;;;;;;;;;;;;;;;;;;;;;;;;;;;;:;;;;=ffffffffff",
"fffffffffff*;;*;;;;-*;;;;*;;;;;;;;;;*;;-;;;*;;;;;;-;*;;;-;;;*;;;;;=;;;=;;;;-;;;=;;-;-;;;;;;;;;;;;;;;;;;;;;;;;;;;;;;;;;ffffffffff",
"fffffffffff***;;;;=;;;*;*;*;*=;**;*;*;;=*;*;*;*;**;;;;*;;;*-;;*;;;;-=;;=;-;;-;;;-;;;-;-;-;;;;;*;*;;;*;;;*;;;;=;;;;;;;*ffffffffff",
"ffffffffff***;;**;=;;**;**-;*;**;**;*;*;*;-;;****;;****-*--;*=*-;-*;*;;**;**;;*;*;;;;;;;;**;*;;*;*;*;*;*;*;*-;;*;==;;;-fffffffff",
"ffffffffff***************;****-********--**----;-*-**;;**;-*;-;**;**;**;*;*;*-**;********;**;-*;;--*;=*;;**;***;*;*=**;fffffffff",
"fffffffff%*************************************************************************************=**-;;*;**;**;*;-*;;;**;*ffffffff",
"fffffffffffOOOOOOOOOOOOOOOOOOOOOOOOOOOOOOOOOOOOOOOOOOOOOOOOOOOOOOOOOOOOOOOOOOOOOOOOOOOOOOOOOOOOOOOOOOOOOOOOOOOOOOOO++@ffffffffff",
"ffffffffffff                                                                                                        ffffffffffff",
"fffffffffffff                                                                                                     ffffffffffffff",
"ffffffffffffffffffffffffffffffffffffffffffffffffffffffffffffffffffffffffffffffffffffffffffffffffffffffffffffffffffffffffffffffff",
"ffffffffffffffffffffffffffffffffffffffffffffffffffffffffffffffffffffffffffffffffffffffffffffffffffffffffffffffffffffffffffffffff",
"ffffffffffffffffffffffffffffffffffffffffffffffffffffffffffffffffffffffffffffffffffffffffffffffffffffffffffffffffffffffffffffffff",
"ffffffffffffffffffffffffffffffffffffffffffffffffffffffffffffffffffffffffffffffffffffffffffffffffffffffffffffffffffffffffffffffff",
"ffffffffffffffffffffffffffffffffffffffffffffffffffffffffffffffffffffffffffffffffffffffffffffffffffffffffffffffffffffffffffffffff",
"ffffffffffffffffffffffffffffffffffffffffffffffffffffffffffffffffffffffffffffffffffffffffffffffffffffffffffffffffffffffffffffffff",
"ffffffffffffffffffffffffffffffffffffffffffffffffffffffffffffffffffffffffffffffffffffffffffffffffffffffffffffffffffffffffffffffff",
"ffffffffffffffffffffffffffffffffffffffffffffffffffffffffffffffffffffffffffffffffffffffffffffffffffffffffffffffffffffffffffffffff"
};
