/* XPM */
static char *control_center2[] = {
/* columns rows colors chars-per-pixel */
"128 128 60 1 ",
"  c black",
". c #060606060606",
"X c #073A073A073A",
"o c #0B3E0B3E0B3E",
"O c #10100F421010",
"+ c #0FA90FA90FA9",
"@ c #114411441144",
"# c #12DF13AD12DF",
"$ c #147A147A147A",
"% c #181818181818",
"& c #1B4E1B4E1B4E",
"* c #1E841E841E84",
"= c #21BB21BB21BB",
"- c #24F124F124F1",
"; c #268C2626268C",
": c #26F326262626",
"> c #262626F32626",
", c #262626F326F3",
"< c #27C127C127C1",
"1 c #29C328F529C3",
"2 c #2A902A902A90",
"3 c #2F622F622F62",
"4 c #303030302FC9",
"5 c #30FD30FD30FD",
"6 c #336632FF3366",
"7 c #350135013501",
"8 c #360A369C3643",
"9 c #389E389E389E",
"0 c #39D3396C396C",
"q c #396C39D3396C",
"w c #39D339D3396C",
"e c #396C396C39D3",
"r c #39D3396C39D3",
"t c #396C39D339D3",
"y c #3B6E3B6E3B6E",
"u c #3D093CA23CA2",
"i c #3CA23D093CA2",
"p c #3D093D093CA2",
"a c #3CA23CA23D09",
"s c #3CA23D093D09",
"d c #3E3E3E3E3E3E",
"f c #401B40204006",
"g c #417441744174",
"h c #432E432E4350",
"j c #451145114511",
"k c #4667468B4677",
"l c #47E147E147E1",
"z c #49E3497C497C",
"x c #497C49E3497C",
"c c #49E349E3497C",
"v c #497C497C49E3",
"b c #49E3497C49E3",
"n c #4B174B174B17",
"m c #4D194D194CB2",
"M c #4EB44EB44EB4",
"N c #4FE94FE95050",
"B c #518451845184",
"V c #535C53865349",
"C c gray33",
"Z c None",
/* pixels */
"ZZZZZZZZZZZZZZZZZZZZZZZZZZZZZZZZZZZZZZZZZZZZZZZZZZZZZZZZZZZZZZZZZZZZZZZZZZZZZZZZZZZZZZZZZZZZZZZZZZZZZZZZZZZZZZZZZZZZZZZZZZZZZZZZ",
"ZZZZZZZZZZZZZZZZZZZZZZZZZZZZZZZZZZZZZZZZZZZZZZZZZZZZZZZZZZZZZZZZZZZZZZZZZZZZZZZZZZZZZZZZZZZZZZZZZZZZZZZZZZZZZZZZZZZZZZZZZZZZZZZZ",
"ZZZZZZZZZZZZZZZZZZZZZZZZZZZZZZZZZZZZZZZZZZZZZZZZZZZZZZZZZZZZZZZZZZZZZZZZZZZZZZZZZZZZZZZZZZZZZZZZZZZZZZZZZZZZZZZZZZZZZZZZZZZZZZZZ",
"ZZZZZZZZZZZZZZZZZZZZZZZZZZZZZZZZZZZZZZZZZZZZZZZZZZZZZZZZZZZZZZZZZZZZZZZZZZZZZZZZZZZZZZZZZZZZZZZZZZZZZZZZZZZZZZZZZZZZZZZZZZZZZZZZ",
"ZZZZZZZZZZZZZZZZZZZZZZZZZZZZZZZZZZZZZZZZZZZZZZZZZZZZZZZZZZZZZZZZZZZZZZZZZZZZZZZZZZZZZZZZZZZZZZZZZZZZZZZZZZZZZZZZZZZZZZZZZZZZZZZZ",
"ZZZZZZZZZZZZZZZZZZZZZZZZZZZZZZZZZZZZZZZZZZZZZZZZZZZZZZZZZZZZZZZZZZZZZZZZZZZZZZZZZZZZZZZZZZZZZZZZZZZZZZZZZZZZZZZZZZZZZZZZZZZZZZZZ",
"ZZZZZZZZZZZZZZZZZZZZZZZZZZZZZZZZZZZZZZZZZZZZZZZZZZZZZZZZZZZZZZZZZZZZZZZZZZZZZZZZZZZZZZZZZZZZZZZZZZZZZZZZZZZZZZZZZZZZZZZZZZZZZZZZ",
"ZZZZZZZZZZZZZZZZZZZZZZZZZZZZZZZZZZZZZZZZZZZZZZZZZZZZZZZZZZZZZZZZZZZZZZZZZZZZZZZZZZZZZZZZZZZZZZZZZZZZZZZZZZZZZZZZZZZZZZZZZZZZZZZZ",
"ZZZZZZZZZZZZZZZZZZZZZZZZZZZZZZZZZZZZZZZZZZZZZZZZZZZZZZZZZZZZZZZZZZZZZZZZZZZZZZZZZZZZZZZZZZZZZZZZZZZZZZZZZZZZZZZZZZZZZZZZZZZZZZZZ",
"ZZZZZZZZZZZZZZZZZZZZZZZZZZZZZZZZZZZZZZZZZZZZZZZZZZZZZZZZZZZZZZZZZZZZZZZZZZZZZZZZZZZZZZZZZZZZZZZZZZZZZZZZZZZZZZZZZZZZZZZZZZZZZZZZ",
"ZZZZZZZZZZZZZZZZZZZZZZZZZZZZZZZZZZZZZZZZZZZZZZZZZZZZZZZZZZZZZZZZZZZZZZZZZZZZZZZZZZZZZZZZZZZZZZZZZZZZZZZZZZZZZZZZZZZZZZZZZZZZZZZZ",
"ZZZZZZZZZZZZZZZZZZZZZZZZZZZZZZZZZZZZZZZZZZZZZZZZZZZZZZZZZZZZZZZZZZZZZZZZZZZZZZZZZZZZZZZZZZZZZZZZZZZZZZZZZZZZZZZZZZZZZZZZZZZZZZZZ",
"ZZZZZZZZZZZZZZZZZZZZZZZZZZZZZZZZZZZZZZZZZZZZZZZZZZZZZZZZZZZZZZZZZZZZZZZZZZZZZZZZZZZZZZZZZZZZZZZZZZZZZZZZZZZZZZZZZZZZZZZZZZZZZZZZ",
"ZZZZZZZZZZZZZZZZZZZZZZZZZZZZZZZZZZZZZZZZZZZZZZZZZZZZZZZZZZZZZZZZZZZZZZZZZZZZZZZZZZZZZZZZZZZZZZZZZZZZZZZZZZZZZZZZZZZZZZZZZZZZZZZZ",
"ZZZZZZZZZZZZZZZZZZZZZZZZZZZZZZZZZZZZZZZZZZZZZZZZZZZZZZZZZZZZZZZZZZZZZZZZZZZZZZZZZZZZZZZZZZZZZZZZZZZZZZZZZZZZZZZZZZZZZZZZZZZZZZZZ",
"ZZZZZZZZZZZZZZZZZZZZZZZZZZZZZZZZZZZZZZZZZZZZZZZZZZZZZZZZZZZZZZZZZZZZZZZZZZZZZZZZZZZZZZZZZZZZZZZZZZZZZZZZZZZZZZZZZZZZZZZZZZZZZZZZ",
"ZZZZZZZZZZZZZZZZZZZZZZZZZZZZZZZZZZZZZZZZZZZZZZZZZZZZZZZZZZZZZZZZZZZZZZZZZZZZZZZZZZZZZZZZZZZZZZZZZZZZZZZZZZZZZZZZZZZZZZZZZZZZZZZZ",
"ZZZZZZZZZZZZZZZZZZZZZZZZZZZZZZZZZZZZZZZZZZZZZZZZZZZZZZZZZZZZZZZZZZZZZZZZZZZZZZZZZZZZZZZZZZZZZZZZZZZZZZZZZZZZZZZZZZZZZZZZZZZZZZZZ",
"ZZZZZZZZZZZZZZZZZZZZZZZZZZZZZZZZZZZZZZZZZZZZZZZZZZZZZZZZZZZZZZZZZZZZZZZZZZZZZZZZZZZZZZZZZZZZZZZZZZZZZZZZZZZZZZZZZZZZZZZZZZZZZZZZ",
"ZZZZZZZZZZZZZZZZZZZZZZZZZZZZZZZZZZZZZZZZZZZZZZZZZZZZZZZZZZZZZZZZZZZZZZZZZZZZZZZZZZZZZZZZZZZZZZZZZZZZZZZZZZZZZZZZZZZZZZZZZZZZZZZZ",
"ZZZZZZZZZZZZZZZZZZZZZZZZZZZZZZZZZZZZZZZZZZZZZZZZZZZZZZZZZZZZZZZZZZZZZZZZZZZZZZZZZZZZZZZZZZZZZZZZZZZZZZZZZZZZZZZZZZZZZZZZZZZZZZZZ",
"ZZZZZZZZZZZZZZZZZZZZZZZZZZZZZZZZZZZZZZZZZZZZZZZZZZZZZZZZZZZZZZZZZZZZZZZZZZZZZZZZZZZZZZZZZZZZZZZZZZZZZZZZZZZZZZZZZZZZZZZZZZZZZZZZ",
"ZZZZZZZZZZZZZZZZZZZZZZBCCCCCCCCCCCCCZZZZZZZZZZZZZZZZZZZZZZCCCCCCCCCCCCCZZZZZZZZZZZZZZZZZZZZZZCCCCCCCCCCCCCCZZZZZZZZZZZZZZZZZZZZZ",
"ZZZZZZZZZZZZZZZZZZZZZZCCCCCCCCCCCCCCVZZZZZZZZZZZZZZZZZZZZCCCCCCCCCCCCCCCZZZZZZZZZZZZZZZZZZZZVCCCCCCCCCCCCCCZZZZZZZZZZZZZZZZZZZZZ",
"ZZZZZZZZZZZZZZZZZZZZZBCCCCCCCCCCCCCCCZZZZZZZZZZZZZZZZZZZZCCCCCCCCCCCCCCCVZZZZZZZZZZZZZZZZZZZVCCCCCCCCCCCCCCVZZZZZZZZZZZZZZZZZZZZ",
"ZZZZZZZZZZZZZZZZZZZZZBCCCCCCCCCCCCCCCZZZZZZZZZZZZZZZZZZZZCCCCCCCCCCCCCCCNZZZZZZZZZZZZZZZZZZZVVCCCCCCCCCCCCCVZZZZZZZZZZZZZZZZZZZZ",
"ZZZZZZZZZZZZZZZZZZZZZNCCCCCCCCCCCCVVVZZZZZZZZZZZZZZZZZZZZVVVCCCVCCCCVVVVBZZZZZZZZZZZZZZZZZZZNVVVCCCCCCCCVVBBZZZZZZZZZZZZZZZZZZZZ",
"ZZZZZZZZZZZZZZZZZZZZZmCCCCCCCCCCVVVVVZZZZZZZZZZZZZZZZZZZaVVVCVVVCCCCVVVVMZZZZZZZZZZZZZZZZZZZVVVVCCCCCCCCVVVBZZZZZZZZZZZZZZZZZZZZ",
"ZZZZZZZZZZZZZZZZZZZZZmBCBCBBCCCCVVVVCZZZZZZZZZZZZZZZZZZZ8VNVVVBVCCVBVVVVmZZZZZZZZZZZZZZZZZZZVBVVBVBVVVVVVVVBZZZZZZZZZZZZZZZZZZZZ",
"ZZZZZZZZZZZZZZZZZZZZZmBCCBCCCCCBVVVVVZZZZZZZZZZZZZZZZZZZ8NVVVBVVCCVVVBVVnZZZZZZZZZZZZZZZZZZZBVVVVVVVVVVVBVBBZZZZZZZZZZZZZZZZZZZZ",
"ZZZZZZZZZZZZZZZZZZZZZnBVBBCBCBBBBBBVVZZZZZZZZZZZZZZZZZZZ7VNVNVBVVVBVBVBVnZZZZZZZZZZZZZZZZZZZMBBBVNBVVBMVBVBMZZZZZZZZZZZZZZZZZZZZ",
"ZZZZZZZZZZZZZZZZZZZZZnBBCBBBBBBBVBBBBZZZZZZZZZZZZZZZZZZZ4NVNVNBBVVBBBBBBnZZZZZZZZZZZZZZZZZZZNVBBBBBBBVBBBBBBZZZZZZZZZZZZZZZZZZZZ",
"ZZZZZZZZZZZZZZZZZZZZZnBBBBBBBBBBBBBBBZZZZZZZZZZZZZZZZZZZ4BBBVBBBBBBBBBBBnZZZZZZZZZZZZZZZZZZZNBBBBBBBBVBBMVNMZZZZZZZZZZZZZZZZZZZZ",
"ZZZZZZZZZZZZZZZZZZZZZnBBBBBBBBBBBBBBBZZZZZZZZZZZZZZZZZZZ8VBBMVBBBBBBBBBMlZZZZZZZZZZZZZZZZZZZMBNBBBBMBMMBVVMMZZZZZZZZZZZZZZZZZZZZ",
"ZZZZZZZZZZZZZZZZZZZZZnBBBBBBNBBBBBBBMZZZZZZZZZZZZBBNBMmnnVBMVNBBBBBBNBNVBmNNBBBMZZZZZZZZZZZZMBBBBBMVBBBBVMMMZZZZZZZZZZZZZZZZZZZZ",
"ZZZZZZZZZZZZZZZZZZZZZlBBNNBMBBMBNNBNBZZZZZZZZZZMMBNBBMBNBMBBMBMVBmBmBNVMBBBMBBNBMBZZZZZZZZZZMNNBBBVMNNNNMMVmZZZZZZZZZZZZZZZZZZZZ",
"ZZZZZZZZZZZZZZZZZZZZZnBMNNNNBMBNNNBNmZZZZZZZZZZBNNNBNNNNMMVMVMMMBBBmVMNVMMBMNNNNNNZZZZZZZZZZMNNNBBBBNNNNMBMMZZZZZZZZZZZZZZZZZZZZ",
"ZZZZZZZZZZZZZZZZZZZZZlMBNNNMMNMBmNMBBZZZZZZZZZlMNNNMNNNNMVNNMMVMmBBBNNMMMBMBMNNNNNMZZZZZZZZZmBNNMMMMNNBMBMNnZZZZZZZZZZZZZZZZZZZZ",
"ZZZZZZZZZZZZZZZZZZZZZnMMMNMNBMBMBmBMmZZZZZZZZZnBNMMNNNMNMMNNMVMNNBmBMNMMMVMMNNNNMMmZZZZZZZZZMMBMMMBMMBMMMBBmZZZZZZZZZZZZZZZZZZZZ",
"ZZZZZZZZZZZZZZZZZZZZZlMBMNMNMMMMmBmBMZZZZZZZZZkMMNMMMMMBMMMMMMMMmmNmMVMMMMMMMMMMMBnZZZZZZZZZmMmMMMMMMMNMMMMnZZZZZZZZZZZZZZZZZZZZ",
"ZZZZZZZZZZZZZZZZZZZZZlBmMNMMBNmBMMMMMZZZZZZZZZhBMMMMMMMnd41,,,,,,11,,<4flmMMBMMMMMlZZZZZZZZZmNMMMMMMMMMMMMMnZZZZZZZZZZZZZZZZZZZZ",
"ZZZZZZZZZZZZZZZZZZZZZlMMMMMMmmNmMMMMnZZZZZZZZZhmMMMMMMh=                =hMMMMMMMMlZZZZZZZZZmMMMMMMMMMMMmMMnZZZZZZZZZZZZZZZZZZZZ",
"ZZZZZZZZZZZZZZZZZZZZZlMmMMmNmNNmMMMMMZZZZZZZZZdmMMMMMm,                  1MMMMMMMMlZZZZZZZZZnMMMMMMMMmMMMnMnZZZZZZZZZZZZZZZZZZZZ",
"ZZZZZZZZZZZZZZZZZZZZZlMMMmmNmmmNMmmBnZZZZZZZZZfmMmmMMhXZZZZZZZZZZZZZZZZ  XfMmMnMMmkZZZZZZZZZnMMmMMmMMMnMMMMvZZZZZZZZZZZZZZZZZZZZ",
"ZZZZZZZZZZZZZZZZZZZZZkmmmmmmmmmmnMMmmZZZZZZZZZdmMMmmldZZZZZZZZZZZZZZZZZZ  ymMnMMnmkZZZZZZZZZmmmmnMMmMnMMMnMnZZZZZZZZZZZZZZZZZZZZ",
"ZZZZZZZZZZZZZZZZZZZZZlmMmmmmmmmNMnMnnZZZZZZZZZdmnMmmmhZZZZZZZZZZZZZZZZZZZ dnMMnnMmkZZZZZZZZZnmmNMnmmnMnMmmnnZZZZZZZZZZZZZZZZZZZZ",
"ZZZZZZZZZZZZZZZZZZZZZlmnmmmMmmmmnMnMnZZZZZZZZZdnnmnMmlZZZZZZZZZZZZZZZZZZZ%lnnnnMnMkZZZZZZZZZnmmnnMnmMMnnmmmnZZZZZZZZZZZZZZZZZZZZ",
"ZZZZZZZZZZZZZZZZZZZZZkmmnmmnnmmmnnmnnZZZZZZZZZdmMnmnmmhZZZZZZZZZZZZZZZZZZanMnmMnnnkZZZZZZZZZlnnmMnnmnnnMnmnlZZZZZZZZZZZZZZZZZZZZ",
"ZZZZZZZZZZZZZZZZZZZZZkllnmmmnmnnmmmmnZZZZZZZZZdlmmnmnnmlZZZZZZZZZZZZZZZZhnnMnmnnnnkZZZZZZZZZnmnmnmnmmnnnnnmlZZZZZZZZZZZZZZZZZZZZ",
"ZZZZZZZZZZZZZZZZZZZZZkmmnnnnmnmnnnnmlZZZZZZZZZdnmlnMnmnnnnnnnnnnnnnnnnnnnnnnnnnmnnkZZZZZZZZZlnnnnnnnnmnnnnnlZZZZZZZZZZZZZZZZZZZZ",
"ZZZZZZZZZZZZZZZZZZZZZkmnnnnnnnnnnnnnmZZZZZZZZZdnnnnnnnnnnnnnnnnnnnnnnnnnnnnnnnnnnnkZZZZZZZZZnnnnnnnnnnnnnnnlZZZZZZZZZZZZZZZZZZZZ",
"ZZZZZZZZZZZZZZZZZZZZZknnnnnnnnnnnnnnlZZZZZZZZZdlnnnnnnnnnnnnnnnnnnnnnnnnnnnnnnnnmlhZZZZZZZZZlnnmnnnnnnnnnnnlZZZZZZZZZZZZZZZZZZZZ",
"ZZZZZZZZZZZZZZZZZZZZZhlmnnlnmmnnnnnnnZZZZZZZZZylnmnmnnnnmnlmnnmlnnnnnnlnnnnnnnnlnlhZZZZZZZZZlmnlnnnlnnnnnnnlZZZZZZZZZZZZZZZZZZZZ",
"ZZZZZZZZZZZZZZZZZZZZZkllnnnnlllmnnlnlZZZZZZZZZ-lllllnnnllmmllmlmmlnllnmllnlmnnnnnlZZZZZZZZZZllnnnnnnnlnlnnllZZZZZZZZZZZZZZZZZZZZ",
"ZZZZZZZZZZZZZZZZZZZZZklmnlmnlnnllnnlnZZZZZZZZZZ4nnlllllnllnlnlmlllnnlnnnnllllllnnyZZZZZZZZZZllmllnnllnlnnnlkZZZZZZZZZZZZZZZZZZZZ",
"ZZZZZZZZZZZZZZZZZZZZZklllnllnllnlnlnlZZZZZZZZZZ -yhfhdhhknlnlnlllnlnnllnkhffhfhd2ZZZZZZZZZZZlllnnnlnnlnnllllZZZZZZZZZZZZZZZZZZZZ",
"ZZZZZZZZZZZZZZZZZZZZZhlnllnllnllnnlnlZZZZZZZZZZZ XXXXXXX1lnlmllmllllnlll8..XXXXXZZZZZZZZZZZZlllllllnlnlnlnljZZZZZZZZZZZZZZZZZZZZ",
"ZZZZZZZZZZZZZZZZZZZZZhlllnnlnlnllllllZZZZZZZZZZZZ       -lnllllllnlnllnl8     ZZZZZZZZZZZZZZlnlnnllnllllllllZZZZZZZZZZZZZZZZZZZZ",
"ZZZZZZZZZZZZZZZZZZZZZhlllllllllllnlllZZZZZZZZZZZZZZZZ   -lllllllnlnllllly ZZZZZZZZZZZZZZZZZZkllllllllnllllljZZZZZZZZZZZZZZZZZZZZ",
"ZZZZZZZZZZZZZZZZZZZZZhlllllllllllllllZZZZZZZZZZZZZZZZZZ -lllllllllllllll8ZZZZZZZZZZZZZZZZZZZjllllllllllllllkZZZZZZZZZZZZZZZZZZZZ",
"ZZZZZZZZZZZZZZZZZZZZZhllllllllllllllkZZZZZZZZZZZZZZZZZZZ1llllllllllllllldZZZZZZZZZZZZZZZZZZZjllllllllllllllhZZZZZZZZZZZZZZZZZZZZ",
"ZZZZZZZZZZZZZZZZZZZ43hllllklklllllllkdZZZZZZZZZZZZZZZZZZ1llllklklllllklldZZZZZZZZZZZZZZZZZZZjllllljllllllllkZZZZZZZZZZZZZZZZZZZZ",
"ZZZZZZZZZZZZkllkllkkklkklklllklklllkllkkllkklkZZZZZZZZZZ1kkkklkkklkllkkldZZZZZZZZZZZZZZZZZZZjjljjlllklkllhlhZZZZZZZZZZZZZZZZZZZZ",
"ZZZZZZZZZZZZlkkkkkklkkkkllkkklkklkkkhllkkkkkkkZZZZZZZZZZ1kklkkklkkkkkkkldZZZZZZZZZZZZZZZZZZZhlllljhlkljllljlZZZZZZZZZZZZZZZZZZZZ",
"ZZZZZZZZZZZhlhlhkkkkkkkkklkkkkkkkkkkklkkkkkkkkkZZZZZZZZZ2jjcjlljkkkkhlkldZZZZZZZZZZZZZZZZZZZkhkklhklhlhllhkhZZZZZZZZZZZZZZZZZZZZ",
"ZZZZZZZZZZZkklklkkkkkkkkhkhkkkkkkkkkkhkkkkjkkkkZZZZZZZZZ2ljjljjlkkhklkkhdZZZZZZZZZZZZZZZZZZZkhhlkklhkkhkkkkhZZZZZZZZZZZZZZZZZZZZ",
"ZZZZZZZZZZZkhkhkhkkkkkkklkkkhkhkhkhkkhkkjkkkkkkZZZZZZZZZ2jljjjjjjlkklhkhdZZZZZZZZZZZZZZZZZZZhkhkhkkkkllhkhhhZZZZZZZZZZZZZZZZZZZZ",
"ZZZZZZZZZZZkhlkhhkhkhhyddyaydaddpddhkkhkjkkhkhkZZZZZZZZZ2jjjjjjjjjkjkkhkdZZZZZZZZZZZZZZZZZZZkhkkkkhkhhlkkhkfZZZZZZZZZZZZZZZZZZZZ",
"ZZZZZZZZZZZkkhkkkjjd1#.............$1ykhjjjjhkhZZZZZZZZZ2jjjjjjjjjjjjjkhdZZZZZZZZZZZZZZZZZZZhkkhhlhlkhkhkhkhZZZZZZZZZZZZZZZZZZZZ",
"ZZZZZZZZZZZhhkhkjjd%                 %dkjjjjkkhZZZZZZZZZ<jjjjjjjjjhjjjhkdZZZZZZZZZZZZZZZZZZZhkhhjhhhhkhlhkhhZZZZZZZZZZZZZZZZZZZZ",
"ZZZZZZZZZZZhhhhkhk3  ZZZZZZZZZZZZZ    4hjjjhkhkZZZZZZZZZ<jjhjhjjjjhjhkhhdZZZZZZZZZZZZZZZZZZZhhhkjhhlhlkhkhhhZZZZZZZZZZZZZZZZZZZZ",
"ZZZZZZZZZZZhhkhhkh&ZZZZZZZZZZZZZZZZZ  %fhhhjhhhZZZZZZZZZ2hjhjhhhjhhjhhhjdZZZZZZZZZZZZZZZZZZZhhhhjhhhhhhhhhhhZZZZZZZZZZZZZZZZZZZZ",
"ZZZZZZZZZZZhhhhhhf%ZZZZZZZZZZZZZZZZZZZ$hhhhhhhhZZZZZZZZZ<hhhhhhhhhhhhhhhdZZZZZZZZZZZZhhddyy8hhhhhhhhhhhhhhhhydhhhhhZZZZZZZZZZZZZ",
"ZZZZZZZZZZZhkhhhhh1ZZZZZZZZZZZZZZZZZZZ=hhhhhhhhZZZZZZZZZ<hhhhhhhhhhhhhhhdZZZZZZZZZZhhhhhhhhhhhhhhhhhhhhhhhhhhhhhhhhhhZZZZZZZZZZZ",
"ZZZZZZZZZZZfhhhhhhyZZZZZZZZZZZZZZZZZZZ8hhhhhhhhZZZZZZZZZ<hhhhhhhhhhhhhhhdZZZZZZZZZdhhhhfhhhhdhhhhhhhdhhhhhhhhhhhhhfhhZZZZZZZZZZZ",
"ZZZZZZZZZZZhdhhhhhfyZZZZZZZZZZZZZZZZZ4hhhfhhhhfZZZZZZZZZ-hhhhhfhhhdhhhhhyZZZZZZZZZhhhhhhhhhhhhhhhhhfhhhhhhdhhfhhhfhhhhZZZZZZZZZZ",
"ZZZZZZZZZZZdfhhddhdhhdZZZZZZZZZZZZZydhhfhhdhhdhZZZZZZZZZ<fhhhhfhfhfhhhhddZZZZZZZZZhhhhfhhhfhhhdhfhhdhhhdhfhhhhhfhfhhhfZZZZZZZZZZ",
"ZZZZZZZZZZZhhhfhhhhfhfhhhhhhhhhhhfhhhhdhhdhfhhhZZZZZZZZZ<hhddfhfhfhfdhfhyZZZZZZZZ4hhhdhfdhdhhhhfhdhhdhhhfhdhhdfffhffhfZZZZZZZZZZ",
"ZZZZZZZZZZZdfhhfhdfhdhhdhdfhhddhhhhfddhhfhhdhddZZZZZZZZZ<fhfhfdhhffhdhdhyZZZZZZZZ2fhdhdhdhhy84444444444446yfhhfhhhhfhdZZZZZZZZZZ",
"ZZZZZZZZZZZphfhdfhhhdhdhfhddhhhhhddhhhhdhfdhhfhZZZZZZZZZ-hdhdhhhdfhfhhdhyZZZZZZZZ<hhdfhhfd3#.             .=7dhffdfhhdZZZZZZZZZZ",
"ZZZZZZZZZZZyhdfhhdhhdhhdhhdhhdfdddhddhddhdpfhhdZZZZZZZZZ1hdhfhddfhffffdfyZZZZZZZZ1hhdhhdd4                  %ddfdhdhhdZZZZZZZZZZ",
"ZZZZZZZZZZZ1dhhddhdfhdfddffddffhdhhddhhfdhhhdd4ZZZZZZZZZ<dfddhdhffffdhhfyZZZZZZZZ1ddddhdd* ZZZZZZZZZZZZZZ    4fhfdhdddZZZZZZZZZZ",
"ZZZZZZZZZZZZ1ydhhddhddhhfhdhdhdddhdfdfhhhdddd4ZZZZZZZZZZ<fdfhdddffffffdfyZZZZZZZZ<dhdhddy.ZZZZZZZZZZZZZZZZZ  -pdphddhdZZZZZZZZZZ",
"ZZZZZZZZZZZZ +******=ydfddfpfdhhddhdd-****==$ZZZZZZZZZZZ-fffdhdhffphfdffyZZZZZZZZ-hdddhdyZZZZZZZZZZZZZZZZZZZ -hdddhdddZZZZZZZZZZ",
"ZZZZZZZZZZZZZ       .8dddddhddpddhdhp+     ZZZZZZZZZZZZZ-hhddfdddpdfffdh8ZZZZZZZZ-hdhdddd-ZZZZZZZZZZZZZZZZZZZ4dhdhddddZZZZZZZZZZ",
"ZZZZZZZZZZZZZZZ     .ydddddhfdhddddfd#   ZZZZZZZZZZZZZZZ-pdfdddhfhddddddyZZZZZZZZ-ddddddd8ZZZZZZZZZZZZZZZZZZ=dddddphddZZZZZZZZZZ",
"ZZZZZZZZZZZZZZZZZZZ .ydddfddddddddddy#ZZZZZZZZZZZZZZZZZZ-dddddddfdfddddd8ZZZZZZZZ-dhddddddyZZZZZZZZZZZZZZZZ39ddddddddyZZZZZZZZZZ",
"ZZZZZZZZZZZZZZZZZZZZ.8ddddddddddddddd$ZZZZZZZZZZZZZZZZZZ-dddddddddddddddyZZZZZZZZ-ddddddddddddaadddddadydyaddddddddddyZZZZZZZZZZ",
"ZZZZZZZZZZZZZZZZZZZZZyddddddddddpddddZZZZZZZZZZZZZZZZZZZ-dddddddddpdddpd9ZZZZZZZZ-ddddddyddpdpddddddddddddpddddpdddddyZZZZZZZZZZ",
"ZZZZZZZZZZZZZZZZZZZZZ8addpdddyddddyddZZZZZZZZZZZZZZZZZZZ-dpppppddddppdda9ZZZZZZZZ-ddpdpdddydddpdydpdyddydddyyddpdydddyZZZZZZZZZZ",
"ZZZZZZZZZZZZZZZZZZZZZ8dayddyddydpdddyZZZZZZZZZZZZZZZZZZZ-apddpyppppdappdyZZZZZZZZ-ddydaayddyppyadydppydydyyddpdpyddydyZZZZZZZZZZ",
"ZZZZZZZZZZZZZZZZZZZZZyydyddydydydydydZZZZZZZZZZZZZZZZZZZ-aaddydappppddyp8ZZZZZZZZ$8dddydddydppddydydddydpdyapaaadyydd4ZZZZZZZZZZ",
"ZZZZZZZZZZZZZZZZZZZZZ8dyddyydyddyydyyZZZZZZZZZZZZZZZZZZZ=aayaayapddyyddp8ZZZZZZZZZ1ddyyyydyyaaaadpydddyaaaayaaaadydyyZZZZZZZZZZZ",
"ZZZZZZZZZZZZZZZZZZZZZ8ydyydyydyyyddydZZZZZZZZZZZZZZZZZZZ-adyayaadyydyyyy8ZZZZZZZZZZ-88y98yy9dyydypyyyydyyaya99988yy3ZZZZZZZZZZZZ",
"ZZZZZZZZZZZZZZZZZZZZZ8yyydyyyyydyyyyyZZZZZZZZZZZZZZZZZZZ=yyyyayyyyyyypyp8ZZZZZZZZZZ X###+##*yyyyyydyyyyyayy7$######ZZZZZZZZZZZZZ",
"ZZZZZZZZZZZZZZZZZZZZZ8yyyyyyyyyyyyyyyZZZZZZZZZZZZZZZZZZZ-yyyyyyyyyyyyyyy8ZZZZZZZZZZZ       +8yyyyyyyyyyyyyy8.     ZZZZZZZZZZZZZZ",
"ZZZZZZZZZZZZZZZZZZZZZ8yyyyyyyyyyyyyyyZZZZZZZZZZZZZZZZZZZ-yyyyyyyyyyyyyyy8ZZZZZZZZZZZZZZ    O9yyyyyyyyyyyyyy7.  ZZZZZZZZZZZZZZZZZ",
"ZZZZZZZZZZZZZZZZZZZZZ8yyyyy8yyyyyyyyyZZZZZZZZZZZZZZZZZZZ=yyy9yyyyy9yyy9y8ZZZZZZZZZZZZZZZZZ #9y9yyy9yy9y99yy6ZZZZZZZZZZZZZZZZZZZZ",
"ZZZZZZZZZZZZZZZZZZZZZ8yyyyyyyyyyy9yyyZZZZZZZZZZZZZZZZZZZ=y9yyyy9y8yy9yy98ZZZZZZZZZZZZZZZZZZ#999y99yyyy9yyyy8ZZZZZZZZZZZZZZZZZZZZ",
"ZZZZZZZZZZZZZZZZZZZZZ79yy8yy8yy8y8yy8ZZZZZZZZZZZZZZZZZZZ=9yy9y9y9yy8yyyy8ZZZZZZZZZZZZZZZZZZO9yyyyy9y8y9yy996ZZZZZZZZZZZZZZZZZZZZ",
"ZZZZZZZZZZZZZZZZZZZZZ8y89yy9y9y9yy99pZZZZZZZZZZZZZZZZZZZ=yy99y99yy9yy9yy8ZZZZZZZZZZZZZZZZZZ$999yyyy9y99yy9y8ZZZZZZZZZZZZZZZZZZZZ",
"ZZZZZZZZZZZZZZZZZZZZZ88yy99y8yy9999yyZZZZZZZZZZZZZZZZZZZ=99y99yy99999y993ZZZZZZZZZZZZZZZZZZ$9y99999y9y999y99ZZZZZZZZZZZZZZZZZZZZ",
"ZZZZZZZZZZZZZZZZZZZZZ4yy9999y9999y8y8ZZZZZZZZZZZZZZZZZZZ=9y999y88y9y998y4ZZZZZZZZZZZZZZZZZZ$898y99y8999yy8y8ZZZZZZZZZZZZZZZZZZZZ",
"ZZZZZZZZZZZZZZZZZZZZZ88y999999999998yZZZZZZZZZZZZZZZZZZZ=999999998y8999y8ZZZZZZZZZZZZZZZZZZZ99989999999998y8ZZZZZZZZZZZZZZZZZZZZ",
"ZZZZZZZZZZZZZZZZZZZZZ3989999999989998ZZZZZZZZZZZZZZZZZZZ*y8y9999999999994ZZZZZZZZZZZZZZZZZZZ8y8y999999899994ZZZZZZZZZZZZZZZZZZZZ",
"ZZZZZZZZZZZZZZZZZZZZZ*8y99999899y8991ZZZZZZZZZZZZZZZZZZZZ388899899899897ZZZZZZZZZZZZZZZZZZZZ-88y99998y9989y1ZZZZZZZZZZZZZZZZZZZZ",
"ZZZZZZZZZZZZZZZZZZZZZZ-89y989989yy81ZZZZZZZZZZZZZZZZZZZZZ$1y8yy899898y3ZZZZZZZZZZZZZZZZZZZZZZ-8yy888y89998<ZZZZZZZZZZZZZZZZZZZZZ",
"ZZZZZZZZZZZZZZZZZZZZZZ O%&&&&&&&%*%ZZZZZZZZZZZZZZZZZZZZZZZ.$&&%*&&&&%&ZZZZZZZZZZZZZZZZZZZZZZZ #%%&&%%*%*%#ZZZZZZZZZZZZZZZZZZZZZZ",
"ZZZZZZZZZZZZZZZZZZZZZZZ          ZZZZZZZZZZZZZZZZZZZZZZZZZ           ZZZZZZZZZZZZZZZZZZZZZZZZZ          ZZZZZZZZZZZZZZZZZZZZZZZZ",
"ZZZZZZZZZZZZZZZZZZZZZZZZZ      ZZZZZZZZZZZZZZZZZZZZZZZZZZZZZ       ZZZZZZZZZZZZZZZZZZZZZZZZZZZZZ      ZZZZZZZZZZZZZZZZZZZZZZZZZZ",
"ZZZZZZZZZZZZZZZZZZZZZZZZZZZZZZZZZZZZZZZZZZZZZZZZZZZZZZZZZZZZZZZZZZZZZZZZZZZZZZZZZZZZZZZZZZZZZZZZZZZZZZZZZZZZZZZZZZZZZZZZZZZZZZZZ",
"ZZZZZZZZZZZZZZZZZZZZZZZZZZZZZZZZZZZZZZZZZZZZZZZZZZZZZZZZZZZZZZZZZZZZZZZZZZZZZZZZZZZZZZZZZZZZZZZZZZZZZZZZZZZZZZZZZZZZZZZZZZZZZZZZ",
"ZZZZZZZZZZZZZZZZZZZZZZZZZZZZZZZZZZZZZZZZZZZZZZZZZZZZZZZZZZZZZZZZZZZZZZZZZZZZZZZZZZZZZZZZZZZZZZZZZZZZZZZZZZZZZZZZZZZZZZZZZZZZZZZZ",
"ZZZZZZZZZZZZZZZZZZZZZZZZZZZZZZZZZZZZZZZZZZZZZZZZZZZZZZZZZZZZZZZZZZZZZZZZZZZZZZZZZZZZZZZZZZZZZZZZZZZZZZZZZZZZZZZZZZZZZZZZZZZZZZZZ",
"ZZZZZZZZZZZZZZZZZZZZZZZZZZZZZZZZZZZZZZZZZZZZZZZZZZZZZZZZZZZZZZZZZZZZZZZZZZZZZZZZZZZZZZZZZZZZZZZZZZZZZZZZZZZZZZZZZZZZZZZZZZZZZZZZ",
"ZZZZZZZZZZZZZZZZZZZZZZZZZZZZZZZZZZZZZZZZZZZZZZZZZZZZZZZZZZZZZZZZZZZZZZZZZZZZZZZZZZZZZZZZZZZZZZZZZZZZZZZZZZZZZZZZZZZZZZZZZZZZZZZZ",
"ZZZZZZZZZZZZZZZZZZZZZZZZZZZZZZZZZZZZZZZZZZZZZZZZZZZZZZZZZZZZZZZZZZZZZZZZZZZZZZZZZZZZZZZZZZZZZZZZZZZZZZZZZZZZZZZZZZZZZZZZZZZZZZZZ",
"ZZZZZZZZZZZZZZZZZZZZZZZZZZZZZZZZZZZZZZZZZZZZZZZZZZZZZZZZZZZZZZZZZZZZZZZZZZZZZZZZZZZZZZZZZZZZZZZZZZZZZZZZZZZZZZZZZZZZZZZZZZZZZZZZ",
"ZZZZZZZZZZZZZZZZZZZZZZZZZZZZZZZZZZZZZZZZZZZZZZZZZZZZZZZZZZZZZZZZZZZZZZZZZZZZZZZZZZZZZZZZZZZZZZZZZZZZZZZZZZZZZZZZZZZZZZZZZZZZZZZZ",
"ZZZZZZZZZZZZZZZZZZZZZZZZZZZZZZZZZZZZZZZZZZZZZZZZZZZZZZZZZZZZZZZZZZZZZZZZZZZZZZZZZZZZZZZZZZZZZZZZZZZZZZZZZZZZZZZZZZZZZZZZZZZZZZZZ",
"ZZZZZZZZZZZZZZZZZZZZZZZZZZZZZZZZZZZZZZZZZZZZZZZZZZZZZZZZZZZZZZZZZZZZZZZZZZZZZZZZZZZZZZZZZZZZZZZZZZZZZZZZZZZZZZZZZZZZZZZZZZZZZZZZ",
"ZZZZZZZZZZZZZZZZZZZZZZZZZZZZZZZZZZZZZZZZZZZZZZZZZZZZZZZZZZZZZZZZZZZZZZZZZZZZZZZZZZZZZZZZZZZZZZZZZZZZZZZZZZZZZZZZZZZZZZZZZZZZZZZZ",
"ZZZZZZZZZZZZZZZZZZZZZZZZZZZZZZZZZZZZZZZZZZZZZZZZZZZZZZZZZZZZZZZZZZZZZZZZZZZZZZZZZZZZZZZZZZZZZZZZZZZZZZZZZZZZZZZZZZZZZZZZZZZZZZZZ",
"ZZZZZZZZZZZZZZZZZZZZZZZZZZZZZZZZZZZZZZZZZZZZZZZZZZZZZZZZZZZZZZZZZZZZZZZZZZZZZZZZZZZZZZZZZZZZZZZZZZZZZZZZZZZZZZZZZZZZZZZZZZZZZZZZ",
"ZZZZZZZZZZZZZZZZZZZZZZZZZZZZZZZZZZZZZZZZZZZZZZZZZZZZZZZZZZZZZZZZZZZZZZZZZZZZZZZZZZZZZZZZZZZZZZZZZZZZZZZZZZZZZZZZZZZZZZZZZZZZZZZZ",
"ZZZZZZZZZZZZZZZZZZZZZZZZZZZZZZZZZZZZZZZZZZZZZZZZZZZZZZZZZZZZZZZZZZZZZZZZZZZZZZZZZZZZZZZZZZZZZZZZZZZZZZZZZZZZZZZZZZZZZZZZZZZZZZZZ",
"ZZZZZZZZZZZZZZZZZZZZZZZZZZZZZZZZZZZZZZZZZZZZZZZZZZZZZZZZZZZZZZZZZZZZZZZZZZZZZZZZZZZZZZZZZZZZZZZZZZZZZZZZZZZZZZZZZZZZZZZZZZZZZZZZ",
"ZZZZZZZZZZZZZZZZZZZZZZZZZZZZZZZZZZZZZZZZZZZZZZZZZZZZZZZZZZZZZZZZZZZZZZZZZZZZZZZZZZZZZZZZZZZZZZZZZZZZZZZZZZZZZZZZZZZZZZZZZZZZZZZZ"
};
