/* XPM */
static char *DC__[] = {
/* columns rows colors chars-per-pixel */
"128 128 63 1 ",
"  c #006600660066",
". c #040404040404",
"X c #07A107A107A1",
"o c #0AD70AD70AD7",
"O c #0E740E0E0E0E",
"+ c #11AB11AB11AB",
"@ c #147A147A147A",
"# c #15AF167C167C",
"$ c #187E187E187E",
"% c #18E519B318E5",
"& c #1AE71AE71AE7",
"* c #1C821D501C82",
"= c #1E1E1E1E1E1E",
"- c #21BB21BB21BB",
"; c #235622882288",
": c #248A248A248A",
"> c #27C127C127C1",
", c #2B5E2B5E2B5E",
"< c #2E942E942E94",
"1 c #303630232FE7",
"2 c #31CB31CB31CB",
"3 c #32FF336632FF",
"4 c #33CD33CD33CD",
"5 c #36733674365D",
"6 c gray22",
"7 c #39D3396C396C",
"8 c #396C39D3396C",
"9 c #39D339D3396C",
"0 c #396C396C39D3",
"q c #39D3396C39D3",
"w c #396C39D339D3",
"e c #3B073B073B07",
"r c #3D093CA23CA2",
"t c #3CA23D093CA2",
"y c #3D093D093CA2",
"u c #3CA23CA23D09",
"i c #3CA23D093D09",
"p c #3EA43EA43EA4",
"a c #401E3FFB4010",
"s c #417441744174",
"d c #433E434A4356",
"f c #44AA44AA44AA",
"g c #4686466A4662",
"h c #47E147E147E1",
"j c #49E3497C497C",
"k c #497C49E3497C",
"l c #49E349E3497C",
"z c #497C497C49E3",
"x c #49E3497C49E3",
"c c #497C49E349E3",
"v c #4B174B174B17",
"b c #4CB24D194CB2",
"n c #4CB24CB24D19",
"m c #4D194CB24D19",
"M c #4CB24D194D19",
"N c #4EB44EB44EB4",
"B c #5030502D5013",
"V c #51EB51EB51EB",
"C c #534653465369",
"Z c #54BA54BA54BA",
"A c #568A5688568F",
"S c #578A578A578A",
"D c None",
/* pixels */
"DDDDDDDDDDDDDDDDDDDDDDDDDDDDDDDDDDDDDDDDDDDDDDDDDDDDDDDDDDDDDDDDDDDDDDDDDDDDDDDDDDDDDDDDDDDDDDDDDDDDDDDDDDDDDDDDDDDDDDDDDDDDDDDD",
"DDDDDDDDDDDDDDDDDDDDDDDDDDDDDDDDDDDDDDDDDDDDDDDDDDDDDDDDDDDDDDDDDDDDDDDDDDDDDDDDDDDDDDDDDDDDDDDDDDDDDDDDDDDDDDDDDDDDDDDDDDDDDDDD",
"DDDDDDDDDDDDDDDDDDDDDDDDDDDDDDDDDDDDDDDDDDDDDDDDDDDDDDDDDDDDDDDDDDDDDDDDDDDDDDDDDDDDDDDDDDDDDDDDDDDDDDDDDDDDDDDDDDDDDDDDDDDDDDDD",
"DDDDDDDDDDDDDDDDDDDDDDDDDDDDDDDDDDDDDDDDDDDDDDDDDDDDDDDDDDDDDDDDDDDDDDDDDDDDDDDDDDDDDDDDDDDDDDDDDDDDDDDDDDDDDDDDDDDDDDDDDDDDDDDD",
"DDDDDDDDDDDDDDDDDDDDDDDDDDDDDDDDDDDDDDDDDDDDDDDDDDDDDDDDDDDDDDDDDDDDDDDDDDDDDDDDDDDDDDDDDDDDDDDDDDDDDDDDDDDDDDDDDDDDDDDDDDDDDDDD",
"DDDDDDDDDDDDDDDDDDDDDDDDDDDDDDDDDDDDDDDDDDDDDDDDDDDDDDDDDDDDDDDDDDDDDDDDDDDDDDDDDDDDDDDDDDDDDDDDDDDDDDDDDDDDDDDDDDDDDDDDDDDDDDDD",
"DDDDDDDDDDDDDDDDDDDDDDDDDDDDDDDDDDDDDDDDDDDDDDDDDDDDDDDDDSSSSSSSSSSSSSSSSDDDDDDDDDDDDDDDDDDDDDDDDDDDDDDDDDDDDDDDDDDDDDDDDDDDDDDD",
"DDDDDDDDDDDDDDDDDDDDDDDDDDDDDDDDDDDDDDDDDDDDDDDDDDDDSZSSSSSSSSSSSSSSSSSSSSSSSSDDDDDDDDDDDDDDDDDDDDDDDDDDDDDDDDDDDDDDDDDDDDDDDDDD",
"DDDDDDDDDDDDDDDDDDDDDDDDDDDDDDDDDDDDDDDDDDDDDDDDDSSSSSSSSSSSSSSSSSSSSSSSSSSSSSSSSDDDDDDDDDDDDDDDDDDDDDDDDDDDDDDDDDDDDDDDDDDDDDDD",
"DDDDDDDDDDDDDDDDDDDDDDDDDDDDDDDDDDDDDDDDDDDDDZSSSSSSSSSSSSSSSSSSSSSSSSSSSSSSSSSSSSSSDDDDDDDDDDDDDDDDDDDDDDDDDDDDDDDDDDDDDDDDDDDD",
"DDDDDDDDDDDDDDDDDDDDDDDDDDDDDDDDDDDDDDDDDDDZSSSSSSSSSSSSSSSSSSSSSSSSSSZSSSSSSSSSSSSZSZSDDDDDDDDDDDDDDDDDDDDDDDDDDDDDDDDDDDDDDDDD",
"DDDDDDDDDDDDDDDDDDDDDDDDDDDDDDDDDDDDDDDDDSSSSSSSSSSSZSSSSSSSSSZSSSSSSSSSSSSSSSSSZSSSSSSZSDDDDDDDDDDDDDDDDDDDDDDDDDDDDDDDDDDDDDDD",
"DDDDDDDDDDDDDDDDDDDDDDDDDDDDDDDDDDDDDDDSSSZSZSZZSZSZSSZSSSSZSZZSSSSZSZSSZSZSSSSSZSZZSZSSZZSDDDDDDDDDDDDDDDDDDDDDDDDDDDDDDDDDDDDD",
"DDDDDDDDDDDDDDDDDDDDDDDDDDDDDDDDDDDDDZSZZSZSSZSSSSZSSZSZSSZSSSSZSSZSZSSZSSZSSSSSSZSSZSZZZSSZZDDDDDDDDDDDDDDDDDDDDDDDDDDDDDDDDDDD",
"DDDDDDDDDDDDDDDDDDDDDDDDDDDDDDDDDDDZZZSSSZZSZSSSZSZZZZSSSZSSZZZSSZSZSZSZSZZSSSSSZSSSSZZSZSSCSSZDDDDDDDDDDDDDDDDDDDDDDDDDDDDDDDDD",
"DDDDDDDDDDDDDDDDDDDDDDDDDDDDDDDDDDSZSZZZSZZSSZZZSZZSSZZZSZZZSZZSZZSZZZZSZZSSSSSSZZZZZZSZZCSZZZZZDDDDDDDDDDDDDDDDDDDDDDDDDDDDDDDD",
"DDDDDDDDDDDDDDDDDDDDDDDDDDDDDDDDVZZZZZSZZZSZZZZZZZZZZZZZZZZZZZZZZZZZZZZZZZZZZZZZZZZZZZZZZZZZZZZZZVDDDDDDDDDDDDDDDDDDDDDDDDDDDDDD",
"DDDDDDDDDDDDDDDDDDDDDDDDDDDDDDDZZZZZZZZZZZZZZZZZZZZZZZZZZZZZZZZZZZZZZZZZZZZZZZZZZZZZZZZZZZZZZZZZZZZDDDDDDDDDDDDDDDDDDDDDDDDDDDDD",
"DDDDDDDDDDDDDDDDDDDDDDDDDDDDDDZZZZZZZZZZZZZZZZZZZZZZZZZZZZZZZZZZZZZZZZZZZZZZZZZZZZCZZZZZZZZZZZZCZZZZDDDDDDDDDDDDDDDDDDDDDDDDDDDD",
"DDDDDDDDDDDDDDDDDDDDDDDDDDDDVZZZCZZZZZZZZZZZZCZZZZZZZZZZZZZZZZZVZZZZZZZZZVZZZZZZZZZZZCZZCZZZZCZZCZVZZZDDDDDDDDDDDDDDDDDDDDDDDDDD",
"DDDDDDDDDDDDDDDDDDDDDDDDDDDNZZZZZZVCZZVZCZZZCZZCZCZCCZCZZZZVZCZZVZZZCCZVZZCZZCCCCZCZCZZCCZZVCCZZZCZCVZVDDDDDDDDDDDDDDDDDDDDDDDDD",
"DDDDDDDDDDDDDDDDDDDDDDDDDDVZZVZVZZZZZVZZZCZVZVCCZZZCZZZVZCCZCZVZZZVVCZVZVZCCCCCCVZVZCCZVCCVZZCCCVZZVZZVVDDDDDDDDDDDDDDDDDDDDDDDD",
"DDDDDDDDDDDDDDDDDDDDDDDDDVZVVZVZZVVZVZZVVZZZVCVCCCVZZVZVZVCZZVZVCCCZZCZVVCVZCCCCZVZVVZVZCCCCCVCVVZVZZVVCVDDDDDDDDDDDDDDDDDDDDDDD",
"DDDDDDDDDDDDDDDDDDDDDDDDNCCVZVZVCVZCZVVZCCVCVvhgddfghVVZVZVVVZVZZVZVVCVZZVZVZVCCVZVCCVCVCCVVCCCCVCVVVVZCVVDDDDDDDDDDDDDDDDDDDDDD",
"DDDDDDDDDDDDDDDDDDDDDDDNVCZVZZVZVZVVVZVVVVv6:O.o. o.O:5vVVVZVVZVVZVVVVCVCCCVCVCCVZVZCVCCVVCVVCCVCVVVZVVCVVVDDDDDDDDDDDDDDDDDDDDD",
"DDDDDDDDDDDDDDDDDDDDDDNVCVVZVVVVVZZVZVVN5&o.          .o=5NVVVVVVVVVVCVCVVVVVVVVVVVVCVVVVCVCVVBVVVCVVVVVCVVBDDDDDDDDDDDDDDDDDDDD",
"DDDDDDDDDDDDDDDDDDDDDDVVVVCVCVVVVVVVVB6=    DDDDDDDD     .&yVVVVVVCVVVVVVVVVVVVVVVVVVVVVVVVVVVVVVVVVVVVVVVVVDDDDDDDDDDDDDDDDDDDD",
"DDDDDDDDDDDDDDDDDDDDDVVVVVVVVVVVVVVVh,. DDDDDDDDDDDDDDDD   o5vVVVVVVVVBVVVVVVVVVVVVVVBVVVVVVVVVVVVVVVVVVVVBVVDDDDDDDDDDDDDDDDDDD",
"DDDDDDDDDDDDDDDDDDDDNVVVVVVVVVVVVVVd= DDDDDDDDDDDDDDDDDDDD   :dVVVVVVVVVVVVVVBVVVVBVVBVVVBBVVBVVBVBVVVVVVVBVVNDDDDDDDDDDDDDDDDDD",
"DDDDDDDDDDDDDDDDDDDvBVVVVBVVVVVVVVdODDDDDDDDDDDDDDDDDDDDDDDD  @yVVVBVBBVBVVVBVBVVVVVBVBVBVVBBVBBVBVVBBBBBVVBBVNDDDDDDDDDDDDDDDDD",
"DDDDDDDDDDDDDDDDDDDVVVBVBVBVVVBVNy+DDDDDDDDDDDDDDDDDDDDDDDDDD  +dBBVBVBBVBVBVBVBNNVBVBBBVBBVVBBVBBBBBBVBBBBBBBVDDDDDDDDDDDDDDDDD",
"DDDDDDDDDDDDDDDDDDBNBVBBVBVBBBVBv&DDDDDDDDDDDDDDDDDDDDDDDDDDDD  &vBBBBBVBBBBBBBBVVBBBBBBBNBBBBBBVBBVBVBBBVBVBBVVDDDDDDDDDDDDDDDD",
"DDDDDDDDDDDDDDDDDvVNBBBBBNBBVNBN>DDDDDDDDDDDDDDDDDDDDDDDDDDDDDD .>mBBBBmBBBBBBBBBBBmvxdddgdghvmvBBNBNBBBBBBBBBBBvDDDDDDDDDDDDDDD",
"DDDDDDDDDDDDDDDDDBNVVBBNBVBBNVB3DDDDDDDDDDDDDDDDDDDDDDDDDDDDDDDD .uBBBBBmBBBBBmBmxfq5544444446udvbNNBNBNBBBBvBBBBDDDDDDDDDDDDDDD",
"DDDDDDDDDDDDDDDDNNBBNVNVNBBBNBvDDDDDDDDDDDDDDDDDDDDDDDDDDDDDDDDDD &zBBBBBBBmmBvha6544444444444445efNNNNNvBBvBmBBNBDDDDDDDDDDDDDD",
"DDDDDDDDDDDDDDDdNBNBNNNNBBNBNN5DDDDDDDDDDDDDDDDDDDDDDDDDDDDDDDDDDD.6BmBBBmBBvha64444444244444424335ygNNNBBBBBBBmNBDDDDDDDDDDDDDD",
"DDDDDDDDDDDDDDDNNNBNNNNNNNNNNvDDDDDDDDDDDDDDDDDDDDDDDDDDDDDDDDDDDDD-vBBmBmBvdq44442444444444244434435dvNBBmBmBmBNNNDDDDDDDDDDDDD",
"DDDDDDDDDDDDDDdNNNNNNNNNNNNNNdDDDDDDDDDDDDDDDDDDDDDDDDDDDDDDDDDDDDD.ummBmnva44444444424444444444443335yvvBBmBmBBNNNDDDDDDDDDDDDD",
"DDDDDDDDDDDDDDvNNNNNNNNNNNNNv1DDDDDDDDDDDDDDDDDDDDDDDDDDDDDDDDDDDDDD1BmBvxu6444444444441444444444333443yxvmBvBmmNBNvDDDDDDDDDDDD",
"DDDDDDDDDDDDDDNNNNNNNNNNNNNNvDDDDDDDDDDDDDDDDDDDDDDDDDDDDDDDDDDDDDDD&vvvha624444444444444444442434333433uvvvBvBmNvvBDDDDDDDDDDDD",
"DDDDDDDDDDDDDvNNNNvNvNNvNNNvdDDDDDDDDDDDDDDDDDDDDDDDDDDDDDDDDDDDDDDDOgvva64444444444424444444444443444444avvBvBBvNvNvDDDDDDDDDDD",
"DDDDDDDDDDDDDvNvNNNNvNNvvNNNdDDDDDDDDDDDDDDDDDDDDDDDDDDDDDDDDDDDDDDDDyhd0442444144444444442444444334144444avvmvvNvNNvDDDDDDDDDDD",
"DDDDDDDDDDDDaNNvNvvNNNvNNvvNDDDDDDDDDDDDDDDDDDDDDDDDDDDDDDDDDDDDDDDDD6dq4444444414424444244424424444444343qhvmmmvNNvvvDDDDDDDDDD",
"DDDDDDDDDDDDvNvNNvNvvNNvvNNNDDDDDDDDDDDDDDDDDDDDDDDDDDDDDDDDDDDDDDDDD1a444244444444444424444444444444444433axvvvvvvNvvDDDDDDDDDD",
"DDDDDDDDDDDDvNvNNvNNvNNvvvNvDDDDDDDDDDDDDDDDDDDDDDDDDDDDDDDDDDDDDDDDD=64424444244444444444444244443444444446sxvvvNvvvvDDDDDDDDDD",
"DDDDDDDDDDDyvvvvvvvvvvvNvNvvDDDDDDDDDDDDDDDDDDDDDDDDDDDDDDDDDDDDDDDDD=44444444444424244444424444443334444444axvvvvvvvvhDDDDDDDDD",
"DDDDDDDDDDDvvvvvvNvvNvvvNvvvDDDDDDDDDDDDDDDDDDDDDDDDDDDDDDDDDDDDDDDDD>444444424444444442424444243444344444410gxvvvvvvvvDDDDDDDDD",
"DDDDDDDDDDDvvvNvvNvvvvvvvvvvDDDDDDDDDDDDDDDDDDDDDDDDDDDDDDDDDDDDDDDDD,334244444442424444444244443444444144444ahxvvvvvvvDDDDDDDDD",
"DDDDDDDDDD5vvvvvvvvvvvvvvvvvdDDDDDDDDDDDDDDDDDDDDDDDDDDDDDDDDDDDDDDD@<343444433442444444244424444444444443444ugxvvxvvvhDDDDDDDDD",
"DDDDDDDDDDyvvvvvvvvvvvvvvvvvgDDDDDDDDDDDDDDDDDDDDDDDDDDDDDDDDDDDDDDD$33444444344444442444444444444444344443346dxvvvxvvvdDDDDDDDD",
"DDDDDDDDDDdvvvvvvvvvvvhvvvvvvDDDDDDDDDDDDDDDDDDDDDDDDDDDDDDDDDDDDDDD-33444434441444444444424444441444444343346dhvghvvxvgDDDDDDDD",
"DDDDDDDDDDgvvvvvgvvvvhvvvhvvvDDDDDDDDDDDDDDDDDDDDDDDDDDDDDDDDDDDDDDD>44344434444442444242444442444441441433336dhvvxxvhvhDDDDDDDD",
"DDDDDDDDDDvvvvvvvvvhhvvhvvhvvgDDDDDDDDDDDDDDDDDDDDDDDDDDDDDDDDDDDDDD,34444143444442444244444444444444444434435afghvhvhvhDDDDDDDD",
"DDDDDDDDDDvvhvhhhhvvvhhvhvvhhvDDDDDDDDDDDDDDDDDDDDDDDDDDDDDDDDDDDDD#333344444414444444444424444244443444344445adgvhhvhhvDDDDDDDD",
"DDDDDDDDD5vhvhhvvhvhhhvhvhhvvhfDDDDDDDDDDDDDDDDDDDDDDDDDDDDDDDDDDDD,333343444444444444444444444444444414444445yghhvvhvhhDDDDDDDD",
"DDDDDDDDD6gvgvgvvhvgvvvghvhhvhvDDDDDDDDDDDDDDDDDDDDDDDDDDDDDDDDDDDD5<33344443444244442444244244441444444444446adhhghhhhhvDDDDDDD",
"DDDDDDDDD5vvhvgvgvghhhhvhhhvhhhfDDDDDDDDDDDDDDDDDDDDDDDDDDDDDDDDDDu5141444444144244442424444244444444444444445ydghhhhhhhdDDDDDDD",
"DDDDDDDDDyvghhvghhgvhhhhhhhhhhhhDDDDDDDDDDDDDDDDDDDDDDDDDDDDDDDDDus5444444444444444444444244444424444244444335adghhhhhhhgDDDDDDD",
"DDDDDDDDDggghhhhhhhhhhhhhhhhhhhhgDDDDDDDDDDDDDDDDDDDDDDDDDDDDDDDDha5544414444444442444244444444244444442444345qdhhhghghhdDDDDDDD",
"DDDDDDDDDdhhhhhhhhhhhhhhhhhhhhhhvvDDDDDDDDDDDDDDDDDDDDDDDDDDDDDDdha5454444444444444444444424444444424444444434qfgfhgghghgDDDDDDD",
"DDDDDDDDDghggghhghghhghgghhghhhhggfDDDDDDDDDDDDDDDDDDDDDDDDDDDDdhfd5,14444444444424444422444424444242444343345idffhggggggDDDDDDD",
"DDDDDDDDDdhgdvgghghgghhghghghfhfgghhDDDDDDDDDDDDDDDDDDDDDDDDDDDD4ydq,<4444341444444444444424444444444424444455afhhggggggdDDDDDDD",
"DDDDDDDDDdhhgdghghgghgghggghfhghgggfvgDDDDDDDDDDDDDDDDDDDDDDDDDDDD-41,4444444444444442442444444442442444433356affffhggggdDDDDDDD",
"DDDDDDDDDdgggvgggggggghffhgghfggggfhdggDDDDDDDDDDDDDDDDDDDDDDDDDDD o->441441444442444444444442444444444433333idfhhffgggdgDDDDDDD",
"DDDDDDDDDahfgggghffkhffhfkfhfhhfgggggggdgDDDDDDDDDDDDDDDDDDDDDDDDD  .+,33343443444444444442444444444424442465idffhdffffhdDDDDDDD",
"DDDDDDDDDdfhggdgfhfhfhfffffffffhggdgdgggdggDDDDDDDDDDDDDDDDDDDDDDDD   O:4443343444424442444444424442444444146sffhdffffffdDDDDDDD",
"DDDDDDDDD5gfdgfffffffhffffkfffffgdfgfggggdDDDDDDDDDDDDDDDDDDDDDDDDDD   O,43444432444444444442444444444444414qsffffffffgddDDDDDDD",
"DDDDDDDDD1ffgdfgffffffffffffffffffffffffgDDDDDDDDDDDDDDDDDDDDDDDDDDDD   @43344444444244444244444244444244<16addfffffffdgdDDDDDDD",
"DDDDDDDDD3gdfffffffffffffffffffffffdffff6DDDDDDDDDDDDDDDDDDDDDDDDDDDDD   =433444444241444444424244424444214isffffffdffdddDDDDDDD",
"DDDDDDDDD,dgffffffffffffffffffdfffffdff6DDDDDDDDDDDDDDDDDDDDDDDDDDDDDDD  .:53444424444444244444444444241,20addddfdfdddddDDDDDDDD",
"DDDDDDDDDDddfdddffffffffdfffdfdffffdgfdDDDDDDDDDDDDDDDDDDDDDDDDDDDDDDDDD  o>333344424444444444244244421<<0asddfdddfddfddDDDDDDDD",
"DDDDDDDDDDddfdddsffsddddffdffdffdddfdg6DDDDDDDDDDDDDDDDDDDDDDDDDDDDDDDDDD  @;343444444444424444444444,,<6asdddddddddddddDDDDDDDD",
"DDDDDDDDDDddddddfssffdddfddddddddddddd=DDDDDDDDDDDDDDDDDDDDDDDDDDDDDDDDDDD o&:,344144442414433344241,>16issdddddddddddddDDDDDDDD",
"DDDDDDDDDD5ddddddffssfsfsfsffssfdddddiDDDDDDDDDDDDDDDDDDDDDDDDDDDDDDDDDDDD .=::,11444244444433342<,>,16isssddsdsdydddyd6DDDDDDDD",
"DDDDDDDDDD<ddddddfsfsdfsfssdffssddddd3DDDDDDDDDDDDDDDDDDDDDDDDDDDDDDDDDDDDD @<:--*>1611144413411>-:,26iisssddddsddddddd3DDDDDDDD",
"DDDDDDDDDDDddddddsdsddfsdfsdsssfddaddDDDDDDDDDDDDDDDDDDDDDDDDDDDDDDDDDDDDDDD@53<>:*->-:::::::>:::,25iasssdssssssadadaddDDDDDDDDD",
"DDDDDDDDDDDpsdddfssssddssdsddsssddddyDDDDDDDDDDDDDDDDDDDDDDDDDDDDDDDDDDDDDDDo56641<>:;;;----::><45qisssssdssssssdyddddyDDDDDDDDD",
"DDDDDDDDDDD6dssssssdssssssssssssddyd5DDDDDDDDDDDDDDDDDDDDDDDDDDDDDDDDDDDDDDDD<ydiq541111<<<<114wqiisssssssssssssadaddy6DDDDDDDDD",
"DDDDDDDDDDD:ssssssssssssssssssssaddy3DDDDDDDDDDDDDDDDDDDDDDDDDDDDDDDDDDDDDDDD,ddaiiiiq6q6w66iwiasaasssssssssssaaaadadd,DDDDDDDDD",
"DDDDDDDDDDD+psssssssssssssssssssdyad3DDDDDDDDDDDDDDDDDDDDDDDDDDDDDDDDDDDDDDDD:dysaaaaaaaaaadaaiaaassasasssaasssaddyddyDDDDDDDDDD",
"DDDDDDDDDDDD6adyaadaadadadaassssdddyDDDDDDDDDDDDDDDDDDDDDDDDDDDDDDDDDDDDDDDDDDadyddaydayaaaaaaaaaadaaaadaaaaadaaydayd5DDDDDDDDDD",
"DDDDDDDDDDDD:dddadaaaaaaaaassppsaydaDDDDDDDDDDDDDDDDDDDDDDDDDDDDDDDDDDDDDDDDDDdydyyddyydaaaadaaaaaaaaaaaaaaaaaaadyydy<DDDDDDDDDD",
"DDDDDDDDDDDD+yydaaaaadaaaaaaasasydyd5DDDDDDDDDDDDDDDDDDDDDDDDDDDDDDDDDDDDDDDD,adydaadydaydaaaaaaaaaaaaaaaaaaaaaaydaaqDDDDDDDDDDD",
"DDDDDDDDDDDDD,ayaaaaaaaaaaaasaaadaay5DDDDDDDDDDDDDDDDDDDDDDDDDDDDDDDDDDDDDDDD,yaaydyydyaaaaaiaaayaiaaaayaaaaiaaadydy3DDDDDDDDDDD",
"DDDDDDDDDDDDD@yaaayaaaaaaaapaaapyaay0DDDDDDDDDDDDDDDDDDDDDDDDDDDDDDDDDDDDDDDD1aaaiaaaaydaayyyayaaaaiiaaaaaiaaaaayyayDDDDDDDDDDDD",
"DDDDDDDDDDDDD.1yaaaaaayaaaaaappayaaayDDDDDDDDDDDDDDDDDDDDDDDDDDDDDDDDDDDDDDDD6iaaaayyaayayaaaaaaaaiaaayaiaiayaqayay3DDDDDDDDDDDD",
"DDDDDDDDDDDDDD&yaaaayaiaiaaapapaadyayDDDDDDDDDDDDDDDDDDDDDDDDDDDDDDDDDDDDDDDDyayyaiaayaiiaayaiayayaiaiyaiaaiayaaaauDDDDDDDDDDDDD",
"DDDDDDDDDDDDDDX1iaiaayaiaiaippppyaayaDDDDDDDDDDDDDDDDDDDDDDDDDDDDDDDDDDDDDDDDayaiaaiaayaaiaaiaiaaayaayaiaayayaiyay5DDDDDDDDDDDDD",
"DDDDDDDDDDDDDDD#6aaayaaaaayaiaiayaiaiiDDDDDDDDDDDDDDDDDDDDDDDDDDDDDDDDDDDDDD4aaaaaiiiaiiaayiqaaiiaaiiiaiaaiaiaaayyDDDDDDDDDDDDDD",
"DDDDDDDDDDDDDDD <ayiyayaiyaaiiaaaiaiaaDDDDDDDDDDDDDDDDDDDDDDDDDDDDDDDDDDDDDDqyaqqaiayaaiyiqaaaiiiiiaaiiyqayyiqiyy<DDDDDDDDDDDDDD",
"DDDDDDDDDDDDDDDD+qqaaaaaiyyiayaqyiyaqiqDDDDDDDDDDDDDDDDDDDDDDDDDDDDDDDDDDDD5qaiyaqqaaiiyqaaiiiqaiaiyiaaqiiyyaiyy6DDDDDDDDDDDDDDD",
"DDDDDDDDDDDDDDDDD:yiqiqiiiaiiiiiaiiaiayDDDDDDDDDDDDDDDDDDDDDDDDDDDDDDDDDDDD6aiiyiaiiiiiqyiiiaiiyiiiiiyyyyyyyiiyy<DDDDDDDDDDDDDDD",
"DDDDDDDDDDDDDDDDDo1yyyyyyiiiyyyaqyyyyyyqDDDDDDDDDDDDDDDDDDDDDDDDDDDDDDDDDD5yyyuuiqiqyyyayyiyiiyyiiyyiyaqyyyyuru3DDDDDDDDDDDDDDDD",
"DDDDDDDDDDDDDDDDD +5ayyqiyyiyyaqyyuyyayiDDDDDDDDDDDDDDDDDDDDDDDDDDDDDDDDDDqyqyyyqaiiqayyyyiqyqqiiqayqyaqyyqauu5@DDDDDDDDDDDDDDDD",
"DDDDDDDDDDDDDDDDDD =qiyaqqyyaqyyqquuyqyyyDDDDDDDDDDDDDDDDDDDDDDDDDDDDDDDDqiyyayqaiiiiqyqyaqayyiaqyiqyqqyyqy6u6-DDDDDDDDDDDDDDDDD",
"DDDDDDDDDDDDDDDDDDD.>iyqaaquqiiqaaquyyqyy6DDDDDDDDDDDDDDDDDDDDDDDDDDDDDD6yy6qqqaqqqiqiqaqqiqqiqqqqqaqyiqy6yr6<DDDDDDDDDDDDDDDDDD",
"DDDDDDDDDDDDDDDDDDD o<6eyqyqyqiyiyqyqiyqi6yDDDDDDDDDDDDDDDDDDDDDDDDDDDDwqi6iiqy6iqy66iqyiqiq6iqyiqi6i6yiyi663DDDDDDDDDDDDDDDDDDD",
"DDDDDDDDDDDDDDDDDDDD @5e6iy6iqiqqyqiiqy6qiyqDDDDDDDDDDDDDDDDDDDDDDDDDD6yiqyq6iqi6yqiyqi66y6iyqiyqiqiqii66yy5&DDDDDDDDDDDDDDDDDDD",
"DDDDDDDDDDDDDDDDDDDDD &3yi6iqiqiyqy66i6yqiiqiDDDDDDDDDDDDDDDDDDDDDDDD6666yqyyqiqyqy6q66iy6yqq666iqq66i6yyq5=DDDDDDDDDDDDDDDDDDDD",
"DDDDDDDDDDDDDDDDDDDDDD &56yqiy666i6iiq6y6qy6y6qDDDDDDDDDDDDDDDDDDDD66yiqi6y6i66i6iq6iyyq6y66iyiq6iqi66y663&DDDDDDDDDDDDDDDDDDDDD",
"DDDDDDDDDDDDDDDDDDDDDDD =06y6yi6q6yqqy66y6q6y66y6DDDDDDDDDDDDDDDD56yy6ii6y6i6iq6q6qyqy6yy6y66y66e6e6i66e6=DDDDDDDDDDDDDDDDDDDDDD",
"DDDDDDDDDDDDDDDDDDDDDDD  :66q66iyq6i66yu6iy66y6iq6i6DDDDDDDDDD666y666y666q66q66i6yq66y6q6qy6qyiwee6i6i66:DDDDDDDDDDDDDDDDDDDDDDD",
"DDDDDDDDDDDDDDDDDDDDDDDD  =36y66q6q66y6qi666i66y6y6q666666q66y6y6qi666i6i6qi6i6q666666i6qq6q66i666y6565&DDDDDDDDDDDDDDDDDDDDDDDD",
"DDDDDDDDDDDDDDDDDDDDDDDDD  @36y66y6y66u6w6i6w666q6y6qy6qy66q66qqi6y665w6wq66qq66y66i66wy6666666ie66663&DDDDDDDDDDDDDDDDDDDDDDDDD",
"DDDDDDDDDDDDDDDDDDDDDDDDDD  @36666r6666y6q6qu66666y66q6y666u66qq666y6q666666q6iw666u666u6666666666663&DDDDDDDDDDDDDDDDDDDDDDDDDD",
"DDDDDDDDDDDDDDDDDDDDDDDDDDD  o,66666y666y6q66666666666666666666666666666w66666666666666666666q66666<oDDDDDDDDDDDDDDDDDDDDDDDDDDD",
"DDDDDDDDDDDDDDDDDDDDDDDDDDDD   :566666666666666666666666666666666666666666666666666666666666666665:DDDDDDDDDDDDDDDDDDDDDDDDDDDDD",
"DDDDDDDDDDDDDDDDDDDDDDDDDDDDDD  @1656666666666666666666666666666666666665666666666666656666666663@DDDDDDDDDDDDDDDDDDDDDDDDDDDDDD",
"DDDDDDDDDDDDDDDDDDDDDDDDDDDDDDD  o:5665666566566666666666666666666666666666666w5666666566566665:ODDDDDDDDDDDDDDDDDDDDDDDDDDDDDDD",
"DDDDDDDDDDDDDDDDDDDDDDDDDDDDDDDD  .@<56666566656666565656656655665656665655655655655566566555<@ DDDDDDDDDDDDDDDDDDDDDDDDDDDDDDDD",
"DDDDDDDDDDDDDDDDDDDDDDDDDDDDDDDDDD  X&35556556556566556656565656555665565665565w555655565553=.DDDDDDDDDDDDDDDDDDDDDDDDDDDDDDDDDD",
"DDDDDDDDDDDDDDDDDDDDDDDDDDDDDDDDDDD   O-35655655565555555555555555555556555555656556555551:O DDDDDDDDDDDDDDDDDDDDDDDDDDDDDDDDDDD",
"DDDDDDDDDDDDDDDDDDDDDDDDDDDDDDDDDDDDD   o-,55555555555555555555555655555555555545555553<-o DDDDDDDDDDDDDDDDDDDDDDDDDDDDDDDDDDDDD",
"DDDDDDDDDDDDDDDDDDDDDDDDDDDDDDDDDDDDDD    .@,3555555555554555555555555555555555555533,&.  DDDDDDDDDDDDDDDDDDDDDDDDDDDDDDDDDDDDDD",
"DDDDDDDDDDDDDDDDDDDDDDDDDDDDDDDDDDDDDDDDD   .o#,4555355555555355555555553555555555:&o.  DDDDDDDDDDDDDDDDDDDDDDDDDDDDDDDDDDDDDDDD",
"DDDDDDDDDDDDDDDDDDDDDDDDDDDDDDDDDDDDDDDDDDD    .O=:3355545554535545335355454431>=O.  DDDDDDDDDDDDDDDDDDDDDDDDDDDDDDDDDDDDDDDDDDD",
"DDDDDDDDDDDDDDDDDDDDDDDDDDDDDDDDDDDDDDDDDDDDDD     X@&:<333335334454545333<,=+X    DDDDDDDDDDDDDDDDDDDDDDDDDDDDDDDDDDDDDDDDDDDDD",
"DDDDDDDDDDDDDDDDDDDDDDDDDDDDDDDDDDDDDDDDDDDDDDDD       ..O++&::,>>:>-&++o.      DDDDDDDDDDDDDDDDDDDDDDDDDDDDDDDDDDDDDDDDDDDDDDDD",
"DDDDDDDDDDDDDDDDDDDDDDDDDDDDDDDDDDDDDDDDDDDDDDDDDDDD          .   .         DDDDDDDDDDDDDDDDDDDDDDDDDDDDDDDDDDDDDDDDDDDDDDDDDDDD",
"DDDDDDDDDDDDDDDDDDDDDDDDDDDDDDDDDDDDDDDDDDDDDDDDDDDDDDDDDDD          DDDDDDDDDDDDDDDDDDDDDDDDDDDDDDDDDDDDDDDDDDDDDDDDDDDDDDDDDDD",
"DDDDDDDDDDDDDDDDDDDDDDDDDDDDDDDDDDDDDDDDDDDDDDDDDDDDDDDDDDDDDDDDDDDDDDDDDDDDDDDDDDDDDDDDDDDDDDDDDDDDDDDDDDDDDDDDDDDDDDDDDDDDDDDD",
"DDDDDDDDDDDDDDDDDDDDDDDDDDDDDDDDDDDDDDDDDDDDDDDDDDDDDDDDDDDDDDDDDDDDDDDDDDDDDDDDDDDDDDDDDDDDDDDDDDDDDDDDDDDDDDDDDDDDDDDDDDDDDDDD",
"DDDDDDDDDDDDDDDDDDDDDDDDDDDDDDDDDDDDDDDDDDDDDDDDDDDDDDDDDDDDDDDDDDDDDDDDDDDDDDDDDDDDDDDDDDDDDDDDDDDDDDDDDDDDDDDDDDDDDDDDDDDDDDDD",
"DDDDDDDDDDDDDDDDDDDDDDDDDDDDDDDDDDDDDDDDDDDDDDDDDDDDDDDDDDDDDDDDDDDDDDDDDDDDDDDDDDDDDDDDDDDDDDDDDDDDDDDDDDDDDDDDDDDDDDDDDDDDDDDD",
"DDDDDDDDDDDDDDDDDDDDDDDDDDDDDDDDDDDDDDDDDDDDDDDDDDDDDDDDDDDDDDDDDDDDDDDDDDDDDDDDDDDDDDDDDDDDDDDDDDDDDDDDDDDDDDDDDDDDDDDDDDDDDDDD",
"DDDDDDDDDDDDDDDDDDDDDDDDDDDDDDDDDDDDDDDDDDDDDDDDDDDDDDDDDDDDDDDDDDDDDDDDDDDDDDDDDDDDDDDDDDDDDDDDDDDDDDDDDDDDDDDDDDDDDDDDDDDDDDDD",
"DDDDDDDDDDDDDDDDDDDDDDDDDDDDDDDDDDDDDDDDDDDDDDDDDDDDDDDDDDDDDDDDDDDDDDDDDDDDDDDDDDDDDDDDDDDDDDDDDDDDDDDDDDDDDDDDDDDDDDDDDDDDDDDD",
"DDDDDDDDDDDDDDDDDDDDDDDDDDDDDDDDDDDDDDDDDDDDDDDDDDDDDDDDDDDDDDDDDDDDDDDDDDDDDDDDDDDDDDDDDDDDDDDDDDDDDDDDDDDDDDDDDDDDDDDDDDDDDDDD"
};
