/* XPM */
static char *file_roller[] = {
/* columns rows colors chars-per-pixel */
"128 128 65 1 ",
"  c #1D501D501CE9",
". c #208620862086",
"X c gray14",
"o c #27F427F427F4",
"O c #2A902A902A90",
"+ c #2AF72AF72AF7",
"@ c #2C2C2C2C2C2C",
"# c #2D602D602D60",
"$ c gray18",
"% c #2F622F622F62",
"& c #31CB31CB30FD",
"* c #323232323232",
"= c #336633663366",
"- c #35013501349A",
"; c #356835683568",
": c #376A376A376A",
"> c gray22",
", c #39053905389E",
"< c #3A3A3A3A39D3",
"1 c #3B073B073B07",
"2 c #3C3C3C3C3C3C",
"3 c #3D093D093C3C",
"4 c #3E3E3E3E3E3E",
"5 c #3F723F723E3E",
"6 c #3FD93FD93FD9",
"7 c #410D410D410D",
"8 c gray26",
"9 c #43764376435F",
"0 c #4578457844AA",
"q c #457845784578",
"w c #46AC46AC4646",
"e c #47E147E1477A",
"r c #481F481F481F",
"t c #49E349E3497C",
"y c gray29",
"u c #4BE54BE54B7E",
"i c #4C4C4C4C4C4C",
"p c #4D194D194CB2",
"a c #4D194D194D19",
"s c #4DEB4DEB4DE9",
"d c #4F824F824F82",
"f c #50AB50AB50A1",
"g c #51845184511D",
"h c #5184518451EB",
"j c #535753575356",
"k c #5521552154BA",
"l c #552155215521",
"z c #565656565521",
"x c #565A565A5657",
"c c #578A578A578A",
"v c #5858585857F1",
"b c #598C598C598C",
"n c #5A575A575989",
"m c #5AC05AC05AC0",
"M c #5B8E5B8E5AC0",
"N c #5BF55BF55BF5",
"B c #5D905D905CC2",
"V c #5D905D905D90",
"C c #5F925F925EC4",
"Z c #602E602E602D",
"A c #619461946194",
"S c #61FB61FB61FB",
"D c #639663966396",
"F c #653165316531",
"G c None",
/* pixels */
"GGGGGGGGGGGGGGGGGGGGGGGGGGGGGGGGGGGGGGGGGGGGGGGGGGGGGGGGGGGGGGGGGGGGGGGGGGGGGGGGGGGGGGGGGGGGGGGGGGGGGGGGGGGGGGGGGGGGGGGGGGGGGGGG",
"GGGGGGGGGGGGGGGGGGGGGGGGGGGGGGGGGGGGGGGGGGGGGGGGGGGGGGGGGGGGGGGGGGGGGGGGGGGGGGGGGGGGGGGGGGGGGGGGGGGGGGGGGGGGGGGGGGGGGGGGGGGGGGGG",
"GGGGGGGGGGGGGGGGGGGGGGGGGGGGGGGGGGGGGGGGGGGGGGGGGGGGGGGGGGGGGGGGGGGGGGGGGGGGGGGGGGGGGGGGGGGGGGGGGGGGGGGGGGGGGGGGGGGGGGGGGGGGGGGG",
"GGGGGGGGGGGGGGGGGGGGGGGGGGGGGGGGGGGGGGGGGGGGGGGGGGGGGGGGGGGGGGGGGGGGGGGGGGGGGGGGGGGGGGGGGGGGGGGGGGGGGGGGGGGGGGGGGGGGGGGGGGGGGGGG",
"GGGGGGGGGGGGGGGGGGGGGGGGGGGGGGGGGGGGGGGGGGGGGGGGGGGGGGGGGGGGGGGGGGGGGGGGGGGGGGGGGGGGGGGGGGGGGGGGGGGGGGGGGGGGGGGGGGGGGGGGGGGGGGGG",
"GGGGGGGGGGGGGGGGGGGGGGGGGGGGGGGGGGGGGGGGGGGGGGGGGGGGGGGGGGGGGGGGGGGGGGGGGGGGGGGGGGGGGGGGGGGGGGGGGGGGGGGGGGGGGGGGGGGGGGGGGGGGGGGG",
"GGGGGGGGGGGGGGGGGGGGGGGGGGGGGGGGGGGGGGGGGGGGGGGGGGGGGGGGGGGGVVZZVVNVVVVVZGGGGGGGGGGGGGGGGGGGGGGGGGGGGGGGGGGGGGGGGGGGGGGGGGGGGGGG",
"GGGGGGGGGGGGGGGGGGGGGGGGGGGGGGGGGGGGGGGGGGGGGGGGGGGGGGGGGVVZZZNVVZZZZZZDZZZDZZVVVVVZVZGGGGGGGGGGGGGGGGGGGGGGGGGGGGGGGGGGGGGGGGGG",
"GGGGGGGGGGGGGGGGGGGGGGGGGGGGGGGGGGGGGGGGGGGGGGGGGGGGGGVVVZZVNVNVNVVVVVVVZZVVZVZZZDDDDDFFZGGGGFGGGGGGGGGGGGGGGGGGGGGGGGGGGGGGGGGG",
"GGGGGGGGGGGGGGGGGGGGGGGGGGGGGGGGGGGGGGGGGGGGGGGGGGGGNNZZVVVVVNVNVNVNVVVVVVVVVVVVVVZZDZZGGGGFFDDDGGGGGGGGGGGGGGGGGGGGGGGGGGGGGGGG",
"GGGGGGGGGGGGGGGGGGGGGGGGGGGGGGGGGGGGGGGGGGGGGGGGGmVZZVNNVNNVVVVNVVVVVVVVVVVVVVVVZDDZGGGGDFDDDZDDZDGGGGGGGGGGGGGGGGGGGGGGGGGGGGGG",
"GGGGGGGGGGGGGGGGGGGGGGGGGGGGGGGGGGGGGGGGGGGGGGbNZZVNNNNNNNVNNVVVVVVVVVVVVVVVVVZZZZGGGGDFFDZZZDZDDDDGGGGGGGGGGGGGGGGGGGGGGGGGGGGG",
"GGGGGGGGGGGGGGGGGGGGGGGGGGGGGGGGGGGGGGGGGGGNNZZVNmNNNNNVVNNVVNVVVVVVVVVVVVVVZZZmfGGZDDDDZZDZZZDZDZDDDGGGGGGGGGGGGGGGGGGGGGGGGGGG",
"GGGGGGGGGGGGGGGGGGGGGGGGGGGGGGGGGGGGGGGGNNZZVbbbmNNNNNNNNVVVVVVVVVVVVVZVVZZZNfrdmZDDDZDZDZZDZDZZZZZZFFDGGGGGGGGGGGGGGGGGGGGGGGGG",
"GGGGGGGGGGGGGGGGGGGGGGGGGGGGGGGGGGGGGNNNZNNcbNNbNNNNVNVVVVVVVVVVVVVVVVVZZVcurdmVDDDZZZZZDZZZDZZZDZDZDDDZDGGGGGGGGGGGGGGGGGGGGGGG",
"GGGGGGGGGGGGGGGGGGGGGGGGGGGGGGGGGGmmNZNNcmNNNbNVNNNNNNVNNVNVVVVVVVVVZZZmderfmZDZZZZZZDZDZZZDZZDDDZZDDZDDDDDGGGGGGGGGGGGGGGGGGGGG",
"GGGGGGGGGGGGGGGGGGGGGGGGGGGGGGGmbVZVNbbNbbbNNbNbNNVNNNVNVVVVVVVVVZZZVjr9rjZDDZZZZDZZZZZDZDDDZDZZZZDZDZDZZDFDGGGGGGGGGGGGGGGGGGGG",
"GGGGGGGGGGGGGGGGGGGGGGGGGGGGmmmZVNbbbbbbbNNbbNNNNNNNVVNVNVVVVVVVZVmf98rNDDZZZZZZZZDZDZDZZDZZZZDZDDZDZZDZDDDDDDGGGGGGGGGGGGGGGGGG",
"GGGGGGGGGGGGGGGGGGGGGGGGGGVmVVmmbbbbbbbbbNbNbNNNNNVNNVNVVVVVVZZZce88fVDZZZZZZDZZDDZDZZZZZZDZDDZDZZDZDZZDZZDZDDDDGGGGGGGGGGGGGGGG",
"GGGGGGGGGGGGGGGGGGGGGGGmmVZmmmmmbbNbbNbNbbNbNbNNNNNNVNVVVVVZZbh77ecZDDZZZZZZZZDZZZZZDDZDDZZDZZDZZDZZDZDZDDZDZDDDDDGGGGGGGGGGGGGG",
"GGGGGGGGGGGGGGGGGGGGmmVZmmmcmmmmbbbbbbNbNbNbNNNNVNVNVVVbZAZle77dNDDZZZZZZZZZZDZZZZZDZDZZZZDZZZDZDDZDDZDDZZDZDZDDFFFGGGGGGGGGGGGG",
"GGGGGGGGGGGGGGGGGmmVVmmcmmmmmmmcbbNbbbbbbNbNbNNNNNNVNNZZbd74ejAAZZZZZZZZDZZDZZDZDZDZZDZDDZZDDDZDZDDZZDDZDDDDDZDZDDFDFGGGGGGGGGGG",
"GGGGGGGGGGGGGGmmVVVmmmmmcmcmmcmcbNbNNbbNbNbNNbVNNNVVZZbr47iNZDZZZZZZZZZZZZZZZZZDZDDZDZZDDZZDZDDZZDZDZDZDZDZDDDDZDDZDFDDGGGGGGGGG",
"GGGGGGGGGGGmmVVmmmmmmmmmmmmmmmmmbbbbbbbNNbNbNNNNNVZNh777hZDAZZZZZZZZZZZZDZZZZDZDZZDZZZDZZDZDDZDZDDZDDDDDDZDDDZDDZDDZDDFDDGGGGGGG",
"GGGGGGGGmmmZmmcmmcmcmccmcmmcmmcmbbbbbbbbNbbNbNNZZcr77ebAAAZZZZZVZZZZZZZDZZDZZZDZDZZDZDZZDDDZDDZDZDDZDZDDDDZDZDZDDDDZZDDDFFGGGGGG",
"GGGGGcmVVmmmmmmmmmmmmmmmcmmcmmmmbNbNbNNbbNNNVZNh947dNAAZVZZZZVZZZZZZZDZZZZZZZDDZZDZZZDZDDZZDZDDDDDDDDDZDDZDDDDDDDZDDDZDDDFFDGGGG",
"GGVVmZmmmmmmmmmcmmcmmcmmmmcmmmcmbbNbbbbNNbVVcr74ecZAZVZZZVVZZZZZZZZZZZZZDZDZZZDZDZDZDZDZDZDDZDDDZDZDDZDDDDDZZDDZZDDDDDDZDDDDFFGG",
"ZZZZZVVmmmmmmmmmmcmmmmmmmmmmmmcmbbbbbNNbVNj977ibAAZZZZZVZZZZZZZZZZZZZDZZZZZDDZZDZDZDZDZDDDZDDDZDDDDDDDDDDDDDDDDDDDDDZDDZDZZDDFFF",
"ZZZVmmcmcccmmmVmmVVmmmmmmmmccmcmbbbbbVVbi749hZAZZVZVZAVZZZZZZZZZZZZZZZZZZZZZDZDZZDDZZDDDZDZDDDDZDDDDDZDDZDDDDDZDDDDDDDZDDDDZDDDD",
"VZZZVZmcccffdddddffcmmmmmmmmmmcmbbNNbhe47uNAAZAVVZVZVVZZVZZZZZZZZZZZZZDZZDDZZDZDZZZDZDZDDDDDDZDDDDDZDDDDDDDDDDDDDZDDDDDDZDDDDZVG",
"VZVmVVVZVmmmcffddrrrrrrdffcmVmmVVNbi947jVAZVZVVVVVAVZVVAZZZZVZZZZZZZDZZDZDZZDZZZDZDDDDDDZDZDDDDDZDDDDDDDDDDDDDDDDDDZDDDDFDVmcmVG",
"VZVVVVVVZVVVmmmmffddrr8888888qddjr77rcAAZVNZVVZZVAVVZZZVZZZZZZZVZZZZZDZZZDZDZDDZZDDZDZDZDDDDDDZDDDDDDDDDDDDDDDDDDDDDDDDZVVcccmVG",
"VZVVNVVVVVZZZZVVVmcjffurr988844242uZAZZNVVVVVVZVZVZNZZVZZZZZZZZZZZDZZZZZZDDAZDZDDDZDDDDDDDZDDDDDDDDDDDDDFDDDDDDDDDFFZZNcccccmcmG",
"GZmVVVVVVVVVZDZZZVmNmmcffdeeq97777eNFZVVVVVZZVVZVVZZVZZZZZZZZZZZZZZZADZDZZZDZDZZZZDDDZDZDDDDDDDDDDDDFDFDDDDFDDDDDDZZccccccccccmG",
"GZVmNVVNVVZVVVZZZDZZmVVmcfjdueeqe99qjDDZVVVVVVZVZZZZZZZZZZVZZZAZZZDZZDZADZZZDZZDDADZZDDDDZDDDDDDDDDDFDDFFDDDFFFDVmmcccccccccccNG",
"GZmVVNNVVVVVZZVZZZDZZZZVZNmcjjduuuee9uZDZVZVZZVZVZVNVZZVZZZZZZZZDZZZZZZDZDDZZDDDDDDZDDDDDDDDDDDDDDDDDDFDDFFDFDZmccccccjccccjccmG",
"GZmVmVNVVVVVVVVZZVVZZDDZZVZZmmccjduue79cDAVZNVZVVZZZZZVZZZZZZVZZZDZZZDZZAZDZDZDZZDZDZDDDDDDDDDDDDDFDFDDFDDFZmcfcccjccjccfcccccmG",
"GZmmmmmNmVmVVVVVVVVVZZZZDZZZZZZVNcjdue97uZDZVZVZZVVZZVZZZZZZZZZZZZDZZZZDDZZDADZDDDDDDDDDDDDDDFDFFFDFFFFFDVNjfccjjcccccjccccfccmG",
"GVmmmmmmVmmVmVVVVVVVVVVVZZDDZZZZZNcchuu979cDAVZVZZNZZZZZVZZZZZZZZZZAADZDDAZDDZZDDDZDDDDDDDDDDDFDDFFFDDDVcjcfccccccccccjccccccmmG",
"GZmmmmmVmVVmVVVVNVVVVVVVVVZZZDDZZZZNbjddue9dZDZZVZZZZVZZZZZZZZZZZZDZZDZZZDZZZDDZDZDDDZDDDDDDDFDDFFFZZccjfcjcfcccfcfcfcjccfccffmG",
"GNmmmmmmmmmVmNVNNVNNVVNVVNVNVVZZDAZZVbbjhir9rNDAZZVZZVZZZZZZZZAZAZZDZZADDZDDZDDDZDZDDDDDDDDDFDDDFVVcjjccfcfccfjjfccfcjfcfcccfccG",
"GmmmmmmmmmmVNNNVVNVVNVVVVVVVVVVVAZAAZVVNclhdurjADZZZZZZZZZZZZZZAZDZZZDZZZAZZZDZDDDDDDDDDDDDFFFDNNcjfjcfcjjjjfccjcfccfjcffcfcccfG",
"GmmmcmmcmmmmNNNVNVNVVNVNNVVNVVVNNNVAAAZZVNbljdrdNDZZZZZZZVZZZAZZZDZDADDZZDDDDDZDZDDDDDDDDFDFDNcjfcjjjjjjjcjjjcjjfcjjcfjcffmjfccG",
"GmmcmmmmmmmVNNNNNNNNNVNVVNNVNmNNNNNNNZAAAZNNbcjiucDAZZZVZZZZZZAAZZAZZZZDZDZZDADDDDADDDDDFDZcjjjjjjjjfcjjjjjjjjjjcfjjfcjfcffccccG",
"GmmmmcmmmmmmmNNNNNNNNNNNNNNVNNNNNNNNNNbNZZZZNNbcjijZFAZZZZZZZAAZZZDZDZZDADZDDDDDZDDDDDDDNjjjjjjjjjjjjjjjjjcfjjcffjjcfjfcccfcfcfG",
"GmmcmccmccmmmmmmmNmNNNNNNNNNNNNNNNNbNbNNbNZZAZNbbchhNDAZZZZZZZZZDZZAZDZZZDDZZZDDDDDDDZcjdjjjjjjjfjfcjjfcjjjjjjjjjjffcfcfffcccmfG",
"GmmmmmcmmmcmmmmmmmmNNNNNNNNmNNmmbNNNNNbNNbNbNZAZNbbchlADZAZZZZZZAZDZDZDADZDZDZDZDDDNcddjjjjjjjjjcjjfjjjfjfjfjfjfjfcfcffcfcfffccG",
"GcmmccmmcmmmmmmmmmmmmNmNmmNNmmmmNNNbbNNNbNbNbbbVZZVNcclVFAZVZAAAZDZZZDZAZDZDDDDDZNjddjjjdjdjjddjffjfjfjfjjjfjjjffcffffcfcfcfcmfG",
"GcmmccmccmcmcmcmmmmmmmmmmmmmmmmmNbbNbNbNbNbNbNbbbNNZVNclbADZZZZAZZAAZADDAAADDANldddjjjjjjjjjjjjjdjjjjjfjjfjjdjjfjcdfjjjjjjjjjcjG",
"GcmmcmccmmcmcmmcmccmmmmmmmmmmmmmbNbNNbbbNbbbbbbbbbcbNZVNccAFDZZZZDDZAAZZADDZNjddjjjddjjjddjddjjdjjffffjjdjffjjfjffdcjjjjjjjjjcjG",
"GcmccccccccmmmcmmcmmmmcmmmmmmmmmNbNbbbbNbbbbbbbbbbbbbcNNVNcNDFAZAZZZZDADDNlddhhjjddjjjjddjjdjddjffjffjjfjffjffjffffjjjfjjjfjjcjG",
"GcmccccmcmcccmmccmmcmcmmcmcmmmmmbbbbbbbbbbbbbbbbbbbbbbccbbNNNZDDZAZDDDZbjdddddhddjdddfdddjdddjdjffffffffffffjffffjfjffjjjfjfjcfG",
"GcmccccccccccmmmcccmccmmcmmmcmcmbbbbbbbbbbbbbbbbcbbbbcbbcccbbNZDDDADNcddddddjdjdddhjdddjjdddjdddfffffffffffffffdjfjfjffjjffjfcfG",
"GcmcccccccccccccmmccmcccmcccmmcmbbcbbbbbbbbbbbccbbcbcbcccbccllbNZDNjdidddjdjddddjddddjddjddddddjfffffdfdffdfffdjfjfjjfjffjfffcfG",
"GcmccccccccccmmcmcmccccmmmcmccmccbbbcbcbbcbccbbbccbcbcbcbccbcccccduiddddddddddddddjdhddddddjjddddfdddfdffdfdddffffjffffffffjfcfG",
"GfccccfcccccccccccccccmcccccmcccbcccbcbccbcbcccbcbccccbccccccclbcddddddddddddjdddddddddddddddddddddfdfddddfddfjffffffffjjffffcfG",
"GfmccccccccccccccmcccccccccccmccccbcccbccccccbccccccccccccccclcbcdddddddddddddddddddddddddddddddddddddddddddddfffffffffffffffcfG",
"GmmcfcccfcjcccccccccccccmcccccccccccccccbccbccccbccbcccccccccccbciddddidddddddididddddddidddidddddddudddddddfffdfdffdffdfdfdfjdG",
"GccfcffccccccccccccccccccccccccccccccccccccccccccccccccclccccclbcudddddddddddidddddiddiiddddddddddddudduddfddfdffdfdffffdfdfdcdG",
"GcmfcfcccfcccccccccccccccccccccclccccclccccccccccclcccccccclclcccudidididudidddididdiddddiiddiidddudddddddfdfdfddfdfddddfdfddjdG",
"GGcfcccfffcfmccjccccccccccccjccjcclcclcclclcclbllclblcclclcclccbcudiididididididdidididididididididiudidddddddddddddddddddddfjGG",
"GGmfffcfccfccccjcccjcccccjccccccclcllclcclcllclcclclclcllclccljccuiddidididididiididididididididididduiddddddddddddddddddddddjGG",
"GGccccfffcjcjfcccccccjccccccjjcjlclcclcllclcclcllclclclcclcllcjbcidiididididididdidididididididididididddddddddddddddddddddddjGG",
"GGcfffcccfcfcccccjcccccccccfccccclcllclcclcllclcclclclcllclccljbciiddidididididiidididididididididididddddddddddddddddddddddfjGG",
"GGmffffcfcfcccccjccccccccccccccccccccjjccccjjccccccjjccccjjcccfmcidiidididididididididididididididdidddddddddddddddddddddddddjGG",
"GGccccjcfccjjfcccccjccccccccjjcjjcjjcccccjccccjccjccccjccccccccccuiddididididididididididididididiiddddddddddddddddddddddddddjGG",
"GGcffcffcccfcccfcccccccccccccccccccccjjcjccccccjjccccccjcjjcjcfmcidiididididididididididididididididdddddddddddddddddddddddddjGG",
"GGccjfccfffccfcccjcjccjcccccccjccjcjccccjcjccjcjjcjccjcjccccjcccciiddidididididididididididididididddddddddddddddddddddddddddjGG",
"GGcfcfcfcffccccjccjcccccccccccjccccjcjcjcjccccjccjccccjcjcjccjfmcuididididididididididididididididdddddddddddddddddddddddddddfGG",
"GGccffcfccfcfjccccccccccccccccvccjcccjcccccjjccccccjjcccccjccjcvcudidididididididididididididididddddddddddddddddddddddddddddjGG",
"GGcffccffccccccjcccjcccccccccccccccjcccjcjccccjccjccccjcjcccccfmciidididididididididididididididdddddddddddddddddddddddddddddjGG",
"GGfccffccffcfcccjcccjccccccccccccjcccjcccccjjccccccjjcccccjccccccudididididididididididididididdddddddddddddddddddddddddddddffGG",
"GGcffcfjjcfcfcccccjcccccccccccccccjccccjccccjcjccjcjccccjccccjfmciidididididididididididududddddddddddddddddddddddddddddddddfdGG",
"GGfccffcjvccccfcjcccccccccccccccccccjcccjcjccccccccccjcjcccjcccccididididididididididididududdddddddddddddddddddddddddddddddfdGG",
"GGffcfcfcffcfcfcccccccccccccccccccccccjcjcjcjjcjjcjjcjcjcjccccfvcuidididididididididididduddddddddddddddddddddddddddddddddddfdGG",
"GGccfcfcjjvjccccccjcccjccccccccccccccjccccccccccccccccccccjjjccccudididididididididididiududddddddddddddddddddddddddddddddddjdGG",
"GGfcjcffcfcjjvcccccccccjcccccccccccccjcccjcjjccccjcjjcjcccjcccfmliidididididididididuddududdddddddddddddddddddddddddddddddddjdGG",
"GGfcjjfccffccfjjcvjccccccccccccccccccccccjccccjcccccccjcjcccjcccbudidididididididididdududddddddddddddddddddddddddddddddddddfdGG",
"GGfmjfccfcfcfcccjccjjccccccccccccccccccfcccjcccjjcjcjcccccjcccfmciidididididididididudduddddddddddddddddddddddddddddddddddddjdGG",
"GGfcccffcfccfccjcccccccccccccccccccccccvjccccjcjccccccjcjccccjcclididididididididididuudddddddddddddddddddddddddddddddddddddjdGG",
"GGcmjjjjjjcfvfccjccjcvcccvcccccccccccccccjcjcccccjccccccjjccjcfmbudididididididididididdddddddddddddddddddddddddddddddddddddjfGG",
"GGfcjjjcjvjvjcjjccccjccccjcccccccccccccccccccjcfcccjcjcjccjcccccciididididididididididdddddddddddddddddddddddddddddddddddfddjfGG",
"GGcmcjcfjjcffcvccjcvvcjcjccccccccccccccccccjcccccjccccccjccccjfmliiididididididididiiddddddddddddddddddddddddddddfddfdddddffjfGG",
"GGfmjcjjcjjcvjvfccjjccccvccccccccccccccccccccfcccjcjjcjccccjccccbuidididididididididdddddddddddddddddddddddddfddddddddfffdddcdGG",
"GGfVccjcjvcjcjccccccvjcjcccccccccccccccccccccccccccccccccjcjccfmbididididididididididdddddddddddddddddddffdddddfdffdfdfddfffcdGG",
"GGGmvcccvjcccjvjjcjcccvcjcccjccccccccccccccccjcfjcjcjjcjcccjjcccliidididididididididdddddddddddddddddddddddfjddddddffdfdfffffGGG",
"GGGrccccvcvcvjcvcccccjccvcccccccccccccccccccccccjcjcccccccjcccfmbidididididididididdddddddddddddddjdjddddjdfddddfdfdffdfffffqGGG",
"GGGGtcccvvvvvcccjcccvvccccjccccjccccccccccccccccccccjcjcjccccjcvciididididididididdddddddddddddfddddddddddddffffffffdffffffrGGGG",
"GGGGGqdcjvvvvvvcvvvvcccccccccccccvccccccccccccccccjjcccccccjjcjvliiididididididihdddddddddddfddddjdddddgfffffdfdffdfdfffdr4GGGGG",
"GGGGGGGqdvcvvvvvvvvvcvcvvcccjccccjccccjcfcccccccjcccjcjccjccccccbiidididididididdddddddddddfdfffddjddggdffdffffffdfffffr8GGGGGGG",
"GGGGGGGGGtfcvvmvvvvvvvvvcvvccvccccccccccccccccccccccccccjcccccfmbididididididiidddddddddfffdfddfddjdgdddffffdffffffffp8*GGGGGGGG",
"GGGGGGGGGG5qfcvmvmmvvvvvvvvcvccvcccjccccccccccccccjjcjcjjcjccjccliidididididididddddddfffdfffdffgddddddjffffffffffdp8*GGGGGGGGGG",
"GGGGGGGGGGGG4rjvmmvvvmvvvvvvvvvvccvccccccccccccccccccccccjccjcfmbidididididididddddddhdffdfdffffddgdgjddfffffffffd6=GGGGGGGGGGGG",
"GGGGGGGGGGGGGG6rjvmMMvMvmvvmvvvvccvvvccccccccjccccccjjcjcccjccvvciidididididihdddddhddfdffffffffgjddgddgfffffffd0;GGGGGGGGGGGGGG",
"GGGGGGGGGGGGGGGG6pjvmMmmmvvmcvvmvvvvccvcccccccccjccccccccjcccjfmliiididididihddhhhddhdddffffffffdgdjjdjdffffff0:GGGGGGGGGGGGGGGG",
"GGGGGGGGGGGGGGGGGG6pcvMMvmvmmmvvmvvmmvvcccccccccccccjcjccccjcccvbuidididididdhhddddhdjdjffffffffjdggddjdffffq,GGGGGGGGGGGGGGGGGG",
"GGGGGGGGGGGGGGGGGGGG8dvmMMmmmvMvmmvmvvvvvvvvvvvcvccccccjvcjjccfmvpsssssssdddffdjdddjffffffffffffdjggjdjdffr2GGGGGGGGGGGGGGGGGGGG",
"GGGGGGGGGGGGGGGGGGGGGG8dvmMMMmmMvmMvMvmmmvmvmvvvcvcvccccjcvcjccvvpssssssddddffddjjddffffffffffffgddgdjdjr,GGGGGGGGGGGGGGGGGGGGGG",
"GGGGGGGGGGGGGGGGGGGGGGGG0fmmMMMmmvmmmMvvmvvmvvmvvvcvvcjcjvjcjcfvzpssssdddddjfjjdddddfjfffffffffjdgggddp5OGGGGGGGGGGGGGGGGGGGGGGG",
"GGGGGGGGGGGGGGGGGGGGGGGGGGqjvMMMMMmmMvMMvMmvvmvmmcvvvvccccvvvcjmvpssdddddddjdddddjjdjdjfffcfffffjgggd4OGGGGGGGGGGGGGGGGGGGGGGGGG",
"GGGGGGGGGGGGGGGGGGGGGGGGGGG;tcvmMVMMMMmmMMMmmmMvmvmvvvmccccjvjcvcppddddddgggjdjjjdgdfjddfffffffffdp8+GGGGGGGGGGGGGGGGGGGGGGGGGGG",
"GGGGGGGGGGGGGGGGGGGGGGGGGGGGG:qcmmVMMMMMMMMMmvvmvmvmmvvvvvvcvccvcpdddddddgdgdjdddjdjfffjjffjffcfd8$GGGGGGGGGGGGGGGGGGGGGGGGGGGGG",
"GGGGGGGGGGGGGGGGGGGGGGGGGGGGGGG,rvmmVVMMMMMMMmMmMMvMvmmvmvvvvcvvvpdddddjdgjdddffggjddffjjfjfffd8*GGGGGGGGGGGGGGGGGGGGGGGGGGGGGGG",
"GGGGGGGGGGGGGGGGGGGGGGGGGGGGGGGGG5rvmVMVMMMMMMMmmMmMMvmmvvvvcvvvvdddddddjgdjjfjfggdjjjffffjfd0*GGGGGGGGGGGGGGGGGGGGGGGGGGGGGGGGG",
"GGGGGGGGGGGGGGGGGGGGGGGGGGGGGGGGGGG4dvmMAMVMVMMMMMMMMMMMmmmvvmvmvdddddjdffffjjjfjgjdgdjjfffq;GGGGGGGGGGGGGGGGGGGGGGGGGGGGGGGGGGG",
"GGGGGGGGGGGGGGGGGGGGGGGGGGGGGGGGGGGGG4dmMMAVVVMMMMMMMMMMmMmvvvvmvddddddjffjffffjjdjdjgjddr,GGGGGGGGGGGGGGGGGGGGGGGGGGGGGGGGGGGGG",
"GGGGGGGGGGGGGGGGGGGGGGGGGGGGGGGGGGGGGGG8dvMVAMmMMMMVMMMMMMmmMMMMvdddgdjdfjffjdffggjjjddt,GGGGGGGGGGGGGGGGGGGGGGGGGGGGGGGGGGGGGGG",
"GGGGGGGGGGGGGGGGGGGGGGGGGGGGGGGGGGGGGGGGG0jMMVAMAVMVMCMMMMMMvmmMvddddgjgfdcffjjfgjjddt5XGGGGGGGGGGGGGGGGGGGGGGGGGGGGGGGGGGGGGGGG",
"GGGGGGGGGGGGGGGGGGGGGGGGGGGGGGGGGGGGGGGGGG$qjmVAAMMMMACMMVMMMMvMvdddjdjdfjfjjfcfffdp6oGGGGGGGGGGGGGGGGGGGGGGGGGGGGGGGGGGGGGGGGGG",
"GGGGGGGGGGGGGGGGGGGGGGGGGGGGGGGGGGGGGGGGGGGG*rcmMAAMMMMCMVMMVMmAMdgjjjdjfdjffffffd4OGGGGGGGGGGGGGGGGGGGGGGGGGGGGGGGGGGGGGGGGGGGG",
"GGGGGGGGGGGGGGGGGGGGGGGGGGGGGGGGGGGGGGGGGGGGGG*rvMAAACMMAMMCVMMMvdggdjjjfcfjfcfd8OGGGGGGGGGGGGGGGGGGGGGGGGGGGGGGGGGGGGGGGGGGGGGG",
"GGGGGGGGGGGGGGGGGGGGGGGGGGGGGGGGGGGGGGGGGGGGGGGG=pvMACACAMAMVMMAvdggjjdjfjjffd8$GGGGGGGGGGGGGGGGGGGGGGGGGGGGGGGGGGGGGGGGGGGGGGGG",
"GGGGGGGGGGGGGGGGGGGGGGGGGGGGGGGGGGGGGGGGGGGGGGGGGG;dmMAAAMAMAVVAMddjdfjjjjff8*GGGGGGGGGGGGGGGGGGGGGGGGGGGGGGGGGGGGGGGGGGGGGGGGGG",
"GGGGGGGGGGGGGGGGGGGGGGGGGGGGGGGGGGGGGGGGGGGGGGGGGGGG,pvMCAACCAMZvdjjcfjfff0*GGGGGGGGGGGGGGGGGGGGGGGGGGGGGGGGGGGGGGGGGGGGGGGGGGGG",
"GGGGGGGGGGGGGGGGGGGGGGGGGGGGGGGGGGGGGGGGGGGGGGGGGGGGGG6dMMAAAMZZMgjdfjffq=GGGGGGGGGGGGGGGGGGGGGGGGGGGGGGGGGGGGGGGGGGGGGGGGGGGGGG",
"GGGGGGGGGGGGGGGGGGGGGGGGGGGGGGGGGGGGGGGGGGGGGGGGGGGGGGGG6dMCAAZZMdjjcfr; GGGGGGGGGGGGGGGGGGGGGGGGGGGGGGGGGGGGGGGGGGGGGGGGGGGGGGG",
"GGGGGGGGGGGGGGGGGGGGGGGGGGGGGGGGGGGGGGGGGGGGGGGGGGGGGGGGGG8jmVZZMdffr, GGGGGGGGGGGGGGGGGGGGGGGGGGGGGGGGGGGGGGGGGGGGGGGGGGGGGGGGG",
"GGGGGGGGGGGGGGGGGGGGGGGGGGGGGGGGGGGGGGGGGGGGGGGGGGGGGGGGGGGo8cVZMdd,XGGGGGGGGGGGGGGGGGGGGGGGGGGGGGGGGGGGGGGGGGGGGGGGGGGGGGGGGGGG",
"GGGGGGGGGGGGGGGGGGGGGGGGGGGGGGGGGGGGGGGGGGGGGGGGGGGGGGGGGGGGG$8mM5XGGGGGGGGGGGGGGGGGGGGGGGGGGGGGGGGGGGGGGGGGGGGGGGGGGGGGGGGGGGGG",
"GGGGGGGGGGGGGGGGGGGGGGGGGGGGGGGGGGGGGGGGGGGGGGGGGGGGGGGGGGGGGGG*=GGGGGGGGGGGGGGGGGGGGGGGGGGGGGGGGGGGGGGGGGGGGGGGGGGGGGGGGGGGGGGG",
"GGGGGGGGGGGGGGGGGGGGGGGGGGGGGGGGGGGGGGGGGGGGGGGGGGGGGGGGGGGGGGGGGGGGGGGGGGGGGGGGGGGGGGGGGGGGGGGGGGGGGGGGGGGGGGGGGGGGGGGGGGGGGGGG",
"GGGGGGGGGGGGGGGGGGGGGGGGGGGGGGGGGGGGGGGGGGGGGGGGGGGGGGGGGGGGGGGGGGGGGGGGGGGGGGGGGGGGGGGGGGGGGGGGGGGGGGGGGGGGGGGGGGGGGGGGGGGGGGGG",
"GGGGGGGGGGGGGGGGGGGGGGGGGGGGGGGGGGGGGGGGGGGGGGGGGGGGGGGGGGGGGGGGGGGGGGGGGGGGGGGGGGGGGGGGGGGGGGGGGGGGGGGGGGGGGGGGGGGGGGGGGGGGGGGG",
"GGGGGGGGGGGGGGGGGGGGGGGGGGGGGGGGGGGGGGGGGGGGGGGGGGGGGGGGGGGGGGGGGGGGGGGGGGGGGGGGGGGGGGGGGGGGGGGGGGGGGGGGGGGGGGGGGGGGGGGGGGGGGGGG",
"GGGGGGGGGGGGGGGGGGGGGGGGGGGGGGGGGGGGGGGGGGGGGGGGGGGGGGGGGGGGGGGGGGGGGGGGGGGGGGGGGGGGGGGGGGGGGGGGGGGGGGGGGGGGGGGGGGGGGGGGGGGGGGGG",
"GGGGGGGGGGGGGGGGGGGGGGGGGGGGGGGGGGGGGGGGGGGGGGGGGGGGGGGGGGGGGGGGGGGGGGGGGGGGGGGGGGGGGGGGGGGGGGGGGGGGGGGGGGGGGGGGGGGGGGGGGGGGGGGG",
"GGGGGGGGGGGGGGGGGGGGGGGGGGGGGGGGGGGGGGGGGGGGGGGGGGGGGGGGGGGGGGGGGGGGGGGGGGGGGGGGGGGGGGGGGGGGGGGGGGGGGGGGGGGGGGGGGGGGGGGGGGGGGGGG",
"GGGGGGGGGGGGGGGGGGGGGGGGGGGGGGGGGGGGGGGGGGGGGGGGGGGGGGGGGGGGGGGGGGGGGGGGGGGGGGGGGGGGGGGGGGGGGGGGGGGGGGGGGGGGGGGGGGGGGGGGGGGGGGGG"
};
