/* XPM */
static char *gbrainy[] = {
/* columns rows colors chars-per-pixel */
"128 128 74 1 ",
"  c black",
". c #040404040404",
"X c #07A107A107A1",
"o c #0B3E0B3E0B3E",
"O c #0E0E0E0E0E0E",
"+ c #11AB11AB11AB",
"@ c #147A147A147A",
"# c #161616E316E3",
"$ c #18E518E518E5",
"% c #1B4E1B4E1B4E",
"& c #1E841E841E84",
"* c #20201FB91FB9",
"= c #215421542154",
"- c #255825582558",
"; c #26262626268C",
": c #282828282828",
"> c #295C29C3295C",
", c #2B5E2B5E2B5E",
"< c #2C922CF92C92",
"1 c #2C922C922D60",
"2 c #2E942E942E94",
"3 c #30302FC93030",
"4 c #323232323232",
"5 c #329833663298",
"6 c #32FF32FF33CD",
"7 c #350135013501",
"8 c #366B36563664",
"9 c gray22",
"0 c #39D3396C396C",
"q c #396C39D3396C",
"w c #39D339D3396C",
"e c #396C396C39D3",
"r c #39D3396C39D3",
"t c #396C39D339D3",
"y c #3B073B073B07",
"u c #3D093CA23CA2",
"i c #3CA23D093CA2",
"p c #3D093D093CA2",
"a c #3CA23CA23D09",
"s c #3D093CA23D09",
"d c #3CA23D093D09",
"f c #3E3E3E3E3E3E",
"g c #4012400B400C",
"h c #41DB41DB41DB",
"j c #4330434F4331",
"k c #44AA44AA44AA",
"l c #46754684467B",
"z c #484848484848",
"x c #49E3497C497C",
"c c #49E349E3497C",
"v c #497C497C49E3",
"b c #497C49E349E3",
"n c #4B7E4B7E4B7E",
"m c #4D194CB24CB2",
"M c #4CB24D194CB2",
"N c #4D194D194C4C",
"B c #4CB24CB24D19",
"V c #4D194CB24D19",
"C c #4CB24D194D19",
"Z c #4EB44EB44EB4",
"A c #502550145025",
"S c #51EB51EB51EB",
"D c #533D5365535D",
"F c #552155215521",
"G c #568856885688",
"H c #585857F15858",
"J c #59F3598C598C",
"K c #598C59F3598C",
"L c #59F359F3598C",
"P c #598C598C59F3",
"I c #59F3598C59F3",
"U c #598C59F359F3",
"Y c #59F359F359F3",
"T c None",
/* pixels */
"TTTTTTTTTTTTTTTTTTTTTTTTTTTTTTTTTTTTTTTTTTTTTTTTTTTTTTTTTTTTTTTTTTTTTTTTTTTTTTTTTTTTTTTTTTTTTTTTTTTTTTTTTTTTTTTTTTTTTTTTTTTTTTTT",
"TTTTTTTTTTTTTTTTTTTTTTTTTTTTTTTTTTTTTTTTTTTTTTTTTTTTTTTTTTTTTTTTTTTTTTTTTTTTTTTTTTTTTTTTTTTTTTTTTTTTTTTTTTTTTTTTTTTTTTTTTTTTTTTT",
"TTTTTTTTTTTTTTTTTTTTTTTTTTTTTTTTTTTTTTTTTTTTTTTTTTTTTTTTTTTTTTTTTTTTTTTTTTTTTTTTTTTTTTTTTTTTTTTTTTTTTTTTTTTTTTTTTTTTTTTTTTTTTTTT",
"TTTTTTTTTTTTTTTTTTTTTTTTTTTTTTTTTTTTTTTTTTTTTTTTTTTTTTTTTTTTTTTTTTTTTTTTTTTTTTTTTTTTTTTTTTTTTTTTTTTTTTTTTTTTTTTTTTTTTTTTTTTTTTTT",
"TTTTTTTTTTTTTTTTTTTTTTTTTTTTTTTTTTTTTTTTTTTTTTTTTTTTTTTTTTTTTTTTTTTTTTTTTTTTTTTTTTTTTTTTTTTTTTTTTTTTTTTTTTTTTTTTTTTTTTTTTTTTTTTT",
"TTTTTTTTTTTTTTYYYYYYYYYYYYYYYYYYYYYYYYYYYYYYYYYYYYYYYYYYYYYYYYYYYYYYYYYYYYYYYYYYYYYYYYYYYYYYYYYYYYYYYYYYYYYYYYYYYYYTTTTTTTTTTTTT",
"TTTTTTTTTTTHYYYYYYYYYYYYYYYYYYYYYYYYYYYYYYYYYYYYYYYYYYYYYYYYYYYYYYYYYYYYYYYYYYYYYYYYYYYYYYYYYYYYYYYYYYYYYYYYYYYHYYYYYTTTTTTTTTTT",
"TTTTTTTTTTHYYHYHYYHYYYYHYYHYYYYYYHYYYYHYYYHYYYYHYYYYHYYYYYYHYYYHYHYYYYHYHYYYYHYYYYYHYYYYHYYYYHYYYYHYYYYHYHYYYHYYHYHYYHTTTTTTTTTT",
"TTTTTTTTTGHHHYHYHYYYYYYHHYYYYHYHYHYHYYYHHYYYHYYHHHYYHYHHHHYYYYHHHYYYHHHHYHYHYYYHHHYYYHYHHYYYYYHHHHYHHHYYYYHYHKHYYHHYHHHTTTTTTTTT",
"TTTTTTTTGGYHYHHYYYHHHHHKHHHYHYYHHHYHHHHYHHHHHHYHHYHHHHYHHYHHHHHYYHHHHYHHHHHYHHYHHHHHYHHYHHHHHHHHHYHHHHHHHHHHKHHHHYHHHHHHTTTTTTTT",
"TTTTTTTTHYHHHHHHHHHHHHHHHHYHYHHHHHHHHYHHHHYHYHHHHHHYHHHHHHHHHHHHHHHHHHHHHYHHHYHHHHHHHHHHHHHHHHHHHHHHHHHHHHHHHHHHHHHHHHHHHTTTTTTT",
"TTTTTTTSHHHHHHHHHHHKHHHHHHHHHYHHHHHHHHHHHHHHHHHHHHHHHHHHHYHHHHHHHHHYHHHHHHHHHHHHHHHHHHHHHHHHHHHHHYHHHHHHHHHHHHHHHHHHHHHHHTTTTTTT",
"TTTTTTTGHHHHHHHHHHHHHHHHGHHHHHHHHHHHHHHHHHHHHHHHHHHHHGHHHHHHGHHGHHHHHHHHHGGHHHHHHHHHHHHHHHHHHHHHHHGHHHHGHHGHHHGHHHHHHGHHGGTTTTTT",
"TTTTTTbHHHHHHHHHHHHHGHHGHHHGHHHHHHGHHGHHHHHHGHHGHHHHGHHHHHHHGHHHHHHHGHHGHHHHHHHHGHHGHGHGHHHHHGGHHHHHHGHHHHHFHGHHHHHHHHHGHHTTTTTT",
"TTTTTTkGHHHGGGHGGHGGGHHGGGGHGFHHGGGHGGGGGHGHHGGGHHGHHGGGHHGGGHGHHHGHGHHGGHHGHHGHHGGHGGGHHGHGGHGGHGGGGGHGHHHHGHGHFHHGHGGGGGTTTTTT",
"TTTTTTkGGGGGGGGGHHGGFHFGHGHHGHHFHGGGGGHGGGGHGGGGGHGGGGGHHGGHGGGGFFHGGGGGGGGGGGGGGGGGGGGHGHGGGGGGHHGHGGGGFHFHGGGGHHGGGGGGGFTTTTTT",
"TTTTTThFFHHFFHHFGHFHHFFHFGFHGFHFGGGGGDGGGGGGGGGGGGGGGGGGGGGGGGGGGGFFFHFFGGGGGGFGGGGGGGFGGGGGGGGGGGGGSGGGGGGGGGFGFGGGFFGGGSTTTTTT",
"TTTTTTiHFFFHHFFFGGHFFFHFHFFHFHHFGFGGGGGGGGGGGGGDGGGDGGGDGFGGFFGGHFHFHFFHGGDGFGGGFGFGGGFGGGGDGGGGGGGGGGFGGGGDGFGGGGGGGFGFGSTTTTTT",
"TTTTTTyHFFHFFFFFFHFFFHHFFFHFFFFFGGGFGGFGGGFGGDGGFGGGGDGGFFFGGGGFFFFFFFFFFFGFGGFGGGGFGGFGGDFFDDGGGSGDGGFFGSFGFFGGFFFFFGFFGSTTTTTT",
"TTTTTTgFHFFFFFFFFFFFFFFFFFFFFFHFFFFFFFFFFFFFGGSGFFGDGGFFGFFGSFFGHFFFFHFFGGDGFFFGFFFFFFFFFGFFGGGDGGFFFGFFGGFFGFSGGGFFFFFFFSTTTTTT",
"TTTTTTgFFFFFFFFFFFFFFFFFFFFFFFFFFFFFFGGGFFGFFFGGFGFFGGFFFFn9-9kkkkknFFSFGGFFGGGGFFFFFFFFGDGFFFFGGGGGFFFFDGGSFFFGFFFFFFFFGSTTTTTT",
"TTTTTTgFFFFFFFFFFFFFFFSFFFSFFFFFFFFFFGSGFFGGFFGSZnuihZFFFFGZq$X....X&&3ikSSFSSGSFFFFFFDFSFFFFFFDSSGSFFFFGDGGFFFSFFFFFFFFSSTTTTTT",
"TTTTTTiFFFFFFFFFFFFFFFFFFFFFFFFFFFSGSGSSSFGSnk9>@@ XX&8xSGSGSZu&       .X@>qkZGGSFFFFDFDGFFFSFSGGGGSGFSGSGSGSGFFSSFSSFAFGZTTTTTT",
"TTTTTTyFSFSFFSFFFFAFAFFFSFFFSSFFSFGSGSGGSb8,@O         @4bSSGSGnq+TTTT      X+4kZSSFDFDFSGSSGSGDSSGSSGSGSGSSFFSFFFFFFFGFGSTTTTTT",
"TTTTTTgFFFSFFSSFAFFAAFFFFDDFSFFSSSGSGSSi2@    TTTTTTT    @8kSGDGSzTTTTTTTT     X&8kZGSGSFSFSGSGSSDGSGGSDFSFGSFFSSGSGGSSSSZTTTTTT",
"TTTTTTqSSFFSSFFFFFFFFFSSDDFSFSSFGSSGZh>X  TTTTTTTTTTTTTTT  X8bSGSGbTTTTTTTTTTT    X-qbSFSFSFSSSGSFSSSSSSSFSSSSSGFSSSSGSGGZTTTTTT",
"TTTTTTgSFSFSFFASAFAFSFSFSSFFDSSFSGZh>X TTTTTTTTTTTTTTTTTTTTTT=bSSGSkTTTTTTTTTTTTT   X&uZSSSSGSSDSGSSGSFSGSSDSSSSSSGSFSSSSZTTTTTT",
"TTTTTTqFSSSFSSFSFSFAFAFASFSSSFSSSh-X TTTTTTTTTTTTTTTTTTTTTTTTT=bSSSZTTTTTTTTTTTTTTT   X$4bZGSFSDDSSGSSSGSFSDSFGSFSSSSSGSSZTTTTTT",
"TTTTTTqSFASSFSSSAFASSFAFSFSSSSSh-X TTTTTTTTTTTTTTTTTTTTTTTTTTTTqSSSSTTTTTTTTTTTTTTTTTT   @8ZSSSSSSSSSSSSSDSSSDSSSSSSSSSSSZTTTTTT",
"TTTTTTiSSSFAAAFSSSSSSSSSSSSSSSy$ TTTTTTTTTTTTTTTTTTTTTTTTTTTTTT=ZSSSTTTTTTTTTTTTTTTTTTTT   -uZSSSSSSSSSSSSSSSSSSSSSSSSSSSZTTTTTT",
"TTTTTTqSSSSSSSSSSSSSSSSSSSSSM5.TTTTTTTTTTTTTTTTTTTTTTTTTTTTTTTT=ZSSSTTTTTTTTTTTTTTTTTTTTTT  X-kASSSSSZSSSSSSSSSSSSSSSSSSSZTTTTTT",
"TTTTTTiSASSSSSSSSASSASSSSSSj-.TTTTTTTTTTTTTTTTTTTTTTTTTTTTTTTTT2SSSZTTTTTTTTTTTTTTTTTTTTTTTT  +8ASSSASSSASASASASASSASASZSZTTTTTT",
"TTTTTTqASSSSASASASSSSZSSASk&TTTTTTTTTTTTTTTTTTTTTTTTTTTTTTTTTTThSAZZTTTTTTTTTTTTTTTTTTTTTTTTT  X,kASASSASAASASSAASSZSAASAZTTTTTT",
"TTTTTTuAAAAASZAASAAASSAZAk&TTTTTTTTTTTTTTTTTTTTTTTTTTTTTTTTTTTTbASAzTTTTTTTTTTTTTTTTTTTTTTTTTTT  +9AAAASSASAAASAASSSZSSAZNTTTTTT",
"TTTTTTqAASASZSASAAZSZAAAk&TTTTTTTTTTTTTTTTTTTTTTTTTTTTTTTTTTTTkAAAZTTTTTTTTTTTTTTTTTTTTTTTTTTTTT  XqASAAAAAAAZAASZZZASSZAZTTTTTT",
"TTTTTTqAAAAAAAAAASAZSZAk&TTTTTTTTTTTTTTTTTTTTTTTTTTTTTTTTTTTTTZAAAkTTTTTTTTTTTTTTTTTTTTTTTTTTTTTTT OqbAAAAAAAASZZSZSZSZAAbTTTTTT",
"TTTTTTqZAAAAZAAAAZZSZZz&TTTTTTTTTTTTTTTTTTTTTTTTTTTTTTTTTTTTTbAAAZ<TTTTTTTTTTTTTTTTTTTTTTTTTTTTTTTT X>kAZZAAAAZZAZAAAZZAZZTTTTTT",
"TTTTTTqSZAZAAZAZSZAZZZ3TTTTTTTTTTTTTTTTTTTTTTTTTTTTTTTTTTTTTbZZZAkTTTTTTTTTTTTTTTTTTTTTTTTTTTTTTTTTT  -bZZZZZZZZAZZZZZAZAbTTTTTT",
"TTTTTTqZZAAZZAZZZZZZZiTTTTTTTTTTTTTTTTTTTTTTTTTTTTTTTTTTTTTTZZZZb>TTTTTTTTTTTTTTTTTTTTTTTTTTTTTTTTTTT  >bSZZZZZZZZZZZAZZZbTTTTTT",
"TTTTTTqZZZZZZZZZZZZZh&TTTTTTTTTTTTTTTTTTTTTTTTTTTTTTTTTTTTTZZZZn2TTTTTTTTTTTTTTTTTTTTTTTTTTTTTTTTTTTTT XqZZZZZZZZZZZZZZZZZTTTTTT",
"TTTTTT8ZZZZZZZZZZZZb>TTTTTTTTTTTTTTTTTTTTTTTTTTTTTTTTTTTTnnZZZZuTTTTTTTTTTTTTTTTTTTTTTTTTTTTTTTTTTTTTTT oqZZZZZZZZZZZZZZZbTTTTTT",
"TTTTTTqZZZZZnZnZZZZiTTTTTTTTTTTTTTTTTTTTTTTTTTTTTTTTTTTTnnZZZb9TTTTTTTTTTTTTTTTTTTTTTTTTTTTTTTTTTTTTTTTT %kZnZZZZnZZZnZZZbTTTTTT",
"TTTTTTqZZZZNZZZZZnb&TTTTTTTTTTTTTTTTTTTTTTTTTTTTTTTTTTbZZZZZk4TTTTTTTTTTTTTTTTTTTTTTTTTTTTTTTTTTTTTTTTTTT >ZZZZZnZnZZZnZZbTTTTTT",
"TTTTTT8ZbAnZnNZnZnqTTTTTTTTTTTTTTTTTTTTTTTTTTTTTTTTTTnZbbZnq&TTTTTTTTTTTTTTTTTTTTTTTTTTTTTTTTTnZZbTTTTTTTT+hnZnnZnZnZnZZNbTTTTTT",
"TTTTTTqZbZbZZZZnZn-TTTTTTTTTTTTTTTTTTTTTTTTTTTTTTTTTbbZZZx2TTTTTTTTTTTTTTTTTTTTTTTbnZnNTTTTTTnnZZZZTTTTTTT 4ZbnZnnnZnnZnnbTTTTTT",
"TTTTTT8nZNZNnnZnnhTTTTTTTTTTTTTTTTTTTTTTTTTTTTTTTTTTnZbnb>TTTTTTTTTTTTTTTTTTTTTTnnZZnZZnnTTbZbZbZbnZTTTTTTT2bZZbnZZnZnnnnbTTTTTT",
"TTTTTT9bZbbZZnnnb4TTTTTTTTTTTTTTTTTTTTTTTTTTTTTTTTTznZnb,TTTTTTTTTTTTTTTTTTnnTTTnnnZnnnnbnnnnnZbknnnbbTTTT&hnZnZZnnnbZZnnbTTTTTT",
"TTTTTT9ZZbZbbnZnbTTTTTTTTTTTTTTTTTTTTTTTTTTTTTTTTTTbnnn8TTTTTTTTTTTTTTTTTTnnnnnnnnnhiknnZnnbZnb4TqknZbbhihbnnnnnnnnnZnbnnbTTTTTT",
"TTTTTTqbnnnnnnnnuTTTTTTTTTTTTTTTTTTTTTTTTTTTTTTTTTTbnnb=TTTTTTTTTTTTTTTTTbnnnnnnnnuTTT8bbnnnZk3TTTTinnnnnnnbnkhnnnnnnnnnnlTTTTTT",
"TTTTTT8nnnnnnnnn8TTTTTTTTTTTTTTTTTTTTTTTTTTTTTTTTTTknnnTTTTTTTTTTTTTTTTTTbbnnnnnnb0TTTT>ukzbi=TTTTT>knnnnnnZk&-nnnnnnnnnnxTTTTTT",
"TTTTTT8nnnnnnnnzTTTTTTTTTTTTTTTTTTTTTTTTTTTTTTTTTTTknnbTTTTTTTTTTTTTTTTTbnnnnknbbnk3TTTTT@@@TTTTTTTT>hnnnbbi= +hnnnnbnbnxxTTTTTT",
"TTTTTT8nbnxnbnbzTTTTTTTTTTTTTTTTTTTTTTTTTTTTTTTTTTTkbbbqTTTTTTTTTbbbbnbbbnbz3=ibnbnbu=TTTTTTTTTTTTTTTT,222>@  .9bbnbnbnnxkTTTTTT",
"TTTTTT8bbnbnbnNiTTTTTTTTTTTTTTTTTTTTTTTTTTTTTTTTTTTknbbkTTTTTTxbnbbnbbnbbZk2. @4bbnbnki,TTTTTTTTTTTTTTTTTTTTTT 2bbnxxxxbnbTTTTTT",
"TTTTTT8bbbbbbbbqTTTTTTTTTTTTTTTTTTTTTTTTTTTTTTTTTTTqbbbxTTTTTzxbbbbbbbbbki-XT  X4kbbbbbzhqTTTTTTTTTTTTTTTTTTTTT>zxxxxnxxbkTTTTTT",
"TTTTTT8bxxxzbbn3TTTTTTTTTTTTTTTTTTTTTTTTTTTTTTTTTTT;zbbxkTTTbbxzbbbzkk98-@TTTTTTX=8kbbbxbzkTTTTTTTTTTTTTTTTTTTT@kxxxxxxxbkTTTTTT",
"TTTTTT8bxbzznbkTTTTTTTTTTTTTTTTTTTTTTTTTTTTTTTTTTTT&uzxzbTTkbzbbxh8*TTTTTTTTTTTTTTT$8hbbbbbkTTTTTTTTTTTTTTTTTTT+hxxzxxlbbkTTTTTT",
"TTTTTT8kbbzbzbkTTTTTTTTTTTTTTTTTTTTTTTTTTTTTTTTTTqkkzbzbzzzbzbzh4@TTTTTTTTTTTTTTTTTTTT8kbzbzbTTTTTTTTTTTTTTTTTTT9zzbbzzzbkTTTTTT",
"TTTTTT8bbzzzzzbuTTTTTTTTTTTTTTTTTTTTTTTTTTTTTTTTTbbbzbzzzzzzbzq@TTTTTTTTTTTTTTTTTTTTTTT>izzzkbTTTTTTTTTTTTTTTTTT4zzbzzzzxkTTTTTT",
"TTTTTT4bzzzzzzzkTTTTTTTTTTTTTTTTTTTTTTTTTTTTTTTThzxzzzzbzzzzi2OTTTTTTTTTTTTTTTTTTTTTTTTT;kbzbbkTTTTTTTTTTTTTTTTT-kzkzzzzkkTTTTTT",
"TTTTTT8kzzzzzzzkTTTTTTTTTTTTTTTTTTTTTTTTTTTTTTTTkzzk428khk9>TTTTTTTTTTTTTTTTTTTTTTTTTTTTT3kzbkbTTTTTTTTTTTTTTTTT%kzzbkzzbkTTTTTT",
"TTTTTT8bkbkbzkbzhTTTTTTTTTTTTTTTTTTTTTTTTTTTTTThzzk>   OOOTTTTTTTTTTTTTTTTTTTTTTTTTTTTTTTOqbzkbTTTTTTTTTTTTTTTTT%kzzkbbzbkTTTTTT",
"TTTTTT4bbkzzzzkzkTTTTTTTTTTTTTTTTTTTTTTTTTTTThkzzkiXT TTTTTTTTTTTTTTTTTTTTTTTTTTTTTTTTTTTT&kzzkkTTTTTTTTTTTTTTTT$kzkkbkzkkTTTTTT",
"TTTTTT4kkzkbkzkzbkTTTTTTTTTTTTTTTTTTTTTTTTTTkkbkkk3TTTTTTTTTTTTTTTTTTTTTTTTTTTTTTTTTTTTTTTTqbkkbTTTTTTTTTTTTTTTTTqkkxkkbxhTTTTTT",
"TTTTTT8kzkzkkzzkkkTTTTTTTTTTTTTTTTTTTTTTTTTkkbkbk8TTTTTTTTTTTTTTTTTTTTTTTTTTTTTTTTTTTTTTTTT,kkbkTTTTTTTTTTTTTTTTTuzkkbkkkhTTTTTT",
"TTTTTT7lkzkzkzkxkbkTTTTTTTTTTTTTTTTTTTTTTjklkbkj8TTTTTTTTTTTTTTTTTTTTTTTTTTTTTTTTTTTTTTTTTT-kbkzTTTTTTTTTTTTTTTTTqkkkkzkkkTTTTTT",
"TTTTTT4jzkkkzkkklkkkTTTTTTTTTTTTTTTTTTTTTkllkk8*TTTTTTTTTTTTTTTTTTTTTTTTTTTTTTTTTTTTTTTTTTT>kkkkhTTTTTTTTTTTTTTTTqkkkbkkkkTTTTTT",
"TTTTTT7jkkzkkkkkkkkkTTTTTTTTTTTTTTTTTTTTkklki,TTTTTTTTTTTTTTTTTTTTTTTTTTTTTTTTTTTTTTTTTTTTT-kkkkhTTTTTTTTTTTTTTTTukbkkkkkhTTTTTT",
"TTTTTT7kkkkkkkkklkkkkTTTTTTTTTTTTTTTTTTjkkkq@TTTTTTTTTTTTTTTTTTTTTTTTTTTTTTTTTTTTTTTTTTTTTT>kkkkiTTTTTTTTTTTTTTTTqkkkkkkkkTTTTTT",
"TTTTTT7kkkkkkkkkkkkkkkkTTTTTTTTTTTTTTThkkkh=TTTTTTTTTTTTTTTTTTTTTTTTTTTTTTTTTTTTTTTTTTTTTTT>hkkkiTTTTTTTTTTTTTTTTqkkkkkkkhTTTTTT",
"TTTTTT2kkkkkkkkkkkkkkjkjjTTTTTTTTTTTTykkkh>TTTTTTTTTTTTTTTTTTTTTTTTTTTTTTTTTTTTTTTTTTTTTTTT8kkkk8TTTTTTTTTTTTTTTTqkkkkhkkhTTTTTT",
"TTTTTT3kkkkkkkjkkkkkkkkkkkkTTTTTTTTTTjjkj4TTTTTTTTTTTTTTTTTTTTTTTTTTTTTTTTTTTTTTTTTTTTTTTTTqkkhhTTTTTTTTTTTTTTTTTikhhkkkkiTTTTTT",
"TTTTTT3kjjkkhkkkjjkjjkjjjjkjkjjjkhhkjjkj8TTTTTTTTTTTTTTTTTTTTTTTTTTTTTTTTTTTTTTTTTTTTTTTTTThkkhkihhkhkhkjjkhkhh84hhkkhkhkhTTTTTT",
"TTTTTT4jjkhkhkkhjjjjjjjjjjjjjjjjjkhkjjji%TTTTTTTTTTTTTTTTTTTTTTTTTTTTTTTTTTTTTTTTTTTTTTTTT4hkhjjkjhhkkhkkkkhjjjhhkkhhkjjhhTTTTTT",
"TTTTTT3jjjkhhkjhjjjjjjjjjjjjjjjjkhkhhkh2TTTTTTTTTTTTTTTTTTTTTTTTTTTTTTTTTTTTTTTTTTTTTTTTTTikhjjhkjhkhkhhhhhhhhjjhhhkjjhjkiTTTTTT",
"TTTTTT3jjhjjhjhkjhjjjjjjjjjjjjhhhhjjhj8TTTTTTTTTTTTTTTTTTTTTTTTTTTTTTTTTTTTTTTTTTTTTTTTTT4hjjhiuq822222222228hhhkhkhjhjhhhTTTTTT",
"TTTTTT3jjhhjhjhhhjhhhhjhjfjhjhhjhjhhhhqTTTTTTTTTTTTTTTTTTTTTTTTTTTTTTTTTTTTTTTTTTTTTTTTTTihjki=XTTTTTTTTTTTT8hhhhhhhhhhkhiTTTTTT",
"TTTTTT2jhhhhjhhhhhhhhhhjhhhhjgjjhhhhhhiTTTTTTTTTTTTTTTTTTTTTTTTTTTTTTTTTTTTTTTTTTTTTTTTTihhhh: TTTTTTTTTTTT>hhhhhhhhhhhhkiTTTTTT",
"TTTTTT2jhhhhhhhhhhhhhhhhhhhhgjgghhhhhhjTTTTTTTTTTTTTTTTTTTTTTTTTTTTTTTTTTTTTTTTTTTTTTTTikhhh8XTTTTTTTTTTTTT3hhhhhhhhhhhhhiTTTTTT",
"TTTTTT2hhhhhhhhhhhjhjjhhjhjjjhjjhhhhhhhiTTTTTTTTTTTTTTTTTTTTTTTTTTTTTTTTTTTTTTTTTTTTTihhhhh8@TTTTTTTTTTTTTT4hhghhghhihhhhiTTTTTT",
"TTTTTT2hhghgjfhjfhjfgfjfjfgfhhfjhhhhfhhgTTTTTTTTTTTTTTTTTTTTTTTTTTTTTTTTTTTTTTTTTTTghhhhii2+TTTTTTTTTTTTTTT2hghhghhghhghhfTTTTTT",
"TTTTTT2hhfhhhhhhjgfhhffjfhhfjfhjihhhhfhfgTTTTTTTTTTTTTTTTTTTTTTTTTTTTTTTTTTTTTTTfjhfhhffq*TTTTTTTTTTTTTTTTT=ffjfhhhgghfhhuTTTTTT",
"TTTTTT2hhiihihhifjjfjfjghfjfgfffhfhihfghhfTTTTTTTTTTTTTTTTTTTTTTTTTTTTTTTTTTTfgihfghgf8>+TTTTTTTTTTTTTTTTTT#fhfhihhihfhfjuTTTTTT",
"TTTTTT2hhijghiihfgfjfjffhffgfjijhihifhfhfhfTTTTTTTTTTTTTTTTTTTTTTTTTTTTTTTTihgijfhfy8=TTTTTTTTTTTTTTTTTTTTT#yfjfkiijfhhfiuTTTTTT",
"TTTTTT2fihfhihihfjffgfjffjffjfffgjihhfgfhffhfTTTTTTTTTTTTTTTTTTTTTTTTTTiffggfhgfyq2TTTTTTTTTTTTTTTTTTTTTTTT#yjijihgihffhffTTTTTT",
"TTTTTT2fggigghgifjfgfjgfffjffffjigghigfhhiihffffTTTTTTTTTTTTTTTTTTTTighiffhgiy8>TTTTTTTTTTTTTTTTTTTTTTTTTTT=ufffffijiggfiiTTTTTT",
"TTTTTT2figghgiggijffffffjfffffhfigijgigffgggfhffffffTTTTTTTTTTTfgigugihiffiq>TTTTTTTTTTTTTTTTTTTTTTTTTTTTTT7ffffffgigifffyTTTTTT",
"TTTTTT2iffgigiigffffffffffffffffffffgfffffgigifhffffffffffffffffiguggiiiffu$TTTTTTTTTTTTTTTTTTTTTTTTTTTTTTTqfffffffgiguffuTTTTTT",
"TTTTTT2iffigiguiffffffffffffffffffffifffffigigiiffffffffffffffffigigigigffi=TTTTTTTTTTTTTTTTTTTTTTTTTTTTTTTiffffffffgiffiyTTTTTT",
"TTTTTT,fffffuffffsfffyfiffyffuffffffffiffffffffffaffffffffffsffsguiiiq8iiff2TTTTTTTTTTTTTTTTTTTTTTTTTTTTTTqffyffffifffsffuTTTTTT",
"TTTTTT,fffuffufufiuffffififfsfuufyffuiffufiuyffyffyffyfayfyfffsfi92*$XX4uiiuTTTTTTTTTTTTTTTTTTTTTTTTTTTTT7ifffuffyfffyffiyTTTTTT",
"TTTTTT2fuuiiufyffffyayfffyyffyffuyfyfffiuuifuufyfffyfyfffsssyffsu> T   $yiifqTTTTTTTTTTTTTTTTTTTTTTTTTTT8yfayfyfyfyfyffsiyTTTTTT",
"TTTTTT,fuffufyfiyfufifiiyfffafyfffuufyyfufuuufyfyfyfyfaafafyfysui8@TTT X3iuuqqTTTTTTTTTTTTTTTTTTTTTTTTTTyuysfyfyfyfyfyyfuyTTTTTT",
"TTTTTT,yfffyyfyyyfyfyffyyfyfyfyuyfyuyfyfyffyusyfyfyyyffyyfyffyfuqi>TTTTT>yiuiu9TTTTTTTTTTTTTTTTTTTTTTTTqfuyfyuafyuuyuyusyqTTTTTT",
"TTTTTT,fyyyfyiyffyiyfyyffyyyfyfyyufyfysyfyyfyuyyfyyffyyfyyyyyyyiuuqTTTTTO7yyiyyuTTTTTTTTTTTTTTTTTTTTTqiuyyiyyuyyyfyyyiuyyqTTTTTT",
"TTTTTT<yyyyyyyyyyayuyyfyyfyyfyyyfyyyfyyiyyyyfyfyfyyfyyyyfyfyyuyyuyy3TTTTT>qyyiyiyyTTTTTTTTTTTTTTTTTyyqquyfyfsyyuyffyiyyiiqTTTTTT",
"TTTTTT,iyyuyyfyyayyyyyyyyyyyyyyyyyyyyyyyyyyyyyyyyyyyyyyyyyyyyyyyqyyyTTTTTo2yyyyyyyyyyTTTTTTTTTTTyyyyyuiqyyyyyyyyyyyyyyyyy9TTTTTT",
"TTTTTT,yyyyyyyuyyyyyyyyyyyyyyyyyqyyyyyyyyyyyyyyyyyyyyyyyyyyyyyyyyqyy8TTTTTX-3qqqyyyyy9yyq9qqiqiqyyyyyyyyyyyyyyyyyyyyyyyyy9TTTTTT",
"TTTTTT,yyyyyyy9yyyyyyyyyyyyyyyyyquyyyqyyyyuqyyyyyyyyryyyyyqyyyyyquqy8TTTTTTTX$2qyy9yyyyyuuquqqqiyyquyqqy9yyyy9yuy9qyyy9yy9TTTTTT",
"TTTTTT>iqyyyyyyyy99yyyyyyyyyyyyyuqiqyyqqqyyyyyu9yy9yyu9yyyyyqyyyuquqyq4TTTTTTTT>9y9uyq9yqqqqiqqqquqqy9u9qyyyyu9ryyu9yy9yy9TTTTTT",
"TTTTTT>yyy9yqq9uyyyy9yqyqy9y9yy8qqqiqyu9uyq99y9y9yyy99yyyy8yy8yyqqqqyqq4TTTTTTTX,yyy9yyyuqq9uq0iqqqqyyqqyy9yy9yq9r9yy9yy99TTTTTT",
"TTTTTT>yy9yy9y9y9yyy9yy99y9uy9yyqqqqqqqw9yu9y99yyrqqyy9yyy9yy9yyqqq9uq9qqTTTTTTT%9y9u9y99yy9qqqquqy99y9yy9y9y9qyryy9y9y988TTTTTT",
"TTTTTT>qy9q9yyqy999yy99yy9yq9y99qqqqq99w999r9yy99y9y99y99yy99y8q9u9q9qu9q9TTTTTT >9yq99yq99y0qqq9y9yy9y99y9y9y99r99y9y9yyqTTTTTT",
"TTTTTT>9u9qy99q9yy899y9q99qq9ry9q9qqqq0wy9y9999u99u99999999yy98yu9u9q9q9qqqTTTTTT*999q99999y09w999y99y99y99yy89y99999999q8TTTTTT",
"TTTTTT>q99999q8y999y99y9999y9999q9990q9999999y9999999y99y99999y9999999q9q8qTTTTTTX,99y9u99999999999999q99999y9999r9u9y9y98TTTTTT",
"TTTTTT>q99q9999999999999999999999999999999999999y999999999r98y89999999999998TTTTTT+899999999999999999999999999999999999998TTTTTT",
"TTTTTT>89999999999999999999999999999999999999999999999999999q899999999999999TTTTTTX>99999999999999999999999989999999999988TTTTTT",
"TTTTTT:9999999q8999999999999999999999999999999999999999999998y8y999999999899TTTTTTT#899999799999999998999999998q98989889q8TTTTTT",
"TTTTTT:89999q88q999999899999999990799999990799999999989999998q889999889999898TTTTT@-89999999997999999q88889998q89999899988TTTTTT",
"TTTTTT:88988q888998999999998989899777008870870899898898888888q889898989898988TTT238888889997077988989888988898888999988888TTTTTT",
"TTTTTT:8888888888888797879788988779988787087977988888888888888888888888888889478888888887979907798888888888888888896888988TTTTTT",
"TTTTTT>8888898888888978879888888898897888897797988888888888888888888888888888869888888887797797988888888888888888988888884TTTTTT",
"TTTTTT:8888888888787878887888888888888888888797788878788888888888787887886888888888688887977777978778888878888888696886886TTTTTT",
"TTTTTT=8887878788787888888887788779797878977777997797997888878777788888887878887878879787777797779977777878796676977777773TTTTTT",
"TTTTTT+477788877788786868888788677777777777777777777767777777777787767778777778777777777789777777776577777778967866877799>TTTTTT",
"TTTTTTT:77777777777776777776777777777777777777957777777777777777777777777777777777777777777777777777977777777777778777777TTTTTTT",
"TTTTTTT@3747778877777777777477777777777777777779777777477777777777773777777777777777777777777777777777777777777777777777>TTTTTTT",
"TTTTTTTT$48868667777777777847884737777867737773557739377773736874866847777777777973796777747777777377747777773677757779>TTTTTTTT",
"TTTTTTTT %3484844777744848644476777777647777377777775777774777477486687873773777575733777377373777537577747377777447773%TTTTTTTT",
"TTTTTTTTT %2484874744676747747777377747437775737477335777777777846648676377777373577674777577773477573777777748473744;OTTTTTTTTT",
"TTTTTTTTTT O=247447473444444444473374477735377737537737337334438447444444437335373373777355373374377733434433747373:%.TTTTTTTTTT",
"TTTTTTTTTTT  O$$$$$$$$$$$$$$$$$$$$$$$$$$$$$$$$$$$$$$$$$$$$$$$$$$$$$$$$$$$$$$$$$$$$$$$$$$$$$$$$$$$$$$$$$$$$$$$$$$$%+XTTTTTTTTTTTT",
"TTTTTTTTTTTT                                                                                                      TTTTTTTTTTTTTT",
"TTTTTTTTTTTTTTTTTTTTTTTTTTTTTTTTTTTTTTTTTTTTTTTTTTTTTTTTTTTTTTTTTTTTTTTTTTTTTTTTTTTTTTTTTTTTTTTTTTTTTTTTTTTTTTTTTTTTTTTTTTTTTTTT",
"TTTTTTTTTTTTTTTTTTTTTTTTTTTTTTTTTTTTTTTTTTTTTTTTTTTTTTTTTTTTTTTTTTTTTTTTTTTTTTTTTTTTTTTTTTTTTTTTTTTTTTTTTTTTTTTTTTTTTTTTTTTTTTTT",
"TTTTTTTTTTTTTTTTTTTTTTTTTTTTTTTTTTTTTTTTTTTTTTTTTTTTTTTTTTTTTTTTTTTTTTTTTTTTTTTTTTTTTTTTTTTTTTTTTTTTTTTTTTTTTTTTTTTTTTTTTTTTTTTT",
"TTTTTTTTTTTTTTTTTTTTTTTTTTTTTTTTTTTTTTTTTTTTTTTTTTTTTTTTTTTTTTTTTTTTTTTTTTTTTTTTTTTTTTTTTTTTTTTTTTTTTTTTTTTTTTTTTTTTTTTTTTTTTTTT",
"TTTTTTTTTTTTTTTTTTTTTTTTTTTTTTTTTTTTTTTTTTTTTTTTTTTTTTTTTTTTTTTTTTTTTTTTTTTTTTTTTTTTTTTTTTTTTTTTTTTTTTTTTTTTTTTTTTTTTTTTTTTTTTTT",
"TTTTTTTTTTTTTTTTTTTTTTTTTTTTTTTTTTTTTTTTTTTTTTTTTTTTTTTTTTTTTTTTTTTTTTTTTTTTTTTTTTTTTTTTTTTTTTTTTTTTTTTTTTTTTTTTTTTTTTTTTTTTTTTT"
};
