/* XPM */
static char *gcolor2[] = {
/* columns rows colors chars-per-pixel */
"128 128 59 1 ",
"  c black",
". c #053805380538",
"X c #07A107A107A1",
"o c #0AD70AD70AD7",
"O c #0DA70E0E0E0E",
"+ c #114411441144",
"@ c #12DF13AD12DF",
"# c #14E114E114E1",
"$ c #17B117B117B1",
"% c #1A1A194C194C",
"& c #1B4E1B4E1B4E",
"* c #1E1E1E1E1E1E",
"= c #222222222222",
"- c #248A248A248A",
"; c #282827C127C1",
": c #29C329C3295C",
"> c #2B5E2B5E2B5E",
", c #2C922C922CF9",
"< c gray18",
"1 c #31CB31CB31CB",
"2 c #336633663298",
"3 c #32FF32FF3366",
"4 c #32FF33CD32FF",
"5 c #350135013501",
"6 c #365F3671366D",
"7 c gray22",
"8 c #39D3396C396C",
"9 c #396C39D3396C",
"0 c #3A3A3A3A396C",
"q c #396C396C39D3",
"w c #396C39D339D3",
"e c #3B073B073B07",
"r c #3D093D093CA2",
"t c #3CA23CA23D09",
"y c #3D093CA23D09",
"u c #3E3E3E3E3E3E",
"i c #3FF1401E4015",
"p c #41DB41DB41DB",
"a c #4364430F4321",
"s c #44AA44AA44AA",
"d c #465146844682",
"f c #484848484848",
"g c #49E3497C497C",
"h c #497C49E3497C",
"j c #497C497C49E3",
"k c #49E3497C49E3",
"l c #497C49E349E3",
"z c #4B7E4B7E4B7E",
"x c #4CB24D194CB2",
"c c #4CB24CB24D19",
"v c #4CB24D194D19",
"b c #4E4E4E4E4E4E",
"n c #500D502C5011",
"m c #51EB51EB51EB",
"M c #5348535D535B",
"N c #552155215521",
"B c #56BC56BC5656",
"V c #578A578A578A",
"C c None",
/* pixels */
"CCCCCCCCCCCCCCCCCCCCCCCCCCCCCCCCCCCCCCCCCCCCCCCCCCCCCCCCCCCCCCCCCCCCCCCCCCCCCCCCCCCCCCCCCCCCCCCCCCCCCCCCCCCCCCCCCCCCCCCCCCCCCCCC",
"CCCCCCCCCCCCCCCCCCCCCCCCCCCCCCCCCCCCCCCCCCCCCCCCCCCCCCCCCCCCCCCCCCCCCCCCCCCCCCCCCCCCCCCCCCCCCCCCCCCCCCCCCCCCCCCCCCCCCCCCCCCCCCCC",
"CCCCCCCCCCCCCCCCCCCCCCCCCCCCCCCCCCCCCCCCCCCCCCCCCCCCCCCCCCCCCCCCCCCCCCCCCCCCCCCCCCCCCCCCCCCCCCCCCCCCCCCCCCCCCCCCCCCCCCCCCCCCCCCC",
"CCCCCCCCCCCCCCCCCCCCCCCCCCCCCCCCCCCCCCCCCCCCCCCCCCCCCCCCCCCCCCCCCCCCCCCCCCCCCCCCCCCCCCCCCCCCCCCCCCCCCCCCCCCCCCCCCCCCCCCCCCCCCCCC",
"CCCCCCCCCCCCCCCCCCCCCCCCCCCCCCCCCCCCCCCCCCCCCCCCCCCCCCCCCCCCCCCCCCCCCCCCCCCCCCCCCCCCCCCCCCCCCCCCCCCCCCCCCCCCCCCCCCCCCCCCCCCCCCCC",
"CCCCCCCCCCCCCCCCCCCCCCCCCCCCCCCCCCCCCCCCCCCCCCCCCCCCCCCCCCCCCCCVVVCCCCCCCCCCCCCCCCCCCCCCCCCCCCCCCCCCCCCCCCCCCCCCCCCCCCCCCCCCCCCC",
"CCCCCCCCCCCCCCCCCCCCCCCCCCCCCCCCCCCCCCCCCCCCCCCCCCCCCCCCCCCCCVVVVVVVCCCCCCCCCCCCCCCCCCCCCCCCCCCCCCCCCCCCCCCCCCCCCCCCCCCCCCCCCCCC",
"CCCCCCCCCCCCCCCCCCCCCCCCCCCCCCCCCCCCCCCCCCCCCCCCCCCCCCCCCCVVVVVVVVVVVVVCCCCCCCCCCCCCCCCCCCCCCCCCCCCCCCCCCCCCCCCCCCCCCCCCCCCCCCCC",
"CCCCCCCCCCCCCCCCCCCCCCCCCCCCCCCCCCCCCCCCCCCCCCCCCCCCCCCCVVVVVVVVVVVVVVVVVCCCCCCCCCCCCCCCCCCCCCCCCCCCCCCCCCCCCCCCCCCCCCCCCCCCCCCC",
"CCCCCCCCCCCCCCCCCCCCCCCCCCCCCCCCCCCCCCCCCCCCCCCCCCCCCCVVVVVVVVVVVVVVVVVVVVVCCCCCCCCCCCCCCCCCCCCCCCCCCCCCCCCCCCCCCCCCCCCCCCCCCCCC",
"CCCCCCCCCCCCCCCCCCCCCCCCCCCCCCCCCCCCCCCCCCCCCCCCCCCVVVVVVVVVVVVVVVVVVVVVVVVVVVCCCCCCCCCCCCCCCCCCCCCCCCCCCCCCCCCCCCCCCCCCCCCCCCCC",
"CCCCCCCCCCCCCCCCCCCCCCCCCCCCCCCCCCCCCCCCCCCCCCCCCVNVVVVVVVVVVVVNVVVVVVVVVVVVVVVVCCCCCCCCCCCCCCCCCCCCCCCCCCCCCCCCCCCCCCCCCCCCCCCC",
"CCCCCCCCCCCCCCCCCCCCCCCCCCCCCCCCCCCCCCCCCCCCCCCVVVVVVVVBVVNVVVVNmmNVNVVVVVVVVVVVVVCCCCCCCCCCCCCCCCCCCCCCCCCCCCCCCCCCCCCCCCCCCCCC",
"CCCCCCCCCCCCCCCCCCCCCCCCCCCCCCCCCCCCCCCCCCCCMVVVNVVMVVVVVVNNNmp-O:7bVVVVVVVVVVVVNVVVNCCCCCCCCCCCCCCCCCCCCCCCCCCCCCCCCCCCCCCCCCCC",
"CCCCCCCCCCCCCCCCCCCCCCCCCCCCCCCCCCCCCCCCCCNVVNVNVVVVVBBBVNVb4$o    $5fNNVVVVVVVVVVVNVVVCCCCCCCCCCCCCCCCCCCCCCCCCCCCCCCCCCCCCCCCC",
"CCCCCCCCCCCCCCCCCCCCCCCCCCCCCCCCCCCCCCCCNVNVVNVVVNNVBBBBMf4$         +-sNNVVVVVVNNVVVNVNNCCCCCCCCCCCCCCCCCCCCCCCCCCCCCCCCCCCCCCC",
"CCCCCCCCCCCCCCCCCCCCCCCCCCCCCCCCCCCCCNNVNNVNNVNVVNNNNNbp=o  CCCCCCC    o-pbNNNNNNNVNVVNNNVNCCCCCCCCCCCCCCCCCCCCCCCCCCCCCCCCCCCCC",
"CCCCCCCCCCCCCCCCCCCCCCCCCCCCCCCCCCCNNNNNVNNVNNNNVNNmb5#o CCCCCCCCCCCCC   o$3bNNNVNNNNNVNNNNNNNCCCCCCCCCCCCCCCCCCCCCCCCCCCCCCCCCC",
"CCCCCCCCCCCCCCCCCCCCCCCCCCCCCCCCCNNNNNNNNNNNNNNNNmp3$  CCCCCCCCCCCCCCCCC    #<pmNNNNNNNNNNNNNNNNCCCCCCCCCCCCCCCCCCCCCCCCCCCCCCCC",
"CCCCCCCCCCCCCCCCCCCCCCCCCCCCCCmNNNNNNNNNNNNNNNNmp-o  CCCCCCCCCCCCCCCCCCCCC    o-amNNNNNNNNNNNNNNNNCCCCCCCCCCCCCCCCCCCCCCCCCCCCCC",
"CCCCCCCCCCCCCCCCCCCCCCCCCCCCmNNNNNNNmNNNNMNNMf5$X CCCCCCCCCCCCCCCCCCCCCCCCCCC   o-7fNNNNNNNNNNNNNNMNmCCCCCCCCCCCCCCCCCCCCCCCCCCC",
"CCCCCCCCCCCCCCCCCCCCCCCCCCmNNNNNNNmNNNNNNMma3$  CCCCCCCCCCCCCCCCCCCCCCCCCCCCCCC    $5fmMNNmNNMNNNNMNNNmCCCCCCCCCCCCCCCCCCCCCCCCC",
"CCCCCCCCCCCCCCCCCCCCCCCmNmNNMNmNNNNNmNNmbp-o  CCCCCCCCCCCCCCCCCCCCCCCCCCCCCCCCCCC    O-immMNmNNNNNMNNmMNmCCCCCCCCCCCCCCCCCCCCCCC",
"CCCCCCCCCCCCCCCCCCCCCmmNMNmNmmNmmNmmNmf7$o CCCCCCCCCCCCCCCCCCCCCCCCCCCCCCCCCCCCCCCCC   o-izmNmmNmmNmMNmNNNmNCCCCCCCCCCCCCCCCCCCC",
"CCCCCCCCCCCCCCCCCCCmNmmNmNNMmMNmmMMmp3$  CCCCCCCCCCCCCCCCCCCCCCCCCCCCCCCCCCCCCCCCCCCCC   o#5smNmMmMmNNmNNmNNmmCCCCCCCCCCCCCCCCCC",
"CCCCCCCCCCCCCCCCmmmNmMMmmmmmNmNmmbp-o  CCCCCCCCCCCCCCCCCCCCCCCCCCCCCCCCCCCCCCCCCCCCCCCCC    #<ummNMmmmmmmmmmNmmmCCCCCCCCCCCCCCCC",
"CCCCCCCCCCCCCCmmmMMmmNmmMNmNNmmf7*o CCCCCCCCCCCCCCCCCCCCCCCCCCCCCCCCCCCCCCCCCCCCCCCCCCCCCC    o-unmmmMmMMmmmmMmMmmCCCCCCCCCCCCCC",
"CCCCCCCCCCCCCMmmmmmmmmmmmmmmma3#  CCCCCCCCCCCCCCCCCCCCCCCCCCCCCCCCCCCCCCCCCCCCCCCCCCCCCCCCCCC   o=5fmmmmmmmmmmmmmmmmCCCCCCCCCCCC",
"CCCCCCCCCCCCCmmmmmmmmmmmmmbu-o  CCCCCCCCCCCCCCCCCCCCCCCCCCCCCCCCCCCCCCCCCCCCCCCCCCCCCCCCCCCCCCC    #5snmmmmmmmmmmmmmmCCCCCCCCCCC",
"CCCCCCCCCCCCsmmmmmmmmmmmf5*o CCCCCCCCCCCCCCCCCCCCCCCCCCCCCCCCCCCCCCCCCCCCCCCCCCCCCCCCCCCCCCCCCCCC    o-ummmmmbmmmmmmmCCCCCCCCCCC",
"CCCCCCCCCCCCpnmnnmmmmnmm7. CCCCCCCCCCCCCCCCCCCCCCCCCCCCCCCCCCCCCCCCCCCCCCCCCCCCCCCCCCCCCCCCCCCCCCCCC   o-smmmmmmmmmmbCCCCCCCCCCC",
"CCCCCCCCCCCC7mnmnmmmnmnmb7$CCCCCCCCCCCCCCCCCCCCCCCCCCCCCCCCCCCCCCCCCCCCCCCCCCCCCCCCCCCCCCCCCCCCCCCCCCC .>snnnmnnnnmmmCCCCCCCCCCC",
"CCCCCCCCCCCC7nmnmmmbmmmbnms5CCCCCCCCCCCCCCCCCCCCCCCCCCCCCCCCCCCCCCCCCCCCCCCCCCCCCCCCCCCCCCCCCCCCCCCCCC$7fMmmnmmbmbmnbCCCCCCCCCCC",
"CCCCCCCCCCCC7mbmbmbmmbmbnmmbsCCCCCCCCCCCCCCCCCCCCCCCCCCCCCCCCCCCCCCCCCCCCCCCCCCCCCCCCCCCCCCCCCCCCCCCC7fmnnmbmbmbbmnnbCCCCCCCCCCC",
"CCCCCCCCCCCC5nnnnbbmbmbmbnmbmbCCCCCCCCCCCCCCCCCCCCCCCCCCCCCCCCCCCCCCCCCCCCCCCCCCCCCCCCCCCCCCCCCCCCCCsbnnnnnnbnbmbnnnbCCCCCCCCCCC",
"CCCCCCCCCCCC5bbnnbmbbnbnmbmbbbmbCCCCCCCCCCCCCCCCCCCCCCCCCCCCCCCCCCCCCCCCCCCCCCCCCCCCCCCCCCCCCCCCCCfbmnbnnbbnmbnbnnnbbCCCCCCCCCCC",
"CCCCCCCCCCCC5bnbbbbupbnbbbbmbbbnmbCCCCCCCCCCCCCCCCCCCCCCCCCCCCCCCCCCCCCCCCCCCCCCCCCCCCCCCCCCCCCCCbbbbnbnbnbbbbbnbbbbbCCCCCCCCCCC",
"CCCCCCCCCCCC3bbbbbb<+3fmbbbbbbbbbbbCCCCCCCCCCCCCCCCCCCCCCCCCCCCCCCCCCCCCCCCCCCCCCCCCCCCCCCCCCCCzbbbbbbbbmbbbiubbbbbbfCCCCCCCCCCC",
"CCCCCCCCCCCC3bnbbbm< .-7bbbbbbbbbbbfbCCCCCCCCCCCCCCCCCCCCCCCCCCCCCCCCCCCCCCCCCCCCCCCCCCCCCCCCCzbbbbbbbbbmbs<+<bbbbbbfCCCCCCCCCCC",
"CCCCCCCCCCCC3bbbbbb<   o<sbbbbbbbbbbbbCCCCCCCCCCCCCCCCCCCCCCCCCCCCCCCCCCCCCCCCCCCCCCCCCCCCCCzbbbbbbbbbbbfu$  <zbbbbbuCCCCCCCCCCC",
"CCCCCCCCCCCC5bbbbbb3C    *ufbbbbbbbbbbbzCCCCCCCCCCCCCCCCCCCCCCCCCCCCCCCCCCCCCCCCCCCCCCCCCCfzbbbbbzbbbbfs3.   <bbbmbb7CCCCCCCCCCC",
"CCCCCCCCCCCC3bbzzbz7CCCC  .:pbzbzbzbzbbbmfCCCCCCCCCCCCCCCCCCCCCCCCCCCCCCCCCCCCCCCCCCCCCCCzbbzbzbbbbzbf5+ CCC <bbbfbbuCCCCCCCCCCC",
"CCCCCCCCCCCC3bfbzbbsCCCCC   #3fbbzbzbzbzbbfCCCCCCCCCCCCCCCCCCCCCCCCCCCCCCCCCCCCCCCCCCCCfzbzbbbfbbnzbp-.CCCCCC3fbzbbfuCCCCCCCCCCC",
"CCCCCCCCCCCC-fbbbzbfCCCCCCC  .=pzbbzzbzbfbmfbCCCCCCCCCCCCCCCCCCCCCCCCCCCCCCCCCCCCCCCCCfnbzbbzbnzzfp<# CCCCCCC5bbbzbbuCCCCCCCCCCC",
"CCCCCCCCCCCCCsbbbbbzCCCCCCCCC  @>abzbzzzzbfbbzCCCCCCCCCCCCCCCCCCCCCCCCCCCCCCCCCCCCCCffbbfbbzfbzbze* CCCCCCCCCsbbfbfbuCCCCCCCCCCC",
"CCCCCCCCCCCCCszzfbffCCCCCCCCCC   *ezzzzbzzbbfbzzCCCCCCCCCCCCCCCCCCCCCCCCCCCCCCCCCCffbbbfbbfbbzzp:oCCCCCCCCCCCffbzbzzCCCCCCCCCCCC",
"CCCCCCCCCCCCCszzbzbfCCCCCCCCCCCC  X>pzzzzbbffbzbbCCCCCCCCCCCCCCCCCCCCCCCCCCCCCCCCffbzbfnbfbzff5+ CCCCCCCCCCCCsfzzbzfCCCCCCCCCCCC",
"CCCCCCCCCCCCCszzfbffCCCCCCCCCCCCC   +5fzzzzzbfbffbzCCCCCCCCCCCCCCCCCCCCCCCCCCCCfbbbzzfbffbfzu-.CCCCCCCCCCCCCCfbzzzzfCCCCCCCCCCCC",
"CCCCCCCCCCCCCszfbzzfCCCCCCCCCCCCCCC  .=pfzzbfbbzzzbffCCCCCCCCCCCCCCCCCCCCCCCCCfbzzzzzfzzzzp>+CCCCCCCCCCCCCCCCsfzzzzfCCCCCCCCCCCC",
"CCCCCCCCCCCCCszzfzbfCCCCCCCCCCCCCCCCC  +<pzffffzzffbbfCCCCCCCCCCCCCCCCCCCCCCfbzfbffzfbbff7* CCCCCCCCCCCCCCCCCsbzfzbsCCCCCCCCCCCC",
"CCCCCCCCCCCCCsfzfbffCCCCCCCCCCCCCCCCCC   *7fzbfzfzzzfzffCCCCCCCCCCCCCCCCCCfzfbfzzzfbzffp-oCCCCCCCCCCCCCCCCCCCsfbfffsCCCCCCCCCCCC",
"CCCCCCCCCCCCCsfzfzffCCCCCCCCCCCCCCCCCCCC  o<pffzfzffzzfzfCCCCCCCCCCCCCCCCfffffzfzfffff5+ CCCCCCCCCCCCCCCCCCC:fzfbzffCCCCCCCCCCCC",
"CCCCCCCCCCCCCsfzzfffCCCCCCCCCCCCCCCCCCCCC   $5sffffzfffbfzfCCCCCCCCCCCCffffzfffbffzf7*.CCCCCCCCCCCCCCCCCCCCC4ffzfffaCCCCCCCCCCCC",
"CCCCCCCCCCCCCszfffffCCCCCCCCCCCCCCCCCCCCCCC  .=ufzfffzfffffzfCCCCCCCCCfffzfffzffffp<oCCCCCCCCCCCCCCCCCCCCCCC5ffffff7CCCCCCCCCCCC",
"CCCCCCCCCCCCCaffzfffCCCCCCCCCCCCCCCCCCCCCCCC   +7sffzfffbfffffCCCCCCffffzfzfffffs7* CCCCCCCCCCCCCCCCCCCCCCCC5fffzff7CCCCCCCCCCCC",
"CCCCCCCCCCCCCafffffsCCCCCCCCCCCCCCCCCCCCCCCCCC  .&7fffffffffffffCCsffffffffffffi=.CCCCCCCCCCCCCCCCCCCCCCCCCC3ffffffuCCCCCCCCCCCC",
"CCCCCCCCCCCCCafffffsCCCCCCCCCCCCCCCCCCCCCCCCCCCC  o>pfffffffffffsffffffffffffp5+ CCCCCCCCCCCCCCCCCCCCCCCCCCC3ffffff7CCCCCCCCCCCC",
"CCCCCCCCCCCCCpfffffsCCCCCCCCCCCCCCCCCCCCCCCCCCCCC   $3sffffffffffffffffffffs5*.CCCCCCCCCCCCCCCCCCCCCCCCCCCCC3ffffff7CCCCCCCCCCCC",
"CCCCCCCCCCCCCpffffffCCCCCCCCCCCCCCCCCCCCCCCCCCCCCCC  o-7ffsffffffffffsffffa,oCCCCCCCCCCCCCCCCCCCCCCCCCCCCCCC7fsffffuCCCCCCCCCCCC",
"CCCCCCCCCCCCCusfsfffuCCCCCCCCCCCCCCCCCCCCCCCCCCCCCCC   +3pffsfsfsfsfffffs5& CCCCCCCCCCCCCCCCCCCCCCCCCCCCCCCCpffsfssCCCCCCCCCCCCC",
"CCCCCCCCCCCCC3sffsfftCCCCCCCCCCCCCCCCCCCCCCCCCCCCCCCCC  .$5sffsffffsffs7-.CCCCCCCCCCCCCCCCCCCCCCCCCCCCCCCCCCpfsfsfsCCCCCCCCCCCCC",
"CCCCCCCCCCCCC<fsffsfuCCCCCCCCCCCCCCCCCCCCCCCCCCCCCCCCCCC  o<psffsfffss3+ CCCCCCCCCCCCCCCCCCCCCCCCCCCCCCCCCCCpsfffsaCCCCCCCCCCCCC",
"CCCCCCCCCCCCC<sfsfss7CCCCCCCCCCCCCCCCCCCCCCCCCCCCCCCCCCCC   &5sssfssu$.CCCCCCCCCCCCCCCCCCCCCCCCCCCCCCCCCCCCCpssssfaCCCCCCCCCCCCC",
"CCCCCCCCCCCCC<ssfssftCCCCCCCCCCCCCCCCCCCCCCCCCCCCCCCCCCCCCC  &pfssfs7 CCCCCCCCCCCCCCCCCCCCCCCCCCCCCCCCCCCCCCpsfsfsaCCCCCCCCCCCCC",
"CCCCCCCCCCCCC<sssfssuCCCCCCCCCCCCCCCCCCCCCCCCCCCCCCCCCCCCCCC *ssssss7CCCCCCCCCCCCCCCCCCCCCCCCCCCCCCCCCCCCCCCpsssssaCCCCCCCCCCCCC",
"CCCCCCCCCCCCC<ssssss7CCCCCCCCCCCCCCCCCCCCCCCCCCCCCCCCCCCCCCCC$ssfsss7CCCCCCCCCCCCCCCCCCCCCCCCCCCCCCCCCCCCCCCpsssfspCCCCCCCCCCCCC",
"CCCCCCCCCCCCC<ssssss7CCCCCCCCCCCCCCCCCCCCCCCCCCCCCCCCCCCCCCCC&asssssuCCCCCCCCCCCCCCCCCCCCCCCCCCCCCCCCCCCCCC<sssssauCCCCCCCCCCCCC",
"CCCCCCCCCCCCC<ssssss7CCCCCCCCCCCCCCCCCCCCCCCCCCCCCCCCCCCCCCCC*psssss7CCCCCCCCCCCCCCCCCCCCCCCCCCCCCCCCCCCCCC<assssa7CCCCCCCCCCCCC",
"CCCCCCCCCCCCC<assssa7CCCCCCCCCCCCCCCCCCCCCCCCCCCCCCCCCCCCCCCC*psssssuCCCCCCCCCCCCCCCCCCCCCCCCCCCCCCCCCCCCCC<sssssa5CCCCCCCCCCCCC",
"CCCCCCCCCCCCC<aasaas7CCCCCCCCCCCCCCCCCCCCCCCCCCCCCCCCCCCCCCCC*paaaapuCCCCCCCCCCCCCCCCCCCCCCCCCCCCCCCCCCCCCC<pspssa7CCCCCCCCCCCCC",
"CCCCCCCCCCCCC<aaasaa7CCCCCCCCCCCCCCCCCCCCCCCCCCCCCCCCCCCCCCCC=psapssuCCCCCCCCCCCCCCCCCCCCCCCCCCCCCCCCCCCCCC<spspaa6CCCCCCCCCCCCC",
"CCCCCCCCCCCCC<aaaaaa7CCCCCCCCCCCCCCCCCCCCCCCCCCCCCCCCCCCCCCCC*ppaaspuCCCCCCCCCCCCCCCCCCCCCCCCCCCCCCCCCCCCCC<aapsaa7CCCCCCCCCCCCC",
"CCCCCCCCCCCCC>paapsa5CCCCCCCCCCCCCCCCCCCCCCCCCCCCCCCCCCCCCCCC=pppaapuCCCCCCCCCCCCCCCCCCCCCCCCCCCCCCCCCCCCCC3ppappp7CCCCCCCCCCCCC",
"CCCCCCCCCCCCC<pppapp7CCCCCCCCCCCCCCCCCCCCCCCCCCCCCCCCCCCCCCCC*pppapauCCCCCCCCCCCCCCCCCCCCCCCCCCCCCCCCCCCCCC7pppsppCCCCCCCCCCCCCC",
"CCCCCCCCCCCCC>pppappuCCCCCCCCCCCCCCCCCCCCCCCCCCCCCCCCCCCCCCCC*ppappsuCCCCCCCCCCCCCCCCCCCCCCCCCCCCCCCCCCCCCCippppppCCCCCCCCCCCCCC",
"CCCCCCCCCCCCC>ppppppuCCCCCCCCCCCCCCCCCCCCCCCCCCCCCCCCCCCCCCCC*pppppp7CCCCCCCCCCCCCCCCCCCCCCCCCCCCCCCCCCCCCCepppppuCCCCCCCCCCCCCC",
"CCCCCCCCCCCCC$7ppppppCCCCCCCCCCCCCCCCCCCCCCCCCCCCCCCCCCCCCCCC*uppppp7CCCCCCCCCCCCCCCCCCCCCCCCCCCCCCCCCCCCCCupppipuCCCCCCCCCCCCCC",
"CCCCCCCCCCCCCCupupipuCCCCCCCCCCCCCCCCCCCCCCCCCCCCCCCCCCCCCCCC*ppppppuCCCCCCCCCCCCCCCCCCCCCCCCCCCCCCCCCCCCCCuuppppuCCCCCCCCCCCCCC",
"CCCCCCCCCCCCCCtppppiuCCCCCCCCCCCCCCCCCCCCCCCCCCCCCCCCCCCCCCCC*uppipu7CCCCCCCCCCCCCCCCCCCCCCCCCCCCCCCCCCCCCCepupppuCCCCCCCCCCCCCC",
"CCCCCCCCCCCCCC7iiippuCCCCCCCCCCCCCCCCCCCCCCCCCCCCCCCCCCCCCCCC*uuuipiuCCCCCCCCCCCCCCCCCCCCCCCCCCCCCCCCCCCCCCeipuppuCCCCCCCCCCCCCC",
"CCCCCCCCCCCCCCuppuppuuCCCCCCCCCCCCCCCCCCCCCCCCCCCCCCCCCCCCCCC*upiiup7CCCCCCCCCCCCCCCCCCCCCCCCCCCCCCCCCCCCC>uiupuu7CCCCCCCCCCCCCC",
"CCCCCCCCCCCCCC7uupuppuuCCCCCCCCCCCCCCCCCCCCCCCCCCCCCCCCCCCCCC*upiipuuCCCCCCCCCCCCCCCCCCCCCCCCCCCCCCCCCCCC3upipupp3CCCCCCCCCCCCCC",
"CCCCCCCCCCCCCCuupupuupupuCCCCCCCCCCCCCCCCCCCCCCCCCCCCCCCCCCCC*uuuuup7CCCCCCCCCCCCCCCCCCCCCCCCCCCCCCCCCCC7ipuuipuu5CCCCCCCCCCCCCC",
"CCCCCCCCCCCCCC3uuuuuuuuuuuCCCCCCCCCCCCCCCCCCCCCCCCCCCCCCCCCCC*uuupiu7CCCCCCCCCCCCCCCCCCCCCCCCCCCCCCCCCCuuuuuiuuuu3CCCCCCCCCCCCCC",
"CCCCCCCCCCCCCCo<uuuuuuuuuuuuCCCCCCCCCCCCCCCCCCCCCCCCCCCCCCCCC*uuuuuu7CCCCCCCCCCCCCCCCCCCCCCCCCCCCCCCCeuuuuuuuuuueCCCCCCCCCCCCCCC",
"CCCCCCCCCCCCCCCo;7uuuuuuuuuuuCCCCCCCCCCCCCCCCCCCCCCCCCCCCCCCC*uuuuuu7CCCCCCCCCCCCCCCCCCCCCCCCCCCCCCCeuuuuuuuuuu7:CCCCCCCCCCCCCCC",
"CCCCCCCCCCCCCCCC $<uuuuuuuuuueCCCCCCCCCCCCCCCCCCCCCCCCCCCCCCC*7uuuuu7CCCCCCCCCCCCCCCCCCCCCCCCCCCCCCuuuuiuuuuuu3*CCCCCCCCCCCCCCCC",
"CCCCCCCCCCCCCCCC  o<7uuuuuuuuuu7CCCCCCCCCCCCCCCCCCCCCCCCCCCCC*uuuuup7CCCCCCCCCCCCCCCCCCCCCCCCCCCCu7ueuu7uuuu7<OCCCCCCCCCCCCCCCCC",
"CCCCCCCCCCCCCCCCC  .*7uuuuuuuuue7CCCCCCCCCCCCCCCCCCCCCCCCCCCC*7uuuuu7CCCCCCCCCCCCCCCCCCCCCCCCCCC7uuuuuu7uuu7*XCCCCCCCCCCCCCCCCCC",
"CCCCCCCCCCCCCCCCCCC  $<7eueu7euuuuuCCCCCCCCCCCCCCCCCCCCCCCCCC&uu7pu77CCCCCCCCCCCCCCCCCCCCCCCCCCuuuuu7uuuue<#CCCCCCCCCCCCCCCCCCCC",
"CCCCCCCCCCCCCCCCCCCC  o-7eueueuuuu7uCCCCCCCCCCCCCCCCCCCCCCCCC&7u7u7i7CCCCCCCCCCCCCCCCCCCCCCCCCee77uuuu7ue>oCCCCCCCCCCCCCCCCCCCCC",
"CCCCCCCCCCCCCCCCCCCCC   *37ueueuu7ueeCCCCCCCCCCCCCCCCCCCCCCCC*7uuuee7CCCCCCCCCCCCCCCCCCCCCCC77uuuuu777u7*.CCCCCCCCCCCCCCCCCCCCCC",
"CCCCCCCCCCCCCCCCCCCCCCC  O>77uu7ueeueeeCCCCCCCCCCCCCCCCCCCCCC&7u7u7u5CCCCCCCCCCCCCCCCCCCCCC7u7eeeeeeue<$CCCCCCCCCCCCCCCCCCCCCCCC",
"CCCCCCCCCCCCCCCCCCCCCCCC  O-777u7eu7eeeeCCCCCCCCCCCCCCCCCCCCC&u7eeue7CCCCCCCCCCCCCCCCCCCCC7u7ueeeeee7:OCCCCCCCCCCCCCCCCCCCCCCCCC",
"CCCCCCCCCCCCCCCCCCCCCCCCCC  #<eeee7uee7uuCCCCCCCCCCCCCCCCCCCC&7ueeee5CCCCCCCCCCCCCCCCCCC77u7ueeeeee7*.CCCCCCCCCCCCCCCCCCCCCCCCCC",
"CCCCCCCCCCCCCCCCCCCCCCCCCCC  o<ee7u7eee7u77CCCCCCCCCCCCCCCCCC*77eeee5CCCCCCCCCCCCCCCCCCu7u7u7eeeee>$CCCCCCCCCCCCCCCCCCCCCCCCCCCC",
"CCCCCCCCCCCCCCCCCCCCCCCCCCCC  o=5u7eeeu7uu77CCCCCCCCCCCCCCCCC$7ueeee5CCCCCCCCCCCCCCCC777eeee7eu7e>OCCCCCCCCCCCCCCCCCCCCCCCCCCCCC",
"CCCCCCCCCCCCCCCCCCCCCCCCCCCCCC  $3e7e777777u7uCCCCCCCCCCCCCCC*77e7e75CCCCCCCCCCCCCCC77tu7e7eee75=oCCCCCCCCCCCCCCCCCCCCCCCCCCCCCC",
"CCCCCCCCCCCCCCCCCCCCCCCCCCCCCCC  O:57u7uu577777CCCCCCCCCCCCCC$7u7e7u5CCCCCCCCCCCCCC77777e7e77e3*CCCCCCCCCCCCCCCCCCCCCCCCCCCCCCCC",
"CCCCCCCCCCCCCCCCCCCCCCCCCCCCCCCC   *57775u5ue7u7CCCCCCCCCCCCC*7777775CCCCCCCCCCCC7777uu77e7e7>OCCCCCCCCCCCCCCCCCCCCCCCCCCCCCCCCC",
"CCCCCCCCCCCCCCCCCCCCCCCCCCCCCCCCCC  #:77777u777777CCCCCCCCCCC$77e7e73CCCCCCCCCCC777u7u777u65=oCCCCCCCCCCCCCCCCCCCCCCCCCCCCCCCCCC",
"CCCCCCCCCCCCCCCCCCCCCCCCCCCCCCCCCCC  O-577777777777CCCCCCCCCC*7777775CCCCCCCCCC77777777777<*CCCCCCCCCCCCCCCCCCCCCCCCCCCCCCCCCCCC",
"CCCCCCCCCCCCCCCCCCCCCCCCCCCCCCCCCCCC   *55777t777777CCCCCCCCC*77777e3CCCCCCCC577777777777>OCCCCCCCCCCCCCCCCCCCCCCCCCCCCCCCCCCCCC",
"CCCCCCCCCCCCCCCCCCCCCCCCCCCCCCCCCCCCCC  o<777777777777CCCCCCC$7777775CCCCCCC577777777773=oCCCCCCCCCCCCCCCCCCCCCCCCCCCCCCCCCCCCCC",
"CCCCCCCCCCCCCCCCCCCCCCCCCCCCCCCCCCCCCCC  o*377777777777CCCCCC&5777773CCCCCC57777777777<* CCCCCCCCCCCCCCCCCCCCCCCCCCCCCCCCCCCCCCC",
"CCCCCCCCCCCCCCCCCCCCCCCCCCCCCCCCCCCCCCCCC  #:557777767675CCCC&5777773CCCC577777777665>OCCCCCCCCCCCCCCCCCCCCCCCCCCCCCCCCCCCCCCCCC",
"CCCCCCCCCCCCCCCCCCCCCCCCCCCCCCCCCCCCCCCCCC  o*577775676755CCC*6575773CCC57577757776<*oCCCCCCCCCCCCCCCCCCCCCCCCCCCCCCCCCCCCCCCCCC",
"CCCCCCCCCCCCCCCCCCCCCCCCCCCCCCCCCCCCCCCCCCC   *<57577576765<C$5757753C<57575577555<OCCCCCCCCCCCCCCCCCCCCCCCCCCCCCCCCCCCCCCCCCCCC",
"CCCCCCCCCCCCCCCCCCCCCCCCCCCCCCCCCCCCCCCCCCCCC  O:57555575755<-5777575<55557557555*oCCCCCCCCCCCCCCCCCCCCCCCCCCCCCCCCCCCCCCCCCCCCC",
"CCCCCCCCCCCCCCCCCCCCCCCCCCCCCCCCCCCCCCCCCCCCCC  .*35577555755556555555757557557<$ CCCCCCCCCCCCCCCCCCCCCCCCCCCCCCCCCCCCCCCCCCCCCC",
"CCCCCCCCCCCCCCCCCCCCCCCCCCCCCCCCCCCCCCCCCCCCCCCC  +>55575567565555577555755775:OCCCCCCCCCCCCCCCCCCCCCCCCCCCCCCCCCCCCCCCCCCCCCCCC",
"CCCCCCCCCCCCCCCCCCCCCCCCCCCCCCCCCCCCCCCCCCCCCCCCC  O-355565555555555575555553*oCCCCCCCCCCCCCCCCCCCCCCCCCCCCCCCCCCCCCCCCCCCCCCCCC",
"CCCCCCCCCCCCCCCCCCCCCCCCCCCCCCCCCCCCCCCCCCCCCCCCCC   $<35555555555555555555>& CCCCCCCCCCCCCCCCCCCCCCCCCCCCCCCCCCCCCCCCCCCCCCCCCC",
"CCCCCCCCCCCCCCCCCCCCCCCCCCCCCCCCCCCCCCCCCCCCCCCCCCCC  O:355555555555355543>OCCCCCCCCCCCCCCCCCCCCCCCCCCCCCCCCCCCCCCCCCCCCCCCCCCCC",
"CCCCCCCCCCCCCCCCCCCCCCCCCCCCCCCCCCCCCCCCCCCCCCCCCCCCC  o*3533453535555553*XCCCCCCCCCCCCCCCCCCCCCCCCCCCCCCCCCCCCCCCCCCCCCCCCCCCCC",
"CCCCCCCCCCCCCCCCCCCCCCCCCCCCCCCCCCCCCCCCCCCCCCCCCCCCCC   $:534555555353:$ CCCCCCCCCCCCCCCCCCCCCCCCCCCCCCCCCCCCCCCCCCCCCCCCCCCCCC",
"CCCCCCCCCCCCCCCCCCCCCCCCCCCCCCCCCCCCCCCCCCCCCCCCCCCCCCCC  O-3533334353:OCCCCCCCCCCCCCCCCCCCCCCCCCCCCCCCCCCCCCCCCCCCCCCCCCCCCCCCC",
"CCCCCCCCCCCCCCCCCCCCCCCCCCCCCCCCCCCCCCCCCCCCCCCCCCCCCCCCC  .&<3433333*oCCCCCCCCCCCCCCCCCCCCCCCCCCCCCCCCCCCCCCCCCCCCCCCCCCCCCCCCC",
"CCCCCCCCCCCCCCCCCCCCCCCCCCCCCCCCCCCCCCCCCCCCCCCCCCCCCCCCCCC  +:3333>$ CCCCCCCCCCCCCCCCCCCCCCCCCCCCCCCCCCCCCCCCCCCCCCCCCCCCCCCCCC",
"CCCCCCCCCCCCCCCCCCCCCCCCCCCCCCCCCCCCCCCCCCCCCCCCCCCCCCCCCCCC  O&&*&OCCCCCCCCCCCCCCCCCCCCCCCCCCCCCCCCCCCCCCCCCCCCCCCCCCCCCCCCCCCC",
"CCCCCCCCCCCCCCCCCCCCCCCCCCCCCCCCCCCCCCCCCCCCCCCCCCCCCCCCCCCCCC     CCCCCCCCCCCCCCCCCCCCCCCCCCCCCCCCCCCCCCCCCCCCCCCCCCCCCCCCCCCCC",
"CCCCCCCCCCCCCCCCCCCCCCCCCCCCCCCCCCCCCCCCCCCCCCCCCCCCCCCCCCCCCCCCCCCCCCCCCCCCCCCCCCCCCCCCCCCCCCCCCCCCCCCCCCCCCCCCCCCCCCCCCCCCCCCC",
"CCCCCCCCCCCCCCCCCCCCCCCCCCCCCCCCCCCCCCCCCCCCCCCCCCCCCCCCCCCCCCCCCCCCCCCCCCCCCCCCCCCCCCCCCCCCCCCCCCCCCCCCCCCCCCCCCCCCCCCCCCCCCCCC",
"CCCCCCCCCCCCCCCCCCCCCCCCCCCCCCCCCCCCCCCCCCCCCCCCCCCCCCCCCCCCCCCCCCCCCCCCCCCCCCCCCCCCCCCCCCCCCCCCCCCCCCCCCCCCCCCCCCCCCCCCCCCCCCCC",
"CCCCCCCCCCCCCCCCCCCCCCCCCCCCCCCCCCCCCCCCCCCCCCCCCCCCCCCCCCCCCCCCCCCCCCCCCCCCCCCCCCCCCCCCCCCCCCCCCCCCCCCCCCCCCCCCCCCCCCCCCCCCCCCC",
"CCCCCCCCCCCCCCCCCCCCCCCCCCCCCCCCCCCCCCCCCCCCCCCCCCCCCCCCCCCCCCCCCCCCCCCCCCCCCCCCCCCCCCCCCCCCCCCCCCCCCCCCCCCCCCCCCCCCCCCCCCCCCCCC",
"CCCCCCCCCCCCCCCCCCCCCCCCCCCCCCCCCCCCCCCCCCCCCCCCCCCCCCCCCCCCCCCCCCCCCCCCCCCCCCCCCCCCCCCCCCCCCCCCCCCCCCCCCCCCCCCCCCCCCCCCCCCCCCCC",
"CCCCCCCCCCCCCCCCCCCCCCCCCCCCCCCCCCCCCCCCCCCCCCCCCCCCCCCCCCCCCCCCCCCCCCCCCCCCCCCCCCCCCCCCCCCCCCCCCCCCCCCCCCCCCCCCCCCCCCCCCCCCCCCC"
};
