/* XPM */
static char *google_earth[] = {
/* columns rows colors chars-per-pixel */
"128 128 59 1 ",
"  c black",
". c #04D104D104D1",
"X c #073A073A073A",
"o c #0A700A700A70",
"O c #0EDB0EDB0EDB",
"+ c #11AB11AB11AB",
"@ c #154815481548",
"# c #181818181818",
"$ c #1B4E1BB51B4E",
"% c #1CE91C821C82",
"& c #1E1E1E1E1E1E",
"* c #1FB91FB92020",
"= c #215421542154",
"- c #248A248A248A",
"; c #282827C127C1",
": c #29C3295C295C",
"> c #29C329C3295C",
", c #2AF72A902AF7",
"< c #2E942E942E94",
"1 c #31CB31CB31CB",
"2 c #356835683568",
"3 c #367136713661",
"4 c gray22",
"5 c #39D3396C396C",
"6 c #396C39D3396C",
"7 c #396C396C39D3",
"8 c #396C39D339D3",
"9 c #3B6E3B6E3B6E",
"0 c #3CA23D093CA2",
"q c #3D093D093CA2",
"w c #3D093CA23D09",
"e c #3CA23D093D09",
"r c #3EA43EA43EA4",
"t c #401C3FFB4005",
"y c #41DB41DB41DB",
"u c #434143414343",
"i c #451145114511",
"p c #466E4685467D",
"a c #484848484848",
"s c #49E3497C497C",
"d c #497C49E3497C",
"f c #49E349E3497C",
"g c #497C497C49E3",
"h c #49E3497C49E3",
"j c #497C49E349E3",
"k c #4B174B174B17",
"l c #4D194CB24CB2",
"z c #4D194D194CB2",
"x c #4CB24CB24D19",
"c c #4D194CB24D19",
"v c #4CB24D194D19",
"b c #4E4E4E4E4E4E",
"n c #50115012501B",
"m c #51EB51EB51EB",
"M c #534953565354",
"N c #552155215521",
"B c #568C56845684",
"V c #572357235723",
"C c None",
/* pixels */
"CCCCCCCCCCCCCCCCCCCCCCCCCCCCCCCCCCCCCCCCCCCCCCCCCCCCCCCCCCCCCCCCCCCCCCCCCCCCCCCCCCCCCCCCCCCCCCCCCCCCCCCCCCCCCCCCCCCCCCCCCCCCCCCC",
"CCCCCCCCCCCCCCCCCCCCCCCCCCCCCCCCCCCCCCCCCCCCCCCCCCCCCCCCCCCCCCCCCCCCCCCCCCCCCCCCCCCCCCCCCCCCCCCCCCCCCCCCCCCCCCCCCCCCCCCCCCCCCCCC",
"CCCCCCCCCCCCCCCCCCCCCCCCCCCCCCCCCCCCCCCCCCCCCCCCCCCCCCCCCCCCCCCCCCCCCCCCCCCCCCCCCCCCCCCCCCCCCCCCCCCCCCCCCCCCCCCCCCCCCCCCCCCCCCCC",
"CCCCCCCCCCCCCCCCCCCCCCCCCCCCCCCCCCCCCCCCCCCCCCCCCCCCCCCCCCCCCCCCCCCCCCCCCCCCCCCCCCCCCCCCCCCCCCCCCCCCCCCCCCCCCCCCCCCCCCCCCCCCCCCC",
"CCCCCCCCCCCCCCCCCCCCCCCCCCCCCCCCCCCCCCCCCCCCCCCCCCCCCCCCCCCCCCCCCCCCCCCCCCCCCCCCCCCCCCCCCCCCCCCCCCCCCCCCCCCCCCCCCCCCCCCCCCCCCCCC",
"CCCCCCCCCCCCCCCCCCCCCCCCCCCCCCCCCCCCCCCCCCCCCCCCCCCCCCCCCCCCCCCCCCCCCCCCCCCCCCCCCCCCCCCCCCCCCCCCCCCCCCCCCCCCCCCCCCCCCCCCCCCCCCCC",
"CCCCCCCCCCCCCCCCCCCCCCCCCCCCCCCCCCCCCCCCCCCCCCCCCCCCCCCCCCCCCCCCCCCCCCCCCCCCCCCCCCCCCCCCCCCCCCCCCCCCCCCCCCCCCCCCCCCCCCCCCCCCCCCC",
"CCCCCCCCCCCCCCCCCCCCCCCCCCCCCCCCCCCCCCCCCCCCCCCCCCCCCCCCCCCCCCCCCCCCCCCCCCCCCCCCCCCCCCCCCCCCCCCCCCCCCCCCCCCCCCCCCCCCCCCCCCCCCCCC",
"CCCCCCCCCCCCCCCCCCCCCCCCCCCCCCCCCCCCCCCCCCCCCCCCCCCCCCCCCCCCCCCCCCCCCCCCCCCCCCCCCCCCCCCCCCCCCCCCCCCCCCCCCCCCCCCCCCCCCCCCCCCCCCCC",
"CCCCCCCCCCCCCCCCCCCCCCCCCCCCCCCCCCCCCCCCCCCCCCCCCCCCCCCCCCCCCCCCCCCCCCCCCCCCCCCCCCCCCCCCCCCCCCCCCCCCCCCCCCCCCCCCCCCCCCCCCCCCCCCC",
"CCCCCCCCCCCCCCCCCCCCCCCCCCCCCCCCCCCCCCCCCCCCCCCCCCCCCCCCCCCCCCCCCCCCCCCCCCCCCCCCCCCCCCCCCCCCCCCCCCCCCCCCCCCCCCCCCCCCCCCCCCCCCCCC",
"CCCCCCCCCCCCCCCCCCCCCCCCCCCCCCCCCCCCCCCCCCCCCCCCCCCCCCCCCCCCCCCCCCCCCCCCCCCCCCCCCCCCCCCCCCCCCCCCCCCCCCCCCCCCCCCCCCCCCCCCCCCCCCCC",
"CCCCCCCCCCCCCCCCCCCCCCCCCCCCCCCCCCCCCCCCCCCCCCCCCCCCCCCCCCCCCCCCCCCCCCCCCCCCCCCCCCCCCCCCCCCCCCCCCCCCCCCCCCCCCCCCCCCCCCCCCCCCCCCC",
"CCCCCCCCCCCCCCCCCCCCCCCCCCCCCCCCCCCCCCCCCCCCCVVVVVVVVVVVVVVVVVVCCCCCCCCCCCCCCCCCCCCCCCCCCCCCCCCCCCCCCCCCCCCCCCCCCCCCCCCCCCCCCCCC",
"CCCCCCCCCCCCCCCCCCCCCCCCCCCCCCCCCCCCCCCCCCmNVVVVVVVVVVVVVVVVVVVVVVVNCCCCCCCCCCCCCCCCCCCCCCCCCCCCCCCCCCCCCCCCCCCCCCCCCCCCCCCCCCCC",
"CCCCCCCCCCCCCCCCCCCCCCCCCCCCCCCCCCCCCCCCmNVVVVVVVVVVVVVVVVVVVVVVVVVVVVVCCCCCCCCCCCCCCCCCCCCCCCCCCCCCCCCCCCCCCCCCCCCCCCCCCCCCCCCC",
"CCCCCCCCCCCCCCCCCCCCCCCCCCCCCCCCCCCCCCbNNVVVVVVVVVVVVVVVVVVVVVVVVVVVVVVNNCCCCCCCCCCCCCCCCCCCCCCCCCCCCCCCCCCCCCCCCCCCCCCCCCCCCCCC",
"CCCCCCCCCCCCCCCCCCCCCCCCCCCCCCCCCCCCmNVVVVVNNVNVVVNVVVNVNVVVNVVVVVVVNVVNVNMCCCCCCCCCCCCCCCCCCCCCCCCCCCCCCCCCCCCCCCCCCCCCCCCCCCCC",
"CCCCCCCCCCCCCCCCCCCCCCCCCCCCCCCCCCCmNVVVVVVNVVVVNNNVNVVVVNVNVNNVVNVNNVNNVVVNNCCCCCCCCCCCCCCCCCCCCCCCCCCCCCCCCCCCCCCCCCCCCCCCCCCC",
"CCCCCCCCCCCCCCCCCCCCCCCCCCCCCCCCCmNNNNVNNVNVNVNVVVVVNNNVNVVNVNVNNVNVVVNVNNNVNNMCCCCCCCCCCCCCCCCCCCCCCCCCCCCCCCCCCCCCCCCCCCCCCCCC",
"CCCCCCCCCCCCCCCCCCCCCCCCCCCCCCCCmNNNVNVNNVNNNVNNNVNVNVNVNVNVNNNVNVVNNNVNNNVNVNNMCCCCCCCCCCCCCCCCCCCCCCCCCCCCCCCCCCCCCCCCCCCCCCCC",
"CCCCCCCCCCCCCCCCCCCCCCCCCCCCCCCNNNNNNNNNNNNNNNNNNNNNNNNNNNNNNNNNNNNNNNNNNNNNMNNNNmCCCCCCCCCCCCCCCCCCCCCCCCCCCCCCCCCCCCCCCCCCCCCC",
"CCCCCCCCCCCCCCCCCCCCCCCCCCCCCbmmmmay93333337abmNNNNNNNNNNNNNNNNNNNNNNNNNNNNNNNNNNNmCCCCCCCCCCCCCCCCCCCCCCCCCCCCCCCCCCCCCCCCCCCCC",
"CCCCCCCCCCCCCCCCCCCCCCCCCCCCCaiCCCCCC      .+O-1umNNNNNNNNNNMNNNNNNNNNNNNNNNNNNNNNNmCCCCCCCCCCCCCCCCCCCCCCCCCCCCCCCCCCCCCCCCCCCC",
"CCCCCCCCCCCCCCCCCCCCCCCCCCCCCCCCCCCCCCC         o&7aNNNNMNNNMNNNNNNMNMNNMNMNMNNNNNmNNCCCCCCCCCCCCCCCCCCCCCCCCCCCCCCCCCCCCCCCCCCC",
"CCCCCCCCCCCCCCCCCCCCCCCCCCCCCCCCCCCCCCCCCCCCC      #3aMNNMmNNmMMNMMNNMmMNMMMNMMNmNNMmNCCCCCCCCCCCCCCCCCCCCCCCCCCCCCCCCCCCCCCCCCC",
"CCCCCCCCCCCCCCCCCCCCCCCCCCCCCCCCCCCCCCCCCCCCCCCCC    #3aNNNmNmNNNmMMNMMMmNMMMNMMNMmNNMmCCCCCCCCCCCCCCCCCCCCCCCCCCCCCCCCCCCCCCCCC",
"CCCCCCCCCCCCCCCCCCCCCCCCCCCCCCCCCCCCCCCCCCCCCCCCCCC    #wmmNmNMMmNMMMMMMMMMMMmNmmMMmmMNmCCCCCCCCCCCCCCCCCCCCCCCCCCCCCCCCCCCCCCCC",
"CCCCCCCCCCCCCCCCCCCCCCCCCCCCCCCCCCCCCCCCCCCCCCCCCCCCC   o<amMMMmNmMMMmMNMMMMMMMMmNMMmMmMmCCCCCCCCCCCCCCCCCCCCCCCCCCCCCCCCCCCCCCC",
"CCCCCCCCCCCCCCCCCCCCCCCCCCCCCCCCCCCCCCCCCCCCCCCCCCCCCCC   #ymMmNMmMMNmMmMmmMMmMMmmmNmMNmNmCCCCCCCCCCCCCCCCCCCCCCCCCCCCCCCCCCCCCC",
"CCCCCCCCCCCCCCCCCCCCCCCCCCCCCCCCCCCCCCCCCCCCCCCCCCCCCCCCC  @3bmmmMmMmmmMmMmMmMmMmMmmmNmmmmmCCCCCCCCCCCCCCCCCCCCCCCCCCCCCCCCCCCCC",
"CCCCCCCCCCCCCCCCCCCCCCCCCCCCCCCCCCCCCCCCCCCCCCCCCCCCCCCCCC   <ammmmmmmmmmmmmmmmmmmmmmmmmmmmbCCCCCCCCCCCCCCCCCCCCCCCCCCCCCCCCCCCC",
"CCCCCCCCCCCCCCCCCCCCCCCCCCCCCCCCCCCCCCCCCCCCCCCCCCCCCCCCCCCC  &ymMMnMnnMmmmmmmmmmmMnmmmmmmmmbCCCCCCCCCCCCCCCCCCCCCCCCCCCCCCCCCCC",
"CCCCCCCCCCCCCCCCCCCCCCCCCCCCCCCCCCCCCCCCCCCCCCCCCCCCCCCCCCCCC  #rnnMnMMnmnmmmmmMmmnMmnmmmnnmmCCCCCCCCCCCCCCCCCCCCCCCCCCCCCCCCCCC",
"CCCCCCCCCCCCCCCCCCCCCCCCCCCCCCCCCCCCCCCCCCCCCCCCCCCCCCCCCCCCCC  @qnMnMnMmnmmnmnnnmMnnnmnnmmmmnCCCCCCCCCCCCCCCCCCCCCCCCCCCCCCCCCC",
"CCCCCCCCCCCCCCCCCCCCCCCCCCCCCCCCCCCCCCCCCCCCCCCCCCCCCCCCCCCCCCC  +qnnnnMnmnmnnMnnnnnMnmnmnnnmnbCCCCCCCCCCCCCCCCCCCCCCCCCCCCCCCCC",
"CCCCCCCCCCCCCCCCCCCCCCCCCCCCCCCCCCCCCCCCCCCCCCCCCCCCCCCCCCCCCCCCC @qkMnnnnnnnnnnnnnmnnmnnnnnnnnaCCCCCCCCCCCCCCCCCCCCCCCCCCCCCCCC",
"CCCCCCCCCCCCCCCCCCCCCCCCCCCCCmmbCCCCCCCCCCCCCCCCCCCCCCCCCCCCCCCCCC X,knnnnnnnnnnnnnnnnnnnnnnnnnbCCCCCCCCCCCCCCCCCCCCCCCCCCCCCCCC",
"CCCCCCCCCCCCCCCCCCCCCCCCCabnnnbbmbbbCCCCCCCCCCCCCCCCCCCCCCCCCCCCCCC .,knnnnnnnnnnnnnnbnnnnnbnnbnbCCCCCCCCCCCCCCCCCCCCCCCCCCCCCCC",
"CCCCCCCCCCCCCCCCCCCCCCCbmnnnnnnnbmbnmbaCCCCCCCCCCCCCCCCCCCCCCCCCCCCC  ,kknnnnbnbnknnnbnbnbnnbnnnmaCCCCCCCCCCCCCCCCCCCCCCCCCCCCCC",
"CCCCCCCCCCCCCCCCCCCCCbbnbmnbnnnbbnnbbnnbnCCCCCCCCCCCCCCCCCCCCCCCCCCCC  ,kmnnbnnnnbnnbnbnbnbnbnnbbbCCCCCCCCCCCCCCCCCCCCCCCCCCCCCC",
"CCCCCCCCCCCCCCCCCCCabnnbbbbmbbbmbnbnnbbmbmaCCCCCCCCCCCCCCCCCCCCCCCCCCC .,abbbbbbnbbbbbbbbbbbbbbbbbaCCCCCCCCCCCCCCCCCCCCCCCCCCCCC",
"CCCCCCCCCCCCCCCCCCabbbnbbbbbbbbbbbbbbbbbbbnbaCCCCCCCCCCCCCCCCCCCCCCCCCC  ,ambbbbbbbbbnbbbbbbbbbbbbmaCCCCCCCCCCCCCCCCCCCCCCCCCCCC",
"CCCCCCCCCCCCCCCCCanbbbbbbbbbbbbbbbbbbbbbbbbbmbaCCCCCCCCCCCCCCCCCCCCCCCCC  ,abbbbbbknbkbbbbbbbbbbbbbnaCCCCCCCCCCCCCCCCCCCCCCCCCCC",
"CCCCCCCCCCCCCCCCanbbbbbbbbbbbbbbbbbbbbbbbbbbbbabCCCCCCCCCCCCCCCCCCCCCCCCC  ,akbbbbbbbknkbbknbbbbbbbkaCCCCCCCCCCCCCCCCCCCCCCCCCCC",
"CCCCCCCCCCCCCCCbkbbbbbbkbbbbbbkbbbbkbbbabbkbbbbbbaCCCCCCCCCCCCCCCCCCCCCCCC  ,abbbbkkknbbbbbabbabbbbbmaCCCCCCCCCCCCCCCCCCCCCCCCCC",
"CCCCCCCCCCCCCiabbbbbkbbbkbkbbkbbbbbkbkbbananabkbbkkCCCCCCCCCCCCCCCCCCCCCCCC  ,akbkbbbkkbnbbbkbbbabbbbbaCCCCCCCCCCCCCCCCCCCCCCCCC",
"CCCCCCCCCCCCCabbbbkkbkbkbbkbnabbkabbbbkkbbbbnkbbkbnkkCCCCCCCCCCCCCCCCCCCCCCC  %9bkkbkbkbabkknakbbkabkkkiCCCCCCCCCCCCCCCCCCCCCCCC",
"CCCCCCCCCCCCakbkbkbabbabbkbankbabbbkbbbaxknbknkknknkkkCCCCCCCCCCCCCCCCCCCCCCC  +7babkbkbakbakbkaankkabbaiCCCCCCCCCCCCCCCCCCCCCCC",
"CCCCCCCCCCCCakkbbbbkkbababkbkbbkbaabkkkbxxkkxakkkkkkkkkkCCCCCCCCCCCCCCCCCCCCCC  +7babkbkknbkbkkbbabnbkabkiCCCCCCCCCCCCCCCCCCCCCC",
"CCCCCCCCCCCCkbaaaabbbabkbkkkkbkbkbkbbkbaxkxkkxknkknknkkkaCCCCCCCCCCCCCCCCCCCCCC  +7aakkkkbkkbkkkabbakkabkkiCCCCCCCakCCCCCCCCCCCC",
"CCCCCCCCCCC3kkbbkbkkkbbaabkbkkkkkkkkaabbkkkkkkkknkkkkkkkkkkCCCCCCCCCCCCCCCCCCCCCC +<pkkbkkkkkkkkkkabkkbakkbaCCCCCakkCCCCCCCCCCCC",
"CCCCCCCCCCCykkkkkkkkkkkkkkkkkkkkkkkkxkkkkkkkkkkkkkkkkkkkkkkaCCCCCCCCCCCCCCCCCCCCCC .-ibakkkkkkkkkbabbakbkkkkxaiaakkkCCCCCCCCCCCC",
"CCCCCCCCCCCikkkkkkkbkkkkkkkkkkkkkkkkkkkkkkkkkkkkkkkkkakkkkkaaaCCCCCCCCCCCCCCCCCCCCC  ,yabaakkkkkkaaabakakkbakaaakkkkpCCCCCCCCCCC",
"CCCCCCCCCCCakkkkkkkabakkkkkkkkkkkkkkkbkkkkkkkkkkkkkkkakkkkkkkkaCCCCCCCCCCCCCCCCCCCCC  $3akkkkkakbababaaabaaaaxaxkkakaCCCCCCCCCCC",
"CCCCCCCCCC<akkakakkakabakkakkakakakaaakaakakkakkkdakdkkkkakkakkaCCCCCCCCCCCCCCCCCCCCC  +3aakakkaabaaaaxkaabaxkaaakakiCCCCCCCCCCC",
"CCCCCCCCCC<akkkkabaaakkkkkakkakkkakakakkakakakkaakakakkakakkkakkaaCCCCCCCCCCCCCCCCCCCC  o<iakkabaaaxaxaaakaakakaaabaaCCCCCCCCCCC",
"CCCCCCCCCC<aakakkakkkakaakkaakkaakkkkaakkakakaakkakakkakakaaaakaakaCCCCCCCCCCCCCCCCCCCCC .,iaaaaakaaaaakkaakakaaaaaaaCCCCCCCCCCC",
"CCCCCCCCCCwakaakkaaaakkaakakakkaakakxakaaaakkakaakakaaakkakaakakkaaaaCCCCCCCCCCCCCCCCCCCC  =waaakaabaakaakaakkakbaakaCCCCCCCCCCC",
"CCCCCCCCCCiaaakaaakakaakaaaaakaaaaaaaaaaxkaaakaaaaaaaakaakaaakaakaaaapCCCCCCCCCCCCCCCCCCCC  +3iaaaaaakaaaaaaaaaaaaaaaCCCCCCCCCCC",
"CCCCCCCCCCiaaaaaaaaaaaaakaaakakakaaaaaaxaaaaaaaakaaaaaaaaaaaaaaaaaaaaaaiCCCCCCCCCCCCCCCCCCC  .-iaaaaaaaxaaaaaaaaaaaaa3CCCCCCCCCC",
"CCCCCCCCCCyaaaaabaaaaaaaaaaaaaaaaaaaaaaaaaaaaaaaaaaaaaaaaaaaaaaaaaaaaaaaiCCCCCCCCCCCCCCCCCCCC  &7aaaaaaaaaaaaaaaaaaaatCCCCCCCCCC",
"CCCCCCCCCCyaaaaaaaaaaaaaaaaaaaaaaaaaaaaaaaaakaaaaaaaaaaaaaaaaaaaaaaaaaaaaauCCCCCCCCCCCCCCCCCCC  o,yaaaaaaaaaaaaaaaaaauCCCCCCCCCC",
"CCCCCCCCCCwaaaaaaaaaaaaaaaaaaaaaaaaaaaaaaaaaaaaaaaaaaaaaaaaaaaaaaaaaaaiaaaaiCCCCCCCCCCCCCCCCCCC   &7iaaaaaaiaaaiaaaaaiCCCCCCCCCC",
"CCCCCCCCCCtiaiiaaaaaaaaaaaaaaaaaaaaaaaaaaaaauaaiiauaaaaaaaaaaaaaaiaiaaaiaaaaiyCCCCCCCCCCCCCCCCCCC  O,yaiaiaiaaaiaaaiauCCCCCCCCCC",
"CCCCCCCCCCwaiaaaiaiaiaiaiaiaiaiaiaiaiaiiiaiadaaaaaaaaauaaauaaauaaaaaiaiaaiaaiaaCCCCCCCCCCCCCCCCCCC   &3uiaaaaiaiaiiaawCCCCCCCCCC",
"CCCCCCCCCCtaaaiaaaaiaiaiaiaiaiaiaiaiaiaaaiaiudaaiaaauaaauaaaiaauaiiaaiiaiaiiiaaiuCCCCCCCCCCCCCCCCCCC  o-wiiaiiaaaiaii3CCCCCCCCCC",
"CCCCCCCCCCwapiaaaiiaiaiaaiiaiaaiiaiaiaidiauaauuaaiiaiuuaauauauuaiaiiaiaiaiiaiiaiauuCCCCCCCCCCCCCCCCCC   @,wiiaiiiiaia<CCCCCCCCCC",
"CCCCCCCCCCwaaiiiiaiaaiaaiaiaaiaaaiuauiduiauauaiiiiiaaauauauuauaaiiiaiaaiaiiiaaiiaiiiCCCCCCCCCCCCCCCCCCC   +,wyiiiiaui1CCCCCCCCCC",
"CCCCCCCCCC<iiaaiiiaiiaiiiiiiiiiiuaduduuaaiiiiaiaiaauuuauuauauauaiaiiiiiiiaiiuiiiiiiiiuCCCCCCCCCCCCCCCCCCC   +,9uiiiiiCCCCCCCCCCC",
"CCCCCCCCCC-uaiiiiiiiiiiaiiiaiiiiauuaiaiaaiiaauauuauiaauaiiaaauiiiiiaiiiiiiiiiaiiiiiiiiiyCCCCCCCCCCCCCCCCCCC   o&3wuuuCCCCCCCCCCC",
"CCCCCCCCCC,uiiiiiiiiiiiiiiiiiiiiuauuuauuuiiuauuuiiiiuuaiiiuuiiiiiiiiiiiiiiiiiiiiiiiiiiiiuyCCCCCCCCCCCCCCCCCCC   .@,39CCCCCCCCCCC",
"CCCCCCCCCC&iiiiiiiiiiiiiiuiiiiiiiiuuaauuauuuiiuaiiiiiiiiauuuuaiiiiiiiiiiiiiiiuiiiiiiiiuiiiuyCCCCCCCCCCCCCCCCCCC   CCCCCCCCCCCCCC",
"CCCCCCCCCCC7iiiiiiiiiiiiiiiiuiiiuiuauuuauuauuiuaiiuiiuuiuiauuuuiiuiiiuuiuiiiuiuiiiuiuiiiiuiiutCCCCCCCCCCCCCCCCCCCCCCCCCCCCCCCCCC",
"CCCCCCCCCCC7yiiiiiiiuiuiiiiuiiiiiuauuuuuauuuauuuuuiuuiiuuiiuuiuiuuiuuuuuuiuuiuiuiuuuiuiuuuiyuiutCCCCCCCCCCCCCCCCCCCCCCCCCCCCCCCC",
"CCCCCCCCCCC,iyuuuuuuuiyiuiuuyiyiuiuuuauuuuuuuuuuuiuiuuiuuuuuuiuuuuuuuiuuuuuiiuuuuuuuuuuuuuiuuuuuyyyCCCCCCCCCCCCCCCCCCCCCCCCCCCCC",
"CCCCCCCCCCC-uuuuuuuuuuuiuuuyuuuuuuuuuuuuuuuuuuuuuuuuuuuuuuuuuuuuuuuuuuuuuuuuyuuuuuuuuuuuuuuuyuuuuuuyyCCCCCCCCCCCCCCCCCCCCCCCCCCC",
"CCCCCCCCCCC@euuuuuuuuuuuuuuuuuuuuuuuuuuuyuuuuuuuuuuuuuuuyuuuuuuyuuuuuuuuuuuyuuuutuuuuuyuuuuuuuuyyuuyuyyyCCCCCCCCCCCCCCCCCCCCCCCC",
"CCCCCCCCCCCC3yuuuuuuuuuuuuyuuuyuuuuyuuuuuyuuuuuyuyuuuuuuuuuyyuuyuuuuuuuuuuuuyuuyuutuutuuuuuyuuuuyuyuyyuuyywtCCCCCCCCCCCCCCCCCCCC",
"CCCCCCCCCCCC;uyuyuuyuuyuuyuuuyuyuyyuyyuuyuyuuuuyyuyuyyuuyuyyyyuyyyyuyyyyyyyyuyyuyuuuuyyyyyyuyyyyuyuyyuyyyuuuyywyCCCCCCCCCCCCCCCC",
"CCCCCCCCCCCC#wiuyyuuuuuyyyuyyuyuyyuyyyuyyuyuyyuyyyyuyyyyuyyyyyyyyyyyyyyytutuutyyyyyyuyyyyyyyyyyyyyyyyyyyyyyyyyyyyywCCCCCCCCCCCCC",
"CCCCCCCCCCCC.4yyyyw33336tyyyyyyyyyyyyyyyyyyyyyyyyyyyyyyyyyyyyyyyyyyyyyyyututtuutyyyyyyyyyyyyyyyyyyyyyyyyyyyuyyyyyywCCCCCCCCCCCCC",
"CCCCCCCCCCCCC;yyu3;.....#;3tuyyytyyyyyyyyyyyyyyyyyyyyyyyyyyyyyyyyytyyyyyuyruuyyuyyytyyyttytytyyyytytytytytttttyyyyCCCCCCCCCCCCCC",
"CCCCCCCCCCCCC+7y<o       ..&<wwyyyyyytyyytyttytyyytyyytyytyytyyyyyyyywyyuurututtytyttytytyyyyttttyytytytyttutytty9CCCCCCCCCCCCCC",
"CCCCCCCCCCCCCC17# CCCCC     .O-1tttttuttytytyytytyttttuttttytyytytytyyywtytrytyty0ytt0uytytytttyy0yyttyttyy0tttuw3CCCCCCCCCCCCCC",
"CCCCCCCCCCCCCC&-CCCCCCCCCCC    .$<9tyttutytutyy0tttyttttttttytttrywywytytttttttttytttyttttttttyttyytyytytttutttt9CCCCCCCCCCCCCCC",
"CCCCCCCCCCCCCCCCCCCCCCCCCCCCC    .O,1ttttyy0tttytutttutttttt00uytyttttywtttyt0tttyytttt0uttttytty00tt0tttyt0utyt1CCCCCCCCCCCCCCC",
"CCCCCCCCCCCCCCCCCCCCCCCCCCCCCCCC    .*<9t0ty0tu0ttttettttt0utyt0ywtywuwyu0t0tuttt0t0y0yt0tttt0wttttttttt00tytwt3CCCCCCCCCCCCCCCC",
"CCCCCCCCCCCCCCCCCCCCCCCCCCCCCCCCCC    .+;39utut9ttttttettttttwwtwttwtwtt9teyttewtttttttwtttt9ttt0t0ttt0twtttett<CCCCCCCCCCCCCCCC",
"CCCCCCCCCCCCCCCCCCCCCCCCCCCCCCCCCCCCC   .O*<9wttwttwwtttttwettttttwttettttwtettt0tt0wtettwtwtttet0t00tt0ttwtte7CCCCCCCCCCCCCCCCC",
"CCCCCCCCCCCCCCCCCCCCCCCCCCCCCCCCCCCCCCC    .#-29twttttet9tettetwtwttettwtttt0t0t0t0ttttwttt9ttwtt0tt0ttttwtww0,CCCCCCCCCCCCCCCCC",
"CCCCCCCCCCCCCCCCCCCCCCCCCCCCCCCCCCCCCCCCCC    o$;39w9tteetttwttwwttwttwt9t99t0ttte0t9wtt09tt9wtt0tt0e0tewtett<CCCCCCCCCCCCCCCCCC",
"CCCCCCCCCCCCCCCCCCCCCCCCCCCCCCCCCCCCCCCCCCCC    .o&,39ty9tt0twwtettewet9ttt9t09te0t9t9we9tt9ttwwetettteewtww7=CCCCCCCCCCCCCCCCCC",
"CCCCCCCCCCCCCCCCCCCCCCCCCCCCCCCCCCCCCCCCCCCCCCC    .O$,19et9wwteteetett9t99t09t9t0tetete9tet99t9eewweeetwwt9,CCCCCCCCCCCCCCCCCCC",
"CCCCCCCCCCCCCCCCCCCCCCCCCCCCCCCCCCCCCCCCCCCCCCCCCC    ..#;1399ww9etet9et9t9tt9ttee0e9ee99t90eeeteeeeeeee741,CCCCCCCCCCCCCCCCCCCC",
"CCCCCCCCCCCCCCCCCCCCCCCCCCCCCCCCCCCCCCCCCCCCCCCCCCCCC     .+&,17999e9eee9900ee99eteeeeeteewweeqewweee63<=+.CCCCCCCCCCCCCCCCCCCCC",
"CCCCCCCCCCCCCCCCCCCCCCCCCCCCCCCCCCCCCCCCCCCCCCCCCCCCCCCC      .+@-,<7799wwwww7wwewww9wwwwqw7www7e77<;#O. CCCCCCCCCCCCCCCCCCCCCCC",
"CCCCCCCCCCCCCCCCCCCCCCCCCCCCCCCCCCCCCCCCCCCCCCCCCCCCCCCCCCCC      ..++-,,<3777779999ww99977733,,*++    CCCCCCCCCCCCCCCCCCCCCCCCC",
"CCCCCCCCCCCCCCCCCCCCCCCCCCCCCCCCCCCCCCCCCCCCCCCCCCCCCCCCCCCCCCCC      .  .O++O@@#-,,,,,=#@+++O .    CCCCCCCCCCCCCCCCCCCCCCCCCCCC",
"CCCCCCCCCCCCCCCCCCCCCCCCCCCCCCCCCCCCCCCCCCCCCCCCCCCCCCCCCCCCCCCCCCCCC                           CCCCCCCCCCCCCCCCCCCCCCCCCCCCCCCC",
"CCCCCCCCCCCCCCCCCCCCCCCCCCCCCCCCCCCCCCCCCCCCCCCCCCCCCCCCCCCCCCCCCCCCCCCCCCCCCC           CCCCCCCCCCCCCCCCCCCCCCCCCCCCCCCCCCCCCCC",
"CCCCCCCCCCCCCCCCCCCCCCCCCCCCCCCCCCCCCCCCCCCCCCCCCCCCCCCCCCCCCCCCCCCCCCCCCCCCCCCCCCCCCCCCCCCCCCCCCCCCCCCCCCCCCCCCCCCCCCCCCCCCCCCC",
"CCCCCCCCCCCCCCCCCCCCCCCCCCCCCCCCCCCCCCCCCCCCCCCCCCCCCCCCCCCCCCCCCCCCCCCCCCCCCCCCCCCCCCCCCCCCCCCCCCCCCCCCCCCCCCCCCCCCCCCCCCCCCCCC",
"CCCCCCCCCCCCCCCCCCCCCCCCCCCCCCCCCCCCCCCCC377q4773CCCCCCCCCCCCCCCCCCCCCCCCCCCCCCCCCCCCCCCCCCCCCCCCCCCCCCCCCCCCCCCCCCCCCCCCCCCCCCC",
"CCCCCCCCCCCCCCCCCCCCCCCCCCCCCCCCCCCCCCCC44q7q7q4q773CCCCCCCCCCCCCCCCCCCCCCCCCCCCCCCCCCCCCCCCCCCCC3CCCCCCCCCCCCCCCCCCCCCCCCCCCCCC",
"CCCCCCCCCCCCCCCCCCCCCCCCCCCCCCCCCCCCCCCC474q474q77499473CCCCCCCCCCCCCCCCCCCCCCCCCCCCCCCCCCCC33737CCCCCCCCCCCCCCCCCCCCCCCCCCCCCCC",
"CCCCCCCCCCCCCCCCCCCCCCCCCCCCCCCCCCCCCCC1q44777744794q447947333CCCCCCCCCCCCCCCCCCCCCCCCC333444773CCCCCCCCCCCCCCCCCCCCCCCCCCCCCCCC",
"CCCCCCCCCCCCCCCCCCCCCCCCCCCCCCCCCCCCCCC14774774q949474744777q4747473333333337333333773377747443CCCCCCCCCCCCCCCCCCCCCCCCCCCCCCCCC",
"CCCCCCCCCCCCCCCCCCCCCCCCCCCCCCCCCCCCCCC<q44q7474447474q44477447774473774474447477744774477443,CCCCCCCCCCCCCCCCCCCCCCCCCCCCCCCCCC",
"CCCCCCCCCCCCCCCCCCCCCCCCCCCCCCCCCCCCCCC&334447474447744447444444444473744447444444444444373,CCCCCCCCCCCCCCCCCCCCCCCCCCCCCCCCCCCC",
"CCCCCCCCCCCCCCCCCCCCCCCCCCCCCCCCCCCCCCCC3344444444444444444444444444444444444444444444443<&CCCCCCCCCCCCCCCCCCCCCCCCCCCCCCCCCCCCC",
"CCCCCCCCCCCCCCCCCCCCCCCCCCCCCCCCCCCCCCCC;3443444444444444444444444444444444444434444433<$CCCCCCCCCCCCCCCCCCCCCCCCCCCCCCCCCCCCCCC",
"CCCCCCCCCCCCCCCCCCCCCCCCCCCCCCCCCCCCCCCCX#,337344444444744344343444374343443434433771,$CCCCCCCCCCCCCCCCCCCCCCCCCCCCCCCCCCCCCCCCC",
"CCCCCCCCCCCCCCCCCCCCCCCCCCCCCCCCCCCCCCCCC .@-<333334433333443433333433344343343333<-+.CCCCCCCCCCCCCCCCCCCCCCCCCCCCCCCCCCCCCCCCCC",
"CCCCCCCCCCCCCCCCCCCCCCCCCCCCCCCCCCCCCCCCCC   X#-<333333333434333333433333333333<-#. CCCCCCCCCCCCCCCCCCCCCCCCCCCCCCCCCCCCCCCCCCCC",
"CCCCCCCCCCCCCCCCCCCCCCCCCCCCCCCCCCCCCCCCCCC    ..@&,<1333333333343333333331<-&@.  CCCCCCCCCCCCCCCCCCCCCCCCCCCCCCCCCCCCCCCCCCCCCC",
"CCCCCCCCCCCCCCCCCCCCCCCCCCCCCCCCCCCCCCCCCCCCCC     .X+$$;<<<<<1331<<<<<-&#Oo.   CCCCCCCCCCCCCCCCCCCCCCCCCCCCCCCCCCCCCCCCCCCCCCCC",
"CCCCCCCCCCCCCCCCCCCCCCCCCCCCCCCCCCCCCCCCCCCCCCCCC       ...o.o+#@Oo.o...     CCCCCCCCCCCCCCCCCCCCCCCCCCCCCCCCCCCCCCCCCCCCCCCCCCC",
"CCCCCCCCCCCCCCCCCCCCCCCCCCCCCCCCCCCCCCCCCCCCCCCCCCCCCC                  CCCCCCCCCCCCCCCCCCCCCCCCCCCCCCCCCCCCCCCCCCCCCCCCCCCCCCCC",
"CCCCCCCCCCCCCCCCCCCCCCCCCCCCCCCCCCCCCCCCCCCCCCCCCCCCCCCCCCCCCCCCCCCCCCCCCCCCCCCCCCCCCCCCCCCCCCCCCCCCCCCCCCCCCCCCCCCCCCCCCCCCCCCC",
"CCCCCCCCCCCCCCCCCCCCCCCCCCCCCCCCCCCCCCCCCCCCCCCCCCCCCCCCCCCCCCCCCCCCCCCCCCCCCCCCCCCCCCCCCCCCCCCCCCCCCCCCCCCCCCCCCCCCCCCCCCCCCCCC",
"CCCCCCCCCCCCCCCCCCCCCCCCCCCCCCCCCCCCCCCCCCCCCCCCCCCCCCCCCCCCCCCCCCCCCCCCCCCCCCCCCCCCCCCCCCCCCCCCCCCCCCCCCCCCCCCCCCCCCCCCCCCCCCCC",
"CCCCCCCCCCCCCCCCCCCCCCCCCCCCCCCCCCCCCCCCCCCCCCCCCCCCCCCCCCCCCCCCCCCCCCCCCCCCCCCCCCCCCCCCCCCCCCCCCCCCCCCCCCCCCCCCCCCCCCCCCCCCCCCC",
"CCCCCCCCCCCCCCCCCCCCCCCCCCCCCCCCCCCCCCCCCCCCCCCCCCCCCCCCCCCCCCCCCCCCCCCCCCCCCCCCCCCCCCCCCCCCCCCCCCCCCCCCCCCCCCCCCCCCCCCCCCCCCCCC",
"CCCCCCCCCCCCCCCCCCCCCCCCCCCCCCCCCCCCCCCCCCCCCCCCCCCCCCCCCCCCCCCCCCCCCCCCCCCCCCCCCCCCCCCCCCCCCCCCCCCCCCCCCCCCCCCCCCCCCCCCCCCCCCCC",
"CCCCCCCCCCCCCCCCCCCCCCCCCCCCCCCCCCCCCCCCCCCCCCCCCCCCCCCCCCCCCCCCCCCCCCCCCCCCCCCCCCCCCCCCCCCCCCCCCCCCCCCCCCCCCCCCCCCCCCCCCCCCCCCC",
"CCCCCCCCCCCCCCCCCCCCCCCCCCCCCCCCCCCCCCCCCCCCCCCCCCCCCCCCCCCCCCCCCCCCCCCCCCCCCCCCCCCCCCCCCCCCCCCCCCCCCCCCCCCCCCCCCCCCCCCCCCCCCCCC",
"CCCCCCCCCCCCCCCCCCCCCCCCCCCCCCCCCCCCCCCCCCCCCCCCCCCCCCCCCCCCCCCCCCCCCCCCCCCCCCCCCCCCCCCCCCCCCCCCCCCCCCCCCCCCCCCCCCCCCCCCCCCCCCCC"
};
