/* XPM */
static char *graveman[] = {
/* columns rows colors chars-per-pixel */
"128 128 66 1 ",
"  c #006600660066",
". c #04D104D104D1",
"X c #07A107A107A1",
"o c #0B3E0B3E0B3E",
"O c #0C720C720D40",
"+ c #0E740E740E74",
"@ c #107610760FA9",
"# c #114411441144",
"$ c #14E114E114E1",
"% c #181818181818",
"& c #194C194C1A1A",
"* c #1AE71AE71AE7",
"= c #1E841E841E84",
"- c #20861FB92086",
"; c #20ED20ED20ED",
": c #228823562288",
"> c #24F124F124F1",
", c #2626268C2626",
"< c #282828282828",
"1 c #29C328F528F5",
"2 c #2B5E2B5E2B5E",
"3 c #2CF92C922C92",
"4 c #2C922CF92CF9",
"5 c #2E942E942E94",
"6 c #31CB31CB31CB",
"7 c #350135013501",
"8 c #3661365B3672",
"9 c gray22",
"0 c #39D3396C396C",
"q c #396C39D3396C",
"w c #39D339D3396C",
"e c #396C396C39D3",
"r c #39D3396C39D3",
"t c #396C39D339D3",
"y c #3B6E3B6E3B07",
"u c #3D093CA23CA2",
"i c #3CA23D093CA2",
"p c #3D093D093CA2",
"a c #3CA23CA23D09",
"s c #3D093CA23D09",
"d c #3CA23D093D09",
"f c #3EA43EA43E3E",
"g c #4005401B4005",
"h c #417441744174",
"j c #435243544336",
"k c #44AA44AA44AA",
"l c #466D467F4682",
"z c #47E147E147E1",
"x c #49E3497C497C",
"c c #497C49E3497C",
"v c #49E349E3497C",
"b c #497C497C49E3",
"n c #497C49E349E3",
"m c #4B174B174B17",
"M c #4D194CB24CB2",
"N c #4D194D194CB2",
"B c #4D194CB24D19",
"V c #4CB24D194D19",
"C c #4E4E4E4E4E4E",
"Z c #50245020501B",
"A c #51EB51EB51EB",
"S c #534C53345344",
"D c #552155215521",
"F c #565656895693",
"G c #57F157F157F1",
"H c None",
/* pixels */
"HHHHHHHHHHHHHHHHHHHHHHHHHHHHHHHHHHHHHHHHHHHHHHHHHHHHHHHHHHHHHHHHHHHHHHHHHHHHHHHHHHHHHHHHHHHHHHHHHHHHHHHHHHHHHHHHHHHHHHHHHHHHHHHH",
"HHHHHHHHHHHHHHHHHHHHHHHHHHHHHHHHHHHHHHHHHHHHHHHHHHHHHHHHHHHHHHHHHHHHHHHHHHHHHHHHHHHHHHHHHHHHHHHHHHHHHHHHHHHHHHHHHHHHHHHHHHHHHHHH",
"HHHHHHHHHHHHHHHHHHHHHHHHHHHHHHHHHHHHHHHHHHHHHHHHHHHHHHHHHHHHHHHHHHHHHHHHHHHHHHHHHHHHHHHHHHHHHHHHHHHHHHHHHHHHHHHHHHHHHHHHHHHHHHHH",
"HHHHHHHHHHHHHHHHHHHHHHHHHHHHHHHHHHHHHHHHHHHHHHHHHHHHHHHHHHHHHHHHHHHHHHHHHHHHHHHHHHHHHHHHHHHHHHHHHHHHHHHHHHHHHHHHHHHHHHHHHHHHHHHH",
"HHHHHHHHHHHHHHHHHHHHHHHHHHHHHHHHHHHHHHHHHHHHHHHHHHHHHHHHHHHHHHHHHHHHHHHHHHHHHHHHHHHHHHHHHHHHHHHHHHHHHHHHHHHHHHHHHHHHHHHHHHHHHHHH",
"HHHHHHHHHHHHHHHHHHHHHHHHHHHHHHHHHHHHHHHHHHHHHHHHHHHHHHHHHGGGGGGGGGGGGGGGGHHHHHHHHHHHHHHHHHHHHHHHHHHHHHHHHHHHHHHHHHHHHHHHHHHHHHHH",
"HHHHHHHHHHHHHHHHHHHHHHHHHHHHHHHHHHHHHHHHHHHHHHHHHHHHGGGGGGGGGGGGGGGGGGGGGGGGGGHHHHHHHHHHHHHHHHHHHHHHHHHHHHHHHHHHHHHHHHHHHHHHHHHH",
"HHHHHHHHHHHHHHHHHHHHHHHHHHHHHHHHHHHHHHHHHHHHHHHHGGGGGGGGGGGGGGGGGGGGGGGGGGGGGGGGGGHHHHHHHHHHHHHHHHHHHHHHHHHHHHHHHHHHHHHHHHHHHHHH",
"HHHHHHHHHHHHHHHHHHHHHHHHHHHHHHHHHHHHHHHHHHHHHHGGGGGGGGGGGGGGGGGGGGGGGGGGGGGGGGGGGGGGGHHHHHHHHHHHHHHHHHHHHHHHHHHHHHHHHHHHHHHHHHHH",
"HHHHHHHHHHHHHHHHHHHHHHHHHHHHHHHHHHHHHHHHHHHGGGGGGGGGGGGGGGGGGGGGGGGGGGGGGGGGGGGGGGGGGGGHHHHHHHHHHHHHHHHHHHHHHHHHHHHHHHHHHHHHHHHH",
"HHHHHHHHHHHHHHHHHHHHHHHHHHHHHHHHHHHHHHHHHGGGGGGGGGGGGGGGGGGGGGGGGGGGGGGGGGGGGGGGGGGGGGGGGFHHHHHHHHHHHHHHHHHHHHHHHHHHHHHHHHHHHHHH",
"HHHHHHHHHHHHHHHHHHHHHHHHHHHHHHHHHHHHHHHFGGGGGGGGGGGGGGGGGGGGGGGGGGGGGGFGGGGGGGGGDGGGGGGGGGFDHHHHHHHHHHHHHHHHHHHHHHHHHHHHHHHHHHHH",
"HHHHHHHHHHHHHHHHHHHHHHHHHHHHHHHHHHHHHFFGGGGGFGGGGGGGGGGGGGGGGGFGGGGGGFGGGGGGGGGGGGGGGGFGFGGFGHHHHHHHHHHHHHHHHHHHHHHHHHHHHHHHHHHH",
"HHHHHHHHHHHHHHHHHHHHHHHHHHHHHHHHHHHFFGFGGGFFFGFGGGGGGFFFGGFGGFGGGGGGGFFGGGGGGGGGGDDGFFGFGFFFFGFHHHHHHHHHHHHHHHHHHHHHHHHHHHHHHHHH",
"HHHHHHHHHHHHHHHHHHHHHHHHHHHHHHHHHHFFFGFFFFFFFFFFGGGGFFFFGGGFFFFFFGGGFFFFGFGGGGGGGGGDDGFFFFGFFFFFGHHHHHHHHHHHHHHHHHHHHHHHHHHHHHHH",
"HHHHHHHHHHHHHHHHHHHHHHHHHHHHHHHHSFFFFFFFFFFFFFFFGGGGFFFFGGGGFFFFFGGGFFFFFFGGGGGGFFDFGDFFFFFFFFFFGDHHHHHHHHHHHHHHHHHHHHHHHHHHHHHH",
"HHHHHHHHHHHHHHHHHHHHHHHHHHHHHHHDDFFFDFFFFFFFFDFFDFFFFFDFFFFFFDFDFFFDFFDDDDGDGDFDFFFFFFFDDDDFFDFFGDDZHHHHHHHHHHHHHHHHHHHHHHHHHHHH",
"HHHHHHHHHHHHHHHHHHHHHHHHHHHHHZDDFDDFDFDFDFFDFDFFFFDFDDFDDFDDDFDDDFDFDFFDDDDDDDFDDDDFDDDDDDDDDFDDDDDDDHHHHHHHHHHHHHHHHHHHHHHHHHHH",
"HHHHHHHHHHHHHHHHHHHHHHHHHHHHZDDDDDDDDFDFDDDFDDDDDDDDDDDDDFDDDDDDDDFDFDDDDDDDDDFDDDDDDDDDDDDDDDDDDDDDDDHHHHHHHHHHHHHHHHHHHHHHHHHH",
"HHHHHHHHHHHHHHHHHHHHHHHHHHHDDDDDDDDDDDDDDDDDDDDDDDDDDDDDDDSDNkkczkkkkzSSDDDDDDDDDDDDDDDDDDDDDDDDDDDDDDDHHHHHHHHHHHHHHHHHHHHHHHHH",
"HHHHHHHHHHHHHHHHHHHHHHHHHHZDDDDDDDDDDDDDDDDSDDDDDDDSDDZch0;;$..*5....o;=6akZZDDDSDDDDDSDDSDDDDDDDDDDDDSSHHHHHHHHHHHHHHHHHHHHHHHH",
"HHHHHHHHHHHHHHHHHHHHHHHHHSDDDDDDSDSDZDSDDSDDSDDSDDDZk6*# .     oy&       XX&1imZDDSDDDSDDDDSSSDDDDDZDSDDDHHHHHHHHHHHHHHHHHHHHHHH",
"HHHHHHHHHHHHHHHHHHHHHHHHZDDSDDDDSDSDDDSDSSDSSDSSZh5*.    HHHHHHHkaHHHH   o.XXX#1scSDDDDSDDDSDZDSDSDSDDDDZDHHHHHHHHHHHHHHHHHHHHHH",
"HHHHHHHHHHHHHHHHHHHHHHHZDDDDZDDZDSDSSDDDDSSDDSmy>o   HHHHHHHHHHHcZ2HHHHHHHH.Xo+oX*6kZSSSSDZDSDDZZSDSZDSSDDSHHHHHHHHHHHHHHHHHHHHH",
"HHHHHHHHHHHHHHHHHHHHHHZDSDDDZDZDSSSDSSDZDDDZm0&  HHHHHHHHHHHHHHHmDhHHHHHHHHHHH.o#X.#5hZDZDDZDSSDDSDZDDZDDSSZHHHHHHHHHHHHHHHHHHHH",
"HHHHHHHHHHHHHHHHHHHHHZZDZZDZDSDSSDSSSSSSZZZh;  HHHHHHHHHHHHHHHHHZZZHHHHHHHHHHHHHH.oX @8NDZDDZDZDDZZDSSZSZDZDSHHHHHHHHHHHHHHHHHHH",
"HHHHHHHHHHHHHHHHHHHHNSDZDDZDDZZDDZDZZDSDSc4X HHHHHHHHHHHHHHHHHHgSSZHHHHHHHHHHHHHHHH X..&aZZDDSZDSZDSSZSSSZZDSZHHHHHHHHHHHHHHHHHH",
"HHHHHHHHHHHHHHHHHHHmSZSZZSDZDZDZZDZDSZZS0& HHHHHHHHHHHHHHHHHHHHNZSZHHHHHHHHHHHHHHHHHH.  o2mZZZDZZSSZSDSZZDSZSSZHHHHHHHHHHHHHHHHH",
"HHHHHHHHHHHHHHHHHHHZSSZSZDZSZZZDSSZDSZc6OHHHHHHHHHHHHHHHHHHHHHHZSZZNHHHHHHHHHHHHHHHHHHH.  >hZZZDZSZSZSZSSZDDDZDNHHHHHHHHHHHHHHHH",
"HHHHHHHHHHHHHHHHHHZZZSSSSZDZZDZSZSSZZm1 HHHHHHHHHHHHHHHHHHHHHHmZSSZcHHHHHHHHHHHHHHHHHHHHH  $hZSZSZSSSZZSZSZZZZZZHHHHHHHHHHHHHHHH",
"HHHHHHHHHHHHHHHHHcZSZSSSZSZSZDDZSZZZg;HHHHHHHHHHHHHHHHHHHHHHHmZSZZZcHHHHHHHHHHHHHHHHHHHHHH  #6NZZSSZSSSZZZZZZZZDZHHHHHHHHHHHHHHH",
"HHHHHHHHHHHHHHHHHZSZZSZZZZDZZZZZZZSa#HHHHHHHHHHHHHHHHHHHHHHHzZSSSZZHHHHHHHHHHHHHHHHHHHHHHHHH  1NZZZZZZZZDZZZDZZZZZHHHHHHHHHHHHHH",
"HHHHHHHHHHHHHHHHmZZSZZZZZZSZZZZZZAs#HHHHHHHHHHHHHHHHHHHHHHHkZZZZZZmHHHHHHHHHHHHHHHHHHHHHHHHHH  5NZAZZZZAZZZZZZZZZZHHHHHHHHHHHHHH",
"HHHHHHHHHHHHHHHkZZZZZZZZZSZZZZZZZg#HHHHHHHHHHHHHHHHHHHHHHHHZZZZZZZaHHHHHHHHHHHHHHHHHHHHHHHHHHH  5mZZZZZNZZZZZZZVZZZHHHHHHHHHHHHH",
"HHHHHHHHHHHHHHHNZZZZZZZZZZZZZZZZc>HHHHHHHHHHHHHHHHHHHHHHHHmZZBZZZZHHHHHHHHHHHHHHHHHHHHHHHHHHHHH  8NZZZAZZZBZZZZZZZZHHHHHHHHHHHHH",
"HHHHHHHHHHHHHHkZZZZZZAZZZZZZZZZc4HHHHHHHHHHHHHHHHHHHHHHHHmZZZZVZZaHHHHHHHHHHHHHHHHHHHHHHHHHHHHHH $aZNZZZZZZZZZZZZZZNHHHHHHHHHHHH",
"HHHHHHHHHHHHHHmZZBZVZZZZZZZVZZm5HHHHHHHHHHHHHHHHHHHHHHHHcZZZZZZZNHHHHHHHHHHHHHHHHHHHHHHHHHHHHHHHH $kNmZZZBZZZZZmZNZZHHHHHHHHHHHH",
"HHHHHHHHHHHHHkZZZZZZZBZmVZZZZVyHHHHHHHHHHHHHHHHHHHHHHHHHNZmZmZmZjHHHHHHHHHHHHHHHHHHHHHHHHHHHHHHHHH 4mZmZZmmZBmZZmZZmmHHHHHHHHHHH",
"HHHHHHHHHHHHHmNNZmBZBZZZBZVBBk$HHHHHHHHHHHHHHHHHHHHHHHHmZNZNZVZZ8HHHHHHHHHHHHHHHHHHHHHHHHHHHHHHHHHH 5mZNZZZZZmmZZZNZZHHHHHHHHHHH",
"HHHHHHHHHHHHhZNZZmZBZmmZZVBZm5HHHHHHHHHHHHHHHHHHHHHHHHzNNZNZVZmmHHHHHHHHHHHHHHHHHHHHHHHHHHHHHHHHHHHH+gmZmZmmZZZZZmZmNmHHHHHHHHHH",
"HHHHHHHHHHHHmZNZZZmNZZZZNZZNyHHHHHHHHHHHHHHHHHHHHHHHHHmZmAmAmmAkHHHHHHHHHHHHHHHHHHHHHHHHHHHHHHHHHHHH :cNNNZNmZmmNZZNNmHHHHHHHHHH",
"HHHHHHHHHHHymNZNmZZmZmmmNNNc=HHHHHHHHHHHHHHHHHHHHHHHHkmZmBBmAAmzHHHHHHHHHHHHHHHHHHHHHHHHHHHHHHHHHHHHHXiNZNmNNZZNmNcZZZmHHHHHHHHH",
"HHHHHHHHHHHkNZNNZmmNcZmZNNN0HHHHHHHHHHHHHHHHHHHHHHHHHmNmZmmAmmmmHHHHHHHHHHHHHHHHHHHHHHHHHHHHHHHHHHHHHH=kZmNmNmmZZmZmmNmHHHHHHHHH",
"HHHHHHHHHHHmmcZmNmZZNmmZNNc;HHHHHHHHHHHHHHHHHHHHHHHHhZmZZNmmAmZNjHHHHHHHHHHHHHHHHHHHHHHHHHHHHHHHHHHHHH 5mNmZZmmZmNmNNmNHHHHHHHHH",
"HHHHHHHHHHamNZmNNNmmmZNNmmyHHHHHHHHHHHHHHHHHHHHHHHHHmmmZmBBmmmAmccHHHHHHHHHHHHHHHHHHHHHHHHHHHHHHHHHHHHH&zmNmNmNmmZmmNmmmHHHHHHHH",
"HHHHHHHHHHkmmmNmmmmZmNmNNz:HHHHHHHHHHHHHHHHHHHHHHHHymmmmmmmZmAxmmmcNHHHHHHHHHHHHHHHHHHHHHHHHHHHHHHHHHHH.0mmmZmmNmmmmmNNmHHHHHHHH",
"HHHHHHHHHHmmmZmNmZmNmmmmmyHHHHHHHHHHHHHHHHHHHHHHHHHkmmmBmmmmmmmmNmNcmNmmHHHHHHHHHHHHHHHHHHHHHHHHHHHHHHHH>cmmmmmmmZmmmmmmHHHHHHHH",
"HHHHHHHHH8mmmmmmmNmNmmmmm5HHHHHHHHHHHHHHHHHcHHHHHHHmmmmZmmmmmmmmmmmmmmmmmmmHHHHHHHHHHHHHHHHHHHHHHHHHHHHH.ammmmmmmmmmmmmmcHHHHHHH",
"HHHHHHHHHammmmmmmmmmmmmmhHHHHHHHHHHHHHHHHHHHNHHHHH0cmmmmmmmmmmmmmmmmmmmmmmmzHHHHHHHHHHHHHHHHHHHHHHHHHHHHH5zmmmmmmmmmmmmmzHHHHHHH",
"HHHHHHHHHkmmmmmmmmmmmmmm0HHHHHHHHHHHHHHHHHHHcHHHHHymmmmmmmmmmmzmmmmmmmmmmbmmmHHHHHHHHHHmHHHHHHHHHHHHHHHHH*kmcmmcmmmmmmmmmHHHHHHH",
"HHHHHHHHHzmmmmmmmcmmcmmc1HHHHHHHHHHHHHHHHHHHmcHHHHhcmmmmmmmmzcmmmcmmmccmmmzmccHHHHHHHHccHHHHHHHHHHHHHHHHHXgmcmmmmmmbmxcccHHHHHHH",
"HHHHHHHH6ccmmmcmcmcmcmckHHHHHHHHHHHHHHHHHHHhmcHHHHcccmccmzmcmmmmmmcmcmcmxmmmmcmHHHHHHHkcHHHHHHHHHHHHHHHHHH7cmzmczmzbcmccmkHHHHHH",
"HHHHHHHH9cccmcccmmzmmcmhHHHHHHHHHHHHHHHHHHHaccHHHHzccmzmccccczcccmzmccccbmccmzmHHHHHHHcccHHHHHHHHHHHHHHHHH1cccccmzczmbbbclHHHHHH",
"HHHHHHHHscmzccmmczmcccz9HHHHHHHHHHHHHHHHHHHhccHHHHkmmzmzbbbbmmccccbmbbccbccczmmzHHHHHHcczHHHHHHHHHHHHHHHHH*kzcccbmbmczbbzcHHHHHH",
"HHHHHHHHkzbmmzzzzmcccczHHHHHHHHHHHHHHHHHHHHzczHHHHszzbzcbbzzzzczzzzzbbczzbmzcmzzHHHHHHkccHHHHHHHHHHHHHHHHHOhccccbbzzccbcczHHHHHH",
"HHHHHHHHkzzzmzcczzzczmzHHHHHHHHHHHHHHHHHHHazczHHHH6zbbczzmzbzmzcmzmzzzzbzzzzzzzzjHHHHHazzzHHHHHHHHHHHHHHHHHyzzzzzzbzzzzzzzHHHHHH",
"HHHHHHHHhcccczczzzmzczhHHHHHHHHHHHHHHHHHHHkcchHHHH;kcccczczzzzzcmzczzzzzzbzzzmzzkHHHHH8zzckHHHHHHHHHHHHHHHH5czzzzzzzzzzzzzHHHHHH",
"HHHHHHHHkczzzzzzzzzzzzhHHHHHHHHHHHHHHHHHHjzcchHHHHH5kczzzzzzzzzzzzzzzzczzzzzzzzzcHHHHHHkzcckHHHHHHHHHHHHHHH5zzzzzzzzzzzzzzHHHHHH",
"HHHHHHH5kzzzzzzzzzzzczhHHHHHHHHHHHHHHHHHhzzzc0HHHHH 1kcczzzzzzzzzzzzzzzzzzzzzzzzkHHHHHH0zzzzcHHHHHHHHHHHHHH5kzzzzlczzkczzzhHHHHH",
"HHHHHHH5czzzzzzzzzzzkz8HHHHHHHHHHHHHHHHkzckzhHHHHHHH 1akzckzzckczkkzzzzzzzzlzzzzcHHHHHH>hzklclHHHHHHHHHHHHH-hckckzkckckzkchHHHHH",
"HHHHHHH5kckczkzkzzlzzk8HHHHHHHHHHHHHHHhczzcz0HHHHHHHH #5azczkczkzkzkzkzkzkzzkzzzzHHHHHHH0ckzzzkkHHHHHHHHHHHHhzkzckzzczkzkzkHHHHH",
"HHHHHHH4kkzzkcckzlzlzz8HHHHHHHHHHHHHHkzzzkzk5HHHHHHHHH  #2ajzkzkzzkzzkzzzckkkzzkkHHHHHHH-hckklzkkHHHHHHHHHHHhkzzkzzkkzzkkzhHHHHH",
"HHHHHHH4czzzzckzkzkzkk8HHHHHHHHHHHHHckckkzkhHHHHHHHHHHH   #;9hkzzzzkzzzkkkkzkzkkgHHHHHHHH8kkkckzckHHHHHHHHHHhzzkkzkzckkzckhHHHHH",
"HHHHHHH4kkkkkkzkllzkkzHHHHHHHHHHHHHkkkkzzkz0HHHHHHHHHHHHH   .%8jkkkzklkzkzzkzkzk0HHHHHHHH=hzzkkklkkkHHHHHHHHhkkkzkkkkkkkzkhHHHHH",
"HHHHHHH5kkkkkkkzkckckkHHHHHHHHHHHHkkklklckh8HHHHHHHHHHHHHHH   X=9kkzkkkkzkkkzzkkHHHHHHHHHH0kkkkkkkkzkHHHHHHHhkkzkkkckkzkkkhHHHHH",
"HHHHHHH1kkzzkzkkkkkkkk0HHHHHHHHHHhkzklkkkkjHHHHHHHHHHHHHHHHHH   $9kkkkkzkkzkkkk8HHHHHHHHHH5kkkckkkzkkkHHHHHHhkkkkkkkkkkkkkhHHHHH",
"HHHHHHH1kckkkzkkkkkkkzgHHHHHHHHHHhkkkkkkkkjHHHHHHHHHHHHHHHHHHHH  $skkkkkkkkkkkhHHHHHHHHHHH5kkkkkkkkkkkhHHHH2kkkkkkkkkkkkkkaHHHHH",
"HHHHHHH;hkkkkkkkkkkkkkhHHHHHHHHHakkklkkkkkkyHHHHHHHHHHHHHHHHHHHH  2kkkkkkkkkkk6HHHHHHHHHHH6jkkkkkkkkkkjHHHH6jkkkkjkkkkkkkk9HHHHH",
"HHHHHHHHakkkkkkkkkkkkkhHHHHHHHHH0kkkkkkkkkkhHHHHHHHHHHHHHHHHHHHHH =hkhkkkkkkk8HHHHHHHHHHHHakkkjkkjkjkkkaHHH6jkkkkkkjkkkkjjHHHHHH",
"HHHHHHHHakkkjkkjkkjkkjhHHHHHHHHH0kkhjkkjkhkhgHHHHHHHHHHHHHHHHHHHHH@akkkkkhkj0&HHHHHHHHHHH6hkkjkkjkjkjjkhHHH0kkhkkjkjjjhkjjHHHHHH",
"HHHHHHHHakkkjkkjkjjkkkjHHHHHHHHH0hkkjkkjkjkkhHHHHHHHHHHHHHHHHHHHHH@ajjjjjkj0&HHHHHHHHHHHHhjjjjkjjjjjjjjhHHHghkjkjjjjjjkkjkHHHHHH",
"HHHHHHHH8khkjjjkjkjjjjjHHHHHHHHH6kkhjjjjjjjjjjHHHHHHHHHHHHHHHHHHHH@gjkjkjja&HHHHHHHHHHHHhhhkhkkhkjkjjkkaHHHakhjjkjjjhjjjhgHHHHHH",
"HHHHHHHH2kjkhkkjjjkhkkjaHHHHHHHH5kjhkkjkhjjjhjhHHHHHHHHHHHHHHHHHHH>hjjjkkg2HHHHHHHHHHHHhkjjjhjkkjhkhjkhaHH2hjjjhhjjjhkhjjaHHHHHH",
"HHHHHHHH1hjjkhhkjjhkhhhhHHHHHHHH5hjjjhkhjjjjjjjhHHHHHHHHHHHHHHHHHH8hhjhhg2HHHHHHHHHHHHhjgkgkhkghhjhhjhh8HH5hhjhkjjhjjhjjhaHHHHHH",
"HHHHHHHH$ahhhkhhhkhkhkkhHHHHHHHH5hhhhhhhjjhhhjhjhhHHHHHHHHHHHHHHHHajhjhh1HHHHHHHHHHHhhhhgkkghkhhhkkhhhhHHH0hhhhhhjhjhhhhh6HHHHHH",
"HHHHHHHHHahhhhhjhhhhhhhhiHHHHHHH&yhkhkhhhhjhjhhjhhhHHHHHHHHHHHHHH8hjhha1HHHHHHHHHHghhhkhkghhhghhhhhhhh8HHHghhhhhhhhjhhhhhHHHHHHH",
"HHHHHHHHH6hhhhhhhhhhhhhhaHHHHHHHH5hhhhhhhhhhhhhhhhhhhHHHHHHHHHHHHhhhhg1HHHHHHHHHfhhhhhhhghhhhhhhhhhha7HHH5hhhhhhhhhhhhhhaHHHHHHH",
"HHHHHHHHH>hhhhhhhhhhhhhhhHHHHHHHHO8hhhhhhhhhhhhhhhhhhhHHHHHHHHHHyhhhh1HHHHHHHHHahhhhhhhhhhhhhhhhhha6&HHHH0ghhghhhhhhhhhg0HHHHHHH",
"HHHHHHHHH$ihhhhhhhhhhhhhhyHHHHHHHH;ahhhhhhhhhhhghahhhhHHHHHHHHHyhhhh8@HHHHHHHHghhfhhghhhhhhhhhhhhs>XHHHHHahhhhhhhhhhhhhh6HHHHHHH",
"HHHHHHHHHH8hhhahhhhhhhhhhgHHHHHHHH.6hhhhhghahghhhhghghHHHHHHHHighhay&HHHHHHHHHhhhghfhghfhfhgggggs> HHHHH8ahhahhhahhahahaHHHHHHHH",
"HHHHHHHHHH1ahhhhfhhhfhhhggHHHHHHHHH;aggjggghghghggggggaHHHHHHihgghg5HHHHHHHHH8gggggggjggghgghggg1HHHHHHHugghghgghhahgha8HHHHHHHH",
"HHHHHHHHHH&0ahhahhfhfhfhfhgHHHHHHHHX9gggggggggggfjhgghiHHHHHufhghai&HHHHHHHHH8ggggggguggfggfggk8%HHHHHH5fhfffhugghhghgg5HHHHHHHH",
"HHHHHHHHHHH8hagggffhfguggggHHHHHHHHH2gghggggghgufgggggiHHHH0uguggh8HHHHHHHHHHiggggugggujggggfgf5HHHHHHHigffhgfuggaagghyHHHHHHHHH",
"HHHHHHHHHHH>agggfhffhfhggggaHHHHHHHH*igaggiggughggugfg8HHHHghgggga6HHHHHHHHHH8agggggggguguggguu*HHHHHH8ufggffgggghgaaa0HHHHHHHHH",
"HHHHHHHHHHH#0agggfghgggugiugiHHHHHHHO0ggfgffffgfgiggga6HHHigigggggiHHHHHHHHHH1aghuffigugguguagyHHHHHHHggfhffuguggifffi1HHHHHHHHH",
"HHHHHHHHHHHH2gggffffuugggggggHHHHHHHX9agffffffffgagiayHHHagggiuggaaHHHHHHHHHH=aafgffugguugugga8HHHHHH8giffffguguigffg8HHHHHHHHHH",
"HHHHHHHHHHHH$yigffffguguiugugyHHHHHHH0agffffffffggaga5HHygaagguuaga0HHHHHHHHHH5gffugguuggugiag8HHHHHHifuffffugugguggi5HHHHHHHHHH",
"HHHHHHHHHHHH 5iiffffguugguugigHHHHHHH0gaffffffffaaga6HH8agaguigigaaaHHHHHHHHHH#8fuguuuguugygyg8HHHHHiguguffuggygigiuiHHHHHHHHHHH",
"HHHHHHHHHHHHH$0agagggygiygygyggHHHHHH8yuffguuugiygy2$H1aygygyaygiiiiyHHHHHHHHHH*6iiugyggyigygyyHHHH0aggygyyigygyigaa5HHHHHHHHHHH",
"HHHHHHHHHHHHH 5assyiygigygyusygaHHHH5igguuuigigiy9< H@8aagagggygigyggyyHHHHHHHH @2iuaaysgygassy1HH8aaassssagiiaaiaa0HHHHHHHHHHHH",
"HHHHHHHHHHHHHH$0siygyaaagyagaiyuyHHHyigyugiiiiii7% HH2yaaaaayayguuiiagguyHHHHHHH X;8iiaauuyiagu9H6yaiiaasissaaaaiia2HHHHHHHHHHHH",
"HHHHHHHHHHHHHH 1ygsaiiaagyiiaaygy8H8iiaauuiiyii1+ HHH0aagayyygydiiiiyyyaya0HHHHHH  $5aaaiiiiauuu0yaaiiiiiisiiiyiii6HHHHHHHHHHHHH",
"HHHHHHHHHHHHHHHO6aaaygiiyaiiaagyyayyaaaaygaaii7+ HHH2yygyyyyyygyiiyiyiyyayiy82HHHH  #8aayyyyyayyyiyiyaaiiyiyayayyy;HHHHHHHHHHHHH",
"HHHHHHHHHHHHHHH =0ayyuyiyaiyyiyyyaayyayyiyyayy; HHHH7yyyyyygyyyyiyiiyyygayyiyi5HHHH  1yyyigyyyygyayayyyyiayiyayyy5HHHHHHHHHHHHHH",
"HHHHHHHHHHHHHHHH.1gyyyiyyiyyyaayayyaiyyiyyayyy=HHHH*0yyayyyyyyyyyyiyyuyyyyayyyy1HHHH *8yyyyyyyyyayyyyyyyyyyyyyyy8&HHHHHHHHHHHHHH",
"HHHHHHHHHHHHHHHHH@5yyyyyyyyyyyyyyyyiyyyyyyyyyy;HHHH:yyyyyyyyyyyyyyyyyyyyyyyyyyy8HHHH *0yyyyyyyyyyyyyyyyyyyyyyyi8;HHHHHHHHHHHHHHH",
"HHHHHHHHHHHHHHHHH =8yyyyyyyyyyyyyyyyyyyyyyyyyy2HHHH5yyyyyyyyyyyyyyyyyyyyyyyyyyy9HHHH.20iiii0yyy0yyyyyyyyy0yyyyy2HHHHHHHHHHHHHHHH",
"HHHHHHHHHHHHHHHHHH 1y0y00yyy0yy90yyttyyyyyy9ty9HHHH8yyyy0yy9yyyyy9yyy9yy9yyy9yyy2HHH@680i80iy0yyyy0yy0y0yyy90y6HHHHHHHHHHHHHHHHH",
"HHHHHHHHHHHHHHHHHHHo200yy0yyy9y00y9yyy9yyyy9yy97HH;9yy0yyyy99y9yy9y0y9y9yyyyy9y05HHH10ii8ii08iiyyyyyy08yy00yy7*HHHHHHHHHHHHHHHHH",
"HHHHHHHHHHHHHHHHHHH o5y00y0yyyy0y0yy9yy9yy9y9y99221099y09y9yy09y9yty9yy0y99y9y091HH:8i8ii8i8i88y8i8y9y0y0y908*HHHHHHHHHHHHHHHHHH",
"HHHHHHHHHHHHHHHHHHHH &80yy9y9yy9yy9y9yy09y9yty9y8999yyy9yy9y90y9y000y9y99y9y90991;>8000888iy08ii000090090009>HHHHHHHHHHHHHHHHHHH",
"HHHHHHHHHHHHHHHHHHHHH &69900099y99t9y99099y999y9987099909y9yyy9y90y99y9y99y900y966888i0i8iy8y8800000y99y999<HHHHHHHHHHHHHHHHHHHH",
"HHHHHHHHHHHHHHHHHHHHHH &6yy99990y9y999099y9yty9y99999yy999909998y99999y9y99y9088680008y00y0809998y909090091HHHHHHHHHHHHHHHHHHHHH",
"HHHHHHHHHHHHHHHHHHHHHHH %6909y99999y999099999999900999999y99099999y99999999909998999080088y899999090999981HHHHHHHHHHHHHHHHHHHHHH",
"HHHHHHHHHHHHHHHHHHHHHHHH *690999999999999999999999999999999999999999999999999999999999999999999999999990>HHHHHHHHHHHHHHHHHHHHHHH",
"HHHHHHHHHHHHHHHHHHHHHHHH  &6999999999999999999999999999999999999999999999999998999999999999999999999008:HHHHHHHHHHHHHHHHHHHHHHHH",
"HHHHHHHHHHHHHHHHHHHHHHHHHH $19999900998999099999999999899899999999979999999988999989998999898989999985&HHHHHHHHHHHHHHHHHHHHHHHHH",
"HHHHHHHHHHHHHHHHHHHHHHHHHHH o<99989899989889989999997999999889899999879980898989899898988899898988986&HHHHHHHHHHHHHHHHHHHHHHHHHH",
"HHHHHHHHHHHHHHHHHHHHHHHHHHHH X=68898988888988888888898998888989897799798889889988088889888988888880>#HHHHHHHHHHHHHHHHHHHHHHHHHHH",
"HHHHHHHHHHHHHHHHHHHHHHHHHHHHH  &298888888888888998888988888898888998798888888888888888888888898886=XHHHHHHHHHHHHHHHHHHHHHHHHHHHH",
"HHHHHHHHHHHHHHHHHHHHHHHHHHHHHH  o:688888888887788788878888888888889787888878888788878888887888081%HHHHHHHHHHHHHHHHHHHHHHHHHHHHHH",
"HHHHHHHHHHHHHHHHHHHHHHHHHHHHHHHH  %168888888888888788877887887777787787887887887878787878788785=XHHHHHHHHHHHHHHHHHHHHHHHHHHHHHHH",
"HHHHHHHHHHHHHHHHHHHHHHHHHHHHHHHHH  X=58887877878878877778888788778877777797777777777777787776>O HHHHHHHHHHHHHHHHHHHHHHHHHHHHHHHH",
"HHHHHHHHHHHHHHHHHHHHHHHHHHHHHHHHHH   o;5887777777777877786867777777777777777777777777777776>& HHHHHHHHHHHHHHHHHHHHHHHHHHHHHHHHHH",
"HHHHHHHHHHHHHHHHHHHHHHHHHHHHHHHHHHHH   o=5777788777777776888777777777776777767777778787861$.HHHHHHHHHHHHHHHHHHHHHHHHHHHHHHHHHHHH",
"HHHHHHHHHHHHHHHHHHHHHHHHHHHHHHHHHHHHHH   o&16778776777777867777877777777777777777778762=+  HHHHHHHHHHHHHHHHHHHHHHHHHHHHHHHHHHHHH",
"HHHHHHHHHHHHHHHHHHHHHHHHHHHHHHHHHHHHHHHH   .$>566877777777677766677677777777777688651*o  HHHHHHHHHHHHHHHHHHHHHHHHHHHHHHHHHHHHHHH",
"HHHHHHHHHHHHHHHHHHHHHHHHHHHHHHHHHHHHHHHHHH    X$;26668676767677767777676676867765>&O. HHHHHHHHHHHHHHHHHHHHHHHHHHHHHHHHHHHHHHHHHH",
"HHHHHHHHHHHHHHHHHHHHHHHHHHHHHHHHHHHHHHHHHHHHH    X$&1166687667867676676776662<=$o.  HHHHHHHHHHHHHHHHHHHHHHHHHHHHHHHHHHHHHHHHHHHH",
"HHHHHHHHHHHHHHHHHHHHHHHHHHHHHHHHHHHHHHHHHHHHHHH      .@#*>>>1566665662<><=$#X.   HHHHHHHHHHHHHHHHHHHHHHHHHHHHHHHHHHHHHHHHHHHHHHH",
"HHHHHHHHHHHHHHHHHHHHHHHHHHHHHHHHHHHHHHHHHHHHHHHHHHH         .O@##O@##X        HHHHHHHHHHHHHHHHHHHHHHHHHHHHHHHHHHHHHHHHHHHHHHHHHH",
"HHHHHHHHHHHHHHHHHHHHHHHHHHHHHHHHHHHHHHHHHHHHHHHHHHHHHHHH                 HHHHHHHHHHHHHHHHHHHHHHHHHHHHHHHHHHHHHHHHHHHHHHHHHHHHHHH",
"HHHHHHHHHHHHHHHHHHHHHHHHHHHHHHHHHHHHHHHHHHHHHHHHHHHHHHHHHHHHHHHHHHHHHHHHHHHHHHHHHHHHHHHHHHHHHHHHHHHHHHHHHHHHHHHHHHHHHHHHHHHHHHHH",
"HHHHHHHHHHHHHHHHHHHHHHHHHHHHHHHHHHHHHHHHHHHHHHHHHHHHHHHHHHHHHHHHHHHHHHHHHHHHHHHHHHHHHHHHHHHHHHHHHHHHHHHHHHHHHHHHHHHHHHHHHHHHHHHH",
"HHHHHHHHHHHHHHHHHHHHHHHHHHHHHHHHHHHHHHHHHHHHHHHHHHHHHHHHHHHHHHHHHHHHHHHHHHHHHHHHHHHHHHHHHHHHHHHHHHHHHHHHHHHHHHHHHHHHHHHHHHHHHHHH",
"HHHHHHHHHHHHHHHHHHHHHHHHHHHHHHHHHHHHHHHHHHHHHHHHHHHHHHHHHHHHHHHHHHHHHHHHHHHHHHHHHHHHHHHHHHHHHHHHHHHHHHHHHHHHHHHHHHHHHHHHHHHHHHHH",
"HHHHHHHHHHHHHHHHHHHHHHHHHHHHHHHHHHHHHHHHHHHHHHHHHHHHHHHHHHHHHHHHHHHHHHHHHHHHHHHHHHHHHHHHHHHHHHHHHHHHHHHHHHHHHHHHHHHHHHHHHHHHHHHH",
"HHHHHHHHHHHHHHHHHHHHHHHHHHHHHHHHHHHHHHHHHHHHHHHHHHHHHHHHHHHHHHHHHHHHHHHHHHHHHHHHHHHHHHHHHHHHHHHHHHHHHHHHHHHHHHHHHHHHHHHHHHHHHHHH"
};
