/* XPM */
static char *kommander[] = {
/* columns rows colors chars-per-pixel */
"128 128 63 1 ",
"  c black",
". c #04D104D104D1",
"X c gray3",
"o c #0B3E0B3E0B3E",
"O c #0DA70DA70DA7",
"+ c #11AB11AB11AB",
"@ c #14E114E114E1",
"# c #17B117B117B1",
"$ c #1B4E1B4E1B4E",
"% c #1E841E841E1E",
"& c #21BB21BB21BB",
"* c #24F124F124F1",
"= c #25BF268C268C",
"- c #2626262626F3",
"; c #27C127C127C1",
": c #2B5E2B5E2B5E",
"> c gray18",
", c #316431643164",
"< c #336632FF3366",
"1 c #349A349A349A",
"2 c #365136593665",
"3 c gray22",
"4 c #39D3396C396C",
"5 c #396C39D3396C",
"6 c #39D339D3396C",
"7 c #396C396C39D3",
"8 c #39D3396C39D3",
"9 c #396C39D339D3",
"0 c #3B6E3B6E3B6E",
"q c #3D093CA23CA2",
"w c #3CA23D093CA2",
"e c #3D093D093CA2",
"r c #3CA23CA23D09",
"t c #3D093CA23D09",
"y c #3CA23D093D09",
"u c #3E3E3E3E3E3E",
"i c #400B3FF9400E",
"p c #41DB41DB41DB",
"a c #4339434B4342",
"s c #451145114511",
"d c #4665466C4672",
"f c #47E147E147E1",
"g c #49E3497C497C",
"h c #497C49E3497C",
"j c #49E349E3497C",
"k c #497C497C49E3",
"l c #49E3497C49E3",
"z c #497C49E349E3",
"x c #4B7E4B7E4B7E",
"c c #4D194CB24CB2",
"v c #4CB24D194CB2",
"b c #4D194D194CB2",
"n c #4CB24CB24D19",
"m c #4D194CB24D19",
"M c #4CB24D194D19",
"N c #4EB44EB44EB4",
"B c #502B501A5028",
"V c #51EB51EB51EB",
"C c #535453515350",
"Z c gray33",
"A c #567C56965656",
"S c #57F157F157F1",
"D c None",
/* pixels */
"DDDDDDDDDDDDDDDDDDDDDDDDDDDDDDDDDDDDDDDDDDDDDDDDDDDDDDDDDDDDDDDDDDDDDDDDDDDDDDDDDDDDDDDDDDDDDDDDDDDDDDDDDDDDDDDDDDDDDDDDDDDDDDDD",
"DDDDDDDDDDDDDDDDDDDDDDDDDDDDDDDDDDDDDDDDDDDDDDDDDDDDDDDDDDDDDDDDDDDDDDDDDDDDDDDDDDDDDDDDDDDDDDDDDDDDDDDDDDDDDDDDDDDDDDDDDDDDDDDD",
"DDDDDDDDDDDDDDDDDDDDDDDDDDDDDDDDDDDDDDDDDDDDDDDDDDDDDDDDDDDDDDDDDDDDDDDDDDDDDDDDDDDDDDDDDDDDDDDDDDDDDDDDDDDDDDDDDDDDDDDDDDDDDDDD",
"DDDDDDDDDDDDDDDDDDDDDDDDDDDDDDDDDDDDDDDDDDDDDDDDDDDDDDDDDDDDDDDDDDDDDDDDDDDDDDDDDDDDDDDDDDDDDDDDDDDDDDDDDDDDDDDDDDDDDDDDDDDDDDDD",
"DDDDDDDDDDDDDDDDDDDDDDDDDDDDDDDDDDDDDDDDDDDDDDDDDDDDDDDDDDDDDDDDDDDDDDDDDDDDDDDDDDDDDDDDDDDDDDDDDDDDDDDDDDDDDDDDDDDDDDDDDDDDDDDD",
"DDDDDDDDDDDDDDDDDDDDDDDDDDDDDDDDDDDDDDDDDDDDDDDDDDDDDDDDDDDDDDDDDDDDDDDDDDDDDDDDDDDDDDDDDDDDDDDDDDDDDDDDDDDDDDDDDDDDDDDDDDDDDDDD",
"DDDDDDDDDDDDDDDDDDDDDDDDDDDDDDDDDDDDDDDDDDDDDDDDDDDDDDDDDDDDDDDDDDDDDDDDDDDDDDDDDDDDDDDDDDDDDDDDDDDDDDDDDDDDDDDDDDDDDDDDDDDDDDDD",
"DDDDDDDDDDDDDDDDDDDDDDDDDDDDDDDDDDDDDDDDDDDDDDDDDDDDDDDDDDDDDDDDDDDDDDDDDDDDDDDDDDDDDDDDDDDDDDDDDDDDDDDDDDDDDDDDDDDDDDDDDDDDDDDD",
"DDDDDDDDDDDDDDDDDDDDDDDDDDDDDDDDDDDDDDDDDDDDDDDDDDDDDDDDDDDDDDDDDDDDDDDDDDDDDDDDDDDDDDDDDDDDDDDDDDDDDDDDDDDDDDDDDDDDDDDDDDDDDDDD",
"DDDDDDDDDDDDDDDDDDDDDDDDDDDDDDDDDDDDDDDDDDDDDDDDDDDDDDDDDDDDDDDDDDDDDDDDDDDDDDDDDDDDDDDDDDDDDDDDDDDDDDDDDDDDDDDDDDDDDDDDDDDDDDDD",
"DDDDDDDDDDDDDDDDDDDDDDDDDDDDDDDDDDDDDDDDDDDDDDDDDDDDDDDDDDDDDDDDDDDDDDDDDDDDDDDDDDDDDDDDDDDDDDDDDDDDDDDDDDDDDDDDDDDDDDDDDDDDDDDD",
"DDDDDDDDDDDDDDDDDDDDDDDDDDDDDDDDDDDDDDDDDDDDDDDDDDDDDDDDDDDDDDDDDDDDDDDDDDDDDDDDDDDDDDDDDDDDDDDDDDDDDDDDDDDDDDDDDDDDDDDDDDDDDDDD",
"DDDDDDDDDDDDDDDDDDDDDDDDDDDDDDDDDDDDDDDDDDDDDDDDDDDDDDDDDDDDDDDDDDDDDDDDDDDDDDDDDDDDDDDDDDDDDDDDDDDDDDDDDDDDDDDDDDDDDDDDDDDDDDDD",
"DDDDDDDDDDDDDDDDDDDDDDDDDDDDDDDDDDDDDDDDDDDDDDDDDDDDDDDDDDDDSSSSSSSSSDDDDDDDDDDDDDDDDDDDDDDDDDDDDDDDDDDDDDDDDDDDDDDDDDDDDDDDDDDD",
"DDDDDDDDDDDDDDDDDDDDDDDDDDDDDDDDDDDDDDDDDDDDDDDDDDDDDDDDDDSSSSSSSSSSSSDDDDDDDDDDDDDDDDDDDDDDDDDDDDDDDDDDDDDDDDDDDDDDDDDDDDDDDDDD",
"DDDDDDDDDDDDDDDDDDDDDDDDDDDDDDDDDDDDDDDDDDDDDDDDDDDDDDDDDDSSSSSSSSSSSSSDDDDDDDDDDDDDDDDDDDDDDDDDDDDDDDDDDDDDDDDDDDDDDDDDDDDDDDDD",
"DDDDDDDDDDDDDDDDDDDDDDDDDDDDDDDDDDDDDDDDDDDDDDDDDDDDDDDDDDSSSSSSSSSSSSSSDDDDDDDDDDDDDDDDDDDDDDDDDDDDDDDDDDDDDDDDDDDDDDDDDDDDDDDD",
"DDDDDDDDDDDDDDDDDDDDDDDDDDDDDDDDDDDDDDDDDDDDDDDDDDDDDDDDDCSSSSSSSSSSSSSSDDDDDDDDDDDDDDDDDDDDDDDDDDDDDDDDDDDDDDDDDDDDDDDDDDDDDDDD",
"DDDDDDDDDDDDDDDDDDDDDDDDDDDDDDDDDDDDDDDDDDDDDDDDDDDDDDDDDZSASASASSSSSSSSDDDDDDDDDDDDDDDDDDDDDDDDDDDDDDDDDDDDDDDDDDDDDDDDDDDDDDDD",
"DDDDDDDDDDDDDDDDDDDDDDDDDDDDDDDDDDDDDDDDDDDDDDDDDDDDDDDDsSAASAAASSSSSSSSDDDDDDDDDDDDDDDDDDDDDDDDDDDDDDDDDDDDDDDDDDDDDDDDDDDDDDDD",
"DDDDDDDDDDDDDDDDDDDDDDDDDDDDDDDDDDDDDDDDDDDDDDDDDDDDDDDDxAAAAAASAAAASSZSBDDDDDDDDDDDDDDDDDDDDDDDDDDDDDDDDDDDDDDDDDDDDDDDDDDDDDDD",
"DDDDDDDDDDDDDDDDDDDDDDDDDDDDDDDDDDDDDDDDDDDDDDDDDDDDDDDDBAAAASACAAZASSAAZDDDDDDDDDDDDDDDDDDDDDDDDDDDDDDDDDDDDDDDDDDDDDDDDDDDDDDD",
"DDDDDDDDDDDDDDDDDDDDDDDDDDDDDDDDDDDDDDDDDDDDDDDDDDDDDDDCZAZZSCCSZAZAAZAZZCDDDDDDDDDDDDDDDDDDDDDDDDDDDDDDDDDDDDDDDDDDDDDDDDDDDDDD",
"DDDDDDDDDDDDDDDDDDDDDDDDDDDDDDDDDDDDDDDDDDDDDDDDDDDDDDNZZZAZCSCCZZAZZAZZZSBDDDDDDDDDDDDDDDDDDZDDDDDDDDDDDDDDDDDDDDDDDDDDDDDDDDDD",
"DDDDDDDDDDDDDDDDDDDDDDDDDDDDDDDDDDDDDDDDDDDDDDDDDDDDBBZACACCCACAZZZZZZZZZZZZZZDDDDDDDDDDDDDCZZZZDDDDDDDDDDDDDDDDDDDDDDDDDDDDDDDD",
"DDDDDDDDDDDDDDDDDDDDDDDDDDDDDDDDBZZZZZZDDDDDDDDDDDCZZZZZCCCACCCAZZZZZZZZZZZZZZZZDDDDDDDDDBCZZZZZZBDDDDDDDDDDDDDDDDDDDDDDDDDDDDDD",
"DDDDDDDDDDDDDDDDDDDDDDDDDDDDDDDBCZZCZZZCDDDDDDDBZZZZZZZCCACCACCCCZZZZZZCZCZZZZZZZBBDDDDBBZZZZZCZZZCDDDDDDDDDDDDDDDDDDDDDDDDDDDDD",
"DDDDDDDDDDDDDDDDDDDDDDDDDDDDDDBBZCCCZZCCZCDDBZZCBZZZZBZZCCCCCCCCZCZZCCCCBZCCBZZZZZZZZBZZZZCCBZCCCZZDDDDDDDDDDDDDDDDDDDDDDDDDDDDD",
"DDDDDDDDDDDDDDDDDDDDDDDDDDDDDBZBCCCCCZCCCZZCZZZCCCZZCCBZCCCCCCCCCBZCCCZCZCZCZBZCZZZZBZZZBZCCCCCCCZCCBDDDDDDDDDDDDDDDDDDDDDDDDDDD",
"DDDDDDDDDDDDDDDDDDDDDDDDDDDDNBZZCCBCCBCCCBZBBZBZBZBZCZZBCCVVCCCBZCZZZBZZZBBCCZBCZBZBZZBZCZCCCBCCBZBCBDDDDDDDDDDDDDDDDDDDDDDDDDDD",
"DDDDDDDDDDDDDDDDDDDDDDDDDDDxBZBBCCBCBCBCCCCCBZZBBZZBCZBZCVCVBCCCBBZBBCZBCBCZBBZCBZZZBBZBCBCCCBCCCCZCCBDDDDDDDDDDDDDDDDDDDDDDDDDD",
"DDDDDDDDDDDDDDDDDDDDDDDDDDDBBZBZCBCCBCCCBBCBCBCCBCZBBBZBVVVCBCBCBZBZCBBCBCBCCCCBCBBBBZBZBCBCBCCBCBBCBBDDDDDDDDDDDDDDDDDDDDDDDDDD",
"DDDDDDDDDDDDDDDDDDDDDDDDDDDBCBCCBBZBCBCZBCBZBZBZCBCCBCCBBCCBCBCCBCCBCBBCCBBCBCCBBCCCCBBCBCCCCBBCCBBCBBDDDDDDDDDDDDDDDDDDDDDDDDDD",
"DDDDDDDDDDDDDDDDDDDDDDDDDDDNBBBBCBCBBBBBBBZBBBBBBCBBCBBCCBCBBBBBBBBCBBCBBCBCBBBCBBBBBBCBBBBBBBCBCBZBBBDDDDDDDDDDDDDDDDDDDDDDDDDD",
"DDDDDDDDDDDDDDDDDDDDDDDDDDDaBBBBBBBBCBBBBCBBBBBBBBBBBBBBBBBBBCBBBCCBBBBBBBBBCBBBBBCBBBBBBCCBBBBBBBBBBhDDDDDDDDDDDDDDDDDDDDDDDDDD",
"DDDDDDDDDDDDDDDDDDDDDDDDDDDDpBBBBBBBBBBBBBBBBCBBBBBBBBBBBBBBBBBBBBBBBBBBBBBBBBBBBBBBBBBBBBBBBBBBBBBBNDDDDDDDDDDDDDDDDDDDDDDDDDDD",
"DDDDDDDDDDDDDDDDDDDDDDDDDDDD*xBBBBBBBBBBBBBBBBBBBBBBBBNBBBBBBBBBBBBBBBNBBBBBBBNBBBBBNBBBBBNBBNBBNBNh,DDDDDDDDDDDDDDDDDDDDDDDDDDD",
"DDDDDDDDDDDDDDDDDDDDDDDDDDDDX0BBBBNBBNBNBBNBBBBBBNNBNNBNBBBBxBBBBNNBBNBNBBBNNBBNBBxBBBNNBBBNBNNBBNN8DDDDDDDDDDDDDDDDDDDDDDDDDDDD",
"DDDDDDDDDDDDDDDDDDDDDDDDDDDDD;NNBNBNNBNBNNBNNBNNNBBNNBNNNBNBBBBBBNNBNBBNNBNNNNNNxBBBBNNNBNNNNNNNNNNDDDDDDDDDDDDDDDDDDDDDDDDDDDDD",
"DDDDDDDDDDDDDDDDDDDDDDDDDDDDDOdNBNNNNNNNNNNNNNNNNNNNNNNNNNNNBxBxNNNNNNNNNNNNNNNNBBxBNNNNNNNNNNNNNNpDDDDDDDDDDDDDDDDDDDDDDDDDDDDD",
"DDDDDDDDDDDDDDDDDDDDDDDDDDDDD.pNNNNNNNNNNNNNNNNNNNNNNNNNNNNNNNNxNNBNNNxBBNNBNxBNBxxBNBBxxBNNNxxBNNtDDDDDDDDDDDDDDDDDDDDDDDDDDDDD",
"DDDDDDDDDDDDDDDDDDDDDDDDDDDDDDtNxNNNNNNNNNNBxNxNNNNxBxBxxNxNxNNNNNBxxBxNxBNxxBxNxBNBNxBxNBxBxBBxNNNDDDDDDDDDDDDDDDDDDDDDDDDDDDDD",
"DDDDDDDDDDDDDDDDDDDDDDDDDDDDDDtNNcNchNxNNxBxNNNNxNxBxNNNNxNNNNNNxxBBxBxMNxxNxBxNxBxxxBxBBxNBxNxNNNh8DDDDDDDDDDDDDDDDDDDDDDDDDDDD",
"DDDDDDDDDDDDDDDDDDDDDDDDDDDDDDpNxNNhNcNNxNxNxhNxNNxhNxxNxNhNNhBxxNxxxMMMxBxNNxxNBxxBxxxxxxxxBxxBhhNhDDDDDDDDDDDDDDDDDDDDDDDDDDDD",
"DDDDDDDDDDDDDDDDDDDDDDDDDDDDD8xNxxNxNchxNNxNxNxNNxNNxNxNNxxNap,%%%>tasBxxBxxxBxxxBxNxxBxccccccxcNhNhDDDDDDDDDDDDDDDDDDDDDDDDDDDD",
"DDDDDDDDDDDDDDDDDDDDDDDDDDDDDdNhNxNxxNNxhhNhNhxxxxhNxxxchd2&...    ..+=5xxxxxxNNxxxxBxxxxcxchcxcNNNxdDDDDDDDDDDDDDDDDDDDDDDDDDDD",
"DDDDDDDDDDDDDDDDDDDDDDDDDDDD1xcxxxxxxxNxNhxNhNxxxNxxNhhd8+X            X&0fxxxxxxxxxxxxxxxxxcxxxhxxxhDDDDDDDDDDDDDDDDDDDDDDDDDDD",
"DDDDDDDDDDDDDDDDDDDDDDDDDDDDpxxxxxxxxxhxxxxxxxxxxxxxxx0&.   DDDDDDDD     o*sxxxxxxxxxxxxxxxxxxxxhxxxhDDDDDDDDDDDDDDDDDDDDDDDDDDD",
"DDDDDDDDDDDDDDDDDDDDDDDDDDDDhhcxxxchccxxfchcxfcchcxfl>.  DDDDDDDDDDDDDD    ;hhhNxhxxxxxhxxxxxfcxhxcchhDDDDDDDDDDDDDDDDDDDDDDDDDD",
"DDDDDDDDDDDDDDDDDDDDDDDDDDDthxhhxhhcfhfxccxhfcfcffcf> DDDDDDDDDDDDDDDDDDD   @thhxxxfxhxhlxxfxxhxhxhhxhDDDDDDDDDDDDDDDDDDDDDDDDDD",
"DDDDDDDDDDDDDDDDDDDDDDDDDDDdhhcchchhfxxxxfxfhchxclh1.DDDDDDDDDDDDDDDDDDDDDD  ;dhxfhxfxfxxhfxxfchhhhhhhdDDDDDDDDDDDDDDDDDDDDDDDDD",
"DDDDDDDDDDDDDDDDDDDDDDDDDD8hhhhhhhhhhfxfxflxhhhfxfa@DDDDDDDDDDDDDDDDDDDDDDDD  *dfxhhxfxffxffllfxhhhhhhhDDDDDDDDDDDDDDDDDDDDDDDDD",
"DDDDDDDDDDDDDDDDDDDDDDDDDtdhhhhhfxxfxxffllllllfldd*DDDDDDDDDDDDDDDDDDDDDDDDDD  ,fhhhhhhfhhhffxfffhfhhhffdDDDDDDDDDDDDDDDDDDDDDDD",
"DDDDDDDDDDDDDDDDDDDDDDDDafhhhffhffffffxfflfffflfh8DDDDDDDDDDDDDDDDDDDDDDDDDDDD #pffffffffffxffhffhfffhfhhdhDDDDDDDDDDDDDDDDDDDDD",
"DDDDDDDDDDDDDDDDDDDDDdhhxddxdhfffffxffffffflfffff&DDDDDDDDDDDDDDDDDDDDDDDDDDDDD ,ffffhffffffffhfffffffhfffdffffDDDDDDDDDDDDDDDDD",
"DDDDDDDDDDDDDDDDDDddhdhdfffdhdffffffffffffffffffpDDDDDDDDDDDDDDDDDDDDDDDDDDDDDD @pffffffffffffffffffffffffffffffDDDDDDDDDDDDDDDD",
"DDDDDDDDDDDDDDDDDddddffffdfffffdfffffdffffffffff2DDDDDDDDDDDDDDDDDDDDDDDDDDDDDDDo8ffffffffffffdfffffffffffdffdffhDDDDDDDDDDDDDDD",
"DDDDDDDDDDDDDDDDDhffhddfdhfffdfdfffffffffffddfdf*DDDDDDDDDDDDDDDDDDDDDDDDDDDDDDDD;fdfdfdaffffaffffffaffffdfddfdfdDDDDDDDDDDDDDDD",
"DDDDDDDDDDDDDDDDtdddddfddddddfffddddfdffdfddfdfuDDDDDDDDDDDDDDDDDDDDDDDDDDDDDDDDD*dfddfdfdfadffffffdffdfdddfdddddDDDDDDDDDDDDDDD",
"DDDDDDDDDDDDDDDD8dddddddddddsddddfdddfadadfadfauDDDDDDDDDDDDDDDDDDDDDDDDDDDDDDDDD$adddddafdffadffaafafaaddfddddddDDDDDDDDDDDDDDD",
"DDDDDDDDDDDDDDDD2ddddadddddsdsdsdaddddfafafdddduDDDDDDDDDDDDDDDDDDDDDDDDDDDDDDDDDDtfdfdfdfddffaaafafffaadddddddddDDDDDDDDDDDDDDD",
"DDDDDDDDDDDDDDDD<ddadddaddsdsdsdddaddaddafaddadiDDDDDDDDDDDDDDDDDDDDDDDDDDDDDDDDDDtdadaaaddaafdffafdaffffadppddpdDDDDDDDDDDDDDDD",
"DDDDDDDDDDDDDDDD,addadadsssssssddadddadaddaddaduDDDDDDDDDDDDDDDDDDDDDDDDDDDDDDDDDDtddaaddaaddaafadfaafafdddpdddddDDDDDDDDDDDDDDD",
"DDDDDDDDDDDDDDDD>daddddassssssssadadadadaddaadaiDDDDDDDDDDDDDDDDDDDDDDDDDDDDDDDDD%aaddddaddaaadadaaafaaapadddadpdDDDDDDDDDDDDDDD",
"DDDDDDDDDDDDDDDD>dsddddaaddapddaadddaaaasdaddaauDDDDDDDDDDDDDDDDDDDDDDDDDDDDDDDDD:addsssssasdaaddadaadpdpdssspspdDDDDDDDDDDDDDDD",
"DDDDDDDDDDDDDDDD>ppspaaappdaadpaaapadadaaaaaadaaDDDDDDDDDDDDDDDDDDDDDDDDDDDDDDDDD:aaaaaaaasaaaaaaaaaadapsapssssppDDDDDDDDDDDDDDD",
"DDDDDDDDDDDDDDDD*psppaaaaaaaadaaaaaaaaaaaaaaaaaaDDDDDDDDDDDDDDDDDDDDDDDDDDDDDDDDD0aaaaaaaaaaaaaaaaaaaaaaaaspppastDDDDDDDDDDDDDDD",
"DDDDDDDDDDDDDDDDD2ppdpaaaaaappaaaaaaaaaaaaaaaaaauDDDDDDDDDDDDDDDDDDDDDDDDDDDDDDDD0aaaaaaaaaapaaaaaaaaapaaapapsaa2DDDDDDDDDDDDDDD",
"DDDDDDDDDDDDDDDDD+20tappaaapapaaaapaapapaaaipauaaDDDDDDDDDDDDDDDDDDDDDDDDDDDDDDD3uaaaaaaaapapaaaaaapaapaapaaa00,DDDDDDDDDDDDDDDD",
"DDDDDDDDDDDDDDDDDDXXO&,tapappappappppapapaaaapaaauDDDDDDDDDDDDDDDDDDDDDDDDDDDDDDuaaaiiapppapappppppaappppp2*&ODDDDDDDDDDDDDDDDDD",
"DDDDDDDDDDDDDDDDDDD   .X&5pppppppppppppppaiappppppDDDDDDDDDDDDDDDDDDDDDDDDDDDDD2ppppappppppppppppppppppi2&o  DDDDDDDDDDDDDDDDDDD",
"DDDDDDDDDDDDDDDDDDDD     #5ppppppppppppppiaipppapppDDDDDDDDDDDDDDDDDDDDDDDDDDDDtpppppppppppppppppppppat*o   DDDDDDDDDDDDDDDDDDDD",
"DDDDDDDDDDDDDDDDDDDDDD    $8pppppppuapipataappuappptDDDDDDDDDDDDDDDDDDDDDDDDDDtppuaptauaipipaupaipipip,o DDDDDDDDDDDDDDDDDDDDDDD",
"DDDDDDDDDDDDDDDDDDDDDDDD   *ptpppipiipataupttpauptppuDDDDDDDDDDDDDDDDDDDDDDDD8tppuiaauaupippuauipiiipp&DDDDDDDDDDDDDDDDDDDDDDDDD",
"DDDDDDDDDDDDDDDDDDDDDDDDDD $tpuuipuapiipuatpaaupiupuptDDDDDDDDDDDDDDDDDDDDDD0iptipauuuaaupaua0iiiiipp,oDDDDDDDDDDDDDDDDDDDDDDDDD",
"DDDDDDDDDDDDDDDDDDDDDDDDDDD.>ptptpiutautauiatuauupuptpuDDDDDDDDDDDDDDDDDDDDttptapuuapuuiuuiuuapuiiiup*DDDDDDDDDDDDDDDDDDDDDDDDDD",
"DDDDDDDDDDDDDDDDDDDDDDDDDDD &uuauauuuatiiuauuiautauaiatuDDDDDDDDDDDDDDDDDttpuiupiuitiuiiuiuipuupitiut#DDDDDDDDDDDDDDDDDDDDDDDDDD",
"DDDDDDDDDDDDDDDDDDDDDDDDDDDDO3uuutiauuuuiutuiutiuuuuuuuuiutDDDDDDDDDDDDtuiuuptuuiuuiuuuuiuuuuuuutiuu>DDDDDDDDDDDDDDDDDDDDDDDDDDD",
"DDDDDDDDDDDDDDDDDDDDDDDDDDDDD;uuuuuuuuuuuuuuuuuuuuuuuuuuuuuuutDDDDDDttuuuuuuuuuuuuuuuuuuuuuuuuuuuuut$DDDDDDDDDDDDDDDDDDDDDDDDDDD",
"DDDDDDDDDDDDDDDDDDDDDDDDDDDDD$uuuuuuuuuuuuuuuuuuuuuuuuuuuuutuuuuuuuuuuuuuuuuuuuuuuuuuuuuuuuuuuuuuuu3DDDDDDDDDDDDDDDDDDDDDDDDDDDD",
"DDDDDDDDDDDDDDDDDDDDDDDDDDDDD.:tututtttutuuuuuuttttuutuuuuuwttuttuutuuuuttutuututuuwuututtttuuttttt;DDDDDDDDDDDDDDDDDDDDDDDDDDDD",
"DDDDDDDDDDDDDDDDDDDDDDDDDDDDDD$twwtuwwtuttttttwutttttutwwwtwtttuutt0tt0uwwtttttwwuww0uqwttttttwwtttDDDDDDDDDDDDDDDDDDDDDDDDDDDDD",
"DDDDDDDDDDDDDDDDDDDDDDDDDDDDDD@0ttttwwwwtuttttwttttttttwttttwwtttttuwwwuwwwwtwwwwwwwwwqqww0wttwwtttDDDDDDDDDDDDDDDDDDDDDDDDDDDDD",
"DDDDDDDDDDDDDDDDDDDDDDDDDDDDDD#0wwttwwwwttttwwwwwwttttuwwwwwwww0ttu0www0w0wwtwwwwwww0wwww0wwutwwwtt,DDDDDDDDDDDDDDDDDDDDDDDDDDDD",
"DDDDDDDDDDDDDDDDDDDDDDDDDDDDDD&twww0w0wwww0www0ww0ttw00www0ww00w0u00w0ww00www0w0000000w0w00ww0ttw0w2DDDDDDDDDDDDDDDDDDDDDDDDDDDD",
"DDDDDDDDDDDDDDDDDDDDDDDDDDDDDD,0www0w000w0wwww00w0000w0w00w0w0w00000w000w0000w0000000tu000w000000ww0,DDDDDDDDDDDDDDDDDDDDDDDDDDD",
"DDDDDDDDDDDDDDDDDDDDDDDDDDDDD:00000000008w00000000000000000000000000000000000000000000000000000000008DDDDDDDDDDDDDDDDDDDDDDDDDDD",
"DDDDDDDDDDDDDDDDDDDDDDDDDDDDD8000000000000800000000800800000080000000000008w8500000000000800088w080888DDDDDDDDDDDDDDDDDDDDDDDDDD",
"DDDDDDDDDDDDDDDDDDDDDDDDDDDD,00000300080800808w8w880888w080808w8005000830000005000400004030088t8030083DDDDDDDDDDDDDDDDDDDDDDDDDD",
"DDDDDDDDDDDDDDDDDDDDDDDDDDDD358835003880888888888550085858585858050330303003305544443030300388883030308DDDDDDDDDDDDDDDDDDDDDDDDD",
"DDDDDDDDDDDDDDDDDDDDDDDDDDD,050803388803888850888855558888588588303003300335050330430330303404833838083DDDDDDDDDDDDDDDDDDDDDDDDD",
"DDDDDDDDDDDDDDDDDDDDDDDDDDD>033003030388555535555835385855558558038335833553353343443434838328430303382DDDDDDDDDDDDDDDDDDDDDDDDD",
"DDDDDDDDDDDDDDDDDDDDDDDDDDDD33333538828358823853333583335833333333333333333333333433333333333333833333DDDDDDDDDDDDDDDDDDDDDDDDDD",
"DDDDDDDDDDDDDDDDDDDDDDDDDDDD:838333333382255523333335333253333333333333333333333333333333333333333333>DDDDDDDDDDDDDDDDDDDDDDDDDD",
"DDDDDDDDDDDDDDDDDDDDDDDDDDDDD;3333332333538555333333255333333333333333333333332333333333333433333332:DDDDDDDDDDDDDDDDDDDDDDDDDDD",
"DDDDDDDDDDDDDDDDDDDDDDDDDDDDD.*1333333323322;:3332323322233332323323333233333333333<::;:23323323338*DDDDDDDDDDDDDDDDDDDDDDDDDDDD",
"DDDDDDDDDDDDDDDDDDDDDDDDDDDDD  &823322222>&+ X@*8882223222832325222228222228328822&+    +&58282822*DDDDDDDDDDDDDDDDDDDDDDDDDDDDD",
"DDDDDDDDDDDDDDDDDDDDDDDDDDDDDD .;223238>@       @*>2282222222222225222222222222;%+.      .%:22222;DDDDDDDDDDDDDDDDDDDDDDDDDDDDDD",
"DDDDDDDDDDDDDDDDDDDDDDDDDDDDDDD X*,82>%X         .X%:,2222222222222222222222,*$X           X$*,*$.DDDDDDDDDDDDDDDDDDDDDDDDDDDDDD",
"DDDDDDDDDDDDDDDDDDDDDDDDDDDDDDDD .@&&@  DDDDDDD     X+&221222<222222222122,*+   DDDDDDDDD     O DDDDDDDDDDDDDDDDDDDDDDDDDDDDDDDD",
"DDDDDDDDDDDDDDDDDDDDDDDDDDDDDDDDD     DDDDDDDDDDDD     %11221211,2,22122<2%   DDDDDDDDDDDDDD  DDDDDDDDDDDDDDDDDDDDDDDDDDDDDDDDDD",
"DDDDDDDDDDDDDDDDDDDDDDDDDDDDDDDDDDDDDDDDDDDDDDDDDDDD    %111111122221<111;X DDDDDDDDDDDDDDDDDDDDDDDDDDDDDDDDDDDDDDDDDDDDDDDDDDDD",
"DDDDDDDDDDDDDDDDDDDDDDDDDDDDDDDDDDDDDDDDDDDDDDDDDDDDDD  X>111111,2,222222&DDDDDDDDDDDDDDDDDDDDDDDDDDDDDDDDDDDDDDDDDDDDDDDDDDDDDD",
"DDDDDDDDDDDDDDDDDDDDDDDDDDDDDDDDDDDDDDDDDDDDDDDDDDDDDDD  %11111122,2,1<,,+DDDDDDDDDDDDDDDDDDDDDDDDDDDDDDDDDDDDDDDDDDDDDDDDDDDDDD",
"DDDDDDDDDDDDDDDDDDDDDDDDDDDDDDDDDDDDDDDDDDDDDDDDDDDDDDDD %22,111<221,111>DDDDDDDDDDDDDDDDDDDDDDDDDDDDDDDDDDDDDDDDDDDDDDDDDDDDDDD",
"DDDDDDDDDDDDDDDDDDDDDDDDDDDDDDDDDDDDDDDDDDDDDDDDDDDDDDDDD$,,11<<<,,11,,1&DDDDDDDDDDDDDDDDDDDDDDDDDDDDDDDDDDDDDDDDDDDDDDDDDDDDDDD",
"DDDDDDDDDDDDDDDDDDDDDDDDDDDDDDDDDDDDDDDDDDDDDDDDDDDDDDDDDo><1,,1,,2,,111%DDDDDDDDDDDDDDDDDDDDDDDDDDDDDDDDDDDDDDDDDDDDDDDDDDDDDDD",
"DDDDDDDDDDDDDDDDDDDDDDDDDDDDDDDDDDDDDDDDDDDDDDDDDDDDDDDDDD&,,1112,,11,1,DDDDDDDDDDDDDDDDDDDDDDDDDDDDDDDDDDDDDDDDDDDDDDDDDDDDDDDD",
"DDDDDDDDDDDDDDDDDDDDDDDDDDDDDDDDDDDDDDDDDDDDDDDDDDDDDDDDDDX*1,2,11,,<<<-DDDDDDDDDDDDDDDDDDDDDDDDDDDDDDDDDDDDDDDDDDDDDDDDDDDDDDDD",
"DDDDDDDDDDDDDDDDDDDDDDDDDDDDDDDDDDDDDDDDDDDDDDDDDDDDDDDDDDDX*>>>>>>,>>*DDDDDDDDDDDDDDDDDDDDDDDDDDDDDDDDDDDDDDDDDDDDDDDDDDDDDDDDD",
"DDDDDDDDDDDDDDDDDDDDDDDDDDDDDDDDDDDDDDDDDDDDDDDDDDDDDDDDDDD .X....XXXDDDDDDDDDDDDDDDDDDDDDDDDDDDDDDDDDDDDDDDDDDDDDDDDDDDDDDDDDDD",
"DDDDDDDDDDDDDDDDDDDDDDDDDDDDDDDDDDDDDDDDDDDDDDDDDDDDDDDDDDDDD       DDDDDDDDDDDDDDDDDDDDDDDDDDDDDDDDDDDDDDDDDDDDDDDDDDDDDDDDDDDD",
"DDDDDDDDDDDDDDDDDDDDDDDDDDDDDDDDDDDDDDDDDDDDDDDDDDDDDDDDDDDDDDDDDDDDDDDDDDDDDDDDDDDDDDDDDDDDDDDDDDDDDDDDDDDDDDDDDDDDDDDDDDDDDDDD",
"DDDDDDDDDDDDDDDDDDDDDDDDDDDDDDDDDDDDDDDDDDDDDDDDDDDDDDDDDDDDDDDDDDDDDDDDDDDDDDDDDDDDDDDDDDDDDDDDDDDDDDDDDDDDDDDDDDDDDDDDDDDDDDDD",
"DDDDDDDDDDDDDDDDDDDDDDDDDDDDDDDDDDDDDDDDDDDDDDDDDDDDDDDDDDDDDDDDDDDDDDDDDDDDDDDDDDDDDDDDDDDDDDDDDDDDDDDDDDDDDDDDDDDDDDDDDDDDDDDD",
"DDDDDDDDDDDDDDDDDDDDDDDDDDDDDDDDDDDDDDDDDDDDDDDDDDDDDDDDDDDDDDDDDDDDDDDDDDDDDDDDDDDDDDDDDDDDDDDDDDDDDDDDDDDDDDDDDDDDDDDDDDDDDDDD",
"DDDDDDDDDDDDDDDDDDDDDDDDDDDDDDDDDDDDDDDDDDDDDDDDDDDDDDDDDDDDDDDDDDDDDDDDDDDDDDDDDDDDDDDDDDDDDDDDDDDDDDDDDDDDDDDDDDDDDDDDDDDDDDDD",
"DDDDDDDDDDDDDDDDDDDDDDDDDDDDDDDDDDDDDDDDDDDDDDDDDDDDDDDDDDDDDDDDDDDDDDDDDDDDDDDDDDDDDDDDDDDDDDDDDDDDDDDDDDDDDDDDDDDDDDDDDDDDDDDD",
"DDDDDDDDDDDDDDDDDDDDDDDDDDDDDDDDDDDDDDDDDDDDDDDDDDDDDDDDDDDDDDDDDDDDDDDDDDDDDDDDDDDDDDDDDDDDDDDDDDDDDDDDDDDDDDDDDDDDDDDDDDDDDDDD",
"DDDDDDDDDDDDDDDDDDDDDDDDDDDDDDDDDDDDDDDDDDDDDDDDDDDDDDDDDDDDDDDDDDDDDDDDDDDDDDDDDDDDDDDDDDDDDDDDDDDDDDDDDDDDDDDDDDDDDDDDDDDDDDDD",
"DDDDDDDDDDDDDDDDDDDDDDDDDDDDDDDDDDDDDDDDDDDDDDDDDDDDDDDDDDDDDDDDDDDDDDDDDDDDDDDDDDDDDDDDDDDDDDDDDDDDDDDDDDDDDDDDDDDDDDDDDDDDDDDD",
"DDDDDDDDDDDDDDDDDDDDDDDDDDDDDDDDDDDDDDDDDDDDDDDDDDDDDDDDDDDDDDDDDDDDDDDDDDDDDDDDDDDDDDDDDDDDDDDDDDDDDDDDDDDDDDDDDDDDDDDDDDDDDDDD",
"DDDDDDDDDDDDDDDDDDDDDDDDDDDDDDDDDDDDDDDDDDDDDDDDDDDDDDDDDDDDDDDDDDDDDDDDDDDDDDDDDDDDDDDDDDDDDDDDDDDDDDDDDDDDDDDDDDDDDDDDDDDDDDDD",
"DDDDDDDDDDDDDDDDDDDDDDDDDDDDDDDDDDDDDDDDDDDDDDDDDDDDDDDDDDDDDDDDDDDDDDDDDDDDDDDDDDDDDDDDDDDDDDDDDDDDDDDDDDDDDDDDDDDDDDDDDDDDDDDD",
"DDDDDDDDDDDDDDDDDDDDDDDDDDDDDDDDDDDDDDDDDDDDDDDDDDDDDDDDDDDDDDDDDDDDDDDDDDDDDDDDDDDDDDDDDDDDDDDDDDDDDDDDDDDDDDDDDDDDDDDDDDDDDDDD",
"DDDDDDDDDDDDDDDDDDDDDDDDDDDDDDDDDDDDDDDDDDDDDDDDDDDDDDDDDDDDDDDDDDDDDDDDDDDDDDDDDDDDDDDDDDDDDDDDDDDDDDDDDDDDDDDDDDDDDDDDDDDDDDDD",
"DDDDDDDDDDDDDDDDDDDDDDDDDDDDDDDDDDDDDDDDDDDDDDDDDDDDDDDDDDDDDDDDDDDDDDDDDDDDDDDDDDDDDDDDDDDDDDDDDDDDDDDDDDDDDDDDDDDDDDDDDDDDDDDD",
"DDDDDDDDDDDDDDDDDDDDDDDDDDDDDDDDDDDDDDDDDDDDDDDDDDDDDDDDDDDDDDDDDDDDDDDDDDDDDDDDDDDDDDDDDDDDDDDDDDDDDDDDDDDDDDDDDDDDDDDDDDDDDDDD"
};
