/* XPM */
static char *kxsldbg[] = {
/* columns rows colors chars-per-pixel */
"128 128 70 1 ",
"  c black",
". c #046A046A046A",
"X c gray3",
"o c #0B3E0B3E0B3E",
"O c #0DA70E0E0E0E",
"+ c #114411441144",
"@ c #147A147A147A",
"# c #17B117B117B1",
"$ c #194C1A1A194C",
"% c #1B4E1B4E1B4E",
"& c #1CE91CE91C82",
"* c #1E1E1E1E1E1E",
"= c #1FB920202020",
"- c #21BB21BB21BB",
"; c #235622882288",
": c #24F124F124F1",
"> c #268C2626268C",
", c #27C127C127C1",
"< c #295C29C329C3",
"1 c #2B5E2B5E2B5E",
"2 c gray18",
"3 c #2FC930302FFD",
"4 c #316431643164",
"5 c #329833663366",
"6 c #349A349A349A",
"7 c #36883649368B",
"8 c gray22",
"9 c #39D3396C396C",
"0 c #396C39D3396C",
"q c #39D339D3396C",
"w c #396C396C39D3",
"e c #39D3396C39D3",
"r c #396C39D339D3",
"t c #3B073B073B07",
"y c #3D093CA23CA2",
"u c #3CA23D093CA2",
"i c #3D093D093CA2",
"p c #3CA23CA23D09",
"a c #3D093CA23D09",
"s c #3CA23D093D09",
"d c #3E3E3E3E3E3E",
"f c #40134010400F",
"g c #41DB41DB41DB",
"h c #4347433D434A",
"j c #451144AA4511",
"k c #46674676465C",
"l c #47E147E147E1",
"z c #49E3497C497C",
"x c #497C49E3497C",
"c c #49E349E3497C",
"v c #497C497C49E3",
"b c #49E3497C49E3",
"n c #497C49E349E3",
"m c #4B174B174B17",
"M c #4D194CB24CB2",
"N c #4CB24D194CB2",
"B c #4D194D194CB2",
"V c #4CB24CB24D19",
"C c #4D194CB24D19",
"Z c #4EB44EB44EB4",
"A c #5009502C5007",
"S c #51EB51EB51EB",
"D c #534253595354",
"F c #54BA54BA54BA",
"G c #569D564D5675",
"H c #57F157F15858",
"J c #59F3598C59F3",
"K c #598C59F359F3",
"L c #5A5A5A5A5A5A",
"P c None",
/* pixels */
"PPPPPPPPPPPPPPPPPPPPPPPPPPPPPPPPPPPPPPPPPPPPPPPPPPPPPPPPPPPPPPPPPPPPPPPPPPPPPPPPPPPPPPPPPPPPPPPPPPPPPPPPPPPPPPPPPPPPPPPPPPPPPPPP",
"PPPPPPPPPPPPPPPPPPPPPPPPPPPPPPPPPPPPPPPPPPPPPPPPPPPPPPPPPPPPPPPPPPPPPPPPPPPPPPPPPPPPPPPPPPPPPPPPPPPPPPPPPPPPPPPPPPPPPPPPPPPPPPPP",
"PPPPPPPPPPPPPPPPPPPPPPPPPPPPPPPPPPPPPPPPPPPPPPPPPPPPPPPPPPPPPPPPPPPPPPPPPPPPPPPPPPPPPPPPPPPPPPPPPPPPPPPPPPPPPPPPPPPPPPPPPPPPPPPP",
"PPPPPPPPPPPPPPPPPPPPPPPPPPPPPPPPPPPPPPPPPPPPPPPPPPPPPPPPPPPPPPPPPPPPPPPPPPPPPPPPPPPPPPPPPPPPPPPPPPPPPPPPPPPPPPPPPPPPPPPPPPPPPPPP",
"PPPPPPPPPPPPPPPPPPPPPPPPPPPPPPPPPPPPPPPPPPPPPPPPPPPPPPPPPPPPPPPPPPPPPPPPPPPPPPPPPPPPPPPPPPPPPPPPPPPPPPPPPPPPPPPPPPPPPPPPPPPPPPPP",
"PPPPPPPPPPPPPPPPPPPPPPPPPPPPPPPPPPPPPPPPPPPPPPPPPPPPPPPPPPPPPPPPPPPPPPPPPPPPPPPPPPPPPPPPPPPPPPPPPPPPPPPPPPPPPPPPPPPPPPPPPPPPPPPP",
"PPPPPPPPPPPPPPPPPPPPPPPPPPPPPPPPPPPPPPPPPPPPPPPPPPPPPPPPPPPPPPPPPPPPPPPPPPPPPPPPPPPPPPPPPPPPPPPPPPPPPPPPPPPPPPPPPPPPPPPPPPPPPPPP",
"PPPPPPPPPPPPPPPPPPPPPPPPPPPPPPPPPPPPPPPPPPPPPPPPPPPPPPPPPPPPPPPPPPPPPPPPPPPPPPPPPPPPPPPPPPPPPPPPPPPPPPPPPPPPPPPPPPPPPPPPPPPPPPPP",
"PPPPPPPPPPPPPPPPPPPPPPPPPPPPPPPPPPPPPPPPPPPPPPPPPPPPPPPPPPPPPPPPPPPPPPPPPPPPPPPPPPPPPPPPPPPPPPPPPPPPPPPPPPPPPPPPPPPPPPPPPPPPPPPP",
"PPPPPPPPPPPPPPPPPPPPPPPPPPPPPPPPPPPPPPPPPPPPPPPPPPPPPPPPPPPPPPPPPPPPPPPPPPPPPPPPPPPPPPPPPPPPPPPPPPPPPPPPPPPPPPPPPPPPPPPPPPPPPPPP",
"PPPPPPPPPPPPPPPPPPPPPPPPPPPPPPPPPPPPPPPPPPPPPPPPPPPPPPPPPPPPPPPPPPPPPPPPPPPPPPPPPPPPPPPPPPPPPPPPPPPPPPPPPPPPPPPPPPPPPPPPPPPPPPPP",
"PPPPPPPPPPPPPPPPPPPPPPPPPPPPPPPPPPPPPPPPPPPPPPPPPPPPPPPPPPPPPPPPPPPPPPPPPPPPPPPPPPPPPPPPPPPPPPPPPPPPPPPPPPPPPPPPPPPPPPPPPPPPPPPP",
"PPPPPPPPPPPPPPPPPPPPPPPPPPPPPPPPPPPPPPPPPPPPPPPPPPPPPPPPPPPPPPPPPPPPPPPPPPPPPPPPPPPPPPPPPPPPPPPPPPPPPPPPPPPPPPPPPPPPPPPPPPPPPPPP",
"PPPPPPPPPPPPPPPPPPPPPPPPPPPPPPPPPPPPPPPPPPPPPPPPPPPPPPPPPPPPPPPPPPPPPPPPPPPPPPPPPPPPPPPPPPPPPPPPPPPPPPPPPPPPPPPPPPPPPPPPPPPPPPPP",
"PPPPPPPPPPPPPPPPPPPPPPPPPPPPPPPPPPPPPPPPPPPPPPPPPPPPPPPPPPPPPPPPPPPPPPPPPPPPPPPPPPPPPPPPPPPPPPPPPPPPPPPPPPPPPPPPPPPPPPPPPPPPPPPP",
"PPPPPPPPPPPPPPPPPPPPPPPPPPPPPPPPPPPPPPPPPPPPPPPPPPPPPPPPPPPPPPPPPPPPPPPPPPPPPPPPPPPPPPPPPPPPPPPPPPPPPPPPPPPPPPPPPPPPPPPPPPPPPPPP",
"PPPPPPPPPPPPPPPPPPPPPPPPPPPPPPPPPPPPPPPPPPPPPLLLLLLLLHPPPPPPPPPPPPPPPPPPPPPPPPPPPPPPPPPPPPPPPPPPPPPPPPPPPPPPPPPPPPPPPPPPPPPPPPPP",
"PPPPPPPPPPPPPPPPPPPPPPPPPPPPPPPPPPPPPPPPPPPPPLLLLLLLLHHPPPPPPPPPPPPPPPPPPPPPPPPPPPPPPPPPPPPPPPPPPPPPPPPPPPPPPPPPPPPPPPPPPPPPPPPP",
"PPPPPPPPPPPPPPPPPPPPPPPPPPPPPPPPPPPPPPPPPPPPPLLHLHLHLHHPPPPPPPPPPPPPPPPPPPPPPPPPPPPPPPPPPPPPPPPPPPPPPPPPPPPPPPPPPPPPPPPPPPPPPPPP",
"PPPPPPPPPPPPPPPPPPPPPPPPPPPPPPPPPPPPPPPPPPPPLHHHLHHLHHHGPPPPPPPPPPPPPPPPPPPPPPPPPPPPPPPPPPPPPPPPPPPPPPPPPPPPPPPPPPPPPPPPPPPPPPPP",
"PPPPPPPPPPPPPPPPPPPPPPPPPPPPPPPPPPPPPPPPPPPPLHHHHHHHHHHGPPPPPPPPPPPPPPPPPPPPPPPPPPPPPPPPPPPPPPPPPPPPPPPPPPPPPPPPPPPPPPPPPPPPPPPP",
"PPPPPPPPPPPPPPPPPPPPPPPPPPPPPPPPPPPPPPPPPPPGHHGHHHHHGHHDPPPPPPPPPPPPPPPPPPPPPPPPPPPPPPPPPPPPPPPPPPPPPPPPPPPPPPPPPPPPPPPPPPPPPPPP",
"PPPPPPPPPPPPPPPPPPPPPPPPPPPPPPPPPPPPPPPPPPPGGGGHHGGGGGGGPPPPPPPPPPPPPPPPPPPPPPPPPPPPPPPPPPPPPPPPPPPPPPPPPPPPPPPPPPPPPPPPPPPPPPPP",
"PPPPPPPPPPPPPPPPPPPPPPPPPPPPPPPPPPPPPPPPPDHGHGGGGGHGGGGGGGPPPPPPPPPPPGHPPPPPPPPPPPPPPPPPPPPPPPPPPPPPPPPPPPPPPPPPPPPPPPPPPPPPPPPP",
"PPPPPPPPPPPPPPPPPPPPPPPPPPGGDGGGPPPPPPDDHHGHDHGGGGHDGHGDGDGGDGPPPPPGDGGDGPPPPPPPPPPPPPPPPPPPPPPPPPPPPPPPPPPPPPPPPPPPPPPPPPPPPPPP",
"PPPPPPPPPPPPPPPPPPPPPPPPPGGDGDGGHPPPGHGDDDDGGDDGGDDGDGDDGDGDGDGPPGGDGGDGDGPPPPPPPPPPPPPPPPPPPPPPPPPPPPPPPPPPPPPPPPPPPPPPPPPPPPPP",
"PPPPPPPPPPPPPPPPPPPPPPPPGGDGGDDDGDDGDDGGDHGDDGGDDGDDGDGDDGGDDGDDGDDGDDDGGDGPPPPPPPPPPPPPPPPPPPPPPPPPPPPPPPPPPPPPPPPPPPPPPPPPPPPP",
"PPPPPPPPPPPPPPPPPPPPPPPDDDGDDGDGDDGDDGDDDDDDDDDDDDDGDDDGDDDGDDDGDDDDDDDDDDDGPPPPPPPPPPPPPPPPPPPPPPPPPPPPPPPPPPPPPPPPPPPPPPPPPPPP",
"PPPPPPPPPPPPPPPPPPPPPPPDDDDGDDDDDDDDDDDDDDDDDDDDDDDDDDDDDDDDDDDDDDDDDDADDDDDDPPPPPPPPPPPPPPPPPPPPPPPPPPPPPPPPPPPPPPPPPPPPPPPPPPP",
"PPPPPPPPPPPPPPPPPPPPPPPGDDDDDDDDDDDDDDDDDSDDDDDDADDADDDDADDADDADADDADDDADADADPPPPPPPPPPPPPPPPPPPPPPPPPPPPPPPPPPPPPPPPPPPPPPPPPPP",
"PPPPPPPPPPPPPPPPPPPPPPPGADDADADDSSSSDSSSDSSSDAADDDDDDAADADADADDADDADDADDACDDCPPPPPPPPPPPPPPPPPPPPPPPPPPPPPPPPPPPPPPPPPPPPPPPPPPP",
"PPPPPPPPPPPPPPPPPPPPPPPfADDADDADSSSSSSSSSSSSADDADAADADDADADDADADADDAADADDDDDPPPPPPPPPPPPPPPPPPPPPPPPPPPPPPPPPPPPPPPPPPPPPPPPPPPP",
"PPPPPPPPPPPPPPPPPPPPPPP6DADDADCDDADAADADAADADDADDDAAAADADCDDAAAADAAAADAADADPPPPPPPPPPPPPPPPPPPPPPPPPPPPPPPPPPPPPPPPPPPPPPPPPPPPP",
"PPPPPPPPPPPPPPPPPPPPPPPPkDCCDAAAAAAAAAAAAAAACAACAAAAADAAAAACAAAAAAAAAAAAAAAPPPPPPPPPPPPPPPPPPPPPPPPPPPPPPPPPPPPPPPPPPPPPPPPPPPPP",
"PPPPPPPPPPPPPPPPPPPPPPPP:ADAAAAAAAAAAAAAAAAAAAAAAADAAAAAAAACAAAAACAACAAACD&PPPPPPPPPPPPPPPPPPPPPPPPPPPPPPPPPPPPPPPPPPPPPPPPPPPPP",
"PPPPPPPPPPPPPPPPPPPPPPPPPDCCAAACCAACAACACAACAACAACCCCCACAACAACACCACAACCACAPPPPPPPPPPPPPPPPPPPPPPPPPPPPPPPPPPPPPPPPPPPPPPPPPPPPPP",
"PPPPPPPPPPPPPPPPPPPPPPPPPACAACCAACCACACACAAACCACCACACACACAACACAAAACAAVACCAPPPPPPPPPPPPPPPPPPPPPPPPPPPPPPPPPPPPPPPPPPPPPPPPPPPPPP",
"PPPPPPPPPPPPPPPPPPPPPPPP&CACCAAAAANAACACACCCANAADCAAACACCVCCVVVACCAmCAzAACAPPPPPPPPPPPPPPPPPPPPPPPPPPPPPPPPPPPPPPPPPPPPPPPPPPPPP",
"PPPPPPPPPPPPPPPPPPPPPPPPkCCACACCmCCACCAACCACADz&-;-:&mACCAmACAmmVAzACmACCCCzPPPPPPPPPPPPPPPPPPPPPPPPPPPPPPPPPPPPPPPPPPPPPPPPPPPP",
"PPPPPPPPPPPPPPPPPPPPPPPwACmCCCmCNNmCmCmmmmmCf .      .ODCmAzmmmAzVmzVmmCmCmzPPPPPPPPPPPPPPPPPPPPPPPPPPPPPPPPPPPPPPPPPPPPPPPPPPPP",
"PPPPPPPPPPPPPPPPPPPPPPPfCCVCCCbZVVVmzACmCAz   PPPPPP    6zVmVVbVmmmVmmmmzVVVPPPPPPPPPPPPPPPPPPPPPPPPPPPPPPPPPPPPPPPPPPPPPPPPPPPP",
"PPPPPPPPPPPPPPPPPPPPPPPCVVzbbCmmmmmVmmmmCh.PPPPPPPPPPPP  %8AzzVVmmmVmmmmVbzlzPPPPPPPPPPPPPPPPPPPPPPPPPPPPPPPPPPPPPPPPPPPPPPPPPPP",
"PPPPPPPPPPPPPPPPPPPPPPPAzVbVmbmmmmVmmmmmz.PPPPPPPPPPPPPP   8VlzzmVmlnmmlnVlzVPPPPPPPPPPPPPPPPPPPPPPPPPPPPPPPPPPPPPPPPPPPPPPPPPPP",
"PPPPPPPPPPPPPPPPPPPPPPzzzzVbzCbbmzlVzzmzPPPPPPPPPPPPPPPPPP 3VlzzzzlmnnmmnlVzzmPPPPPPPPPPPPPPPPPPPPPPPPPPPPPPPPPPPPPPPPPPPPPPPPPP",
"PPPPPPPPPPPPPPPPPPPPPnznzzzzbbbbzzzzzzCPPPPPPPPPPPPPPPPPPPPPhzzzzzlzlzlzzzzzlzzzPPPPPPPPPPPPPPPPPPPPPPPPPPPPPPPPPPPPPPPPPPPPPPPP",
"PPPPPPPPPPPPPPPPPlzzmzzzzzzzmllbzzzzzz8PPPPPPPPPPPPPPPPPPPPP=zzzlzllmzzlllllzllkzzzPPPPPPPPPPPPPPPPPPPPPPPPPPPPPPPPPPPPPPPPPPPPP",
"PPPPPPPPPPPPPPPPzllzzlzlzlzzllbllzlllz,PPPPPPPPPPPPPPPPPPPPPPbkzllllllllllllllkzkzllPPPPPPPPPPPPPPPPPPPPPPPPPPPPPPPPPPPPPPPPPPPP",
"PPPPPPPPPPPPPPPzllllzllllllllllllllllz,PPPPPPPPPPPPPPPPPPPPPP zkllklllllllkllkkzkklzPPPPPPPPPPPPPPPPPPPPPPPPPPPPPPPPPPPPPPPPPPPP",
"PPPPPPPPPPPPPPPzzklllllllllllllllllllwPPPPPPPPPPPPPPPPPPPPPPPozklhlllllklkkzkkbjllkkfPPPPPPPPPPPPPPPPPPPPPPPPPPPPPPPPPPPPPPPPPPP",
"PPPPPPPPPPPPPPPlkkklhllklljlkkkllhkkkdPPPPPPPPPPPPPPPPPPPPPPPPzzkllhhlkklhkkkhkkhlkkfPPPPPPPPPPPPPPPPPPPPPPPPPPPPPPPPPPPPPPPPPPP",
"PPPPPPPPPPPPPPPkkkkllkhllhklhlkkklkkkdPPPPPPPPPPPPPPPPPPPPPPPPzkhlhlhlhlkhkkjkkhkhhktPPPPPPPPPPPPPPPPPPPPPPPPPPPPPPPPPPPPPPPPPPP",
"PPPPPPPPPPPPPPPzhlkhhklhlkhjhlhlhkhlkdPPPPPPPPPPPPPPPPPPPPPPPPkfhlhhlhkhhkkhjjjjkhkktPPPPPPPPPPPPPPPPPPPPPPPPPPPPPPPPPPPPPPPPPPP",
"PPPPPPPPPPPPPPPkjjkjhhkhkhkhkkkkhkhkkfPPPPPPPPPPPPPPPPPPPPPPPPlhkhhhhkhhjhhhjjhjkfkhwPPPPPPPPPPPPPPPPPPPPPPPPPPPPPPPPPPPPPPPPPPP",
"PPPPPPPPPPPPPPPzjjjjhlhkhhhkkfhhhhkhhkPPPPPPPPPPPPPPPPPPPPPPPhfhkhhhhhhhhhhhhhhhkhhh6PPPPPPPPPPPPPPPPPPPPPPPPPPPPPPPPPPPPPPPPPPP",
"PPPPPPPPPPPPPPPOkjjjhkhhkhhhfkhhhjkhhhPPPPPPPPPPPPPPPPPPPPPPPkhhhhhhhhhhhhhhhhhhfhhh8PPPPPPPPPPPPPPPPPPPPPPPPPPPPPPPPPPPPPPPPPPP",
"PPPPPPPPPPPPPPPo62khkhhhhhhhhhhhhhhhhhhPPPPPPPPPPPPPPPPPPPPPPfhhhhhhhhhhhhhhhhhjkw64PPPPPPPPPPPPPPPPPPPPPPPPPPPPPPPPPPPPPPPPPPPP",
"PPPPPPPPPPPPPPPPP &#wkfkffkfhhfkhhhffhhdPPPPPPPPPPPPPPPPPPPPffkkhffhfhfhhhhfhhh#&oPPPPPPPPPPPPPPPPPPPPPPPPPPPPPPPPPPPPPPPPPPPPPP",
"PPPPPPPPPPPPPPPPP   . kffkfffhhffhhhhfhfPPPPPPPPPPPPPPPPPPP6hfffhhhfhfhhhffhh:.  PPPPPPPPPPPPPPPPPPPPPPPPPPPPPPPPPPPPPPPPPPPPPPP",
"PPPPPPPPPPPPPPPPPPPP   khfkfhhfhfhfhfhfhfPPPPPPPPPPPPPPPPPPkfhhfffhfhfffdhhh6PPPPPPPPPPPPPPPPPPPPPPPPPPPPPPPPPPPPPPPPPPPPPPPPPPP",
"PPPPPPPPPPPPPPPPPPPPP .6fhfffdhfffffhffhhhPPPPPPPPPPPPPPPwffffdffffffdfhdfddpPPPPPPPPPPPPPPPPPPPPPPPPPPPPPPPPPPPPPPPPPPPPPPPPPPP",
"PPPPPPPPPPPPPPPPPPPPPPP>kdffffffdfhdfdfddfffPPPPPPPPPPPPdfffdfffdhdddfdffffdPPPPPPPPPPPPPPPPPPPPPPPPPPPPPPPPPPPPPPPPPPPPPPPPPPPP",
"PPPPPPPPPPPPPPPPPPPPPPP>fdfffdffdfdhdfdhdddffPPPPPPPPPdfdfdddfddddfdddddddddPPPPPPPPPPPPPPPPPPPPPPPPPPPPPPPPPPPPPPPPPPPPPPPPPPPP",
"PPPPPPPPPPPPPPPPPPPPPPPP6dfdfdddfddddfddfdddddddPPPpddddddddddddddfddddddddPPPPPPPPPPPPPPPPPPPPPPPPPPPPPPPPPPPPPPPPPPPPPPPPPPPPP",
"PPPPPPPPPPPPPPPPPPPPPPPP@dddddddddddddddddddddddddddddddddddddddddddddddddfPPPPPPPPPPPPPPPPPPPPPPPPPPPPPPPPPPPPPPPPPPPPPPPPPPPPP",
"PPPPPPPPPPPPPPPPPPPPPPPPPdddduddddtdtdddddtdddudddduddtdddddtdudddttddtdtd*PPPPPPPPPPPPPPPPPPPPPPPPPPPPPPPPPPPPPPPPPPPPPPPPPPPPP",
"PPPPPPPPPPPPPPPPPPPPPPPPPuududtuttddddtdttddttudtutdttddtwuuddwdpttdddtdtd,PPPPPPPPPPPPPPPPPPPPPPPPPPPPPPPPPPPPPPPPPPPPPPPPPPPPP",
"PPPPPPPPPPPPPPPPPPPPPPPPPtdttduutdudttttutduutttttuututttddttttttdtdttttttdPPPPPPPPPPPPPPPPPPPPPPPPPPPPPPPPPPPPPPPPPPPPPPPPPPPPP",
"PPPPPPPPPPPPPPPPPPPPPPPP4tttttttttdttttttttttttttttttttttttttttttwwpttttttt8PPPPPPPPPPPPPPPPPPPPPPPPPPPPPPPPPPPPPPPPPPPPPPPPPPPP",
"PPPPPPPPPPPPPPPPPPPPPPPP6ttttttutttttttttttttttttttttt8tttttuttttttwtttwttttPPPPPPPPPPPPPPPPPPPPPPPPPPPPPPPPPPPPPPPPPPPPPPPPPPPP",
"PPPPPPPPPPPPPPPPPPPPPPP2dttttttwtttttttttttttttttttttttttwt8ww8t8tttt8tw8t8ttPPPPPPPPPPPPPPPPPPPPPPPPPPPPPPPPPPPPPPPPPPPPPPPPPPP",
"PPPPPPPPPPPPPPPPPPPPPPP8wttwtwuwwt8tt8tt8ttwt8www989u8wt8twwwwwwtwww8twtw8wwtPPPPPPPPPPPPPPPPPPPPPPPPPPPPPPPPPPPPPPPPPPPPPPPPPPP",
"PPPPPPPPPPPPPPPPPPPPPPPt8wwww88w8t88w888wt88w8ww8t88ww888w88w88w888w88888w88wPPPPPPPPPPPPPPPPPPPPPPPPPPPPPPPPPPPPPPPPPPPPPPPPPPP",
"PPPPPPPPPPPPPPPPPPPPPPPw8w8ww8888w888w8w88w8888888888888888888888888888888w84PPPPPPPPPPPPPPPPPPPPPPPPPPPPPPPPPPPPPPPPPPPPPPPPPPP",
"PPPPPPPPPPPPPPPPPPPPPPP@88888888888888888888888888888888888888ww8888888w888wPPPPPPPPPPPPPPPPPPPPPPPPPPPPPPPPPPPPPPPPPPPPPPPPPPPP",
"PPPPPPPPPPPPPPPPPPPPPPPPowww86w888ttt688886888888866888888w86w8ww8w86w8688w#PPPPPPPPPPPPPPPPLLLHHHPPPPPPPPPPPPPPPPPPPPPPPPPPPPPP",
"PPPPPPPPPPPPPPPPPPPPPPPP  w6688882  .t866888866888886886686686,    3868663PPPPPPPPPPPPPPPPPGLHLHHHPPPPPPPPPPPPPPPPPPPPPPPPPPPPPP",
"PPPPPPPPPPPPPPPPPPPPPPPPP o66864      #2486686868868686868624       22461oPPPPPPPPPPPPPPPPPGHHHHHLHPPPPPPPPPPPPPPPPPPPPPPPPPPPPP",
"PPPPPPPPPPPPPPPPPPPPPPPPPP +-&@ PPPPP    *68666666666666w&#  PPPPPP   @-PPPPPPPPPPPPPPPPPPPGHHHHHHGPPPPPPPPPPPPPPPPPPPPPPPPPPPPP",
"PPPPPPPPPPPPPPPPPPPPPPPPPPPP  PPPPPPPPP   Xo866666666666%  PPPPPPPPPPPPPPPPPPPPPPPPPPPPPPPzGGGGGHGGPPPPPPPPPPPPPPPPPPPPPPPPPPPPP",
"PPPPPPPPPPPPPPPPPPPPPPPPPPPPPPPPPPPPPPPPP   666666666666#PPPPPPPPPPPPPPPPPPPPPPPPPPPPPPPPAHGGGGGGGGGGPPPPPPPGDPPPPPPPPPPPPPPPPPP",
"PPPPPPPPPPPPPPPPPPPPPPPPPPPPPPPPPPPPPPPPPPP +66666646461PPPPPPPPPPPPPPPPPPPPPPDDGDDPPPDDGGDGDGGDDGDGGDDDPPDGGDDDPPPPPPPPPPPPPPPP",
"PPPPPPPPPPPPPPPPPPPPPPPPPPPPPPPPPPPPPPPPPPPP@6464646566,PPPPPPPPPPPPPPPPPPPPPDGDDGDDDGGGDDGDGDDDDDGDDDGDGDDDDGDDDPPPPPPPPPPPPPPP",
"PPPPPPPPPPPPPPPPPPPPPPPPPPPPPPPPPPPPPPPPPPPP#66664465551PPPPPPPPPPPPPPPPPPPPADDDGDDDGDDDDDDDDDDDDGDDDDDDDDDDDDDDDDPPPPPPPPPPPPPP",
"PPPPPPPPPPPPPPPPPPPPPPPPPPPPPPPPPPPPPPPPPPPPP,646466565,PPPPPPPPPPPPPPPPPPPPDDDDDDDDDADDDDDDDDDDDDDDDDDAADDDADDAADPPPPPPPPPPPPPP",
"PPPPPPPPPPPPPPPPPPPPPPPPPPPPPPPPPPPPPPPPPPPPP#&666666>-PPPPPPPPPPPPPPPPPPPPPzDADDAADADDADDAADDDDADDADDDDDDDAADADDzPPPPPPPPPPPPPP",
"PPPPPPPPPPPPPPPPPPPPPPPPPPPPPPPPPPPPPPPPPPPPPP OoOOOOPPPPPPPPPPPPPPPPPPPPPPPwADDDDADDAADAADDDACADAAACDCDDCDAAAAACPPPPPPPPPPPPPPP",
"PPPPPPPPPPPPPPPPPPPPPPPPPPPPPPPPPPPPPPPPPPPPPPP     PPPPPPPPPPPPPPPPPPPPPPPPPkAACAAAADCDAAAACAAAAAAAAAAAAACAAAAVwPPPPPPPPPPPPPPP",
"PPPPPPPPPPPPPPPPPPPPPPPPPPPPPPPPPPPPPPPPPPPPPPPPPPPPPPPPPPPPPPPPPPPPPPPPPPPPP6AACAAACCACCAAAACAACAACACAACAACAVAAPPPPPPPPPPPPPPPP",
"PPPPPPPPPPPPPPPPPPPPPPPPPPPPPPPPPPPPPPPPPPPPPPPPPPPPPPPPPPPPPPPPPPPPPPPPPPPPP>CCACAACACCACACCAACACAACAmAAVAAAVAm6PPPPPPPPPPPPPPP",
"PPPPPPPPPPPPPPPPPPPPPPPPPPPPPPPPPPPPPPPPPPPPPPPPPPPPPPPPPPPPPPPPPPPPPPPPPPPPP8CACACNAAmAVAAmzzlllzmAmACmzAmCAzNAkPPPPPPPPPPPPPPP",
"PPPPPPPPPPPPPPPPPPPPPPPPPPPPPPPPPPPPPPPPPPPPPPPPPPPPPPPPPPPPPPPPPPPPPPPPPPPPPzVCCCNzCCCCAmlf2#+++>dmmAmmmVAlmmVmzPPPPPPPPPPPPPPP",
"PPPPPPPPPPPPPPPPPPPPPPPPPPPPPPPPPPPPPPPPPPPPPPPPPPPPPPPPPPPPPPPPPPPPPPPPPPPPhmVzNmCmmmmVml>XPPPPP o>hmmmVlVVmmlVzzPPPPPPPPPPPPPP",
"PPPPPPPPPPPPPPPPPPPPPPPPPPPPPPPPPPPPPPPPPPPPPPPPPPPPPPPPPPPPPPPPPPPPPPPPPPPPzzVVmmzmmmmzl2PPPPPPPPP +3mmVllVlzzzzzPPPPPPPPPPPPPP",
"PPPPPPPPPPPPPPPPPPPPPPPPPPPPPPPPPPPPPPPPPPPPPPPPPPPPPPPPPPPPPPPPPPPPPPPPPPPwzzzzzzzzzzzk1PPPPPPPPPPPP$lzzzVlbzzzzlzPPPPPPPPPPPPP",
"PPPPPPPPPPPPPPPPPPPPPPPPPPPPPPPPPPPPPPPPPPPPPPPPPPPPPPPPPPPPPPPPPPPPPPPPPPfzzzzzzzzzzzz4PPPPPPPPPPPPPP4zlzzlzzlzlzllllPPPPPPPPPP",
"PPPPPPPPPPPPPPPPPPPPPPPPPPPPPPPPPPPPPPPPPPPPPPPPPPPPPPPPPPPPPPPPPPPPPPPkzzzzzzzlzllzzlhPPPPPPPPPPPPPPP%hlllllllllllllkzPPPPPPPPP",
"PPPPPPPPPPPPPPPPPPPPPPPPPPPPPPPPPPPPPPPPPPPPPPPPPPPPPPPPPPPPPPPPPPPPPPPllllllllllllllkdPPPPPPPPPPPPPPPP6kzjkkzllkllklkkPPPPPPPPP",
"PPPPPPPPPPPPPPPPPPPPPPPPPPPPPPPPPPPPPPPPPPPPPPPPPPPPPPPPPPPPPPPPPPPPPPPlllhlkkkllkhllz6PPPPPPPPPPPPPPPP6kkkkjjjkjjjjklhPPPPPPPPP",
"PPPPPPPPPPPPPPPPPPPPPPPPPPPPPPPPPPPPPPPPPPPPPPPPPPPPPPPPPPPPPPPPPPPPPP3khklkhkkkhhlkkh6PPPPPPPPPPPPPPPP6jkjjjjjjjjjjkhkPPPPPPPPP",
"PPPPPPPPPPPPPPPPPPPPPPPPPPPPPPPPPPPPPPPPPPPPPPPPPPPPPPPPPPPPPPPPPPPPPP4hhkhkhkhkhkhkhkdPPPPPPPPPPPPPPPP6jjjhjjjjjhjjhhhPPPPPPPPP",
"PPPPPPPPPPPPPPPPPPPPPPPPPPPPPPPPPPPPPPPPPPPPPPPPPPPPPPPPPPPPPPPPPPPPPP,khhhlhhkklhkhhhhPPPPPPPPPPPPPPPPfhhhhhhhhhjhhhhhPPPPPPPPP",
"PPPPPPPPPPPPPPPPPPPPPPPPPPPPPPPPPPPPPPPPPPPPPPPPPPPPPPPPPPPPPPPPPPPPPPP8fhhhkffhhhhhhkhPPPPPPPPPPPPPPPPfhhhhfhhhhhhhhddPPPPPPPPP",
"PPPPPPPPPPPPPPPPPPPPPPPPPPPPPPPPPPPPPPPPPPPPPPPPPPPPPPPPPPPPPPPPPPPPPPP+&2ejfkfffhhhhfkdPPPPPPPPPPPPPP6hhfgghgfhhhd82*PPPPPPPPPP",
"PPPPPPPPPPPPPPPPPPPPPPPPPPPPPPPPPPPPPPPPPPPPPPPPPPPPPPPPPPPPPPPPPPPPPPPPP o;dkfkhffjfhffPPPPPPPPPPPPP6fhfgfgfgfhfd:XPPPPPPPPPPPP",
"PPPPPPPPPPPPPPPPPPPPPPPPPPPPPPPPPPPPPPPPPPPPPPPPPPPPPPPPPPPPPPPPPPPPPPPPPPPo4ffffffhfffffPPPPPPPPPPPtffffffffffff8PPPPPPPPPPPPPP",
"PPPPPPPPPPPPPPPPPPPPPPPPPPPPPPPPPPPPPPPPPPPPPPPPPPPPPPPPPPPPPPPPPPPPPPPPPPPP>dfdfffffffffddPPPPPPPPtfddffddfddddd4PPPPPPPPPPPPPP",
"PPPPPPPPPPPPPPPPPPPPPPPPPPPPPPPPPPPPPPPPPPPPPPPPPPPPPPPPPPPPPPPPPPPPPPPPPPPP@dddddddddftdddddPPPPufdddddddddddddtPPPPPPPPPPPPPPP",
"PPPPPPPPPPPPPPPPPPPPPPPPPPPPPPPPPPPPPPPPPPPPPPPPPPPPPPPPPPPPPPPPPPPPPPPPPPPPP,dddddddddfdudddudddddddudddddddddd6PPPPPPPPPPPPPPP",
"PPPPPPPPPPPPPPPPPPPPPPPPPPPPPPPPPPPPPPPPPPPPPPPPPPPPPPPPPPPPPPPPPPPPPPPPPPPPP&tftfdtddtfddtddddududtdtdtuuuutdtt,PPPPPPPPPPPPPPP",
"PPPPPPPPPPPPPPPPPPPPPPPPPPPPPPPPPPPPPPPPPPPPPPPPPPPPPPPPPPPPPPPPPPPPPPPPPPPPP=tttttttttttttuwuwtwwtwtttttwtttttt4PPPPPPPPPPPPPPP",
"PPPPPPPPPPPPPPPPPPPPPPPPPPPPPPPPPPPPPPPPPPPPPPPPPPPPPPPPPPPPPPPPPPPPPPPPPPPPP3ttttttttttuwttttuwuwuutttttttttutudPPPPPPPPPPPPPPP",
"PPPPPPPPPPPPPPPPPPPPPPPPPPPPPPPPPPPPPPPPPPPPPPPPPPPPPPPPPPPPPPPPPPPPPPPPPPPPP8ttttttttttwtwtwtwtwu8wtttwtt8ttw88w6PPPPPPPPPPPPPP",
"PPPPPPPPPPPPPPPPPPPPPPPPPPPPPPPPPPPPPPPPPPPPPPPPPPPPPPPPPPPPPPPPPPPPPPPPPPPP48www8wtw8wwwu88tw8t8uwwwwwtw8ww8w6ww8PPPPPPPPPPPPPP",
"PPPPPPPPPPPPPPPPPPPPPPPPPPPPPPPPPPPPPPPPPPPPPPPPPPPPPPPPPPPPPPPPPPPPPPPPPPPP6p8wwww8888w8888888888ww88ww888w8www68PPPPPPPPPPPPPP",
"PPPPPPPPPPPPPPPPPPPPPPPPPPPPPPPPPPPPPPPPPPPPPPPPPPPPPPPPPPPPPPPPPPPPPPPPPPPP;688ww6w886w8888w8ww68w6868686w66w8w61PPPPPPPPPPPPPP",
"PPPPPPPPPPPPPPPPPPPPPPPPPPPPPPPPPPPPPPPPPPPPPPPPPPPPPPPPPPPPPPPPPPPPPPPPPPPPP;666w661286686868668868686811168666>PPPPPPPPPPPPPPP",
"PPPPPPPPPPPPPPPPPPPPPPPPPPPPPPPPPPPPPPPPPPPPPPPPPPPPPPPPPPPPPPPPPPPPPPPPPPPPPP-666>@  #,48666668686663>#   ;144-PPPPPPPPPPPPPPPP",
"PPPPPPPPPPPPPPPPPPPPPPPPPPPPPPPPPPPPPPPPPPPPPPPPPPPPPPPPPPPPPPPPPPPPPPPPPPPPPPP@&@.PPP .o:3666666664:o.PPPP .@@PPPPPPPPPPPPPPPPP",
"PPPPPPPPPPPPPPPPPPPPPPPPPPPPPPPPPPPPPPPPPPPPPPPPPPPPPPPPPPPPPPPPPPPPPPPPPPPPPPPPPPPPPPPPP @46666666,PPPPPPPPPPPPPPPPPPPPPPPPPPPP",
"PPPPPPPPPPPPPPPPPPPPPPPPPPPPPPPPPPPPPPPPPPPPPPPPPPPPPPPPPPPPPPPPPPPPPPPPPPPPPPPPPPPPPPPPPP ,6646644%PPPPPPPPPPPPPPPPPPPPPPPPPPPP",
"PPPPPPPPPPPPPPPPPPPPPPPPPPPPPPPPPPPPPPPPPPPPPPPPPPPPPPPPPPPPPPPPPPPPPPPPPPPPPPPPPPPPPPPPPPP>6466464PPPPPPPPPPPPPPPPPPPPPPPPPPPPP",
"PPPPPPPPPPPPPPPPPPPPPPPPPPPPPPPPPPPPPPPPPPPPPPPPPPPPPPPPPPPPPPPPPPPPPPPPPPPPPPPPPPPPPPPPPPP#4646554PPPPPPPPPPPPPPPPPPPPPPPPPPPPP",
"PPPPPPPPPPPPPPPPPPPPPPPPPPPPPPPPPPPPPPPPPPPPPPPPPPPPPPPPPPPPPPPPPPPPPPPPPPPPPPPPPPPPPPPPPPPP%,,22>PPPPPPPPPPPPPPPPPPPPPPPPPPPPPP",
"PPPPPPPPPPPPPPPPPPPPPPPPPPPPPPPPPPPPPPPPPPPPPPPPPPPPPPPPPPPPPPPPPPPPPPPPPPPPPPPPPPPPPPPPPPPPP....PPPPPPPPPPPPPPPPPPPPPPPPPPPPPPP",
"PPPPPPPPPPPPPPPPPPPPPPPPPPPPPPPPPPPPPPPPPPPPPPPPPPPPPPPPPPPPPPPPPPPPPPPPPPPPPPPPPPPPPPPPPPPPPPPPPPPPPPPPPPPPPPPPPPPPPPPPPPPPPPPP",
"PPPPPPPPPPPPPPPPPPPPPPPPPPPPPPPPPPPPPPPPPPPPPPPPPPPPPPPPPPPPPPPPPPPPPPPPPPPPPPPPPPPPPPPPPPPPPPPPPPPPPPPPPPPPPPPPPPPPPPPPPPPPPPPP",
"PPPPPPPPPPPPPPPPPPPPPPPPPPPPPPPPPPPPPPPPPPPPPPPPPPPPPPPPPPPPPPPPPPPPPPPPPPPPPPPPPPPPPPPPPPPPPPPPPPPPPPPPPPPPPPPPPPPPPPPPPPPPPPPP",
"PPPPPPPPPPPPPPPPPPPPPPPPPPPPPPPPPPPPPPPPPPPPPPPPPPPPPPPPPPPPPPPPPPPPPPPPPPPPPPPPPPPPPPPPPPPPPPPPPPPPPPPPPPPPPPPPPPPPPPPPPPPPPPPP"
};
