/* XPM */
static char *opera[] = {
/* columns rows colors chars-per-pixel */
"128 128 61 1 ",
"  c black",
". c #053805380538",
"X c #07A107A107A1",
"o c #0A700A700A70",
"O c #0E0E0E0E0E0E",
"+ c #11AB11AB11AB",
"@ c #147A14141414",
"# c #181818181818",
"$ c #1A1A194C194C",
"% c #1A801A801A80",
"& c #1E841E1E1E84",
"* c #20201F522020",
"= c #20ED20ED20ED",
"- c #24F1248A248A",
"; c #282828282828",
": c #2AF72A902A90",
"> c #2D602C922C92",
", c #2EFB2EFB2EFB",
"< c #316431643164",
"1 c #33CD32FF3298",
"2 c #356835683568",
"3 c #369C36363673",
"4 c #37D137D137D1",
"5 c #39D3396C396C",
"6 c #39D339D3396C",
"7 c #396C396C39D3",
"8 c #396C39D339D3",
"9 c #3B6E3B6E3B6E",
"0 c #3D093CA23CA2",
"q c #3CA23D093CA2",
"w c #3CA23CA23D09",
"e c #3D093CA23D09",
"r c #3CA23D093D09",
"t c #3EA43EA43EA4",
"y c #40403F723F72",
"u c #400B40184026",
"i c #417441744174",
"p c #434D432C434F",
"a c #44AA44AA44AA",
"s c #466846834671",
"d c #471346464646",
"f c #47E147E147E1",
"g c #4A4A497C497C",
"h c #49E349E3497C",
"j c #497C497C49E3",
"k c #49E3497C49E3",
"l c #497C49E349E3",
"z c #4B174B174B17",
"x c #4D194CB24CB2",
"c c #4CB24D194CB2",
"v c #4D194D194CB2",
"b c #4E4E4E4E4E4E",
"n c #501D501C5050",
"m c #518451845184",
"M c #538652B8531F",
"N c #531F537E5327",
"B c #531F53ED53ED",
"V c #54BA54BA54BA",
"C c #5694568A568D",
"Z c #572357235723",
"A c None",
/* pixels */
"AAAAAAAAAAAAAAAAAAAAAAAAAAAAAAAAAAAAAAAAAAAAAAAAAAAAAAAAAAAAAAAAAAAAAAAAAAAAAAAAAAAAAAAAAAAAAAAAAAAAAAAAAAAAAAAAAAAAAAAAAAAAAAAA",
"AAAAAAAAAAAAAAAAAAAAAAAAAAAAAAAAAAAAAAAAAAAAAAAAAAAAAAAAAAAAAAAAAAAAAAAAAAAAAAAAAAAAAAAAAAAAAAAAAAAAAAAAAAAAAAAAAAAAAAAAAAAAAAAA",
"AAAAAAAAAAAAAAAAAAAAAAAAAAAAAAAAAAAAAAAAAAAAAAAAAAAAAAAAAAAAAAAAAAAAAAAAAAAAAAAAAAAAAAAAAAAAAAAAAAAAAAAAAAAAAAAAAAAAAAAAAAAAAAAA",
"AAAAAAAAAAAAAAAAAAAAAAAAAAAAAAAAAAAAAAAAAAAAAAAAAAAAAAAAAAAAAAAAAAAAAAAAAAAAAAAAAAAAAAAAAAAAAAAAAAAAAAAAAAAAAAAAAAAAAAAAAAAAAAAA",
"AAAAAAAAAAAAAAAAAAAAAAAAAAAAAAAAAAAAAAAAAAAAAAAAAAAAAAAAAAAAAAAAAAAAAAAAAAAAAAAAAAAAAAAAAAAAAAAAAAAAAAAAAAAAAAAAAAAAAAAAAAAAAAAA",
"AAAAAAAAAAAAAAAAAAAAAAAAAAAAAAAAAAAAAAAAAAAAAAAAAAAAAAAAAAAAAAAAAAAAAAAAAAAAAAAAAAAAAAAAAAAAAAAAAAAAAAAAAAAAAAAAAAAAAAAAAAAAAAAA",
"AAAAAAAAAAAAAAAAAAAAAAAAAAAAAAAAAAAAAAAAAAAAAAAAAAAAAAAAAAAAAAAAAAAAAAAAAAAAAAAAAAAAAAAAAAAAAAAAAAAAAAAAAAAAAAAAAAAAAAAAAAAAAAAA",
"AAAAAAAAAAAAAAAAAAAAAAAAAAAAAAAAAAAAAAAAAAAAAAAAAAAAAAAAAAAAAAAAAAAAAAAAAAAAAAAAAAAAAAAAAAAAAAAAAAAAAAAAAAAAAAAAAAAAAAAAAAAAAAAA",
"AAAAAAAAAAAAAAAAAAAAAAAAAAAAAAAAAAAAAAAAAAAAAAAAAAAAAAAAAAAAAAAAAAAAAAAAAAAAAAAAAAAAAAAAAAAAAAAAAAAAAAAAAAAAAAAAAAAAAAAAAAAAAAAA",
"AAAAAAAAAAAAAAAAAAAAAAAAAAAAAAAAAAAAAAAAAAAAAAAAAAAAAAAAAAAAAAAAAAAAAAAAAAAAAAAAAAAAAAAAAAAAAAAAAAAAAAAAAAAAAAAAAAAAAAAAAAAAAAAA",
"AAAAAAAAAAAAAAAAAAAAAAAAAAAAAAAAAAAAAAAAAAAAAAAAAAAAAAAAAAAAAAAAAAAAAAAAAAAAAAAAAAAAAAAAAAAAAAAAAAAAAAAAAAAAAAAAAAAAAAAAAAAAAAAA",
"AAAAAAAAAAAAAAAAAAAAAAAAAAAAAAAAAAAAAAAAAAAAAAAAAAAAAAAAAAAAAAAAAAAAAAAAAAAAAAAAAAAAAAAAAAAAAAAAAAAAAAAAAAAAAAAAAAAAAAAAAAAAAAAA",
"AAAAAAAAAAAAAAAAAAAAAAAAAAAAAAAAAAAAAAAAAAAAAAAAAAAAAAAAAAAAAAAAAAAAAAAAAAAAAAAAAAAAAAAAAAAAAAAAAAAAAAAAAAAAAAAAAAAAAAAAAAAAAAAA",
"AAAAAAAAAAAAAAAAAAAAAAAAAAAAAAAAAAAAAAAAAAAAAAAAAAAAAAAAAAAAAAAAAAAAAAAAAAAAAAAAAAAAAAAAAAAAAAAAAAAAAAAAAAAAAAAAAAAAAAAAAAAAAAAA",
"AAAAAAAAAAAAAAAAAAAAAAAAAAAAAAAAAAAAAAAAAAAAAAAAAAAAAAAAAAAAAAAAAAAAAAAAAAAAAAAAAAAAAAAAAAAAAAAAAAAAAAAAAAAAAAAAAAAAAAAAAAAAAAAA",
"AAAAAAAAAAAAAAAAAAAAAAAAAAAAAAAAAAAAAAAAAAAAAAAAAAAAAAAAAAZZZZZZZZZZZZAAAAAAAAAAAAAAAAAAAAAAAAAAAAAAAAAAAAAAAAAAAAAAAAAAAAAAAAAA",
"AAAAAAAAAAAAAAAAAAAAAAAAAAAAAAAAAAAAAAAAAAAAAAAAAAAAVZZZZZZZZZZZZZZZZZZZZZZZAAAAAAAAAAAAAAAAAAAAAAAAAAAAAAAAAAAAAAAAAAAAAAAAAAAA",
"AAAAAAAAAAAAAAAAAAAAAAAAAAAAAAAAAAAAAAAAAAAAAAAAAZZZZZZZZZZZZZZZZZZZZZZZZZZZZZVZAAAAAAAAAAAAAAAAAAAAAAAAAAAAAAAAAAAAAAAAAAAAAAAA",
"AAAAAAAAAAAAAAAAAAAAAAAAAAAAAAAAAAAAAAAAAAAAAAVVZZZZZZZZZZZZZZZZZZZZZZZZZZZZZZZZZVAAAAAAAAAAAAAAAAAAAAAAAAAAAAAAAAAAAAAAAAAAAAAA",
"AAAAAAAAAAAAAAAAAAAAAAAAAAAAAAAAAAAAAAAAAAAAVZZZZZZZZZZZZZZZZZZZZZZZZZZZVZZVZVZVZZVZVAAAAAAAAAAAAAAAAAAAAAAAAAAAAAAAAAAAAAAAAAAA",
"AAAAAAAAAAAAAAAAAAAAAAAAAAAAAAAAAAAAAAAAAAVVZVZZVVZVVZZZZZVZZZZZVZZVZZZZVZZZZZZVZVZVZVVAAAAAAAAAAAAAAAAAAAAAAAAAAAAAAAAAAAAAAAAA",
"AAAAAAAAAAAAAAAAAAAAAAAAAAAAAAAAAAAAAAAAVVZZZZZVZZVZVZVVVZZVVZVVVZVZVZVVVZZVVZVVVZVZZVZVVAAAAAAAAAAAAAAAAAAAAAAAAAAAAAAAAAAAAAAA",
"AAAAAAAAAAAAAAAAAAAAAAAAAAAAAAAAAAAAAAmVVVVVVVZVVVVZZVVZVVVVVVVVVZVVZVVZZVVZVVVVVVZVVZVVVVAAAAAAAAAAAAAAAAAAAAAAAAAAAAAAAAAAAAAA",
"AAAAAAAAAAAAAAAAAAAAAAAAAAAAAAAAAAAAAVVVVVVVVVVVVVVVVVVVVVVmfi2::,4fbVVVVVVVVVVVVVVVVVVVVVVVAAAAAAAAAAAAAAAAAAAAAAAAAAAAAAAAAAAA",
"AAAAAAAAAAAAAAAAAAAAAAAAAAAAAAAAAAAmBVVVVVVVVVVVVVVVVVVVVVt-X      X+,fVVVVVVVVVVVVVVVVVVVVVNAAAAAAAAAAAAAAAAAAAAAAAAAAAAAAAAAAA",
"AAAAAAAAAAAAAAAAAAAAAAAAAAAAAAAAAAbVVVVVMVNVVBVBVVBVVNVBs:            O2VVVNMVVVVVVVVVmVVVVmVNAAAAAAAAAAAAAAAAAAAAAAAAAAAAAAAAAA",
"AAAAAAAAAAAAAAAAAAAAAAAAAAAAAAAAAmVVVVVVVMVVNVVVVVVVVVmf&  AAAAAAAA     1NVNVVMMVVVVVVmVVBMVBVmAAAAAAAAAAAAAAAAAAAAAAAAAAAAAAAAA",
"AAAAAAAAAAAAAAAAAAAAAAAAAAAAAAAAmVmMMBNNMVNNNNBVVVmVNNf& AAAAAAAAAAAAA   2NNMMMNmmBVmBVVNVMMVMVBmAAAAAAAAAAAAAAAAAAAAAAAAAAAAAAA",
"AAAAAAAAAAAAAAAAAAAAAAAAAAAAAAAmVBBNBVMMMmVBBmVBVmMMNf=AAAAAAAAAAAAAAAA   2NNNNmMMBBNNNMNNMMMMBBMmAAAAAAAAAAAAAAAAAAAAAAAAAAAAAA",
"AAAAAAAAAAAAAAAAAAAAAAAAAAAAAAbmMMNNNmVMMBNNBMMMmVMMN<AAAAAAAAAAAAAAAAAAA  0NNNNMMVmNmmNNmMmVmVmmMmAAAAAAAAAAAAAAAAAAAAAAAAAAAAA",
"AAAAAAAAAAAAAAAAAAAAAAAAAAAAAzMMMMnNNNNmNNNmNmVmVmMMiAAAAAAAAAAAAAAAAAAAAA &fNNNmmmmmmmNmNmNmmmMmMmAAAAAAAAAAAAAAAAAAAAAAAAAAAAA",
"AAAAAAAAAAAAAAAAAAAAAAAAAAAAzmMmmMmNmmNmmmNmNmmmNmMb:AAAAAAAAAAAAAAAAAAAAAA ,NnNmVmVmNNmNmmNmmMmmmmmAAAAAAAAAAAAAAAAAAAAAAAAAAAA",
"AAAAAAAAAAAAAAAAAAAAAAAAAAAAmmmmmmmmmmmmmmmmmmmmmmmiAAAAAAAAAAAAAAAAAAAAAAA +fmmmmmmmmmNmmmmmmmmmmmmmAAAAAAAAAAAAAAAAAAAAAAAAAAA",
"AAAAAAAAAAAAAAAAAAAAAAAAAAAbmmmmmmmmmmmmmmmmmmmmmmn:AAAAAAAAAAAAAAAAAAAAAAAA 1mmmmmmmmmmmmmmmnmmmmmmmbAAAAAAAAAAAAAAAAAAAAAAAAAA",
"AAAAAAAAAAAAAAAAAAAAAAAAAAfNmnmmmmmmmnmnmmmmnnmmmmfAAAAAAAAAAAAAAAAAAAAAAAAAA&nmmmnmnmmnmmmmmmmmmmmmmmAAAAAAAAAAAAAAAAAAAAAAAAAA",
"AAAAAAAAAAAAAAAAAAAAAAAAAAmmmnnmmnmnnmmmmnnnnnmnmm4AAAAAAAAAAAAAAAAAAAAAAAAAA 4mnnmnmnnnmbnnmnnnmmmnmmbAAAAAAAAAAAAAAAAAAAAAAAAA",
"AAAAAAAAAAAAAAAAAAAAAAAAAfmnmnnnnnmnnmmnnmxmmnnnmbAAAAAAAAAAAAAAAAAAAAAAAAAAAA:mnnnnnnnnnmbmnnmnnnnnbmbfAAAAAAAAAAAAAAAAAAAAAAAA",
"AAAAAAAAAAAAAAAAAAAAAAAAsmnnnnnnnnnnnnbmxmmnnnnnmfAAAAAAAAAAAAAAAAAAAAAAAAAAAA#bnnnnnnnnbnmbnnnnnnnnmbmmAAAAAAAAAAAAAAAAAAAAAAAA",
"AAAAAAAAAAAAAAAAAAAAAAAAbmnmbnbnnnnmnnnbNnnnnNnnn4AAAAAAAAAAAAAAAAAAAAAAAAAAAAXsnnxnnnbnbmbbnbnnbnnnnbbmbAAAAAAAAAAAAAAAAAAAAAAA",
"AAAAAAAAAAAAAAAAAAAAAAAsbbbbbmnnnnbbbbnmNzNznzNzm<AAAAAAAAAAAAAAAAAAAAAAAAAAAAA3xbnnbbnnbbnbbnbbbbbnbnbbbAAAAAAAAAAAAAAAAAAAAAAA",
"AAAAAAAAAAAAAAAAAAAAAAAbnbbbbbbbbbbbbbbbzNnxnnxnfAAAAAAAAAAAAAAAAAAAAAAAAAAAAAA-nnbnbbnbbnbbbnbbbbbbbbbbbzAAAAAAAAAAAAAAAAAAAAAA",
"AAAAAAAAAAAAAAAAAAAAAAybbbbbbbbbbbbbbbbbnznxxnxnfAAAAAAAAAAAAAAAAAAAAAAAAAAAAAA#xxnbbbxbbbbbbbbbnbbbbbbbbbAAAAAAAAAAAAAAAAAAAAAA",
"AAAAAAAAAAAAAAAAAAAAAAzbbbbbbbbbbbbbbbbbxznnnxxniAAAAAAAAAAAAAAAAAAAAAAAAAAAAAAAsxbbbbnxbbbbbbbbbbbbbbbbbbfAAAAAAAAAAAAAAAAAAAAA",
"AAAAAAAAAAAAAAAAAAAAAAbbbbbbbbbbbbbbbbbbnnxxxnxx4AAAAAAAAAAAAAAAAAAAAAAAAAAAAAAAyxbxbbxbbbbzbzbbbbbbbbbzbbbAAAAAAAAAAAAAAAAAAAAA",
"AAAAAAAAAAAAAAAAAAAAAsxbbbbbbbbbbbcbbbbbzbbbxxxbAAAAAAAAAAAAAAAAAAAAAAAAAAAAAAAA2bzbxbxbzbbbbnznbfnbbbbbbbbAAAAAAAAAAAAAAAAAAAAA",
"AAAAAAAAAAAAAAAAAAAAAfbxbzxxzbbzbcbcbzzbbbhxxnxxAAAAAAAAAAAAAAAAAAAAAAAAAAAAAAAA:zbbxxxxbbzbfzbzbbfbnfbzbfnfAAAAAAAAAAAAAAAAAAAA",
"AAAAAAAAAAAAAAAAAAAA4bxbbxxbbxbzbzzbbbbbbzxbxxxhAAAAAAAAAAAAAAAAAAAAAAAAAAAAAAAA&hbzzbbxfbbbbbzbbbbbzzbbzzbzAAAAAAAAAAAAAAAAAAAA",
"AAAAAAAAAAAAAAAAAAAAifbzzbzzzbzbccbzzbhzbzxxxxxhAAAAAAAAAAAAAAAAAAAAAAAAAAAAAAAA#zxzxzxzbbfbbfbzfbfbzbzzzbzzAAAAAAAAAAAAAAAAAAAA",
"AAAAAAAAAAAAAAAAAAAAfbfbfbbbfbbzcxhbbbxhzzbbzzbpAAAAAAAAAAAAAAAAAAAAAAAAAAAAAAAA+ffbfbfbfbbfzzbzxbfbfbbffbzzsAAAAAAAAAAAAAAAAAAA",
"AAAAAAAAAAAAAAAAAAAAfbbfzbzzzzzbbhbzhhhbzbzzzzziAAAAAAAAAAAAAAAAAAAAAAAAAAAAAAAAApbffbbbbffbzzzzffbfxbfbbzzzfAAAAAAAAAAAAAAAAAAA",
"AAAAAAAAAAAAAAAAAAA4fbfbbfbfzzzzhzzzzzzzzzzzzzziAAAAAAAAAAAAAAAAAAAAAAAAAAAAAAAAAszzbfbfbfbfzzzzbffbfbbffbzzzAAAAAAAAAAAAAAAAAAA",
"AAAAAAAAAAAAAAAAAAAtbfbffbfbzzzzhzzzzzzzzzzzzzzwAAAAAAAAAAAAAAAAAAAAAAAAAAAAAAAAAtzzfbfbfbfbzzzzfbbfbffxbfzzzAAAAAAAAAAAAAAAAAAA",
"AAAAAAAAAAAAAAAAAAAsfbfbzfbffbzffzzlzzhzzzzzzfb4AAAAAAAAAAAAAAAAAAAAAAAAAAAAAAAAAtfbzfbfbfczzfczbbfzxzzbfbfzzsAAAAAAAAAAAAAAAAAA",
"AAAAAAAAAAAAAAAAAAAfbfbfzffbzfzbzzlzhzzhzzfzcbfAAAAAAAAAAAAAAAAAAAAAAAAAAAAAAAAAA4zfccfzcffcfcfcfffbfzffzfzfzfAAAAAAAAAAAAAAAAAA",
"AAAAAAAAAAAAAAAAAAAfcffffbfzfbbfzfzlfzzhzffzfffAAAAAAAAAAAAAAAAAAAAAAAAAAAAAAAAAA<zzfffcfcfzfzfffbfffzfzzffbffAAAAAAAAAAAAAAAAAA",
"AAAAAAAAAAAAAAAAAA>ffccfbfzfzffzzzfzzfhhfzzzfzfAAAAAAAAAAAAAAAAAAAAAAAAAAAAAAAAAA>fffzzfzfzfzfzzfffcfzzzffzfffAAAAAAAAAAAAAAAAAA",
"AAAAAAAAAAAAAAAAAA2fzfbfzbffzffffzfccffffffzfzfAAAAAAAAAAAAAAAAAAAAAAAAAAAAAAAAAA:ffzfbfffzzzfffxffffbffffffzfAAAAAAAAAAAAAAAAAA",
"AAAAAAAAAAAAAAAAAA4fffffffffffzffffffffcfczffffAAAAAAAAAAAAAAAAAAAAAAAAAAAAAAAAAA:ffffffzfffffffffzfffffffffffAAAAAAAAAAAAAAAAAA",
"AAAAAAAAAAAAAAAAAAtfffffffzffffffffffffffzfffffAAAAAAAAAAAAAAAAAAAAAAAAAAAAAAAAAA:ffffffffffffffffffffffffffffAAAAAAAAAAAAAAAAAA",
"AAAAAAAAAAAAAAAAAA9ffffffffffffffffffffffffffffAAAAAAAAAAAAAAAAAAAAAAAAAAAAAAAAAA:ffffffffffffffffffffffffffffiAAAAAAAAAAAAAAAAA",
"AAAAAAAAAAAAAAAAAAtfffffffffffffffffffffffffsffAAAAAAAAAAAAAAAAAAAAAAAAAAAAAAAAAA:ffffffffffffsffsfsffffsfffffyAAAAAAAAAAAAAAAAA",
"AAAAAAAAAAAAAAAAAAisffsffffffsfffffffssfffffffsAAAAAAAAAAAAAAAAAAAAAAAAAAAAAAAAAA:ffsfffffffffffsfssfffffffsffiAAAAAAAAAAAAAAAAA",
"AAAAAAAAAAAAAAAAAAifffsfffffssssfffssfsfffsssssAAAAAAAAAAAAAAAAAAAAAAAAAAAAAAAAAA:sssfssfffssssffshsssffssfsssiAAAAAAAAAAAAAAAAA",
"AAAAAAAAAAAAAAAAAAifssssffffsfsfffhssssssssfsssAAAAAAAAAAAAAAAAAAAAAAAAAAAAAAAAAA:fssssssfssfsssssssshsssssfssiAAAAAAAAAAAAAAAAA",
"AAAAAAAAAAAAAAAAAAusssssssssssssfssssssssssssssAAAAAAAAAAAAAAAAAAAAAAAAAAAAAAAAAA:ssssssssssssssssssssspssssssyAAAAAAAAAAAAAAAAA",
"AAAAAAAAAAAAAAAAAAusssssssssspssssssssssspsssssAAAAAAAAAAAAAAAAAAAAAAAAAAAAAAAAAA:ssspspssspsssppssssspspspsssiAAAAAAAAAAAAAAAAA",
"AAAAAAAAAAAAAAAAAAusssssssspssssspssssspsssspssAAAAAAAAAAAAAAAAAAAAAAAAAAAAAAAAAA:sssssssasisppsssppsssssssspatAAAAAAAAAAAAAAAAA",
"AAAAAAAAAAAAAAAAAA4ssppsspsspsspssisspssissppssAAAAAAAAAAAAAAAAAAAAAAAAAAAAAAAAAA:iipppsaassspssspssppsppspisp4AAAAAAAAAAAAAAAAA",
"AAAAAAAAAAAAAAAAAA4spsspppsssppspspspsppsssipsiAAAAAAAAAAAAAAAAAAAAAAAAAAAAAAAAAA:ssisspaassipspspsppspssissaaAAAAAAAAAAAAAAAAAA",
"AAAAAAAAAAAAAAAAAA<ppspspssppsspspspspspsisssiiAAAAAAAAAAAAAAAAAAAAAAAAAAAAAAAAAA:isssisaaispsisispsspsispisasAAAAAAAAAAAAAAAAAA",
"AAAAAAAAAAAAAAAAAA:sspspppppspippsippssspsissssAAAAAAAAAAAAAAAAAAAAAAAAAAAAAAAAAA:spsisiipsssspppssipsppsisiiiAAAAAAAAAAAAAAAAAA",
"AAAAAAAAAAAAAAAAAA:iippsipspispsiispusipiisiisiAAAAAAAAAAAAAAAAAAAAAAAAAAAAAAAAAA-isipisisipippppippppppisiaaaAAAAAAAAAAAAAAAAAA",
"AAAAAAAAAAAAAAAAAA&iiisiipsisiipsisipippisisisiAAAAAAAAAAAAAAAAAAAAAAAAAAAAAAAAAA<iiisiiststtstspsppisisiaiapyAAAAAAAAAAAAAAAAAA",
"AAAAAAAAAAAAAAAAAA+tsisisiipppsiippiisipisipiipAAAAAAAAAAAAAAAAAAAAAAAAAAAAAAAAAA8sisisitstsstssipppiasypiaiitAAAAAAAAAAAAAAAAAA",
"AAAAAAAAAAAAAAAAAAA4isissipiiipsspisppsisiiiisiAAAAAAAAAAAAAAAAAAAAAAAAAAAAAAAAAA2itiiissstststpaiyaaiiiysiip4AAAAAAAAAAAAAAAAAA",
"AAAAAAAAAAAAAAAAAAA<iiiiiiissiiiiiiiiipiiiisiiiAAAAAAAAAAAAAAAAAAAAAAAAAAAAAAAAAA8isiiiittpsttptipiiipiiiipii,AAAAAAAAAAAAAAAAAA",
"AAAAAAAAAAAAAAAAAAA:iiiiiiiiiiiipiiiisiiiiiisii4AAAAAAAAAAAAAAAAAAAAAAAAAAAAAAAAA9iipttssstttptsiiiiiiiiiiiiiAAAAAAAAAAAAAAAAAAA",
"AAAAAAAAAAAAAAAAAAA#iiiiiiiiiiiiiiiiiiiiiiiiiii9AAAAAAAAAAAAAAAAAAAAAAAAAAAAAAAAA9iitstttttsstptiiiiiiiiiiii9AAAAAAAAAAAAAAAAAAA",
"AAAAAAAAAAAAAAAAAAAA2iiiiiiiiiiiiiiiiiiiiiiiiii9AAAAAAAAAAAAAAAAAAAAAAAAAAAAAAAAA9ttstststpttptsiyiiyiiiiiyi2AAAAAAAAAAAAAAAAAAA",
"AAAAAAAAAAAAAAAAAAAA:iiiiiiiiiiiiitiiiiiiyiiiiitAAAAAAAAAAAAAAAAAAAAAAAAAAAAAAAAAtpstttitttststtiiyiiyyiiiit:AAAAAAAAAAAAAAAAAAA",
"AAAAAAAAAAAAAAAAAAAA&iiitiiiiiittiiiiuiuittiiittAAAAAAAAAAAAAAAAAAAAAAAAAAAAAAAAAtiitiiisttttsttiiyptttiititAAAAAAAAAAAAAAAAAAAA",
"AAAAAAAAAAAAAAAAAAAAO4tiitittttiitituititiiutiitAAAAAAAAAAAAAAAAAAAAAAAAAAAAAAAA-itiitittttpttsttttttypptiy2AAAAAAAAAAAAAAAAAAAA",
"AAAAAAAAAAAAAAAAAAAAA:titytiuittuuttititiitiitttAAAAAAAAAAAAAAAAAAAAAAAAAAAAAAAA:itiittipttttittitpystttyip:AAAAAAAAAAAAAAAAAAAA",
"AAAAAAAAAAAAAAAAAAAAA#ttitituuiitutitutittuttityAAAAAAAAAAAAAAAAAAAAAAAAAAAAAAAA<tyttittt9sttts9tttttttttt4AAAAAAAAAAAAAAAAAAAAA",
"AAAAAAAAAAAAAAAAAAAAAX<itiittuttuttittuttutitytu8AAAAAAAAAAAAAAAAAAAAAAAAAAAAAAA2ttttttyttttttttttpttttttt>AAAAAAAAAAAAAAAAAAAAA",
"AAAAAAAAAAAAAAAAAAAAAA=ittttttititttutttttttyttt9AAAAAAAAAAAAAAAAAAAAAAAAAAAAAAA9tttttttttttttttttttttttt9AAAAAAAAAAAAAAAAAAAAAA",
"AAAAAAAAAAAAAAAAAAAAAAX4tttttttttttttttttttttttt9AAAAAAAAAAAAAAAAAAAAAAAAAAAAAAAttttttttttttttttttttyytty2AAAAAAAAAAAAAAAAAAAAAA",
"AAAAAAAAAAAAAAAAAAAAAAA-ttttttttttttttttttttttttyAAAAAAAAAAAAAAAAAAAAAAAAAAAAAA:ttttttttttttttt99ttttttt4-AAAAAAAAAAAAAAAAAAAAAA",
"AAAAAAAAAAAAAAAAAAAAAAAO2ttt4tttttttttttttt4ytttyAAAAAAAAAAAAAAAAAAAAAAAAAAAAAA2ttttty99tt9ttt9ttt9t9tt9<AAAAAAAAAAAAAAAAAAAAAAA",
"AAAAAAAAAAAAAAAAAAAAAAA -i4tii4tti4t9t9itttttw4ty3AAAAAAAAAAAAAAAAAAAAAAAAAAAAA4t9y4t9y99t9tt9tty9tttty8#AAAAAAAAAAAAAAAAAAAAAAA",
"AAAAAAAAAAAAAAAAAAAAAAAA.<ttwtttt4t4t9t44t4ttti0t4AAAAAAAAAAAAAAAAAAAAAAAAAAAAA99tt9tt9t9tt99ttt99t9t99,AAAAAAAAAAAAAAAAAAAAAAAA",
"AAAAAAAAAAAAAAAAAAAAAAAA #04i44ttttt9tt4ttuw4t4ty9AAAAAAAAAAAAAAAAAAAAAAAAAAAA,yt9y999t9tt9tt9999t9t992AAAAAAAAAAAAAAAAAAAAAAAAA",
"AAAAAAAAAAAAAAAAAAAAAAAAA :t4ttttitwt4tt4t9tttt4993AAAAAAAAAAAAAAAAAAAAAAAAAAA4999y99tt999t99tt99t9y99-AAAAAAAAAAAAAAAAAAAAAAAAA",
"AAAAAAAAAAAAAAAAAAAAAAAAAA+<tt4t44t49t9ttt9t4t4t999AAAAAAAAAAAAAAAAAAAAAAAAAA:99999999999999999999999,AAAAAAAAAAAAAAAAAAAAAAAAAA",
"AAAAAAAAAAAAAAAAAAAAAAAAAA &t44t4t4t999i4tt4ttt0t99AAAAAAAAAAAAAAAAAAAAAAAAAA299999999999999999999992@AAAAAAAAAAAAAAAAAAAAAAAAAA",
"AAAAAAAAAAAAAAAAAAAAAAAAAAA :4t4t0t49994t44t44t49999AAAAAAAAAAAAAAAAAAAAAAAAA49999999999999999999948*AAAAAAAAAAAAAAAAAAAAAAAAAAA",
"AAAAAAAAAAAAAAAAAAAAAAAAAAA .>t4t9999999999999999999AAAAAAAAAAAAAAAAAAAAAAAA<9989999999999999999499;AAAAAAAAAAAAAAAAAAAAAAAAAAAA",
"AAAAAAAAAAAAAAAAAAAAAAAAAAAA @<4444t94t449t49t4949994AAAAAAAAAAAAAAAAAAAAAA,8989949493994944449999:AAAAAAAAAAAAAAAAAAAAAAAAAAAAA",
"AAAAAAAAAAAAAAAAAAAAAAAAAAAAA @<9t494999944494t4999943AAAAAAAAAAAAAAAAAAAAA3988849994999999999944,AAAAAAAAAAAAAAAAAAAAAAAAAAAAAA",
"AAAAAAAAAAAAAAAAAAAAAAAAAAAAAA @<49994494t4994499444994AAAAAAAAAAAAAAAAAAA3888889694944994949443<#AAAAAAAAAAAAAAAAAAAAAAAAAAAAAA",
"AAAAAAAAAAAAAAAAAAAAAAAAAAAAAA  @,4449944949444944498983AAAAAAAAAAAAAAAAA<998888498894944449499<#AAAAAAAAAAAAAAAAAAAAAAAAAAAAAAA",
"AAAAAAAAAAAAAAAAAAAAAAAAAAAAAAA  @<4444944944944949344449AAAAAAAAAAAAAAA4963388893434939494434<#AAAAAAAAAAAAAAAAAAAAAAAAAAAAAAAA",
"AAAAAAAAAAAAAAAAAAAAAAAAAAAAAAAA  @,9444944444943939394993AAAAAAAAAAAAA3393488933983933984494:+AAAAAAAAAAAAAAAAAAAAAAAAAAAAAAAAA",
"AAAAAAAAAAAAAAAAAAAAAAAAAAAAAAAAA  @<44444944488838394433394AAAAAAAA336634443838844333833838- AAAAAAAAAAAAAAAAAAAAAAAAAAAAAAAAAA",
"AAAAAAAAAAAAAAAAAAAAAAAAAAAAAAAAAA  +:4444444444344438383393383844338838838833333338333944<=AAAAAAAAAAAAAAAAAAAAAAAAAAAAAAAAAAAA",
"AAAAAAAAAAAAAAAAAAAAAAAAAAAAAAAAAAA   *>4444444434448333833383334483338333333883393338334>@AAAAAAAAAAAAAAAAAAAAAAAAAAAAAAAAAAAAA",
"AAAAAAAAAAAAAAAAAAAAAAAAAAAAAAAAAAAA   @:2442444444483833383823349333833394338223338383<-.AAAAAAAAAAAAAAAAAAAAAAAAAAAAAAAAAAAAAA",
"AAAAAAAAAAAAAAAAAAAAAAAAAAAAAAAAAAAAAA   #<2424233443333383332833333333333333338383333;@ AAAAAAAAAAAAAAAAAAAAAAAAAAAAAAAAAAAAAAA",
"AAAAAAAAAAAAAAAAAAAAAAAAAAAAAAAAAAAAAAA   X=<244333333333332828233333333333333333344:% AAAAAAAAAAAAAAAAAAAAAAAAAAAAAAAAAAAAAAAAA",
"AAAAAAAAAAAAAAAAAAAAAAAAAAAAAAAAAAAAAAAAA   O=<2333333333333223233333333323333333<:%X AAAAAAAAAAAAAAAAAAAAAAAAAAAAAAAAAAAAAAAAAA",
"AAAAAAAAAAAAAAAAAAAAAAAAAAAAAAAAAAAAAAAAAA    X%;322222233222322332232222233323<-+  AAAAAAAAAAAAAAAAAAAAAAAAAAAAAAAAAAAAAAAAAAAA",
"AAAAAAAAAAAAAAAAAAAAAAAAAAAAAAAAAAAAAAAAAAAA     +=><2223222222222222222222<,;%o  AAAAAAAAAAAAAAAAAAAAAAAAAAAAAAAAAAAAAAAAAAAAAA",
"AAAAAAAAAAAAAAAAAAAAAAAAAAAAAAAAAAAAAAAAAAAAAA     .o#-:,1<22222222232<<:-=+.   AAAAAAAAAAAAAAAAAAAAAAAAAAAAAAAAAAAAAAAAAAAAAAAA",
"AAAAAAAAAAAAAAAAAAAAAAAAAAAAAAAAAAAAAAAAAAAAAAAAA       .O+%#&-:-;-%%#Oo.     AAAAAAAAAAAAAAAAAAAAAAAAAAAAAAAAAAAAAAAAAAAAAAAAAA",
"AAAAAAAAAAAAAAAAAAAAAAAAAAAAAAAAAAAAAAAAAAAAAAAAAAAA                      AAAAAAAAAAAAAAAAAAAAAAAAAAAAAAAAAAAAAAAAAAAAAAAAAAAAAA",
"AAAAAAAAAAAAAAAAAAAAAAAAAAAAAAAAAAAAAAAAAAAAAAAAAAAAAAAAA            AAAAAAAAAAAAAAAAAAAAAAAAAAAAAAAAAAAAAAAAAAAAAAAAAAAAAAAAAAA",
"AAAAAAAAAAAAAAAAAAAAAAAAAAAAAAAAAAAAAAAAAAAAAAAAAAAAAAAAAAAAAAAAAAAAAAAAAAAAAAAAAAAAAAAAAAAAAAAAAAAAAAAAAAAAAAAAAAAAAAAAAAAAAAAA",
"AAAAAAAAAAAAAAAAAAAAAAAAAAAAAAAAAAAAAAAAAAAAAAAAAAAAAAAAAAAAAAAAAAAAAAAAAAAAAAAAAAAAAAAAAAAAAAAAAAAAAAAAAAAAAAAAAAAAAAAAAAAAAAAA",
"AAAAAAAAAAAAAAAAAAAAAAAAAAAAAAAAAAAAAAAAAAAAAAAAAAAAAAAAAAAAAAAAAAAAAAAAAAAAAAAAAAAAAAAAAAAAAAAAAAAAAAAAAAAAAAAAAAAAAAAAAAAAAAAA",
"AAAAAAAAAAAAAAAAAAAAAAAAAAAAAAAAAAAAAAAAAAAAAAAAAAAAAAAAAAAAAAAAAAAAAAAAAAAAAAAAAAAAAAAAAAAAAAAAAAAAAAAAAAAAAAAAAAAAAAAAAAAAAAAA",
"AAAAAAAAAAAAAAAAAAAAAAAAAAAAAAAAAAAAAAAAAAAAAAAAAAAAAAAAAAAAAAAAAAAAAAAAAAAAAAAAAAAAAAAAAAAAAAAAAAAAAAAAAAAAAAAAAAAAAAAAAAAAAAAA",
"AAAAAAAAAAAAAAAAAAAAAAAAAAAAAAAAAAAAAAAAAAAAAAAAAAAAAAAAAAAAAAAAAAAAAAAAAAAAAAAAAAAAAAAAAAAAAAAAAAAAAAAAAAAAAAAAAAAAAAAAAAAAAAAA",
"AAAAAAAAAAAAAAAAAAAAAAAAAAAAAAAAAAAAAAAAAAAAAAAAAAAAAAAAAAAAAAAAAAAAAAAAAAAAAAAAAAAAAAAAAAAAAAAAAAAAAAAAAAAAAAAAAAAAAAAAAAAAAAAA",
"AAAAAAAAAAAAAAAAAAAAAAAAAAAAAAAAAAAAAAAAAAAAAAAAAAAAAAAAAAAAAAAAAAAAAAAAAAAAAAAAAAAAAAAAAAAAAAAAAAAAAAAAAAAAAAAAAAAAAAAAAAAAAAAA",
"AAAAAAAAAAAAAAAAAAAAAAAAAAAAAAAAAAAAAAAAAAAAAAAAAAAAAAAAAAAAAAAAAAAAAAAAAAAAAAAAAAAAAAAAAAAAAAAAAAAAAAAAAAAAAAAAAAAAAAAAAAAAAAAA",
"AAAAAAAAAAAAAAAAAAAAAAAAAAAAAAAAAAAAAAAAAAAAAAAAAAAAAAAAAAAAAAAAAAAAAAAAAAAAAAAAAAAAAAAAAAAAAAAAAAAAAAAAAAAAAAAAAAAAAAAAAAAAAAAA",
"AAAAAAAAAAAAAAAAAAAAAAAAAAAAAAAAAAAAAAAAAAAAAAAAAAAAAAAAAAAAAAAAAAAAAAAAAAAAAAAAAAAAAAAAAAAAAAAAAAAAAAAAAAAAAAAAAAAAAAAAAAAAAAAA",
"AAAAAAAAAAAAAAAAAAAAAAAAAAAAAAAAAAAAAAAAAAAAAAAAAAAAAAAAAAAAAAAAAAAAAAAAAAAAAAAAAAAAAAAAAAAAAAAAAAAAAAAAAAAAAAAAAAAAAAAAAAAAAAAA"
};
