/* XPM */
static char *picasa[] = {
/* columns rows colors chars-per-pixel */
"128 128 59 1 ",
"  c #006600660066",
". c #053805380538",
"X c #07A107A10808",
"o c #0B3E0B3E0B3E",
"O c #0C0C0C0C0CD9",
"+ c #0E740E740E74",
"@ c #10100F420F42",
"# c #1144114411AB",
"$ c #134613461278",
"% c #147A147A147A",
"& c #174A174A174A",
"* c #1B4E1B4E1B4E",
"= c #1CE91C821CE9",
"- c #1E1E1E1E1E1E",
"; c #21BB21BB21BB",
": c #255825582558",
"> c #2626268C2626",
", c #26F326262626",
"< c #275A275A275A",
"1 c #29C329C3295C",
"2 c #2B5E2B5E2B5E",
"3 c #2CF92CF92C92",
"4 c #2D602C922D60",
"5 c #2E2E2DC72DC7",
"6 c #31CB31CB31CB",
"7 c #336632983298",
"8 c #349A349A349A",
"9 c #365136663666",
"0 c gray22",
"q c #39D339053905",
"w c #39D339D3396C",
"e c #396C396C3A3A",
"r c #39D3396C39D3",
"t c #3B073B073B07",
"y c #3CA23CA23D09",
"u c #3EA43EA43EA4",
"i c #40403FD94040",
"p c #41DB41DB41DB",
"a c #431E4349432D",
"s c #451145114511",
"d c #4678467A466A",
"f c #484848484848",
"g c #497C49E3497C",
"h c #49E349E3497C",
"j c #497C497C49E3",
"k c #4B7E4B7E4B7E",
"l c #4D194CB24CB2",
"z c #4CB24D194CB2",
"x c #4CB24CB24D19",
"c c #4D194CB24D19",
"v c #4EB44EB44EB4",
"b c #5027500B502E",
"n c #518451845184",
"m c #534253695342",
"M c #54BA54BA54BA",
"N c #567F5686568C",
"B c #572357235656",
"V c #57F157F157F1",
"C c None",
/* pixels */
"CCCCCCCCCCCCCCCCCCCCCCCCCCCCCCCCCCCCCCCCCCCCCCCCCCCCCCCCCCCCCCCCCCCCCCCCCCCCCCCCCCCCCCCCCCCCCCCCCCCCCCCCCCCCCCCCCCCCCCCCCCCCCCCC",
"CCCCCCCCCCCCCCCCCCCCCCCCCCCCCCCCCCCCCCCCCCCCCCCCCCCCCCCCCCCCCCCCCCCCCCCCCCCCCCCCCCCCCCCCCCCCCCCCCCCCCCCCCCCCCCCCCCCCCCCCCCCCCCCC",
"CCCCCCCCCCCCCCCCCCCCCCCCCCCCCCCCCCCCCCCCCCCCCCCCCCCCCCCCCCCCCCCCCCCCCCCCCCCCCCCCCCCCCCCCCCCCCCCCCCCCCCCCCCCCCCCCCCCCCCCCCCCCCCCC",
"CCCCCCCCCCCCCCCCCCCCCCCCCCCCCCCCCCCCCCCCCCCCCCCCCCCCCCCCCCCCCCCCCCCCCCCCCCCCCCCCCCCCCCCCCCCCCCCCCCCCCCCCCCCCCCCCCCCCCCCCCCCCCCCC",
"CCCCCCCCCCCCCCCCCCCCCCCCCCCCCCCCCCCCCCCCCCCCCCCCCCCCCCCCCCCCCCCCCCCCCCCCCCCCCCCCCCCCCCCCCCCCCCCCCCCCCCCCCCCCCCCCCCCCCCCCCCCCCCCC",
"CCCCCCCCCCCCCCCCCCCCCCCCCCCCCCCCCCCCCCCCCCCCCCCCCCCCCCCCCCCCCCCCCCCCCCCCCCCCCCCCCCCCCCCCCCCCCCCCCCCCCCCCCCCCCCCCCCCCCCCCCCCCCCCC",
"CCCCCCCCCCCCCCCCCCCCCCCCCCCCCCCCCCCCCCCCCCCCCCCCCCCCCCCCCCCCCCCCCCCCCCCCCCCCCCCCCCCCCCCCCCCCCCCCCCCCCCCCCCCCCCCCCCCCCCCCCCCCCCCC",
"CCCCCCCCCCCCCCCCCCCCCCCCCCCCCCCCCCCCCCCCCCCCCCCCCCCCCCCCVVVVVVVVVVVVVVVCCCCCCCCCCCCCCCCCCCCCCCCCCCCCCCCCCCCCCCCCCCCCCCCCCCCCCCCC",
"CCCCCCCCCCCCCCCCCCCCCCCCCCCCCCCCCCCCCCCCCCCCCCCCCCVVVVVVVVVVVVVVVVVVVVVVVVVVVCCCCCCCCCCCCCCCCCCCCCCCCCCCCCCCCCCCCCCCCCCCCCCCCCCC",
"CCCCCCCCCCCCCCCCCCCCCCCCCCCCCCCCCCCCCCCCCCCCCCNVVVVVVVVVVVVVVVVVVVVVVVVVVVVVVVVVVCCCCCCCCCCCCCCCCCCCCCCCCCCCCCCCCCCCCCCCCCCCCCCC",
"CCCCCCCCCCCCCCCCCCCCCCCCCCCCCCCCCCCCCCCCCCCCVVVVVVVVVVVVVVVVVVVVVVVVVVVVVVVVVVVVVVVVCCCCCCCCCCCCCCCCCCCCCCCCCCCCCCCCCCCCCCCCCCCC",
"CCCCCCCCCCCCCCCCCCCCCCCCCCCCCCCCCCCCCCCCCCCCmVVVVVVVVVVVVVVVVVVVVVVVVVVVVVVVVVVVVVVVVVCCCCCCCCCCCCCCCCCCCCCCCCCCCCCCCCCCCCCCCCCC",
"CCCCCCCCCCCCCCCCCCCCCCCCCCCCCCCCCCCCCCCCCCCCCjMNVVVVVVVVVVVVVVVVVVVVVVVVVVVVVVVVVVVVVMCCCCCCCCCCCCCCCCCCCCCCCCCCCCCCCCCCCCCCCCCC",
"CCCCCCCCCCCCCCCCCCCCCCCCCCCCCCCCCCCCCCCCCCCCCC7bVVVNVVVVVVVVVVVVVVVVVVMVVVVVVVVVVVMVVVCCCCCCCCCCCCCCCCCCCCCCCCCCCCCCCCCCCCCCCCCC",
"CCCCCCCCCCCCCCCCCCCCCCCCCCCCCCCCCCCMVMCCCCCCCCC2mMMVVMVVVVVVVVVVVVVVVVVVVVVVVVVVVVVMVMCCCCCCCCCCCCCCCCCCCCCCCCCCCCCCCCCCCCCCCCCC",
"CCCCCCCCCCCCCCCCCCCCCCCCCCCCCCCCCCMVNVMMCCCCCCCC5vMVMVVMVVVVVVVVVVVVVNNVVVVVVVVVVMVVNMCCCCCCCMCCCCCCCCCCCCCCCCCCCCCCCCCCCCCCCCCC",
"CCCCCCCCCCCCCCCCCCCCCCCCCCCCCCCCmNNVVNNNmCCCCCCC >vMNVVNVMNNNNMNVVVMMMVVNNMNNNNVNNmNNmCCCCCCCMMCCCCCCCCCCCCCCCCCCCCCCCCCCCCCCCCC",
"CCCCCCCCCCCCCCCCCCCCCCCCCCCCCCCMNVNmmNVmNbCCCCCCC >jNMMMMVMVmNNNVVMMVVMMNNNNVmmNVmNNNmCCCCCCCMVMMCCCCCCCCCCCCCCCCCCCCCCCCCCCCCCC",
"CCCCCCCCCCCCCCCCCCCCCCCCCCCCCmMMVmMMNNNNNMmCCCCCC  ;iMMMMVNmVmMNVMVVMVMMmVMMNNmNNNNNMbCCCCCCCMMMMMCCCCCCCCCCCCCCCCCCCCCCCCCCCCCC",
"CCCCCCCCCCCCCCCCCCCCCCCCCCCCmMMMmVMMmNmNMMMbCCCCCC  +yMMMMVMmVMMVVMMMVMMNMMMmNNNmNmNMmCCCCCCjMMVMMMCCCCCCCCCCCCCCCCCCCCCCCCCCCCC",
"CCCCCCCCCCCCCCCCCCCCCCCCCCCmmMMMMMMMMMMMMMMMbCCCCCCC otMMMMMMMMMMMMMMMMMMMMMMMMMMMMMMbCCCCCCiMMMMMMMmCCCCCCCCCCCCCCCCCCCCCCCCCCC",
"CCCCCCCCCCCCCCCCCCCCCCCCCCmMmMMMmNMMMMMMMMMMmmCCCCCCC otMMMMMMMMMMMMMMMMMMMMMMMMMMMMMmCCCCCCyMMMMMMMmmCCCCCCCCCCCCCCCCCCCCCCCCCC",
"CCCCCCCCCCCCCCCCCCCCCCCCCmMMMMMMmmmMMMMmMMmMMMbCCCCCCC otmMMMmMmMmMMmMMMMMmNMMmMMMMmmvCCCCCCyMmMMMMMMMmCCCCCCCCCCCCCCCCCCCCCCCCC",
"CCCCCCCCCCCCCCCCCCCCCCCCmmmmmmmMmMmMmmmmMMmMMMMmCCCCCCC otmmMmmmbMmMmMMMmmmmmmmMmmMmMmCCCCCC0mmmmmMmMmmmCCCCCCCCCCCCCCCCCCCCCCCC",
"CCCCCCCCCCCCCCCCCCCCCCCbmmmmmbmmmmmmmmmmmmmmmmmmmCCCCCCC X5kmMmmMbMmmmmmmMmmmmmmmmmmMvCCCCCCtmmmmmmmMmmmvCCCCCCCCCCCCCCCCCCCCCCC",
"CCCCCCCCCCCCCCCCCCCCCCbmmmmmmmmmmmmmmmmmmmmmmmmmmmCCCCCCC  <jmmmmMbMmmbmmmmmmmbmmmmmmvCCCCCC9mmmmmmmmmmmmmCCCCCCCCCCCCCCCCCCCCCC",
"CCCCCCCCCCCCCCCCCCCCCmmmmmmmmmmmmmmmmmmmmmmmmbmmmmmjCCCCCC  >jmmbMMmmmmmmbbmmmmmbmmmmvCCCCCC9mmmmmmmmmmmMmCCCCCCCCCCCCCCCCCCCCCC",
"CCCCCCCCCCCCCCCCCCCCjmmbbmbmmmmbmbbmmbbmmbmbmmbmvmmbvCCCCCC  >jmbmmbmmbmmmmmbmmbmmmbmvCCCCCC9mbmmmbbmmmvvmmCCCCCCCCCCCCCCCCCCCCC",
"CCCCCCCCCCCCCCCCCCCjbmmmbmbmbbmmmmbmbbmmmvmmbbmmmmbmmkCCCCCC  >jMbbmbmmmbmmmbmmbbmmbbvCCCCCC9mmbmmmbbmbmbmmbCCCCCCCCCCCCCCCCCCCC",
"CCCCCCCCCCCCCCCCCCCmbmbmmbmbbmbbbbmbmmbbbmmbmbbmbbmmvmjCCCCCC  >dmmbmbbbmbbbbmmbbmbmmvCCCCCC9mmvbbbmbmmbbmbmmCCCCCCCCCCCCCCCCCCC",
"CCCCCCCCCCCCCCCCCCvmmbbbbmbmbmmbbmmbbmbmmbbmbmmbbmmbbmmjCCCCCC  &0bmbmbmbbmmmbmmmbmbbxCCCCCC9vmmmbmbmbbbmbbbmCCCCCCCCCCCCCCCCCCC",
"CCCCCCCCCCCCCCCCCjvmbbmbmbmbbbbmmbbvmbmvbmvbmbvmbbvmvbmmjCCCCCC  +tbmvmvmbbbbbbbbbbmbvCCCCCC9bmvbbbbvmvmvmbmmvCCCCCCCCCCCCCCCCCC",
"CCCCCCCCCCCCCCCCCvmvmvbvmvmvbmvmvmvmbbbvbmbbmmbbbbmbmvbbbvCCCCCCC +tbbmbvmbbmbbbvbvmmkCCCCCC9vbbmbbbbbbmnbnbnbbCCCCCCCCCCCCCCCCC",
"CCCCCCCCCCCCCCCCvbvmbvbvbbvmbbvmvvmvbbbmbvbbvbbbbbvbvbbbbbjCCCCCCC +tbvvvvmbvvmbbmvbbkCCCCCC9mbbbbbbbbbbbbbbbbbCCCCCCCCCCCCCCCCC",
"CCCCCCCCCCCCCCCjmvvmbbbvmvvbvvbbbvvvbbbbbbbvbbbvvbbbbbbbvvCCCCCCCCC OtvmbbbbvbbbbbbbbjCCCCCC9bbbbbbbbbbvbbbbbbbbCCCCCCCCCCCCCCCC",
"CCCCCCCCCCCCCCCvvvvvbbmvvbbbvvmvvmvvbbvvbbvbvbbbvvmbbbbvdCCCCCCCCCCC O9jbbbvbbbbbbvvmkCCCCCC9vbvbbbbbvbbkbbbbbbbvCCCCCCCCCCCCCCC",
"CCCCCCCCCCCCCCdvvbvbbvvvvvvvvmvvvvvmvvvvvbvbvvbvvvvvbvvyCCCCCCCCCCCCC .>fbvvvvbvvbbvvkCCCCCC8vvvbvvbvvbvvvvvbbvvvCCCCCCCCCCCCCCC",
"CCCCCCCCCCCCCCvvvvvvvvvvvvvvvvvvbvvvvvvvvbvvvbbvvvvbvj1CCCCCCCCCCCCCCC  >dbvvvvvvvvvvjCCCCCC8vvvvvvvvbvvvvvbvvvvvjCCCCCCCCCCCCCC",
"CCCCCCCCCCCCCdvvvvvvvvvvvvvvvvvvvvvvvvvvvvvvvvvvvvvvj1CCCCCCCCCCCCCCCCC  >fvvvvvvvvvvvCCCCCC8vvvvvvvvvvvvvvvvvvvvvCCCCCCCCCCCCCC",
"CCCCCCCCCCCCCjvvvvvvvvvvvvvvvvvvvvvvvvvvvvkvvvvvvvvj>CCCCCCCCCCCCCCCCCCC  >fvvvvvvvvvjCCCCCC9vvvvvvvvvvvvvvvvvvvvvjCCCCCCCCCCCCC",
"CCCCCCCCCCCCdbvvvkvvvkvvkvvvvvkvvvvvvvvvvvvvkkvvvvd1CCCCCCCCCCCCCCCCCCCCC  >fvvjvvvvkjCCCCCC9vvjvvkvkbbkkkbkvvkvvvvCCCCCCCCCCCCC",
"CCCCCCCCCCCCjjvkvvkvkvkvvvkvvkvvkvkvkvkvvkvvvvvkjy-CCCCCCCCCCCCCCCCCCCCCCC  ;yvvvjvvvfCCCCCC7vvzkvvvbkkbbbbkvkbkkvkjCCCCCCCCCCCC",
"CCCCCCCCCCCykvkvkvvvvvvkkzvkkvkvvkvkvvvkkvkvvkkvt+CCCCCCCCCCCCCCCCCCCCCCCCC  @tvvvkkvjCCCCCC7jvvvvkkkbkvbkkbbbkbvkvjCCCCCCCCCCCC",
"CCCCCCCCCCCjkjvvvkkkkkkvvkvkkkvkkvkvkjkvvkkkkvk0@CCCCCCCCCCCCCCCCCCCCCCCCCCC  +9vjvkkjCCCCCC7vkvjkkvkbkkkvkkkkkvkvjvCCCCCCCCCCCC",
"CCCCCCCCCCCkkkvkvkvkzkzkkkvkkvkvkkkvvkkjvjkvvvt@CCCCCCCCCCCCCCCCCCCCCCCCCCCCCC @tkkvkfCCCCCC8zzkkkkkvkvkkkkvkkkkkkvjjCCCCCCCCCCC",
"CCCCCCCCCCikkvkjkkkkkvkkkvkkkkkkkvkkkvkvkvkjf9@CCCCCCCCCCCCCCCCCCCCCCCCCCCCCCCC @0kjvdCCCCCC7kkkkvkvkkkvkvkkkkvkkvjvkCCCCCCCCCCC",
"CCCCCCCCCCdjkvvjkkkvkkkvkkkkkkkkkkkkkkkkkkkd<XCCCCCCCCCCCCCCCCCCCCCCCCCCCCCCCCCC @tjjfCCCCCC6kkkkkkkkkkkkkkkkvkkvkkvkCCCCCCCCCCC",
"CCCCCCCCCCjkkkkkkkkkkkkkkkkkkkkkkkkkkkkkkkd1CCCCCCCCCCCCCCCCCCCCCCCCCCCCCCCCCCCCCC+7jjCCCCCC6kkkkkkkkkkkkkkkkkkkjkkjkjCCCCCCCCCC",
"CCCCCCCCC9kkkkkkkkkkkkkjkkkkkkkkkkkkkkkkjd<CCCCCCCCCCCCCCCCCCCCCCCCCCCCCCCCCCCCCCCCC7dCCCCCC6kkkkkkkkkkkkkjkkkkkkkkkkjCCCCCCCCCC",
"CCCCCCCCCykkjjfkkkjkjkkkkhfkkhjkkkkkkjkfd1CCCCCCCCCCCCCCCCCCCCCCCCCCCCCCCCCCCCCCCCCCCCCCCCCC6kkfjkhhjkhhkjkkkfkjkkfkjfCCCCCCCCCC",
"CCCCCCCCCdfkkkjkfkkkkkfkkkkhjkjkjjkjkffy;CCCCCCCCCCCCCCCCCCCCCCCCCCCCCCCCCCCCCCCCCCCCCCCCCCC6fkfhkhkhkkkfkkkkfkkkfkkjvCCCCCCCCCC",
"CCCCCCCCCfkkjjfkkffjffkffkfkjhfkjkfkkk0#CCCCCCCCCCCCCCCCCCCCCCCCCCCCCCCCCCCCCCCCCCCCCCCCCCCC7kjkjjkfkffkkffkfkfkfkjfjddCCCCCCCCC",
"CCCCCCCCCjfjfkkjfkkfjfjjkfhffkjjfkfkf0#CCCCCCCCCCCCCCCCCCCCCCCCCCCCCCCCCCCCCCCCCCCCCCCCCCCCC7fjjjkfkhjjkffjjjfjkkfjfkfdCCCCCCCCC",
"CCCCCCCCtjfjfffjfffkfkkffffkjffjjfjf9#CCCCCCCCCCCCCCCCCCCCCCCCCCCCCCCCCCCCCCCCCCCCCCCCCCCCCC7fjjffffhhfffkffjfffkffkkfjCCCCCCCCC",
"CCCCCCCCtffffffffjjffjffkfjffjfffjf9#CCCCCCCCCCCCCCCCCCCCCCCCCCCCCCCCCCCCCCCCCCCCCCCCCCCCCCC7fffhffjfffkffffjjfffffffjfCCCCCCCCC",
"CCCCCCCCyffffkfffffffffffffffffjfd3oCCCCCCCCCCCCCCCCCCCCCCCCCCCCCCCCCCCCCCCCCCCCCCCCCCCCCCCC6dfffhffffffffkfffffffjfffdCCCCCCCCC",
"CCCCCCCCdjfffffffffffffffffffffja1CCCCCCCCCCCCCCCCCCCCCCCCCCCCCCCCCCCCCCCCCCCCCCCCCCCCCCCCCC3fffffffffffffffffffffffffjCCCCCCCCC",
"CCCCCCCCddfffdfffffffffffffffffi<CCCCCCCCCCCCCCCCCCCCCCCCCCCCCCCCCCCCCCCCCCCCCCCCCCCCCCCCCCC7fffffffffffffffffdffdffffjiCCCCCCCC",
"CCCCCCCCdfddfdfffsfffddfffdfjfa1CCCCCCCCCCCCCCCCCCCCCCCCCCCCCCCCCCCCCCCCCCCCCCCCCCCCCCCCCCCC3ffsffffdfdfffsfdffffddfffdyCCCCCCCC",
"CCCCCCCCijddffdddffffddfdddddt>CCCCCCCCCCCCCCCCCCCCCCCCCCCCCCCCCCCCCCCCCCCCCCCCCCCCCCCCCCCCC5ffdfdddffddsffffsdffdjdddjyCCCCCCCC",
"CCCCCCCCidddddddsfsfddfdddfd9$CCCCCCCCCCCCCCCCCCCCCCCCCCCCCCCCCCCCCCCCCCCCCCCCCCCCCCCCCCCCCC3fffsfsfdddffddffsfsddddddfyCCCCCCCC",
"CCCCCCCCdjddddddfsfsfssdddd9$CCCCCCCCCCCCCCCCCCCCCCCCCCCCCCCCCCCCCCCCCCCCCCCCCCCCCCCCCCCCCCC3fsdssfsddsssfdssfsfdddddfdtCCCCCCCC",
"CCCCCCCCiddddfddsfsfssdssd9$CCCCCCCCCCCCCCCCCCCCCCCCCCCCCCCCCCCCCCCCCCCCCCCCCCCCCCCCCCCCCCCC7ssssfsfsdssssdssfdssfsffddtCCCCCCCC",
"CCCCCCCCidddadadsssssdsfs9%CCCCCCCCCCCCCCCCCCCCCCCCCCCCCCCCCCCCCCCCCCCCCCCCCCCCCCCCCCCCCCCCC3ssfssfsssfsfssdssdsssssiddyCCCCCCCC",
"CCCCCCCCaaddddssdaaddddi5@CCCCCCCCaCCCCCCCCCCCCCCCCCCCCCCCCCCCCCCCCCCCCCCCCCCCCCCCCCCCCCCCCC5adssdsssssdaddadddaddadssatCCCCCCCC",
"CCCCCCCCadadaadsaddadaa<CCCCCCCCCadCCCCCCCCCCCCCCCCCCCCCCCCCCCCCCCCCCCCCCCCCCCCCCCCCCCCCCCCC5dsssssdssaddaaddaadadadssstCCCCCCCC",
"CCCCCCCCiddidadsdaddsi<CCCCCCCCCdifCCCCCCCCCCCCCCCCCCCCCCCCCCCCCCCCCCCCCCCCCCCCCCCCCCCCCCCCC5addsssdssdadddadaddddddssatCCCCCCCC",
"CCCCCCCCiaddiddaddadi<CCCCCCCCipadsCCCCCCCCCCCCCCCCCCCCCCCCCCCCCCCCCCCCCCCCCCCCCCCCCCCCCCCCC5aaasssiassdaaaaadaaaadasadtCCCCCCCC",
"CCCCCCCCididddiaidiy<CCCCCCCCiadddiCCCCCCCCCCCCCCCCCCCCCCCCCCCCCCCCCCCCCCCCCCCCCCCCCCCCCCCCC5adaaaadiaadaaadaaaaaaadpaf9CCCCCCCC",
"CCCCCCCCydaaidaaid8&CCCCCCCCyaaadiiCCCCCCCCCCCCCCCCCCCCCCCCCCCCCCCCCCCCCCCCCCCCCCCCCCCCCCCCC5aaaaaaaadsiaaaaaaaaaaaadaaCCCCCCCCC",
"CCCCCCCC9aaaaiisi9$CCCCCCCCyaaaaiaaCCCCCCCCCCCCCCCCCCCCCCCCCCCCCCCCCCCCCCCCCCCCCCCCCCCCCCCCC5aaadaaaiaaaaaaaaaaaaaaapapCCCCCCCCC",
"CCCCCCCC7isisidi9&CCCCCCCCiaaapasaaCCCCCCCCCCCCCCCCCCCCCCCCCCCCCCCCCCCCCCCCCCCCCCCCCCCCCCCCC5iaaaaaisasiaaaaaaaaappaappCCCCCCCCC",
"CCCCCCCC5iiadia9#CCCCCCCCasapapaiaiCCCCCCCCCCCCCCCCCCCCCCCCCCCCCCCCCCCCCCCCCCCCCCCCCCCCCCCCC5saiiaaiaaaaiaappappaaaaaaiCCCCCCCCC",
"CCCCCCCC-ydiiy5#CCCCCCCCipipppppaiyCCCCCCCCCCCCCCCCCCCCCCCCCCCCCCCCCCCCCCCCCCCCCCCCCCCCCCCCC3iaaaiaaiaiaapppppppaiaiia9CCCCCCCCC",
"CCCCCCCC&yidi<CCCCCCCCCypppappppiaiCCCCCCCCCCCCCCCCCCCCCCCCCCCCCCCCCCCCCCCCCCCCCCCCCCCCCCCCC3iaiaiiaaiiappppppppiaiaai9CCCCCCCCC",
"CCCCCCCCC9iy1CCCCCCCCCiaauppppppaiiCCCCCCCCCCCCCCCCCCCCCCCCCCCCCCCCCCCCCCCCCCCCCCCCCCCCCCCCC3iisiaaiiaaippppppppaiaiaiCCCCCCCCCC",
"CCCCCCCCC7y>CCCCCCCCtiaiauapppiiiaiCCCCCCCCCCCCCCCCCCCCCCCCCCCCCCCCCCCCCCCCCCCCCCCCCCCCCCCCC3iiiaiiaiiaipipppiipaiiaatCCCCCCCCCC",
"CCCCCCCCC;>CCCCCCCCtyiiauaupiiaiiiyCCCCCCCCCCCCCCCCCCCCCCCCCCCCCCCCCCCCCCCCCCCCCCCCCCCCCCCCC3iiiiiaiiiiiiiiipippiiiii9CCCCCCCCCC",
"CCCCCCCCCCCCCCCCCCtiiiiiuuiiiiiiiiyCCCCCCCCCCCCCCCCCCCCCCCCCCCCCCCCCCCCCCCCCCCCCCCCCCCCCCCCC1iiiiiiiiaiiiiiiiiipiiiia7CCCCCCCCCC",
"CCCCCCCCCCCCCCCCCtiiiiiiiiiiiiiiiiyCCCCCCCCCCCCCCCCCCCCCCCCCCCCCCCCCCCCCCCCCCCCCCCCCCCCCCCCC3iiiiiiiiiiiiiiiiiiyiiiiyCCCCCCCCCCC",
"CCCCCCCCCCCCCCCC0iuiiiiiuiuiuuiiiitCCCCCCCCCCCCCCCCCCCCCCCCCCCCCCCCCCCCCCCCCCCCCCCCCCCCCCCCC3iiiiiiiyiiiiyiiyiiyiiiytCCCCCCCCCCC",
"CCCCCCCCCCCCCCCyuuuuuuuiuiuuuuuuiiyCCCCCCCCCCCCCCCCCCCCCCCCCCCCCCCCCCCCCCCCCCCCCCCCCCCCCCCCC-555335555555555555535571CCCCCCCCCCC",
"CCCCCCCCCCCCCCyyuuuuuuuuuuuuuuuuiyyCCCCCCCCCCCCCCCCCCCCCCCCCCCCCCCCCCCCCCCCCCCCCCCCCCCCCCCCCCC                    CCCCCCCCCCCCCC",
"CCCCCCCCCCCCCyyiuuuuuuuuuuuuuuuuiitCCCCCCCCCCCCCCCCCCCCCCCCCCCCCCCCCCCCCCCCCCCCCCCCCCCCCCCCCCCC                  CCCCCCCCCCCCCCC",
"CCCCCCCCCCCCtyyiuuyuuuyyuuuuyuuuyitCCCCCCCCCCCCCCCCCCCCCCCCCCCCCCCCCCCCCCCCCCCCCCCCCCCCCCCCCCCCCCCCCCCCCCCCCCCCCCCCCCCCCCCCCCCCC",
"CCCCCCCCCCCC9tyyuyuyuyiiuyyuyuyuyytCCCCCCCCCCCCCCCCCCCCCCCCCCCCCCCCCCCCCCCCCCCCCCCCCCCCCCCCCCCCCCCCCCCCCCCCCCCCCCCCCCCCCCCCCCCCC",
"CCCCCCCCCCCCC9yiiuuyyyyyyuyuyuyuyytCCCCCCCCCCCCCCCCCCCCCCCCCCCCCCCCCCCCCCCCCCCCCCCCCCCCCCCCCCCCCCCCCCCCCCCCCCCCCCCCCCCCCCCCCCCCC",
"CCCCCCCCCCCCC3yywiwyyyyyyyyyyyyyyytCCCCCCCCCCCCCCCCCCCCCCCCCCCCCCCCCCCCCCCCCCCCCCCCCCCCCCCCCCCCCCCCCCCCCCCCCCCCCCCCCCCCCCCCCCCCC",
"CCCCCCCCCCCCC#9yyytyyyyyyyyyyytyyytCCCCCCCtyttttytttttttttutttttytttttttttttttttttttttttttt0wwwwttt0tt9ttttt9t9ttCCCCCCCCCCCCCCC",
"CCCCCCCCCCCCCC<tyyyttyyyytyyttyytytCCCCCCtytyyyyytytyytyuttttuutytyyyyttyyyyytyyyyyyyyytyyyyyyyyyttyttyyytttytyytCCCCCCCCCCCCCCC",
"CCCCCCCCCCCCCC+9yyytytyyttyyytyytttCCCCCCttytytytytttyyytttutttttytyytyttytyyttttyyttyyytytyy0ywytyytyttttttttyyCCCCCCCCCCCCCCCC",
"CCCCCCCCCCCCCCC;0ttttttttttttttttttCCCCCCtytttttttttttttuttttttttyttttttttttttttttytttttttttywyyttttttttyttttty9CCCCCCCCCCCCCCCC",
"CCCCCCCCCCCCCCCX3tttttttttttttttty9CCCCCC9ttttttttttttttettttttttttttttttytttttttttttttttttttty0tttttttttttttttCCCCCCCCCCCCCCCCC",
"CCCCCCCCCCCCCCCC*0tttttttttttttttttCCCCCC9ttttttttttttttttttttttttt0tttttttttttttttttttttttttty0ttt0tttttttttt7CCCCCCCCCCCCCCCCC",
"CCCCCCCCCCCCCCCC >w00yytttt0tt9ttt9CCCCCC9ttttttt0ttttt0ttettet0tttttttttttttttttttttt0ttttttt0yttttttttttttt7CCCCCCCCCCCCCCCCCC",
"CCCCCCCCCCCCCCCCCo3y000t00tt0ttttttCCCCCC9t0t00ttt0ttttt0tt00ttttttt0tt9tt9ttt0ttt0t0tttt00t0yy00ttt0tt0t9tt9*CCCCCCCCCCCCCCCCCC",
"CCCCCCCCCCCCCCCCC #7t0ttt00t00t9tt9CCCCCC7ttt0tt9tttttttt0ttt0tt0t0tttt0t0t0t0tttttttt9ttttt9tt00ttt0t0tt9tt1CCCCCCCCCCCCCCCCCCC",
"CCCCCCCCCCCCCCCCCC -9tt99tt0tttt0t9CCCCCC99t0t0tt00t90t90t000t0tt0t09t0ttt0t0t009t9tt9tt0009tt0tt000t0t0t091CCCCCCCCCCCCCCCCCCCC",
"CCCCCCCCCCCCCCCCCCC -99ttttt0t90t99CCCCCC70tt09t00t09t00e0000t00000t00t000t00tt0t9t99t9t00tt00t90t0t0000tt5CCCCCCCCCCCCCCCCCCCCC",
"CCCCCCCCCCCCCCCCCCCCX19t9090009t9t9CCCCCC7t900t00000t9t00t00000t0000t00000000000t90t99t09t9t00t900000t0099*CCCCCCCCCCCCCCCCCCCCC",
"CCCCCCCCCCCCCCCCCCCC X3900000000009CCCCCC7000000t99t99t900e00000000000000000t8t0000000000000000t000000007-CCCCCCCCCCCCCCCCCCCCCC",
"CCCCCCCCCCCCCCCCCCCCC X100000000099CCCCCC70000009t999tt9080000000000000000000000000000000000000000000007-CCCCCCCCCCCCCCCCCCCCCCC",
"CCCCCCCCCCCCCCCCCCCCCC +199000009t9CCCCCC7000000999t9t9t00000000000000000000000090000009900000090000007-CCCCCCCCCCCCCCCCCCCCCCCC",
"CCCCCCCCCCCCCCCCCCCCCCC X1009090999CCCCCC70909909t9t999909090080909090909090909000090909t009909t909097-CCCCCCCCCCCCCCCCCCCCCCCCC",
"CCCCCCCCCCCCCCCCCCCCCCCC +1t9999998CCCCCC680080999t99990999008009090909099908099909999099990999990997-CCCCCCCCCCCCCCCCCCCCCCCCCC",
"CCCCCCCCCCCCCCCCCCCCCCCCC X>7999998CCCCCC60980899999999990998008999999999908999999999999999990999995*CCCCCCCCCCCCCCCCCCCCCCCCCCC",
"CCCCCCCCCCCCCCCCCCCCCCCCCC  *799999CCCCCC799089999999999999999999999999898999089999999999999999999<oCCCCCCCCCCCCCCCCCCCCCCCCCCCC",
"CCCCCCCCCCCCCCCCCCCCCCCCCCC  *59997CCCCCC79980989979898999998989999898999998899999999999989999977;oCCCCCCCCCCCCCCCCCCCCCCCCCCCCC",
"CCCCCCCCCCCCCCCCCCCCCCCCCCCC  X1997CCCCCC7988989799989987998988880988989898998999999970779989995* CCCCCCCCCCCCCCCCCCCCCCCCCCCCCC",
"CCCCCCCCCCCCCCCCCCCCCCCCCCCCCC .-77CCCCCC59888897997888879889898888888888898888879777979997977>@CCCCCCCCCCCCCCCCCCCCCCCCCCCCCCCC",
"CCCCCCCCCCCCCCCCCCCCCCCCCCCCCCCCCC>CCCCCC7798888979988889788888888888888888888787979979797791*.CCCCCCCCCCCCCCCCCCCCCCCCCCCCCCCCC",
"CCCCCCCCCCCCCCCCCCCCCCCCCCCCCCCCCCCCCCCCC57788887977888879888887888788887888887997979979795;oCCCCCCCCCCCCCCCCCCCCCCCCCCCCCCCCCCC",
"CCCCCCCCCCCCCCCCCCCCCCCCCCCCCCCCCCCCCCCCC599778888886878866878888887887788886788888888985;+ CCCCCCCCCCCCCCCCCCCCCCCCCCCCCCCCCCCC",
"CCCCCCCCCCCCCCCCCCCCCCCCCCCCCCCCCCCCCCCCC5789787686888788888887887788788868888867768865;+ CCCCCCCCCCCCCCCCCCCCCCCCCCCCCCCCCCCCCC",
"CCCCCCCCCCCCCCCCCCCCCCCCCCCCCCCCCCCCCCCCC->577778686687768687777778778876686686877971;+ CCCCCCCCCCCCCCCCCCCCCCCCCCCCCCCCCCCCCCCC",
"CCCCCCCCCCCCCCCCCCCCCCCCCCCCCCCCCCCCCCCCCC.+-1676868869786878679778787778868868675>&. CCCCCCCCCCCCCCCCCCCCCCCCCCCCCCCCCCCCCCCCCC",
"CCCCCCCCCCCCCCCCCCCCCCCCCCCCCCCCCCCCCCCCCCC  .&*<776797766867777877779777977672;&X  CCCCCCCCCCCCCCCCCCCCCCCCCCCCCCCCCCCCCCCCCCCC",
"CCCCCCCCCCCCCCCCCCCCCCCCCCCCCCCCCCCCCCCCCCCC     +$;1157688897778779777772<>*#.   CCCCCCCCCCCCCCCCCCCCCCCCCCCCCCCCCCCCCCCCCCCCCC",
"CCCCCCCCCCCCCCCCCCCCCCCCCCCCCCCCCCCCCCCCCCCCCC        +#&>:>1<>>><<<><-#@X .   CCCCCCCCCCCCCCCCCCCCCCCCCCCCCCCCCCCCCCCCCCCCCCCCC",
"CCCCCCCCCCCCCCCCCCCCCCCCCCCCCCCCCCCCCCCCCCCCCCCCCC                         CCCCCCCCCCCCCCCCCCCCCCCCCCCCCCCCCCCCCCCCCCCCCCCCCCCCC",
"CCCCCCCCCCCCCCCCCCCCCCCCCCCCCCCCCCCCCCCCCCCCCCCCCCCCCCCC              CCCCCCCCCCCCCCCCCCCCCCCCCCCCCCCCCCCCCCCCCCCCCCCCCCCCCCCCCC",
"CCCCCCCCCCCCCCCCCCCCCCCCCCCCCCCCCCCCCCCCCCCCCCCCCCCCCCCCCCCCCCCCCCCCCCCCCCCCCCCCCCCCCCCCCCCCCCCCCCCCCCCCCCCCCCCCCCCCCCCCCCCCCCCC",
"CCCCCCCCCCCCCCCCCCCCCCCCCCCCCCCCCCCCCCCCCCCCCCCCCCCCCCCCCCCCCCCCCCCCCCCCCCCCCCCCCCCCCCCCCCCCCCCCCCCCCCCCCCCCCCCCCCCCCCCCCCCCCCCC",
"CCCCCCCCCCCCCCCCCCCCCCCCCCCCCCCCCCCCCCCCCCCCCCCCCCCCCCCCCCCCCCCCCCCCCCCCCCCCCCCCCCCCCCCCCCCCCCCCCCCCCCCCCCCCCCCCCCCCCCCCCCCCCCCC",
"CCCCCCCCCCCCCCCCCCCCCCCCCCCCCCCCCCCCCCCCCCCCCCCCCCCCCCCCCCCCCCCCCCCCCCCCCCCCCCCCCCCCCCCCCCCCCCCCCCCCCCCCCCCCCCCCCCCCCCCCCCCCCCCC",
"CCCCCCCCCCCCCCCCCCCCCCCCCCCCCCCCCCCCCCCCCCCCCCCCCCCCCCCCCCCCCCCCCCCCCCCCCCCCCCCCCCCCCCCCCCCCCCCCCCCCCCCCCCCCCCCCCCCCCCCCCCCCCCCC",
"CCCCCCCCCCCCCCCCCCCCCCCCCCCCCCCCCCCCCCCCCCCCCCCCCCCCCCCCCCCCCCCCCCCCCCCCCCCCCCCCCCCCCCCCCCCCCCCCCCCCCCCCCCCCCCCCCCCCCCCCCCCCCCCC",
"CCCCCCCCCCCCCCCCCCCCCCCCCCCCCCCCCCCCCCCCCCCCCCCCCCCCCCCCCCCCCCCCCCCCCCCCCCCCCCCCCCCCCCCCCCCCCCCCCCCCCCCCCCCCCCCCCCCCCCCCCCCCCCCC"
};
