/* XPM */
static char *terminal[] = {
/* columns rows colors chars-per-pixel */
"128 128 39 1 ",
"  c black",
". c #059F059F059F",
"X c #073A073A073A",
"o c #0B3E0B3E0B3E",
"O c #0E740E740E74",
"+ c #107610761076",
"@ c #147A147A147A",
"# c #187E187E187E",
"$ c #1B4E1B4E1B4E",
"% c #1E841E841E84",
"& c #21BB21BB21BB",
"* c gray14",
"= c #27C127C127C1",
"- c #2B5E2B5E2B5E",
"; c #2CF92C922C92",
": c #2EFB2EFB2EFB",
"> c #2FE630793096",
", c #323232323232",
"< c #330633573306",
"1 c #362D361F3636",
"2 c #376A376A376A",
"3 c #39D339D3396C",
"4 c #3B6E3B6E3B6E",
"5 c #3D093CA23D09",
"6 c #3E3E3E3E3E3E",
"7 c #40163FD94003",
"8 c #41DB41DB41DB",
"9 c #42A8437642A8",
"0 c #451145114511",
"q c #464646464713",
"w c #484848484848",
"e c #4B174B174B17",
"r c #4EB44EB44EB4",
"t c #500750325007",
"y c #518451845184",
"u c #552155215521",
"i c #568F567E567E",
"p c #578A578A578A",
"a c None",
/* pixels */
"aaaaaaaaaaaaaaaaaaaaaaaaaaaaaaaaaaaaaaaaaaaaaaaaaaaaaaaaaaaaaaaaaaaaaaaaaaaaaaaaaaaaaaaaaaaaaaaaaaaaaaaaaaaaaaaaaaaaaaaaaaaaaaaa",
"aaaaaaaaaaaaaaaaaaaaaaaaaaaaaaaaaaaaaaaaaaaaaaaaaaaaaaaaaaaaaaaaaaaaaaaaaaaaaaaaaaaaaaaaaaaaaaaaaaaaaaaaaaaaaaaaaaaaaaaaaaaaaaaa",
"aaaaaaaaaaaaaaaaaaaaaaaaaaaaaaaaaaaaaaaaaaaaaaaaaaaaaaaaaaaaaaaaaaaaaaaaaaaaaaaaaaaaaaaaaaaaaaaaaaaaaaaaaaaaaaaaaaaaaaaaaaaaaaaa",
"aaaaaaaaaaaaaaaaaaaaaaaaaaaaaaaaaaaaaaaaaaaaaaaaaaaaaaaaaaaaaaaaaaaaaaaaaaaaaaaaaaaaaaaaaaaaaaaaaaaaaaaaaaaaaaaaaaaaaaaaaaaaaaaa",
"aaaaaaaaaaaaaaaaaaaaaaaaaaaaaaaaaaaaaaaaaaaaaaaaaaaaaaaaaaaaaaaaaaaaaaaaaaaaaaaaaaaaaaaaaaaaaaaaaaaaaaaaaaaaaaaaaaaaaaaaaaaaaaaa",
"aaaaaaaaaaaaaaaaaaaaaaaaaaaaaaaaaaaaaaaaaaaaaaaaaaaaaaaaaaaaaaaaaaaaaaaaaaaaaaaaaaaaaaaaaaaaaaaaaaaaaaaaaaaaaaaaaaaaaaaaaaaaaaaa",
"aaaaaaaaaaaaaaaaaaaaaaaaaaaaaaaaaaaaaaaaaaaaaaaaaaaaaaaaaaaaaaaaaaaaaaaaaaaaaaaaaaaaaaaaaaaaaaaaaaaaaaaaaaaaaaaaaaaaaaaaaaaaaaaa",
"aaaaaaaaaaaaaaaaaaaaaaaaaaaaaaaaaaaaaaaaaaaaaaaaaaaaaaaaaaaaaaaaaaaaaaaaaaaaaaaaaaaaaaaaaaaaaaaaaaaaaaaaaaaaaaaaaaaaaaaaaaaaaaaa",
"aaaaaaaaaaaaaaaaaaaaaaaaaaaaaaaaaaaaaaaaaaaaaaaaaaaaaaaaaaaaaaaaaaaaaaaaaaaaaaaaaaaaaaaaaaaaaaaaaaaaaaaaaaaaaaaaaaaaaaaaaaaaaaaa",
"aaaaaaaaaaaaaaaaaaaaaaaaaaaaaaaaaaaaaaaaaaaaaaaaaaaaaaaaaaaaaaaaaaaaaaaaaaaaaaaaaaaaaaaaaaaaaaaaaaaaaaaaaaaaaaaaaaaaaaaaaaaaaaaa",
"aaaaaaaaaaaaaaaaaaaaaaaaaaaaaaaaaaaaaaaaaaaaaaaaaaaaaaaaaaaaaaaaaaaaaaaaaaaaaaaaaaaaaaaaaaaaaaaaaaaaaaaaaaaaaaaaaaaaaaaaaaaaaaaa",
"aaaaaaaaaaaaaaaaaaaaaaaaaaaaaaaaaaaaaaaaaaaaaaaaaaaaaaaaaaaaaaaaaaaaaaaaaaaaaaaaaaaaaaaaaaaaaaaaaaaaaaaaaaaaaaaaaaaaaaaaaaaaaaaa",
"aaaaaaaaaaaaaaaaaaaaaaaaaaaaaaaaaaaaaaaaaaaaaaaaaaaaaaaaaaaaaaaaaaaaaaaaaaaaaaaaaaaaaaaaaaaaaaaaaaaaaaaaaaaaaaaaaaaaaaaaaaaaaaaa",
"aaaaaaaaaaaaaaaaaaaaaaaaaaaaaaaaaaaaaaaaaaaaaaaaaaaaaaaaaaaaaaaaaaaaaaaaaaaaaaaaaaaaaaaaaaaaaaaaaaaaaaaaaaaaaaaaaaaaaaaaaaaaaaaa",
"aaaaaaaaaaaaaaaaaaaaaaaaaaaaaaaaaaaaaaaaaaaaaaaaaaaaaaaaaaaaaaaaaaaaaaaaaaaaaaaaaaaaaaaaaaaaaaaaaaaaaaaaaaaaaaaaaaaaaaaaaaaaaaaa",
"aaaaaaaaaaaaaaaaaaaaaaaaaaaaaaaaaaaaaaaaaaaaaaaaaaaaaaaaaaaaaaaaaaaaaaaaaaaaaaaaaaaaaaaaaaaaaaaaaaaaaaaaaaaaaaaaaaaaaaaaaaaaaaaa",
"aaaaaaaaaaaaaaaaaaaaaaaaaaaaaaaaaaaaaaaaaaaaaaaaaaaaaaaaaaaaaaaaaaaaaaaaaaaaaaaaaaaaaaaaaaaaaaaaaaaaaaaaaaaaaaaaaaaaaaaaaaaaaaaa",
"aaaaaaaaaaaaaaaaaaaaaaaaaaaaaaaaaaaaaaaaaaaaaaaaaaaaaaaaaaaaaaaaaaaaaaaaaaaaaaaaaaaaaaaaaaaaaaaaaaaaaaaaaaaaaaaaaaaaaaaaaaaaaaaa",
"aaaaaaaaaaaaaaaaaaaaaaaaaaaaaaaaaaaaaaaaaaaaaaaaaaaaaaaaaaaaaaaaaaaaaaaaaaaaaaaaaaaaaaaaaaaaaaaaaaaaaaaaaaaaaaaaaaaaaaaaaaaaaaaa",
"aaaaaaaaaaaaaaaaaaaaaaaaaaaaaaaaaaaaaaaaaaaaaaaaaaaaaaaaaaaaaaaaaaaaaaaaaaaaaaaaaaaaaaaaaaaaaaaaaaaaaaaaaaaaaaaaaaaaaaaaaaaaaaaa",
"aaaaaaaaaaaapppppppppppppppppppppppppppppppppppppppppppppppppppppppppppppppppppppppppppppppppppppppppppppppppppppppaaaaaaaaaaaaa",
"aaaaaaaaaapppppppppppppppppppppppppppppppppppppppppppppppppppppppppppppppppppppppppppppppppppppppppppppppppppppppppppaaaaaaaaaaa",
"aaaaaaaaapppppppppppppppppppppppppppppppppppppppppppppppppppppppppppppppppppppppppppppppppppppppppppppppppppppppppppppaaaaaaaaaa",
"aaaaaaaayppppppppppppppppppppppppppppppppppppppppppppppppppppppppppppppppppppppppppppppppppppppppppppppppppppppppppppppaaaaaaaaa",
"aaaaaaaauppppupppppuppppppppppppppppppppppppppppppppppppppppppppppppppppppypppppppppupppupppuppupppuppupuppupppppuupppppaaaaaaaa",
"aaaaaaaappupppuppuppuuppppppppppppuppuupppyuyppppppppppppuupuuupppppppupuppppppupppppupupupupuupppppuppuppuppyppuppupypyaaaaaaaa",
"aaaaaaa9puuuupupuppppupupppppuppppppuppupppppppypppppppppppppuuupppppppppppppyppppppupypuppuupypppppupupuupppppyupppppypaaaaaaaa",
"aaaaaaa6uupppuuuuuupypppppppyuuurpypypyppyuyuuppppppyrpyutupuuuuppppruupurpypyypuppppyppuprupyppppyyuruuuuppuuyppypypyppaaaaaaaa",
"aaaaaaa3upuuuuuuuuuuw3>=****&***********&*******************************&*******&*******&&**************->6wuuuuuuuuppyyaaaaaaaa",
"aaaaaaa3yuuuuuuuuuy>O                                                                                      #1uuuuuuuypypaaaaaaaa",
"aaaaaaa3uuuuuuuuup2                                                                                         o9uuuputpyypaaaaaaaa",
"aaaaaaa1uyuuyuuyut&aaaaaaaaaaaaaaaaaaaaaaaaaaaaaaaaaaaaaaaaaaaaaaaaaaaaaaaaaaaaaaaaaaaaaaaaaaaaaaaaaaaaaaaa  ;tptyyprpppaaaaaaaa",
"aaaaaaa1pyuyuuyupr#aaaaaaaaaaaaaaaaaaaaaaaaaaaaaaaaaaaaaaaaaaaaaaaaaaaaaaaaaaaaaaaaaaaaaaaaaaaaaaaaaaaaaaaaa =pyptpruuyuaaaaaaaa",
"aaaaaaa1yuuyuyyuytaaaaaaaaaaaaaaaaaaaaaaaaaaaaaaaaaaaaaaaaaaaaaaaaaaaaaaaaaaaaaaaaaaaaaaaaaaaaaaaaaaaaaaaaaaa;yyrprpyuyyaaaaaaaa",
"aaaaaaa1yyuuuyyupraaaaaaaaaaaaaaaaaaaaaaaaaaaaaaaaaaaaaaaaaaaaaaaaaaaaaaaaaaaaaaaaaaaaaaaaaaaaaaaaaaaaaaaaaaa=ypypypyyyyaaaaaaaa",
"aaaaaaa1yuyyyuyyyyaaaaaaaaaaaaaaaaaaaaaaaaaaaaaaaaaaaaaaaaaaaaaaaaaaaaaaaaaaaaaaaaaaaaaaaaaaaaaaaaaaaaaaaaaaa;yyyyyrpyyyaaaaaaaa",
"aaaaaaa1yyyyyyuyyyaaaaaaaaaaaaaaaaaaaaaaaaaaaaaaaaaaaaaaaaaaaaaaaaaaaaaaaaaaaaaaaaaaaaaaaaaaaaaaaaaaaaaaaaaaa;yyyyyyyyyyaaaaaaaa",
"aaaaaaa1yyyyyyyyytaaaaaaaaaaaaaaaaaaaaaaaaaaaaaaaaaaaaaaaaaaaaaaaaaaaaaaaaaaaaaaaaaaaaaaaaaaaaaaaaaaaaaaaaaaa;yyyyyyyyyyaaaaaaaa",
"aaaaaaa1yyyyyyyyytaaaaaaaayyyyyyaaaaaaaaaaaaaaaaaaaaaaaaaaaaaaaaaaaaaaaaaaaaaaaaaaaaaaaaaaaaaaaaaaaaaaaaaaaaa;yyyyyyyyrtaaaaaaaa",
"aaaaaaa1yyyyyyyyyyaaaaaaaaryyyyyyyyaaaaaaaaaaaaaaaaaaaaaaaaaaaaaaaaaaaaaaaaaaaaaaaaaaaaaaaaaaaaaaaaaaaaaaaaaa>tyyyyryyyraaaaaaaa",
"aaaaaaa2yyyyyryyrtaaaaaaaatrtyyyyyryryaaaaaaaaaaaaaaaaaaaaaaaaaaaaaaaaaaaaaaaaaaaaaaaaaaaaaaaaaaaaaaaaaaaaaaa;ytyryryttraaaaaaaa",
"aaaaaaa>rrrtttyrtraaaaaaaaryytrtyryyyrytyaaaaaaaaaaaaaaaaaaaaaaaaaaaaaaaaaaaaaaaaaaaaaaaaaaaaaaaaaaaaaaaaaaaa;ytyyrytttraaaaaaaa",
"aaaaaaa1ytrtttrytraaaaaaaaeyrytrrttrryryrrtraaaaaaaaaaaaaaaaaaaaaaaaaaaaaaaaaaaaaaaaaaaaaaaaaaaaaaaaaaaaaaaaa;rrrrtrrtrraaaaaaaa",
"aaaaaaa<tttrrrttyraaaaaaaa0trrtytrtrtrtrttrttyraaaaaaaaaaaaaaaaaaaaaaaaaaaaaaaaaaaaaaaaaaaaaaaaaaaaaaaaaaaaaa;rryrrrrryraaaaaaaa",
"aaaaaaa1rrrrrrrtyraaaaaaaa=9rrrrrrryrrryrtrrrtrrrraaaaaaaaaaaaaaaaaaaaaaaaaaaaaaaaaaaaaaaaaaaaaaaaaaaaaaaaaaa;rrrrrrrrryaaaaaaaa",
"aaaaaaa>rrrrrrrrrraaaaaaaaao%>6errrrrrrrrrrrrrrrrrrrraaaaaaaaaaaaaaaaaaaaaaaaaaaaaaaaaaaaaaaaaaaaaaaaaaaaaaaa;rrrrrrrrrwaaaaaaaa",
"aaaaaaa>rrrrrrrrywaaaaaaaaaa  .#=60errrtrrrrrrrrrrrrrrraaaaaaaaaaaaaaaaaaaaaaaaaaaaaaaaaaaaaaaaaaaaaaaaaaaaaa;rrrerrrrryaaaaaaaa",
"aaaaaaa>rrrywrrrreaaaaaaaaaaa    .@*19ewrrrywrrrrerrrerraaaaaaaaaaaaaaaaaaaaaaaaaaaaaaaaaaaaaaaaaaaaaaaaaaaaa;wyrrrwywrwaaaaaaaa",
"aaaaaaa>rerrrerrreaaaaaaaaaaaaa      O%>6errrrrerrrerrreaaaaaaaaaaaaaaaaaaaaaaaaaaaaaaaaaaaaaaaaaaaaaaaaaaaaa;ywererereeaaaaaaaa",
"aaaaaaa<erererereeaaaaaaaaaaaaaaaaa     X#1erererererereaaaaaaaaaaaaaaaaaaaaaaaaaaaaaaaaaaaaaaaaaaaaaaaaaaaaa;wtrererereaaaaaaaa",
"aaaaaaa>ererrreereaaaaaaaaaaaaaaaaaaaa    &weerreerrreeeaaaaaaaaaaaaaaaaaaaaaaaaaaaaaaaaaaaaaaaaaaaaaaaaaaaaa;eeeeeeereeaaaaaaaa",
"aaaaaaa>ereeeeereeaaaaaaaaaaaaaaaaaaaaaaO*4rereeereeeeeraaaaaaaaaaaaaaaaaaaaaaaaaaaaaaaaaaaaaaaaaaaaaaaaaaaaa;ewrereereeaaaaaaaa",
"aaaaaaa<eeeeeeeeeeaaaaaaaaaaaaaaaaaaaa>59eeereeeereeeeeeaaaaaaaaaaaaaaaaaaaaaaaaaaaaaaaaaaaaaaaaaaaaaaaaaaaaa-wreeeeeeeeaaaaaaaa",
"aaaaaaa>eeeeeeeeeeaaaaaaaaaaaaaaaaa60weweeeeeeeeeeeeerewaaaaaaaaaaaaaaaaaaaaaaaaaaaaaaaaaaaaaaaaaaaaaaaaaaaaa-rweeeeeeeeaaaaaaaa",
"aaaaaaa>weeeeeeeeeaaaaaaaaaaaaaawweeeeeeeeeeeeeeeeeeeeq2aaaaaaaaaaaaaaaaaaaaaaaaaaaaaaaaaaaaaaaaaaaaaaaaaaaaa;qreeeeeeeeaaaaaaaa",
"aaaaaaa>eeeeeeeeewaaaaaaaaaaawwerweweeeeeeweeeeeeew93;aaaaaaaaaaaaaaaaaaaaaaaaaaaaaaaaaaaaaaaaaaaaaaaaaaaaaaa;wwwewewewwaaaaaaaa",
"aaaaaaa:eeweeeweewaaaaaaaaaeeewewqwrweeeweweeeww92*+.aaaaaaaaaaaaaaaaaaaaaaaaaaaaaaaaaaaaaaaaaaaaaaaaaaaaaaaa-wrewew0rwraaaaaaaa",
"aaaaaaa:weewweewwwaaaaaaaaweewewwrwweeweewwe091&+  aaaaaaaaaaaaaaaaaaaaaaaaaaaaaaaaaaaaaaaaaaaaaaaaaaaaaaaaaa-wwweweewwwaaaaaaaa",
"aaaaaaa:weweewweewaaaaaaaawwwewewewweww0ww91*O   aaaaaaaaaaaaaaaaaaaaaaaaaaaaaaaaaaaaaaaaaaaaaaaaaaaaaaaaaaaa-wwwwewwwwwaaaaaaaa",
"aaaaaaa:wwwwwewwwwaaaaaaaawwwewwwwqrwww9>%o   aaaaaaaaaaaaaaaaaaaaaaaaaaaaaaaaaaaaaaaaaaaaaaaaaaaaaaaaaaaaaaa=wwewwwwwwwaaaaaaaa",
"aaaaaaa:wwwwwwwwwwaaaaaaaaqwwwwwwww06>&o   aaaaaaaaaaaaaaaaaaaaaaaaaaaaaaaaaaaaaaaaaaaaaaaaaaaaaaaaaaaaaaaaaa=wwwwwwwwwqaaaaaaaa",
"aaaaaaa:wwwwwwwwwqaaaaaaaa6qwwww06>#o   aaaaaaaaaaaaaaaaaaaaaaaaaaaaaaaaaaaaaaaaaaaaaaaaaaaaaaaaaaaaaaaaaaaaa=qwwwwqwwwqaaaaaaaa",
"aaaaaaa;wwwwwqwwwqaaaaaaaa*6q95;%o   aaaaaaaaaaaaaaaaaaaaaaaaaaaaaaaaaaaaaaaaaaaaaaaaaaaaaaaaaaaaaaaaaaaaaaaa;wwwwwqwqwqaaaaaaaa",
"aaaaaaa:wwqqwwqwq0aaaaaaaaaO@@X   aaaaaaaaaaaaaaaaaaaaaaaaaaaaaaaaaaaaaaaaaaaaaaaaaaaaaaaaaaaaaaaaaaaaaaaaaaa=0qqqwqqwq0aaaaaaaa",
"aaaaaaa;w0wwqqqqw0aaaaaaaaaaa aaaaaaaaaaaaaaaaaaaaaaaaaaaaaaaaaaaaaaaaaaaaaaaaaaaaaaaaaaaaaaaaaaaaaaaaaaaaaaa=0qqwqq0w00aaaaaaaa",
"aaaaaaa:0w00qqqqq0aaaaaaaaaaaaaaaaaaaaaaaaaaaaaaaaaaaaaaaaaaaaaaaaaaaaaaaaaaaaaaaaaaaaaaaaaaaaaaaaaaaaaaaaaaa=q0qqq0w0w0aaaaaaaa",
"aaaaaaa;0w0wqwqqq9aaaaaaaaaaaaaaaaaaaaaaaaaaaaaaaaaaaaaaaaaaaaaaaaaaaaaaaaaaaaaaaaaaaaaaaaaaaaaaaaaaaaaaaaaaa=qqw00w0w00aaaaaaaa",
"aaaaaaa:00w00qq000aaaaaaaaaaaaaaaaaaaaaaaaaaaaaaaaaaaaaaaaaaaaaaaaaaaaaaaaaaaaaaaaaaaaaaaaaaaaaaaaaaaaaaaaaaa=0q00000000aaaaaaaa",
"aaaaaaa;000w000qq0aaaaaaaaaaaaaaaaaaaaaaaaaaaaaaaaaaaaaaaaaaaaaaaaaaaaaaaaaaaaaaaaaaaaaaaaaaaaaaaaaaaaaaaaaaa=0000000000aaaaaaaa",
"aaaaaaa;00000q0009aaaaaaaaaaaaaaaaaaaaaaaaaaaaaaaaaaaaaaaaaaaaaaaaaaaaaaaaaaaaaaaaaaaaaaaaaaaaaaaaaaaaaaaaaaa=0000000000aaaaaaaa",
"aaaaaaa-0000qqq8q9aaaaaaaaaaaaaaaaaaaaaaaaaaaaaaaaaaaaaaaaaaaaaaaaaaaaaaaaaaaaaaaaaaaaaaaaaaaaaaaaaaaaaaaaaaa=9009000099aaaaaaaa",
"aaaaaaa-090088q999aaaaaaaaaaaaaaaaaaaaaaaaaaaaaaaaaaaaaaaaaaaaaaaaaaaaaaaaaaaaaaaaaaaaaaaaaaaaaaaaaaaaaaaaaaa*9990999009aaaaaaaa",
"aaaaaaa;88q098wq09aaaaaaaaaaaaaaaaaaaaaaaaaaaaaaaaaaaaaaaaaaaaaaaaaaaaaaaaaaaaaaaaaaaaaaaaaaaaaaaaaaaaaaaaaaa=9990908w88aaaaaaaa",
"aaaaaaa;9090q88898aaaaaaaaaaaaaaaaaaaaaaaaaaaaaaaaaaaaaaaaaaaaaaaaaaaaaaaaaaaaaaaaaaaaaaaaaaaaaaaaaaaaaaaaaaa*9989998808aaaaaaaa",
"aaaaaaa-9980909909aaaaaaaaaaaaaaaaaaaaaaaaaaaaaaaaaaaaaaaaaaaaaaaaaaaaaaaaaaaaaaaaaaaaaaaaaaaaaaaaaaaaaaaaaaa=9899990888aaaaaaaa",
"aaaaaaa-9908999899aaaaaaaaaaaaaaaaaaaaaaaaaaaaaaaaaaaaaaaaaaaaaaaaaaaaaaaaaaaaaaaaaaaaaaaaaaaaaaaaaaaaaaaaaaa*9979908879aaaaaaaa",
"aaaaaaa-8888887996aaaaaaaaaaaaaaaaaaaaaaaaaaaaaaaaaaaaaaaaaaaaaaaaaaaaaaaaaaaaaaaaaaaaaaaaaaaaaaaaaaaaaaaaaaa=9799789797aaaaaaaa",
"aaaaaaa=8888879999aaaaaaaaaaaaaaaaaaaaaaaaaaaaaaaaaaaaaaaaaaaaaaaaaaaaaaaaaaaaaaaaaaaaaaaaaaaaaaaaaaaaaaaaaaa*7779887997aaaaaaaa",
"aaaaaaa-8888889796aaaaaaaaaaaaaaaaaaaaaaaaaaaaaaaaaaaaaaaaaaaaaaaaaaaaaaaaaaaaaaaaaaaaaaaaaaaaaaaaaaaaaaaaaaa*9977889679aaaaaaaa",
"aaaaaaa=7878787996aaaaaaaaaaaaaaaaaaaaaaaaaaaaaaaaaaaaaaaaaaaaaaaaaaaaaaaaaaaaaaaaaaaaaaaaaaaaaaaaaaaaaaaaaaa*7989779679aaaaaaaa",
"aaaaaaa-9698587767aaaaaaaaaaaaaaaaaaaaaaaaaaaaaaaaaaaaaaaaaaaaaaaaaaaaaaaaaaaaaaaaaaaaaaaaaaaaaaaaaaaaaaaaaaa*7777777777aaaaaaaa",
"aaaaaaa=6958975896aaaaaaaaaaaaaaaaaaaaaaaaaaaaaaaaaaaaaaaaaaaaaaaaaaaaaaaaaaaaaaaaaaaaaaaaaaaaaaaaaaaaaaaaaaa*6677777777aaaaaaaa",
"aaaaaaa=6699777766aaaaaaaaaaaaaaaaaaaaaaaaaaaaaaaaaaaaaaaaaaaaaaaaaaaaaaaaaaaaaaaaaaaaaaaaaaaaaaaaaaaaaaaaaaa*6977777677aaaaaaaa",
"aaaaaaa-6956776796aaaaaaaaaaaaaaaaaaaaaaaaaaaaaaaaaaaaaaaaaaaaaaaaaaaaaaaaaaaaaaaaaaaaaaaaaaaaaaaaaaaaaaaaaaa*6666775776aaaaaaaa",
"aaaaaaa=6776667676aaaaaaaaaaaaaaaaaaaaaaaaaaaaaaaaaaaaaaaaaaaaaaaaaaaa66666676666666966747664774666aaaaaaaaaa*6676666766aaaaaaaa",
"aaaaaaa=6667677664aaaaaaaaaaaaaaaaaaaaaaaaaaaaaaaaaaaaaaaaaaaaaaaaaaaa66676666666666666677667747666aaaaaaaaaa*6666666665aaaaaaaa",
"aaaaaaa=4766666666aaaaaaaaaaaaaaaaaaaaaaaaaaaaaaaaaaaaaaaaaaaaaaaaaaa166747764766666466674666677666aaaaaaaaaa*5666566665aaaaaaaa",
"aaaaaaa=4674667466aaaaaaaaaaaaaaaaaaaaaaaaaaaaaaaaaaaaaaaaaaaaaaaaaaa166474474474674764647474644666aaaaaaaaaa&4646655555aaaaaaaa",
"aaaaaaa=5755656563aaaaaaaaaaaaaaaaaaaaaaaaaaaaaaaaaaaaaaaaaaaaaaaaaaa>64646446444474464444776467446aaaaaaaaaa&6664464664aaaaaaaa",
"aaaaaaa=5455466464aaaaaaaaaaaaaaaaaaaaaaaaaaaaaaaaaaaaaaaaaaaaaaaaaaa;64466446646447466474444644464aaaaaaaaaa*4644644454aaaaaaaa",
"aaaaaaa*4555464563aaaaaaaaaaaaaaaaaaaaaaaaaaaaaaaaaaaaaaaaaaaaaaaaaaa%63464446664444646664444464664aaaaaaaaaa&4474464644aaaaaaaa",
"aaaaaaa=4555445444aaaaaaaaaaaaaaaaaaaaaaaaaaaaaaaaaaaaaaaaaaaaaaaaaaaa&><<<<<<><<<<<<<><<<<<<<<11>=aaaaaaaaaa&4444353543aaaaaaaa",
"aaaaaaa=3552444544aaaaaaaaaaaaaaaaaaaaaaaaaaaaaaaaaaaaaaaaaaaaaaaaaaaaa.X....X..XXX.....X.X....Xaaaaaaaaaaaaa&3444443535aaaaaaaa",
"aaaaaaa=5355444443aaaaaaaaaaaaaaaaaaaaaaaaaaaaaaaaaaaaaaaaaaaaaaaaaaaaaa                       aaaaaaaaaaaaaa&3444445333aaaaaaaa",
"aaaaaaa=2555534443aaaaaaaaaaaaaaaaaaaaaaaaaaaaaaaaaaaaaaaaaaaaaaaaaaaaaaaaaaaaaaaaaaaaaaaaaaaaaaaaaaaaaaaaaaa&3434525353aaaaaaaa",
"aaaaaaa*3325255443aaaaaaaaaaaaaaaaaaaaaaaaaaaaaaaaaaaaaaaaaaaaaaaaaaaaaaaaaaaaaaaaaaaaaaaaaaaaaaaaaaaaaaaaaaa&3333433335aaaaaaaa",
"aaaaaaa*3334334343aaaaaaaaaaaaaaaaaaaaaaaaaaaaaaaaaaaaaaaaaaaaaaaaaaaaaaaaaaaaaaaaaaaaaaaaaaaaaaaaaaaaaaaaaaa&3333333333aaaaaaaa",
"aaaaaaa*3333333332aaaaaaaaaaaaaaaaaaaaaaaaaaaaaaaaaaaaaaaaaaaaaaaaaaaaaaaaaaaaaaaaaaaaaaaaaaaaaaaaaaaaaaaaaaa=3333333332aaaaaaaa",
"aaaaaaa=33333323331aaaaaaaaaaaaaaaaaaaaaaaaaaaaaaaaaaaaaaaaaaaaaaaaaaaaaaaaaaaaaaaaaaaaaaaaaaaaaaaaaaaaaaaaaa>3323333333aaaaaaaa",
"aaaaaaa*233233322331aaaaaaaaaaaaaaaaaaaaaaaaaaaaaaaaaaaaaaaaaaaaaaaaaaaaaaaaaaaaaaaaaaaaaaaaaaaaaaaaaaaaaaaa>33233212322aaaaaaaa",
"aaaaaaa*2323322332232222222222222222122222222222222122221222222222223122221221223222211122131222222211111211131322322222aaaaaaaa",
"aaaaaaa*2332232332322222232232222322232222232222222332223122322222321122222222221222223122112222222233132222131322223222aaaaaaaa",
"aaaaaaa*2222222222222232222322222222222222222222231122223113131222121313132222212222221321312221222213222222313122222221aaaaaaaa",
"aaaaaaa%1222222222222222222222222222222122222122111312211211111112211311112221211221221121312211121221211221211122211221aaaaaaaa",
"aaaaaaaa>11111321111222112212221112222211111211111121111111111111111111111111111111111111111111121121111111111111111212>aaaaaaaa",
"aaaaaaaa*1221111131111111111111211112111111111111211111111121111121111111111111112111111111111111111111111121111111112<aaaaaaaaa",
"aaaaaaaa.*111111121111111111211<1111111<111111111121111111111111111111111111111111111<1111111111112111111111111111111<*aaaaaaaaa",
"aaaaaaaaa %;1111111111112111<112111111111111111111111111111111111111111111111111111111111111111111111111111111112<11;$aaaaaaaaaa",
"aaaaaaaaaa O%=;;>>::;;>;;>>>>>;>:::::>>>;>>;>;>>;;;>>>;;;>;>>;;>>;>;;>;>;;>;>;>:::>>>;>>;;>;;>>>;;;>>>;;;>;>>;>;>;=$oaaaaaaaaaaa",
"aaaaaaaaaaa   o..XXXo.o.oXXXXXXXXXXXXX.XXXXXXXXX.oXXo.o.XXXX.oo.X.oXXXXXo.o.oXXXXX.XXXX.o.o.oX.X.oXXo.o.XXXX.oXX.X aaaaaaaaaaaaa",
"aaaaaaaaaaaa                                                                                                     aaaaaaaaaaaaaaa",
"aaaaaaaaaaaaaaaaaaaaaaaaaaaaaaaaaaaaaaaaaaaaaaaaaaaaaaaaaaaaaaaaaaaaaaaaaaaaaaaaaaaaaaaaaaaaaaaaaaaaaaaaaaaaaaaaaaaaaaaaaaaaaaaa",
"aaaaaaaaaaaaaaaaaaaaaaaaaaaaaaaaaaaaaaaaaaaaaaaaaaaaaaaaaaaaaaaaaaaaaaaaaaaaaaaaaaaaaaaaaaaaaaaaaaaaaaaaaaaaaaaaaaaaaaaaaaaaaaaa",
"aaaaaaaaaaaaaaaaaaaaaaaaaaaaaaaaaaaaaaaaaaaaaaaaaaaaaaaaaaaaaaaaaaaaaaaaaaaaaaaaaaaaaaaaaaaaaaaaaaaaaaaaaaaaaaaaaaaaaaaaaaaaaaaa",
"aaaaaaaaaaaaaaaaaaaaaaaaaaaaaaaaaaaaaaaaaaaaaaaaaaaaaaaaaaaaaaaaaaaaaaaaaaaaaaaaaaaaaaaaaaaaaaaaaaaaaaaaaaaaaaaaaaaaaaaaaaaaaaaa",
"aaaaaaaaaaaaaaaaaaaaaaaaaaaaaaaaaaaaaaaaaaaaaaaaaaaaaaaaaaaaaaaaaaaaaaaaaaaaaaaaaaaaaaaaaaaaaaaaaaaaaaaaaaaaaaaaaaaaaaaaaaaaaaaa",
"aaaaaaaaaaaaaaaaaaaaaaaaaaaaaaaaaaaaaaaaaaaaaaaaaaaaaaaaaaaaaaaaaaaaaaaaaaaaaaaaaaaaaaaaaaaaaaaaaaaaaaaaaaaaaaaaaaaaaaaaaaaaaaaa",
"aaaaaaaaaaaaaaaaaaaaaaaaaaaaaaaaaaaaaaaaaaaaaaaaaaaaaaaaaaaaaaaaaaaaaaaaaaaaaaaaaaaaaaaaaaaaaaaaaaaaaaaaaaaaaaaaaaaaaaaaaaaaaaaa",
"aaaaaaaaaaaaaaaaaaaaaaaaaaaaaaaaaaaaaaaaaaaaaaaaaaaaaaaaaaaaaaaaaaaaaaaaaaaaaaaaaaaaaaaaaaaaaaaaaaaaaaaaaaaaaaaaaaaaaaaaaaaaaaaa",
"aaaaaaaaaaaaaaaaaaaaaaaaaaaaaaaaaaaaaaaaaaaaaaaaaaaaaaaaaaaaaaaaaaaaaaaaaaaaaaaaaaaaaaaaaaaaaaaaaaaaaaaaaaaaaaaaaaaaaaaaaaaaaaaa",
"aaaaaaaaaaaaaaaaaaaaaaaaaaaaaaaaaaaaaaaaaaaaaaaaaaaaaaaaaaaaaaaaaaaaaaaaaaaaaaaaaaaaaaaaaaaaaaaaaaaaaaaaaaaaaaaaaaaaaaaaaaaaaaaa",
"aaaaaaaaaaaaaaaaaaaaaaaaaaaaaaaaaaaaaaaaaaaaaaaaaaaaaaaaaaaaaaaaaaaaaaaaaaaaaaaaaaaaaaaaaaaaaaaaaaaaaaaaaaaaaaaaaaaaaaaaaaaaaaaa",
"aaaaaaaaaaaaaaaaaaaaaaaaaaaaaaaaaaaaaaaaaaaaaaaaaaaaaaaaaaaaaaaaaaaaaaaaaaaaaaaaaaaaaaaaaaaaaaaaaaaaaaaaaaaaaaaaaaaaaaaaaaaaaaaa",
"aaaaaaaaaaaaaaaaaaaaaaaaaaaaaaaaaaaaaaaaaaaaaaaaaaaaaaaaaaaaaaaaaaaaaaaaaaaaaaaaaaaaaaaaaaaaaaaaaaaaaaaaaaaaaaaaaaaaaaaaaaaaaaaa",
"aaaaaaaaaaaaaaaaaaaaaaaaaaaaaaaaaaaaaaaaaaaaaaaaaaaaaaaaaaaaaaaaaaaaaaaaaaaaaaaaaaaaaaaaaaaaaaaaaaaaaaaaaaaaaaaaaaaaaaaaaaaaaaaa",
"aaaaaaaaaaaaaaaaaaaaaaaaaaaaaaaaaaaaaaaaaaaaaaaaaaaaaaaaaaaaaaaaaaaaaaaaaaaaaaaaaaaaaaaaaaaaaaaaaaaaaaaaaaaaaaaaaaaaaaaaaaaaaaaa",
"aaaaaaaaaaaaaaaaaaaaaaaaaaaaaaaaaaaaaaaaaaaaaaaaaaaaaaaaaaaaaaaaaaaaaaaaaaaaaaaaaaaaaaaaaaaaaaaaaaaaaaaaaaaaaaaaaaaaaaaaaaaaaaaa",
"aaaaaaaaaaaaaaaaaaaaaaaaaaaaaaaaaaaaaaaaaaaaaaaaaaaaaaaaaaaaaaaaaaaaaaaaaaaaaaaaaaaaaaaaaaaaaaaaaaaaaaaaaaaaaaaaaaaaaaaaaaaaaaaa"
};
