/* XPM */
static char *xfce4_mcs_manager[] = {
/* columns rows colors chars-per-pixel */
"128 128 61 1 ",
"  c black",
". c #060606060606",
"X c #073A073A073A",
"o c #0B3E0B3E0B3E",
"O c #10100F421010",
"+ c #0FA90FA90FA9",
"@ c #114411441144",
"# c #12DF13AD12DF",
"$ c #147A147A147A",
"% c #181818181818",
"& c #1B4E1B4E1B4E",
"* c #1E841E841E84",
"= c #21BB21BB21BB",
"- c #24F124F124F1",
"; c #26F326262626",
": c #262626F32626",
"> c #26F3262626F3",
", c #262626F326F3",
"< c #27C127C127C1",
"1 c #29C328F529C3",
"2 c #2A902A902A90",
"3 c #2F622F622F62",
"4 c #309630962FC9",
"5 c #30FD30FD30FD",
"6 c #336632FF3366",
"7 c #350135013501",
"8 c #3619369C3663",
"9 c #389E389E389E",
"0 c #39D3396C396C",
"q c #396C39D3396C",
"w c #39D339D3396C",
"e c #396C396C39D3",
"r c #39D3396C39D3",
"t c #396C39D339D3",
"y c #3B6E3B6E3B6E",
"u c #3D093CA23CA2",
"i c #3CA23D093CA2",
"p c #3D093D093CA2",
"a c #3CA23CA23D09",
"s c #3D093CA23D09",
"d c #3CA23D093D09",
"f c #3E3E3E3E3E3E",
"g c #401C40064021",
"h c #417441744174",
"j c #433B4345433D",
"k c #451145114511",
"l c #46644694468B",
"z c #47E147E147E1",
"x c #49E3497C497C",
"c c #497C49E3497C",
"v c #49E349E3497C",
"b c #497C497C49E3",
"n c #49E3497C49E3",
"m c #4B174B174B17",
"M c #4D194D194CB2",
"N c #4EB44EB44EB4",
"B c #4FE94FE95050",
"V c #518451845184",
"C c #535F53865346",
"Z c gray33",
"A c None",
/* pixels */
"AAAAAAAAAAAAAAAAAAAAAAAAAAAAAAAAAAAAAAAAAAAAAAAAAAAAAAAAAAAAAAAAAAAAAAAAAAAAAAAAAAAAAAAAAAAAAAAAAAAAAAAAAAAAAAAAAAAAAAAAAAAAAAAA",
"AAAAAAAAAAAAAAAAAAAAAAAAAAAAAAAAAAAAAAAAAAAAAAAAAAAAAAAAAAAAAAAAAAAAAAAAAAAAAAAAAAAAAAAAAAAAAAAAAAAAAAAAAAAAAAAAAAAAAAAAAAAAAAAA",
"AAAAAAAAAAAAAAAAAAAAAAAAAAAAAAAAAAAAAAAAAAAAAAAAAAAAAAAAAAAAAAAAAAAAAAAAAAAAAAAAAAAAAAAAAAAAAAAAAAAAAAAAAAAAAAAAAAAAAAAAAAAAAAAA",
"AAAAAAAAAAAAAAAAAAAAAAAAAAAAAAAAAAAAAAAAAAAAAAAAAAAAAAAAAAAAAAAAAAAAAAAAAAAAAAAAAAAAAAAAAAAAAAAAAAAAAAAAAAAAAAAAAAAAAAAAAAAAAAAA",
"AAAAAAAAAAAAAAAAAAAAAAAAAAAAAAAAAAAAAAAAAAAAAAAAAAAAAAAAAAAAAAAAAAAAAAAAAAAAAAAAAAAAAAAAAAAAAAAAAAAAAAAAAAAAAAAAAAAAAAAAAAAAAAAA",
"AAAAAAAAAAAAAAAAAAAAAAAAAAAAAAAAAAAAAAAAAAAAAAAAAAAAAAAAAAAAAAAAAAAAAAAAAAAAAAAAAAAAAAAAAAAAAAAAAAAAAAAAAAAAAAAAAAAAAAAAAAAAAAAA",
"AAAAAAAAAAAAAAAAAAAAAAAAAAAAAAAAAAAAAAAAAAAAAAAAAAAAAAAAAAAAAAAAAAAAAAAAAAAAAAAAAAAAAAAAAAAAAAAAAAAAAAAAAAAAAAAAAAAAAAAAAAAAAAAA",
"AAAAAAAAAAAAAAAAAAAAAAAAAAAAAAAAAAAAAAAAAAAAAAAAAAAAAAAAAAAAAAAAAAAAAAAAAAAAAAAAAAAAAAAAAAAAAAAAAAAAAAAAAAAAAAAAAAAAAAAAAAAAAAAA",
"AAAAAAAAAAAAAAAAAAAAAAAAAAAAAAAAAAAAAAAAAAAAAAAAAAAAAAAAAAAAAAAAAAAAAAAAAAAAAAAAAAAAAAAAAAAAAAAAAAAAAAAAAAAAAAAAAAAAAAAAAAAAAAAA",
"AAAAAAAAAAAAAAAAAAAAAAAAAAAAAAAAAAAAAAAAAAAAAAAAAAAAAAAAAAAAAAAAAAAAAAAAAAAAAAAAAAAAAAAAAAAAAAAAAAAAAAAAAAAAAAAAAAAAAAAAAAAAAAAA",
"AAAAAAAAAAAAAAAAAAAAAAAAAAAAAAAAAAAAAAAAAAAAAAAAAAAAAAAAAAAAAAAAAAAAAAAAAAAAAAAAAAAAAAAAAAAAAAAAAAAAAAAAAAAAAAAAAAAAAAAAAAAAAAAA",
"AAAAAAAAAAAAAAAAAAAAAAAAAAAAAAAAAAAAAAAAAAAAAAAAAAAAAAAAAAAAAAAAAAAAAAAAAAAAAAAAAAAAAAAAAAAAAAAAAAAAAAAAAAAAAAAAAAAAAAAAAAAAAAAA",
"AAAAAAAAAAAAAAAAAAAAAAAAAAAAAAAAAAAAAAAAAAAAAAAAAAAAAAAAAAAAAAAAAAAAAAAAAAAAAAAAAAAAAAAAAAAAAAAAAAAAAAAAAAAAAAAAAAAAAAAAAAAAAAAA",
"AAAAAAAAAAAAAAAAAAAAAAAAAAAAAAAAAAAAAAAAAAAAAAAAAAAAAAAAAAAAAAAAAAAAAAAAAAAAAAAAAAAAAAAAAAAAAAAAAAAAAAAAAAAAAAAAAAAAAAAAAAAAAAAA",
"AAAAAAAAAAAAAAAAAAAAAAAAAAAAAAAAAAAAAAAAAAAAAAAAAAAAAAAAAAAAAAAAAAAAAAAAAAAAAAAAAAAAAAAAAAAAAAAAAAAAAAAAAAAAAAAAAAAAAAAAAAAAAAAA",
"AAAAAAAAAAAAAAAAAAAAAAAAAAAAAAAAAAAAAAAAAAAAAAAAAAAAAAAAAAAAAAAAAAAAAAAAAAAAAAAAAAAAAAAAAAAAAAAAAAAAAAAAAAAAAAAAAAAAAAAAAAAAAAAA",
"AAAAAAAAAAAAAAAAAAAAAAAAAAAAAAAAAAAAAAAAAAAAAAAAAAAAAAAAAAAAAAAAAAAAAAAAAAAAAAAAAAAAAAAAAAAAAAAAAAAAAAAAAAAAAAAAAAAAAAAAAAAAAAAA",
"AAAAAAAAAAAAAAAAAAAAAAAAAAAAAAAAAAAAAAAAAAAAAAAAAAAAAAAAAAAAAAAAAAAAAAAAAAAAAAAAAAAAAAAAAAAAAAAAAAAAAAAAAAAAAAAAAAAAAAAAAAAAAAAA",
"AAAAAAAAAAAAAAAAAAAAAAAAAAAAAAAAAAAAAAAAAAAAAAAAAAAAAAAAAAAAAAAAAAAAAAAAAAAAAAAAAAAAAAAAAAAAAAAAAAAAAAAAAAAAAAAAAAAAAAAAAAAAAAAA",
"AAAAAAAAAAAAAAAAAAAAAAAAAAAAAAAAAAAAAAAAAAAAAAAAAAAAAAAAAAAAAAAAAAAAAAAAAAAAAAAAAAAAAAAAAAAAAAAAAAAAAAAAAAAAAAAAAAAAAAAAAAAAAAAA",
"AAAAAAAAAAAAAAAAAAAAAAAAAAAAAAAAAAAAAAAAAAAAAAAAAAAAAAAAAAAAAAAAAAAAAAAAAAAAAAAAAAAAAAAAAAAAAAAAAAAAAAAAAAAAAAAAAAAAAAAAAAAAAAAA",
"AAAAAAAAAAAAAAAAAAAAAAAAAAAAAAAAAAAAAAAAAAAAAAAAAAAAAAAAAAAAAAAAAAAAAAAAAAAAAAAAAAAAAAAAAAAAAAAAAAAAAAAAAAAAAAAAAAAAAAAAAAAAAAAA",
"AAAAAAAAAAAAAAAAAAAAAACZZZZZZZZZZZZZAAAAAAAAAAAAAAAAAAAAAAZZZZZZZZZZZZZAAAAAAAAAAAAAAAAAAAAAAZZZZZZZZZZZZZZAAAAAAAAAAAAAAAAAAAAA",
"AAAAAAAAAAAAAAAAAAAAAAZZZZZZZZZZZZZZCAAAAAAAAAAAAAAAAAAAAZZZZZZZZZZZZZZZAAAAAAAAAAAAAAAAAAAACZZZZZZZZZZZZZZAAAAAAAAAAAAAAAAAAAAA",
"AAAAAAAAAAAAAAAAAAAAACZCZZZZZZZZZZZZZAAAAAAAAAAAAAAAAAAAAZZZZZZZZZZZCZZZCAAAAAAAAAAAAAAAAAAACCZZZZZZZZZZZZZCAAAAAAAAAAAAAAAAAAAA",
"AAAAAAAAAAAAAAAAAAAAACZCZZZZZZZZZZZZZAAAAAAAAAAAAAAAAAAAAZZZZZZZZZZZCCZZCAAAAAAAAAAAAAAAAAAACCCZZZZZZZZZZZCCAAAAAAAAAAAAAAAAAAAA",
"AAAAAAAAAAAAAAAAAAAAABCCZZZZZZZZCZCCZAAAAAAAAAAAAAAAAAAAACCCZZZCZZZZCCCCCAAAAAAAAAAAAAAAAAAACCCCZZZZZZZZCCCCAAAAAAAAAAAAAAAAAAAA",
"AAAAAAAAAAAAAAAAAAAAANCCZZZZZZZZCCCCCAAAAAAAAAAAAAAAAAAA0CCCZCCCZZZZCCCCNAAAAAAAAAAAAAAAAAAACCCCZZZZZZZZCCCCAAAAAAAAAAAAAAAAAAAA",
"AAAAAAAAAAAAAAAAAAAAANCCCCCCZZZCCCCCZAAAAAAAAAAAAAAAAAAA8CCCCCCCZZCCCCCCNAAAAAAAAAAAAAAAAAAACCCBCCCCCCCCCCBNAAAAAAAAAAAAAAAAAAAA",
"AAAAAAAAAAAAAAAAAAAAANCCCBCCZZCCCCCBCAAAAAAAAAAAAAAAAAAA6CCCVCCCZZCBBCCCnAAAAAAAAAAAAAAAAAAANCCCCCBCCCCCCCCNAAAAAAAAAAAAAAAAAAAA",
"AAAAAAAAAAAAAAAAAAAAAnBCBCBCCBCCCBBCCAAAAAAAAAAAAAAAAAAA4CCVVCCBZCCCCBCCnAAAAAAAAAAAAAAAAAAABCCCBCCBBCBCNCCNAAAAAAAAAAAAAAAAAAAA",
"AAAAAAAAAAAAAAAAAAAAAnCNCCCCBCCBCBCCCAAAAAAAAAAAAAAAAAAA4VVVVVCBCCBCCBCBNAAAAAAAAAAAAAAAAAAABCBBCBCBCCBCCCBCAAAAAAAAAAAAAAAAAAAA",
"AAAAAAAAAAAAAAAAAAAAAmNCCBCNBCBCBCBBNAAAAAAAAAAAAAAAAAAA5CNCCBCBCBBBCCBCnAAAAAAAAAAAAAAAAAAABVVVBCNCBCNCCNCNAAAAAAAAAAAAAAAAAAAA",
"AAAAAAAAAAAAAAAAAAAAAmCBNCCCCBCNCBBCCAAAAAAAAAAAAAAAAAAA8CCBBCBCBCNCBBCnnAAAAAAAAAAAAAAAAAAANVVVCBCBNCCNNCBNAAAAAAAAAAAAAAAAAAAA",
"AAAAAAAAAAAAAAAAAAAAAnCCCBNCBCCBBBCBNAAAAAAAAAAAANNCCNNnnCNBCNNCCBCBCNBCCNBBCCCNAAAAAAAAAAAANVVBNBNCBCNBCBNMAAAAAAAAAAAAAAAAAAAA",
"AAAAAAAAAAAAAAAAAAAAAnCNNNCNNCBCCCBNCAAAAAAAAAANCNCBBNCNCNCBMBCCnCNCBBCNBNNNCNBBNCAAAAAAAAAANBBVBCBCBNCBBNCMAAAAAAAAAAAAAAAAAAAA",
"AAAAAAAAAAAAAAAAAAAAAnBBBBBBBBCmmCCmCAAAAAAAAAACBBBBBBBBNNBBBBCmCCVVBCmCBBBCBBBBNBAAAAAAAAAANNBBCBBBBBBBBBBMAAAAAAAAAAAAAAAAAAAA",
"AAAAAAAAAAAAAAAAAAAAAzBBBBBBBBBBmNBBBAAAAAAAAAnNBBNBBBBBBBBBBBBBVmCmBNCNBBBNNNBBBBNAAAAAAAAANNBBmBBBBBBBBBBNAAAAAAAAAAAAAAAAAAAA",
"AAAAAAAAAAAAAAAAAAAAAnNBNBNBmCNBCBmCNAAAAAAAAAnNNBBBBBNBBBBBNBNBNCmCCNNCBNBNCNNNNBNAAAAAAAAAMNBNCmBBNBBBBBNMAAAAAAAAAAAAAAAAAAAA",
"AAAAAAAAAAAAAAAAAAAAAkBBNBNBCmNNmCCmNAAAAAAAAAkNBNNNBNNNNNNNBNNNMmCmNBnNBNNNNNNNNBmAAAAAAAAANNNNBBmBBBBmNNNNAAAAAAAAAAAAAAAAAAAA",
"AAAAAAAAAAAAAAAAAAAAAnNNNNNNNNNNNNNNNAAAAAAAAAhCNNNNNNNNs5<<-<<<-;2-;23snNNNNNNNNNnAAAAAAAAANNNNNNCnNNNNNNNnAAAAAAAAAAAAAAAAAAAA",
"AAAAAAAAAAAAAAAAAAAAAnNNNNNNNNNNNNNNnAAAAAAAAAhNNNNNNNj=                =hNNNNNNNNnAAAAAAAAAmNNNmBNBNNMNNNNnAAAAAAAAAAAAAAAAAAAA",
"AAAAAAAAAAAAAAAAAAAAAkNNNNNNNNNNNNNNNAAAAAAAAAsNNMNNNN<                  2NNNNNNNNkAAAAAAAAANNNNNNMNNNNNNNNnAAAAAAAAAAAAAAAAAAAA",
"AAAAAAAAAAAAAAAAAAAAAnNNNNNMNMNNNMNCmAAAAAAAAAsNNMNMMhXAAAAAAAAAAAAAAAA  XsNNNMNNNzAAAAAAAAAmNMMMBmNMNMNMNNnAAAAAAAAAAAAAAAAAAAA",
"AAAAAAAAAAAAAAAAAAAAAzMNMMNMMMNMnNNNNAAAAAAAAAsCNMMNNsAAAAAAAAAAAAAAAAAA  9NNmNNnNkAAAAAAAAAmMMNMMMNMMMMMNMnAAAAAAAAAAAAAAAAAAAA",
"AAAAAAAAAAAAAAAAAAAAAkMMMMMMMMMMNnNnmAAAAAAAAAsnMNMMmhAAAAAAAAAAAAAAAAAAA fNNNmmNNkAAAAAAAAAmMMMMMMMNMMMMMMnAAAAAAAAAAAAAAAAAAAA",
"AAAAAAAAAAAAAAAAAAAAAzmMmMMMMMMMmNmNmAAAAAAAAAsmNmmNNnAAAAAAAAAAAAAAAAAAA%zmmmmNmNkAAAAAAAAAmMMMMMMMMMMMMMMnAAAAAAAAAAAAAAAAAAAA",
"AAAAAAAAAAAAAAAAAAAAAkMMMMMmmMmMmnNmmAAAAAAAAAsNmNmmmmjAAAAAAAAAAAAAAAAAA9NNnNNmmmkAAAAAAAAAmmmMMMMMnNnNnNncAAAAAAAAAAAAAAAAAAAA",
"AAAAAAAAAAAAAAAAAAAAAkmNmMmMmMMMNMMMmAAAAAAAAAsmmNmMMMmzAAAAAAAAAAAAAAAAhmmNmNnmNmkAAAAAAAAAnmmmMmmmmNmmNmnzAAAAAAAAAAAAAAAAAAAA",
"AAAAAAAAAAAAAAAAAAAAAkmnmmMmmmmmmnmMnAAAAAAAAAsmmnmNmmmmmmmmmmmmnMMnmmmmmmmmmmnNmmjAAAAAAAAAnmmmmMmmmmmmnmmnAAAAAAAAAAAAAAAAAAAA",
"AAAAAAAAAAAAAAAAAAAAAkmmmmmmmmMmmmmmmAAAAAAAAAsmmmmmmmmMmmmmmmmmmmnmmmmmmmmmmmmmmmjAAAAAAAAAnmmmmmmmmmmmmmnnAAAAAAAAAAAAAAAAAAAA",
"AAAAAAAAAAAAAAAAAAAAAkmmmmmmmmmmmmmmnAAAAAAAAAsmmmmmmmmmmmmmmmmmmmmmmmmmmmmmmmmmmmjAAAAAAAAAnmmmmmmmmmmmmmnnAAAAAAAAAAAAAAAAAAAA",
"AAAAAAAAAAAAAAAAAAAAAjmmmmnmmmmmnmmnnAAAAAAAAA9nnmmnmmmmmmmmmnmnmmmmmnnmmmmmmmmnmmgAAAAAAAAAnmnmmmmmmmmmmmmzAAAAAAAAAAAAAAAAAAAA",
"AAAAAAAAAAAAAAAAAAAAAjmmnnnmcncnmmnnnAAAAAAAAA-nmmnmmnnnnnnnnmnnmnnnnmmccccmmnnmnnAAAAAAAAAAzmmnmmmznnnnmnmkAAAAAAAAAAAAAAAAAAAA",
"AAAAAAAAAAAAAAAAAAAAAjnnccmncnccnnnnnAAAAAAAAAA5nnnnnmnmnnccnmccnnnnnnnmccmmccnnmqAAAAAAAAAAznnncczmnnnnnmnkAAAAAAAAAAAAAAAAAAAA",
"AAAAAAAAAAAAAAAAAAAAAjnnccccccccnnnnnAAAAAAAAAA -qhfhfhshcccccccnnnnnncczfhffjjq2AAAAAAAAAAAznnnnmzmnnnnnnnkAAAAAAAAAAAAAAAAAAAA",
"AAAAAAAAAAAAAAAAAAAAAjnnnnznzmncccccnAAAAAAAAAAA XXXXXXX2nnnnczcccccnnnn8.XXXXXXAAAAAAAAAAAAznzncznccccznnzkAAAAAAAAAAAAAAAAAAAA",
"AAAAAAAAAAAAAAAAAAAAAjnzznnnzmznczczzAAAAAAAAAAAA       -znznmczkzzznknn8     AAAAAAAAAAAAAAkznnczzzzzcznzzkAAAAAAAAAAAAAAAAAAAA",
"AAAAAAAAAAAAAAAAAAAAAjzzznzzmzzccnzzzAAAAAAAAAAAAAAAA   -zzzzzzzczczzznz8 AAAAAAAAAAAAAAAAAAjmzzzczcnzzzznnkAAAAAAAAAAAAAAAAAAAA",
"AAAAAAAAAAAAAAAAAAAAAjzzzzzzzzzzzzzznAAAAAAAAAAAAAAAAAA -nzzzzzznzcznzzz0AAAAAAAAAAAAAAAAAAAkzzzzzzzzzczzznkAAAAAAAAAAAAAAAAAAAA",
"AAAAAAAAAAAAAAAAAAAAAhzzzzzzzzzzzzzzkAAAAAAAAAAAAAAAAAAA<zzzzzzzzckczzzzqAAAAAAAAAAAAAAAAAAAzzzzzzzzzzzzzzzkAAAAAAAAAAAAAAAAAAAA",
"AAAAAAAAAAAAAAAAAAA55jzzzzzzzzkzckzzksAAAAAAAAAAAAAAAAAA2zzzzzzzzkckzzzzsAAAAAAAAAAAAAAAAAAAjzzzzkzzkzzzzzkkAAAAAAAAAAAAAAAAAAAA",
"AAAAAAAAAAAAkzknkzkzzzkkzzkzzzzzkzkzzzzkkzzzzkAAAAAAAAAA-kzkzzjzknkkzznkhAAAAAAAAAAAAAAAAAAAkzzzzzzzzkkznkkkAAAAAAAAAAAAAAAAAAAA",
"AAAAAAAAAAAAkknkzzzkkzzzzkzkkkzkzkzzzkzzzkkzkzAAAAAAAAAA2zkzkzzzzzkzkzkzsAAAAAAAAAAAAAAAAAAAjzjzjzzjzzzkzzkhAAAAAAAAAAAAAAAAAAAA",
"AAAAAAAAAAAkzzkzkckzkzzkzkzzzzzkkzkzkkzkkzkzzkkAAAAAAAAA2kkzzkzkkzkkkkzksAAAAAAAAAAAAAAAAAAAkkkkzzzkkkzknkzhAAAAAAAAAAAAAAAAAAAA",
"AAAAAAAAAAAkkkzkkkzkzkzzkzjkkkkzkzkkknkzkkzkkzkAAAAAAAAA2zkkkkzzzkkzzkzkfAAAAAAAAAAAAAAAAAAAjzzkkkkkzkkzkkkjAAAAAAAAAAAAAAAAAAAA",
"AAAAAAAAAAAkkkkzkkzkkkkkkzkzkkzkzkkzzkkkzkkzkzkAAAAAAAAA2kkzkzkkkkkkkkkkfAAAAAAAAAAAAAAAAAAAkkzkkzkzkkkkkkkkAAAAAAAAAAAAAAAAAAAA",
"AAAAAAAAAAAkkkkkkzkkkjfqqissssqsissjkkzkkkkkkkkAAAAAAAAA2kkkkkkkkkzkkckkhAAAAAAAAAAAAAAAAAAAhkkkkkkkkkzkkkkhAAAAAAAAAAAAAAAAAAAA",
"AAAAAAAAAAAkkkkkkkks2@..XX..X...X..#29kkkkkkkkkAAAAAAAAA<kkkkkkkkkkkkkkkfAAAAAAAAAAAAAAAAAAAjkkkkkkkkkkkkkkhAAAAAAAAAAAAAAAAAAAA",
"AAAAAAAAAAAjkkkkkks%                 %skkkkkkkjAAAAAAAAA2kjkkkkkkkkkkkkkfAAAAAAAAAAAAAAAAAAAjkkkkjkkkkkkjkkhAAAAAAAAAAAAAAAAAAAA",
"AAAAAAAAAAAjkhkjhj5  AAAAAAAAAAAAA    3kkjkkkkjAAAAAAAAA<kkjkjkjkkkkhhkkfAAAAAAAAAAAAAAAAAAAjjjkjkkkjkkkkkhhAAAAAAAAAAAAAAAAAAAA",
"AAAAAAAAAAAjjkjjkj*AAAAAAAAAAAAAAAAA  %hjkjjhjjAAAAAAAAA<hjkjkjjjkhkkkkhfAAAAAAAAAAAAAAAAAAAhjjjjjjkjkjjkhkhAAAAAAAAAAAAAAAAAAAA",
"AAAAAAAAAAAjjjjjhk%AAAAAAAAAAAAAAAAAAA#hkhkkhkjAAAAAAAAA2hjjjhjjjjjjhkjjsAAAAAAAAAAAAjhhss99jjjjkjjhkjjkjjjhsghjhjjAAAAAAAAAAAAA",
"AAAAAAAAAAAhhjjjkh2AAAAAAAAAAAAAAAAAAA-jjjhkkhjAAAAAAAAA2jjjjjjjjjjjkjjjsAAAAAAAAAAjjjjjkjkjjjjjjjjkhkhjhkhkjjhkjjjjjAAAAAAAAAAA",
"AAAAAAAAAAAhkjjjhj9AAAAAAAAAAAAAAAAAAA8jjhjjhjhAAAAAAAAA<jjjjjjjjjjjhjjhqAAAAAAAAAhhjjhhhkhjjhhjjhjjhhhhjhjhhkjjjhhjjAAAAAAAAAAA",
"AAAAAAAAAAAhjjhjkjj9AAAAAAAAAAAAAAAAA5hjjhjjkjhAAAAAAAAA<jhjjhjhjhhjjjhjsAAAAAAAAAhhjhjjjjjhjjjjjjhhjhkkhjhjhjhhhjjhjhAAAAAAAAAA",
"AAAAAAAAAAAhjhhhhjhhhfAAAAAAAAAAAAA9sjjhhhhhhjhAAAAAAAAA<jjhjhjhhhjhhhhhqAAAAAAAAAhkhhhjhhjhhhjhhhhhjhhhjhhjhhhjjhhjhhAAAAAAAAAA",
"AAAAAAAAAAAhhhhhhhhhhhhkhhjhhjhhjhhhjhhhhhhhhhhAAAAAAAAA-hghhhhhhhhhhhhksAAAAAAAA3hhhhhhhhhhhhhhhhhhhhhhhhhhhhhhhhhhhjAAAAAAAAAA",
"AAAAAAAAAAAfhhhhhhhhhhhhhhhhhhhhhhhhhhhhhhhhhhhAAAAAAAAA<hhhhhhhhhhhhhhhiAAAAAAAA3hhhhhhhhhq845454455544569hhhhhhhhhjsAAAAAAAAAA",
"AAAAAAAAAAAshhhhhhhhfhhhhhfhhhhhhhhhhhhhhghhhhhAAAAAAAAA2hshhghhhghhhhhhqAAAAAAAA2hhhhhhhh2$X             .=8hhhfhhhjsAAAAAAAAAA",
"AAAAAAAAAAA9hghhhghhghhghhghhhhgsghghhhhfhhhfgfAAAAAAAAA2hfhshhhhhhhfhhfsAAAAAAAA2hhshhhh4                  &shghfhhhfAAAAAAAAAA",
"AAAAAAAAAAA2hhgghhgghgggfhhffhghhhfhfhfhhhhhhh5AAAAAAAAA-hhghhshhsfhhhfhqAAAAAAAA<fhhfhff* AAAAAAAAAAAAAA    4fhhhhffsAAAAAAAAAA",
"AAAAAAAAAAAA2ihshfhhshfhghfhfhfhfhhfshhhfhffq4AAAAAAAAAA-hshhhhhhghhghhgqAAAAAAAA2shhhfhqXAAAAAAAAAAAAAAAAA  -shshsfhsAAAAAAAAAA",
"AAAAAAAAAAAA #******-9hgffhfhfhhhhshs<****==$AAAAAAAAAAA-hfffhsfshsfffhf9AAAAAAAA-hssfhsqAAAAAAAAAAAAAAAAAAA -hgfhfhhfAAAAAAAAAA",
"AAAAAAAAAAAAA       X8hfhffhffffffhff@     AAAAAAAAAAAAA-hfhshfhfhfhghfg9AAAAAAAA2hfhhshf-AAAAAAAAAAAAAAAAAAA5fghshfffAAAAAAAAAA",
"AAAAAAAAAAAAAAA     .8fffffhhfhfhfffq#   AAAAAAAAAAAAAAA-fhffffhffffffff9AAAAAAAA-fffffff8AAAAAAAAAAAAAAAAAA=fffshfffsAAAAAAAAAA",
"AAAAAAAAAAAAAAAAAAA .9fffgsfffffffffs$AAAAAAAAAAAAAAAAAA-fhffffffgfffhff9AAAAAAAA-fhffffff9AAAAAAAAAAAAAAAA29ffffffhfsAAAAAAAAAA",
"AAAAAAAAAAAAAAAAAAAAX8ffffffffffffffs%AAAAAAAAAAAAAAAAAA-fsfffffffffffff9AAAAAAAA-fffffffffffsfqsfsssissisqffffffffffqAAAAAAAAAA",
"AAAAAAAAAAAAAAAAAAAAA9fffffffffffffffAAAAAAAAAAAAAAAAAAA-fffffffffffffsf8AAAAAAAA-sfffsfffffffffffffffifffffffffffffsiAAAAAAAAAA",
"AAAAAAAAAAAAAAAAAAAAA9sffsiffsfssfsfsAAAAAAAAAAAAAAAAAAA-fsssfssfffqfsfi9AAAAAAAA-fffsfqfffqiffsqfsfsffqffqffssfqfssfqAAAAAAAAAA",
"AAAAAAAAAAAAAAAAAAAAA9ffsfsfisfisfsffAAAAAAAAAAAAAAAAAAA-ifisfsssffisfss8AAAAAAAA-ssffsfqffffssfffisfffifissqffffssisqAAAAAAAAAA",
"AAAAAAAAAAAAAAAAAAAAA8ssfqisifsifqisiAAAAAAAAAAAAAAAAAAA-fsisiissfqfisss8AAAAAAAA$9sffqsfsfqffqsssfsifqfsssffsqfifsss8AAAAAAAAAA",
"AAAAAAAAAAAAAAAAAAAAA8fqsssqfssfssfiqAAAAAAAAAAAAAAAAAAA-fssssysifsisisi8AAAAAAAAA2qsssssfssisfssssiisiffsssfsssfqfs8AAAAAAAAAAA",
"AAAAAAAAAAAAAAAAAAAAA8sfisifqfqfqffqsAAAAAAAAAAAAAAAAAAA=qsisysiqiisg9is8AAAAAAAAAA-8999qq99sqsqi9isqsiq9ssq999999q5AAAAAAAAAAAA",
"AAAAAAAAAAAAAAAAAAAAA8fisfqsqssfqisqqAAAAAAAAAAAAAAAAAAA-sqiyssyisiiyyyy8AAAAAAAAAA o@@@@@@*qqsfisiisqsisi98$@@@+##AAAAAAAAAAAAA",
"AAAAAAAAAAAAAAAAAAAAA8qsqqsqisqqssqssAAAAAAAAAAAAAAAAAAA-qsqyyyyiqqiyyyy8AAAAAAAAAAA       +9sqs9iqisiiqqsq8.     AAAAAAAAAAAAAA",
"AAAAAAAAAAAAAAAAAAAAA8999s9s9si9si9s9AAAAAAAAAAAAAAAAAAA-yyyy9iyyiyyyyyy8AAAAAAAAAAAAAA    O9yyy9siyyiyyyyy8.  AAAAAAAAAAAAAAAAA",
"AAAAAAAAAAAAAAAAAAAAA8siqsisiqs99is99AAAAAAAAAAAAAAAAAAA=y9iyy9s99yi9i9y8AAAAAAAAAAAAAAAAA O9s9yi99yy9y0i998AAAAAAAAAAAAAAAAAAAA",
"AAAAAAAAAAAAAAAAAAAAA89i9s999ss9i99sqAAAAAAAAAAAAAAAAAAA=yyy99i9i9s99iyi8AAAAAAAAAAAAAAAAAA$99yy99ii9i999s98AAAAAAAAAAAAAAAAAAAA",
"AAAAAAAAAAAAAAAAAAAAA8i9qs9si9s99si99AAAAAAAAAAAAAAAAAAA=s99yy9y9y9s999s8AAAAAAAAAAAAAAAAAA$999yi99y99i9y998AAAAAAAAAAAAAAAAAAAA",
"AAAAAAAAAAAAAAAAAAAAA89i999999i999999AAAAAAAAAAAAAAAAAAA=9syy9y99s999y998AAAAAAAAAAAAAAAAAA$9999999yy9y9y9y8AAAAAAAAAAAAAAAAAAAA",
"AAAAAAAAAAAAAAAAAAAAA899yy9i9999y9s99AAAAAAAAAAAAAAAAAAA=y99999999i999y93AAAAAAAAAAAAAAAAAA$999yyy9999999999AAAAAAAAAAAAAAAAAAAA",
"AAAAAAAAAAAAAAAAAAAAA59999999y9999999AAAAAAAAAAAAAAAAAAA=99y9999999999998AAAAAAAAAAAAAAAAAA$9999999y999y9998AAAAAAAAAAAAAAAAAAAA",
"AAAAAAAAAAAAAAAAAAAAA8999999999999999AAAAAAAAAAAAAAAAAAA=9999999999999995AAAAAAAAAAAAAAAAAAA8999999999999998AAAAAAAAAAAAAAAAAAAA",
"AAAAAAAAAAAAAAAAAAAAA3999989999999998AAAAAAAAAAAAAAAAAAA=9999999999999983AAAAAAAAAAAAAAAAAAA8999999999899996AAAAAAAAAAAAAAAAAAAA",
"AAAAAAAAAAAAAAAAAAAAA*989999999899983AAAAAAAAAAAAAAAAAAAA498998999899996AAAAAAAAAAAAAAAAAAAA-989999999998982AAAAAAAAAAAAAAAAAAAA",
"AAAAAAAAAAAAAAAAAAAAAA-8999999899982AAAAAAAAAAAAAAAAAAAAA$2988999899985AAAAAAAAAAAAAAAAAAAAAA-8998898989882AAAAAAAAAAAAAAAAAAAAA",
"AAAAAAAAAAAAAAAAAAAAAA @&&&&&&&&&&%AAAAAAAAAAAAAAAAAAAAAAA.%*%*%&&&&&&AAAAAAAAAAAAAAAAAAAAAAA @&&&&&&&&&*@AAAAAAAAAAAAAAAAAAAAAA",
"AAAAAAAAAAAAAAAAAAAAAAA          AAAAAAAAAAAAAAAAAAAAAAAAA           AAAAAAAAAAAAAAAAAAAAAAAAA          AAAAAAAAAAAAAAAAAAAAAAAA",
"AAAAAAAAAAAAAAAAAAAAAAAAA      AAAAAAAAAAAAAAAAAAAAAAAAAAAAA       AAAAAAAAAAAAAAAAAAAAAAAAAAAAA      AAAAAAAAAAAAAAAAAAAAAAAAAA",
"AAAAAAAAAAAAAAAAAAAAAAAAAAAAAAAAAAAAAAAAAAAAAAAAAAAAAAAAAAAAAAAAAAAAAAAAAAAAAAAAAAAAAAAAAAAAAAAAAAAAAAAAAAAAAAAAAAAAAAAAAAAAAAAA",
"AAAAAAAAAAAAAAAAAAAAAAAAAAAAAAAAAAAAAAAAAAAAAAAAAAAAAAAAAAAAAAAAAAAAAAAAAAAAAAAAAAAAAAAAAAAAAAAAAAAAAAAAAAAAAAAAAAAAAAAAAAAAAAAA",
"AAAAAAAAAAAAAAAAAAAAAAAAAAAAAAAAAAAAAAAAAAAAAAAAAAAAAAAAAAAAAAAAAAAAAAAAAAAAAAAAAAAAAAAAAAAAAAAAAAAAAAAAAAAAAAAAAAAAAAAAAAAAAAAA",
"AAAAAAAAAAAAAAAAAAAAAAAAAAAAAAAAAAAAAAAAAAAAAAAAAAAAAAAAAAAAAAAAAAAAAAAAAAAAAAAAAAAAAAAAAAAAAAAAAAAAAAAAAAAAAAAAAAAAAAAAAAAAAAAA",
"AAAAAAAAAAAAAAAAAAAAAAAAAAAAAAAAAAAAAAAAAAAAAAAAAAAAAAAAAAAAAAAAAAAAAAAAAAAAAAAAAAAAAAAAAAAAAAAAAAAAAAAAAAAAAAAAAAAAAAAAAAAAAAAA",
"AAAAAAAAAAAAAAAAAAAAAAAAAAAAAAAAAAAAAAAAAAAAAAAAAAAAAAAAAAAAAAAAAAAAAAAAAAAAAAAAAAAAAAAAAAAAAAAAAAAAAAAAAAAAAAAAAAAAAAAAAAAAAAAA",
"AAAAAAAAAAAAAAAAAAAAAAAAAAAAAAAAAAAAAAAAAAAAAAAAAAAAAAAAAAAAAAAAAAAAAAAAAAAAAAAAAAAAAAAAAAAAAAAAAAAAAAAAAAAAAAAAAAAAAAAAAAAAAAAA",
"AAAAAAAAAAAAAAAAAAAAAAAAAAAAAAAAAAAAAAAAAAAAAAAAAAAAAAAAAAAAAAAAAAAAAAAAAAAAAAAAAAAAAAAAAAAAAAAAAAAAAAAAAAAAAAAAAAAAAAAAAAAAAAAA",
"AAAAAAAAAAAAAAAAAAAAAAAAAAAAAAAAAAAAAAAAAAAAAAAAAAAAAAAAAAAAAAAAAAAAAAAAAAAAAAAAAAAAAAAAAAAAAAAAAAAAAAAAAAAAAAAAAAAAAAAAAAAAAAAA",
"AAAAAAAAAAAAAAAAAAAAAAAAAAAAAAAAAAAAAAAAAAAAAAAAAAAAAAAAAAAAAAAAAAAAAAAAAAAAAAAAAAAAAAAAAAAAAAAAAAAAAAAAAAAAAAAAAAAAAAAAAAAAAAAA",
"AAAAAAAAAAAAAAAAAAAAAAAAAAAAAAAAAAAAAAAAAAAAAAAAAAAAAAAAAAAAAAAAAAAAAAAAAAAAAAAAAAAAAAAAAAAAAAAAAAAAAAAAAAAAAAAAAAAAAAAAAAAAAAAA",
"AAAAAAAAAAAAAAAAAAAAAAAAAAAAAAAAAAAAAAAAAAAAAAAAAAAAAAAAAAAAAAAAAAAAAAAAAAAAAAAAAAAAAAAAAAAAAAAAAAAAAAAAAAAAAAAAAAAAAAAAAAAAAAAA",
"AAAAAAAAAAAAAAAAAAAAAAAAAAAAAAAAAAAAAAAAAAAAAAAAAAAAAAAAAAAAAAAAAAAAAAAAAAAAAAAAAAAAAAAAAAAAAAAAAAAAAAAAAAAAAAAAAAAAAAAAAAAAAAAA",
"AAAAAAAAAAAAAAAAAAAAAAAAAAAAAAAAAAAAAAAAAAAAAAAAAAAAAAAAAAAAAAAAAAAAAAAAAAAAAAAAAAAAAAAAAAAAAAAAAAAAAAAAAAAAAAAAAAAAAAAAAAAAAAAA",
"AAAAAAAAAAAAAAAAAAAAAAAAAAAAAAAAAAAAAAAAAAAAAAAAAAAAAAAAAAAAAAAAAAAAAAAAAAAAAAAAAAAAAAAAAAAAAAAAAAAAAAAAAAAAAAAAAAAAAAAAAAAAAAAA",
"AAAAAAAAAAAAAAAAAAAAAAAAAAAAAAAAAAAAAAAAAAAAAAAAAAAAAAAAAAAAAAAAAAAAAAAAAAAAAAAAAAAAAAAAAAAAAAAAAAAAAAAAAAAAAAAAAAAAAAAAAAAAAAAA",
"AAAAAAAAAAAAAAAAAAAAAAAAAAAAAAAAAAAAAAAAAAAAAAAAAAAAAAAAAAAAAAAAAAAAAAAAAAAAAAAAAAAAAAAAAAAAAAAAAAAAAAAAAAAAAAAAAAAAAAAAAAAAAAAA",
"AAAAAAAAAAAAAAAAAAAAAAAAAAAAAAAAAAAAAAAAAAAAAAAAAAAAAAAAAAAAAAAAAAAAAAAAAAAAAAAAAAAAAAAAAAAAAAAAAAAAAAAAAAAAAAAAAAAAAAAAAAAAAAAA"
};
