/* XPM */
static char *baobab[] = {
/* columns rows colors chars-per-pixel */
"24 24 58 1 ",
"  c #0A1F0A1E0A22",
". c #092908C80C9D",
"X c #0BAA0B4A0F06",
"o c #0BF60BF50BF9",
"O c #0CC70CC70CC8",
"+ c #0E0A0E0A0E0A",
"@ c #09CF07C81860",
"# c #11C311C311C3",
"$ c #14B014B014B0",
"% c #188C188C188C",
"& c #1D8B1D8B1D8B",
"* c #1456119C26FA",
"= c #15F613962642",
"- c #0F710DA232CB",
"; c #0FA80D133118",
": c #11920F3636EC",
"> c #1571144A3B1B",
", c #32B332AE32C3",
"< c #320130D036D8",
"1 c #34AE34AC34B6",
"2 c #35F635F23604",
"3 c #367D364D3728",
"4 c #371237103719",
"5 c #36A83636382C",
"6 c #36E0365338C0",
"7 c #34CD32443DAE",
"8 c #352832DF3D03",
"9 c #397E397E397E",
"0 c #3B4D3B4D3B4D",
"q c #3CB23CB23CB2",
"w c #3D723D723D72",
"e c #3E563E563E56",
"r c #3F5F3F5F3F5F",
"t c #13FF12203FD7",
"y c #19E41A0C4595",
"u c #356D32543FCE",
"i c #40BA40B940BB",
"p c #41D941D841DA",
"a c #438B438B438B",
"s c #43EA43EA43EC",
"d c #466246624664",
"f c #47AC47AB47AE",
"g c #483448344834",
"h c #491349134913",
"j c #49CA49CA49CB",
"k c #4B174B174B18",
"l c #4BF84BF84BF8",
"z c #4DE84DE84DE8",
"x c #4F274F274F27",
"c c #518351835183",
"v c #527052705270",
"b c #54BA54BA54BA",
"n c #565056505650",
"m c #577657765776",
"M c #583E583E583E",
"N c #5A4E5A4E5A4E",
"B c #5B905B905B90",
"V c None",
/* pixels */
"VVVVVVVVVVVVVVVVVVVVVVVV",
"VVVVVVVVVVVVVVVVVVVVVVVV",
"VVVVBBBBBBBMnnMnvnvvVVVV",
"VVVVBBMMMMMMnnnnnvvvVVVV",
"VVVMMBMMMnnnnnvvvvxxxVVV",
"VVVMMMnnnnvvvvxvxxxggVVV",
"VVVMMnnnnnvvxxxxxgxggVVV",
"VVVnnnvvvxxgfxggggfffVVV",
"VVvvxxgxggffgggfffsfpVVV",
"VVvvgxgggffffpfpppppppVV",
"VVvvxggggffffppprpprprVV",
"VVxxxxxgfffppppppprrr9VV",
"VVxggxggfffffpppprrr00VV",
"Vxxgfffffppprprrr999999V",
"Vgggfsfppppprrr9r999994V",
"Vfgfffppprr9rr999999446V",
"Vffpprprrrr9r9994444141V",
"fppprprrr99999944444666,",
"V9r99r99994444444484uu,V",
"V&$$ooo oooooo   X@;t:=V",
"V%$ooo    oooo   X@-y>=V",
"VVVVVVVVVVVVVVVVVVVVVVVV",
"VVVVVVVVVVVVVVVVVVVVVVVV",
"VVVVVVVVVVVVVVVVVVVVVVVV"
};
