/* XPM */
static char *bluefish[] = {
/* columns rows colors chars-per-pixel */
"24 24 41 1 ",
"  c #14251425141A",
". c #1956195A195A",
"X c #1C381C361C3C",
"o c #1E411E3F1E47",
"O c #1ECF1ECE1ED0",
"+ c #22BE22B622D3",
"@ c #2611260A2634",
"# c #276A2768276F",
"$ c #28032806281B",
"% c #2A122A0F2A1E",
"& c #2C6A2C6A2C57",
"* c #2F132F1A2F1A",
"= c #303430363034",
"- c #31CC31C131BC",
"; c #334A3346337D",
": c #3583357735B4",
"> c #3655365E3673",
", c #36C636C636EC",
"< c #383D3842388D",
"1 c #39BC39B039BA",
"2 c #3C8E3C863C7C",
"3 c #3DA03DA93D9E",
"4 c #3E733E713E76",
"5 c #3FB83FBD3FC8",
"6 c #405C4063406A",
"7 c #41A1419D41B0",
"8 c #433F433D4344",
"9 c #450C450E450B",
"0 c #47AB47B347A6",
"q c #47EE47ED47EE",
"w c #499D499A49A3",
"e c #4A4B4A4E4A4B",
"r c #4C634C654C61",
"t c #4DD04DCB4DDE",
"y c #4E664E684E77",
"u c #4F5E4F5E4F64",
"i c #515851555144",
"p c #538053885387",
"a c #562156235617",
"s c #5783577B5782",
"d c None",
/* pixels */
"dddddddddddddddddddddddd",
"dddddddddddddddddddddddd",
"dddddddddddddddddddddddd",
"dddddddddddddddddddddddd",
"dddddddddddddddassdddddd",
"dddddddddddsaaassaaadddd",
"dddddddddpppaiaiaiiidddd",
"dddddddiiiiiiiiiiiiudddd",
"dddddduuiuuuuuuuuuuddddd",
"dddddduuuuuuquuqquqddddd",
"dddddqqqqqqqqqqqqqqdqqqd",
"ddddqq0000qqqqqq0000q00d",
"dd77007070700070070070dd",
"ddd.=707770707777744777d",
"ddddd#277747544747=o=44d",
"ddddddo=44444444444ddddd",
"ddddddddo;414111411ddddd",
"ddddddddd+:*#:11<<1ddddd",
"dddddddddd#=%#:::::ddddd",
"dddddddddddo*do%===ddddd",
"dddddddddddddddd ddddddd",
"dddddddddddddddddddddddd",
"dddddddddddddddddddddddd",
"dddddddddddddddddddddddd"
};
