/* XPM */
static char *ccc_large[] = {
/* columns rows colors chars-per-pixel */
"24 24 28 1 ",
"  c #2922292B291A",
". c #30D230DA30D6",
"X c #3501350434F8",
"o c #36333633362E",
"O c #376237623752",
"+ c #383438383834",
"@ c #39F039ED39E5",
"# c #3C673C6A3C67",
"$ c #3EAC3EAB3EAC",
"% c #4020401A401D",
"& c #41AC41A041A2",
"* c #427A426C426E",
"= c #43DE43DF43BA",
"- c #44BD44CB44A1",
"; c #44FA450444C4",
": c #456845664541",
"> c #469C469C4672",
", c #46D646D446DF",
"< c #492D49204924",
"1 c #4A8A4A854A8B",
"2 c #4B904B9A4B8D",
"3 c #4CAB4CAF4CAC",
"4 c #4E5F4E5A4E58",
"5 c #4F2A4F274F21",
"6 c #5112511B50FC",
"7 c #51E251DE51DA",
"8 c #5376537B5381",
"9 c None",
/* pixels */
"999999999999999999999999",
"999999999999999999999999",
"999999999999999999999999",
"999999999999999999999999",
"999999999999999999999999",
"999999999999999999999999",
"999999999999999999999999",
"999999999889988888899999",
"999999998883388588839999",
"9999999333839o#33*o93339",
"999999333331999239991319",
"99999111--1199911999-1,9",
"99991--- #1-999--999---9",
"999---*#9*-*999-*999*-*9",
"99***#9*%***999**999*#*9",
"99#*#99.9##*999**999#*#9",
"99#o99999o#9999o#9999#O9",
"999999999999999999999999",
"999999999999999999999999",
"999999999999999999999999",
"999999999999999999999999",
"999999999999999999999999",
"999999999999999999999999",
"999999999999999999999999"
};
