/* XPM */
static char *cmake[] = {
/* columns rows colors chars-per-pixel */
"24 24 26 1 ",
"  c #0E770E770E77",
". c #2DB02DB22DAF",
"X c #2F4A2F4C2F4A",
"o c #35AC35AC35AC",
"O c #3758375B375A",
"+ c #385238523854",
"@ c #3A583A593A58",
"# c #3C2E3C2C3C2B",
"$ c #3CF63CF93CF3",
"% c #3E6C3E6C3E57",
"& c #3F993F983F85",
"* c #40F740F540B6",
"= c #427142674245",
"- c #44684465445C",
"; c #466646634660",
": c #4780477F477D",
"> c #48164818481F",
", c #49B449B449C8",
"< c #4AF24AF24AF6",
"1 c #4BE04BE04BE1",
"2 c #4DE24DE24DE2",
"3 c #4FA14FA14FA1",
"4 c #5190518E518E",
"5 c #5520551F551F",
"6 c #575257525752",
"7 c None",
/* pixels */
"777777777777777777777777",
"777777777777777777777777",
"777777777775577777777777",
"777777777775577777777777",
"777777777745557777777777",
"777777777744447777777777",
"777777777224244777777777",
"777777777222222777777777",
"777777772<<<2<<<77777777",
"77777777<<<<<<<<77777777",
"7777777;;;<;;<;:<7777777",
"7777777;;;;;;;;;;7777777",
"777777;;;;;*O*;-;;777777",
"777777*****%7%****777777",
"77777****&@77#*****77777",
"77777%%%%7777%***%%77777",
"7777%%@%%7777@%%@%##7777",
"7777@@@@@@@@7O@@@@##7777",
"777O@O@OOOOO@O@@@O@O@777",
"777@OOOOOOOOOOOOOOOOO777",
"77OOOoooOOOooOOOoOOOOO77",
"77....................77",
"777 77777777777777777777",
"777777777777777777777777"
};
