/* XPM */
static char *control_center2[] = {
/* columns rows colors chars-per-pixel */
"24 24 38 1 ",
"  c #14EC14FD14F4",
". c #15EA15F115F0",
"X c #17B417BB17BA",
"o c #26F226F226EE",
"O c #2A722A702A75",
"+ c #2B872B862B8C",
"@ c #2E492E402E3D",
"# c #2F662F632F6F",
"$ c #30F730FD30F4",
"% c #322832343233",
"& c #3385337D3382",
"* c #355A35603566",
"= c #36703662366E",
"- c #370537073706",
"; c #392139283920",
": c #39EF39EC39EC",
"> c #3B7C3B723B7B",
", c #3D043D093D04",
"< c #3E563E5B3E51",
"1 c #3F6A3F6A3F74",
"2 c #3FF43FEF3FE5",
"3 c #41344134413A",
"4 c #423C42364242",
"5 c #4389438B4390",
"6 c #458245834582",
"7 c #46D746E246D3",
"8 c #483D48464843",
"9 c #495849464950",
"0 c #4AE54AE24AE4",
"q c #4BDC4BDD4BE1",
"w c #4CD24CD24CB3",
"e c #4E554E534E76",
"r c #4F044F044F07",
"t c #500F500E503C",
"y c #50E050E050FA",
"u c #52545258524D",
"i c #53EF53F153EE",
"p c None",
/* pixels */
"pppppppppppppppppppppppp",
"pppppppppppppppppppppppp",
"pppppppppppppppppppppppp",
"pppppppppppppppppppppppp",
"ppppiiippppiippppiiipppp",
"ppppuiuppppuiupppiuupppp",
"ppppuuupputuuuuppuuupppp",
"ppppwwwppw,$$,wwpwwwpppp",
"ppppwwwpp0pppo00p0wwpppp",
"pppp000pp0q0w000p0w0pppp",
"pppp000pp+=00,@pp000pppp",
"ppp7770ppp&773ppp777pppp",
"pp7,=$;37pp777ppp777pppp",
"pp7=ppp;3pp333pp37333ppp",
"pp3373333pp33,p,3$$$,3pp",
"pp@@,,3$ppp333p,;ppp@3pp",
"pppp;,;ppp=,2,p;,3,,,,pp",
"pppp,,,ppp$,,;ppO=,,$$pp",
"pppp;;;ppp=;;;ppp$;;pppp",
"pppp==;pppp$=;ppp$==pppp",
"ppppp.ppppp.Xppppp.ppppp",
"pppppppppppppppppppppppp",
"pppppppppppppppppppppppp",
"pppppppppppppppppppppppp"
};
