/* XPM */
static char *dia_menu[] = {
/* columns rows colors chars-per-pixel */
"24 24 74 1 ",
"  c #161716181619",
". c #173A173C173E",
"X c #1E801E831E88",
"o c #1B2220A615CD",
"O c #21862AD018C5",
"+ c #21492148214F",
"@ c #224222362233",
"# c #22B222B822A3",
"$ c #28C428CE28C2",
"% c #2BEF2BF12BE1",
"& c #2EBF2EC22EA2",
"* c #2CBF362823BB",
"= c #361A3DBA2EF7",
"- c #30AE30C830AA",
"; c #31E431EE31E9",
": c #340F341733FC",
"> c #34FE34FA34FE",
", c #35F435F735FC",
"< c #374E3751374E",
"1 c #3850384B3843",
"2 c #38CE38D838CE",
"3 c #39A8399A39C7",
"4 c #3AB83AB63AB2",
"5 c #3B8C3B8B3BA5",
"6 c #3BE03D603A76",
"7 c #3CA03C9C3CA8",
"8 c #3D663D703D6C",
"9 c #3E513E553E5C",
"0 c #3F383F403F38",
"q c #30B4450C1D6F",
"w c #36FF46B42800",
"e c #38DA41943082",
"r c #3AD641AE3462",
"t c #3CA847D631F5",
"y c #3F4748943647",
"u c #3CEE40C53944",
"i c #40DB46D53B2C",
"p c #41A24B6F3829",
"a c #438849B73D80",
"s c #43CD4A3E3D9E",
"d c #45594C1C3ED6",
"f c #3FCD3FCB3FD6",
"g c #417441774176",
"h c #42674259424C",
"j c #44E045474482",
"k c #454C45504556",
"l c #4662464E4685",
"z c #4783479F478B",
"x c #487249D84737",
"c c #48B74CDA44AF",
"v c #48314836482F",
"b c #49064909490E",
"n c #49A849B149D2",
"m c #4A3A4A254A38",
"M c #4B074B044B06",
"N c #4AAB4C09496F",
"B c #4BF54BF44BFC",
"V c #4D7E4D8D4D90",
"C c #4E6C4E634E7D",
"Z c #4E8D537049A7",
"A c #4F1A50BE4D96",
"S c #518054994E43",
"D c #5053505C5064",
"F c #518351965187",
"G c #514D52C94FDD",
"H c #520652D25137",
"J c #526052605263",
"K c #53E755415269",
"L c #544454AF53D5",
"P c #551B54D0555A",
"I c #555D555C554C",
"U c #56A1562956FA",
"Y c #579E571F57DF",
"T c None",
/* pixels */
"TTTTTTTTTTTTTTTTTTTTTTTT",
"TTTTqTTTTTTTTTTTTTTTTTTT",
"TTTwZSSpTTTTTTTTTTTTTTTT",
"TTHtLLLcdYLLYLTTTTTTTTTT",
"THLyHLLacLYLLLLLPPTTTTTT",
"TkkeAHHiulkkkNBHFHHFTTTT",
"TTTO=rr*oTTT#TX$3NCHHTTT",
"TTTT6NxTTTTTCTTTT#7VVVTT",
"TTTTlBBTTTTMVTTTTTT5MVTT",
"TTTTkNNTTTTMMNTTTTTTgNNT",
"TTTTgvNTTTvllNTTTTTT5lNT",
"TTTTgkkTTTl0;llTTTTTTkkT",
"TTTT9kkTThkTT0kTTTTTTllT",
"TTTT9ggTTggTT1hhTTTThhhT",
"TTTT3ggTggggggggTTTTgguT",
"TTTT3093;;;;;;;;3TT907TT",
"TTTT195TTTTTTTTTT9395:TT",
"TTTT3353TTTTTTT35393=TTT",
"T1333333533333393:;TTTTT",
"T::::31::::;::;%$#TTTTTT",
"TT..%::#......TTTTTTTTTT",
"TTTTT-%TTTTTTTTTTTTTTTTT",
"TTTTTTTTTTTTTTTTTTTTTTTT",
"TTTTTTTTTTTTTTTTTTTTTTTT"
};
