/* XPM */
static char *evince[] = {
/* columns rows colors chars-per-pixel */
"24 24 32 1 ",
"  c #1DDC1DDF1DDA",
". c #258A25862580",
"X c #2ACE2AC22ACC",
"o c #2C942C942C8D",
"O c #2DF42DF32DF1",
"+ c #318B31853180",
"@ c #32363235322E",
"# c #342E34383424",
"$ c #362736223630",
"% c #37CB37C837C7",
"& c #392239243921",
"* c #39E639E739E8",
"= c #3B743B693B74",
"- c #3D023CFE3D07",
"; c #3EDC3ED63EDA",
": c #40F840F94104",
"> c #41FA41ED41F1",
", c #443B44374434",
"< c #459445A945A5",
"1 c #46A546B446BC",
"2 c #484B483A4832",
"3 c #4AF44AE94AE2",
"4 c #4C524C8A4C52",
"5 c #4CE04D134CE1",
"6 c #4DCF4DDA4DDA",
"7 c #4F5C4F604F62",
"8 c #517B5182517E",
"9 c #52A152A852A5",
"0 c #54A654985498",
"q c #55E355E055D8",
"w c #58AB58A958AA",
"e c None",
/* pixels */
"eeeeeeeeeeeeeeeeeeeeeeee",
"eeeeeeewwweeeeeeeeeeeeee",
"eeeeeeeq3qeeeeeeeeeeeeee",
"eeeeeee9-9qeeeeeeeeeeeee",
"eeeeeee7999eeeeeeeeeeeee",
"eeeeeee,997eeeeeeeeeeeee",
"eeeeeeee,77eeeeeeeeeeeee",
"eeeeeeee-77eeeeeeeeeeeee",
"eeeeeeee,733eeeeeeeeeeee",
"eeeeeeee,:$33eeeeeeeeeee",
"eeeeeeee,:e=,,eeeeeeeeee",
"eeeeeeee,,ee=,,eeeeeeeee",
"eeeeeee::eeee$::eeeeeeee",
"eeeeeee:-eeeee$::-e-eeee",
"eeeeeee--eee-=--------ee",
"eeeeee===---=$@OX=-$.=-e",
"eeeeee===$O. eeee O=$$$e",
"eeee=$$@.eeeeeeeeee .Xee",
"eee$$$@eeeeeeeeeeeeeeeee",
"ee$XX$@eeeeeeeeeeeeeeeee",
"ee@O@@eeeeeeeeeeeeeeeeee",
"ee.OXeeeeeeeeeeeeeeeeeee",
"eeeeeeeeeeeeeeeeeeeeeeee",
"eeeeeeeeeeeeeeeeeeeeeeee"
};
