/* XPM */
static char *file_roller[] = {
/* columns rows colors chars-per-pixel */
"24 24 26 1 ",
"  c #48BA48BA48AF",
". c #49F049F049DD",
"X c #4B4E4B4E4B24",
"o c #4DAC4DAC4D89",
"O c #4E304E304E2F",
"+ c #4F244F244F20",
"@ c #50355035502A",
"# c #51C451C451A0",
"$ c #52CB52CB52CB",
"% c #53435343532C",
"& c #545554555450",
"* c #558D558D558B",
"= c #56B956B956B4",
"- c #583F583F5833",
"; c #599E599E599E",
": c #5A125A1259A7",
"> c #5A665A665A66",
", c #5B835B835B6B",
"< c #5CB55CB55CB5",
"1 c #5D245D245C93",
"2 c #5E8A5E8A5E8A",
"3 c #604860486048",
"4 c #618E618E618E",
"5 c #61E761E761E7",
"6 c #638863886388",
"7 c None",
/* pixels */
"777777777777777777777777",
"777777777722222377777777",
"77777777,2,22,,263377777",
"77777,,,,,,,=23333666777",
"77,,,,,,==,2233336636637",
"2,=%%%==,223333663666632",
"222,=OO-22333363666332=-",
",,,222,%,2336366632====&",
",,,,,,,,,=233333,=%%%%%=",
"=--,,,,,,,,22,==+%O%O%%&",
"==--==--====%OOO++++++%&",
"%%==========%OOOOO++%OO+",
"=%======%===OOOOOOO+%+++",
"%%==-=======OOOOO+++O++O",
"%%===-======OOOO++%+O%O%",
"=%==========OOOOO+O+OO+%",
"7==========&+OO+++++++O7",
"777=,,======OO+++%%++777",
"77777=,,--==+++%%+O.7777",
"777777%-,,,-%+&+OX777777",
"77777777=,,,%%%.77777777",
"7777777777=,%.7777777777",
"777777777777777777777777",
"777777777777777777777777"
};
