/* XPM */
static char *gbrainy[] = {
/* columns rows colors chars-per-pixel */
"24 24 38 1 ",
"  c #216B21782174",
". c #240A2413240E",
"X c #251D253C252A",
"o c #26622688267B",
"O c #2940293C293E",
"+ c #2D082D052D10",
"@ c #2FA42FA82FAB",
"# c #30E830F830F6",
"$ c #327C3278327A",
"% c #336C336F336E",
"& c #345E34693472",
"* c #3519351A3521",
"= c #36B036B136AC",
"- c #38483848384A",
"; c #395F395F3961",
": c #39BE39BC39C0",
"> c #3B1A3B1A3B21",
", c #3CAC3CAD3CAF",
"< c #3D283D283D28",
"1 c #3E783E7A3E76",
"2 c #3F723F7D3F76",
"3 c #4093407D4083",
"4 c #41EB41EF41ED",
"5 c #431143054304",
"6 c #43DB43E043E0",
"7 c #456845654562",
"8 c #471847174716",
"9 c #4928492F492C",
"0 c #4B044B014AF9",
"q c #4C864C6F4C82",
"w c #4E364E294E31",
"e c #5027502B5028",
"r c #520252015200",
"t c #542E54365434",
"y c #55FD55F355F4",
"u c #57B8578B57CC",
"i c #595C59285954",
"p c None",
/* pixels */
"pppppppppppppppppppppppp",
"ppiiiiiiiiiiiiiiiuiiiipp",
"puuuuuuuuiiiiiiuuuuuuuup",
"peuueuuueeew0weuuueuuuep",
"pwuueuw2+ #3#p+2wueuttep",
"pweee6ppppppwppp 2eeeuep",
"pwew8pppppppwppppp+0eewp",
"p0e0ppppppp0ppppppp#wwwp",
"p0wppppppp0pppp0000p8wwp",
"p80pppppppppp8232pp3%80p",
"p80pppppp3833ppp8pppp80p",
"p38pppppp>ppppppp3ppp38p",
"p388ppp32pppppppp3ppp68p",
"p3838362ppppppppp322333p",
"p233333ppppppppp2#pp333p",
"p2332333pppppp22pppp>33p",
"p>2>2>2>2>22=#pppppp22>p",
"p>>>>22>>>>>#O>pppp>>>>p",
"p=>>>>>>>>>->pp=>=>==>>p",
"p=>>==>=-=>>>>p+>>->>>>p",
"p==>==========%========p",
"p+#====#====#===#===#=#p",
"pp .....o..........O..pp",
"pppppppppppppppppppppppp"
};
