/* XPM */
static char *gcolor2[] = {
/* columns rows colors chars-per-pixel */
"24 24 41 1 ",
"  c #180618091809",
". c #1DE11DE41DE0",
"X c #20EE20F520F7",
"o c #222C222A222E",
"O c #242124192424",
"+ c #255F25602561",
"@ c #274A27522752",
"# c #293229362931",
"$ c #2C4A2C462C40",
"% c #2D472D482D48",
"& c #2F3F2F462F42",
"* c #30EF30E730EC",
"= c #31DA31DC31DE",
"- c #335B3366336B",
"; c #35C335C335C3",
": c #36D336D236D5",
"> c #3827381E381A",
", c #395C3960395C",
"< c #3ADE3AE33AE3",
"1 c #3C263C203C2C",
"2 c #3D8D3D893D8B",
"3 c #3F013F0E3F02",
"4 c #418A41724175",
"5 c #41E641DD41DA",
"6 c #43884394438E",
"7 c #43FA44164412",
"8 c #450445174519",
"9 c #45EA45E745E6",
"0 c #478E47974790",
"q c #48A048A048A8",
"w c #4A754A884A7C",
"e c #4BE84BE84BE8",
"r c #4D264D324D28",
"t c #4ECA4EC84ECF",
"y c #505E50615047",
"u c #526452615260",
"i c #53745376536D",
"p c #56535656563C",
"a c #57B457B45767",
"s c #586758685866",
"d c None",
/* pixels */
"dddddddddddddddddddddddd",
"dddddddddddssddddddddddd",
"ddddddddppi2>tsadddddddd",
"ddddddpiw2dddd*9ipdddddd",
"ddddiy9:dddddddd%2tidddd",
"ddtiw*ddddddddddddX5iidd",
"ddwwwtddddddddddddd9ttdd",
"ddw2#5tddddddddddtw2>wdd",
"ddwwdd:9tddddddtw9dd9wdd",
"ddw0ddd+>wwdddw9>ddd9wdd",
"dd9wddddd%5ww92ddddd99dd",
"dd59dddddd.>9*dddddd99dd",
"dd25ddddddd:5ddddddd55dd",
"dd25ddddddd>5ddddddd55dd",
"ddd5ddddddd:2ddddddd5ddd",
"ddd>2dddddd:2dddddd22ddd",
"ddd+:2ddddd:>ddddd2>*ddd",
"dddd %>dddd*>dddd2>ddddd",
"dddddd+:2dd*>dd>>*dddddd",
"ddddddd.%>d*>d>:%ddddddd",
"ddddddddd+:*::*ddddddddd",
"dddddddddd.**%dddddddddd",
"ddddddddddddXddddddddddd",
"dddddddddddddddddddddddd"
};
