/* XPM */
static char *geany[] = {
/* columns rows colors chars-per-pixel */
"24 24 32 1 ",
"  c #161A16361630",
". c #228C228C228D",
"X c #28B428D128C0",
"o c #2A372A422A31",
"O c #2E612E732E71",
"+ c #2F502F642F59",
"@ c #303E30473040",
"# c #324E324E3254",
"$ c #334E334C3345",
"% c #3526353A3538",
"& c #368D367F3673",
"* c #3710370A36FD",
"= c #37E737ED3800",
"- c #39713972396D",
"; c #3A453A443A41",
": c #3C383C383C52",
"> c #3D803D743D70",
", c #3FB43FB33FB3",
"< c #40E440D840DA",
"1 c #425342484248",
"2 c #44AA44AB44A8",
"3 c #45E045F845E6",
"4 c #47F347F547EE",
"5 c #49AA499C49B1",
"6 c #4B1B4B244B18",
"7 c #4C494C404C3A",
"8 c #4D534D624D54",
"9 c #5060506E5066",
"0 c #529952985287",
"q c #545A545E545A",
"w c #55E355EF55E1",
"e c None",
/* pixels */
"eeeeeeeeeeeeeeeeeeeeeeee",
"eeeeeeeeeeeeeeeeeeeeeeee",
"eeeeeeeeeeeeeeeeewwweeee",
"eeeeeeeeeeeeew0733eeeeee",
"eeeeeeeeeeee04*eeeeeeeee",
"eeeeeeeeeee03eeeeeeeeeee",
"eeeeeeeeee74eee7eeeeeeee",
"eeeeeeeee44eee73eeeeeeee",
"eeeeeee44eee741eeeeeeeee",
"eeeeeee1ee43:eeeeeeeeeee",
"eeeee3311;$eeeeeeeeeeeee",
"ee3::eeeeeeeeeeeeeeeeeee",
"e2;eeeeeeeeeeeeeeeeeeeee",
"e:eeeeeeeeeeeeeeeeeeeeee",
"eeeeeeeeeeeeeeeeeeeeeeee",
"eeeeeeeeee:::eeeeee::eee",
"ee;:eeeeee$;*eeee:;oX*ee",
"eee$;eeee;*;;;*;;*eee+ee",
"eeeeO;ee;***;**;*ee**$ee",
"eeeeeo**********$eeeeeee",
"eeeeee.$$*$*$*$Oeeeeeeee",
"eeeeeee .ooXoooeeeeeeeee",
"eeeeeeeeeeeeeeeeeeeeeeee",
"eeeeeeeeeeeeeeeeeeeeeeee"
};
