/* XPM */
static char *gnome_activity_journal[] = {
/* columns rows colors chars-per-pixel */
"24 24 28 1 ",
"  c #2B882B9B2B92",
". c #2CE32CE62CE3",
"X c #2DFE2E082E0B",
"o c #311E31243132",
"O c #354E35573546",
"+ c #370336FE36F8",
"@ c #38B738B938B6",
"# c #3B913B923B97",
"$ c #3CF53CF23CF0",
"% c #3E933E943E99",
"& c #411B41184114",
"* c #421E422E4230",
"= c #434A43424352",
"- c #45C445C745BC",
"; c #47B047AB47B0",
": c #48504857484F",
"> c #491849194910",
", c #4A5B4A644A59",
"< c #4C904C8E4C9D",
"1 c #4D354D3E4D4A",
"2 c #4EB54EBA4EB4",
"3 c #4F8E4F8B4F7D",
"4 c #50FA50E450F8",
"5 c #524552445241",
"6 c #530B5312530C",
"7 c #54B254BD54C6",
"8 c #566156595662",
"9 c None",
/* pixels */
"999999999999999999999999",
"999999999999999999999999",
"999999999999999999999999",
"999999999999999999999999",
"999999999999999999999999",
"999999999888558999999999",
"99999999885&99%189999999",
"999999958199999919999999",
"9999991519999&9995199999",
"9999991119991,9991119999",
"999999,,,999-,999,199999",
"99999;-,,9999%999--99999",
"99999----9999%999-999999",
"99999%&--&999999&&999999",
"999999O&&&&&99%&&%999999",
"9999999#%%%%%%%%#9999999",
"9999999#########99999999",
"999999O###O##OO999999999",
"999999OO#OOOOO9999999999",
"999999 .... 999999999999",
"999999999999999999999999",
"999999999999999999999999",
"999999999999999999999999",
"999999999999999999999999"
};
