/* XPM */
static char *google_earth[] = {
/* columns rows colors chars-per-pixel */
"24 24 44 1 ",
"  c #17361735173C",
". c #198C1987198A",
"X c #1C9C1C9F1CA0",
"o c #1D081D051D03",
"O c #217A21792182",
"+ c #22E422E322E6",
"@ c #23F6240023FE",
"# c #251A25182518",
"$ c #26AB26A926AB",
"% c #295F2962295E",
"& c #29BE29BF29C0",
"* c #2CAA2CAC2C98",
"= c #2D4A2D4E2D43",
"- c #2F5A2F5A2F44",
"; c #3101310C3102",
": c #3224321B321A",
"> c #338033803371",
", c #35D635D435D5",
"< c #3751374E3757",
"1 c #38A938A838A2",
"2 c #39E239E039E6",
"3 c #3C983C9A3C9F",
"4 c #3DC83DC53DCA",
"5 c #3F7E3F763F75",
"6 c #416441664162",
"7 c #423A42404240",
"8 c #433D43464338",
"9 c #441B4417441C",
"0 c #44E744D644E8",
"q c #45EB45E845EC",
"w c #479247934797",
"e c #489F48A048A6",
"r c #49B549B2499B",
"t c #4A204A1F4A0F",
"y c #4B984B9A4B8E",
"u c #4BE34BE14BE6",
"i c #4D134D0E4D0B",
"p c #4EC24EC34EDC",
"a c #515851525149",
"s c #527E52865278",
"d c #54AA54AB54A5",
"f c #5652564A564E",
"g c #571C57195719",
"h c None",
/* pixels */
"hhhhhhhhhhhhhhhhhhhhhhhh",
"hhhhhhhhhhhhhhhhhhhhhhhh",
"hhhhhhhhhggghhhhhhhhhhhh",
"hhhhhhssddgdgghhhhhhhhhh",
"hhhhhhh&&1pdddddhhhhhhhh",
"hhhhhhhhhh+7ssssshhhhhhh",
"hhhhhhhhhhhh3ssssshhhhhh",
"hhhhppphhhhhh1pppphhhhhh",
"hhhupuupphhhhh,ppuphhhhh",
"hhuuuuuuuuuhhhh;wpuuhhhh",
"hhuuuuuwuuwuhhhh&7uuuuhh",
"hhwwwwwuwuwwuwhhh+1wwwhh",
"hhwwwwwwwwwwwuwhhhh=3whh",
"hh7w7w787w7w77w77hhhhhhh",
"hh377w7777777777777hhhhh",
"hh;*@;377777757777777hhh",
"hhhhhh.&,377377373733hhh",
"hhhhhhhhh+&>1333331<hhhh",
"hhhhhhhhhhhh o++@+ohhhhh",
"hhhhhhhh1hhhhhhhhhhhhhhh",
"hhhhhhh;11111111,hhhhhhh",
"hhhhhhhho@=;-=&@hhhhhhhh",
"hhhhhhhhhhhhhhhhhhhhhhhh",
"hhhhhhhhhhhhhhhhhhhhhhhh"
};
