/* XPM */
static char *graveman[] = {
/* columns rows colors chars-per-pixel */
"24 24 46 1 ",
"  c #16161615160D",
". c #1BF11BEF1BEC",
"X c #1F281F251F38",
"o c #1FE51FE51FDF",
"O c #20A820A8209A",
"+ c #228322812270",
"@ c #2882287F2870",
"# c #2A3F2A3E2A2C",
"$ c #2C822C832C84",
"% c #2D682D632D5C",
"& c #2F592F552F4D",
"* c #309E3091308E",
"= c #32DF32DE32E6",
"- c #33DF33DB33CF",
"; c #34DA34D634DE",
": c #35D235CA3594",
"> c #36B336AE36A2",
", c #37AE37A63777",
"< c #37E937ED37DE",
"1 c #3917391C3914",
"2 c #39E539E539B5",
"3 c #3A6D3A653A65",
"4 c #3AF53AF83AB4",
"5 c #3B973B8F3B62",
"6 c #3CE63CE23CA8",
"7 c #3E213E1B3E29",
"8 c #3EFA3EFC3EBC",
"9 c #3FB03FB43F82",
"0 c #4168416B4167",
"q c #42AF42AA42A4",
"w c #433C43484352",
"e c #443844384436",
"r c #462F46304630",
"t c #493E493F4956",
"y c #4A5B4A604A53",
"u c #4B594B4E4B51",
"i c #4C464C434C44",
"p c #4E2C4E2E4E35",
"a c #4FAC4FA84FA6",
"s c #508350835079",
"d c #52F752F952F4",
"f c #53DA53E953E4",
"g c #559B55AD55A5",
"h c #56EE571E56FD",
"j c #582258315837",
"k c None",
/* pixels */
"kkkkkkkkkkkkkkkkkkkkkkkk",
"kkkkkkkkkjjgjjjjkkkkkkkk",
"kkkkkkkggjjjjjjjggkkkkkk",
"kkkkkggggsywwwiggggkkkkk",
"kkkksggsw%kk;ko*ygfgkkkk",
"kkkssgi5kkkkskkkk5ssskkk",
"kkkssikkkkkskkkkkk5ssskk",
"kkiiiekkkkiikkkkkkkesikk",
"kkyyykkkkkuiykkkkkk5iikk",
"kkyyekkkkyyyyyykkkkktyik",
"keyykkkke5yyyyykekkkeyek",
"kwyekkkekk#1eeekkekkeeek",
"k5eykkewkkkk;ewkkwekweek",
"kkwwkkwwwkkk1wkk5wwwwwwk",
"kkw5wk;wwwkk5kkwww1k9w9k",
"kk1wwkkw55kw5k55w1kw55kk",
"kk*55wk55;195kk;55k595kk",
"kkk;5555-#1555;X15555kkk",
"kkkk;1511;11551%1111;kkk",
"kkkk+;1111111111111;kkkk",
"kkkkkX%;11;;;1;1;;%kkkkk",
"kkkkkkko#*;;;;*%#kkkkkkk",
"kkkkkkkkk Xo+oXkkkkkkkkk",
"kkkkkkkkkkkkkkkkkkkkkkkk"
};
