/* XPM */
static char *kommander[] = {
/* columns rows colors chars-per-pixel */
"24 24 39 1 ",
"  c #0FAC0FAC0FAE",
". c #144214441444",
"X c #1B381B341B2B",
"o c #1C081C0A1C04",
"O c #1ED21ED21ED0",
"+ c #229422692294",
"@ c #247824822480",
"# c #264926562644",
"$ c #2AD62ADD2AD0",
"% c #2C942C932C8C",
"& c #2D722D762D74",
"* c #2F002EE22F02",
"= c #3220321C3221",
"- c #33F634023403",
"; c #3658365B3660",
": c #377C37803775",
"> c #383838313832",
", c #38F538FE3901",
"< c #3AC73ACC3AC6",
"1 c #3CC53CCD3CBC",
"2 c #3D4E3D553D50",
"3 c #3E7A3E703E74",
"4 c #3F5D3F613F5C",
"5 c #4044403E4046",
"6 c #432143254323",
"7 c #44A3449E449B",
"8 c #45A145A145A1",
"9 c #468E468B4691",
"0 c #482048224825",
"q c #49F049F749EE",
"w c #4C234C0D4C1D",
"e c #4E6B4E6E4E69",
"r c #50B450AE50B3",
"t c #51DC51D051D5",
"y c #52C452C252C3",
"u c #54B854BA54AF",
"i c #54FE54FD54F4",
"p c #57FD57FE57FE",
"a c None",
/* pixels */
"aaaaaaaaaaaaaaaaaaaaaaaa",
"aaaaaaaaaaaaaaaaaaaaaaaa",
"aaaaaaaaaaaapaaaaaaaaaaa",
"aaaaaaaaaaapppaaaaaaaaaa",
"aaaaaaaaaauuiiaaaaaaaaaa",
"aaaaattttttttttittiaaaaa",
"aaaaawttttttttttttwaaaaa",
"aaaaa4wwwwrwwtwwtwwaaaaa",
"aaaaa9wwww4$@-qqwwwaaaaa",
"aaaaaqqqq6aaaa%qq9qaaaaa",
"aaaqq9999aaaaaa49qq9qaaa",
"aaa699999aaaaaa669999aaa",
"aaa<49669aaaaaa666644aaa",
"aaaao<4646aaaaa4644%aaaa",
"aaaaa=44444aa<44444aaaaa",
"aaaaaa<44<4<44<44<<aaaaa",
"aaaaa<<<4<<<<<<<<<<aaaaa",
"aaaaa=<---<--<<---<aaaaa",
"aaaaaa+o o%<:-@. +aaaaaa",
"aaaaaaaaaaX=-*aaaaaaaaaa",
"aaaaaaaaaaa@@aaaaaaaaaaa",
"aaaaaaaaaaaaaaaaaaaaaaaa",
"aaaaaaaaaaaaaaaaaaaaaaaa",
"aaaaaaaaaaaaaaaaaaaaaaaa"
};
