/* XPM */
static char *kxsldbg[] = {
/* columns rows colors chars-per-pixel */
"24 24 36 1 ",
"  c #1BA81BAB1BB0",
". c #20D020C320D3",
"X c #26522648265A",
"o c #2731273A273D",
"O c #2D8E2DB82DB8",
"+ c #2FAC2F7C2FAC",
"@ c #2FFB2FF52FFA",
"# c #319031913197",
"$ c #31B131B031B4",
"% c #34B234B134B1",
"& c #354B3548354C",
"* c #37EC37EC37F3",
"= c #3B1A3B1D3B1A",
"- c #3C393C3A3C36",
"; c #3E563E523E4E",
": c #3F1A3F183F16",
"> c #40384034403A",
", c #4197416A4180",
"< c #422242264220",
"1 c #43FF43E443FA",
"2 c #45234506451A",
"3 c #4698465B468B",
"4 c #486448604868",
"5 c #494449514942",
"6 c #49DA49D949DB",
"7 c #4BB34BBF4BCC",
"8 c #4C544C544C5C",
"9 c #4E524E5B4E52",
"0 c #4F8C4F924F8A",
"q c #517D5171516F",
"w c #532953275324",
"e c #552A55205524",
"r c #561B560B5622",
"t c #570556E8571C",
"y c #5908590C5938",
"u c None",
/* pixels */
"uuuuuuuuuuuuuuuuuuuuuuuu",
"uuuuuuuuuuuuuuuuuuuuuuuu",
"uuuuuuuuuuuuuuuuuuuuuuuu",
"uuuuuuuuyyuuuuuuuuuuuuuu",
"uuuuuuueeeeuuuuuuuuuuuuu",
"uuuuwwweewwwwwuuuuuuuuuu",
"uuuuu8w888w8w8uuuuuuuuuu",
"uuuu5885&o&558uuuuuuuuuu",
"uuu5555uuuu<555uuuuuuuuu",
"uuu2222uuuuu222<uuuuuuuu",
"uuuO><2uuuu<<<;uuuuuuuuu",
"uuuu&<;;uu;;;;uuuuuuuuuu",
"uuuuu;*;;;*;;;uuuuuuuuuu",
"uuuu&*&*&***&&uuuuuuuuuu",
"uuuuuou.@*@. uuuueeuuuuu",
"uuuuuuuuoOuuuuwwwweweuuu",
"uuuuuuuuuuuuuu5w855w8uuu",
"uuuuuuuuuuuuuu552uu255uu",
"uuuuuuuuuuuuu<21uuu<22uu",
"uuuuuuuuuuuuuu;<<uu;<*uu",
"uuuuuuuuuuuuuu*;*;-;;uuu",
"uuuuuuuuuuuuuu@@@*&@@uuu",
"uuuuuuuuuuuuuuuuu+Ouuuuu",
"uuuuuuuuuuuuuuuuuuuuuuuu"
};
