/* XPM */
static char *opera[] = {
/* columns rows colors chars-per-pixel */
"24 24 33 1 ",
"  c #142614191417",
". c #180617F117F7",
"X c #198A197D197E",
"o c #1ECE1EBD1EB8",
"O c #209C2090209A",
"+ c #2837280D281F",
"@ c #2D062CE22CFA",
"# c #2F942F8C2F90",
"$ c #313C31323134",
"% c #33D433C433CB",
"& c #34D534A534C1",
"* c #381638133815",
"= c #3A813A673A6C",
"- c #3B893B8C3B81",
"; c #3DF23DF03DF3",
": c #3FDE3FDE3FDB",
"> c #4128412B412D",
", c #41C841C741C7",
"< c #437C4375437C",
"1 c #4546454B4545",
"2 c #4738472E472E",
"3 c #48984889488C",
"4 c #49664970497B",
"5 c #4A984A9D4A97",
"6 c #4CB74CB74C9F",
"7 c #4D604D604D54",
"8 c #4E814E854E7E",
"9 c #4F1C4F1D4F28",
"0 c #50A6509A50B0",
"q c #534C534F534C",
"w c #55FB56125607",
"e c #5742573B573E",
"r c None",
/* pixels */
"rrrrrrrrrrrrrrrrrrrrrrrr",
"rrrrrrrrrrrrrrrrrrrrrrrr",
"rrrrrrrrrrrrrrrrrrrrrrrr",
"rrrrrrrrreeeeeeqrrrrrrrr",
"rrrrrrrqqq4&$2qqqrrrrrrr",
"rrrrrrqqq0rrrr4qq0rrrrrr",
"rrrrr00007rrrr-7000rrrrr",
"rrrr77070rrrrrr70707rrrr",
"rrrr67767rrrrrr47777rrrr",
"rrrr47474rrrrrr24744rrrr",
"rrr244444rrrrrr224444rrr",
"rrr222222rrrrrr:42242rrr",
"rrr:22222rrrrrr:42222rrr",
"rrr;:22:2rrrrrr::2:::rrr",
"rrrr::::;rrrrrr:::::rrrr",
"rrrr;::::rrrrrr;::::rrrr",
"rrrr$;:;;rrrrrr;;;;-rrrr",
"rrrrr&;---rrrrr----rrrrr",
"rrrrro$---rrrr----rrrrrr",
"rrrrrrX#-&-&-&&-$rrrrrrr",
"rrrrrrrrO#$&&$#+rrrrrrrr",
"rrrrrrrrrr XXXrrrrrrrrrr",
"rrrrrrrrrrrrrrrrrrrrrrrr",
"rrrrrrrrrrrrrrrrrrrrrrrr"
};
