/* XPM */
static char *picasa[] = {
/* columns rows colors chars-per-pixel */
"24 24 43 1 ",
"  c #161916091608",
". c #17B817A417A5",
"X c #1E8C1E971E88",
"o c #2451244F2451",
"O c #270F26E626E8",
"+ c #285228482848",
"@ c #2A872A7A2A82",
"# c #2D4F2D1D2D1F",
"$ c #2EDE2EDE2EDE",
"% c #309F30943093",
"& c #31E731B831B6",
"* c #332A33223320",
"= c #357D35743593",
"- c #3673366E3667",
"; c #36D636BC36D4",
": c #385438553852",
"> c #39773979396F",
", c #3AF03AEB3AF0",
"< c #3BB03BB13BD1",
"1 c #3CBA3CBC3CF6",
"2 c #3D4E3D4A3D4B",
"3 c #3F2F3F0A3F31",
"4 c #3FE43FC43FF3",
"5 c #41AE419B41AD",
"6 c #420E421A421A",
"7 c #42FC42FE42F9",
"8 c #44874487447F",
"9 c #454D45424550",
"0 c #467A467D4678",
"q c #4827482B482B",
"w c #49F649E649F4",
"e c #4B184B1E4B14",
"r c #4C4B4C4B4C46",
"t c #4E2F4E324E2F",
"y c #4F744F674F86",
"u c #519A51965196",
"i c #52C052C452BF",
"p c #5397539E5395",
"a c #553A553B553E",
"s c #5688568E568B",
"d c #57AA57AB57AD",
"f c #57EA57EB57EB",
"g c None",
/* pixels */
"gggggggggggggggggggggggg",
"ggggggggggffffgggggggggg",
"ggggggggguffffffgggggggg",
"gggggpdpg%rpfppdgugggggg",
"gggguppppg@wppppgrppgggg",
"gggguuuuuugoqpuugruugggg",
"ggguuuururrgg7urgrruyggg",
"ggrrrrrur0gggg2ygwrurrgg",
"ggwrrrrr7gggggg2g0rrrrgg",
"ggrwwww2ggggggggg0wwwwgg",
"ggw00q<gggggggggg70ww0gg",
"gg007gggggggggggg70000gg",
"gg07ggggggggggggg40700gg",
"gg2gg77gggggggggg27777gg",
"gggg777gggggggggg<7222gg",
"ggg2222gggggggggggXXXggg",
"gg*222<gg,<<<<,2gg**gggg",
"ggg*2,,g,,,,,,,,,,,,2ggg",
"gggg*,,g,,,2,,,2,,*,gggg",
"ggggX%*g*,***:***,*ggggg",
"gggggggg***:****%$gggggg",
"gggggggg@$%**%$@gggggggg",
"gggggggggg....gggggggggg",
"gggggggggggggggggggggggg"
};
