/* XPM */
static char *python[] = {
/* columns rows colors chars-per-pixel */
"24 24 38 1 ",
"  c #2C332C2F2C20",
". c #2E162E102E12",
"X c #2F212F222F35",
"o c #304630493050",
"O c #3230322B3226",
"+ c #33F6340033F8",
"@ c #35B335C235C4",
"# c #36DE36DA36BA",
"$ c #3823381E3815",
"% c #3970396C3968",
"& c #3A833A663A6A",
"* c #3BAA3B9C3B92",
"= c #3CD13CBE3CBA",
"- c #3D6F3D653D6C",
"; c #3F6B3F6D3F7D",
": c #2A8B404148CD",
"> c #27C443F54E4D",
", c #3283438C49C6",
"< c #2D9647CC5175",
"1 c #400540064028",
"2 c #428642A042A9",
"3 c #445C44624462",
"4 c #44BC44F044F2",
"5 c #478E47CA47CA",
"6 c #49514969497C",
"7 c #49EB499D497C",
"8 c #49C049D849E2",
"9 c #4B8B4B8C4B8E",
"0 c #48C84C834E0B",
"q c #4C984C9A4CA1",
"w c #4CCF4CE64CF3",
"e c #4EB34EB44EB4",
"r c #46F45327579E",
"t c #5080507C507F",
"y c #5186518C5188",
"u c #539F53A1539F",
"i c #5785577C5776",
"p c None",
/* pixels */
"pppppppppppppppppppppppp",
"pppppppppppppppppppppppp",
"pppppppppppppppppppppppp",
"pppppppppppppppppppppppp",
"pppppppppppppppppppppppp",
"pppppppppppppppppppppppp",
"pppiiuueuuueeuuppppppppp",
"pppue9eueueu9pp99upppppp",
"ppeeeee995e950rppp96pppp",
"pp995pppp99pp:<>,pp59ppp",
"ppppppppp55ppppppppp;3pp",
"pp5pppppp252ppppppppp;pp",
"p2;2;pppp&;;22pppppppp2p",
"p&;;;;pppp@&@@&&pppppp&p",
"p&@&@&&@p&&@pppO+@@@@@@p",
"pO@@@@@@+OppppppppXOOOpp",
"pOOOOOOXpppppppppppppppp",
"pXXXpppppppppppppppppppp",
"pppppppppppppppppppppppp",
"pppppppppppppppppppppppp",
"pppppppppppppppppppppppp",
"pppppppppppppppppppppppp",
"pppppppppppppppppppppppp",
"pppppppppppppppppppppppp"
};
