/* XPM */
static char *terminal[] = {
/* columns rows colors chars-per-pixel */
"24 24 35 1 ",
"  c #1B1A1B1D1B1A",
". c #1D211D1E1D28",
"X c #1E371E321E37",
"o c #1FA91FAF1FB2",
"O c #2452244E2457",
"+ c #27D727CF27CE",
"@ c #29B829B329B2",
"# c #2F3B2F3C2F35",
"$ c #32BF32BF32CE",
"% c #34743475343E",
"& c #365B3659365A",
"* c #37133703371C",
"= c #381C37F4381A",
"- c #39BF399939C4",
"; c #3A223A113A15",
": c #3C0A3C243C03",
"> c #3CE93CBC3CEA",
", c #3D8E3D6B3D90",
"< c #3E983E9D3EA7",
"1 c #3FCE3FBC3FD6",
"2 c #40A840A840A7",
"3 c #41E641F041E4",
"4 c #43414369433C",
"5 c #43B843BE43C6",
"6 c #45624561456E",
"7 c #477A477A47A8",
"8 c #48E648F848E9",
"9 c #4A104A1A4A0D",
"0 c #4BB54BAE4BB4",
"q c #4E8C4E934E8B",
"w c #50D250D850D2",
"e c #52A652A952A7",
"r c #553F55375536",
"t c #56FD57035703",
"y c None",
/* pixels */
"yyyyyyyyyyyyyyyyyyyyyyyy",
"yyyyyyyyyyyyyyyyyyyyyyyy",
"yyyyyyyyyyyyyyyyyyyyyyyy",
"yyyyyyyyyyyyyyyyyyyyyyyy",
"yyrrrrrerrrrrrrrrrrrtryy",
"yqr6@@+@+++@@++++@++6ryy",
"y0eyyyyyyyyyyyyyyyyy2eyy",
"y9eyyeeyyyyyyyyyyyyy6qyy",
"y9qyy&>9qqyyyyyyyyyy6qyy",
"y69yyyy#99yyyyyyyyyy29yy",
"y69yy9962;yyyyyyyyyy29yy",
"y29yy>$@yyyyyyyyyyyy27yy",
"y26yyyyyyyyyyyyyyyyy>6yy",
"y>6yyyyyyyyyyyyyyyyy>2yy",
"y>2yyyyyyyyyyyyyyyyy;2yy",
"y;2yyyyyyyyyyyyyyyyy&1yy",
"y;>yyyyyyyyyy;;;;>>y&>yy",
"y&;yyyyyyyyyyy   .yy$;yy",
"y&&;yyyyyyyyyyyyyyyy&;yy",
"y#&&&&;&&&&&&&&&&&&&&&yy",
"yy.ooooooooooooooooo.+yy",
"yyyyyyyyyyyyyyyyyyyyyyyy",
"yyyyyyyyyyyyyyyyyyyyyyyy",
"yyyyyyyyyyyyyyyyyyyyyyyy"
};
