/* XPM */
static char *uextras[] = {
/* columns rows colors chars-per-pixel */
"24 24 34 1 ",
"  c #1FCF1FD51FE1",
". c #2265225A2262",
"X c #23EF23E823F0",
"o c #26B826BA26C2",
"O c #2B702B5C2B6E",
"+ c #2CF82D082D04",
"@ c #2F1C2F392F1C",
"# c #313A31283147",
"$ c #32393242324C",
"% c #346734563475",
"& c #37F637FB37FA",
"* c #38C038BA38C0",
"= c #39EB39F03A08",
"- c #3B0A3B083B0F",
"; c #3C963C903C8A",
": c #3E5E3E633E67",
"> c #4048404D405B",
", c #41C541C5419A",
"< c #430043014306",
"1 c #4400440043DD",
"2 c #44F844FD44E8",
"3 c #460946034631",
"4 c #480D4809480B",
"5 c #49B449AE499C",
"6 c #4A3A4A284A1C",
"7 c #4B9C4B984BA1",
"8 c #4C4B4C104C48",
"9 c #4D844D4D4D87",
"0 c #4F454EFB4F44",
"q c #510450F65103",
"w c #52D152CE52CE",
"e c #54EA54EF54E8",
"r c #568F56965693",
"t c None",
/* pixels */
"tttttttttttttttttttttttt",
"tttttttttttttttttttttttt",
"tttttttttttttttttttttttt",
"ttttreeetttttttreetttttt",
"tttteeeetttttttewetttttt",
"ttttwwwetttttttewwtttttt",
"ttttwwwwtttttttwwwtttttt",
"tttt999tttttttt900tttttt",
"tttt999ttt9eett999tttttt",
"tttt7696ttt9ret967tttttt",
"tttt6666wwtwwwt666tttttt",
"tttt446tt9999tt646tttttt",
"tttt222ttt1797t222tttttt",
"tttt2222ttt=26t212tttttt",
"tttt>2>>ttttt221>2tttttt",
"tttt:>>>ttttt=12>>tttttt",
"ttttt:::tttttt=>>:tttttt",
"ttttt=:::ttttt#=::tttttt",
"ttttto&===:==:=@==:ttttt",
"tttttt #&=====&OX==ttttt",
"tttttttt.oOOOo.tt#&#tttt",
"ttttttttttttttttttO@tttt",
"tttttttttttttttttttttttt",
"tttttttttttttttttttttttt"
};
