/* XPM */
static char *varicadview[] = {
/* columns rows colors chars-per-pixel */
"24 24 37 1 ",
"  c #15F015EA15EE",
". c #17731782176C",
"X c #1A8E1A921A9E",
"o c #1EFA1EFA1EFB",
"O c #210020FF20FD",
"+ c #255F2569255E",
"@ c #27D127D927D5",
"# c #299029952996",
"$ c #2C492C502C49",
"% c #2DB82DBC2DA6",
"& c #2E4B2E562E51",
"* c #30AA30A03094",
"= c #32B632B832B6",
"- c #33E633E533E7",
"; c #3592358D3587",
": c #36EE36F336F2",
"> c #383F38383833",
", c #39853989399C",
"< c #3A383A3F3A44",
"1 c #3C603C5B3C54",
"2 c #3DB03DB03DA1",
"3 c #3F823F783F86",
"4 c #41884185418F",
"5 c #436A436D436C",
"6 c #44F6450144FD",
"7 c #45F045F345F7",
"8 c #47B047B147B2",
"9 c #49814981497B",
"0 c #4A5B4A404A50",
"q c #4C3C4C664C44",
"w c #4DFF4E074E02",
"e c #4F1E4F0C4F11",
"r c #515E51695166",
"t c #5323531C5313",
"y c #5434542C5414",
"u c #554555455540",
"i c None",
/* pixels */
"iiiiiiiiiiiiiiiiiiiiiiii",
"iiiiiiiiiiiiiiiiiiiiiiii",
"iiiiiiiiiiiuuiiiiiiiiiii",
"iiiiiiiiiit9wuiiiiiiiiii",
"iiiiiiiiiiwwwtiiiiiiiiii",
"iiiiiiiiiiwtttiiiiiiiiii",
"iiiiiiiiiiwtwwiiiiiiiiii",
"iiiiiiiiiiwwwwiiiiiiiiii",
"iiiiiiiiiiqwwwiiiiiiiiii",
"iiiiiiiiii9999iiiiiiiiii",
"iiiiiiiiii9999iiiiiiiiii",
"iiiiiiiii559995iiiiiiiii",
"iiiiiiiii55;;55iiiiiiiii",
"iiiiiiii55>ii-55iiiiiiii",
"iiiiiii5553ii>555iiiiiii",
"iiiii335333ii33353iiiiii",
"iiii3333>33533333>3>iiii",
"iii>313>33;$$>13>3333iii",
"ii;->3>>;$iiiX#;>>1>-;ii",
"ii$+>;-+iiiiiii @->>+-ii",
"ii--$Oiiiiiiiiiiiio$-;ii",
"iiiiiiiiiiiiiiiiiiii iii",
"iiiiiiiiiiiiiiiiiiiiiiii",
"iiiiiiiiiiiiiiiiiiiiiiii"
};
