/* XPM */
static char *xfce4_mcs_manager[] = {
/* columns rows colors chars-per-pixel */
"24 24 37 1 ",
"  c #148D14981497",
". c #15F615FA15F9",
"X c #17AA17B417B3",
"o c #26EB26EC26E6",
"O c #2A602A5E2A5D",
"+ c #2B7C2B782B7D",
"@ c #2CD62CCD2CD7",
"# c #2E402E342E38",
"$ c #2F5C2F562F60",
"% c #2FF62FF32FF3",
"& c #321E322A3229",
"* c #337D337B3384",
"= c #362F362C3631",
"- c #36FC36FE36F7",
"; c #391C39223916",
": c #3B5B3B603B5F",
"> c #3CB63CB83CB6",
", c #3E4B3E503E46",
"< c #3F663F643F68",
"1 c #3FF03FE83FEE",
"2 c #411E41334126",
"3 c #421F421B421D",
"4 c #4386437E4386",
"5 c #449644984498",
"6 c #458245844586",
"7 c #46D446E546DD",
"8 c #486348714873",
"9 c #4978495D495D",
"0 c #4B0E4B0D4B02",
"q c #4BDE4BDE4BE2",
"w c #4E544E534E79",
"e c #4F014F014F0A",
"r c #4FF34FF3503A",
"t c #50F950FE5114",
"y c #525C526B5253",
"u c #53ED53F053DD",
"i c None",
/* pixels */
"iiiiiiiiiiiiiiiiiiiiiiii",
"iiiiiiiiiiiiiiiiiiiiiiii",
"iiiiiiiiiiiiiiiiiiiiiiii",
"iiiiiiiiiiiiiiiiiiiiiiii",
"iiiiuuuiiiiyuiiiiyuuiiii",
"iiiiyuyiiiiyuyiiiyyyiiii",
"iiiiyywiiywyryyiiyyyiiii",
"iiiiwwwiiw>&&:wwiwwwiiii",
"iiii0wwii0iiio00i0wwiiii",
"iiii000ii0w00000i000iiii",
"iiii080ii+=0w>#ii000iiii",
"iii7777iii&772iii777iiii",
"ii7>-==27ii774iii777iiii",
"ii7=iii:2ii422ii27242iii",
"ii2242222ii22>i>>&&&>2ii",
"ii##>2>&iii222i>:iii#2ii",
"iiii:>>iii=>2>i:>>>2:>ii",
"iiii::>iii&>::ii+::>#&ii",
"iiii:::iii&:::iii#>:iiii",
"iiii&==iiii&==iii&&=iiii",
"iiiii.iiiii.Xiiiii.iiiii",
"iiiiiiiiiiiiiiiiiiiiiiii",
"iiiiiiiiiiiiiiiiiiiiiiii",
"iiiiiiiiiiiiiiiiiiiiiiii"
};
