/* XPM */
static char *bluefish[] = {
/* columns rows colors chars-per-pixel */
"128 128 57 1 ",
"  c #030703070307",
". c #211C211C211C",
"X c #389138913891",
"o c #51CF51CF51CF",
"O c #645364536453",
"+ c #7A6E7A6E7A6E",
"@ c #839581558155",
"# c #8A2A8A2A8A2A",
"$ c #9E569E569E56",
"% c #AC84AC84AC84",
"& c #B78AB78AB78A",
"* c #C3EFC3EFC3EF",
"= c #CC4ACC4ACC4A",
"- c #D39FD39FD39F",
"; c #DADEDADEDADE",
": c #DED9DE15DED9",
"> c #E1C0E1C0E1C0",
", c #E776E776E6E1",
"< c #E8BBE898E901",
"1 c #EB37EB37EB37",
"2 c #ECE0ECEEECDD",
"3 c #EE71EE71EEDD",
"4 c #F076F013F013",
"5 c #F013F076F013",
"6 c #F076F076F013",
"7 c #F013F013F076",
"8 c #F076F013F076",
"9 c #F013F076F076",
"0 c #F1EDF1EDF1ED",
"q c #F31FF315F30B",
"w c #F47FF47FF47F",
"e c #F59EF558F558",
"r c #F558F59EF558",
"t c #F59EF59EF558",
"y c #F558F558F59E",
"u c #F59EF558F59E",
"i c #F6A4F6A4F6A4",
"p c #F794F75AF75A",
"a c #F75AF794F75A",
"s c #F794F794F75A",
"d c #F75AF75AF794",
"f c #F794F75AF794",
"g c #F75AF794F794",
"h c #F86FF86FF86F",
"j c #F91EF921F918",
"k c #F9C1F9C1F9C1",
"l c #FA94FA6CFA6C",
"z c #FA6CFA94FA6C",
"x c #FA94FA94FA6C",
"c c #FA6CFA6CFA94",
"v c #FA94FA6CFA94",
"b c #FA6CFA94FA94",
"n c #FB08FB08FB08",
"m c #FC01FC01FC00",
"M c #FCDFFCE0FCE0",
"N c #FDEDFDEDFDED",
"B c None",
/* pixels */
"BBBBBBBBBBBBBBBBBBBBBBBBBBBBBBBBBBBBBBBBBBBBBBBBBBBBBBBBBBBBBBBBBBBBBBBBBBBBBBBBBBBBBBBBBBBBBBBBBBBBBBBBBBBBBBBBBBBBBBBBBBBBBBBB",
"BBBBBBBBBBBBBBBBBBBBBBBBBBBBBBBBBBBBBBBBBBBBBBBBBBBBBBBBBBBBBBBBBBBBBBBBBBBBBBBBBBBBBBBBBBBBBBBBBBBBBBBBBBBBBBBBBBBBBBBBBBBBBBBB",
"BBBBBBBBBBBBBBBBBBBBBBBBBBBBBBBBBBBBBBBBBBBBBBBBBBBBBBBBBBBBBBBBBBBBBBBBBBBBBBBBBBBBBBBBBBBBBBBBBBBBBBBBBBBBBBBBBBBBBBBBBBBBBBBB",
"BBBBBBBBBBBBBBBBBBBBBBBBBBBBBBBBBBBBBBBBBBBBBBBBBBBBBBBBBBBBBBBBBBBBBBBBBBBBBBBBBBBBBBBBBBBBBBBBBBBBBBBBBBBBBBBBBBBBBBBBBBBBBBBB",
"BBBBBBBBBBBBBBBBBBBBBBBBBBBBBBBBBBBBBBBBBBBBBBBBBBBBBBBBBBBBBBBBBBBBBBBBBBBBBBBBBBBBBBBBBBBBBBBBBBBBBBBBBBBBBBBBBBBBBBBBBBBBBBBB",
"BBBBBBBBBBBBBBBBBBBBBBBBBBBBBBBBBBBBBBBBBBBBBBBBBBBBBBBBBBBBBBBBBBBBBBBBBBBBBBBBBBBBBBBBBBBBBBBBBBBBBBBBBBBBBBBBBBBBBBBBBBBBBBBB",
"BBBBBBBBBBBBBBBBBBBBBBBBBBBBBBBBBBBBBBBBBBBBBBBBBBBBBBBBBBBBBBBBBBBBBBBBBBBBBBBBBBBBBBBBBBBBBBBBBBBBBBBBBBBBBBBBBBBBBBBBBBBBBBBB",
"BBBBBBBBBBBBBBBBBBBBBBBBBBBBBBBBBBBBBBBBBBBBBBBBBBBBBBBBBBBBBBBBBBBBBBBBBBBBBBBBBBBBBBBBBBBBBBBBBBBBBBBBBBBBBBBBBBBBBBBBBBBBBBBB",
"BBBBBBBBBBBBBBBBBBBBBBBBBBBBBBBBBBBBBBBBBBBBBBBBBBBBBBBBBBBBBBBBBBBBBBBBBBBBBBBBBBBBBBBBBBBBBBBBBBBBBBBBBBBBBBBBBBBBBBBBBBBBBBBB",
"BBBBBBBBBBBBBBBBBBBBBBBBBBBBBBBBBBBBBBBBBBBBBBBBBBBBBBBBBBBBBBBBBBBBBBBBBBBBBBBBBBBBBBBBBBBBBBBBBBBBBBBBBBBBBBBBBBBBBBBBBBBBBBBB",
"BBBBBBBBBBBBBBBBBBBBBBBBBBBBBBBBBBBBBBBBBBBBBBBBBBBBBBBBBBBBBBBBBBBBBBBBBBBBBBBBBBBBBBBBBBBBBBBBBBBBBBBBBBBBBBBBBBBBBBBBBBBBBBBB",
"BBBBBBBBBBBBBBBBBBBBBBBBBBBBBBBBBBBBBBBBBBBBBBBBBBBBBBBBBBBBBBBBBBBBBBBBBBBBBBBBBBBBBBBBBBBBBBBBBBBBBBBBBBBBBBBBBBBBBBBBBBBBBBBB",
"BBBBBBBBBBBBBBBBBBBBBBBBBBBBBBBBBBBBBBBBBBBBBBBBBBBBBBBBBBBBBBBBBBBBBBBBBBBBBBBBBBBBBBBBBBBBBBBBBBBBBBBBBBBBBBBBBBBBBBBBBBBBBBBB",
"BBBBBBBBBBBBBBBBBBBBBBBBBBBBBBBBBBBBBBBBBBBBBBBBBBBBBBBBBBBBBBBBBBBBBBBBBBBBBBBBBBBBBBBBBBBBBBBBBBBBBBBBBBBBBBBBBBBBBBBBBBBBBBBB",
"BBBBBBBBBBBBBBBBBBBBBBBBBBBBBBBBBBBBBBBBBBBBBBBBBBBBBBBBBBBBBBBBBBBBBBBBBBBBBBBBBBBBBBBBBBBBBBBBBBBBBBBBBBBBBBBBBBBBBBBBBBBBBBBB",
"BBBBBBBBBBBBBBBBBBBBBBBBBBBBBBBBBBBBBBBBBBBBBBBBBBBBBBBBBBBBBBBBBBBBBBBBBBBBBBBBBBBBBBBBBBBBBBBBBBBBBBBBBBBBBBBBBBBBBBBBBBBBBBBB",
"BBBBBBBBBBBBBBBBBBBBBBBBBBBBBBBBBBBBBBBBBBBBBBBBBBBBBBBBBBBBBBBBBBBBBBBBBBBBBBBBBBBBBBBBBBBBBBBBBBBBBBBBBBBBBBBBBBBBBBBBBBBBBBBB",
"BBBBBBBBBBBBBBBBBBBBBBBBBBBBBBBBBBBBBBBBBBBBBBBBBBBBBBBBBBBBBBBBBBBBBBBBBBBBBBBBBBBBBBBBBBBBBBBBBBBBBBBBBBBBBBBBBBBBBBBBBBBBBBBB",
"BBBBBBBBBBBBBBBBBBBBBBBBBBBBBBBBBBBBBBBBBBBBBBBBBBBBBBBBBBBBBBBBBBBBBBBBBBBBBBBBBBBBBBBBBBBBBBBBBBBBBBBBBBBBBBBBBBBBBBBBBBBBBBBB",
"BBBBBBBBBBBBBBBBBBBBBBBBBBBBBBBBBBBBBBBBBBBBBBBBBBBBBBBBBBBBBBBBBBBBBBBBBBBBBBBBBBBBBBBBBBBBBBBBBBBBBBBBBBBBBBBBBBBBBBBBBBBBBBBB",
"BBBBBBBBBBBBBBBBBBBBBBBBBBBBBBBBBBBBBBBBBBBBBBBBBBBBBBBBBBBBBBBBBBBBBBBBBBBBBBBBBBBBBBBBBBBBBBBBBBBBBBBBBBBBBBBBBBBBBBBBBBBBBBBB",
"BBBBBBBBBBBBBBBBBBBBBBBBBBBBBBBBBBBBBBBBBBBBBBBBBBBBBBBBBBBBBBBBBBBBBBBBBBBBBBBBBBBBBBBBBBBBBBBBBBBBBBBBBBBBBBBBBBBBBBBBBBBBBBBB",
"BBBBBBBBBBBBBBBBBBBBBBBBBBBBBBBBBBBBBBBBBBBBBBBBBBBBBBBBBBBBBBBBBBBBBBBBBBBBBBBBBBBBBBBBBBBBBBBBBBBBBBBBBBBBBBBBBBBBBBBBBBBBBBBB",
"BBBBBBBBBBBBBBBBBBBBBBBBBBBBBBBBBBBBBBBBBBBBBBBBBBBBBBBBBBBBBBBBBBBBBBBBBBBBBBBBBBBBBBBBBBBBBBBBBBBBBBBBBBBBBBBBBBBBBBBBBBBBBBBB",
"BBBBBBBBBBBBBBBBBBBBBBBBBBBBBBBBBBBBBBBBBBBBBBBBBBBBBBBBBBBBBBBBBBBBBBBBBBBMMMMMMMMMMMMMMMMMMMMMMMMMMBBBBBBBBBBBBBBBBBBBBBBBBBBB",
"BBBBBBBBBBBBBBBBBBBBBBBBBBBBBBBBBBBBBBBBBBBBBBBBBBBBBBBBBBBBBBBBBBBBBMMMMMMMMMMMMMMMMMMMMMMMMMMMMMMMMMBBBBBBBBBBBBBBBBBBBBBBBBBB",
"BBBBBBBBBBBBBBBBBBBBBBBBBBBBBBBBBBBBBBBBBBBBBBBBBBBBBBBBBBBBBBBBBMMMMMMMMMMMMMMMMMMMMMMMMMMMMMMMMMMMMMMBBBBBBBBBBBBBBBBBBBBBBBBB",
"BBBBBBBBBBBBBBBBBBBBBBBBBBBBBBBBBBBBBBBBBBBBBBBBBBBBBBBBBBBBBBMMMMMMMMMMMMMMMMMMMMMMMMMMMMMMMMMMMMMMMMMMBBBBBBBBBBBBBBBBBBBBBBBB",
"BBBBBBBBBBBBBBBBBBBBBBBBBBBBBBBBBBBBBBBBBBBBBBBBBBBBBBBBBBBMMMMMMMMMMMMMMMMMMMMMMMMMMMMMMMMMMMMMMMMMMMMMMBBBBBBBBBBBBBBBBBBBBBBB",
"BBBBBBBBBBBBBBBBBBBBBBBBBBBBBBBBBBBBBBBBBBBBBBBBBBBBBBBBMMMMMMMMMMMMMMMMMMMMMMMMMMMMMMMMMMMMMMMMMMMMMMMMMBBBBBBBBBBBBBBBBBBBBBBB",
"BBBBBBBBBBBBBBBBBBBBBBBBBBBBBBBBBBBBBBBBBBBBBBBBBBBBBBMMMMMMMMMMMMMMMMMMMMMMMMMMMMMMMMMMMMMMMMMMMMMMMMMMMMBBBBBBBBBBBBBBBBBBBBBB",
"BBBBBBBBBBBBBBBBBBBBBBBBBBBBBBBBBBBBBBBBBBBBBBBBBBBBMMMMMMMMMMMMMMMMMMMMMMMMMMMMMMMMMMMMMMMMMMMMMMMMMMMMMMBBBBBBBBBBBBBBBBBBBBBB",
"BBBBBBBBBBBBBBBBBBBBBBBBBBBBBBBBBBBBBBBBBBBBBBBBBBMMMMMMMMMMMMMMMMMMMMMMMMMMMMMMMMMMMMMMMMMMMMMMMMMMMMMMMMMBBBBBBBBBBBBBBBBBBBBB",
"BBBBBBBBBBBBBBBBBBBBBBBBBBBBBBBBBBBBBBBBBBBBBBBBMMMMMMMMMMMMMMMMMMMMMMMMMMMMMMMMMMMMMMMMMMMMMMMMMMMMMMMMMMMBBBBBBBBBBBBBBBBBBBBB",
"BBBBBBBBBBBBBBBBBBBBBBBBBBBBBBBBBBBBBBBBBBBBBBMMMMMMMMMMMMMMMMMMMMMMMMMMMMMMMMMMMMMMMMMMMMMMMMMMMMMMMMMMMMMBBBBBBBBBBBBBBBBBBBBB",
"BBBBBBBBBBBBBBBBBBBBBBBBBBBBBBBBBBBBBBBBBBBBBMMMMMMMMMMMMMMMMMMMMMMMMMMMMMMMMMMMMMMMMMMMMMMMMMMMMMMMMMMMMMMBBBBBBBBBBBBBBBBBBBBB",
"BBBBBBBBBBBBBBBBBBBBBBBBBBBBBBBBBBBBBBBBBBBMMMMMMMMMMMMMMMMMMMMMMMMMMMMMMMMMMMMMMMMMMMMMMMMMMMMMMMMMMMMMMMMBBBBBBBBBBBBBBBBBBBBB",
"BBBBBBBBBBBBBBBBBBBBBBBBBBBBBBBBBBBBBBBBBBMMMMMMMMMMMMMMMMMMMMMMMMMMMMMMMMMMMMMMMMMMMMMMMMMMMMMMMMMMMMMMMMkBBBBBBBBBBBBBBBBBBBBB",
"BBBBBBBBBBBBBBBBBBBBBBBBBBBBBBBBBBBBBBBBBMMMMMMMMMMMMMMMMMMMMMMMMMMMMMMMMMMMMMMMMMMMMMMMMMMMMMMMMMMMMMMMMMBBBBBBBBBBBBBBBBBBBBBB",
"BBBBBBBBBBBBBBBBBBBBBBBBBBBBBBBBBBBBBBBmMMMMMMMMMMMMMMMMMMMMMMMMMMMMMMMMMMMMMMMMMMMMMMMMMMMMMMMMMMMMMMMMMkBBBBBBBBBBBBBBBBBBBBBB",
"BBBBBBBBBBBBBBBBBBBBBBBBBBBBBBBBBBBBBBMMMMMMMMMMMMMMMMMMMMMMMMMMMMMMMMMMMMMMMMMMMMMMMMMMkMMMMMMMMMMMMMkMMhBBBBBBBBBBBBBBBBBBBBBB",
"BBBBBBBBBBBBBBBBBBBBBBBBBBBBBBBBBBBBBMMMMMMMMMMMMMMMMMMMMMMMMMMmMMMMMMMMMMMMMMMMMMMMMMMMMMMMMMMMMMMMMMMMkBBBBBBBBBBBBBBBBBBBBBBB",
"BBBBBBBBBBBBBBBBBBBBBBBBBBBBBBBBBBBBMMMMMMMMMMMMMmMMMMMMMMMMMMMMMMMMMMMMMMMMMMMMMMMMMMMMMMMMMMMMMMMMMMMk>BBBBBBBBBBBBBBBBBBBBBBB",
"BBBBBBBBBBBBBBBBBBBBBBBBBBBBBBBBBBBMMkMMMMMMMMMMMMMMMMMmMmmMMmMMMMMMMMMMMkMMMMkMMMMMMMMMMmMMMMMkMMMMMMMkBBBBBBBBBBBBBBBBBBBBBBBB",
"BBBBBBBBBBBBBBBBBBBBBBBBBBBBBBBBBBkMmMMMMMkMMMMMMMMMmMMmMMMmmMMMMMMMMMMMMMkMMMMMMMMMkkMMMMMkMMMMMMMMmMk;BBBBBBBBBBBBBBBBBBBBBBBB",
"BBBBBBBBBBBBBBBBBBBBBBBBBBBBBBBBBBMMMMkMMMMMMMMMMmkMmmmMmmmmMmkMMkMkMkmMMMMMMMkMkMkMMMMMMkmMkMkMMkMkMkkBBBBBBBBBBBBBBBBBBBBBBBBB",
"BBBBBBBBBBBBBBBBBBBBBBBBBBBBBBBBBkMMMMMMkMMMMMkMmmmmmmmmmMmmmmmmMkMMMMMkMkMMkMMkMMMkMMkMMMkMMMMkMMMMMMqBBBBBBBBBBBBBBBBBBBBBBBBB",
"BBBBBBBBBBBBBBBBBBBBBBBBBBBBBBBBkMMkMkMkMMMkMkMMmmmMmmmmmmmmmmMmMMMMkkMMMMkMkMMMkMMMkMkMMkMMMkMMkMkMkM>BBBBBBBBBBBBBBBBBBBBBBBBB",
"BBBBBBBBBBBBBBBBBBBBBBBBBBBBBBBBkMkMMMMkMMMMkMMMkMMMkkkMmkMMkMMMkMkMMkMMMkMkMMkMMkMMkMMMkMkMMkMkkMkMkkBBBBBBBBBBBBBBBBBBBBBBBBBB",
"BBBBBBBBBBBBBBBBBBBBBBBBBBBBBBBkMMMMkMkMkMkMMkkMkMkMMMkMMMmmMkkMMMMkMkkMkMMkkMMkMMkMMkkMMkMmMMkMMMMkkkBBBBBBBBBBBBBBBBBBBBBBBBBB",
"BBBBBBBBBBBBBBBBBBBBBBBBBBBBBBBmkMMkMMMkMkMkMMkMkMMMMMMMmkmMkmkmkMkMkMkMMkMMMMkMMkMkkMkkkMkkMkkMkkkMMqBBBBBBBBBBBBBBBBBBBBBBBBBB",
"BBBBBBBBBBBBBBBBBBBBBBBBBBBBBBjkkMkMkMkMMMkMkMkMMkMkkkMkmMkkMmkMMkMkMkMMkMkMkkMkkMkMMkMmkkMMkkMMMMMkM2BBBBBBBBBBMkMMkkMBBBBBBBBB",
"BBBBBBBBBBBBBBBBBBBBBBBBBBBBBBkMkMMkMMkMMkMkMMMkMkMkMkkMmkmmMkmkMkMkMkkkkkMkkMkMkMkkMkkMMkkMkmkkkkkMkBBBBBBBBBBkkkkMkkMkBBBBBBBB",
"BBBBBBBBBBBBBBBBBBBBBBBBBBBBBkMkkMkkkkMkkkkMkkkMkMkkkMMkmkkmkmkmMkkkMkMkMMkMMkkkkMMkkkMkkMmkMkMkkMMkkBBBBBBBBkkMkMMkkMkkkBBBBBBB",
"BBBBBBBBBBBBBBBBBBBBBBBBBBBBkkkmMkkMMkkMkMMkkMkkkMkMMkkMkmmkmkmkkkMMkkMMkMkkkMMkMkkkMkMkkkMmkMkkMkkkkBBBBBBBkMmkkkkkkkkMkBBBBBBB",
"BBBBBBBBBBBBBBBBBBBBBBBBBBBjMkmkkMMkkMkkMkkMkkMkMkMkkMkkMkkmkMmkMkkkMkkkkkMkkkkMkkmkMkkkMkkkkkkmkkMkkBBBBBkkkkkmkMkMkMkkMBBBBBBB",
"BBBBBBBBBBBBBBBBBBBBBBBBBBhkmkmmkkMkkMkkkkkMkkMMkMkkkMkmkkMkkmkkkkkkMkkkkMkMkMkkkkMkkkMkkkkkkkkkkkMkhBBBBkkkkkkkkkkkkkkkkBBBBBBB",
"BBBBBBBBBBBBBBBBBBBBBBBBBhkkkMkkkMmkkkkMkMkkkMkkkkMkkmkkkkkkkmmkkkMkkkkkkkkMkkkkkkkkkkkkkkMkkkkkkkkkh2qkkkkkkkkkkMkkkkkkkBBBBBBB",
"BBBBBBBBBBBBBBBBBBBBBBBBkMkkkkkkkMkkMkkkkMkkkkkkkMkkkkkkkkkMkkkkkMkkkkkkkkkkkMkkkkkkkkMkkkMkkkkkkkkkkkkkkkkkkkkkkkkkkkkkhBBBBBBB",
"BBBBBBBBBBBBBBBBBBBBBBBhkkkkmkkkkkkkkkkkkkkkkkkkkkkkkkkkkkkkkkkkkkMkkkkkkkkkkkkkkkkkkkkkkkkkkkkkkkkkkkkkkkkkkkkkkkkkkkkk2BBBBBBB",
"BBBBBBBBBBBBBBBBBBBBBBkkkkkkkkkkkkkkkkkkkkkkkkkkkkkkkkkkkkkkkkkkkkkkkkkkkkkkkkkkkkkkkkkkkkkkkkhkkkhkkkkkkhkkkkkkkkkkkkkhBBBBBBBB",
"BBBBBBBBBBBBBBBBBBBBkkkkkkkkkkkkkkkkkkkkkkkkkkkkkkkkkkkkkkkkkkkkkkkkkkkkkkhkkkkkkkhkkkkkkkkkkkkhkhkkkkkkkkkkhhkkkkkkkhhqBBBBBBBB",
"BBBBBBBBBBBBBBBBBhkkkkkkkkkkkkkkkkkkkkkkkkkkkkkkkkkkkkhkkkkkkkkkkkkkkkkkhkkkkkhkkhkkhkkhkhkkkhkkhkhkkkhkkhhkkhkhhkhkhkh2BBBBBBBB",
"BBBBBBBBBkhkhkkhkkkkkkkkkkkkkkkkkkkkkkjkkkkkkkjkkkkhkkkhkkkkhkhhhhkkhkhhkhkkhhkhhkhhkhhkhkhkkhhhkhkhhkhhkhhhkhhhkhhhkhhBBBBBBBBB",
"BBBBBBBBkhhhkkhkkkhkkkkjjkkjkkhhhkhkhkhhkkjkhjhhhkhjjhhhhjhkhjhhkkhkhhhhhkjhjkhjhhhhhhhjhjhhhjhjhhhhhhhhhhhhhhhhhhhhhhhBBBBBBBBB",
"BBBBBBBhhkhhhhkkhkhkhkhhhjhkhhhhkhkhhkhhhhjhjhhhjhjjhhhhkhkhhhhhhhjhhhhhhhjhhhhhhhhhhhhhhhjhhhhjjhhhhhjhhhhhhhhhhhhhhhhBBBBBBBBB",
"BBBBBBBBhhhhhhhhkhkhhhhhjhhhhhhhhhhkkhhhhhjhhjhhhhjhhhhhhhhjhhhhhjhhhhhhhhhhhhhhhhhhhhhhhhhhhhhhhhhhhhhhhhhhhhhhhhhhhhhBBBBBBBBB",
"BBBBBBBBBBBB=,qhhhhkhhhhjhkhhhhhhhhhkhhhhjjhhhhhhhhhhhhhhhhjhhhhhhhhhhhhhhhhhhhhhhhhhhhhhhhhjwhhhhhhhhhhhhhhhhhhhhhhhhhBBBBBBBBB",
"BBBBBBBBBBBBBBB$;qhhhhhhhhhhhhhhhhhhhhhhhhhhhhhhhhhhhhhhhhhhhhwhhhhhhhhhhhhhhhhhhhhhhhhhhhhhhwhhhhhihhhhwhhwhhwhhhhhhhhBBBBBBBBB",
"BBBBBBBBBBBBBBB  o=7hhhhhhhhhhhhhhhhhhhwhhhhhhhhhhhhhhhhhhhhhhhhhhwhhhhhhhhhhhhhhwhhwhhwhhhhhhhhihihwhhihhhhwhhhhwwhwhhqBBBBBBBB",
"BBBBBBBBBBBBBBBB   +>qhhhhhhhhhhhhhhhhhhwhhhwhhhhhhhwhwhwhhhhhhhhhwhwwhwwhhwhhhwhhhwhhhhhhwwhhwwihhiihiwhhwhhwhwhhwhhhwwBBBBBBBB",
"BBBBBBBBBBBBBBBBBB  .$1qhhhhwhhhwhhhhhwhhhhhhhhwhwhhhhhhhhhwhwhwhhhhhhhhwhhhwwhhhwhhhwhwwhhhwhhhhwihiwhhwhhwhhhwwhwhwhhwBBBBBBBB",
"BBBBBBBBBBBBBBBBBBB   o=hhhhhwhwhhhwhhwhhwhhhhhhwhwhhhwhhhwhhwhhwhhhhhwhhwwhwhhwhwhwhhhhwhhwwhwhiiiiwhhwhwhwhwhhhwhhwhhqhBBBBBBB",
"BBBBBBBBBBBBBBBBBBBBB   *2hqhhhwhwhwwhhhhwhwhwhwhwhhwhhwhwhwihhwhhwwwwhhhhhwhwwhhwwhhwwhhhwhhwhhiiiihhwhwhwhwhwhhhwwhhqhhBBBBBBB",
"BBBBBBBBBBBBBBBBBBBBBBB  +<hwhwhhwhhhwwhwhhwwhwhwwhwiiwhwhwhwhhhwhwhhwhwwhwhhwhwwhhhwwhwwhhwwhwwiiw3>7qhhwwhwhhqwqhwwwhqhBBBBBBB",
"BBBBBBBBBBBBBBBBBBBBBBBB  +>qhhhwhwhwhhwhhwhhwhwhhwhiiiihwhhhwwwwwhwhwwhhwwhwhwhhwwwhwhwwwwwhwhwwwh> O+-2qhwqhqhqhqhqhhqqBBBBBBB",
"BBBBBBBBBBBBBBBBBBBBBBBBB   =qhhhwwwhwwhwhwwhwwhwhhwihwwwwwwwhwhhwhqhwhqhhhwwhqhhwwwhwwwwwwhwhwhwhh>    o%,whqhqhhqhhqhhh2BBBBBB",
"BBBBBBBBBBBBBBBBBBBBBBBBBBB  #,hwwhhwhhwwhhwwhwwwwwhwwwhhwhwwwwwwhhwwwqhqqqhhqqqwwwhwwhwwhwwwhwwwww>      X*2qhwqqhqqhqqqBBBBBBB",
"BBBBBBBBBBBBBBBBBBBBBBBBBBBB  +;qwwhhhqwhwwhwwhwwhwwhwwwwwwhwhwwqhqwwhwwqwhqhqhqhqqhwwhwwhwwwwwwwww,BBBBB   +-2hwwqqqqqhqBBBBBBB",
"BBBBBBBBBBBBBBBBBBBBBBBBBBBBB   =wwwwwwwwwwwhwwwwwwwwhwwhwwwwwhwwwwwqhwqhwwqqqhqwwwwwwwwwwwwwwwwwww7BBBBBBB   +-qwwqhqq2BBBBBBBB",
"BBBBBBBBBBBBBBBBBBBBBBBBBBBBBBB  &1wqhqhqwwwwhqqwwwwwwwwwwwwwwwwwwwwwwwwwwwwwwwwwwwwwwwwwwwwwwwwqqqqBBBBBBBBB   %>q711-BBBBBBBBB",
"BBBBBBBBBBBBBBBBBBBBBBBBBBBBBBBB  +-qqqwwqwwwwwwwwwwwwwwwwwwwwwwwwwwqwwwwwwwqwwwwwwwwwwwwwqwwqqwqhqqBBBBBBBBBB   X$#XXBBBBBBBBBB",
"BBBBBBBBBBBBBBBBBBBBBBBBBBBBBBBBB   =3hqwwwwwwwwwwwwwwqwwwwwwwqwqwwwwwwqqqqqwwwwqwwqwwqqwqqwqqwqqwqqBBBBBBBBBBBBB   BBBBBBBBBBBB",
"BBBBBBBBBBBBBBBBBBBBBBBBBBBBBBBBBBB  O-qqwqwqwqwwqwqwwwwqwqqqwqqqwqwqqwqwqqqqqqqqqqqqqqqqqwqqqqqqqqq1BBBBBBBBBBBBBBBBBBBBBBBBBBB",
"BBBBBBBBBBBBBBBBBBBBBBBBBBBBBBBBBBBB   &>qqwqwqhqqqqqqqqqqqwqqqqqqqqqqqqqqqq8qqqqqqqqqqqqqqqqq8qqqqq2BBBBBBBBBBBBBBBBBBBBBBBBBBB",
"BBBBBBBBBBBBBBBBBBBBBBBBBBBBBBBBBBBBBB  .=,qqqqqqqqqqqqqqqqqqqqwqqqqqqqqqqqqqqqqqqqqqq9qqqq9qqqqqqqq2BBBBBBBBBBBBBBBBBBBBBBBBBBB",
"BBBBBBBBBBBBBBBBBBBBBBBBBBBBBBBBBBBBBBB   .%>22qqqqwqqqqwqq7qqq8qqq5qqq9qq7qqqq79qqqqqqqq7q77q7qqq4qqBBBBBBBBBBBBBBBBBBBBBBBBBBB",
"BBBBBBBBBBBBBBBBBBBBBBBBBBBBBBBBBBBBBBBBB   .#=>qq88q8qq9qqqq78w9qq5q9qqq8qqq8q7q99q99q9qq7qq7qqqq2qqBBBBBBBBBBBBBBBBBBBBBBBBBBB",
"BBBBBBBBBBBBBBBBBBBBBBBBBBBBBBBBBBBBBBBBBBB    X-q87q7q27q7q8qw8qq7qqq79qq97q7qqqq9qq7qq7qq277782qq2q1BBBBBBBBBBBBBBBBBBBBBBBBBB",
"BBBBBBBBBBBBBBBBBBBBBBBBBBBBBBBBBBBBBBBBBBBBB   +2qqqqq1,2q7q77qq7q2972wq77qq82q2q777q2q772qw7q7q2q7q1BBBBBBBBBBBBBBBBBBBBBBBBBB",
"BBBBBBBBBBBBBBBBBBBBBBBBBBBBBBBBBBBBBBBBBBBBBBB  &2q7q772,;>77872qq27q977qq2q7877q9q79qqqqq77777qq2qq2BBBBBBBBBBBBBBBBBBBBBBBBBB",
"BBBBBBBBBBBBBBBBBBBBBBBBBBBBBBBBBBBBBBBBBBBBBBBB .-7782qw7,&&>27qq2q3q77777777777992933222787777299922BBBBBBBBBBBBBBBBBBBBBBBBBB",
"BBBBBBBBBBBBBBBBBBBBBBBBBBBBBBBBBBBBBBBBBBBBBBBBB o>37772q72;%#*>,27q2q72272q277297737397233373372777q,BBBBBBBBBBBBBBBBBBBBBBBBB",
"BBBBBBBBBBBBBBBBBBBBBBBBBBBBBBBBBBBBBBBBBBBBBBBBBB $277772723,&.Xo%*>772q733277372773373773372337722722BBBBBBBBBBBBBBBBBBBBBBBBB",
"BBBBBBBBBBBBBBBBBBBBBBBBBBBBBBBBBBBBBBBBBBBBBBBBBBB.=2272777333-$.  O>272723772372723333273322332727271BBBBBBBBBBBBBBBBBBBBBBBBB",
"BBBBBBBBBBBBBBBBBBBBBBBBBBBBBBBBBBBBBBBBBBBBBBBBBBBB.=72727233331=O  *727277723327273333723377337272721BBBBBBBBBBBBBBBBBBBBBBBBB",
"BBBBBBBBBBBBBBBBBBBBBBBBBBBBBBBBBBBBBBBBBBBBBBBBBBBB o>22727333372>O #,72772332732222727222722722272222BBBBBBBBBBBBBBBBBBBBBBBBB",
"BBBBBBBBBBBBBBBBBBBBBBBBBBBBBBBBBBBBBBBBBBBBBBBBBBBBB #>27323137221#B *23222172227222222722272227222222BBBBBBBBBBBBBBBBBBBBBBBBB",
"BBBBBBBBBBBBBBBBBBBBBBBBBBBBBBBBBBBBBBBBBBBBBBBBBBBBBB #>222222<222&BBo;1232132222722222212111211222211BBBBBBBBBBBBBBBBBBBBBBBBB",
"BBBBBBBBBBBBBBBBBBBBBBBBBBBBBBBBBBBBBBBBBBBBBBBBBBBBBBB #>211322122;BB #>1121112<2,27,2231221211112121>BBBBBBBBBBBBBBBBBBBBBBBBB",
"BBBBBBBBBBBBBBBBBBBBBBBBBBBBBBBBBBBBBBBBBBBBBBBBBBBBBBBB #>22211212>BBB @;121112222<<22<11111111111111-BBBBBBBBBBBBBBBBBBBBBBBBB",
"BBBBBBBBBBBBBBBBBBBBBBBBBBBBBBBBBBBBBBBBBBBBBBBBBBBBBBBBB O*,2111111*BBB @-11111<2<22<<21111111111111>BBBBBBBBBBBBBBBBBBBBBBBBBB",
"BBBBBBBBBBBBBBBBBBBBBBBBBBBBBBBBBBBBBBBBBBBBBBBBBBBBBBBBBB .$>211111,BBBB .&>1112<2222,<2211,11111111=BBBBBBBBBBBBBBBBBBBBBBBBBB",
"BBBBBBBBBBBBBBBBBBBBBBBBBBBBBBBBBBBBBBBBBBBBBBBBBBBBBBBBBBB  O&>,1111-BBBB  +->22<2<,2<2,,,111,11,,1:BBBBBBBBBBBBBBBBBBBBBBBBBBB",
"BBBBBBBBBBBBBBBBBBBBBBBBBBBBBBBBBBBBBBBBBBBBBBBBBBBBBBBBBBBB   O$-,,,,BBBBB  .O&;,2,2,,2,1,1,1,1,,1;$BBBBBBBBBBBBBBBBBBBBBBBBBBB",
"BBBBBBBBBBBBBBBBBBBBBBBBBBBBBBBBBBBBBBBBBBBBBBBBBBBBBBBBBBBBBB   B+&;>;BBBBBB   o%->,,2,1,1,1,111,;#BBBBBBBBBBBBBBBBBBBBBBBBBBBB",
"BBBBBBBBBBBBBBBBBBBBBBBBBBBBBBBBBBBBBBBBBBBBBBBBBBBBBBBBBBBBBBBBBBBBBBBBBBBBBBB   .O%->,1111,,1>;%oBBBBBBBBBBBBBBBBBBBBBBBBBBBBB",
"BBBBBBBBBBBBBBBBBBBBBBBBBBBBBBBBBBBBBBBBBBBBBBBBBBBBBBBBBBBBBBBBBBBBBBBBBBBBBBBBB    .O%&&->;*&+XBBBBBBBBBBBBBBBBBBBBBBBBBBBBBBB",
"BBBBBBBBBBBBBBBBBBBBBBBBBBBBBBBBBBBBBBBBBBBBBBBBBBBBBBBBBBBBBBBBBBBBBBBBBBBBBBBBBBBB      .XX   BBBBBBBBBBBBBBBBBBBBBBBBBBBBBBBB",
"BBBBBBBBBBBBBBBBBBBBBBBBBBBBBBBBBBBBBBBBBBBBBBBBBBBBBBBBBBBBBBBBBBBBBBBBBBBBBBBBBBBBBBB      BBBBBBBBBBBBBBBBBBBBBBBBBBBBBBBBBBB",
"BBBBBBBBBBBBBBBBBBBBBBBBBBBBBBBBBBBBBBBBBBBBBBBBBBBBBBBBBBBBBBBBBBBBBBBBBBBBBBBBBBBBBBBBBBBBBBBBBBBBBBBBBBBBBBBBBBBBBBBBBBBBBBBB",
"BBBBBBBBBBBBBBBBBBBBBBBBBBBBBBBBBBBBBBBBBBBBBBBBBBBBBBBBBBBBBBBBBBBBBBBBBBBBBBBBBBBBBBBBBBBBBBBBBBBBBBBBBBBBBBBBBBBBBBBBBBBBBBBB",
"BBBBBBBBBBBBBBBBBBBBBBBBBBBBBBBBBBBBBBBBBBBBBBBBBBBBBBBBBBBBBBBBBBBBBBBBBBBBBBBBBBBBBBBBBBBBBBBBBBBBBBBBBBBBBBBBBBBBBBBBBBBBBBBB",
"BBBBBBBBBBBBBBBBBBBBBBBBBBBBBBBBBBBBBBBBBBBBBBBBBBBBBBBBBBBBBBBBBBBBBBBBBBBBBBBBBBBBBBBBBBBBBBBBBBBBBBBBBBBBBBBBBBBBBBBBBBBBBBBB",
"BBBBBBBBBBBBBBBBBBBBBBBBBBBBBBBBBBBBBBBBBBBBBBBBBBBBBBBBBBBBBBBBBBBBBBBBBBBBBBBBBBBBBBBBBBBBBBBBBBBBBBBBBBBBBBBBBBBBBBBBBBBBBBBB",
"BBBBBBBBBBBBBBBBBBBBBBBBBBBBBBBBBBBBBBBBBBBBBBBBBBBBBBBBBBBBBBBBBBBBBBBBBBBBBBBBBBBBBBBBBBBBBBBBBBBBBBBBBBBBBBBBBBBBBBBBBBBBBBBB",
"BBBBBBBBBBBBBBBBBBBBBBBBBBBBBBBBBBBBBBBBBBBBBBBBBBBBBBBBBBBBBBBBBBBBBBBBBBBBBBBBBBBBBBBBBBBBBBBBBBBBBBBBBBBBBBBBBBBBBBBBBBBBBBBB",
"BBBBBBBBBBBBBBBBBBBBBBBBBBBBBBBBBBBBBBBBBBBBBBBBBBBBBBBBBBBBBBBBBBBBBBBBBBBBBBBBBBBBBBBBBBBBBBBBBBBBBBBBBBBBBBBBBBBBBBBBBBBBBBBB",
"BBBBBBBBBBBBBBBBBBBBBBBBBBBBBBBBBBBBBBBBBBBBBBBBBBBBBBBBBBBBBBBBBBBBBBBBBBBBBBBBBBBBBBBBBBBBBBBBBBBBBBBBBBBBBBBBBBBBBBBBBBBBBBBB",
"BBBBBBBBBBBBBBBBBBBBBBBBBBBBBBBBBBBBBBBBBBBBBBBBBBBBBBBBBBBBBBBBBBBBBBBBBBBBBBBBBBBBBBBBBBBBBBBBBBBBBBBBBBBBBBBBBBBBBBBBBBBBBBBB",
"BBBBBBBBBBBBBBBBBBBBBBBBBBBBBBBBBBBBBBBBBBBBBBBBBBBBBBBBBBBBBBBBBBBBBBBBBBBBBBBBBBBBBBBBBBBBBBBBBBBBBBBBBBBBBBBBBBBBBBBBBBBBBBBB",
"BBBBBBBBBBBBBBBBBBBBBBBBBBBBBBBBBBBBBBBBBBBBBBBBBBBBBBBBBBBBBBBBBBBBBBBBBBBBBBBBBBBBBBBBBBBBBBBBBBBBBBBBBBBBBBBBBBBBBBBBBBBBBBBB",
"BBBBBBBBBBBBBBBBBBBBBBBBBBBBBBBBBBBBBBBBBBBBBBBBBBBBBBBBBBBBBBBBBBBBBBBBBBBBBBBBBBBBBBBBBBBBBBBBBBBBBBBBBBBBBBBBBBBBBBBBBBBBBBBB",
"BBBBBBBBBBBBBBBBBBBBBBBBBBBBBBBBBBBBBBBBBBBBBBBBBBBBBBBBBBBBBBBBBBBBBBBBBBBBBBBBBBBBBBBBBBBBBBBBBBBBBBBBBBBBBBBBBBBBBBBBBBBBBBBB",
"BBBBBBBBBBBBBBBBBBBBBBBBBBBBBBBBBBBBBBBBBBBBBBBBBBBBBBBBBBBBBBBBBBBBBBBBBBBBBBBBBBBBBBBBBBBBBBBBBBBBBBBBBBBBBBBBBBBBBBBBBBBBBBBB",
"BBBBBBBBBBBBBBBBBBBBBBBBBBBBBBBBBBBBBBBBBBBBBBBBBBBBBBBBBBBBBBBBBBBBBBBBBBBBBBBBBBBBBBBBBBBBBBBBBBBBBBBBBBBBBBBBBBBBBBBBBBBBBBBB",
"BBBBBBBBBBBBBBBBBBBBBBBBBBBBBBBBBBBBBBBBBBBBBBBBBBBBBBBBBBBBBBBBBBBBBBBBBBBBBBBBBBBBBBBBBBBBBBBBBBBBBBBBBBBBBBBBBBBBBBBBBBBBBBBB",
"BBBBBBBBBBBBBBBBBBBBBBBBBBBBBBBBBBBBBBBBBBBBBBBBBBBBBBBBBBBBBBBBBBBBBBBBBBBBBBBBBBBBBBBBBBBBBBBBBBBBBBBBBBBBBBBBBBBBBBBBBBBBBBBB"
};
