/* XPM */
static char *browser[] = {
/* columns rows colors chars-per-pixel */
"128 128 51 1 ",
"  c #000100010001",
". c #241524152415",
"X c #35AE35AE35AE",
"o c #4C544C544C54",
"O c DimGray",
"+ c #781378137813",
"@ c #8A2A8A2A8A2A",
"# c #989298929892",
"$ c #A921A921A921",
"% c #B78AB78AB78A",
"& c #C2A7C2A7C2A7",
"* c #CB29CB29CB29",
"= c #D497D497D497",
"- c #DBB2DBB2DBB2",
"; c #E1C0E1C0E1C0",
": c #E649E649E649",
"> c #E809E809E924",
", c #EB37EB37EB37",
"< c #ECC0ECE7ED09",
"1 c #EE71EE71EE71",
"2 c #F076F013F013",
"3 c #F013F076F013",
"4 c #F076F076F013",
"5 c #F013F013F076",
"6 c #F076F013F076",
"7 c #F013F076F076",
"8 c #F1EDF1EDF1ED",
"9 c #F319F318F31F",
"0 c #F47FF47FF47F",
"q c #F558F59EF558",
"w c #F59EF59EF558",
"e c #F59EF558F59E",
"r c #F558F59EF59E",
"t c #F665F665F665",
"y c #F75AF794F75A",
"u c #F794F794F75A",
"i c #F75AF75AF794",
"p c #F794F75AF794",
"a c #F75AF794F794",
"s c #F83AF83AF83A",
"d c #F921F918F91B",
"f c #F9C1F9C1F9C1",
"g c #FABCFA6CFA6C",
"h c #FB08FB08FB08",
"j c #FC14FC17FC17",
"k c #FCE5FCE7FCE2",
"l c #FD5BFD5BFD88",
"z c #FE03FE01FE01",
"x c #FEFFFF09FF09",
"c c #FFBAFFBAFFBA",
"v c None",
/* pixels */
"vvvvvvvvvvvvvvvvvvvvvvvvvvvvvvvvvvvvvvvvvvvvvvvvvvvvvvvvvvvvvvvvvvvvvvvvvvvvvvvvvvvvvvvvvvvvvvvvvvvvvvvvvvvvvvvvvvvvvvvvvvvvvvvv",
"vvvvvvvvvvvvvvvvvvvvvvvvvvvvvvvvvvvvvvvvvvvvvvvvvvvvvvvvvvvvvvvvvvvvvvvvvvvvvvvvvvvvvvvvvvvvvvvvvvvvvvvvvvvvvvvvvvvvvvvvvvvvvvvv",
"vvvvvvvvvvvvvvvvvvvvvvvvvvvvvvvvvvvvvvvvvvvvvvvvvvvvvvvvvvvvvvvvvvvvvvvvvvvvvvvvvvvvvvvvvvvvvvvvvvvvvvvvvvvvvvvvvvvvvvvvvvvvvvvv",
"vvvvvvvvvvvvvvvvvvvvvvvvvvvvvvvvvvvvvvvvvvvvvvvvvvvvvvvvvvvvvvvvvvvvvvvvvvvvvvvvvvvvvvvvvvvvvvvvvvvvvvvvvvvvvvvvvvvvvvvvvvvvvvvv",
"vvvvvvvvvvvvvvvvvvvvvvvvvvvvvvvvvvvvvvvvvvvvvvvvvvvvvvvvvvvvvvvvvvvvvvvvvvvvvvvvvvvvvvvvvvvvvvvvvvvvvvvvvvvvvvvvvvvvvvvvvvvvvvvv",
"vvvvvvvvvvvvvvvvvvvvvvvvvvvvvvvvvvvvvvvvvvvvvvvvvvvvvvvvvvvvvvvvvvvvvvvvvvvvvvvvvvvvvvvvvvvvvvvvvvvvvvvvvvvvvvvvvvvvvvvvvvvvvvvv",
"vvvvvvvvvvvvvvvvvvvvvvvvvvvvvvvvvvvvvvvvvvvvvvvvvvvvvvvvvvvvvvvvvvvvvvvvvvvvvvvvvvvvvvvvvvvvvvvvvvvvvvvvvvvvvvvvvvvvvvvvvvvvvvvv",
"vvvvvvvvvvvvvvvvvvvvvvvvvvvvvvvvvvvvvvvvvvvvvvvvvvvvvvvvvvvvvvvvvvvvvvvvvvvvvvvvvvvvvvvvvvvvvvvvvvvvvvvvvvvvvvvvvvvvvvvvvvvvvvvv",
"vvvvvvvvvvvvvvvvvvvvvvvvvvvvvvvvvvvvvvvvvvvvvvvvvvvvvvvvvvvvvvvvvvvvvvvvvvvvvvvvvvvvvvvvvvvvvvvvvvvvvvvvvvvvvvvvvvvvvvvvvvvvvvvv",
"vvvvvvvvvvvvvvvvvvvvvvvvvvvvvvvvvvvvvvvvvvvvvvvvvvvvvvvvvvvvvvvvvvvvvvvvvvvvvvvvvvvvvvvvvvvvvvvvvvvvvvvvvvvvvvvvvvvvvvvvvvvvvvvv",
"vvvvvvvvvvvvvvvvvvvvvvvvvvvvvvvvvvvvvvvvvvvvvvvvvvvvvvvvvvvvvvvvvvvvvvvvvvvvvvvvvvvvvvvvvvvvvvvvvvvvvvvvvvvvvvvvvvvvvvvvvvvvvvvv",
"vvvvvvvvvvvvvvvvvvvvvvvvvvvvvvvvvvvvvvvvvvvvvvvvvvvvvvvvvvvvvvvvvvvvvvvvvvvvvvvvvvvvvvvvvvvvvvvvvvvvvvvvvvvvvvvvvvvvvvvvvvvvvvvv",
"vvvvvvvvvvvvvvvvvvvvvvvvvvvvvvvvvvvvvvvvvvvvvvvvvvvvvkkkkkkkkkkkkkkkkkkkkkvvvvvvvvvvvvvvvvvvvvvvvvvvvvvvvvvvvvvvvvvvvvvvvvvvvvvv",
"vvvvvvvvvvvvvvvvvvvvvvvvvvvvvvvvvvvvvvvvvvvvvvvvvkkkkkkkkkkkkkkkkkkkkkkkkkkkkkvvvvvvvvvvvvvvvvvvvvvvvvvvvvvvvvvvvvvvvvvvvvvvvvvv",
"vvvvvvvvvvvvvvvvvvvvvvvvvvvvvvvvvvvvvvvvvvvvvvkkkkkkkkkkkkkkkkkkkkkkkkkkkkkkkkkkkvvvvvvvvvvvvvvvvvvvvvvvvvvvvvvvvvvvvvvvvvvvvvvv",
"vvvvvvvvvvvvvvvvvvvvvvvvvvvvvvvvvvvvvvvvvvvkkkkkkkkkkkkkkkkkkkkkkkkkkkkkkkkkkkkkkkkkvvvvvvvvvvvvvvvvvvvvvvvvvvvvvvvvvvvvvvvvvvvv",
"vvvvvvvvvvvvvvvvvvvvvvvvvvvvvvvvvvvvvvvvvkkkkkkkkkkkkkkkkkkkkkkkkkkkkkkkkkkkkkkkkkkkkkvvvvvvvvvvvvvvvvvvvvvvvvvvvvvvvvvvvvvvvvvv",
"vvvvvvvvvvvvvvvvvvvvvvvvvvvvvvvvvvvvvvvkkkkkkkkkkkkkkkkkkkkkkkkkkkkkkkkk9sgkkkkkkkkkkkkkvvvvvvvvvvvvvvvvvvvvvvvvvvvvvvvvvvvvvvvv",
"vvvvvvvvvvvvvvvvvvvvvvvvvvvvvvvvvvvvvkkkkkkkkkkkkg9skkkkkkkkkkkkkkkkkkkk=$%=<gkkkkkkkkkkkkvvvvvvvvvvvvvvvvvvvvvvvvvvvvvvvvvvvvvv",
"vvvvvvvvvvvvvvvvvvvvvvvvvvvvvvvvvvvvkkkkkkkkkkkks*%$;gkkkkkkkkkkkkkkkkkk;-=*%$*>gkkkkkkkkkkvvvvvvvvvvvvvvvvvvvvvvvvvvvvvvvvvvvvv",
"vvvvvvvvvvvvvvvvvvvvvvvvvvvvvvvvvvkkkkkkkkkkkkkkkk0=&%7kkkkkkkkkkkkkkkkgsgs7:-*&$-sgkkkkkkkkkvvvvvvvvvvvvvvvvvvvvvvvvvvvvvvvvvvv",
"vvvvvvvvvvvvvvvvvvvvvvvvvvvvvvvvvkkkkkkkkkkkkkkkkkkg7**gkkkkkkkkkkkkkkg9kkhkkg9:=&%=skkkkkkkkkvvvvvvvvvvvvvvvvvvvvvvvvvvvvvvvvvv",
"vvvvvvvvvvvvvvvvvvvvvvvvvvvvvvvkkkkkkkkgkkkg<*,sjkkkg<=9kkkkkkkkkkkkkkkgkkkkkkkks,-&$=skkkkkkkkkvvvvvvvvvvvvvvvvvvvvvvvvvvvvvvvv",
"vvvvvvvvvvvvvvvvvvvvvvvvvvvvvvkkkkkkkks-9kkkks*%;skkks:,kkkkkkkkkkkkkkkkkkvvvkkkkgg<-&=gkkkkkkkkkvvvvvvvvvvvvvvvvvvvvvvvvvvvvvvv",
"vvvvvvvvvvvvvvvvvvvvvvvvvvvvvkkkkkkkkk9%skgjkg:-*&-<gg9<kkkkkkkkkkkkggjjkkvvvvvkkkkksggkkkkkkkkkkkvvvvvvvvvvvvvvvvvvvvvvvvvvvvvv",
"vvvvvvvvvvvvvvvvvvvvvvvvvvvvkkkkkkkkkkk:,<%9gssg<:;:sgsgkkkkkkg9-*&%&*-7gkkvvvvvvkkkkkkkkkkkkkkkkkkvvvvvvvvvvvvvvvvvvvvvvvvvvvvv",
"vvvvvvvvvvvvvvvvvvvvvvvvvvvkkkkkkkkkkkk0;-=-:skkjgggjksgkkkkks;&*==---:skkkvvvvvvkkkkkkkkkkkkkkkkkkkvvvvvvvvvvvvvvvvvvvvvvvvvvvv",
"vvvvvvvvvvvvvvvvvvvvvvvvvvkkkkkkkkkkkkkss979sjkkkkkkkkdgkkkkg&-,<ssgsggkkkvvvvvvkkkkkkkg--kkkkkkkkkkkvvvvvvvvvvvvvvvvvvvvvvvvvvv",
"vvvvvvvvvvvvvvvvvvvvvvvvvkkkkkkkkkkkg99kjkkkkkkvvkkkkk9gkkkj9<gkkkkkkkkkkkkkkvvkkkkkkkk7%9kkkkkkkkkkkkvvvvvvvvvvvvvvvvvvvvvvvvvv",
"vvvvvvvvvvvvvvvvvvvvvvvvkkkkkkkkkkkg:;skkkkkkkvvvvvvkk9<gkkd<gkkkkkkkkkkkkkkkkkkkkkkkkk9-9kkkkkkkkkkkkkvvvvvvvvvvvvvvvvvvvvvvvvv",
"vvvvvvvvvvvvvvvvvvvvvvvkkkkkkkkkkk9-;skkkkkkkvvvvvvvkks-=:::skkkvvvvvvvkkkkkkkkkkgkkkkkg<=9gkkkkkkkkkkkkvvvvvvvvvvvvvvvvvvvvvvvv",
"vvvvvvvvvvvvvvvvvvvvvvkkkkkkkkkkk9*>sgkkkkkkkkvvvvvvkkg<-=:gkkkvvvvvvvkkkkgkkkkks<gkkkkgs::gkkkkkkkkkkkkkvvvvvvvvvvvvvvvvvvvvvvv",
"vvvvvvvvvvvvvvvvvvvvvvkkkkkkkkkkk;<gkkkkkkkkkkkkvvvvvkkkgsgkkkvvvvvvvkkjjg<gkkkks-*;<97dgjkkkkkkkkkkkkkkkvvvvvvvvvvvvvvvvvvvvvvv",
"vvvvvvvvvvvvvvvvvvvvvjkkkkkkkkkkjshkkkkkkkkkkkkkkvvvvkkkkkkkkvvvvvvvkkjgjg,skkkkg<;*&=1gjjkkkkkkkkkkkkkkkkvvvvvvvvvvvvvvvvvvvvvv",
"vvvvvvvvvvvvvvvvvvvvgkkkkkkkkkkkkkkkkkkkkkkkkkkkkvvvvvvkkkkvvvvvvvvvkkg19r,<kkjkkgjjddjjjjkkkkkkkkkkkkkkkkjvvvvvvvvvvvvvvvvvvvvv",
"vvvvvvvvvvvvvvvvvvvvkkkkkkkkkkkkkkkkkkhkkkkkkkkkkkvvvvvvvvvvvvvvvvvvkkg9<s7-9ggkkjjkjjkkjjkkkkkkkkkkkkkkkkkvvvvvvvvvvvvvvvvvvvvv",
"vvvvvvvvvvvvvvvvvvvjkkkkkkkkkjkkkkkkkkkkkkjkkkkkkkkvvvvvvvvvvvvvvvvvkkkkgkg1;,skkjkjkjkkjjkjkkjkkkkkkkkkkkjjvvvvvvvvvvvvvvvvvvvv",
"vvvvvvvvvvvvvvvvvvgjjkkjkkkkkkkjkkkjkkjkjkkkkkkkkkkvvvvvvvvvvvvvvvvvvkkkkkkdsdggjkjkjkkjkkjkkkkjkkkgkkkkjkkkjvvvvvvvvvvvvvvvvvvv",
"vvvvvvvvvvvvvvvvvvjkkjkkkkjkjkjkkkkkjkkkkjgggsssgkkkvvvvvvvvvvvvvvvvvvvkkkkkkjhkkkkjjkkjkjkkjjjjhkkkgkkkkjkjjvvvvvvvvvvvvvvvvvvv",
"vvvvvvvvvvvvvvvvvgjjkjjkkjjjjkjkkkkkhkjkkjs:*&%&,kkkvvvvvvvvvvvvvvvvvvvvvvkkkkkkjjjkkjkjjkjjkjjjkkkkkkkkjkjjjjvvvvvvvvvvvvvvvvvv",
"vvvvvvvvvvvvvvvvvjjjjjkjjjjjjjjjkjkjjjkjjjg0>-;:<gkkvvvvvvvvvvvvvvvvvvvvvvkkkkjjjkjjjjjjjjjjjjjjgkkkjjkjjkjjjjvvvvvvvvvvvvvvvvvv",
"vvvvvvvvvvvvvvvvdjjjjjjjjjjjjjjjjjjjjjjjkjjhgsddkkkkvvvvvvvvvvvvvvvvvvvvvkkkkkjjjjjjjjjjjjjjjjjjkhkhjjjjjkjjkjgvvvvvvvvvvvvvvvvv",
"vvvvvvvvvvvvvvvvjjjjjjjjjjjjjjjjjjjkkjjjjgggkkkkkkkvvvvvvvvvvvvvvvvvvvvvkkjjkkjkjjjjjjjjjjjjjjjjhkhkjjjjjjjjjjjvvvvvvvvvvvvvvvvv",
"vvvvvvvvvvvvvvvsjjjjjjjjjjjjjjjjkjjjjjjgjs<<gkkkkkvvvvvvvvvvvvvvvvvvvvvkkkjjgjkgjs;;9jjjjjjjjjjjkkhkjjjjjkjjjjjgvvvvvvvvvvvvvvvv",
"vvvvvvvvvvvvvvvgjjjjjjjjjjjjjjjjjkjkkgjd:=;skkvvvvvvvvvvvvvvvvvvvvvvvvvkkjjjjjjj<&%%$1jr7jjjjjgjgkjjjgjjjhjjhjjhvvvvvvvvvvvvvvvv",
"vvvvvvvvvvvvvvvggjjjjjjgkjjjjjjjjgjggg9-=:skkkvvvvvvvvvvvvvvvvvvvvvvvvkkjgjjjjg7*;:;**rd-djjjjjjjgjjjjgjhjhjkhhjvvvvvvvvvvvvvvvv",
"vvvvvvvvvvvvvvggjhgjgjjjjjjjjddjgkgkk9*;sgkkkvvvvvvvvvvvvvvvvvvvvvvvvvkkdjghgj7-7gjg5=:7%,jg7djjhhjghgjjjjhjhhkjgvvvvvvvvvvvvvvv",
"vvvvvvvvvvvvvvggjjjhjjjjgjjjjjjjjgjg<=<gkkkkvvvvvvvvvvvvvvvvvvvvvvvvvkkk7djgs1-sjkkjg7;:-&;;$*7dhkgkhkhjhjhjhjhhgvvvvvvvvvvvvvvv",
"vvvvvvvvvvvvvvjjgggjjjjdgjjjjjjjjgg7=7gkkkvvvvvvvvvvvvvvvvvvvvvvvvvvvkkk:-<7:;sgjjkkkjds9:-==&%=7jhjjjjjdjdjjdjgjvvvvvvvvvvvvvvv",
"vvvvvvvvvvvvv9gjjjjjgjjjgjdjdjhhgjr=7jkkvvvvvvvvvvvvvvvvvvvvvvvvvvvvvvkk9-&-7ggghjjjkkkkjdrrs<-&$;rjdjdjjjjjhjjjhgvvvvvvvvvvvvvv",
"vvvvvvvvvvvvvggjggjgdjgjjjgjjjhjjd:7kkkvvvvvvvvvvvvvvvvvvvvvvvvvvvvvvvkkg99ghhgghhhhkjjkkkkkkjs,=%7djjjdhhhhhhdjggvvvvvvvvvvvvvv",
"vvvvvvvvvvvvvgggjgjgjjggggjgdjhhg,7gkkvvvvvvvvvvvvvvvvvvvvvvvvvvvvvvvvkkkggghggghhhhjjjjkkkkkkjg71djjdjghhhhhhjgggvvvvvvvvvvvvvv",
"vvvvvvvvvvvvvjgjjgdjjgjdgggjgggg9<kkkvvvvvvvvvvvvvvvvvvvvvvvvvvvvvvvvvkkjhhhhhhhjhhhhjhhkkhhhjjgghhhjjdjhdjjgjdjghvvvvvvvvvvvvvv",
"vvvvvvvvvvvv7gggggjgdjdjgggggggs<gkkvvvvvvvvvvvvvvvvvvvvvvvvvvvvvvvvvkkkjghhhgghdhhhhdhhgghhjggjjhjddjjdhhjdjdjdhhsvvvvvvvvvvvvv",
"vvvvvvvvvvvvrggjjdjgjgjgd979dggssgkkvvvvvvvvvvvvvvvvvvvvvvvvvvvvvvvvvkkgghhghghgjhhhdhhhghhgggggjjdjhddjdjdjjdggghgvvvvvvvvvvvvv",
"vvvvvvvvvvvvdgggdjdjddd>*$$$&,g<hkkvvvvvvvvvvvvvvvvvvvvvvvvvvvvvvvvvkkkkggggghggdhdjdhdhggggggggdddrhdjjddjd7;dggggvvvvvvvvvvvvv",
"vvvvvvvvvvvvdgggggdjgr;*=;;=**<skkvvvvvvvvvvvvvvvvvvvvvvvvvvvvvvvvvkjjhddgdjddjdhdhhdhhhhddhdjddddd>ddjdgggg7*dggggvvvvvvvvvvvvv",
"vvvvvvvvvvvvggggdjjds;-<sdss9<sjkkvvvvvvvvvvvvvvvvvvvvvvvvvvvvvvvvvkjjdhdgjgdjdddhdhhddhdjdhddjhdjd>:djdggggd:dhgggvvvvvvvvvvvvv",
"vvvvvvvvvvvvddgdjddd0:gkkkkkkkkkkvvvvvvvvvvvvvvvvvvvvvvvvvvvvvvvvvkkjjhddgddddjddhddhhhhdhdhhhdhddgr&1ddgdgddddddggvvvvvvvvvvvvv",
"vvvvvvvvvvv;ggdgddjdsgkkkkkkkkkkvvvvvvvvvvvvvvvvvvvvvvvvvvvvvvvvvvkjddhdjddjjjdghdhhddddjdjddddhjdjd:=rddgddddddgdgvvvvvvvvvvvvv",
"vvvvvvvvvvv;gggddddjdjkkvvvvvkkvvvvvvvvvvvvvvvvvvvvvvvvvvvvvvvvvvkkkdddddhhddgddhddddhhddhdddhddhdddr*;dgdggdddgddgvvvvvvvvvvvvv",
"vvvvvvvvvvv;ggddjddddjkkkkvvvvvvvvvvvvvvvvvvvvvvvvvvvvvvvvvvvvvvvkkgdhdhdddddddgddhddddddddhdhdhddhdd>&7ddddgdgdgdgvvvvvvvvvvvvv",
"vvvvvvvvvvv-ddggdddddjjjkgkvvvvvvvvvvvvvvvvvvvvvvvvvvvvvvvvvvvvvvkksddddhddddhgddhdhhdhdhddddddddhdddr-;dddgddgddggvvvvvvvvvvvvv",
"vvvvvvvvvvv-gddddddjhdddggkkvvvvvvvvvvvvvvvvvvvvvvvvvvvvvvvvvvvvkkgsddhhddhdddddddddddddddhdhdddddddds1=rddddddgsdgvvvvvvvvvvvvv",
"vvvvvvvvvvv=gsds1:dsdgddgggkkvvvvvvvvvvvvvvvvvvvvvvvvvvvvvvvvvvvkkgggdddddddgdddgssgssddgssgddddddddddr-<sggsggsssgvvvvvvvvvvvvv",
"vvvvvvvvvvv-sgdg<#:rdddddggkkvvvvvvvvvvvvvvvvvvvvvvvvvvvvvvvvvvvkks9dddddgddddddsggsggsgsgdsdddddddddds,;sssssssgsgvvvvvvvvvvvvv",
"vvvvvvvvvvv-ddssr=%=1ssdddggkvvvvvvvvvvvvvvvvvvvvvvvvvvvvvvvvvvvkks<sdsgsddsdddsgsgssgssdddsddddddddsdd0:ssss,9ggssvvvvvvvvvvvvv",
"vvvvvvvvvvv-sggss,-*$=,sddgkkkvvvvvkvvvvvvvvvvvvvvvvvvvvvvvvvvvvkks,sssssdsdsdsdsssssssssdsdsdsddssddsds9sgs<$0sssgvvvvvvvvvvvvv",
"vvvvvvvvvvv%sssssss,-&%&;9gsgkkkkkkjggkkvvvvvvvvvvvvvvvvvvvvvvvvkks:9ggsssssdssdsssssssssdssssssssssssdsssss9*9ssssvvvvvvvvvvvvv",
"vvvvvvvvvvv#sssssgkgg<-*%&,sdgkkkgdgssggkkvvvvvvvvvvvvvvvvvvvvvvkkg:,sssssssssssssssssssssssssssssssssssssssg,sssssvvvvvvvvvvvvv",
"vvvvvvvvvvvv9gssgkkkkkd7;=*:9sddssssssssdgkkvvvvvvvvvvvvvvvvvvvvvkk9=9sssssssssssssssssssssssssssssssssssssss<0ssssvvvvvvvvvvvvv",
"vvvvvvvvvvvv9sssgkkkkkkjd<;-,ssssssssssssggkkvvvvvvvvvvvvvvvvvvvvkkg--<gsssssssss0ssssssssssssssssssssssssssg<ssss0vvvvvvvvvvvvv",
"vvvvvvvvvvvv2s0ssgkkvvkkkkg<;-<sssssssssssssgkvvvvvvvvvvvvvvvvvvvkkk<*=9ssssssssgssssssssssssssssssssssssssss4sssssvvvvvvvvvvvvv",
"vvvvvvvvvvvv;ssssgkkvvvvkkkg<--ssssss9ssss0sgkkvvvvvvvvvvvvvvvvvvvkkg:*=1rssrs9,<<9sssssssss9ssssssrs9ss9sss<<ss0s,vvvvvvvvvvvvv",
"vvvvvvvvvvvv%sssssjkvvvvvkkkg1=9ssss9ssrsssssskkvvvvvvvvvvvvvvvvvvvkkg>*%*:<:=&%$$*<ssss0ss0ssssrsrsss9s9s99-<9sssvvvvvvvvvvvvvv",
"vvvvvvvvvvvv#sssssjkvvvvvvkkkg,srs0ssssss9ssssdkkvvvvvvvvvvvvvvvvvvkkkg<-*%%&*---=%-ss9sssss0s9ssssrssssss9--ssss9vvvvvvvvvvvvvv",
"vvvvvvvvvvvvv<0ssskkvvvvvvvkkg90s9sssrrsss90sssskkvvvvvvvvvvvvvvvvvvkkkks9,,19sdg9;*<s0s09sssssssrssrs0ss9-=,ssss<vvvvvvvvvvvvvv",
"vvvvvvvvvvvvv-ssssgkkvvvvvvkkssssss9ss0ss9ssss9ssgkkvvvvvvvvvvvvvvvvvkkkkkgkgkkkkks=,ssssss00s9ssr9s9ssss,;:9r0ss,vvvvvvvvvvvvvv",
"vvvvvvvvvvvvv%sss9skkvvvvvvkkgs00sss9sssssss9ss9sssdkkvvvvvvvvvvvvvvvvvkkkkkkkkkkkj,;ss0s00ss0s0rrssssrss:99s0s0s=vvvvvvvvvvvvvv",
"vvvvvvvvvvvvvO90ssgkkvvvvvvkjs0ss0s9sss9s9s9srss9sssgkkvvvvvvvvvvvvvvvvvvvvvvvvvvkk9;00s0s0s0s0ssr9ss9s99<s00s0s9vvvvvvvvvvvvvvv",
"vvvvvvvvvvvvvv:s9ssskkvvvvkksss0s0s0s0sss00s0s9s0sss0ssgkvvvvvvvvvvvvvvvvvvvvvvvvkkg;9s0ss9ss90ss0s0s9ss9ss9s0s0<vvvvvvvvvvvvvvv",
"vvvvvvvvvvvvvv*ss09skkvvvvkk0s0s9s0s9s090ss90ss9s990s0s9jkvvvvvvvvvvvvvvvvvvvvvvvkkk>90s9ss99s0s00s00s009gss0s9s-vvvvvvvvvvvvvvv",
"vvvvvvvvvvvvvvX,9s0sgkvvvvkk9ss900s99ss90s0s9s9sss0s9s0sgkvvvvvvvvvvvvvvvvvvvvvvvvkk<,s9s0s9s9s00s9s9ss0sss99ss<vvvvvvvvvvvvvvvv",
"vvvvvvvvvvvvvvv-ss90skkvvkkk<s9sss9ss09ss09ss09s9s99s99sgkkvvvvvvvvvvvvvvvvvvvvvvvkk<:s99s9s9s9ss0s9s09ssss9s9s:vvvvvvvvvvvvvvvv",
"vvvvvvvvvvvvvvv@9ss9sgkvvkkk:9ss9s9ss99ss9s999s9s90ss09sskkvvvvvvvvvvvvvvvvvvvvvvvkks:000s99s99s9s9ss9s09s909s4vvvvvvvvvvvvvvvvv",
"vvvvvvvvvvvvvvvv-s9ssgkkvkkk;-<999s9s9s99s9s9ss0s99s9s99gkkvvvvvvvvvvvvvvvvvvvvvvvkkg;909s0s9s0090090099<s09s0:vvvvvvvvvvvvvvvvv",
"vvvvvvvvvvvvvvvv@<s999gkvvkk<*-ss0ss9s9s9s9s9s99s99s099sgkkvvvvvvvvvvvvvvvvvvvvvvvkkg:99s900900000s9s9099s0s99vvvvvvvvvvvvvvvvvv",
"vvvvvvvvvvvvvvvv -9s99sjkvkkg:&;90999900999s909s9s999sr9gkkvvvvvvvvvvvvvvvvvvvvvvvvkj<9099s9s000000000099999s:vvvvvvvvvvvvvvvvvv",
"vvvvvvvvvvvvvvvvv@29990skkkkks;%;0000000900000009999s9s9kkvvvvvvvvvvvvvvvvvvvvvvvvvkk<9000000000000000009s90<vvvvvvvvvvvvvvvvvvv",
"vvvvvvvvvvvvvvvvv =s9s00kkvkkgs;%;00000000000000s9s99999kkvvvvvvvvvvvvvvvvvvvvvvvvvkk<9000000000000000009990-vvvvvvvvvvvvvvvvvvv",
"vvvvvvvvvvvvvvvvvvo,9990gkkvkkks-*<00000000099909r9ss99skkvvvvvvvvvvvvvvvvvvvvvvvvvkk4309s000000009000999s0<vvvvvvvvvvvvvvvvvvvv",
"vvvvvvvvvvvvvvvvvv %9s90sgkvvkkk3==999090090sr90999999<gkkvvvvvvvvvvvvvvvvvvvvvvvvvkj<999909999900909990909*vvvvvvvvvvvvvvvvvvvv",
"vvvvvvvvvvvvvvvvvvv -ss999gkvvkkg1&:09099009<999s<s9999gkkvvvvvvvvvvvvvvvvvvvvvvvvvkk999999999099999904099;vvvvvvvvvvvvvvvvvvvvv",
"vvvvvvvvvvvvvvvvvvv +:<999sjkvvkkg;=<9999999s9999999999kkvvvvvvvvvvvvvvvvvvvvvvvvvvkk<<999999999999999999<@vvvvvvvvvvvvvvvvvvvvv",
"vvvvvvvvvvvvvvvvvvvv $599s7skkvkkk7*:9999999999979999<skkvvvvvvvvvvvvvvvvvvvvvvvvvvkk<<049999999999999997%vvvvvvvvvvvvvvvvvvvvvv",
"vvvvvvvvvvvvvvvvvvvvv *99<99gkkvkkg:-949999949999999,,kkkvvvvvvvvvvvvvvvvvvvvvvvvvvkk9<99999999297999499-vvvvvvvvvvvvvvvvvvvvvvv",
"vvvvvvvvvvvvvvvvvvvvv  =99999skkkkks=<9999929999999:=sjkvvvvvvvvvvvvvvvvvvvvvvvvvvvkg9,9999<99399997999-vvvvvvvvvvvvvvvvvvvvvvvv",
"vvvvvvvvvvvvvvvvvvvvvv +:999<9skkkkg-,4992999<9294,-<kkkvvvvvvvvvvvvvvvvvvvvvvvvvvvkks;949999399939993:@vvvvvvvvvvvvvvvvvvvvvvvv",
"vvvvvvvvvvvvvvvvvvvvvvv @:99999skkkj,<92<99299999<:9kkkvvvvvvvvvvvvvvvvvvvvvvvvvvvvkkg;<9499<99933393,#vvvvvvvvvvvvvvvvvvvvvvvvv",
"vvvvvvvvvvvvvvvvvvvvvvvv @:<999<gkkk<<99992949992<<gkkvvvvvvvvvvvvvvvvvvvvvvvvvvvvvkkg;<999<999<999<:#vvvvvvvvvvvvvvvvvvvvvvvvvv",
"vvvvvvvvvvvvvvvvvvvvvvvvv @:<79999gk9<9<9<9<999<9<gkkvvvvvvvvvvvvvvvvvvvvvvvvvvvvvvvkk,:<9<999<9999:#vvvvvvvvvvvvvvvvvvvvvvvvvvv",
"vvvvvvvvvvvvvvvvvvvvvvvvv  @:39<<9<s<47999949<<999kkvvvvvvvvvvvvvvvvvvvvvvvvvvvvvvvvkk9-<992<997<<:#vvvvvvvvvvvvvvvvvvvvvvvvvvvv",
"vvvvvvvvvvvvvvvvvvvvvvvvvv  @;9<77779<9<<924<2391skkvvvvvvvvvvvvvvvvvvvvvvvvvvvvvvvvkks-,2<99<229:#vvvvvvvvvvvvvvvvvvvvvvvvvvvvv",
"vvvvvvvvvvvvvvvvvvvvvvvvvvv  O=7777239249<<9926<<gkvvvvvvvvvvvvvvvvvvvvvvvvvvvvvvvvvkks,<2222222=+vvvvvvvvvvvvvvvvvvvvvvvvvvvvvv",
"vvvvvvvvvvvvvvvvvvvvvvvvvvvv   *29<2<9222244224<skkvvvvvvvvvvvvvvvvvvvvvvvvvvvvvvvvvkks<222922<* vvvvvvvvvvvvvvvvvvvvvvvvvvvvvvv",
"vvvvvvvvvvvvvvvvvvvvvvvvvvvvvv  #;22<249<22422:<jkkvvvvvvvvvvvvvvvvvvvvvvvvvvvvvvvkkg9<9<9<<2;$vvvvvvvvvvvvvvvvvvvvvvvvvvvvvvvvv",
"vvvvvvvvvvvvvvvvvvvvvvvvvvvvvvv  O*2<92<222<<<-gkkvvvvvvvvvvvvvvvvvvvvvvvvvvvvvkkjs9<<<<2<<<=+vvvvvvvvvvvvvvvvvvvvvvvvvvvvvvvvvv",
"vvvvvvvvvvvvvvvvvvvvvvvvvvvvvvvv   $;2<<<<2<4<<skkvvvvvvvvvvvvvvvvvvvvvvvvvvvkkkg9<<29<29<;% vvvvvvvvvvvvvvvvvvvvvvvvvvvvvvvvvvv",
"vvvvvvvvvvvvvvvvvvvvvvvvvvvvvvvvv   o&<422<2<2<<sskkkvvvvvvvvvvvvvvvvvvvvkkkgs93<<2<<9<<>*o vvvvvvvvvvvvvvvvvvvvvvvvvvvvvvvvvvvv",
"vvvvvvvvvvvvvvvvvvvvvvvvvvvvvvvvvvv   O*><<<4<2<<,<<sggjkkkkkkkkkkkkkkkkgss4<<<<3<<22<,*+ vvvvvvvvvvvvvvvvvvvvvvvvvvvvvvvvvvvvvv",
"vvvvvvvvvvvvvvvvvvvvvvvvvvvvvvvvvvvv    O*:<<<<<<<<1,<<9<999ssssgs99999<4<<<<<3<<<,<,*O  vvvvvvvvvvvvvvvvvvvvvvvvvvvvvvvvvvvvvvv",
"vvvvvvvvvvvvvvvvvvvvvvvvvvvvvvvvvvvvvv    O&;<<<<<9<<<<<<<<<<<,<,11,1<<<<<<<<<<<<<;&O  vvvvvvvvvvvvvvvvvvvvvvvvvvvvvvvvvvvvvvvvv",
"vvvvvvvvvvvvvvvvvvvvvvvvvvvvvvvvvvvvvvvv    .$=:<<<<<<<<<<<<<<<<<<<<<<<<<<<<<<<:=$.  vvvvvvvvvvvvvvvvvvvvvvvvvvvvvvvvvvvvvvvvvvv",
"vvvvvvvvvvvvvvvvvvvvvvvvvvvvvvvvvvvvvvvvvv     o#&-,<<<<<<<<<<<<1,<<<<<<,<<,-&#o   vvvvvvvvvvvvvvvvvvvvvvvvvvvvvvvvvvvvvvvvvvvvv",
"vvvvvvvvvvvvvvvvvvvvvvvvvvvvvvvvvvvvvvvvvvvvv     .O#%-;:>,<,<<,,,<,,>:;=&#O.   vvvvvvvvvvvvvvvvvvvvvvvvvvvvvvvvvvvvvvvvvvvvvvvv",
"vvvvvvvvvvvvvvvvvvvvvvvvvvvvvvvvvvvvvvvvvvvvvvv        .oO+#$$$$$$$$+Oo.      vvvvvvvvvvvvvvvvvvvvvvvvvvvvvvvvvvvvvvvvvvvvvvvvvv",
"vvvvvvvvvvvvvvvvvvvvvvvvvvvvvvvvvvvvvvvvvvvvvvvvvvv                       vvvvvvvvvvvvvvvvvvvvvvvvvvvvvvvvvvvvvvvvvvvvvvvvvvvvvv",
"vvvvvvvvvvvvvvvvvvvvvvvvvvvvvvvvvvvvvvvvvvvvvvvvvvvvvvvvv           vvvvvvvvvvvvvvvvvvvvvvvvvvvvvvvvvvvvvvvvvvvvvvvvvvvvvvvvvvvv",
"vvvvvvvvvvvvvvvvvvvvvvvvvvvvvvvvvvvvvvvvvvvvvvvvvvvvvvvvvvvvvvvvvvvvvvvvvvvvvvvvvvvvvvvvvvvvvvvvvvvvvvvvvvvvvvvvvvvvvvvvvvvvvvvv",
"vvvvvvvvvvvvvvvvvvvvvvvvvvvvvvvvvvvvvvvvvvvvvvvvvvvvvvvvvvvvvvvvvvvvvvvvvvvvvvvvvvvvvvvvvvvvvvvvvvvvvvvvvvvvvvvvvvvvvvvvvvvvvvvv",
"vvvvvvvvvvvvvvvvvvvvvvvvvvvvvvvvvvvvvvvvvvvvvvvvvvvvvvvvvvvvvvvvvvvvvvvvvvvvvvvvvvvvvvvvvvvvvvvvvvvvvvvvvvvvvvvvvvvvvvvvvvvvvvvv",
"vvvvvvvvvvvvvvvvvvvvvvvvvvvvvvvvvvvvvvvvvvvvvvvvvvvvvvvvvvvvvvvvvvvvvvvvvvvvvvvvvvvvvvvvvvvvvvvvvvvvvvvvvvvvvvvvvvvvvvvvvvvvvvvv",
"vvvvvvvvvvvvvvvvvvvvvvvvvvvvvvvvvvvvvvvvvvvvvvvvvvvvvvvvvvvvvvvvvvvvvvvvvvvvvvvvvvvvvvvvvvvvvvvvvvvvvvvvvvvvvvvvvvvvvvvvvvvvvvvv",
"vvvvvvvvvvvvvvvvvvvvvvvvvvvvvvvvvvvvvvvvvvvvvvvvvvvvvvvvvvvvvvvvvvvvvvvvvvvvvvvvvvvvvvvvvvvvvvvvvvvvvvvvvvvvvvvvvvvvvvvvvvvvvvvv",
"vvvvvvvvvvvvvvvvvvvvvvvvvvvvvvvvvvvvvvvvvvvvvvvvvvvvvvvvvvvvvvvvvvvvvvvvvvvvvvvvvvvvvvvvvvvvvvvvvvvvvvvvvvvvvvvvvvvvvvvvvvvvvvvv",
"vvvvvvvvvvvvvvvvvvvvvvvvvvvvvvvvvvvvvvvvvvvvvvvvvvvvvvvvvvvvvvvvvvvvvvvvvvvvvvvvvvvvvvvvvvvvvvvvvvvvvvvvvvvvvvvvvvvvvvvvvvvvvvvv",
"vvvvvvvvvvvvvvvvvvvvvvvvvvvvvvvvvvvvvvvvvvvvvvvvvvvvvvvvvvvvvvvvvvvvvvvvvvvvvvvvvvvvvvvvvvvvvvvvvvvvvvvvvvvvvvvvvvvvvvvvvvvvvvvv",
"vvvvvvvvvvvvvvvvvvvvvvvvvvvvvvvvvvvvvvvvvvvvvvvvvvvvvvvvvvvvvvvvvvvvvvvvvvvvvvvvvvvvvvvvvvvvvvvvvvvvvvvvvvvvvvvvvvvvvvvvvvvvvvvv"
};
