/* XPM */
static char *ccc_large[] = {
/* columns rows colors chars-per-pixel */
"128 128 49 1 ",
"  c #000100010001",
". c #211C211C211C",
"X c #35AE35AE35AE",
"o c #498F498F498F",
"O c #645364536453",
"+ c #7A6E7A6E7A6E",
"@ c #8C4E8C4E8C4E",
"# c #989298929892",
"$ c #AAD6A921A921",
"% c #B78AB78AB78A",
"& c #BEAABEAABEAA",
"* c #CC4ACC4ACC4A",
"= c #D099CE7CCE7C",
"- c #D497D497D497",
"; c #DBB2DBB2DBB2",
": c #DD4EDED9DD4E",
"> c #E1C0E1C0E1C0",
", c #E46CE3C6E46C",
"< c #E6E1E6E1E6E1",
"1 c #EAB6EAB6EAB6",
"2 c #EEDDEEDDEEDD",
"3 c #F246F246F246",
"4 c #F313F324F2F6",
"5 c #F47FF47FF47F",
"6 c #F59EF558F558",
"7 c #F59EF59EF558",
"8 c #F558F558F59E",
"9 c #F558F59EF59E",
"0 c #F6A4F6A4F6A4",
"q c #F794F75AF75A",
"w c #F75AF794F75A",
"e c #F794F794F75A",
"r c #F794F75AF794",
"t c #F75AF794F794",
"y c #F86FF86FF83A",
"u c #F937F922F91C",
"i c #F9C1F9C1F9C1",
"p c #FA94FA6CFA6C",
"a c #FA6CFA94FA6C",
"s c #FA94FA94FA6C",
"d c #FA6CFA6CFA94",
"f c #FA94FA6CFA94",
"g c #FA6CFA94FA94",
"h c #FB08FB08FB08",
"j c #FC0AFC0EFC0A",
"k c #FCEEFCEEFCEC",
"l c #FD88FD5BFD5B",
"z c #FD88FD88FD88",
"x c None",
/* pixels */
"xxxxxxxxxxxxxxxxxxxxxxxxxxxxxxxxxxxxxxxxxxxxxxxxxxxxxxxxxxxxxxxxxxxxxxxxxxxxxxxxxxxxxxxxxxxxxxxxxxxxxxxxxxxxxxxxxxxxxxxxxxxxxxxx",
"xxxxxxxxxxxxxxxxxxxxxxxxxxxxxxxxxxxxxxxxxxxxxxxxxxxxxxxxxxxxxxxxxxxxxxxxxxxxxxxxxxxxxxxxxxxxxxxxxxxxxxxxxxxxxxxxxxxxxxxxxxxxxxxx",
"xxxxxxxxxxxxxxxxxxxxxxxxxxxxxxxxxxxxxxxxxxxxxxxxxxxxxxxxxxxxxxxxxxxxxxxxxxxxxxxxxxxxxxxxxxxxxxxxxxxxxxxxxxxxxxxxxxxxxxxxxxxxxxxx",
"xxxxxxxxxxxxxxxxxxxxxxxxxxxxxxxxxxxxxxxxxxxxxxxxxxxxxxxxxxxxxxxxxxxxxxxxxxxxxxxxxxxxxxxxxxxxxxxxxxxxxxxxxxxxxxxxxxxxxxxxxxxxxxxx",
"xxxxxxxxxxxxxxxxxxxxxxxxxxxxxxxxxxxxxxxxxxxxxxxxxxxxxxxxxxxxxxxxxxxxxxxxxxxxxxxxxxxxxxxxxxxxxxxxxxxxxxxxxxxxxxxxxxxxxxxxxxxxxxxx",
"xxxxxxxxxxxxxxxxxxxxxxxxxxxxxxxxxxxxxxxxxxxxxxxxxxxxxxxxxxxxxxxxxxxxxxxxxxxxxxxxxxxxxxxxxxxxxxxxxxxxxxxxxxxxxxxxxxxxxxxxxxxxxxxx",
"xxxxxxxxxxxxxxxxxxxxxxxxxxxxxxxxxxxxxxxxxxxxxxxxxxxxxxxxxxxxxxxxxxxxxxxxxxxxxxxxxxxxxxxxxxxxxxxxxxxxxxxxxxxxxxxxxxxxxxxxxxxxxxxx",
"xxxxxxxxxxxxxxxxxxxxxxxxxxxxxxxxxxxxxxxxxxxxxxxxxxxxxxxxxxxxxxxxxxxxxxxxxxxxxxxxxxxxxxxxxxxxxxxxxxxxxxxxxxxxxxxxxxxxxxxxxxxxxxxx",
"xxxxxxxxxxxxxxxxxxxxxxxxxxxxxxxxxxxxxxxxxxxxxxxxxxxxxxxxxxxxxxxxxxxxxxxxxxxxxxxxxxxxxxxxxxxxxxxxxxxxxxxxxxxxxxxxxxxxxxxxxxxxxxxx",
"xxxxxxxxxxxxxxxxxxxxxxxxxxxxxxxxxxxxxxxxxxxxxxxxxxxxxxxxxxxxxxxxxxxxxxxxxxxxxxxxxxxxxxxxxxxxxxxxxxxxxxxxxxxxxxxxxxxxxxxxxxxxxxxx",
"xxxxxxxxxxxxxxxxxxxxxxxxxxxxxxxxxxxxxxxxxxxxxxxxxxxxxxxxxxxxxxxxxxxxxxxxxxxxxxxxxxxxxxxxxxxxxxxxxxxxxxxxxxxxxxxxxxxxxxxxxxxxxxxx",
"xxxxxxxxxxxxxxxxxxxxxxxxxxxxxxxxxxxxxxxxxxxxxxxxxxxxxxxxxxxxxxxxxxxxxxxxxxxxxxxxxxxxxxxxxxxxxxxxxxxxxxxxxxxxxxxxxxxxxxxxxxxxxxxx",
"xxxxxxxxxxxxxxxxxxxxxxxxxxxxxxxxxxxxxxxxxxxxxxxxxxxxxxxxxxxxxxxxxxxxxxxxxxxxxxxxxxxxxxxxxxxxxxxxxxxxxxxxxxxxxxxxxxxxxxxxxxxxxxxx",
"xxxxxxxxxxxxxxxxxxxxxxxxxxxxxxxxxxxxxxxxxxxxxxxxxxxxxxxxxxxxxxxxxxxxxxxxxxxxxxxxxxxxxxxxxxxxxxxxxxxxxxxxxxxxxxxxxxxxxxxxxxxxxxxx",
"xxxxxxxxxxxxxxxxxxxxxxxxxxxxxxxxxxxxxxxxxxxxxxxxxxxxxxxxxxxxxxxxxxxxxxxxxxxxxxxxxxxxxxxxxxxxxxxxxxxxxxxxxxxxxxxxxxxxxxxxxxxxxxxx",
"xxxxxxxxxxxxxxxxxxxxxxxxxxxxxxxxxxxxxxxxxxxxxxxxxxxxxxxxxxxxxxxxxxxxxxxxxxxxxxxxxxxxxxxxxxxxxxxxxxxxxxxxxxxxxxxxxxxxxxxxxxxxxxxx",
"xxxxxxxxxxxxxxxxxxxxxxxxxxxxxxxxxxxxxxxxxxxxxxxxxxxxxxxxxxxxxxxxxxxxxxxxxxxxxxxxxxxxxxxxxxxxxxxxxxxxxxxxxxxxxxxxxxxxxxxxxxxxxxxx",
"xxxxxxxxxxxxxxxxxxxxxxxxxxxxxxxxxxxxxxxxxxxxxxxxxxxxxxxxxxxxxxxxxxxxxxxxxxxxxxxxxxxxxxxxxxxxxxxxxxxxxxxxxxxxxxxxxxxxxxxxxxxxxxxx",
"xxxxxxxxxxxxxxxxxxxxxxxxxxxxxxxxxxxxxxxxxxxxxxxxxxxxxxxxxxxxxxxxxxxxxxxxxxxxxxxxxxxxxxxxxxxxxxxxxxxxxxxxxxxxxxxxxxxxxxxxxxxxxxxx",
"xxxxxxxxxxxxxxxxxxxxxxxxxxxxxxxxxxxxxxxxxxxxxxxxxxxxxxxxxxxxxxxxxxxxxxxxxxxxxxxxxxxxxxxxxxxxxxxxxxxxxxxxxxxxxxxxxxxxxxxxxxxxxxxx",
"xxxxxxxxxxxxxxxxxxxxxxxxxxxxxxxxxxxxxxxxxxxxxxxxxxxxxxxxxxxxxxxxxxxxxxxxxxxxxxxxxxxxxxxxxxxxxxxxxxxxxxxxxxxxxxxxxxxxxxxxxxxxxxxx",
"xxxxxxxxxxxxxxxxxxxxxxxxxxxxxxxxxxxxxxxxxxxxxxxxxxxxxxxxxxxxxxxxxxxxxxxxxxxxxxxxxxxxxxxxxxxxxxxxxxxxxxxxxxxxxxxxxxxxxxxxxxxxxxxx",
"xxxxxxxxxxxxxxxxxxxxxxxxxxxxxxxxxxxxxxxxxxxxxxxxxxxxxxxxxxxxxxxxxxxxxxxxxxxxxxxxxxxxxxxxxxxxxxxxxxxxxxxxxxxxxxxxxxxxxxxxxxxxxxxx",
"xxxxxxxxxxxxxxxxxxxxxxxxxxxxxxxxxxxxxxxxxxxxxxxxxxxxxxxxxxxxxxxxxxxxxxxxxxxxxxxxxxxxxxxxxxxxxxxxxxxxxxxxxxxxxxxxxxxxxxxxxxxxxxxx",
"xxxxxxxxxxxxxxxxxxxxxxxxxxxxxxxxxxxxxxxxxxxxxxxxxxxxxxxxxxxxxxxxxxxxxxxxxxxxxxxxxxxxxxxxxxxxxxxxxxxxxxxxxxxxxxxxxxxxxxxxxxxxxxxx",
"xxxxxxxxxxxxxxxxxxxxxxxxxxxxxxxxxxxxxxxxxxxxxxxxxxxxxxxxxxxxxxxxxxxxxxxxxxxxxxxxxxxxxxxxxxxxxxxxxxxxxxxxxxxxxxxxxxxxxxxxxxxxxxxx",
"xxxxxxxxxxxxxxxxxxxxxxxxxxxxxxxxxxxxxxxxxxxxxxxxxxxxxxxxxxxxxxxxxxxxxxxxxxxxxxxxxxxxxxxxxxxxxxxxxxxxxxxxxxxxxxxxxxxxxxxxxxxxxxxx",
"xxxxxxxxxxxxxxxxxxxxxxxxxxxxxxxxxxxxxxxxxxxxxxxxxxxxxxxxxxxxxxxxxxxxxxxxxxxxxxxxxxxxxxxxxxxxxxxxxxxxxxxxxxxxxxxxxxxxxxxxxxxxxxxx",
"xxxxxxxxxxxxxxxxxxxxxxxxxxxxxxxxxxxxxxxxxxxxxxxxxxxxxxxxxxxxxxxxxxxxxxxxxxxxxxxxxxxxxxxxxxxxxxxxxxxxxxxxxxxxxxxxxxxxxxxxxxxxxxxx",
"xxxxxxxxxxxxxxxxxxxxxxxxxxxxxxxxxxxxxxxxxxxxxxxxxxxxxxxxxxxxxxxxxxxxxxxxxxxxxxxxxxxxxxxxxxxxxxxxxxxxxxxxxxxxxxxxxxxxxxxxxxxxxxxx",
"xxxxxxxxxxxxxxxxxxxxxxxxxxxxxxxxxxxxxxxxxxxxxxxxxxxxxxxxxxxxxxxxxxxxxxxxxxxxxxxxxxxxxxxxxxxxxxxxxxxxxxxxxxxxxxxxxxxxxxxxxxxxxxxx",
"xxxxxxxxxxxxxxxxxxxxxxxxxxxxxxxxxxxxxxxxxxxxxxxxxxxxxxxxxxxxxxxxxxxxxxxxxxxxxxxxxxxxxxxxxxxxxxxxxxxxxxxxxxxxxxxxxxxxxxxxxxxxxxxx",
"xxxxxxxxxxxxxxxxxxxxxxxxxxxxxxxxxxxxxxxxxxxxxxxxxxxxxxxxxxxxxxxxxxxxxxxxxxxxxxxxxxxxxxxxxxxxxxxxxxxxxxxxxxxxxxxxxxxxxxxxxxxxxxxx",
"xxxxxxxxxxxxxxxxxxxxxxxxxxxxxxxxxxxxxxxxxxxxxxxxxxxxxxxxxxxxxxxxxxxxxxxxxxxxxxxxxxxxxxxxxxxxxxxxxxxxxxxxxxxxxxxxxxxxxxxxxxxxxxxx",
"xxxxxxxxxxxxxxxxxxxxxxxxxxxxxxxxxxxxxxxxxxxxxxxxxxxxxxxxxxxxxxxxxxxxxxxxxxxxxxxxxxxxxxxxxxxxxxxxxxxxxxxxxxxxxxxxxxxxxxxxxxxxxxxx",
"xxxxxxxxxxxxxxxxxxxxxxxxxxxxxxxxxxxxxxxxxxxxxxxxxxxxxxxxxxxxxxxxxxxxxxxxxxxxxxxxxxxxxxxxxxxxxxxxxxxxxxxxxxxxxxxxxxxxxxxxxxxxxxxx",
"xxxxxxxxxxxxxxxxxxxxxxxxxxxxxxxxxxxxxxxxxxxxxxxxxxxxxxxxxxxxxxxxxxxxxxxxxxxxxxxxxxxxxxxxxxxxxxxxxxxxxxxxxxxxxxxxxxxxxxxxxxxxxxxx",
"xxxxxxxxxxxxxxxxxxxxxxxxxxxxxxxxxxxxxxxxxxxxxxxxxxxxxxxxxxxxxxxxxxxxxxxxxxxxxxxxxxxxxxxxxxxxxxxxxxxxxxxxxxxxxxxxxxxxxxxxxxxxxxxx",
"xxxxxxxxxxxxxxxxxxxxxxxxxxxxxxxxxxxxxxxxxxxxxxxxxxxxkkkkkkxxxxxxxxxxxkkkkkkkkkkkkkkkkkkkkkkkkkkkkkkkkkxxxxxxxxxxxkkkkkkxxxxxxxxx",
"xxxxxxxxxxxxxxxxxxxxxxxxxxxxxxxxxxxxxxxxxxxxxxxxxxxkkkkkkkkkxxxxxxxxkkkkkkkkkkkkkkkkkkkkkkkkkkkkkkkkkkkkxxxxxxxxkkkkkkkkxxxxxxxx",
"xxxxxxxxxxxxxxxxxxxxxxxxxxxxxxxxxxxxxxxxxxxxxxxxxxkkkkkkkkkkkxxxxxxkkkkkkkkkkkkkkkkkkkkkkkkkkkkkkkkkkkkkxxxxxxxkkixxxxikkxxxxxxx",
"xxxxxxxxxxxxxxxxxxxxxxxxxxxxxxxxxxxxxxxxxxxxxxxxxkkkkkkkkkkkkxxxxxkkkkkkkkkkkkkkkkkkkkkkkkkkkkkkkkkkkkkkkxxxxxkkixxxxxxxkkxxxxxx",
"xxxxxxxxxxxxxxxxxxxxxxxxxxxxxxxxxxxxxxxxxxxxxxxxkkkkkkkkkkkkkkxxxxkkkkkkkkkkkkkkkkkkkkkkkkkkkkkkkkkkkkkkkkxxxxkkxxxxxxxxkkxxxxxx",
"xxxxxxxxxxxxxxxxxxxxxxxxxxxxxxxxxxxxxxxxxxxxxxxkkkkkkkkkkkkkkkxxxkkkkkkkkkkkkkkkkkkkkkkkkkkkkkkkkkkkkkkkkkxxxkk8xxxxxxxxikkxxxxx",
"xxxxxxxxxxxxxxxxxxxxxxxxxxxxxxxxxxxxxxxxxxxxxxkkkkkkkkkkkkkkkkxxxikkkkkkkkkkkkkkkkkkkkkkkkkkkkkkkkkkkkkkkkxxxikxxxxxxxxxxkixxxxx",
"xxxxxxxxxxxxxxxxxxxxxxxxxxxxxxxxxxxxxxxxxxxxxkkkkkkkkkkkkkkkkkxxxikkkkkkkkkkkkkkkkkkkkkkkkkkkkkkkkkkkkkkkkxxxik8xxxxxxxx8kixxxxx",
"xxxxxxxxxxxxxxxxxxxxxxxxxxxxxxxxxxxxxxxxxxxxkkkkkkkkkkkkkkkkkixxx,kkkkkkkkkkkkkkkkkkkkkkkkkkkkkkkkkkkkkkkixxxikixxxxxxxxikixxxxx",
"xxxxxxxxxxxxxxxxxxxxxxxxxxxxxxxxxxxxxxxxxxxkkkkkkkkkkkkkkkkkkkxxxxkkkkkkkkkkkkkkkkkkkkkkkkjkjkjkkkkkkkkkkxxxxikkixxxxxx8kkixxxxx",
"xxxxxxxxxxxxxxxxxxxxxxxxxxxxxxxxxxxxxxxxxxkkikkkkkkjkkkkkjkkkixxxx,ikkkkkkkjkkkkkkkkkkjkkkkkkjjkkkkkkkki8xxxxijjiixxxx8kkiixxxxx",
"xxxxxxxxxxxxxxxxxxxxxxxxxxxxxxxxxxxxxxxxxkkkkkkkkkkkkikkkkkikjxxxxx<kkkjijkjikkkkkkikkkkikkkjjkjkkijikk3xxxxxijkkkkkkikkkkixxxxx",
"xxxxxxxxxxxxxxxxxxxxxxxxxxxxxxxxxxxxxxxxikikkkkiikkkkiikkkjjkixxxxx.&8ikkkkjikjjkikkjjkkkkjjkkjkjjkjii:xxxxxxujjkijjjkkjkkyxxxxx",
"xxxxxxxxxxxxxxxxxxxxxxxxxxxxxxxxxxxxxxxkkkkjkikkkkikkkkkikjkkixxxxxx .@%&&&&&-8jkkikjjikkijji,%&&&&&#oxxxxxxxyjkkkjjkkijjj8xxxxx",
"xxxxxxxxxxxxxxxxxxxxxxxxxxxxxxxxxxxxxxikkkkkkkkkjkkkkkkkkjjkkixxxxxxx         *kkikkikkkjjki<.      xxxxxxxxxyjkkiikikkkjkuxxxxx",
"xxxxxxxxxxxxxxxxxxxxxxxxxxxxxxxxxxxxxkkkkiikkikkikikikkikkikkjxxxxxxxxxx      &ikiikkkikkiki-    xxxxxxxxxxxxyjiikjkikijik8xxxxx",
"xxxxxxxxxxxxxxxxxxxxxxxxxxxxxxxxxxxxikikkkkkiikikjkiikikjiikkixxxxxxxxxxxxxxx &kkjjkjijijjjk:xxxxxxxxxxxxxxxx8ikkjikkkikki8xxxxx",
"xxxxxxxxxxxxxxxxxxxxxxxxxxxxxxxxxxxikikiikiikkikkikkijikkikkiixxxxxxxxxxxxxxxx*ikiikikkijiji>xxxxxxxxxxxxxxxxyjkijkiikikki8xxxxx",
"xxxxxxxxxxxxxxxxxxxxxxxxxxxxxxxxxxkkkikkikiikiiiikkikikjikikiixxxxxxxxxxxxxxxx*ijjikikikkiki<xxxxxxxxxxxxxxxx8jiijijijjiik8xxxxx",
"xxxxxxxxxxxxxxxxxxxxxxxxxxxxxxxxxiiiikikikkkikkkjikiikijjijikixxxxxxxxxxxxxxxxxkijjijikiijijxxxxxxxxxxxxxxxxx8ijjijjjijjjiyxxxxx",
"xxxxxxxxxxxxxxxxxxxxxxxxxxxxxxxxikkikiikikiiikikjiikjijiijikiixxxxxxxxxxxxxxxxxikiikiijkjijixxxxxxxxxxxxxxxxxuiijijiijjiii8xxxxx",
"xxxxxxxxxxxxxxxxxxxxxxxxxxxxxxxikiikiikiiikiikiiikiiijijiijiiixxxxxxxxxxxxxxxxxiikiiikiikiiixxxxxxxxxxxxxxxxx8ijjiijiiijij8xxxxx",
"xxxxxxxxxxxxxxxxxxxxxxxxxxxxxxikiiikiikikikijiikjikijikijjjijixxxxxxxxxxxxxxxxxjijiiiiijikiixxxxxxxxxxxxxxxxxuiiijiiiijiii5xxxxx",
"xxxxxxxxxxxxxxxxxxxxxxxxxxxxxiiikikiiiiiiiiikiiiiiiiiiiiiiijiixxxxxxxxxxxxxxxxxiiiikjjiiiijixxxxxxxxxxxxxxxxx8ijiiiijiiiii5xxxxx",
"xxxxxxxxxxxxxxxxxxxxxxxxxxxxiiikiikikiiikiiiiii8iiijjiiiiiiiiixxxxxxxxxxxxxxxxxiijjiiiiiiiiixxxxxxxxxxxxxxxxx8iiiijiiiijii8xxxxx",
"xxxxxxxxxxxxxxxxxxxxxxxxxxxiiiiiiiiiiiikiiikii:X<jiiiiijijiiiuxxxxxxxxxxxxxxxxxiiiiiiiikiiiixxxxxxxxxxxxxxxxx5iiiiiiiiiiii8xxxxx",
"xxxxxxxxxxxxxxxxxxxxxxxxxxiiiiiiiiiiiiiiiiiii:. ;iiiiiiiiiiiiuxxxxxxxxxxxxxxxxxiiiiiiiiiuiiuxxxxxxxxxxxxxxxxx8iiiiiiiiiiii5xxxxx",
"xxxxxxxxxxxxxxxxxxxxxxxxxiiiiiiiiiiiiiiiiiii>.  ;iiiiiiiiiiiiuxxxxxxxxxxxxxxxxxiiuiiiuiiiiuixxxxxxxxxxxxxxxxx5eiiiiuieieui5xxxxx",
"xxxxxxxxxxxxxxxxxxxxxxxxiiiuiiuuiiiuiiiiiii;    ;iiuiuuiiiiiiexxxxxxxxxxxxxxxxxiuiuuuiuuiiuuxxxxxxxxxxxxxxxxx3eiuieiiiiiii3xxxxx",
"xxxxxxxxxxxxxxxxxxxxxxxuiuuiuiuiuiiuuiiii8;xxxxx>eiuuuuiiueiiexxxxxxxxxxxxxxxxxiuuuuuuuuuuuuxxxxxxxxxxxxxxxxx5iiieiuiueieu3xxxxx",
"xxxxxxxxxxxxxxxxxxxxxxiieieiuuuuuiuiiuiie;xxxxxx>euuiuuueiuii8xxxxxxxxxxxxxxxxxiuuuuuuuuuuuuxxxxxxxxxxxxxxxxx3eieuiueiieie3xxxxx",
"xxxxxxxxxxxxxxxxxxxxxieiiuiuuueieiieuiee-xxxxxxx,uuuueeuueueuuxxxxxxxxxxxxxxxxxuuueueueuueuexxxxxxxxxxxxxxxxx3uuueeueuueue3xxxxx",
"xxxxxxxxxxxxxxxxxxxxieeiieeuuuuueieeuee-xxxxxxxx,uuuuuuuueeii8xxxxxxxxxxxxxxxxxyueueueueueuuxxxxxxxxxxxxxxxxx3ueeueeueeueu3xxxxx",
"xxxxxxxxxxxxxxxxxxxeeeiueeieeueeuueue8=xxxxxxxxx,eueeueeuueueexxxxxxxxxxxxxxxxxyeueueueueueuxxxxxxxxxxxxxxxxx3eeueeueuueee3xxxxx",
"xxxxxxxxxxxxxxxxxxueuueeeueeueuueuue3$xxxxxxxxxx,eeeeuueeeueu8xxxxxxxxxxxxxxxxx8eu8ueeeeuuu8xxxxxxxxxxxxxxxxx3ee8uu8eeeuee3xxxxx",
"xxxxxxxxxxxxxxxxxeeueeuuueeuueeeeee3$xxx<3xxxxxx,eeeeeeeeeeeeexxxxxxxxxxxxxxxxxieeeueeeu8u8uxxxxxxxxxxxxxxxxx3eeueeeeeeeee2xxxxx",
"xxxxxxxxxxxxxxxxeu8eue8eeeeeeeuuee3$xx<eeee8xxxx,eeeueeeueu8e8xxxxxxxxxxxxxxxxx8eeeeee88u8u8xxxxxxxxxxxxxxxxx3ee8u8ueueeee2xxxxx",
"xxxxxxxxxxxxxxxeeeue8eeeeeeeee8ee3$xx<8eeeeeixxx>eeeeeee8eeee8xxxxxxxxxxxxxxxxxyu8eueeue8u8uxxxxxxxxxxxxxxxxx2e8u8u8e88eee2xxxxx",
"xxxxxxxxxxxxxx8ieuu8uueeu8eeeeee3$xxx88uue8ue8xx>e8eeu8ee8uu88xxxxxxxxxxxxxxxxx8u5u85u8euu88xxxxxxxxxxxxxxxxx38e8e8eee8ee82xxxxx",
"xxxxxxxxxxxxxe88888e88e88e8u8e82$xxxx8u88ee888xx>ee8888ee888e8xxxxxxxxxxxxxxxxxye85eu5u5888uxxxxxxxxxxxxxxxxx2e8e8e88ee88e2xxxxx",
"xxxxxxxxxxxx8i8ee8eeee8eeee8e83#xxxxx8888ee8e8xx;8eee8e88ee888xxxxxxxxxxxxxxxxx88e8u5e8u5u88xxxxxxxxxxxxxxxxx28ee8e5e8e8e82xxxxx",
"xxxxxxxxxxx8e8ee8e8e88e88e8883#xxxxxx8e888e888xx;e8e5e8eee8888xxxxxxxxxxxxxxxxx85u5585e585u5xxxxxxxxxxxxxxxxx2e8588e8885e82xxxxx",
"xxxxxxxxxxe8888858ee58e5e8e53#xxxxxxx<885885e,xx;8e88ee8ee5855xxxxxxxxxxxxxxxxx8888885u58888xxxxxxxxxxxxxxxxx<888e558888851xxxxx",
"xxxxxxxxx8888e88e88888855882#xxxxxxxxx3588u8<xxx;8588858558555xxxxxxxxxxxxxxxxx5888888588888xxxxxxxxxxxxxxxxx28558588558582xxxxx",
"xxxxxxxx3888888e85585e5e5e2@xxxxxxxxxxO-111*xxxx;85558585e5555xxxxxxxxxxxxxxxxx5885858585555xxxxxxxxxxxxxxxxx355e5555555552xxxxx",
"xxxxxxxx355855558855858551@xxxxxxxxxxxx ...xxxxx;5555558555858xxxxxxxxxxxxxxxxx8555555555555xxxxxxxxxxxxxxxxx<5555555555551xxxxx",
"xxxxxxxx5555555855555555<xxxxxxxxxxxxxxxxxxxxxxx;5555555555553xxxxxxxxxxxxxxxxx8555555555555xxxxxxxxxxxxxxxxx28855555355551xxxxx",
"xxxxxxxx3555555555555552xxxxxxxxxxxxxxxxxxxxxxxx-5555555555533xxxxxxxxxxxxxxxxx3555355555835xxxxxxxxxxxxxxxxx<5335553535381xxxxx",
"xxxxxxxx25533555553855<xxxxxxxxxxxxxxxxxxxxxxxxx*5535383555552xxxxxxxxxxxxxxxxx2355555358383xxxxxxxxxxxxxxxxx>3355335333331xxxxx",
"xxxxxxxx;355553553585<xxxxxxxxxxxxxxxxxxxxxxxxxxx235353335333<xxxxxxxxxxxxxxxxx<333533333333xxxxxxxxxxxxxxxxx$353353355353xxxxxx",
"xxxxxxxxx23333538335<xxxxxxxxxxxxxxxxxxxxxxxxxxxx-83535353333xxxxxxxxxxxxxxxxxx#23333333333xxxxxxxxxxxxxxxxxxx,33333333331xxxxxx",
"xxxxxxxxx%333533333;xxxxxxxxxxxxxxxxxxxxxxxxxxxxxx;333333332xxxxxxxxxxxxxxxxxxxx&233333333<xxxxxxxxxxxxxxxxxxx+<333333331xxxxxxx",
"xxxxxxxxx #<333332-Xxxxxxxxxxxxxxxxxxxxxxxxxxxxxxxo-2333331%xxxxxxxxxxxxxxxxxxxx $<33323<-xxxxxxxxxxxxxxxxxxxxxO;223322<xxxxxxxx",
"xxxxxxxxxx X@&&&%+xxxxxxxxxxxxxxxxxxxxxxxxxxxxxxxx  +%%&%$xxxxxxxxxxxxxxxxxxxxxxx o$%&&%Oxxxxxxxxxxxxxxxxxxxxxx  +%&&&#xxxxxxxxx",
"xxxxxxxxxxx      xxxxxxxxxxxxxxxxxxxxxxxxxxxxxxxxxx      xxxxxxxxxxxxxxxxxxxxxxxxx      xxxxxxxxxxxxxxxxxxxxxxxx      xxxxxxxxxx",
"xxxxxxxxxxxxxxxxxxxxxxxxxxxxxxxxxxxxxxxxxxxxxxxxxxxxxxxxxxxxxxxxxxxxxxxxxxxxxxxxxxxxxxxxxxxxxxxxxxxxxxxxxxxxxxxxxxxxxxxxxxxxxxxx",
"xxxxxxxxxxxxxxxxxxxxxxxxxxxxxxxxxxxxxxxxxxxxxxxxxxxxxxxxxxxxxxxxxxxxxxxxxxxxxxxxxxxxxxxxxxxxxxxxxxxxxxxxxxxxxxxxxxxxxxxxxxxxxxxx",
"xxxxxxxxxxxxxxxxxxxxxxxxxxxxxxxxxxxxxxxxxxxxxxxxxxxxxxxxxxxxxxxxxxxxxxxxxxxxxxxxxxxxxxxxxxxxxxxxxxxxxxxxxxxxxxxxxxxxxxxxxxxxxxxx",
"xxxxxxxxxxxxxxxxxxxxxxxxxxxxxxxxxxxxxxxxxxxxxxxxxxxxxxxxxxxxxxxxxxxxxxxxxxxxxxxxxxxxxxxxxxxxxxxxxxxxxxxxxxxxxxxxxxxxxxxxxxxxxxxx",
"xxxxxxxxxxxxxxxxxxxxxxxxxxxxxxxxxxxxxxxxxxxxxxxxxxxxxxxxxxxxxxxxxxxxxxxxxxxxxxxxxxxxxxxxxxxxxxxxxxxxxxxxxxxxxxxxxxxxxxxxxxxxxxxx",
"xxxxxxxxxxxxxxxxxxxxxxxxxxxxxxxxxxxxxxxxxxxxxxxxxxxxxxxxxxxxxxxxxxxxxxxxxxxxxxxxxxxxxxxxxxxxxxxxxxxxxxxxxxxxxxxxxxxxxxxxxxxxxxxx",
"xxxxxxxxxxxxxxxxxxxxxxxxxxxxxxxxxxxxxxxxxxxxxxxxxxxxxxxxxxxxxxxxxxxxxxxxxxxxxxxxxxxxxxxxxxxxxxxxxxxxxxxxxxxxxxxxxxxxxxxxxxxxxxxx",
"xxxxxxxxxxxxxxxxxxxxxxxxxxxxxxxxxxxxxxxxxxxxxxxxxxxxxxxxxxxxxxxxxxxxxxxxxxxxxxxxxxxxxxxxxxxxxxxxxxxxxxxxxxxxxxxxxxxxxxxxxxxxxxxx",
"xxxxxxxxxxxxxxxxxxxxxxxxxxxxxxxxxxxxxxxxxxxxxxxxxxxxxxxxxxxxxxxxxxxxxxxxxxxxxxxxxxxxxxxxxxxxxxxxxxxxxxxxxxxxxxxxxxxxxxxxxxxxxxxx",
"xxxxxxxxxxxxxxxxxxxxxxxxxxxxxxxxxxxxxxxxxxxxxxxxxxxxxxxxxxxxxxxxxxxxxxxxxxxxxxxxxxxxxxxxxxxxxxxxxxxxxxxxxxxxxxxxxxxxxxxxxxxxxxxx",
"xxxxxxxxxxxxxxxxxxxxxxxxxxxxxxxxxxxxxxxxxxxxxxxxxxxxxxxxxxxxxxxxxxxxxxxxxxxxxxxxxxxxxxxxxxxxxxxxxxxxxxxxxxxxxxxxxxxxxxxxxxxxxxxx",
"xxxxxxxxxxxxxxxxxxxxxxxxxxxxxxxxxxxxxxxxxxxxxxxxxxxxxxxxxxxxxxxxxxxxxxxxxxxxxxxxxxxxxxxxxxxxxxxxxxxxxxxxxxxxxxxxxxxxxxxxxxxxxxxx",
"xxxxxxxxxxxxxxxxxxxxxxxxxxxxxxxxxxxxxxxxxxxxxxxxxxxxxxxxxxxxxxxxxxxxxxxxxxxxxxxxxxxxxxxxxxxxxxxxxxxxxxxxxxxxxxxxxxxxxxxxxxxxxxxx",
"xxxxxxxxxxxxxxxxxxxxxxxxxxxxxxxxxxxxxxxxxxxxxxxxxxxxxxxxxxxxxxxxxxxxxxxxxxxxxxxxxxxxxxxxxxxxxxxxxxxxxxxxxxxxxxxxxxxxxxxxxxxxxxxx",
"xxxxxxxxxxxxxxxxxxxxxxxxxxxxxxxxxxxxxxxxxxxxxxxxxxxxxxxxxxxxxxxxxxxxxxxxxxxxxxxxxxxxxxxxxxxxxxxxxxxxxxxxxxxxxxxxxxxxxxxxxxxxxxxx",
"xxxxxxxxxxxxxxxxxxxxxxxxxxxxxxxxxxxxxxxxxxxxxxxxxxxxxxxxxxxxxxxxxxxxxxxxxxxxxxxxxxxxxxxxxxxxxxxxxxxxxxxxxxxxxxxxxxxxxxxxxxxxxxxx",
"xxxxxxxxxxxxxxxxxxxxxxxxxxxxxxxxxxxxxxxxxxxxxxxxxxxxxxxxxxxxxxxxxxxxxxxxxxxxxxxxxxxxxxxxxxxxxxxxxxxxxxxxxxxxxxxxxxxxxxxxxxxxxxxx",
"xxxxxxxxxxxxxxxxxxxxxxxxxxxxxxxxxxxxxxxxxxxxxxxxxxxxxxxxxxxxxxxxxxxxxxxxxxxxxxxxxxxxxxxxxxxxxxxxxxxxxxxxxxxxxxxxxxxxxxxxxxxxxxxx",
"xxxxxxxxxxxxxxxxxxxxxxxxxxxxxxxxxxxxxxxxxxxxxxxxxxxxxxxxxxxxxxxxxxxxxxxxxxxxxxxxxxxxxxxxxxxxxxxxxxxxxxxxxxxxxxxxxxxxxxxxxxxxxxxx",
"xxxxxxxxxxxxxxxxxxxxxxxxxxxxxxxxxxxxxxxxxxxxxxxxxxxxxxxxxxxxxxxxxxxxxxxxxxxxxxxxxxxxxxxxxxxxxxxxxxxxxxxxxxxxxxxxxxxxxxxxxxxxxxxx",
"xxxxxxxxxxxxxxxxxxxxxxxxxxxxxxxxxxxxxxxxxxxxxxxxxxxxxxxxxxxxxxxxxxxxxxxxxxxxxxxxxxxxxxxxxxxxxxxxxxxxxxxxxxxxxxxxxxxxxxxxxxxxxxxx",
"xxxxxxxxxxxxxxxxxxxxxxxxxxxxxxxxxxxxxxxxxxxxxxxxxxxxxxxxxxxxxxxxxxxxxxxxxxxxxxxxxxxxxxxxxxxxxxxxxxxxxxxxxxxxxxxxxxxxxxxxxxxxxxxx",
"xxxxxxxxxxxxxxxxxxxxxxxxxxxxxxxxxxxxxxxxxxxxxxxxxxxxxxxxxxxxxxxxxxxxxxxxxxxxxxxxxxxxxxxxxxxxxxxxxxxxxxxxxxxxxxxxxxxxxxxxxxxxxxxx",
"xxxxxxxxxxxxxxxxxxxxxxxxxxxxxxxxxxxxxxxxxxxxxxxxxxxxxxxxxxxxxxxxxxxxxxxxxxxxxxxxxxxxxxxxxxxxxxxxxxxxxxxxxxxxxxxxxxxxxxxxxxxxxxxx",
"xxxxxxxxxxxxxxxxxxxxxxxxxxxxxxxxxxxxxxxxxxxxxxxxxxxxxxxxxxxxxxxxxxxxxxxxxxxxxxxxxxxxxxxxxxxxxxxxxxxxxxxxxxxxxxxxxxxxxxxxxxxxxxxx",
"xxxxxxxxxxxxxxxxxxxxxxxxxxxxxxxxxxxxxxxxxxxxxxxxxxxxxxxxxxxxxxxxxxxxxxxxxxxxxxxxxxxxxxxxxxxxxxxxxxxxxxxxxxxxxxxxxxxxxxxxxxxxxxxx",
"xxxxxxxxxxxxxxxxxxxxxxxxxxxxxxxxxxxxxxxxxxxxxxxxxxxxxxxxxxxxxxxxxxxxxxxxxxxxxxxxxxxxxxxxxxxxxxxxxxxxxxxxxxxxxxxxxxxxxxxxxxxxxxxx",
"xxxxxxxxxxxxxxxxxxxxxxxxxxxxxxxxxxxxxxxxxxxxxxxxxxxxxxxxxxxxxxxxxxxxxxxxxxxxxxxxxxxxxxxxxxxxxxxxxxxxxxxxxxxxxxxxxxxxxxxxxxxxxxxx",
"xxxxxxxxxxxxxxxxxxxxxxxxxxxxxxxxxxxxxxxxxxxxxxxxxxxxxxxxxxxxxxxxxxxxxxxxxxxxxxxxxxxxxxxxxxxxxxxxxxxxxxxxxxxxxxxxxxxxxxxxxxxxxxxx",
"xxxxxxxxxxxxxxxxxxxxxxxxxxxxxxxxxxxxxxxxxxxxxxxxxxxxxxxxxxxxxxxxxxxxxxxxxxxxxxxxxxxxxxxxxxxxxxxxxxxxxxxxxxxxxxxxxxxxxxxxxxxxxxxx",
"xxxxxxxxxxxxxxxxxxxxxxxxxxxxxxxxxxxxxxxxxxxxxxxxxxxxxxxxxxxxxxxxxxxxxxxxxxxxxxxxxxxxxxxxxxxxxxxxxxxxxxxxxxxxxxxxxxxxxxxxxxxxxxxx",
"xxxxxxxxxxxxxxxxxxxxxxxxxxxxxxxxxxxxxxxxxxxxxxxxxxxxxxxxxxxxxxxxxxxxxxxxxxxxxxxxxxxxxxxxxxxxxxxxxxxxxxxxxxxxxxxxxxxxxxxxxxxxxxxx",
"xxxxxxxxxxxxxxxxxxxxxxxxxxxxxxxxxxxxxxxxxxxxxxxxxxxxxxxxxxxxxxxxxxxxxxxxxxxxxxxxxxxxxxxxxxxxxxxxxxxxxxxxxxxxxxxxxxxxxxxxxxxxxxxx",
"xxxxxxxxxxxxxxxxxxxxxxxxxxxxxxxxxxxxxxxxxxxxxxxxxxxxxxxxxxxxxxxxxxxxxxxxxxxxxxxxxxxxxxxxxxxxxxxxxxxxxxxxxxxxxxxxxxxxxxxxxxxxxxxx",
"xxxxxxxxxxxxxxxxxxxxxxxxxxxxxxxxxxxxxxxxxxxxxxxxxxxxxxxxxxxxxxxxxxxxxxxxxxxxxxxxxxxxxxxxxxxxxxxxxxxxxxxxxxxxxxxxxxxxxxxxxxxxxxxx"
};
