/* XPM */
static char *DC__[] = {
/* columns rows colors chars-per-pixel */
"128 128 64 1 ",
"  c #030703070307",
". c #1E211E211E21",
"X c #389138913891",
"o c #4F144F144F14",
"O c #66E164536453",
"+ c #7A6E7A6E7A6E",
"@ c #8A2A8A2A8A2A",
"# c #908194989498",
"$ c #9E569E569E56",
"% c #A034A3DBA034",
"& c #A921A921A921",
"* c #AFCBB2F8AFCB",
"= c #B60BB60BB60B",
"- c #C2A7C2A7C2A7",
"; c #C7A5C532C532",
": c #CB29CB29CB29",
"> c #D39FD39FD39F",
", c #DBB2DBB2DBB2",
"< c #E1C0E1C0E1C0",
"1 c #E46CE3C6E3C6",
"2 c #E3C6E46CE3C6",
"3 c #E50EE50EE3C6",
"4 c #E3C6E3C6E46C",
"5 c #E6E1E6E1E6E1",
"6 c #E898E924E898",
"7 c #E9ADE9ADE9AD",
"8 c #ECEFECEFECD5",
"9 c #EEDDEEDDEEDD",
"0 c #F076F013F013",
"q c #F013F076F013",
"w c #F076F076F013",
"e c #F013F013F076",
"r c #F076F013F076",
"t c #F013F076F076",
"y c #F193F193F193",
"u c #F311F31AF325",
"i c #F47FF47FF47F",
"p c #F59EF558F558",
"a c #F558F59EF558",
"s c #F59EF59EF558",
"d c #F558F558F59E",
"f c #F59EF558F59E",
"g c #F558F59EF59E",
"h c #F665F665F665",
"j c #F794F75AF75A",
"k c #F75AF794F75A",
"l c #F794F794F75A",
"z c #F75AF75AF794",
"x c #F794F75AF794",
"c c #F75AF794F794",
"v c #F83AF83AF83A",
"b c #F925F918F914",
"n c #F9C1F9C1F9C1",
"m c #FA94FA6CFA6C",
"M c #FA6CFA94FA6C",
"N c #FA94FA94FA6C",
"B c #FA6CFA6CFA94",
"V c #FA94FA6CFA94",
"C c #FA6CFA94FA94",
"Z c #FB08FB08FB08",
"A c #FC1BFC19FC1D",
"S c #FCFCFCFCFCFB",
"D c #FDE8FDE8FDE9",
"F c None",
/* pixels */
"FFFFFFFFFFFFFFFFFFFFFFFFFFFFFFFFFFFFFFFFFFFFFFFFFFFFFFFFFFFFFFFFFFFFFFFFFFFFFFFFFFFFFFFFFFFFFFFFFFFFFFFFFFFFFFFFFFFFFFFFFFFFFFFF",
"FFFFFFFFFFFFFFFFFFFFFFFFFFFFFFFFFFFFFFFFFFFFFFFFFFFFFFFFFFFFFFFFFFFFFFFFFFFFFFFFFFFFFFFFFFFFFFFFFFFFFFFFFFFFFFFFFFFFFFFFFFFFFFFF",
"FFFFFFFFFFFFFFFFFFFFFFFFFFFFFFFFFFFFFFFFFFFFFFFFFFFFFFFFFFFFFFFFFFFFFFFFFFFFFFFFFFFFFFFFFFFFFFFFFFFFFFFFFFFFFFFFFFFFFFFFFFFFFFFF",
"FFFFFFFFFFFFFFFFFFFFFFFFFFFFFFFFFFFFFFFFFFFFFFFFFFFFFFFFFFFFFFFFFFFFFFFFFFFFFFFFFFFFFFFFFFFFFFFFFFFFFFFFFFFFFFFFFFFFFFFFFFFFFFFF",
"FFFFFFFFFFFFFFFFFFFFFFFFFFFFFFFFFFFFFFFFFFFFFFFFFFFFFFFFFFFFFFFFFFFFFFFFFFFFFFFFFFFFFFFFFFFFFFFFFFFFFFFFFFFFFFFFFFFFFFFFFFFFFFFF",
"FFFFFFFFFFFFFFFFFFFFFFFFFFFFFFFFFFFFFFFFFFFFFFFFFFFFFFFFFFFFFFFFFFFFFFFFFFFFFFFFFFFFFFFFFFFFFFFFFFFFFFFFFFFFFFFFFFFFFFFFFFFFFFFF",
"FFFFFFFFFFFFFFFFFFFFFFFFFFFFFFFFFFFFFFFFFFFFFFFFFFFFFFFFFDDDDDDDDDDDDDDDDFFFFFFFFFFFFFFFFFFFFFFFFFFFFFFFFFFFFFFFFFFFFFFFFFFFFFFF",
"FFFFFFFFFFFFFFFFFFFFFFFFFFFFFFFFFFFFFFFFFFFFFFFFFFFFDDDDDDDDDDDDDDDDDDDDDDDDDDFFFFFFFFFFFFFFFFFFFFFFFFFFFFFFFFFFFFFFFFFFFFFFFFFF",
"FFFFFFFFFFFFFFFFFFFFFFFFFFFFFFFFFFFFFFFFFFFFFFFFFDDDDDDDDDDDDDDDDDDDDDDDDDDDDDDDDFFFFFFFFFFFFFFFFFFFFFFFFFFFFFFFFFFFFFFFFFFFFFFF",
"FFFFFFFFFFFFFFFFFFFFFFFFFFFFFFFFFFFFFFFFFFFFFDDDDDDDDDDDDDDDDDDDDDDDDDDDDDDDDDDDDDDDFFFFFFFFFFFFFFFFFFFFFFFFFFFFFFFFFFFFFFFFFFFF",
"FFFFFFFFFFFFFFFFFFFFFFFFFFFFFFFFFFFFFFFFFFFDDDDDDDDDDDDDDDDDDDDDDDDDDDDDDDDDDDDDDDDDDDDFFFFFFFFFFFFFFFFFFFFFFFFFFFFFFFFFFFFFFFFF",
"FFFFFFFFFFFFFFFFFFFFFFFFFFFFFFFFFFFFFFFFFDDDDDDDDDDDDDDDDDDDDDDDDDDDDDDDDDDDDDDDDDDDDDDDDFFFFFFFFFFFFFFFFFFFFFFFFFFFFFFFFFFFFFFF",
"FFFFFFFFFFFFFFFFFFFFFFFFFFFFFFFFFFFFFFFDDDDDDDDDDDDDDDDDDDDDDDDDDDDDDDDDDDDDDDDDDDDDDDDDDDDFFFFFFFFFFFFFFFFFFFFFFFFFFFFFFFFFFFFF",
"FFFFFFFFFFFFFFFFFFFFFFFFFFFFFFFFFFFFFDDDDDDDDDDDDDDDDDDDDDDDDDDDDDDDDDDDDDDDDDDDDDDDDDDDDDDDDFFFFFFFFFFFFFFFFFFFFFFFFFFFFFFFFFFF",
"FFFFFFFFFFFFFFFFFFFFFFFFFFFFFFFFFFFDDDDDDDDDDDDDDDDDDDDDDDDDDDDDDDDDDDDDDDDDDDDDDDDDDDDDDDDDDDDFFFFFFFFFFFFFFFFFFFFFFFFFFFFFFFFF",
"FFFFFFFFFFFFFFFFFFFFFFFFFFFFFFFFFFDDDDDDDDDDDDDDDDDDDDDDDDDDDDDDDDDDDDDDDDDDDDDDDDDDDDDDDDDDDDDDFFFFFFFFFFFFFFFFFFFFFFFFFFFFFFFF",
"FFFFFFFFFFFFFFFFFFFFFFFFFFFFFFFFADDDDDDDDADDADDDDDDDDDDDDADDDDDDDDDDDDDDDDDDDDDDDDDDDADDDDADDDDDDDFFFFFFFFFFFFFFFFFFFFFFFFFFFFFF",
"FFFFFFFFFFFFFFFFFFFFFFFFFFFFFFFDDADDDDDDDDDDDDDDDDDDDADDDDDDDADDDDDDDDDDADDDDADDADDDDDDDDDDDDDDDDDDFFFFFFFFFFFFFFFFFFFFFFFFFFFFF",
"FFFFFFFFFFFFFFFFFFFFFFFFFFFFFFDDDDDADDADADDDDDDDADDDDDDDDDDDDDDDDDDDDADDDDDDDDDADDDADDDDDDDDDDDADDDDFFFFFFFFFFFFFFFFFFFFFFFFFFFF",
"FFFFFFFFFFFFFFFFFFFFFFFFFFFFDDDDDDDDDDDDDDDDDDADDDADDDDDDDADDDDADDDDDDDDDADDDDDDDDDDDADDADDDADDDADDDDDFFFFFFFFFFFFFFFFFFFFFFFFFF",
"FFFFFFFFFFFFFFFFFFFFFFFFFFFADDDDDDADDDADDDDDDDDDDADDADDDDDDADADDDDDDDDDADDDDDDDDDDADDDDADDDDDADDDDDDADAFFFFFFFFFFFFFFFFFFFFFFFFF",
"FFFFFFFFFFFFFFFFFFFFFFFFFFADDADDDDDDDDDDDDDADAADDDDADDDAADDDDDDDDDAAADDDADDAADADADDDADDDADADDDADADDADDDDFFFFFFFFFFFFFFFFFFFFFFFF",
"FFFFFFFFFFFFFFFFFFFFFFFFFDDAADADDAADADDDADDDDADADDDDAADDDDDDDADDADDDDDDADDDDDDADDADDADADDDADDAADDDADDDADDFFFFFFFFFFFFFFFFFFFFFFF",
"FFFFFFFFFFFFFFFFFFFFFFFFADDDDDDADDDDDAADDAADAAAcccccADADADAADDADDADDAADDDADADADDDDADDADDADDADDDDADADADDDADFFFFFFFFFFFFFFFFFFFFFF",
"FFFFFFFFFFFFFFFFFFFFFFFADADDDDADDDADADADADA9:OXX. XXO:9AADADADDADDADDADADDADDADDADDDADDDDDDADDADDAADDADDADAFFFFFFFFFFFFFFFFFFFFF",
"FFFFFFFFFFFFFFFFFFFFFFADDDADADDAADDDDADA8&o.          .o=9ADDADAADDAADDDADDAADDADADADDAAADADADDAADDAADDADDDAFFFFFFFFFFFFFFFFFFFF",
"FFFFFFFFFFFFFFFFFFFFFFADADADDAADADDADA9&    FFFFFFFF     .&uADADDADAADDDDDADDAADADADDADADADADAADDADDADADDADAFFFFFFFFFFFFFFFFFFFF",
"FFFFFFFFFFFFFFFFFFFFFDDADADADDADDADAA,. FFFFFFFFFFFFFFFF   o6ADAADADDAAAAADAADDADADADAADADADADDAADDADADAADADDFFFFFFFFFFFFFFFFFFF",
"FFFFFFFFFFFFFFFFFFFFADADDDDAADADADAc= FFFFFFFFFFFFFFFFFFFF   :cDDADADADDDAADAAADADADDADADAADAAADADAAAADDDDAADAFFFFFFFFFFFFFFFFFF",
"FFFFFFFFFFFFFFFFFFFAADDAAAADDADAAAcOFFFFFFFFFFFFFFFFFFFFFFFF  @uADDADAAAADDDADADDAADDAADADDAADDADADDADAAAAADADAFFFFFFFFFFFFFFFFF",
"FFFFFFFFFFFFFFFFFFFADAADADAAADAAAc+FFFFFFFFFFFFFFFFFFFFFFFFFF  +cAAAAAADAADADADAAAAAAAAAAAAADDADAADAAADAADAAAADFFFFFFFFFFFFFFFFF",
"FFFFFFFFFFFFFFFFFFADADAADADADADAA%FFFFFFFFFFFFFFFFFFFFFFFFFFFF  &AAAADDADAAAAAADADDAADDADAADAAAADAADADAAADADADDDFFFFFFFFFFFFFFFF",
"FFFFFFFFFFFFFFFFFAADAAAADADAAAAA>FFFFFFFFFFFFFFFFFFFFFFFFFFFFFF  >AASAAASAAAASAAAAAAAVvvvvvvvAAAAAAAAADASSASASAAAFFFFFFFFFFFFFFF",
"FFFFFFFFFFFFFFFFFAAAADADAADADAD6FFFFFFFFFFFFFFFFFFFFFFFFFFFFFFFF .uAASSSASAAAAAAAAvu8r57877768uvAAAAAAAAASSAAASSAFFFFFFFFFFFFFFF",
"FFFFFFFFFFFFFFFFAADAADAAAAAAAAAFFFFFFFFFFFFFFFFFFFFFFFFFFFFFFFFFF &ASASASAAAAAAvur875877567677778ucAAAAAAASAAAAASSFFFFFFFFFFFFFF",
"FFFFFFFFFFFFFFFcAAAAAAAADAADAA8FFFFFFFFFFFFFFFFFFFFFFFFFFFFFFFFFFF.8SAASAAAAAAx86558557567677757668uAAAASAAAASSASSFFFFFFFFFFFFFF",
"FFFFFFFFFFFFFFFAAADAAAAAAAAAAAFFFFFFFFFFFFFFFFFFFFFFFFFFFFFFFFFFFFF-bAAAAAAAvr86675877777767577758869uAAAAAAAAAAAAAFFFFFFFFFFFFF",
"FFFFFFFFFFFFFFcAAAAAAAAAAAAAAcFFFFFFFFFFFFFFFFFFFFFFFFFFFFFFFFFFFFF.uAAAAAAh77578565757767777777665668uAVAAAAAAAAAAFFFFFFFFFFFFF",
"FFFFFFFFFFFFFFAAAAAAAAAAAAAAA2FFFFFFFFFFFFFFFFFFFFFFFFFFFFFFFFFFFFFF1AAAAAu8777777857775777777776666856uVAAAAAAAAAAAFFFFFFFFFFFF",
"FFFFFFFFFFFFFFAAAAAAAAAAAAAAAFFFFFFFFFFFFFFFFFFFFFFFFFFFFFFFFFFFFFFF&AAAbu857757775877777777775758655858uVVAAVAAAAAAFFFFFFFFFFFF",
"FFFFFFFFFFFFFAAAAAAAAAAcAAAAcFFFFFFFFFFFFFFFFFFFFFFFFFFFFFFFFFFFFFFFObAbx85777777777757777777777656877777hVAAAAAAAcAAFFFFFFFFFFF",
"FFFFFFFFFFFFFAAAbAAAbAAAAAAAcFFFFFFFFFFFFFFFFFFFFFFFFFFFFFFFFFFFFFFFFhbcr776777577777777775777778565577777hAVAVAAAAAAFFFFFFFFFFF",
"FFFFFFFFFFFFuAAAAAAAAAAAAAAAFFFFFFFFFFFFFFFFFFFFFFFFFFFFFFFFFFFFFFFFF0cr7777777757757777577757758585776666rbAAAAAAAAAAFFFFFFFFFF",
"FFFFFFFFFFFFAAAAAAAAAAAAAAAAFFFFFFFFFFFFFFFFFFFFFFFFFFFFFFFFFFFFFFFFF1u877577777777777757777777758587777666uVVVVcAAAAvFFFFFFFFFF",
"FFFFFFFFFFFFAAAAAAAAAAAAAAAAFFFFFFFFFFFFFFFFFFFFFFFFFFFFFFFFFFFFFFFFF=98757777577777777777777577685686777778vAVAAAcAAcFFFFFFFFFF",
"FFFFFFFFFFFucAAAbAAbbAvAcAcAFFFFFFFFFFFFFFFFFFFFFFFFFFFFFFFFFFFFFFFFF=85777777777757577777757777858556667777uVVAAAAAAAAFFFFFFFFF",
"FFFFFFFFFFFAAccAAAAAAAAAAAAAFFFFFFFFFFFFFFFFFFFFFFFFFFFFFFFFFFFFFFFFF>56777775777777777575777757256666867775rbVVAAvAAcAFFFFFFFFF",
"FFFFFFFFFFFAAAAAcAAcAAvAAcAAFFFFFFFFFFFFFFFFFFFFFFFFFFFFFFFFFFFFFFFFF,657577777775757777777577776885666577777hbAAcAAAAAFFFFFFFFF",
"FFFFFFFFFF9AAvbAAbvAAAbAAAbbcFFFFFFFFFFFFFFFFFFFFFFFFFFFFFFFFFFFFFFF@2885868585875777777577757777757777776776uvVvAcAvAAFFFFFFFFF",
"FFFFFFFFFFuAAAAAAAAAbAbAvAAAcFFFFFFFFFFFFFFFFFFFFFFFFFFFFFFFFFFFFFFF%5558558656577777577777777777777757777666rvVAAAvAAvcFFFFFFFF",
"FFFFFFFFFFcAAAbAcAcbAAAbAAvAAFFFFFFFFFFFFFFFFFFFFFFFFFFFFFFFFFFFFFFF-5585586668577777777775777777577777767666rxbvAAvAvAvFFFFFFFF",
"FFFFFFFFFFcAcAAcAAAAccAAcAAAAFFFFFFFFFFFFFFFFFFFFFFFFFFFFFFFFFFFFFFF>58568556865775777575777775777775775766658xVAAvAAvAbFFFFFFFF",
"FFFFFFFFFFAcAvvAbAAbAAbAAcAbAcFFFFFFFFFFFFFFFFFFFFFFFFFFFFFFFFFFFFFF,88677575686775777577777777777757777767768xvcAAbAbAbFFFFFFFF",
"FFFFFFFFFFAAvAAvAcAAAcAbAvbAAAFFFFFFFFFFFFFFFFFFFFFFFFFFFFFFFFFFFFF$255577776666777777777757777577775777677768uvcAcAAbvAFFFFFFFF",
"FFFFFFFFF9vAAAAAbAAvbcbAAAAcAccFFFFFFFFFFFFFFFFFFFFFFFFFFFFFFFFFFFF,566875666666777777777777777777777757777768uvvbAbvbbAFFFFFFFF",
"FFFFFFFFF9bAvvbbAcAcAAAccAcAAbAFFFFFFFFFFFFFFFFFFFFFFFFFFFFFFFFFFFF8266677865866577775777577577775777777777768hxAvvAbAAcAFFFFFFF",
"FFFFFFFFF8AcvAvAvAvAbAbbbAvAvAvcFFFFFFFFFFFFFFFFFFFFFFFFFFFFFFFFFFu8175777777577577775757777577777777777777668hxcAAvcAvvcFFFFFFF",
"FFFFFFFFFccAAvAvAcAvbbbAAvbcAbbAFFFFFFFFFFFFFFFFFFFFFFFFFFFFFFFFFuf8777777757777777777777577777757777577777668uxvvvAbvAAcFFFFFFF",
"FFFFFFFFFcAcAvbvvvcvAbAbbvAbvbAbAFFFFFFFFFFFFFFFFFFFFFFFFFFFFFFFFAf8877757777777775777577777777577777775678678uvAvbvAcAcvFFFFFFF",
"FFFFFFFFFccAbvAAAAvAbbbbAAbbAbvvcAFFFFFFFFFFFFFFFFFFFFFFFFFFFFFFvVf8787777777775777777777757777777757777666667rbvvvAvbcAvFFFFFFF",
"FFFFFFFFFcvcAvvbcAvbbbAccbAvbbbAAccFFFFFFFFFFFFFFFFFFFFFFFFFFFFcVvf8,16777777777757777755777757777575777666688ucvvAcvAcbvFFFFFFF",
"FFFFFFFFFcAccbAcvcAbcAbcbbbcAvbcAcAbFFFFFFFFFFFFFFFFFFFFFFFFFFFF6ufu,<7777575777777777777757777777777757686688ivAvvvcAvbvFFFFFFF",
"FFFFFFFFFcAAAcvvbAvbbbbAbcbAcbbAccbcAcFFFFFFFFFFFFFFFFFFFFFFFFFFFF-61,7777777775777775775777777775775777666680ccccvAvccAcFFFFFFF",
"FFFFFFFFFcvvcAcAbbvbbbbvvAvbvvbbcAcAcAcFFFFFFFFFFFFFFFFFFFFFFFFFFF o->5757757777757777777777757777777777666660cvvAcccAvvvFFFFFFF",
"FFFFFFFFFhvvbbbvbbvbbbbvbbvbbbbvcAvvvvvccFFFFFFFFFFFFFFFFFFFFFFFFF  .+>68676776777777777775777777777757776688hxbxbvvvvvvvFFFFFFF",
"FFFFFFFFFcvAvbvvbbvbvbvvbvbvvvvvvvvcvcAvcAcFFFFFFFFFFFFFFFFFFFFFFFF   O>6666676777757775777777757775777777579hvvbvvvvvvvvFFFFFFF",
"FFFFFFFFF9bvvvvvvvvbvbvvvvbbbvvvvvvAvbAcvvFFFFFFFFFFFFFFFFFFFFFFFFFF   O,66677765777777777775777777777776655uxxvvvvvvvvvcFFFFFFF",
"FFFFFFFFF1vvbvvvvvvvvvvvvvvvvvvvvvvvvvccvFFFFFFFFFFFFFFFFFFFFFFFFFFFF   #66677777777577777577777577777576<<9uvxvvvvvvvvvcFFFFFFF",
"FFFFFFFFF5vvvvvvvvvvvvvvvvvvvvvvvvvvvvvc9FFFFFFFFFFFFFFFFFFFFFFFFFFFFF   *7667777775667777777575777577775<6uhvvbvvvhbvvvcFFFFFFF",
"FFFFFFFFF,vvvvvvvvvvvvvvvvvvvvcvvvvvcvvuFFFFFFFFFFFFFFFFFFFFFFFFFFFFFFF  .:86677757777777577777777777565,5rvhvhcvxvxcxvhFFFFFFFF",
"FFFFFFFFFFvcvcccvvvvvvvvvvvvcvcvvvvccccFFFFFFFFFFFFFFFFFFFFFFFFFFFFFFFFF  o>57667775776677777757757776<,<rhhvxbcxxvxxvvxFFFFFFFF",
"FFFFFFFFFFccvcccvvvvccccvvvvvcvvcccvccuFFFFFFFFFFFFFFFFFFFFFFFFFFFFFFFFFF  @:576777777667757777777777,,<8ihvhxhxxxxxvhxhFFFFFFFF",
"FFFFFFFFFFccccccccccvpvccccccccccccvci-FFFFFFFFFFFFFFFFFFFFFFFFFFFFFFFFFFF o&:,866667766656666587571,><8hhhxxxxxccccccicFFFFFFFF",
"FFFFFFFFFF8cccccccvvcvcvccccpvpvcvccvuFFFFFFFFFFFFFFFFFFFFFFFFFFFFFFFFFFFF .*::,1<667666686666565<,>,19uhhhxxhxhchcccccuFFFFFFFF",
"FFFFFFFFFF2ccccchvvvpvchcvccvvcccvvci8FFFFFFFFFFFFFFFFFFFFFFFFFFFFFFFFFFFFF #<>--=><85556855685<>-:,5ruuhhhxxxxhivchicc6FFFFFFFF",
"FFFFFFFFFFFcccccvpppvvvpcvpcvppvcpivcFFFFFFFFFFFFFFFFFFFFFFFFFFFFFFFFFFFFFFF@85,>:=->-:::-:::>:::,58uuxhhxhhhhhhichhhccFFFFFFFFF",
"FFFFFFFFFFFupcccvpvppvvpccpccpcpcccpuFFFFFFFFFFFFFFFFFFFFFFFFFFFFFFFFFFFFFFFo8e961,>:-;----;;:><68ruhxhhhxhhhhhhchhcicuFFFFFFFFF",
"FFFFFFFFFFF9ccpccpccpppcpccpccpcicpc8FFFFFFFFFFFFFFFFFFFFFFFFFFFFFFFFFFFFFFFF2uuir8661522<<22588rhuxuhhhhhhhhhhhhhhhcc0FFFFFFFFF",
"FFFFFFFFFFF:cpcppcpccpcpcpcppccpcpci5FFFFFFFFFFFFFFFFFFFFFFFFFFFFFFFFFFFFFFFF,cciiirrrr00000wuuihuxvvxhxhhhhhhhhiihhuc,FFFFFFFFF",
"FFFFFFFFFFF+icppcpcppcpcpcppcppcpcci8FFFFFFFFFFFFFFFFFFFFFFFFFFFFFFFFFFFFFFFF>hchhhhhhhiiihiuciuhhhuuvuvhhuxhhhuvcihccFFFFFFFFFF",
"FFFFFFFFFFFF9cciciciccicpciicpcpccciFFFFFFFFFFFFFFFFFFFFFFFFFFFFFFFFFFFFFFFFFFicucciipcicuccuciccppcciicpcucucupiicic9FFFFFFFFFF",
"FFFFFFFFFFFF:cciicciiiicivicpiipiiciFFFFFFFFFFFFFFFFFFFFFFFFFFFFFFFFFFFFFFFFFFcicuicciipippiciciucucuciiuucpcpccciicc,FFFFFFFFFF",
"FFFFFFFFFFFF+uucpiiciciciicipcipihic8FFFFFFFFFFFFFFFFFFFFFFFFFFFFFFFFFFFFFFFF>ccucuicicuucppippcppcucuucppicuccuiiiiuFFFFFFFFFFF",
"FFFFFFFFFFFFF,hiciiiciipicippicphciu9FFFFFFFFFFFFFFFFFFFFFFFFFFFFFFFFFFFFFFFF,cucuciiciicpipiiiiiiippicippcupupphivi3FFFFFFFFFFF",
"FFFFFFFFFFFFF#uucuiccuicivpiciciiiii9FFFFFFFFFFFFFFFFFFFFFFFFFFFFFFFFFFFFFFFF1uciiiiiiicipiiipiicuppiippppipiipiiiiuFFFFFFFFFFFF",
"FFFFFFFFFFFFF.2cuccuuciuiiiiiiipiiihuFFFFFFFFFFFFFFFFFFFFFFFFFFFFFFFFFFFFFFFF9iiiciiiiiipiipipipupiipiiiupiiiiiiiii5FFFFFFFFFFFF",
"FFFFFFFFFFFFFF&upipiiiciiciiipipiciiiFFFFFFFFFFFFFFFFFFFFFFFFFFFFFFFFFFFFFFFFuiiiiiiiiiiiiiiiiiiiiiiiiiiiiiiiipuiiiFFFFFFFFFFFFF",
"FFFFFFFFFFFFFFX2iiipiiupiiiiiiiiiiiiiFFFFFFFFFFFFFFFFFFFFFFFFFFFFFFFFFFFFFFFFciiiiiiiiiiiiiiiiipiiiiiiiiiiiiiiipii8FFFFFFFFFFFFF",
"FFFFFFFFFFFFFFF#uuiiiiuuiiiiiiiiiiiiuuFFFFFFFFFFFFFFFFFFFFFFFFFFFFFFFFFFFFFF8uuiiiiuuiuuiiiuuppuiiiiuiiupuuiuipuuuFFFFFFFFFFFFFF",
"FFFFFFFFFFFFFFF ,uiuiicuiiiiuiiiiiiuiuFFFFFFFFFFFFFFFFFFFFFFFFFFFFFFFFFFFFFF0uuuuiiiiipiiuuiupuuiuuiiuuiuipuuuuuu2FFFFFFFFFFFFFF",
"FFFFFFFFFFFFFFFF+uuiiucuuiiuiiiuiuiiuuuFFFFFFFFFFFFFFFFFFFFFFFFFFFFFFFFFFFF8ucuuiuuuiuuuupiuuuuuuiuiuiiuuuuuiuiutFFFFFFFFFFFFFFF",
"FFFFFFFFFFFFFFFFF:uuuuuuuuiuuuuuiuuiuiuFFFFFFFFFFFFFFFFFFFFFFFFFFFFFFFFFFFF9uuuuuiuuuuuuuuuuuuuuuuuuuuuuuuuuuuuu,FFFFFFFFFFFFFFF",
"FFFFFFFFFFFFFFFFFo2uuuuuuuiuuuuuuuuuuuuwFFFFFFFFFFFFFFFFFFFFFFFFFFFFFFFFFF6uuuuuuuuuuuuuuuuuuuuuuuuuuuuuuuuuuuu2FFFFFFFFFFFFFFFF",
"FFFFFFFFFFFFFFFFF +8uiuuuuuuuuuuuuuuuuuuFFFFFFFFFFFFFFFFFFFFFFFFFFFFFFFFFFuuruuuuuuuruuuuu0uuwuuu0uuuuuwuueuuu8#FFFFFFFFFFFFFFFF",
"FFFFFFFFFFFFFFFFFF =wuuuwuuuuuuuruuuuuuuuFFFFFFFFFFFFFFFFFFFFFFFFFFFFFFFFuuuuuuruuuuu0u0uuwuuuuuwuuuuwuuruuuur;FFFFFFFFFFFFFFFFF",
"FFFFFFFFFFFFFFFFFFF.>uuwuuuuruuuuuuuuu9uuuFFFFFFFFFFFFFFFFFFFFFFFFFFFFFF9uu9uruu0u0ruuuuwuuuuwuwwuuuwuuwuur9u,FFFFFFFFFFFFFFFFFF",
"FFFFFFFFFFFFFFFFFFF o,u9uuuuuu9uuuuu0uu0uu9FFFFFFFFFFFFFFFFFFFFFFFFFFFF8uuu99uuq9u0uu0u0uu0uu9uuu0uwu9uuuu9q3FFFFFFFFFFFFFFFFFFF",
"FFFFFFFFFFFFFFFFFFFF #8uu9wu9uuu9u9uu9uw9uuuFFFFFFFFFFFFFFFFFFFFFFFFFF9u99uuuu9uu0uu9u0u99uwuuer0uwuwuu99uu8&FFFFFFFFFFFFFFFFFFF",
"FFFFFFFFFFFFFFFFFFFFF %8uu999u9u9u9uuu9uuwu9wFFFFFFFFFFFFFFFFFFFFFFFFuu9uwu0u9utu999u99uu99u99u9u0uquuu99u9&FFFFFFFFFFFFFFFFFFFF",
"FFFFFFFFFFFFFFFFFFFFFF $5uuuuu9ruuww9u9u9uu9u9uFFFFFFFFFFFFFFFFFFFF89uquu99uu99u9uu9uuwu9uu9uu9u9u9w99u998&FFFFFFFFFFFFFFFFFFFFF",
"FFFFFFFFFFFFFFFFFFFFFFF =99u9uwwu9uu0u9uu9w9u99u9FFFFFFFFFFFFFFFF89uu99q9u9u9ut9u9u0u09wu9099u9uu9uq99u9u=FFFFFFFFFFFFFFFFFFFFFF",
"FFFFFFFFFFFFFFFFFFFFFFF  ;90u99uu999990u9uu99uu9u9u9FFFFFFFFFF99tu999uu9et99u99u9wu99u9u9uu9uu99ww9wqu99:FFFFFFFFFFFFFFFFFFFFFFF",
"FFFFFFFFFFFFFFFFFFFFFFFF  &89w00u999wu999u99uu9u9u9u99e999u99u9u9uu999ut99ru9u9u9e9990u9909ue9ue99u99u6&FFFFFFFFFFFFFFFFFFFFFFFF",
"FFFFFFFFFFFFFFFFFFFFFFFFF  #59u99u9u99u99qu9999999u99u9uu99r99rr99u9u99q9u99t99tu990999u9999999eu9q995$FFFFFFFFFFFFFFFFFFFFFFFFF",
"FFFFFFFFFFFFFFFFFFFFFFFFFF  #5099909009u9q9ee99999u99r9u999u0909999u9999e9eee9t9999u999u999r999999995$FFFFFFFFFFFFFFFFFFFFFFFFFF",
"FFFFFFFFFFFFFFFFFFFFFFFFFFF  o>99990r909u9re9999999999999999999999u99999999999999999999999999e99999,oFFFFFFFFFFFFFFFFFFFFFFFFFFF",
"FFFFFFFFFFFFFFFFFFFFFFFFFFFF  .:8999999e99e9999999999999999990999999999999999999999999999999999999:FFFFFFFFFFFFFFFFFFFFFFFFFFFFF",
"FFFFFFFFFFFFFFFFFFFFFFFFFFFFFF  #2999999999999999999999999999999999999998999999999999989999999992#FFFFFFFFFFFFFFFFFFFFFFFFFFFFFF",
"FFFFFFFFFFFFFFFFFFFFFFFFFFFFFFF  o:899898989989999999999999999999999999999999998999999899899989:OFFFFFFFFFFFFFFFFFFFFFFFFFFFFFFF",
"FFFFFFFFFFFFFFFFFFFFFFFFFFFFFFFF  .@2899998999898998989899899889989899989889889989888998998982# FFFFFFFFFFFFFFFFFFFFFFFFFFFFFFFF",
"FFFFFFFFFFFFFFFFFFFFFFFFFFFFFFFFFF  X&398898898898998899898989898889988989988989988988898883*XFFFFFFFFFFFFFFFFFFFFFFFFFFFFFFFFFF",
"FFFFFFFFFFFFFFFFFFFFFFFFFFFFFFFFFFF   O:38988988899888888888888888888888888888889889888882:O FFFFFFFFFFFFFFFFFFFFFFFFFFFFFFFFFFF",
"FFFFFFFFFFFFFFFFFFFFFFFFFFFFFFFFFFFFF   o-,88888888888888888888888888888888888868888888,;o FFFFFFFFFFFFFFFFFFFFFFFFFFFFFFFFFFFFF",
"FFFFFFFFFFFFFFFFFFFFFFFFFFFFFFFFFFFFFF    .$,8888888888885888888888888888888888888855,%.  FFFFFFFFFFFFFFFFFFFFFFFFFFFFFFFFFFFFFF",
"FFFFFFFFFFFFFFFFFFFFFFFFFFFFFFFFFFFFFFFFF   .o$>5898688888888688888888885888888898>$o.  FFFFFFFFFFFFFFFFFFFFFFFFFFFFFFFFFFFFFFFF",
"FFFFFFFFFFFFFFFFFFFFFFFFFFFFFFFFFFFFFFFFFFF    .O=>2588888888858858888688686864>=O.  FFFFFFFFFFFFFFFFFFFFFFFFFFFFFFFFFFFFFFFFFFF",
"FFFFFFFFFFFFFFFFFFFFFFFFFFFFFFFFFFFFFFFFFFFFFF     X@&:24566885868858686522>=+X    FFFFFFFFFFFFFFFFFFFFFFFFFFFFFFFFFFFFFFFFFFFFF",
"FFFFFFFFFFFFFFFFFFFFFFFFFFFFFFFFFFFFFFFFFFFFFFFF       ..O++$:>>>>:>:$++o..     FFFFFFFFFFFFFFFFFFFFFFFFFFFFFFFFFFFFFFFFFFFFFFFF",
"FFFFFFFFFFFFFFFFFFFFFFFFFFFFFFFFFFFFFFFFFFFFFFFFFFFF          .   .         FFFFFFFFFFFFFFFFFFFFFFFFFFFFFFFFFFFFFFFFFFFFFFFFFFFF",
"FFFFFFFFFFFFFFFFFFFFFFFFFFFFFFFFFFFFFFFFFFFFFFFFFFFFFFFFFFF          FFFFFFFFFFFFFFFFFFFFFFFFFFFFFFFFFFFFFFFFFFFFFFFFFFFFFFFFFFF",
"FFFFFFFFFFFFFFFFFFFFFFFFFFFFFFFFFFFFFFFFFFFFFFFFFFFFFFFFFFFFFFFFFFFFFFFFFFFFFFFFFFFFFFFFFFFFFFFFFFFFFFFFFFFFFFFFFFFFFFFFFFFFFFFF",
"FFFFFFFFFFFFFFFFFFFFFFFFFFFFFFFFFFFFFFFFFFFFFFFFFFFFFFFFFFFFFFFFFFFFFFFFFFFFFFFFFFFFFFFFFFFFFFFFFFFFFFFFFFFFFFFFFFFFFFFFFFFFFFFF",
"FFFFFFFFFFFFFFFFFFFFFFFFFFFFFFFFFFFFFFFFFFFFFFFFFFFFFFFFFFFFFFFFFFFFFFFFFFFFFFFFFFFFFFFFFFFFFFFFFFFFFFFFFFFFFFFFFFFFFFFFFFFFFFFF",
"FFFFFFFFFFFFFFFFFFFFFFFFFFFFFFFFFFFFFFFFFFFFFFFFFFFFFFFFFFFFFFFFFFFFFFFFFFFFFFFFFFFFFFFFFFFFFFFFFFFFFFFFFFFFFFFFFFFFFFFFFFFFFFFF",
"FFFFFFFFFFFFFFFFFFFFFFFFFFFFFFFFFFFFFFFFFFFFFFFFFFFFFFFFFFFFFFFFFFFFFFFFFFFFFFFFFFFFFFFFFFFFFFFFFFFFFFFFFFFFFFFFFFFFFFFFFFFFFFFF",
"FFFFFFFFFFFFFFFFFFFFFFFFFFFFFFFFFFFFFFFFFFFFFFFFFFFFFFFFFFFFFFFFFFFFFFFFFFFFFFFFFFFFFFFFFFFFFFFFFFFFFFFFFFFFFFFFFFFFFFFFFFFFFFFF",
"FFFFFFFFFFFFFFFFFFFFFFFFFFFFFFFFFFFFFFFFFFFFFFFFFFFFFFFFFFFFFFFFFFFFFFFFFFFFFFFFFFFFFFFFFFFFFFFFFFFFFFFFFFFFFFFFFFFFFFFFFFFFFFFF",
"FFFFFFFFFFFFFFFFFFFFFFFFFFFFFFFFFFFFFFFFFFFFFFFFFFFFFFFFFFFFFFFFFFFFFFFFFFFFFFFFFFFFFFFFFFFFFFFFFFFFFFFFFFFFFFFFFFFFFFFFFFFFFFFF"
};
