/* XPM */
static char *gbrainy[] = {
/* columns rows colors chars-per-pixel */
"128 128 63 1 ",
"  c #000100010001",
". c #1E211E211E21",
"X c #389138913891",
"o c #51CF51CF51CF",
"O c #645364536453",
"+ c #7A6E7A6E7A6E",
"@ c #8A2A8A2A8A2A",
"# c #929096989698",
"$ c #A034A034A034",
"% c #AAD6AAD6AAD6",
"& c #B78AB78AB78A",
"* c #BD4ABBE3BBE3",
"= c #C159C159C159",
"- c #CD66CD66CD66",
"; c #CF8DCF8DD099",
": c #D497D497D497",
"> c #D763D849D763",
", c #DBB2DBB2DBB2",
"< c #DE15DED9DE15",
"1 c #DE15DE15DF98",
"2 c #E1C0E1C0E1C0",
"3 c #E46CE3C6E46C",
"4 c #E776E776E776",
"5 c #E809E924E809",
"6 c #E898E898E9AD",
"7 c #EB37EB37EB37",
"8 c #ECE6ECCDECDD",
"9 c #EEDDEEDDEEDD",
"0 c #F076F013F013",
"q c #F013F076F013",
"w c #F076F076F013",
"e c #F013F013F076",
"r c #F076F013F076",
"t c #F013F076F076",
"y c #F193F193F193",
"u c #F31FF318F31D",
"i c #F433F433F433",
"p c #F59EF558F558",
"a c #F558F59EF558",
"s c #F59EF59EF558",
"d c #F558F558F59E",
"f c #F59EF558F59E",
"g c #F558F59EF59E",
"h c #F6A4F6A4F6A4",
"j c #F794F75AF75A",
"k c #F75AF794F75A",
"l c #F75AF75AF794",
"z c #F794F75AF794",
"x c #F75AF794F794",
"c c #F83AF83AF83A",
"v c #F91DF924F920",
"b c #F9EEF9EEF9EE",
"n c #FA94FA6CFA6C",
"m c #FA94FA94FA6C",
"M c #FA6CFA6CFA94",
"N c #FA6CFA94FA94",
"B c #FB2CFB2CFB2C",
"V c #FBB7FBB7FB73",
"C c #FC1BFC1DFC1E",
"Z c #FD00FD01FD02",
"A c #FE14FE0EFE14",
"S c #FEA3FEA0FEA0",
"D c None",
/* pixels */
"DDDDDDDDDDDDDDDDDDDDDDDDDDDDDDDDDDDDDDDDDDDDDDDDDDDDDDDDDDDDDDDDDDDDDDDDDDDDDDDDDDDDDDDDDDDDDDDDDDDDDDDDDDDDDDDDDDDDDDDDDDDDDDDD",
"DDDDDDDDDDDDDDDDDDDDDDDDDDDDDDDDDDDDDDDDDDDDDDDDDDDDDDDDDDDDDDDDDDDDDDDDDDDDDDDDDDDDDDDDDDDDDDDDDDDDDDDDDDDDDDDDDDDDDDDDDDDDDDDD",
"DDDDDDDDDDDDDDDDDDDDDDDDDDDDDDDDDDDDDDDDDDDDDDDDDDDDDDDDDDDDDDDDDDDDDDDDDDDDDDDDDDDDDDDDDDDDDDDDDDDDDDDDDDDDDDDDDDDDDDDDDDDDDDDD",
"DDDDDDDDDDDDDDDDDDDDDDDDDDDDDDDDDDDDDDDDDDDDDDDDDDDDDDDDDDDDDDDDDDDDDDDDDDDDDDDDDDDDDDDDDDDDDDDDDDDDDDDDDDDDDDDDDDDDDDDDDDDDDDDD",
"DDDDDDDDDDDDDDDDDDDDDDDDDDDDDDDDDDDDDDDDDDDDDDDDDDDDDDDDDDDDDDDDDDDDDDDDDDDDDDDDDDDDDDDDDDDDDDDDDDDDDDDDDDDDDDDDDDDDDDDDDDDDDDDD",
"DDDDDDDDDDDDDDAAAAAAAAAAAAAAAAAAAAAAAAAAAAAAAAAAAAAAAAAAAAAAAAAAAAAAAAAAAAAAAAAAAAAAAAAAAAAAAAAAAAAAAAAAAAAAAAAAAAADDDDDDDDDDDDD",
"DDDDDDDDDDDAAAAAAAAAAAAAAAAAAAAAAAAAAAAAAAAAAAAAAAAAAAAAAAAAAAAAAAAAAAAAAAAAAAAAAAAAAAAAAAAAAAAAAAAAAAAAAAAAAAAAAAAAADDDDDDDDDDD",
"DDDDDDDDDDAAAAAAAAAAAAAAAAAAAAAAAAAAAAAAAAAAAAAAAAAAAAAAAAAAAAAAAAAAAAAAAAAAAAAAAAAAAAAAAAAAAAAAAAAAAAAAAAAAAAAAAAAAAADDDDDDDDDD",
"DDDDDDDDDAAAAAAAAAAAAAAAAAAAAAAAAAAAAAAAAAAAAAAAAAAAAAAAAAAAAAAAAAAAAAAAAAAAAAAAAAAAAAAAAAAAAAAAAAAAAAAAAAAAAAAAAAAAAAADDDDDDDDD",
"DDDDDDDDAAAAAAAAAAAAAAAAAAAAAAAAAAAAAAAAAAAAAAAAAAAAAAAAAAAAAAAAAAAAAAAAAAAAAAAAAAAAAAAAAAAAAAAAAAAAAAAAAAAAAAAAAAAAAAAADDDDDDDD",
"DDDDDDDDAAAAAAAAAAAAAAAAAAAAAAAAAAAAAAAAAAAAAAAAAAAAAAAAAAAAAAAAAAAAAAAAAAAAAAAAAAAAAAAAAAAAAAAAAAAAAAAAAAAAAAAAAAAAAAAAADDDDDDD",
"DDDDDDDAAAAAAAAAAAAAAAAAAAAAAAAAAAAAAAAAAAAAAAAAAAAAAAAAAAAAAAAAAAAAAAAAAAAAAAAAAAAAAAAAAAAAAAAAAAAAAAAAAAAAAAAAAAAAAAAAADDDDDDD",
"DDDDDDDAAAAAAAAAAAAAAAAAAAAAAAAAAAAAAAAAAAAAAAAAAAAAAAAAAAAAAAAAAAAAAAAAAAAAAAAAAAAAAAAAAAAAAAAAAAAAAAAAAAAAAAAAAAAAAAAAAADDDDDD",
"DDDDDDmAAAAAAAAAAAAAAAAAAAAAAAAAAAAAAAAAAAAAAAAAAAAAAAAAAAAAAAAAAAAAAAAAAAAAAAAAAAAAAAAAAAAAAAAAAAAAAAAAAAAAAAAAAAAAAAAAAADDDDDD",
"DDDDDDcAAAAAAAAAAAAAAAAAAAAAAAAAAAAAAAAAAAAAAAAAAAAAAAAAAAAAAAAAAAAAAAAAAAAAAAAAAAAAAAAAAAAAAAZAAAAAAAAAAAAAAAAAAAAAAAAAAADDDDDD",
"DDDDDDcAAAAAAAAAAAAAAAAAAAAAAAAAAAAAAAAAAAAAAAAAAAAAAAAAAAAAAAAAAAAAAAAAAAAAAAAAAAAAAAAAAAAAAAAAAAAAAAAAAAAAAAAAAAAAAAAAAADDDDDD",
"DDDDDDcAAAAAAAAAAAAAAAAAAAAAAAAAAAAAAAAAAAAAAAAAAAAAAAAAAAAAAAAAAAAAAAAAAAAAAAAAAAAAAAAAAAAAAAAAAAAAAAAAAAAAAAAAAAAAAZAAACDDDDDD",
"DDDDDDuAAAAAAZAAAAAAACAAAAAAAAAAAAAAAAAAAAAAAAAAAAAZAAAAAAAAACAAAAAAAAAAAAAAAAAAAAZAAAAAAAAAAZAAZAAAAAAAAZAAAAAAAAAAAAAAAADDDDDD",
"DDDDDDcCZAAAAAAAAAAAAAAAAAAAAAAAAAAAAAAAAAZAAZAAAAAAAZAAAAAAAAAAAAAAAAAAAAAAAAAAAAAAAAZAAAAAAZAAAAAAZAZAAAAAAZAZAAAAAAAZAADDDDDD",
"DDDDDDuAAAAZAAAZAAAAAAAAAAAZAAAZAZAAZAZAZAAAAAAAZAAAAAAZAACAAAAAAAAAAAAAAAAAACAAAZAAAZAAZAAAAAAAAAZAAAAAZAZAAAAAAAAAZAAAAmDDDDDD",
"DDDDDDuAAAZAAAZAAAAZAAAAAAAAZZAAAAAZAZAAAAAZAAAAAAAAAAAAAAm9-9ccccmmAAZAAAAAAAAAAAAAAAAZAAAAAAAAZAAAAZAAAZAAAAZAAAAAAAAAAmDDDDDD",
"DDDDDDcmZAAAAZAAAAAZAZCAAACAAAZAAAAAAAAAZAAAAZAAmmcucCAAZAAmu%X....X&&2ucAmAZAAAZAAAAZZAmAAAZAZZAZAZAAAZAAAZAZAZAAAAAAZAAADDDDDD",
"DDDDDDuAAACAAAAAAAAAAAAAZZAZAAAZAAZAZAAAZZAZmc9>#@ ..=7mZAAAAmu&       .X@:9cmAACAAAACAZAAAAmAAAAAAZAZZZZZZAZAAAAAAAmAZAAADDDDDD",
"DDDDDDuACAZAACAAAAAAmAAAZAAAZCAAmAAZAZAAAm9,@O         @4mZAACAm9+DDDD      o+2cmAmAAAAAZAZAAAAAZZAZZAAAAAAZAAZAAAmAAAAAAmDDDDDD",
"DDDDDDuAAACAACCAmAACmAAAAAAACAAAAmAAAmAu,@    DDDDDDD    @7cAACAAmDDDDDDDD     o&7cCAAAZAAACAmAZZAAZAAZAAZAAZAAZZAAAACZAACDDDDDD",
"DDDDDDuACAAACAAAAAAAAAAmACACACCAAAAAmc>X  DDDDDDDDDDDDDDD  X7mAAAAmDDDDDDDDDDD    X-umCACACAAAAAZZZZZZZZZAZZZZZAAZZAAAZAAmDDDDDD",
"DDDDDDumAAAZAACZAAAZAAAACCAAAZCAAAmc>X DDDDDDDDDDDDDDDDDDDDDD=mAmAAcDDDDDDDDDDDDD   .&iCCAAAACZAZAZZAAAZACZZAAAACAAmAmACAADDDDDD",
"DDDDDDuACACAZZAZACACACACAACACACAmc-X DDDDDDDDDDDDDDDDDDDDDDDDD=mAAAmDDDDDDDDDDDDDDD   .$5mmAZACAAZZAZZCAZAZAmAAmZZAZAAACAmDDDDDD",
"DDDDDDumAZACCACACACACAZACAACAAAc-X DDDDDDDDDDDDDDDDDDDDDDDDDDDD9ACACDDDDDDDDDDDDDDDDDD   #7CAAACAZZZZZZZZAZZZAZZZZAZCACAAADDDDDD",
"DDDDDDuACACAACACACACACACCACACCq$ DDDDDDDDDDDDDDDDDDDDDDDDDDDDDD=mACADDDDDDDDDDDDDDDDDDDD   -umCACZZZZZZZZZZZZZZZZZZZAAACCmDDDDDD",
"DDDDDDumACCACACACACAAAACACACm5.DDDDDDDDDDDDDDDDDDDDDDDDDDDDDDDD=CmAADDDDDDDDDDDDDDDDDDDDDD  X-cmZZZZZZZZAZACZZAZZZZZAmAAAmDDDDDD",
"DDDDDDuACCACACACACACmACACACc-.DDDDDDDDDDDDDDDDDDDDDDDDDDDDDDDDD2AAAmDDDDDDDDDDDDDDDDDDDDDDDD  +9CZZACZZZCAmACZCZCZACAmAmACDDDDDD",
"DDDDDDumAACAmACACAAACCAZCAc&DDDDDDDDDDDDDDDDDDDDDDDDDDDDDDDDDDDcACACDDDDDDDDDDDDDDDDDDDDDDDDD  X<cCACACZACCCCAACCCACACCACmDDDDDD",
"DDDDDDumAmACACAmCACCACCZCc&DDDDDDDDDDDDDDDDDDDDDDDDDDDDDDDDDDDDmCCCcDDDDDDDDDDDDDDDDDDDDDDDDDDD  +9ACCCACAACCCCCACCACCACACDDDDDD",
"DDDDDDuCCCACCZCACCCACCCCc&DDDDDDDDDDDDDDDDDDDDDDDDDDDDDDDDDDDDcCCACDDDDDDDDDDDDDDDDDDDDDDDDDDDDD  o9ACCCCCCCACAAACCCCACCCCDDDDDD",
"DDDDDD9ACAmAZCAmCACCCACc&DDDDDDDDDDDDDDDDDDDDDDDDDDDDDDDDDDDDDCCCCmDDDDDDDDDDDDDDDDDDDDDDDDDDDDDDD o9mACCACACCCCCCCACCACCmDDDDDD",
"DDDDDD9mZCZCmZCZCCACCCm&DDDDDDDDDDDDDDDDDDDDDDDDDDDDDDDDDDDDDmCACm<DDDDDDDDDDDDDDDDDDDDDDDDDDDDDDDD X:mmACCCCCCCCCACCCCAAmDDDDDD",
"DDDDDDuACZCAACAmCACCCC3DDDDDDDDDDDDDDDDDDDDDDDDDDDDDDDDDDDDDmCCCAcDDDDDDDDDDDDDDDDDDDDDDDDDDDDDDDDDD  -mCCCCCCCAACCCCCCCAmDDDDDD",
"DDDDDDumCZZmmACCAmCCCuDDDDDDDDDDDDDDDDDDDDDDDDDDDDDDDDDDDDDDCCCAm>DDDDDDDDDDDDDDDDDDDDDDDDDDDDDDDDDDD  >mCCCCCCCmCCmCCCCmmDDDDDD",
"DDDDDD9mZmCCZCCCCCCCc%DDDDDDDDDDDDDDDDDDDDDDDDDDDDDDDDDDDDDCCCCm2DDDDDDDDDDDDDDDDDDDDDDDDDDDDDDDDDDDDD X9CCACCCCCCCACACCCCDDDDDD",
"DDDDDD9CCCCCCCCCCCCC>DDDDDDDDDDDDDDDDDDDDDDDDDDDDDDDDDDDDCmCmAmuDDDDDDDDDDDDDDDDDDDDDDDDDDDDDDDDDDDDDDD o9CCCCCCCCCCCCCCCmDDDDDD",
"DDDDDD9CZCCAmZmCCCCuDDDDDDDDDDDDDDDDDDDDDDDDDDDDDDDDDDDDmmCCCm9DDDDDDDDDDDDDDDDDDDDDDDDDDDDDDDDDDDDDDDDD %cCCCCCCCCCCCCCCmDDDDDD",
"DDDDDD9CCZCmCAZCCmm&DDDDDDDDDDDDDDDDDDDDDDDDDDDDDDDDDDmCACCCm2DDDDDDDDDDDDDDDDDDDDDDDDDDDDDDDDDDDDDDDDDDD >CCCCCCCCCCCCCCmDDDDDD",
"DDDDDD9CmCmCmmZmAm9DDDDDDDDDDDDDDDDDDDDDDDDDDDDDDDDDDmCCmmmu&DDDDDDDDDDDDDDDDDDDDDDDDDDDDDDDDDCCAmDDDDDDDD+cmCCmCmCmCmCCCmDDDDDD",
"DDDDDD9CCCCCCACmmm-DDDDDDDDDDDDDDDDDDDDDDDDDDDDDDDDDmmCCCm2DDDDDDDDDDDDDDDDDDDDDDDmCmmCDDDDDDCCCmmmDDDDDDD 2AmmCCCmCmCCmmmDDDDDD",
"DDDDDD9mCmCmmmZmmcDDDDDDDDDDDDDDDDDDDDDDDDDDDDDDDDDDCmCmm,DDDDDDDDDDDDDDDDDDDDDDmCCCCCAmmDDmAmmCAmmADDDDDDD2mmAmmCCCCCmCCmDDDDDD",
"DDDDDD9mmCmCCmmCm4DDDDDDDDDDDDDDDDDDDDDDDDDDDDDDDDDmmCmm,DDDDDDDDDDDDDDDDDDmmDDDCmmCCmmmmCmCmmmmmmmmmmDDDD&cCAmCCmmmmCCmmmDDDDDD",
"DDDDDD9CCmCCmCCmmDDDDDDDDDDDDDDDDDDDDDDDDDDDDDDDDDDmmCm9DDDDDDDDDDDDDDDDDDmCmCCmCmmcucmCCmCmCmm4D9vmmCmcucmmmCmmCCmCCmCmCmDDDDDD",
"DDDDDD9mvCCCmCvCuDDDDDDDDDDDDDDDDDDDDDDDDDDDDDDDDDDmmmm=DDDDDDDDDDDDDDDDDmmCmCmmCmdDDD9mmmmmmm2DDDDcCmmCCmmmmccmmmCmcCCCCcDDDDDD",
"DDDDDD9CCmvCCvCC7DDDDDDDDDDDDDDDDDDDDDDDDDDDDDDDDDDmmmmDDDDDDDDDDDDDDDDDDmmCCmmCmm9DDDD:ucmmu=DDDDD:cCmmmmmmc&-mCmmCCCCcCcDDDDDD",
"DDDDDD7mCCmCCCmCDDDDDDDDDDDDDDDDDDDDDDDDDDDDDDDDDDDcCmmDDDDDDDDDDDDDDDDDmmmmCcCmmmm2DDDDD@@@DDDDDDDD>cmCCmCc= +cCmCmcCcCCcDDDDDD",
"DDDDDD7CmCcmcCvcDDDDDDDDDDDDDDDDDDDDDDDDDDDDDDDDDDDcmmmeDDDDDDDDDmmmmmmmmmmm3=ummmmmu=DDDDDDDDDDDDDDDD,222:@  .ecCCcCCCCMcDDDDDD",
"DDDDDD9mmCcCmCmuDDDDDDDDDDDDDDDDDDDDDDDDDDDDDDDDDDDcmmmmDDDDDDmmmmmmmmmmmCm3. @4mmmmmvu<DDDDDDDDDDDDDDDDDDDDDD 2CcCcCcCcCCDDDDDD",
"DDDDDD7mmmCmmmmeDDDDDDDDDDDDDDDDDDDDDDDDDDDDDDDDDDDemmmmDDDDDmmmmmmmmmmmmu-.D  .4cmmmmmmc9DDDDDDDDDDDDDDDDDDDDD:cCMMCCCcmcDDDDDD",
"DDDDDD7mCmmmmmm3DDDDDDDDDDDDDDDDDDDDDDDDDDDDDDDDDDD-mmmmcDDDmmmcmmmmcc99-+DDDDDD.-7cmmmmmmcDDDDDDDDDDDDDDDDDDDD@cmmMcCcCmcDDDDDD",
"DDDDDD7mmmcmmmmDDDDDDDDDDDDDDDDDDDDDDDDDDDDDDDDDDDD&ucmmmDDcmmmmmc7=DDDDDDDDDDDDDDD$7cmmmmmcDDDDDDDDDDDDDDDDDDD+cmcCCcCcmcDDDDDD",
"DDDDDD7mmmmmmmcDDDDDDDDDDDDDDDDDDDDDDDDDDDDDDDDDDuccmmcmmmcmmmmc3@DDDDDDDDDDDDDDDDDDDD7cmmmmmDDDDDDDDDDDDDDDDDDDemcmCcvmmcDDDDDD",
"DDDDDD7mmmmcmmmuDDDDDDDDDDDDDDDDDDDDDDDDDDDDDDDDDmmmmmmmcmmmmme@DDDDDDDDDDDDDDDDDDDDDDD:umcmmmDDDDDDDDDDDDDDDDDD4cCCcmmvccDDDDDD",
"DDDDDD4mmcmcmcccDDDDDDDDDDDDDDDDDDDDDDDDDDDDDDDDccmcmmmmmcmcu,ODDDDDDDDDDDDDDDDDDDDDDDDD:cmcmmcDDDDDDDDDDDDDDDDD-cccCcmmCcDDDDDD",
"DDDDDD7mmmmmmvmcDDDDDDDDDDDDDDDDDDDDDDDDDDDDDDDDcmmc427ccce>DDDDDDDDDDDDDDDDDDDDDDDDDDDDD2cmmcmDDDDDDDDDDDDDDDDD%cCcCccmccDDDDDD",
"DDDDDD7mcmcmmcmmcDDDDDDDDDDDDDDDDDDDDDDDDDDDDDDccmm:   OOODDDDDDDDDDDDDDDDDDDDDDDDDDDDDDDO9mmcmDDDDDDDDDDDDDDDDD%cvvmvmmmcDDDDDD",
"DDDDDD4mmcvmmccmcDDDDDDDDDDDDDDDDDDDDDDDDDDDDccmmcuXD DDDDDDDDDDDDDDDDDDDDDDDDDDDDDDDDDDDD&cmmccDDDDDDDDDDDDDDDD$cmccmcvccDDDDDD",
"DDDDDD4mcmcmcmcvmcDDDDDDDDDDDDDDDDDDDDDDDDDDcmmccc3DDDDDDDDDDDDDDDDDDDDDDDDDDDDDDDDDDDDDDDDqmccmDDDDDDDDDDDDDDDDDucvmccvmcDDDDDD",
"DDDDDD7cmcccmcmcccDDDDDDDDDDDDDDDDDDDDDDDDDccmccc7DDDDDDDDDDDDDDDDDDDDDDDDDDDDDDDDDDDDDDDDD,ccmcDDDDDDDDDDDDDDDDDtvccmccccDDDDDD",
"DDDDDD4mcmcccccccmcDDDDDDDDDDDDDDDDDDDDDDccvcmcc7DDDDDDDDDDDDDDDDDDDDDDDDDDDDDDDDDDDDDDDDDD-cmccDDDDDDDDDDDDDDDDD9ccccccccDDDDDD",
"DDDDDD4cmcccmcmcmcccDDDDDDDDDDDDDDDDDDDDDcvvcc9&DDDDDDDDDDDDDDDDDDDDDDDDDDDDDDDDDDDDDDDDDDD:cccccDDDDDDDDDDDDDDDDucmccccccDDDDDD",
"DDDDDD5cccmcccccccccDDDDDDDDDDDDDDDDDDDDccmcu,DDDDDDDDDDDDDDDDDDDDDDDDDDDDDDDDDDDDDDDDDDDDD-cccccDDDDDDDDDDDDDDDD9ccccccccDDDDDD",
"DDDDDD4ccccccccccccccDDDDDDDDDDDDDDDDDDcccc9@DDDDDDDDDDDDDDDDDDDDDDDDDDDDDDDDDDDDDDDDDDDDDD:ccccuDDDDDDDDDDDDDDDDuccccccccDDDDDD",
"DDDDDD6ccccccccccccccccDDDDDDDDDDDDDDDccccc*DDDDDDDDDDDDDDDDDDDDDDDDDDDDDDDDDDDDDDDDDDDDDDD:mcccuDDDDDDDDDDDDDDDDuccccccccDDDDDD",
"DDDDDD3cccccccdccccccccccDDDDDDDDDDDDtcccc:DDDDDDDDDDDDDDDDDDDDDDDDDDDDDDDDDDDDDDDDDDDDDDDD7ccci9DDDDDDDDDDDDDDDD9ccccccccDDDDDD",
"DDDDDD2ccccccccccccccccccccDDDDDDDDDDcccc4DDDDDDDDDDDDDDDDDDDDDDDDDDDDDDDDDDDDDDDDDDDDDDDDDuccccDDDDDDDDDDDDDDDDDucccccccuDDDDDD",
"DDDDDD2ccccccccccccccccccccccccccccccccc7DDDDDDDDDDDDDDDDDDDDDDDDDDDDDDDDDDDDDDDDDDDDDDDDDDcccccucccccccccccccc74cccucccccDDDDDD",
"DDDDDD3ccccccccdcccccccccciccccccccicciu%DDDDDDDDDDDDDDDDDDDDDDDDDDDDDDDDDDDDDDDDDDDDDDDDD4ccicccciccccccciccccccccicicccuDDDDDD",
"DDDDDD2cccdccdccciicciccccccciccccccccc,DDDDDDDDDDDDDDDDDDDDDDDDDDDDDDDDDDDDDDDDDDDDDDDDDDwcccccccccccciccuciccicicccccccuDDDDDD",
"DDDDDD4ccuccdcudcccciciciccccciicccccc9DDDDDDDDDDDDDDDDDDDDDDDDDDDDDDDDDDDDDDDDDDDDDDDDDD4icciuur9,2222222227ccccicccucucuDDDDDD",
"DDDDDD2ccciccccciciccccicciiicccucuccc9DDDDDDDDDDDDDDDDDDDDDDDDDDDDDDDDDDDDDDDDDDDDDDDDDDucccu=XDDDDDDDDDDDD7cuccccicccccuDDDDDD",
"DDDDDD2cccuicccucciccicccicciccicccciuuDDDDDDDDDDDDDDDDDDDDDDDDDDDDDDDDDDDDDDDDDDDDDDDDDcuccc: DDDDDDDDDDDD:cccuicciccuuccDDDDDD",
"DDDDDD2cuccciicciiccicciciicciccucuucccDDDDDDDDDDDDDDDDDDDDDDDDDDDDDDDDDDDDDDDDDDDDDDDDucccu7XDDDDDDDDDDDDD3ccciciiccucccuDDDDDD",
"DDDDDD2cicciciicccciccciicciciciccccccc9DDDDDDDDDDDDDDDDDDDDDDDDDDDDDDDDDDDDDDDDDDDDDuucccu7@DDDDDDDDDDDDDD3uicccuicucccuuDDDDDD",
"DDDDDD<ccucciccciiciiicicicciciccuucuuccDDDDDDDDDDDDDDDDDDDDDDDDDDDDDDDDDDDDDDDDDDDuccccuu2+DDDDDDDDDDDDDDD2ccucucciccuucuDDDDDD",
"DDDDDD2cucicicucccucciucuciiiiccucuccucuiDDDDDDDDDDDDDDDDDDDDDDDDDDDDDDDDDDDDDDDuccuccuu9*DDDDDDDDDDDDDDDDD=uucicuciucuccqDDDDDD",
"DDDDDD2ccuucuccuuciucucccuiccuiicucuiuuccuDDDDDDDDDDDDDDDDDDDDDDDDDDDDDDDDDDDucucuucuu9>+DDDDDDDDDDDDDDDDDD#icucuccucucucuDDDDDD",
"DDDDDD2cuucccuuicuicicuiciiiucuccuuuucucucuDDDDDDDDDDDDDDDDDDDDDDDDDDDDDDDDucuucucuu9*DDDDDDDDDDDDDDDDDDDDD#uucucuucuccuuuDDDDDD",
"DDDDDD2uucuiuciiucuuiicuuiciciiiucuccucucuucuDDDDDDDDDDDDDDDDDDDDDDDDDDuuucuuccuu92DDDDDDDDDDDDDDDDDDDDDDDD#ucucucuucuucuuDDDDDD",
"DDDDDD2ducuuicuiicucucciiicuuiicucucuuuccuuccuuuDDDDDDDDDDDDDDDDDDDDcucuiiccuu9:DDDDDDDDDDDDDDDDDDDDDDDDDDD=uuuiuiicuucuuuDDDDDD",
"DDDDDD2uuucciiciuciiuuuiciiiiiiiuuuccucuucuiuccuiiiiDDDDDDDDDDDiiiiiuucuiiu9>DDDDDDDDDDDDDDDDDDDDDDDDDDDDDD4uciiiiuuiiiiuuDDDDDD",
"DDDDDD2diiiiiiuuiiiiiiiiiiiiiiciuuucuucuuuiiiiuiiiiiiiiiiiiiiiiiiciiiiuuiiu$DDDDDDDDDDDDDDDDDDDDDDDDDDDDDDDwuuuuiiiciiiiiuDDDDDD",
"DDDDDD<uiiiiiiiiiiiiiiiiiiiiiiuiucuuuuuuuciiiiiuiiiiiiiiiiiiiiiiuuiiiiiuiiu=DDDDDDDDDDDDDDDDDDDDDDDDDDDDDDDuuucuiiiiiiiiuuDDDDDD",
"DDDDDD,diiiiuiiiuuuuc9iuiiuuuuuciuiiiiuiuuiiiiiiiuiiiiiiduuduucuuuuuu97cuuc2DDDDDDDDDDDDDDDDDDDDDDDDDDDDDD9cuwcucuuuuuucuuDDDDDD",
"DDDDDD,uiiuiiuiucuuucuiuuuiduuuuiuiuuuiiuiuuuuuuuuuuuuiuuuuuuuuuc72&%XX3ruueDDDDDDDDDDDDDDDDDDDDDDDDDDDDD7uuuuuuu9cuceuuuuDDDDDD",
"DDDDDD<duwiuuuuuuuuuuwuiiu9uuuuuuuuuuiuuuuuuuuuuuuuuiuuuuuuuuuuuu: D   %uuuu9DDDDDDDDDDDDDDDDDDDDDDDDDDD7uuuuuuutuuueuuuu9DDDDDD",
"DDDDDD,uuiiuiuiuuuuuuuuuuucuuuuuiuuuuu9cuiuuuuuuuuuuuuuuuuuuuuuuu9@DDD .2uuuu9DDDDDDDDDDDDDDDDDDDDDDDDDDwuuuuuuuuuuuuuuuwuDDDDDD",
"DDDDDD,uuuuuuiwuuuquuuuuuuuuuuuuuuuuuuuuuuuuuuuuuuuutuuuuuuuuuuuuu>DDDDD:uutuu9DDDDDDDDDDDDDDDDDDDDDDDDuuuuuuuuuuuu9uuuuuuDDDDDD",
"DDDDDD,uuuuuquuuuuuuuuquuuu9uuuqwuuuuuu9uuquuuuwu9uuuuuuurruuuwuu99DDDDDO7uuuuuuDDDDDDDDDDDDDDDDDDDDD9uu9uuu9uutuuuu9uur99DDDDDD",
"DDDDDD,qquu9ququuu0uu9uutuuuuquuuuwuuu9uu9uuu9uuuu9uuuutueuuwuu9uuu2DDDDD:u99u9uuuDDDDDDDDDDDDDDDDDuwu9uuuuuuuuuuuueuutuu9DDDDDD",
"DDDDDD,uuququuuqu9uutuu9uuu9uu99uquq9uuutu9uuuu9uwuuu99uuueuu9uuu99uDDDDDo2uuuuwu9u9uDDDDDDDDDDDuuu9u9uuu9ururtu9ueuu9uuu9DDDDDD",
"DDDDDD,u9uuu9uuu9u9uuu99uuu9u9uuuu99uuu9uu9uu9uuu99uu9uuqu9u9u9uuwu97DDDDDo-29uuu9u9u9u9w99uu9uw9uuu9utuu9uu9u0u0u9u9ur0u9DDDDDD",
"DDDDDD,uu09uuq9uuw9u9uuuu9u9wuu9e9uut9u9u9u90uu99uue9uu9uuwu9uu99u9u9DDDDDDDX$2tuu9uu9uuuu9uwu9u9u9uu99q9u9uu9uuu99uuu9u99DDDDDD",
"DDDDDD:u9uu9quu9u9tuuquuqu9u9u9uwuuwuq9u9uu9u9u9uu9u0u9ut9uu9u0uuq9uu94DDDDDDDD:990uu99uw909u9uw9u9qq9u99uuu9u9ruuw9u99uu9DDDDDD",
"DDDDDD:uur9u9w9u9u9u9w999u9u99u9uw9u9uu9uure9u9u9t9u99u9u999u99uw9u9quq6DDDDDDD.,u9u9q9uueu9u99wu9u9uu9uu9999ur9999u99ue99DDDDDD",
"DDDDDD>uu9uu9u9u9utu99u9999uu99uwwuwwuww99u9r999u999uu99uu9ut99uw9u9uu999DDDDDDD%9u9u9u99uu9wu9uu9u99u9uu909999u9u99u9u999DDDDDD",
"DDDDDD>99999u99u999ue99uu9uq9u999u99999w999u9uu99u9u99u999999u999u9999w999DDDDDD :9u999r99990ww99q9t99999r9u9u99999u9u9re9DDDDDD",
"DDDDDD>9u99e99e9e999qu9w99ww00e999q09uwwu9r9999u99w99999999eu99uu9u999u9u99DDDDDD&999999999u09w999u99u99u99u999u9r99999998DDDDDD",
"DDDDDD>q9r9e999e999u999999909999w9999999999999r999999u99u999999999999999999DDDDDDX,99u9u99999900999999999999r999999u999u98DDDDDD",
"DDDDDD:999u99999999999999r99999999999999999999990999999999e99999999999999997DDDDDD@999999999990899999999999999999999999997DDDDDD",
"DDDDDD:q99999999999999999999999999999999999999999999999999999999999999999999DDDDDD.:99999999998099999999999979999999999999DDDDDD",
"DDDDDD:999999999999999999999999999999999990999999999999999997999999999999799DDDDDDD#79999989999899999999999999999898988997DDDDDD",
"DDDDDD:9999997999999998999999999998999999988999999999799999999999999889999997DDDDD@-99998999998999999979889999999999899987DDDDDD",
"DDDDDD:9799997999989989998889898888889088888808999997979898999989898989897989DDD227879989898888897989879988997978899997897DDDDDD",
"DDDDDD:7797998798888888889887988888988888088888887797998978987888888878898889558988897978888898899899797978879798888798977DDDDDD",
"DDDDDD:7898799778888889898888888888888888888888889777797778779798878878997777878978888798888888877977979788888778888978776DDDDDD",
"DDDDDD:9877977978788877887888888888888888888888887979779798897778797887877997888888787877887888878779777878888798787787797DDDDDD",
"DDDDDD*9887878798787888887877787778887878878778888887888888877777797788887878887977888887787788878878777878777878877777774DDDDDD",
"DDDDDD+477788777788777778778797777777877787777777777787777777777787787778777778777777777788777778777777777778877686877797,DDDDDD",
"DDDDDDD;77777777777778777777777777777777777777777777777777777777777767777777777777767777777777777777777777777777778877775DDDDDDD",
"DDDDDDD#3757777777777777777577777777777777777777777777677777777777774777777747777777777775777777777777777777777777867777,DDDDDDD",
"DDDDDDDD%47777775777776677767776667767777746774757747467775747775776767776777777774777777767776777576767777576775777777,DDDDDDDD",
"DDDDDDDD %3576745776655747745657577774747577477777577567477477477576775774775774747444777576474747744777567657667566742%DDDDDDDD",
"DDDDDDDDD %2477775756757747757777477767757757747747567777474775755667747476674556777747457467574474774757557467755544-ODDDDDDDDD",
"DDDDDDDDDD O=245445574444444444444454455444444447444444444444447555544444444444444444455454444444444444444444445554:%XDDDDDDDDDD",
"DDDDDDDDDDD  O$$$$$$$$$$$$$$$$$$$$$$$$$$$$$$$$$$$$$$$$$$$$$$$$$$$$$$$$$$$$$$$$$$$$$$$$$$$$$$$$$$$$$$$$$$$$$$$$$$$%@.DDDDDDDDDDDD",
"DDDDDDDDDDDD                                                                                                      DDDDDDDDDDDDDD",
"DDDDDDDDDDDDDDDDDDDDDDDDDDDDDDDDDDDDDDDDDDDDDDDDDDDDDDDDDDDDDDDDDDDDDDDDDDDDDDDDDDDDDDDDDDDDDDDDDDDDDDDDDDDDDDDDDDDDDDDDDDDDDDDD",
"DDDDDDDDDDDDDDDDDDDDDDDDDDDDDDDDDDDDDDDDDDDDDDDDDDDDDDDDDDDDDDDDDDDDDDDDDDDDDDDDDDDDDDDDDDDDDDDDDDDDDDDDDDDDDDDDDDDDDDDDDDDDDDDD",
"DDDDDDDDDDDDDDDDDDDDDDDDDDDDDDDDDDDDDDDDDDDDDDDDDDDDDDDDDDDDDDDDDDDDDDDDDDDDDDDDDDDDDDDDDDDDDDDDDDDDDDDDDDDDDDDDDDDDDDDDDDDDDDDD",
"DDDDDDDDDDDDDDDDDDDDDDDDDDDDDDDDDDDDDDDDDDDDDDDDDDDDDDDDDDDDDDDDDDDDDDDDDDDDDDDDDDDDDDDDDDDDDDDDDDDDDDDDDDDDDDDDDDDDDDDDDDDDDDDD",
"DDDDDDDDDDDDDDDDDDDDDDDDDDDDDDDDDDDDDDDDDDDDDDDDDDDDDDDDDDDDDDDDDDDDDDDDDDDDDDDDDDDDDDDDDDDDDDDDDDDDDDDDDDDDDDDDDDDDDDDDDDDDDDDD",
"DDDDDDDDDDDDDDDDDDDDDDDDDDDDDDDDDDDDDDDDDDDDDDDDDDDDDDDDDDDDDDDDDDDDDDDDDDDDDDDDDDDDDDDDDDDDDDDDDDDDDDDDDDDDDDDDDDDDDDDDDDDDDDDD"
};
