/* XPM */
static char *graveman[] = {
/* columns rows colors chars-per-pixel */
"128 128 63 1 ",
"  c #030703070307",
". c #241524152415",
"X c #389138913891",
"o c #51CF51CF51CF",
"O c #59E059E05F26",
"+ c #66E166E166E1",
"@ c #734A734A6E66",
"# c #781378137813",
"$ c #8C4E8C4E8C4E",
"% c #9C719C719C71",
"& c #A20BA20BA5A4",
"* c #A921A921A921",
"= c #B78AB78AB78A",
"- c #BEAABBE3BEAA",
"; c #C004C004C004",
": c #C532C7A5C532",
"> c #CC4ACC4ACC4A",
", c #CF8DD099CF8D",
"< c #D497D497D497",
"1 c #D849D679D679",
"2 c #DBB2DBB2DBB2",
"3 c #DED9DE15DE15",
"4 c #DE15DED9DED9",
"5 c #E1C0E1C0E1C0",
"6 c #E6E1E6E1E6E1",
"7 c #EB37EB37EB37",
"8 c #ECDAECD3ECED",
"9 c #EEDDEEDDEEDD",
"0 c #F076F013F013",
"q c #F013F076F013",
"w c #F076F076F013",
"e c #F013F013F076",
"r c #F076F013F076",
"t c #F013F076F076",
"y c #F1EDF1EDF193",
"u c #F325F317F326",
"i c #F47FF47FF433",
"p c #F59EF558F558",
"a c #F558F59EF558",
"s c #F59EF59EF558",
"d c #F558F558F59E",
"f c #F59EF558F59E",
"g c #F558F59EF59E",
"h c #F665F665F665",
"j c #F794F75AF75A",
"k c #F75AF794F75A",
"l c #F794F794F75A",
"z c #F75AF75AF794",
"x c #F794F75AF794",
"c c #F75AF794F794",
"v c #F83AF83AF83A",
"b c #F919F922F923",
"n c #F9C1F9C1F9C1",
"m c #FA94FA6CFA6C",
"M c #FA6CFA94FA6C",
"N c #FA94FA94FA6C",
"B c #FA6CFA6CFA94",
"V c #FA6CFA94FA94",
"C c #FB08FB08FB08",
"Z c #FBFCFBFAFBFB",
"A c #FCF6FCF4FCF4",
"S c #FE0DFE0FFE10",
"D c None",
/* pixels */
"DDDDDDDDDDDDDDDDDDDDDDDDDDDDDDDDDDDDDDDDDDDDDDDDDDDDDDDDDDDDDDDDDDDDDDDDDDDDDDDDDDDDDDDDDDDDDDDDDDDDDDDDDDDDDDDDDDDDDDDDDDDDDDDD",
"DDDDDDDDDDDDDDDDDDDDDDDDDDDDDDDDDDDDDDDDDDDDDDDDDDDDDDDDDDDDDDDDDDDDDDDDDDDDDDDDDDDDDDDDDDDDDDDDDDDDDDDDDDDDDDDDDDDDDDDDDDDDDDDD",
"DDDDDDDDDDDDDDDDDDDDDDDDDDDDDDDDDDDDDDDDDDDDDDDDDDDDDDDDDDDDDDDDDDDDDDDDDDDDDDDDDDDDDDDDDDDDDDDDDDDDDDDDDDDDDDDDDDDDDDDDDDDDDDDD",
"DDDDDDDDDDDDDDDDDDDDDDDDDDDDDDDDDDDDDDDDDDDDDDDDDDDDDDDDDDDDDDDDDDDDDDDDDDDDDDDDDDDDDDDDDDDDDDDDDDDDDDDDDDDDDDDDDDDDDDDDDDDDDDDD",
"DDDDDDDDDDDDDDDDDDDDDDDDDDDDDDDDDDDDDDDDDDDDDDDDDDDDDDDDDDDDDDDDDDDDDDDDDDDDDDDDDDDDDDDDDDDDDDDDDDDDDDDDDDDDDDDDDDDDDDDDDDDDDDDD",
"DDDDDDDDDDDDDDDDDDDDDDDDDDDDDDDDDDDDDDDDDDDDDDDDDDDDDDDDDAAAAAAAAAAAAAAAADDDDDDDDDDDDDDDDDDDDDDDDDDDDDDDDDDDDDDDDDDDDDDDDDDDDDDD",
"DDDDDDDDDDDDDDDDDDDDDDDDDDDDDDDDDDDDDDDDDDDDDDDDDDDDAAAAAAAAAAAAAAAAAAAAAAAAAADDDDDDDDDDDDDDDDDDDDDDDDDDDDDDDDDDDDDDDDDDDDDDDDDD",
"DDDDDDDDDDDDDDDDDDDDDDDDDDDDDDDDDDDDDDDDDDDDDDDDAAAAAAAAAAAAAAAAAAAAAAAAAAAAAAAAAADDDDDDDDDDDDDDDDDDDDDDDDDDDDDDDDDDDDDDDDDDDDDD",
"DDDDDDDDDDDDDDDDDDDDDDDDDDDDDDDDDDDDDDDDDDDDDDAAAAAAAAAAAAAAAAAAAAAAAAAAAAAAAAAAAAAAADDDDDDDDDDDDDDDDDDDDDDDDDDDDDDDDDDDDDDDDDDD",
"DDDDDDDDDDDDDDDDDDDDDDDDDDDDDDDDDDDDDDDDDDDAAAAAAAAAAAAAAAAAAAAAAAAAAAAAAAAAAAAAAAAAAAADDDDDDDDDDDDDDDDDDDDDDDDDDDDDDDDDDDDDDDDD",
"DDDDDDDDDDDDDDDDDDDDDDDDDDDDDDDDDDDDDDDDDAAAAAAAAAAAAAAAAAAAAAAAAAAAAAAAAAAAAAAAAAAAAAAAAADDDDDDDDDDDDDDDDDDDDDDDDDDDDDDDDDDDDDD",
"DDDDDDDDDDDDDDDDDDDDDDDDDDDDDDDDDDDDDDDAAAAAAAAAAAAAAAAAAAAAAAAAAAAAAAAAAAAAAAAAAAAAAAAAAAAADDDDDDDDDDDDDDDDDDDDDDDDDDDDDDDDDDDD",
"DDDDDDDDDDDDDDDDDDDDDDDDDDDDDDDDDDDDDAAAAAAAAAAAAAAAAAAAAAAAAAAAAAAAAAAAAAAAAAAAAAAAAAAAAAAAADDDDDDDDDDDDDDDDDDDDDDDDDDDDDDDDDDD",
"DDDDDDDDDDDDDDDDDDDDDDDDDDDDDDDDDDDAAAAAAAAAAAAAAAAAAAAAAAAAAAAAAAAAAAAAAAAAAAAAAAAAAAAAAAAAAAADDDDDDDDDDDDDDDDDDDDDDDDDDDDDDDDD",
"DDDDDDDDDDDDDDDDDDDDDDDDDDDDDDDDDDAAAAAAAAAAAAAAAAAAAAAAAAAAAAAAAAAAAAAAAAAAAAAAAAAAAAAAAAAAAAAAADDDDDDDDDDDDDDDDDDDDDDDDDDDDDDD",
"DDDDDDDDDDDDDDDDDDDDDDDDDDDDDDDDAAAAAAAAAAAAAAAAAAAAAAAAAAAAAAAAAAAAAAAAAAAAAAAAAAAAAAAAAAAAAAAAAADDDDDDDDDDDDDDDDDDDDDDDDDDDDDD",
"DDDDDDDDDDDDDDDDDDDDDDDDDDDDDDDAAAAAAAAAAAAAAAAAAAAAAAAAAAAAAAAAAAAAAAAAAAAAAAAAAAAAAAAAAAAAAAAAAAAADDDDDDDDDDDDDDDDDDDDDDDDDDDD",
"DDDDDDDDDDDDDDDDDDDDDDDDDDDDDAAAAAAAAAAAAAAAAAAAAAAAAAAAAAAAAAAAAAAAAAAAAAAAAAAAAAAAAAAAAAAAAAAAAAAAADDDDDDDDDDDDDDDDDDDDDDDDDDD",
"DDDDDDDDDDDDDDDDDDDDDDDDDDDDAAAAAAAAAAAAAAAAAAAAAAAAAAAAAAAAAAAAAAAAAAAAAAAAAAAAAAAAAAAAAAAAAAAAAAAAAADDDDDDDDDDDDDDDDDDDDDDDDDD",
"DDDDDDDDDDDDDDDDDDDDDDDDDDDAAAAAAAAAAAAAAAAAAAAAAAAAAAAAAAAAACvCACCvCAAAAAAAAAAAAAAAAAAAAAAAAAAAAAAAAAADDDDDDDDDDDDDDDDDDDDDDDDD",
"DDDDDDDDDDDDDDDDDDDDDDDDDDAAAAAAAAAAAAAAAAAAAAAAAAAAAAACC8:;$..*5....o;=6ivAAAAAAAAAAAAAAAAAAAAAAAAAAAAADDDDDDDDDDDDDDDDDDDDDDDD",
"DDDDDDDDDDDDDDDDDDDDDDDDDAAAAAAAAAAAAAAAAAAAAAAAAAAAv6*@ .     oy%       XX&1yCCAAAAAAAAAAAAAAAAAAAAAAAAADDDDDDDDDDDDDDDDDDDDDDD",
"DDDDDDDDDDDDDDDDDDDDDDDDAAAAAAAAAAAAAAAAAAAAAAAACv6*.    DDDDDDDvyDDDD   o.XXX#1vCAAAAAAAAAAAAAAAAAAAAAAAADDDDDDDDDDDDDDDDDDDDDD",
"DDDDDDDDDDDDDDDDDDDDDDDAAAAAAAAAAAAAAAAAAAAAAAAy>o   DDDDDDDDDDDCA2DDDDDDDD.Xo+oX*6CAAAAAAAAAAAAAAAAAAAAAAADDDDDDDDDDDDDDDDDDDDD",
"DDDDDDDDDDDDDDDDDDDDDDAAAAAAAAAAAAAAAAAAAAACC8%  DDDDDDDDDDDDDDDCAvDDDDDDDDDDD.o@o.+5vCAAAAAAAAAAAAAAAAAAAAADDDDDDDDDDDDDDDDDDDD",
"DDDDDDDDDDDDDDDDDDDDDAAAAAAAAAAAAAAAAAAAAAAv:  DDDDDDDDDDDDDDDDDAACDDDDDDDDDDDDDD.oX +8CAAAAAAAAAAAAAAAAAAAAADDDDDDDDDDDDDDDDDDD",
"DDDDDDDDDDDDDDDDDDDDAAAAAAAAAAAAAAAAAAAAAC2X DDDDDDDDDDDDDDDDDDvAAADDDDDDDDDDDDDDDD X..*yAAAAAAAAAAAAAAAAAAAAADDDDDDDDDDDDDDDDDD",
"DDDDDDDDDDDDDDDDDDDAAAAAAAAAAAAAAAAAAAAAy% DDDDDDDDDDDDDDDDDDDDCAAADDDDDDDDDDDDDDDDDD.  o3AAAAAAAAAAAAAAAAAAAAADDDDDDDDDDDDDDDDD",
"DDDDDDDDDDDDDDDDDDDAAAAAAAAAAAAAAAAAAAC6oDDDDDDDDDDDDDDDDDDDDDDAAAACDDDDDDDDDDDDDDDDDDD.  >vZAAAAAAAAAAAAAAAAAAADDDDDDDDDDDDDDDD",
"DDDDDDDDDDDDDDDDDDAAAAAAAAAAAAAAAAAAAC1 DDDDDDDDDDDDDDDDDDDDDDCAAAZCDDDDDDDDDDDDDDDDDDDDD  $iAAAAAAAAAAAAAAAAAAADDDDDDDDDDDDDDDD",
"DDDDDDDDDDDDDDDDDCAAAAAAAAAAAAAAAAAAv;DDDDDDDDDDDDDDDDDDDDDDDCAAAAACDDDDDDDDDDDDDDDDDDDDDD  @6CAAAAAAAAAAAAAAAAAADDDDDDDDDDDDDDD",
"DDDDDDDDDDDDDDDDDAAAAAAAAAAAAAAAAAAy@DDDDDDDDDDDDDDDDDDDDDDDCAAAAAADDDDDDDDDDDDDDDDDDDDDDDDD  2CAAAAAAAAAAAAAAAAAADDDDDDDDDDDDDD",
"DDDDDDDDDDDDDDDDCAAAAAAAACAAAACAAAy#DDDDDDDDDDDDDDDDDDDDDDDvAZAACACDDDDDDDDDDDDDDDDDDDDDDDDDD  5AAAAAAAZZAAAZAAZAZDDDDDDDDDDDDDD",
"DDDDDDDDDDDDDDDvAAAAAZAAAAAAAZAAAi#DDDDDDDDDDDDDDDDDDDDDDDDAAAACAAiDDDDDDDDDDDDDDDDDDDDDDDDDDD  3AAAAZAAAAZAAAAZAAZDDDDDDDDDDDDD",
"DDDDDDDDDDDDDDDCACAAAAAACAACAAAAC>DDDDDDDDDDDDDDDDDDDDDDDDCAZZAAACDDDDDDDDDDDDDDDDDDDDDDDDDDDDD  7AAAZZAAZZZZAZZAAADDDDDDDDDDDDD",
"DDDDDDDDDDDDDDCAAAAACAACAAAAACAC2DDDDDDDDDDDDDDDDDDDDDDDDCACAAZCCvDDDDDDDDDDDDDDDDDDDDDDDDDDDDDD $yAZAAZAZAAAZAAZCAZDDDDDDDDDDDD",
"DDDDDDDDDDDDDDCCAAACAAAAAAAAACC3DDDDDDDDDDDDDDDDDDDDDDDDCCAACAAACDDDDDDDDDDDDDDDDDDDDDDDDDDDDDDDD $vZZZZAZZAZAZZZZAZDDDDDDDDDDDD",
"DDDDDDDDDDDDDvAACACACACCACCAAAyDDDDDDDDDDDDDDDDDDDDDDDDDCAACAZZZvDDDDDDDDDDDDDDDDDDDDDDDDDDDDDDDDD 1CZZZZZZZZZZZZZZZCDDDDDDDDDDD",
"DDDDDDDDDDDDDCCAAZACZZZACACCCv$DDDDDDDDDDDDDDDDDDDDDDDDCAACACACZ8DDDDDDDDDDDDDDDDDDDDDDDDDDDDDDDDDD 5ZZZZZZZZZZZAZZZADDDDDDDDDDD",
"DDDDDDDDDDDDvAZZCACACAZAACAAC5DDDDDDDDDDDDDDDDDDDDDDDDCZACACACACDDDDDDDDDDDDDDDDDDDDDDDDDDDDDDDDDDDD+iAZZZZZAZAZZZZZZCDDDDDDDDDD",
"DDDDDDDDDDDDCACAACZCAAACCACCyDDDDDDDDDDDDDDDDDDDDDDDDDCAZAZZCZCvDDDDDDDDDDDDDDDDDDDDDDDDDDDDDDDDDDDD :CZCAZCCZCCZZZZZCDDDDDDDDDD",
"DDDDDDDDDDDyCCACCAACACCACACC=DDDDDDDDDDDDDDDDDDDDDDDDvCACCZZAACCDDDDDDDDDDDDDDDDDDDDDDDDDDDDDDDDDDDDDXyCACCAACZACZCZZZCDDDDDDDDD",
"DDDDDDDDDDDvCACAACCCCACCACCyDDDDDDDDDDDDDDDDDDDDDDDDDCCCZCZZCZZCDDDDDDDDDDDDDDDDDDDDDDDDDDDDDDDDDDDDDD=vZCCCACCCZCACCACDDDDDDDDD",
"DDDDDDDDDDDCCCCCCCAACCCAACC;DDDDDDDDDDDDDDDDDDDDDDDDvCCZAZZCZCZCvDDDDDDDDDDDDDDDDDDDDDDDDDDDDDDDDDDDDD 5CZCAACCACACZCCCDDDDDDDDD",
"DDDDDDDDDDyCACCACZZCCAACCCyDDDDDDDDDDDDDDDDDDDDDDDDDCCCZCZCCCCCZCCDDDDDDDDDDDDDDDDDDDDDDDDDDDDDDDDDDDDD*CCACCCZCCZCZZCCCDDDDDDDD",
"DDDDDDDDDDCCCCCCCCCZCCCCCC:DDDDDDDDDDDDDDDDDDDDDDDDyCZCCCCCACCCCCCCCDDDDDDDDDDDDDDDDDDDDDDDDDDDDDDDDDDD.8CCCACCCCCCCCCCCDDDDDDDD",
"DDDDDDDDDDCCCACZCACZCCCCCyDDDDDDDDDDDDDDDDDDDDDDDDDvCCCZCCCCCCCCCCCCCCCCDDDDDDDDDDDDDDDDDDDDDDDDDDDDDDDD>CCCCCCCCZCCCCCCDDDDDDDD",
"DDDDDDDDD8CCCCCCCZCCCCCCC3DDDDDDDDDDDDDDDDDCDDDDDDDCCCCZCCCCCCCCCCCCCCCCCCCDDDDDDDDDDDDDDDDDDDDDDDDDDDDD.iCCCCCCCCCCCCCCCDDDDDDD",
"DDDDDDDDDyCCCCCCCCCCCCCCvDDDDDDDDDDDDDDDDDDDCDDDDD8ACCCCCCCCCCCCCCCCCCCCCCCCDDDDDDDDDDDDDDDDDDDDDDDDDDDDD5CCCCCCCCCCCCCCCDDDDDDD",
"DDDDDDDDDvCCCCCCCCCCCCCC8DDDDDDDDDDDDDDDDDDDCDDDDD8CCCCCCCCCCCCCCCCCCCCCCCCCCDDDDDDDDDDCDDDDDDDDDDDDDDDDD*vCCCCvCCCCCCCCCDDDDDDD",
"DDDDDDDDDCCCCCCCCCCCCCCC1DDDDDDDDDDDDDDDDDDDCCDDDDvCCCCCCCCCvCCCCCCCCCCCCCCCCCDDDDDDDDCCDDDDDDDDDDDDDDDDDXyCCCCCCCCCCCCCCDDDDDDD",
"DDDDDDDD6CCCCCCCCCCCCCCvDDDDDDDDDDDDDDDDDDDvCCDDDDCCCCCCCCCCCCCCCCCCCCCCvCCCCCCDDDDDDDCCDDDDDDDDDDDDDDDDDD7vCCCCCCCCvCCCCvDDDDDD",
"DDDDDDDD8CCCCCCCCCCCCCCvDDDDDDDDDDDDDDDDDDDyCCDDDDvCCCCCCCCCCCCCCCCCvCCvCCCvCvCDDDDDDDCCCDDDDDDDDDDDDDDDDD1CCCCCCCCCvCvCCCDDDDDD",
"DDDDDDDDyvCCCCCCCvCCvCC8DDDDDDDDDDDDDDDDDDDvCCDDDDvCCCCvvCCvCCvCCCCCCCCCvCCCCCCCDDDDDDCCCDDDDDDDDDDDDDDDDD*vvCvCCvCCCCCCvCDDDDDD",
"DDDDDDDDvCCCvCCvCCCCCCvDDDDDDDDDDDDDDDDDDDDvCvDDDDyCvCCCCCCvvCCvvCvvCCCvCCCCCCvCDDDDDDvCCDDDDDDDDDDDDDDDDDOvCCCCCCvCvCCCCCDDDDDD",
"DDDDDDDDvCvCCvvCCvvCvCCDDDDDDDDDDDDDDDDDDDyvCCDDDD6vCCCvvCCCvCCvCCCCvvCCCvvCvCvCvDDDDDyCCvDDDDDDDDDDDDDDDDDwCvvCvCCvCvvCCvDDDDDD",
"DDDDDDDDvCCvCvCCvCCvCvvDDDDDDDDDDDDDDDDDDDvCCvDDDD;vCvCCvCvvvCvCCvCCCvvCvCCCvCvCvDDDDD8CvCCDDDDDDDDDDDDDDDD5CCCvCCvCvCvCvCDDDDDD",
"DDDDDDDDvCCCCvvCCvvCCvvDDDDDDDDDDDDDDDDDDvCCCvDDDDD3vCCvCCvCCvCCvCvvvCCvvCvCCvvCCDDDDDDvCCvvDDDDDDDDDDDDDDD5vCCvvvCvCvCvCvDDDDDD",
"DDDDDDD5vCvCvCCvvCCvCCvDDDDDDDDDDDDDDDDDvCvCC8DDDDD 2CvCvCCCvCvCCCCCCCvCCCCCCCCvCDDDDDDqvCCvCDDDDDDDDDDDDDD5vCCCCvCCCvCCvCvDDDDD",
"DDDDDDD5CvCvCCvCCvCCvC7DDDDDDDDDDDDDDDDvvvCvvDDDDDDD 1yCCCvvCCvCvvvvCvCvvvvvvvvCCDDDDDD>vvvvCCDDDDDDDDDDDDD=vvvvCvvvCvvvCvyDDDDD",
"DDDDDDD5vCvCCvvvvCvvCv7DDDDDDDDDDDDDDDvvvCvCyDDDDDDDD #5yCCCvCvvCvvvvvCvCvvCvCvCCDDDDDDD8CvCCvvvDDDDDDDDDDDDvCvCvvvCCCvCvCvDDDDD",
"DDDDDDD2vvvCvvCvCvCvvC7DDDDDDDDDDDDDDvCvvvvC3DDDDDDDDD  #2yvCvCvvCvCCvvCvCvvvCvvvDDDDDDD-vCvvvCvvDDDDDDDDDDDyvvvvCvvvvvvvvvDDDDD",
"DDDDDDD2vCvCCCvCvCvCvv7DDDDDDDDDDDDDCvvvvCvvDDDDDDDDDDD   @;8vvvvCCvvCCvvvvCvvvvvDDDDDDDD7vvvCvvCvDDDDDDDDDDvCCvvCvCCvvCCvvDDDDD",
"DDDDDDD2vvvvvvvvvvvvvCDDDDDDDDDDDDDvvCvCCvv8DDDDDDDDDDDDD   .%7vvvvvvvvvvCvvCvCv8DDDDDDDD=vvvCvvCvvvDDDDDDDDvvvvvvvvvvvvvvvDDDDD",
"DDDDDDD2vCvvvvvvvvvCvCDDDDDDDDDDDDvvvvvvCvv7DDDDDDDDDDDDDDD   X=8CvvvvvvvvvCvCvvDDDDDDDDDD8CvvvvvCvvvDDDDDDDvvvvvvvCvvvvvvvDDDDD",
"DDDDDDD1vvvCvvvvvvvvvC8DDDDDDDDDDvvvvvvvvvvDDDDDDDDDDDDDDDDDD   $8vvvvvvvvvvvvv8DDDDDDDDDD5vvvvvvvvvvvDDDDDDvvvvvvvvvvvvvvvDDDDD",
"DDDDDDD2vvvvvvvvvvvvvCyDDDDDDDDDDvvvvvvvvvvDDDDDDDDDDDDDDDDDDDD  $yCvvvvvvvvvvvDDDDDDDDDDD5vvvvvvvvvvvvDDDD2vvvvvvvvvvvvvvyDDDDD",
"DDDDDDD;vvvvvvvvvvvvvvvDDDDDDDDDyvvvCvvvvvvyDDDDDDDDDDDDDDDDDDDD  5vvvvvvvvvvv6DDDDDDDDDDD6vvvvvvvvvvvvDDDD6vvvvvvvvvvvvvv8DDDDD",
"DDDDDDDDivvvvvvvvvvvvvvDDDDDDDDD8vvvvvvvvvvyDDDDDDDDDDDDDDDDDDDDD =vvvvvvvvvv8DDDDDDDDDDDDyvvvvvvvvvvvvyDDD6vvvvvvvvvvvvvvDDDDDD",
"DDDDDDDDivvvvvvvvvvvvvyDDDDDDDDDyvvvivvvvvvviDDDDDDDDDDDDDDDDDDDDD+ivvvvvvvv8*DDDDDDDDDDD6vvvvvvvvivvvvvDDDevvivvvvvvvvvvvDDDDDD",
"DDDDDDDDevvvvvvvvvvvvvvDDDDDDDDD8vvvvvvivvvvvDDDDDDDDDDDDDDDDDDDDD+ivivvvvvy*DDDDDDDDDDDDvvvvyvvvvvvvvvvDDDivivvvvviivvvvvDDDDDD",
"DDDDDDDD7vvvvvivivvvvvvDDDDDDDDD6vvvvvvvvvvvvvDDDDDDDDDDDDDDDDDDDD@ivvvvivy%DDDDDDDDDDDDvvyvvvvvvvvvivvyDDDivvvvvivvvvvivyDDDDDD",
"DDDDDDDD2vvvivvvvvvvivvyDDDDDDDD5vvvvvvvivvddviDDDDDDDDDDDDDDDDDDD>ivvvvvv2DDDDDDDDDDDDvvvvvvvvvyvvvvivyDD2vvvviivvvivivvyDDDDDD",
"DDDDDDDD<vvvvvivvvvvvivvDDDDDDDD5vvvvivivdvvvvviDDDDDDDDDDDDDDDDDD8vvvyvy2DDDDDDDDDDDDvvivivivdivvvyvvi8DD4vivvvvvivvvvvvyDDDDDD",
"DDDDDDDD$iviivvvvvvvvvvyDDDDDDDD5vvyviivvvivivdvvyDDDDDDDDDDDDDDDDyvivvv1DDDDDDDDDDDvividvvddvdvivviyvvDDD8vvivivvivivivv6DDDDDD",
"DDDDDDDDDyivviivyvyviivvyDDDDDDD%wvvvvivvivivdvvvvvDDDDDDDDDDDDDD8vvyvy1DDDDDDDDDDiivvvivvivivdvvvivvv7DDDyviviviiivviviyDDDDDDD",
"DDDDDDDDD6vvivdvviviviviyDDDDDDDD2viivivvivvivvivivvvDDDDDDDDDDDDvvyvy1DDDDDDDDDivivvdiviivdviviivvvy6DDD5vvvyvivivivivvyDDDDDDD",
"DDDDDDDDD>viviviivivivivvDDDDDDDDO8vviviivivvivviviyvyDDDDDDDDDDyvvvv2DDDDDDDDDidvviidvddvvddvivvii6*DDDD8yvvvviivivvyvy8DDDDDDD",
"DDDDDDDDD$evivivviviviviveDDDDDDDD:yivivviivivvyvyvvvvDDDDDDDDDyyvyv8@DDDDDDDDivdividvvdivdvviviii>XDDDDDyvvyvyvivviivvv7DDDDDDD",
"DDDDDDDDDD8iviivivivivivivDDDDDDDD.6viviiiviiivyvvyvyvDDDDDDDDeivvyy%DDDDDDDDDvvviiiviiivididiivy> DDDDD8vvyivviiivivyvyDDDDDDDD",
"DDDDDDDDDD1vivividvdivvdiiDDDDDDDDD:yvyyvivvivivviiviviDDDDDDyvvyvv5DDDDDDDDD7ivvyiivviivviiviii2DDDDDDDiidiiiddvviiiiieDDDDDDDD",
"DDDDDDDDDD%yyvvyvdidididiviDDDDDDDDX7vvvyvyvyvvyyvvyiiyDDDDDiyvyviy%DDDDDDDDD8yvyvviiiiiiiiiidve$DDDDDD5iviiividiivivii5DDDDDDDD",
"DDDDDDDDDDD7vyyvdiividiiyvvDDDDDDDDD2vyvvvyyyvyiviyviiyDDDDeyviiyv7DDDDDDDDDDyviviyiiiiviiivivi4DDDDDDDyiiivdiidiiiiivyDDDDDDDDD",
"DDDDDDDDDDD>yivyidiidiviiivyDDDDDDDD*yvyyvyvivyvyviiiv8DDDDiviivvy6DDDDDDDDDD8yvyvviviiiiiiiiii*DDDDDD8iiidiiddidiiiiieDDDDDDDDD",
"DDDDDDDDDDD@eivydiiddiiiiiiiyDDDDDDDo8yvyviiiivyvyvvyv6DDDivyiiivyyDDDDDDDDDD1iiviiiiiiiiiiiiiyDDDDDDDiiiviiiiidiiiiii1DDDDDDDDD",
"DDDDDDDDDDDD2iviiiiiiiiiyviiiDDDDDDDoevyiiiiiiiiyvyyyyDDDyiiviiiyvyDDDDDDDDDD=iiiiiiiiiiiiiiiy8DDDDDDeiiiiiiiiiiiiiii8DDDDDDDDDD",
"DDDDDDDDDDDD$yyiiiiiiiiiiiiiiiDDDDDDDevyiiiiiiiivyyyi2DDyiiyyiiivyy8DDDDDDDDDD5iiiiiiiiiiiiiii8DDDDDDiiiiiiiiiiiiiiii5DDDDDDDDDD",
"DDDDDDDDDDDD 5yiiiiiiiiiiiiiiiDDDDDDD8yviiiiiiiiyyvv6DD7vyyviyiivyvyDDDDDDDDDD#8iiiriiiiiiiiiieDDDDDeiiiyiiiiiyiiiiieDDDDDDDDDDD",
"DDDDDDDDDDDDD$rviiiiiyiiuiyiiiiDDDDDD9yiiiiiiiiyive2$D1yiiiiiiyiyiyirDDDDDDDDDD*6riiiiiiyyiyiyyDDDDeiiiyiiyyiiiiiiii3DDDDDDDDDDD",
"DDDDDDDDDDDDD 3yiiyiiiuiyiiiriiiDDDD4iiiiyriiiiiy8< D@eyiieiiiiiyiiiiiyDDDDDDDD +2eiyiyiiiiiyiy2DD8iyiyiyiiiiyyuyiy8DDDDDDDDDDDD",
"DDDDDDDDDDDDDD$8iriiuiuiiyuuiiiyyDDDyieiyiyiiyyi6% DD3yiieiiyiiiiiyiiiiyyDDDDDDD X;8iyyiiyiyiyi8D6yiieiiiyiyuyiuiyi2DDDDDDDDDDDD",
"DDDDDDDDDDDDDD 1iiryuyuyiiiyiyyiy8D8tiiiiiiyeiy1+ DDD8yyiityiyyyyyiytyiiyieDDDDDD  $4yiiuiyiyiyieyiyiiieiriiuueiyi6DDDDDDDDDDDDD",
"DDDDDDDDDDDDDDD+6iyiyitiuuyiiiriyiryiitiiiyiii8+ DDD1yyietiyiyiiiyyitiyyyyyye2DDDD  @8iyueieiyiiryeieiiiirieieyyty;DDDDDDDDDDDDD",
"DDDDDDDDDDDDDDD =eietiyieiieyyieyiiyeiyyyyyyer; DDDD8yiyeieiyyyyiyyiytiiiyyiyy3DDDD  1yyeiiyyeriyiyieyeeyyyiyiyyy5DDDDDDDDDDDDDD",
"DDDDDDDDDDDDDDDD.2iyyiiteietyiiyiyyyiytiryiyyy=DDDD*eyyyiyyiyyyyeyiyyyyyyyyyyyy1DDDD *8yeeiyyyyyiyyyyyyyyyyyyyyy8%DDDDDDDDDDDDDD",
"DDDDDDDDDDDDDDDDD+6yytyyyyeiyyeyyyyyyyyyyyyyyy;DDDD>yyyytyyeyyyyyyryyyyyyyyyyyy8DDDD *eyieeyyyyyyyyyyyyyyyyyyyye:DDDDDDDDDDDDDDD",
"DDDDDDDDDDDDDDDDD =8yyyyyyyyyyyyyyyyyyyyyyyyyy2DDDD5yyyyyyyyyyyyyyyyyyyyyyyyyyy8DDDD.3yyyyyyyyyyyyyyyyyyytyyyyy2DDDDDDDDDDDDDDDD",
"DDDDDDDDDDDDDDDDDD 1yyyyryyyyyy8yyye8yyyyyy8yy8DDDD8yyyyeyy8yyyyy8yyy8yy8ytyyyyy3DDD@68yyeyyyryyyyeyyeyeyyy8yy6DDDDDDDDDDDDDDDDD",
"DDDDDDDDDDDDDDDDDDDo28yyyyyyy8yyyy8yyyyyyyyyyyw6DD;8yyqyyyy8eytyyeyyyeyyyyyyyeyt5DDD18yyryyy8yyyyeyeye8yyttyy7*DDDDDDDDDDDDDDDDD",
"DDDDDDDDDDDDDDDDDDD o5yyry8yyyyyyyyytyy8yy8y8ywy321888yyeyyyyt8y8yyy8y8yytey8yy81DD:8yyyy8y8ye8yeeee8yeytyty7*DDDDDDDDDDDDDDDDDD",
"DDDDDDDDDDDDDDDDDDDD %78yyey8yyyyyty8yyy8ytyyy8y8e88yyyeytty80y8y00ryyey8yyyqq8y1->8yyy8eyrre8yyy88teyy8y8y8>DDDDDDDDDDDDDDDDDDD",
"DDDDDDDDDDDDDDDDDDDDD &688yyy88y8yy8yy8y8ty8t8ye888yy88yyy8yyyyytyy88y8yy8y8tyy866888y8y8yy8yy8yteyyy8eyt8e<DDDDDDDDDDDDDDDDDDDD",
"DDDDDDDDDDDDDDDDDDDDDD *7yy88y8yy8y8ety8yytyty8yt88e8yy8r88y8y8yy88yy8y8ye8y8y88678yt8y88ye8r8888y8y8r8y8t1DDDDDDDDDDDDDDDDDDDDD",
"DDDDDDDDDDDDDDDDDDDDDDD %68yey8ey8ttt88ye88t8ty88yy8yt8y8yy8y88yyry8y8ey88ety8y88t8ey8eee8yey8yy8y8yeee881DDDDDDDDDDDDDDDDDDDDDD",
"DDDDDDDDDDDDDDDDDDDDDDDD *68yy8yt8y8y8q88e8ye8e8y88yy88y88y88wq8888w8q8y8w8y8w8yt8y8t8e888y88yy8e8e88y88>DDDDDDDDDDDDDDDDDDDDDDD",
"DDDDDDDDDDDDDDDDDDDDDDDD  %688e88y8ty88yt8y88y8e8yy88qy88y8ew88w8yq8y888w8w8y8888t8t8y8ty88yy8888y8te88>DDDDDDDDDDDDDDDDDDDDDDDD",
"DDDDDDDDDDDDDDDDDDDDDDDDDD $188tt88y88888yy8y8y8e888y88808t8wqw8ye88e8y8www888wyt8888e8y8y8y8t8yy8y8e5*DDDDDDDDDDDDDDDDDDDDDDDDD",
"DDDDDDDDDDDDDDDDDDDDDDDDDDD o1y888t8y8y88888e88e8y8y88wq88y8888w888y88y8888w88888tt8t8888888888888e86%DDDDDDDDDDDDDDDDDDDDDDDDDD",
"DDDDDDDDDDDDDDDDDDDDDDDDDDDD X=68888y88888q888888888888888888888888888r8888888888888888888888888888>#DDDDDDDDDDDDDDDDDDDDDDDDDDD",
"DDDDDDDDDDDDDDDDDDDDDDDDDDDDD  %388888888888888888888888888888888888888888888888888888888888888886=XDDDDDDDDDDDDDDDDDDDDDDDDDDDD",
"DDDDDDDDDDDDDDDDDDDDDDDDDDDDDD  o:688888888887788888888888888888888888888888888788888888888888881%DDDDDDDDDDDDDDDDDDDDDDDDDDDDDD",
"DDDDDDDDDDDDDDDDDDDDDDDDDDDDDDDD  %168887888888888888888888888888887887887888888888788888788885=XDDDDDDDDDDDDDDDDDDDDDDDDDDDDDDD",
"DDDDDDDDDDDDDDDDDDDDDDDDDDDDDDDDD  X=58887877888878877777787788778877777787777777777777787776>+ DDDDDDDDDDDDDDDDDDDDDDDDDDDDDDDD",
"DDDDDDDDDDDDDDDDDDDDDDDDDDDDDDDDDD   o;5777777777777877787777777777777777777777777777777776,% DDDDDDDDDDDDDDDDDDDDDDDDDDDDDDDDDD",
"DDDDDDDDDDDDDDDDDDDDDDDDDDDDDDDDDDDD   o=577777877777777778777777777777677776777777778776<$.DDDDDDDDDDDDDDDDDDDDDDDDDDDDDDDDDDDD",
"DDDDDDDDDDDDDDDDDDDDDDDDDDDDDDDDDDDDDD   O*16777776777777767777877777777777777777777763=@  DDDDDDDDDDDDDDDDDDDDDDDDDDDDDDDDDDDDD",
"DDDDDDDDDDDDDDDDDDDDDDDDDDDDDDDDDDDDDDDD   .$>566777777777677766677677777777777677651*o  DDDDDDDDDDDDDDDDDDDDDDDDDDDDDDDDDDDDDDD",
"DDDDDDDDDDDDDDDDDDDDDDDDDDDDDDDDDDDDDDDDDD    X$:26667676767677767777676676767765>*+. DDDDDDDDDDDDDDDDDDDDDDDDDDDDDDDDDDDDDDDDDD",
"DDDDDDDDDDDDDDDDDDDDDDDDDDDDDDDDDDDDDDDDDDDDD    X$*<166677667767676676876662<=$o.  DDDDDDDDDDDDDDDDDDDDDDDDDDDDDDDDDDDDDDDDDDDD",
"DDDDDDDDDDDDDDDDDDDDDDDDDDDDDDDDDDDDDDDDDDDDDDD      .@#*,,,15666656621><=$#X.   DDDDDDDDDDDDDDDDDDDDDDDDDDDDDDDDDDDDDDDDDDDDDDD",
"DDDDDDDDDDDDDDDDDDDDDDDDDDDDDDDDDDDDDDDDDDDDDDDDDDD         .++@@+@@@X        DDDDDDDDDDDDDDDDDDDDDDDDDDDDDDDDDDDDDDDDDDDDDDDDDD",
"DDDDDDDDDDDDDDDDDDDDDDDDDDDDDDDDDDDDDDDDDDDDDDDDDDDDDDDD                 DDDDDDDDDDDDDDDDDDDDDDDDDDDDDDDDDDDDDDDDDDDDDDDDDDDDDDD",
"DDDDDDDDDDDDDDDDDDDDDDDDDDDDDDDDDDDDDDDDDDDDDDDDDDDDDDDDDDDDDDDDDDDDDDDDDDDDDDDDDDDDDDDDDDDDDDDDDDDDDDDDDDDDDDDDDDDDDDDDDDDDDDDD",
"DDDDDDDDDDDDDDDDDDDDDDDDDDDDDDDDDDDDDDDDDDDDDDDDDDDDDDDDDDDDDDDDDDDDDDDDDDDDDDDDDDDDDDDDDDDDDDDDDDDDDDDDDDDDDDDDDDDDDDDDDDDDDDDD",
"DDDDDDDDDDDDDDDDDDDDDDDDDDDDDDDDDDDDDDDDDDDDDDDDDDDDDDDDDDDDDDDDDDDDDDDDDDDDDDDDDDDDDDDDDDDDDDDDDDDDDDDDDDDDDDDDDDDDDDDDDDDDDDDD",
"DDDDDDDDDDDDDDDDDDDDDDDDDDDDDDDDDDDDDDDDDDDDDDDDDDDDDDDDDDDDDDDDDDDDDDDDDDDDDDDDDDDDDDDDDDDDDDDDDDDDDDDDDDDDDDDDDDDDDDDDDDDDDDDD",
"DDDDDDDDDDDDDDDDDDDDDDDDDDDDDDDDDDDDDDDDDDDDDDDDDDDDDDDDDDDDDDDDDDDDDDDDDDDDDDDDDDDDDDDDDDDDDDDDDDDDDDDDDDDDDDDDDDDDDDDDDDDDDDDD",
"DDDDDDDDDDDDDDDDDDDDDDDDDDDDDDDDDDDDDDDDDDDDDDDDDDDDDDDDDDDDDDDDDDDDDDDDDDDDDDDDDDDDDDDDDDDDDDDDDDDDDDDDDDDDDDDDDDDDDDDDDDDDDDDD"
};
