/* XPM */
static char *opera[] = {
/* columns rows colors chars-per-pixel */
"128 128 55 1 ",
"  c #000100010001",
". c #270B270B270B",
"X c #389138913891",
"o c #4C544C544C54",
"O c #645364536453",
"+ c #7A6E7A6E7A6E",
"@ c #8A2A87FF87FF",
"# c #9C719C719C71",
"$ c #A5A4A20BA20B",
"% c #A766A766A766",
"& c #B78AB60BB78A",
"* c #BD4ABA77BD4A",
"= c #C004C004C004",
"- c #CC4ACB29CB29",
"; c #D497D497D497",
": c #DADEDA06DA06",
"> c #DF98DE15DE15",
", c #E270E270E270",
"< c #E649E649E649",
"1 c #E9ADE898E809",
"2 c #EBB5EBB5EBB5",
"3 c #ED1EECA8ECEF",
"4 c #EE71EE71EE71",
"5 c #F076F013F013",
"6 c #F076F076F013",
"7 c #F013F013F076",
"8 c #F013F076F076",
"9 c #F1EDF1EDF1ED",
"0 c #F310F317F31E",
"q c #F47FF47FF47F",
"w c #F59EF511F511",
"e c #F59EF59EF558",
"r c #F558F558F59E",
"t c #F59EF558F59E",
"y c #F558F59EF59E",
"u c #F665F665F665",
"i c #F794F75AF75A",
"p c #F75AF794F75A",
"a c #F75AF75AF794",
"s c #F794F75AF794",
"d c #F75AF794F794",
"f c #F83AF83AF83A",
"g c #F91AF922F91A",
"h c #F9C1F9C1F9C1",
"j c #FABCFA6CFA6C",
"k c #FA94FA94FA6C",
"l c #FA6CFA6CFA94",
"z c #FA94FA6CFA94",
"x c #FA6CFA94FA94",
"c c #FB08FB08FB08",
"v c #FBF0FBEFFBE6",
"b c #FCFAFCF6FCFC",
"n c #FD5BFD88FD88",
"m c #FDEBFDEAFDEA",
"M c None",
/* pixels */
"MMMMMMMMMMMMMMMMMMMMMMMMMMMMMMMMMMMMMMMMMMMMMMMMMMMMMMMMMMMMMMMMMMMMMMMMMMMMMMMMMMMMMMMMMMMMMMMMMMMMMMMMMMMMMMMMMMMMMMMMMMMMMMMM",
"MMMMMMMMMMMMMMMMMMMMMMMMMMMMMMMMMMMMMMMMMMMMMMMMMMMMMMMMMMMMMMMMMMMMMMMMMMMMMMMMMMMMMMMMMMMMMMMMMMMMMMMMMMMMMMMMMMMMMMMMMMMMMMMM",
"MMMMMMMMMMMMMMMMMMMMMMMMMMMMMMMMMMMMMMMMMMMMMMMMMMMMMMMMMMMMMMMMMMMMMMMMMMMMMMMMMMMMMMMMMMMMMMMMMMMMMMMMMMMMMMMMMMMMMMMMMMMMMMMM",
"MMMMMMMMMMMMMMMMMMMMMMMMMMMMMMMMMMMMMMMMMMMMMMMMMMMMMMMMMMMMMMMMMMMMMMMMMMMMMMMMMMMMMMMMMMMMMMMMMMMMMMMMMMMMMMMMMMMMMMMMMMMMMMMM",
"MMMMMMMMMMMMMMMMMMMMMMMMMMMMMMMMMMMMMMMMMMMMMMMMMMMMMMMMMMMMMMMMMMMMMMMMMMMMMMMMMMMMMMMMMMMMMMMMMMMMMMMMMMMMMMMMMMMMMMMMMMMMMMMM",
"MMMMMMMMMMMMMMMMMMMMMMMMMMMMMMMMMMMMMMMMMMMMMMMMMMMMMMMMMMMMMMMMMMMMMMMMMMMMMMMMMMMMMMMMMMMMMMMMMMMMMMMMMMMMMMMMMMMMMMMMMMMMMMMM",
"MMMMMMMMMMMMMMMMMMMMMMMMMMMMMMMMMMMMMMMMMMMMMMMMMMMMMMMMMMMMMMMMMMMMMMMMMMMMMMMMMMMMMMMMMMMMMMMMMMMMMMMMMMMMMMMMMMMMMMMMMMMMMMMM",
"MMMMMMMMMMMMMMMMMMMMMMMMMMMMMMMMMMMMMMMMMMMMMMMMMMMMMMMMMMMMMMMMMMMMMMMMMMMMMMMMMMMMMMMMMMMMMMMMMMMMMMMMMMMMMMMMMMMMMMMMMMMMMMMM",
"MMMMMMMMMMMMMMMMMMMMMMMMMMMMMMMMMMMMMMMMMMMMMMMMMMMMMMMMMMMMMMMMMMMMMMMMMMMMMMMMMMMMMMMMMMMMMMMMMMMMMMMMMMMMMMMMMMMMMMMMMMMMMMMM",
"MMMMMMMMMMMMMMMMMMMMMMMMMMMMMMMMMMMMMMMMMMMMMMMMMMMMMMMMMMMMMMMMMMMMMMMMMMMMMMMMMMMMMMMMMMMMMMMMMMMMMMMMMMMMMMMMMMMMMMMMMMMMMMMM",
"MMMMMMMMMMMMMMMMMMMMMMMMMMMMMMMMMMMMMMMMMMMMMMMMMMMMMMMMMMMMMMMMMMMMMMMMMMMMMMMMMMMMMMMMMMMMMMMMMMMMMMMMMMMMMMMMMMMMMMMMMMMMMMMM",
"MMMMMMMMMMMMMMMMMMMMMMMMMMMMMMMMMMMMMMMMMMMMMMMMMMMMMMMMMMMMMMMMMMMMMMMMMMMMMMMMMMMMMMMMMMMMMMMMMMMMMMMMMMMMMMMMMMMMMMMMMMMMMMMM",
"MMMMMMMMMMMMMMMMMMMMMMMMMMMMMMMMMMMMMMMMMMMMMMMMMMMMMMMMMMMMMMMMMMMMMMMMMMMMMMMMMMMMMMMMMMMMMMMMMMMMMMMMMMMMMMMMMMMMMMMMMMMMMMMM",
"MMMMMMMMMMMMMMMMMMMMMMMMMMMMMMMMMMMMMMMMMMMMMMMMMMMMMMMMMMMMMMMMMMMMMMMMMMMMMMMMMMMMMMMMMMMMMMMMMMMMMMMMMMMMMMMMMMMMMMMMMMMMMMMM",
"MMMMMMMMMMMMMMMMMMMMMMMMMMMMMMMMMMMMMMMMMMMMMMMMMMMMMMMMMMMMMMMMMMMMMMMMMMMMMMMMMMMMMMMMMMMMMMMMMMMMMMMMMMMMMMMMMMMMMMMMMMMMMMMM",
"MMMMMMMMMMMMMMMMMMMMMMMMMMMMMMMMMMMMMMMMMMMMMMMMMMMMMMMMMMbbbbbbbbbbbbMMMMMMMMMMMMMMMMMMMMMMMMMMMMMMMMMMMMMMMMMMMMMMMMMMMMMMMMMM",
"MMMMMMMMMMMMMMMMMMMMMMMMMMMMMMMMMMMMMMMMMMMMMMMMMMMMbbbbbbbbbbbbbbbbbbbbbbbbMMMMMMMMMMMMMMMMMMMMMMMMMMMMMMMMMMMMMMMMMMMMMMMMMMMM",
"MMMMMMMMMMMMMMMMMMMMMMMMMMMMMMMMMMMMMMMMMMMMMMMMMbbbbbbbbbbbbbbbbbbbbbbbbbbbbbbbMMMMMMMMMMMMMMMMMMMMMMMMMMMMMMMMMMMMMMMMMMMMMMMM",
"MMMMMMMMMMMMMMMMMMMMMMMMMMMMMMMMMMMMMMMMMMMMMMbbbbbbbbbbbbbbbbbbbbbbbbbbbbbbbbbbbbMMMMMMMMMMMMMMMMMMMMMMMMMMMMMMMMMMMMMMMMMMMMMM",
"MMMMMMMMMMMMMMMMMMMMMMMMMMMMMMMMMMMMMMMMMMMMbbbbbbbbbbbbbbbbbbbbbbbbbbbbbbbbbbbbbbbbbMMMMMMMMMMMMMMMMMMMMMMMMMMMMMMMMMMMMMMMMMMM",
"MMMMMMMMMMMMMMMMMMMMMMMMMMMMMMMMMMMMMMMMMMbbbbbbbbbbbbbbbbbbbbbbbbbbbbbbbbbbbbbbbbbbbbbMMMMMMMMMMMMMMMMMMMMMMMMMMMMMMMMMMMMMMMMM",
"MMMMMMMMMMMMMMMMMMMMMMMMMMMMMMMMMMMMMMMMbbbbbbbbbbbbbbbbbbbbbbbbbbbbbbbbbbbbbbbbbbbbbbbbbMMMMMMMMMMMMMMMMMMMMMMMMMMMMMMMMMMMMMMM",
"MMMMMMMMMMMMMMMMMMMMMMMMMMMMMMMMMMMMMMbbbbbbbbbbbbbbbbbbbbbbbbbbbbbbbbbbbbbbbbbbbbbbbbbbbbMMMMMMMMMMMMMMMMMMMMMMMMMMMMMMMMMMMMMM",
"MMMMMMMMMMMMMMMMMMMMMMMMMMMMMMMMMMMMMbbbbbbbbbbbbbbbbbbbbbbbvq4::<4vbbbbbbbbbbbbbbbbbbbbbbbbMMMMMMMMMMMMMMMMMMMMMMMMMMMMMMMMMMMM",
"MMMMMMMMMMMMMMMMMMMMMMMMMMMMMMMMMMMbbbbbbbbbbbbbbbbbbbbbbbq-X      X+,vbbbbbbbbbbbbbbbbbbbbbbMMMMMMMMMMMMMMMMMMMMMMMMMMMMMMMMMMM",
"MMMMMMMMMMMMMMMMMMMMMMMMMMMMMMMMMMbbbbbbbbbbbbbbbbbbbbbbv:            O2bbbbbbbbbbbbbbbbbbbbbbMMMMMMMMMMMMMMMMMMMMMMMMMMMMMMMMMM",
"MMMMMMMMMMMMMMMMMMMMMMMMMMMMMMMMMbbbbbbbbbbbbbbbbbbbbbbv&  MMMMMMMM     2bbbbbbbbbbbbbbbbbbbbbbMMMMMMMMMMMMMMMMMMMMMMMMMMMMMMMMM",
"MMMMMMMMMMMMMMMMMMMMMMMMMMMMMMMMbbbbbbbbbbbbbbbbbbbbbbv& MMMMMMMMMMMMM   4bbbbbbbbbbbbbbbbbbbbbbbMMMMMMMMMMMMMMMMMMMMMMMMMMMMMMM",
"MMMMMMMMMMMMMMMMMMMMMMMMMMMMMMMbbbbbbbbbbbbbbbbbbbbbbv=MMMMMMMMMMMMMMMM   2bbbbbbbbbbbbbbbbbbbbbbbMMMMMMMMMMMMMMMMMMMMMMMMMMMMMM",
"MMMMMMMMMMMMMMMMMMMMMMMMMMMMMMvbbbbbbbbbbbbbbbbbbbbbb1MMMMMMMMMMMMMMMMMMM  9bbbbbbbbbbbbbbbbbbbbbbbMMMMMMMMMMMMMMMMMMMMMMMMMMMMM",
"MMMMMMMMMMMMMMMMMMMMMMMMMMMMMvbbbbbbbbbbbbbbbbbbbbbbqMMMMMMMMMMMMMMMMMMMMM &vbbbbbbbbbbbbbbbbbbbbbbMMMMMMMMMMMMMMMMMMMMMMMMMMMMM",
"MMMMMMMMMMMMMMMMMMMMMMMMMMMMvbbbbbbbbbbbbbbbbbbbbbbb:MMMMMMMMMMMMMMMMMMMMMM ,bbbbbbbbbbbbbbbbbbbbbbbMMMMMMMMMMMMMMMMMMMMMMMMMMMM",
"MMMMMMMMMMMMMMMMMMMMMMMMMMMMnvnnnnvnnvnnvnnnvvnnbbbqMMMMMMMMMMMMMMMMMMMMMMM +vbbbbbbbbbbbbbbbbbbbbbbbMMMMMMMMMMMMMMMMMMMMMMMMMMM",
"MMMMMMMMMMMMMMMMMMMMMMMMMMMvnvnvvnvnnnvnvnvnnnnvbbv:MMMMMMMMMMMMMMMMMMMMMMMM 1bbbbbbbbbbbbbbbbbbbbbbbbMMMMMMMMMMMMMMMMMMMMMMMMMM",
"MMMMMMMMMMMMMMMMMMMMMMMMMMvvvnnvvnnnnvnvnnnnvnnvbbvMMMMMMMMMMMMMMMMMMMMMMMMMM&vvbbbbbbbvbbbbbbbbbbbbbbMMMMMMMMMMMMMMMMMMMMMMMMMM",
"MMMMMMMMMMMMMMMMMMMMMMMMMMvbnnvnnvnvvnvnnvvvvnvnbb4MMMMMMMMMMMMMMMMMMMMMMMMMM 9nbvbbbbbbbvbbbvbvbbbbbbbMMMMMMMMMMMMMMMMMMMMMMMMM",
"MMMMMMMMMMMMMMMMMMMMMMMMMvnvnvvnvnnvvnvnvnvnnvnvvvMMMMMMMMMMMMMMMMMMMMMMMMMMMM:nvbvbbvbvbbvbbbbbvbbvbbbvMMMMMMMMMMMMMMMMMMMMMMMM",
"MMMMMMMMMMMMMMMMMMMMMMMMqbnvnvnvnvnvvnnvvnvnvnvnvvMMMMMMMMMMMMMMMMMMMMMMMMMMMM$vbbvbvbbbvbbvvbvbbvbbbbvbMMMMMMMMMMMMMMMMMMMMMMMM",
"MMMMMMMMMMMMMMMMMMMMMMMMbbvnvvvvvnvnvvnvvnvvnvnvn9MMMMMMMMMMMMMMMMMMMMMMMMMMMMXfbbvbbbvbvbvvbvvvvbvbbvvbvMMMMMMMMMMMMMMMMMMMMMMM",
"MMMMMMMMMMMMMMMMMMMMMMMvnvvbvnnnnvvvvnvnvvnvvvnvb,MMMMMMMMMMMMMMMMMMMMMMMMMMMMM2vvbvvvvbvvbvvbvvvvvbvbvvvMMMMMMMMMMMMMMMMMMMMMMM",
"MMMMMMMMMMMMMMMMMMMMMMMvvvvvvvvvvnvvvvvvvnvvvvvvvMMMMMMMMMMMMMMMMMMMMMMMMMMMMMM-vbvbvvbvvvvvvvvvvvvvvvvvvvMMMMMMMMMMMMMMMMMMMMMM",
"MMMMMMMMMMMMMMMMMMMMMMrvvvvvvvvvvvvvvvvvvvnvvnvnvMMMMMMMMMMMMMMMMMMMMMMMMMMMMMM#vvvvvvvvvvvvvvvvbvvbvvvvvvMMMMMMMMMMMMMMMMMMMMMM",
"MMMMMMMMMMMMMMMMMMMMMMvvvvvvvvvvvvvvvvvvvvvvvvvvqMMMMMMMMMMMMMMMMMMMMMMMMMMMMMMMgvvvvvbvvvvvvvvvvvvvvvvvvvvMMMMMMMMMMMMMMMMMMMMM",
"MMMMMMMMMMMMMMMMMMMMMMvvnvvvvvvvnvvvvvvvvvvvvvvv9MMMMMMMMMMMMMMMMMMMMMMMMMMMMMMMrvvvvvvvvvvvvvvvbvvvvvvvvvvMMMMMMMMMMMMMMMMMMMMM",
"MMMMMMMMMMMMMMMMMMMMMfvvvvvvvvvvvvvvvvvvgvvvvvvvMMMMMMMMMMMMMMMMMMMMMMMMMMMMMMMM2vgvvvvvvvvvvvvvvvvvvvvvvvvMMMMMMMMMMMMMMMMMMMMM",
"MMMMMMMMMMMMMMMMMMMMMfvvvvvvvvvvvvvvvvvvvvvvvvvvMMMMMMMMMMMMMMMMMMMMMMMMMMMMMMMM:vvvvvvvvvvvfvvvvvvvvgvvvvvvMMMMMMMMMMMMMMMMMMMM",
"MMMMMMMMMMMMMMMMMMMM4vvvvvvvvvvfvvvvvvvvvvvvvvvvMMMMMMMMMMMMMMMMMMMMMMMMMMMMMMMM&vvvgvvvvvvvvvvvvvvvvvvvvvvqMMMMMMMMMMMMMMMMMMMM",
"MMMMMMMMMMMMMMMMMMMMqvvvvvvvvvvvvvvvvvfvvvvvvvvfMMMMMMMMMMMMMMMMMMMMMMMMMMMMMMMM$gvvvvvvvvfvvvvvvvvvvvgvvvvvMMMMMMMMMMMMMMMMMMMM",
"MMMMMMMMMMMMMMMMMMMMvvvvvvfvvvvvvvvvvvvvvfvvvfnfMMMMMMMMMMMMMMMMMMMMMMMMMMMMMMMM+vvfvvvvvbvvgvvvfvgvfvgvvvvvvMMMMMMMMMMMMMMMMMMM",
"MMMMMMMMMMMMMMMMMMMMvvvqvvvvvfvvvfvvfvfvvvvvvvvqMMMMMMMMMMMMMMMMMMMMMMMMMMMMMMMMMvvvvvvfvqvvvvvgvvvvvvvvvfvffMMMMMMMMMMMMMMMMMMM",
"MMMMMMMMMMMMMMMMMMM4qvvvvgvvvvvvvvvvvvvvvvvfvvvqMMMMMMMMMMMMMMMMMMMMMMMMMMMMMMMMMqvgqvvvfvvvvgvgvvfvvvfvvfvvvMMMMMMMMMMMMMMMMMMM",
"MMMMMMMMMMMMMMMMMMMqvvvvvgvfvfvfvfvffvfvfvvvfvf9MMMMMMMMMMMMMMMMMMMMMMMMMMMMMMMMM9vvvvvvvvvfvgvvvfvvvfvvvvvvvMMMMMMMMMMMMMMMMMMM",
"MMMMMMMMMMMMMMMMMMMvvvvvvvvvvvvvvfvfvvvvfvvvfvv4MMMMMMMMMMMMMMMMMMMMMMMMMMMMMMMMM9vvvggvvvvvggvvvvvfvvfvfvqvvqMMMMMMMMMMMMMMMMMM",
"MMMMMMMMMMMMMMMMMMMqvvvqfvfvfvfvvvvvvfvfvvfvvvvMMMMMMMMMMMMMMMMMMMMMMMMMMMMMMMMMM4vvgvvvvqgvvvfvfvgvvvvgvvvvvfMMMMMMMMMMMMMMMMMM",
"MMMMMMMMMMMMMMMMMMMvgvvvfvvvvvvffvfvfvfvvffvvfvMMMMMMMMMMMMMMMMMMMMMMMMMMMMMMMMMM<vgvgvgvvgvgvgvvgvgvvvvgvvvvfMMMMMMMMMMMMMMMMMM",
"MMMMMMMMMMMMMMMMMM:fvvfvvvffvfvvfvvfvvfvvfvvfvvMMMMMMMMMMMMMMMMMMMMMMMMMMMMMMMMMM:vvfvgvvgvgvfvgvvgvqvffvvvqvvMMMMMMMMMMMMMMMMMM",
"MMMMMMMMMMMMMMMMMM2vvvvvvvfvvfvvvfvvjjjzzfzzvvfMMMMMMMMMMMMMMMMMMMMMMMMMMMMMMMMMM:vvvvvfvvvgvvgffffvvvvfvvqvffMMMMMMMMMMMMMMMMMM",
"MMMMMMMMMMMMMMMMMM4vqvqvfvvqvvvqfvvffnzzfnzzfvfMMMMMMMMMMMMMMMMMMMMMMMMMMMMMMMMMM:vqvqvvfffvffvvvvvfffvffvvvfvMMMMMMMMMMMMMMMMMM",
"MMMMMMMMMMMMMMMMMM9vvvfvqvvvvqqvvfffzfjjfnfvvfvMMMMMMMMMMMMMMMMMMMMMMMMMMMMMMMMMM:vfvqvqvfvffvfgffvvvffvqvfvvqMMMMMMMMMMMMMMMMMM",
"MMMMMMMMMMMMMMMMMM9qvqvvvvvqfvvffvfvzfzfffzfffvMMMMMMMMMMMMMMMMMMMMMMMMMMMMMMMMMM:fvfvvvvffvffvgfvffffvfvfvvfvqMMMMMMMMMMMMMMMMM",
"MMMMMMMMMMMMMMMMMM9vvfvqvfvfvqfvfvffjvjjvffvfffMMMMMMMMMMMMMMMMMMMMMMMMMMMMMMMMMM:vfvffvffvffvffvffvvvfvvvqqvqqMMMMMMMMMMMMMMMMM",
"MMMMMMMMMMMMMMMMMMqvqvvqqvvqvvvvvfvjfffjfzfvfvvMMMMMMMMMMMMMMMMMMMMMMMMMMMMMMMMMM:vfffvfvffvfvgvfvffffffqvvvvvvMMMMMMMMMMMMMMMMM",
"MMMMMMMMMMMMMMMMMMqvvvvvvvvvqqvqfjffffffvvfffffMMMMMMMMMMMMMMMMMMMMMMMMMMMMMMMMMM:vffvfvfvfffffvffvffffvqvqvqvqMMMMMMMMMMMMMMMMM",
"MMMMMMMMMMMMMMMMMMqbvqqvvqqvvvfvffvfvfvffffzvffMMMMMMMMMMMMMMMMMMMMMMMMMMMMMMMMMM:ffffggfffvvffffvgggvffvfvvqvqMMMMMMMMMMMMMMMMM",
"MMMMMMMMMMMMMMMMMMqffvvffvfffvffvvggggvfvqvvvqvMMMMMMMMMMMMMMMMMMMMMMMMMMMMMMMMMM:vqvvvqvvqvvfvffvvffvfffggvqvqMMMMMMMMMMMMMMMMM",
"MMMMMMMMMMMMMMMMMMqffqfffffvfqvfqqvggvqvvvqqvvqMMMMMMMMMMMMMMMMMMMMMMMMMMMMMMMMMM:qvvqvqqvvqqvqvvqqvvqqvvqqvgfqMMMMMMMMMMMMMMMMM",
"MMMMMMMMMMMMMMMMMMqvvfvffvffvqfvvqgfqvvqqvqvqgvMMMMMMMMMMMMMMMMMMMMMMMMMMMMMMMMMM:vqqvqvgvgqvqfffqvfqfvqfvvfqvrMMMMMMMMMMMMMMMMM",
"MMMMMMMMMMMMMMMMMM7ffffffqfvqvfffvfgffqvvqvgqvqMMMMMMMMMMMMMMMMMMMMMMMMMMMMMMMMMM:qvvqvqqqgvffffqvffvvqvffqfvq4MMMMMMMMMMMMMMMMM",
"MMMMMMMMMMMMMMMMMM4ffffffffvffffffffffffqvqvffqMMMMMMMMMMMMMMMMMMMMMMMMMMMMMMMMMM:qqvqvqvqfffqvfffffqvffffffffMMMMMMMMMMMMMMMMMM",
"MMMMMMMMMMMMMMMMMM<fffffffffffffffffffffvqvqffvMMMMMMMMMMMMMMMMMMMMMMMMMMMMMMMMMM:qvqvqvqvffqvqfqfffvqvqvqqvffMMMMMMMMMMMMMMMMMM",
"MMMMMMMMMMMMMMMMMM:fvfffffqfffqvfffqgffvqvqvffvMMMMMMMMMMMMMMMMMMMMMMMMMMMMMMMMMM;ffvqvqvqvvvvqfvqffqfqfvqvqqqMMMMMMMMMMMMMMMMMM",
"MMMMMMMMMMMMMMMMMM:fqfffqffffffqqfgfqvqqfqvqffqMMMMMMMMMMMMMMMMMMMMMMMMMMMMMMMMMM:qfqvqfqvqqqffffffqvfffqvqffvMMMMMMMMMMMMMMMMMM",
"MMMMMMMMMMMMMMMMMM&qqvqffffqffqvvqvqfqfffvqvqqfMMMMMMMMMMMMMMMMMMMMMMMMMMMMMMMMMM<qgqvqfgqgqqvqgfqffqvqfqfqvvqMMMMMMMMMMMMMMMMMM",
"MMMMMMMMMMMMMMMMMM+qvqvqqvqvvqffqfqfqvqfqvqfvqqMMMMMMMMMMMMMMMMMMMMMMMMMMMMMMMMMM4vqfqvqqvqfvqfgqvvqqvvqvqfqqqMMMMMMMMMMMMMMMMMM",
"MMMMMMMMMMMMMMMMMMM4qvqvvqvqqqvfvvqgffgqvqqqqqqMMMMMMMMMMMMMMMMMMMMMMMMMMMMMMMMMM3qqqvqvqvqvqqqfvqqqfqqfqvqqf4MMMMMMMMMMMMMMMMMM",
"MMMMMMMMMMMMMMMMMMM<qqqqqqqvfqqfqqqfqqffqqvvqvvMMMMMMMMMMMMMMMMMMMMMMMMMMMMMMMMMM4fvqfqqqqqggqfqqvqfqvfqqqffq,MMMMMMMMMMMMMMMMMM",
"MMMMMMMMMMMMMMMMMMM:vqvqfqfqqqqqvqfqffqfqqfqvqq9MMMMMMMMMMMMMMMMMMMMMMMMMMMMMMMMM9qqfqfqgqfqqfqfqqqfqfqffqqfqMMMMMMMMMMMMMMMMMMM",
"MMMMMMMMMMMMMMMMMMM#qqqqqfqfvqvqqfqfqffqvqqfqqv9MMMMMMMMMMMMMMMMMMMMMMMMMMMMMMMMM9qgqfqgqfqffqfqqffqfqfqqffq9MMMMMMMMMMMMMMMMMMM",
"MMMMMMMMMMMMMMMMMMMM4qvqfqfqqqqvqffqqfqfqqqqqqq9MMMMMMMMMMMMMMMMMMMMMMMMMMMMMMMMMqqffqgqqqfqqffqfqqqqqfffqqf4MMMMMMMMMMMMMMMMMMM",
"MMMMMMMMMMMMMMMMMMMM:vqqqfqqvqfqqfqqfqfqvqqvqfqqMMMMMMMMMMMMMMMMMMMMMMMMMMMMMMMMMqqqfqqqffqfgqqfqfqvqfqqqffq:MMMMMMMMMMMMMMMMMMM",
"MMMMMMMMMMMMMMMMMMMM&qvqqfqqqfqqqqqffqqqfqqqffqqMMMMMMMMMMMMMMMMMMMMMMMMMMMMMMMMMqqqqqfqfqqqqvqqqfqfqvqqqqq9MMMMMMMMMMMMMMMMMMMM",
"MMMMMMMMMMMMMMMMMMMMO4qqqqvqqqqffrqrqqqfqqfqqqqqMMMMMMMMMMMMMMMMMMMMMMMMMMMMMMMM-qqqv9qqqqqgqqfqqqqqqqqvqfq4MMMMMMMMMMMMMMMMMMMM",
"MMMMMMMMMMMMMMMMMMMMM:qqqqqqqfqqqqqqfrqrfqqfqqqqMMMMMMMMMMMMMMMMMMMMMMMMMMMMMMMM:qqvfqqvgqqqqqqqfqgqqqqqqgq:MMMMMMMMMMMMMMMMMMMM",
"MMMMMMMMMMMMMMMMMMMMM#qqfqqqqqqvqfqqqqqfqqqqqfqqMMMMMMMMMMMMMMMMMMMMMMMMMMMMMMMM<qqqqqq9qqqqqqfqqqqqqqqqqq9MMMMMMMMMMMMMMMMMMMMM",
"MMMMMMMMMMMMMMMMMMMMMX<qqqv9qqqqqqqqqqqqqqqfqqqf4MMMMMMMMMMMMMMMMMMMMMMMMMMMMMMM4qqqqqqqqqqqqqqqqqqqqqqqqq,MMMMMMMMMMMMMMMMMMMMM",
"MMMMMMMMMMMMMMMMMMMMMM-qqqqqqqqqfqqqfqqqqqqqqqqq9MMMMMMMMMMMMMMMMMMMMMMMMMMMMMMM9qqqqqqqqqqqqqqqqqqqqqqqq9MMMMMMMMMMMMMMMMMMMMMM",
"MMMMMMMMMMMMMMMMMMMMMMo4qqqqqqqqqqqqqqqqqqqqqqqq9MMMMMMMMMMMMMMMMMMMMMMMMMMMMMMMqqqqqqqqqqqqqqqqqqqqqqq9q2MMMMMMMMMMMMMMMMMMMMMM",
"MMMMMMMMMMMMMMMMMMMMMMM-qqqqqqqqqqqqqqqqqqqqqqqqqMMMMMMMMMMMMMMMMMMMMMMMMMMMMMM:qqqqqqqqq9qqqqr9rqqq9qqr9-MMMMMMMMMMMMMMMMMMMMMM",
"MMMMMMMMMMMMMMMMMMMMMMMO4qqq9qqqqqqqqqqqqqq9qqqqqMMMMMMMMMMMMMMMMMMMMMMMMMMMMMM29q9q9q9qqq9qqr9qqq9q9qq9<MMMMMMMMMMMMMMMMMMMMMMM",
"MMMMMMMMMMMMMMMMMMMMMMM -q99qqqq9q9q9q9qqqq9q99qq4MMMMMMMMMMMMMMMMMMMMMMMMMMMMM4qqq9q9qq9q9qq9qr99qqqqq9$MMMMMMMMMMMMMMMMMMMMMMM",
"MMMMMMMMMMMMMMMMMMMMMMMM.<r99qq9q9q9q9q99q9qqqq999MMMMMMMMMMMMMMMMMMMMMMMMMMMMM99qr9qq9q9qq99qqqq9q9q99,MMMMMMMMMMMMMMMMMMMMMMMM",
"MMMMMMMMMMMMMMMMMMMMMMMM %99q99q9q9q9q9qr9q9999qq9MMMMMMMMMMMMMMMMMMMMMMMMMMMM,qq9q999qrq99qq9999q9q992MMMMMMMMMMMMMMMMMMMMMMMMM",
"MMMMMMMMMMMMMMMMMMMMMMMMM :999q9qq9999r9999q99q9q94MMMMMMMMMMMMMMMMMMMMMMMMMMM4999q99qq999r999q9999r99-MMMMMMMMMMMMMMMMMMMMMMMMM",
"MMMMMMMMMMMMMMMMMMMMMMMMMM+<999999999q99q9999999996MMMMMMMMMMMMMMMMMMMMMMMMMM:9999999999999r999999999,MMMMMMMMMMMMMMMMMMMMMMMMMM",
"MMMMMMMMMMMMMMMMMMMMMMMMMM &59999q99999q99999rq9999MMMMMMMMMMMMMMMMMMMMMMMMMM269999999999999999999992@MMMMMMMMMMMMMMMMMMMMMMMMMM",
"MMMMMMMMMMMMMMMMMMMMMMMMMMM :99999999999999999999996MMMMMMMMMMMMMMMMMMMMMMMMM69999999999999999999994&MMMMMMMMMMMMMMMMMMMMMMMMMMM",
"MMMMMMMMMMMMMMMMMMMMMMMMMMM .,9999999999999999999999MMMMMMMMMMMMMMMMMMMMMMMM29989999969999999999994;MMMMMMMMMMMMMMMMMMMMMMMMMMMM",
"MMMMMMMMMMMMMMMMMMMMMMMMMMMM @<6796996966997997669994MMMMMMMMMMMMMMMMMMMMMM>4989767797964946468894:MMMMMMMMMMMMMMMMMMMMMMMMMMMMM",
"MMMMMMMMMMMMMMMMMMMMMMMMMMMMM @<6966769967769896969674MMMMMMMMMMMMMMMMMMMMM4948866997769985998989,MMMMMMMMMMMMMMMMMMMMMMMMMMMMMM",
"MMMMMMMMMMMMMMMMMMMMMMMMMMMMMM @<6667776796866667777764MMMMMMMMMMMMMMMMMMM4949889666676666949644<#MMMMMMMMMMMMMMMMMMMMMMMMMMMMMM",
"MMMMMMMMMMMMMMMMMMMMMMMMMMMMMM  @,6886767788466645664744MMMMMMMMMMMMMMMMM1668888777767764745488<#MMMMMMMMMMMMMMMMMMMMMMMMMMMMMMM",
"MMMMMMMMMMMMMMMMMMMMMMMMMMMMMMM  @,6447647844846677467454MMMMMMMMMMMMMMM4664474874747646974734<#MMMMMMMMMMMMMMMMMMMMMMMMMMMMMMMM",
"MMMMMMMMMMMMMMMMMMMMMMMMMMMMMMMM  @,7474774644764848484654MMMMMMMMMMMMM4464454544644644647474:+MMMMMMMMMMMMMMMMMMMMMMMMMMMMMMMMM",
"MMMMMMMMMMMMMMMMMMMMMMMMMMMMMMMMM  @,74744747444444464444494MMMMMMMM444444444444444444444444- MMMMMMMMMMMMMMMMMMMMMMMMMMMMMMMMMM",
"MMMMMMMMMMMMMMMMMMMMMMMMMMMMMMMMMM  O:4444444444444444444444444444444444444444444444444444<=MMMMMMMMMMMMMMMMMMMMMMMMMMMMMMMMMMMM",
"MMMMMMMMMMMMMMMMMMMMMMMMMMMMMMMMMMM   &,4444444444444434443444424444424444432444443434434>@MMMMMMMMMMMMMMMMMMMMMMMMMMMMMMMMMMMMM",
"MMMMMMMMMMMMMMMMMMMMMMMMMMMMMMMMMMMM   @;3442444444444443444432444433434444444224344443<-.MMMMMMMMMMMMMMMMMMMMMMMMMMMMMMMMMMMMMM",
"MMMMMMMMMMMMMMMMMMMMMMMMMMMMMMMMMMMMMM   %,3424224443433443342442434334224232444443334;@ MMMMMMMMMMMMMMMMMMMMMMMMMMMMMMMMMMMMMMM",
"MMMMMMMMMMMMMMMMMMMMMMMMMMMMMMMMMMMMMMM   o=<444333333333342424233333333334433332244:% MMMMMMMMMMMMMMMMMMMMMMMMMMMMMMMMMMMMMMMMM",
"MMMMMMMMMMMMMMMMMMMMMMMMMMMMMMMMMMMMMMMMM   O=,2323333332232223233343333322233322<:%. MMMMMMMMMMMMMMMMMMMMMMMMMMMMMMMMMMMMMMMMMM",
"MMMMMMMMMMMMMMMMMMMMMMMMMMMMMMMMMMMMMMMMMM    X%;222222224222422232222222222224<-+  MMMMMMMMMMMMMMMMMMMMMMMMMMMMMMMMMMMMMMMMMMMM",
"MMMMMMMMMMMMMMMMMMMMMMMMMMMMMMMMMMMMMMMMMMMM     +=><22222222222222222222221,;%o  MMMMMMMMMMMMMMMMMMMMMMMMMMMMMMMMMMMMMMMMMMMMMM",
"MMMMMMMMMMMMMMMMMMMMMMMMMMMMMMMMMMMMMMMMMMMMMM     .o%-:,1<22222222222<<:-*+.   MMMMMMMMMMMMMMMMMMMMMMMMMMMMMMMMMMMMMMMMMMMMMMMM",
"MMMMMMMMMMMMMMMMMMMMMMMMMMMMMMMMMMMMMMMMMMMMMMMMM       .O+%$&-:-;-%$#Oo.     MMMMMMMMMMMMMMMMMMMMMMMMMMMMMMMMMMMMMMMMMMMMMMMMMM",
"MMMMMMMMMMMMMMMMMMMMMMMMMMMMMMMMMMMMMMMMMMMMMMMMMMMM                      MMMMMMMMMMMMMMMMMMMMMMMMMMMMMMMMMMMMMMMMMMMMMMMMMMMMMM",
"MMMMMMMMMMMMMMMMMMMMMMMMMMMMMMMMMMMMMMMMMMMMMMMMMMMMMMMMM            MMMMMMMMMMMMMMMMMMMMMMMMMMMMMMMMMMMMMMMMMMMMMMMMMMMMMMMMMMM",
"MMMMMMMMMMMMMMMMMMMMMMMMMMMMMMMMMMMMMMMMMMMMMMMMMMMMMMMMMMMMMMMMMMMMMMMMMMMMMMMMMMMMMMMMMMMMMMMMMMMMMMMMMMMMMMMMMMMMMMMMMMMMMMMM",
"MMMMMMMMMMMMMMMMMMMMMMMMMMMMMMMMMMMMMMMMMMMMMMMMMMMMMMMMMMMMMMMMMMMMMMMMMMMMMMMMMMMMMMMMMMMMMMMMMMMMMMMMMMMMMMMMMMMMMMMMMMMMMMMM",
"MMMMMMMMMMMMMMMMMMMMMMMMMMMMMMMMMMMMMMMMMMMMMMMMMMMMMMMMMMMMMMMMMMMMMMMMMMMMMMMMMMMMMMMMMMMMMMMMMMMMMMMMMMMMMMMMMMMMMMMMMMMMMMMM",
"MMMMMMMMMMMMMMMMMMMMMMMMMMMMMMMMMMMMMMMMMMMMMMMMMMMMMMMMMMMMMMMMMMMMMMMMMMMMMMMMMMMMMMMMMMMMMMMMMMMMMMMMMMMMMMMMMMMMMMMMMMMMMMMM",
"MMMMMMMMMMMMMMMMMMMMMMMMMMMMMMMMMMMMMMMMMMMMMMMMMMMMMMMMMMMMMMMMMMMMMMMMMMMMMMMMMMMMMMMMMMMMMMMMMMMMMMMMMMMMMMMMMMMMMMMMMMMMMMMM",
"MMMMMMMMMMMMMMMMMMMMMMMMMMMMMMMMMMMMMMMMMMMMMMMMMMMMMMMMMMMMMMMMMMMMMMMMMMMMMMMMMMMMMMMMMMMMMMMMMMMMMMMMMMMMMMMMMMMMMMMMMMMMMMMM",
"MMMMMMMMMMMMMMMMMMMMMMMMMMMMMMMMMMMMMMMMMMMMMMMMMMMMMMMMMMMMMMMMMMMMMMMMMMMMMMMMMMMMMMMMMMMMMMMMMMMMMMMMMMMMMMMMMMMMMMMMMMMMMMMM",
"MMMMMMMMMMMMMMMMMMMMMMMMMMMMMMMMMMMMMMMMMMMMMMMMMMMMMMMMMMMMMMMMMMMMMMMMMMMMMMMMMMMMMMMMMMMMMMMMMMMMMMMMMMMMMMMMMMMMMMMMMMMMMMMM",
"MMMMMMMMMMMMMMMMMMMMMMMMMMMMMMMMMMMMMMMMMMMMMMMMMMMMMMMMMMMMMMMMMMMMMMMMMMMMMMMMMMMMMMMMMMMMMMMMMMMMMMMMMMMMMMMMMMMMMMMMMMMMMMMM",
"MMMMMMMMMMMMMMMMMMMMMMMMMMMMMMMMMMMMMMMMMMMMMMMMMMMMMMMMMMMMMMMMMMMMMMMMMMMMMMMMMMMMMMMMMMMMMMMMMMMMMMMMMMMMMMMMMMMMMMMMMMMMMMMM",
"MMMMMMMMMMMMMMMMMMMMMMMMMMMMMMMMMMMMMMMMMMMMMMMMMMMMMMMMMMMMMMMMMMMMMMMMMMMMMMMMMMMMMMMMMMMMMMMMMMMMMMMMMMMMMMMMMMMMMMMMMMMMMMMM",
"MMMMMMMMMMMMMMMMMMMMMMMMMMMMMMMMMMMMMMMMMMMMMMMMMMMMMMMMMMMMMMMMMMMMMMMMMMMMMMMMMMMMMMMMMMMMMMMMMMMMMMMMMMMMMMMMMMMMMMMMMMMMMMMM"
};
