/* XPM */
static char *picasa[] = {
/* columns rows colors chars-per-pixel */
"128 128 53 1 ",
"  c #030703070307",
". c #270B270B270B",
"X c #389138913B71",
"o c #51CF51CF51CF",
"O c #573557355C86",
"+ c #66E166E166E1",
"@ c #70DB6BEB6BEB",
"# c #781378137A6E",
"$ c #839583957F0F",
"% c #8A2A8A2A8A2A",
"& c #989298929892",
"* c #AAD6AAD6AAD6",
"= c #B165AFCBB165",
"- c #B60BB60BB60B",
"; c #C2A7C2A7C2A7",
": c #CD66CD66CD66",
"> c #D1A0CF8DCF8D",
", c #CF8DD099CF8D",
"< c #D2A2D2A2D2A2",
"1 c #D849D849D763",
"2 c #DBB2DBB2DBB2",
"3 c #DED9DED9DE15",
"4 c #DF98DE15DF98",
"5 c #E10CE054E054",
"6 c #E6E1E6E1E6E1",
"7 c #E924E809E809",
"8 c #EAB6EAB6EAB6",
"9 c #ED1EEC30EC30",
"0 c #ECA8ED1EED1E",
"q c #EEDDEEDDEEDD",
"w c #F076EFAEEFAE",
"e c #F076F076F013",
"r c #F013F013F0D7",
"t c #F076F013F076",
"y c #F193F193F193",
"u c #F2F2F2F2F345",
"i c #F47FF47FF47F",
"p c #F59EF558F59E",
"a c #F6A4F6A4F6A4",
"s c #F794F75AF75A",
"d c #F75AF794F75A",
"f c #F75AF75AF794",
"g c #F86FF86FF86F",
"h c #F91EF920F918",
"j c #F9EEF9EEF9EE",
"k c #FA6CFA94FA6C",
"l c #FA94FA94FA6C",
"z c #FA6CFA6CFA94",
"x c #FB2CFB2CFB2C",
"c c #FC0DFC0EFC0D",
"v c #FCE5FCE3FCE6",
"b c #FDFEFDFEFDFE",
"n c None",
/* pixels */
"nnnnnnnnnnnnnnnnnnnnnnnnnnnnnnnnnnnnnnnnnnnnnnnnnnnnnnnnnnnnnnnnnnnnnnnnnnnnnnnnnnnnnnnnnnnnnnnnnnnnnnnnnnnnnnnnnnnnnnnnnnnnnnnn",
"nnnnnnnnnnnnnnnnnnnnnnnnnnnnnnnnnnnnnnnnnnnnnnnnnnnnnnnnnnnnnnnnnnnnnnnnnnnnnnnnnnnnnnnnnnnnnnnnnnnnnnnnnnnnnnnnnnnnnnnnnnnnnnnn",
"nnnnnnnnnnnnnnnnnnnnnnnnnnnnnnnnnnnnnnnnnnnnnnnnnnnnnnnnnnnnnnnnnnnnnnnnnnnnnnnnnnnnnnnnnnnnnnnnnnnnnnnnnnnnnnnnnnnnnnnnnnnnnnnn",
"nnnnnnnnnnnnnnnnnnnnnnnnnnnnnnnnnnnnnnnnnnnnnnnnnnnnnnnnnnnnnnnnnnnnnnnnnnnnnnnnnnnnnnnnnnnnnnnnnnnnnnnnnnnnnnnnnnnnnnnnnnnnnnnn",
"nnnnnnnnnnnnnnnnnnnnnnnnnnnnnnnnnnnnnnnnnnnnnnnnnnnnnnnnnnnnnnnnnnnnnnnnnnnnnnnnnnnnnnnnnnnnnnnnnnnnnnnnnnnnnnnnnnnnnnnnnnnnnnnn",
"nnnnnnnnnnnnnnnnnnnnnnnnnnnnnnnnnnnnnnnnnnnnnnnnnnnnnnnnnnnnnnnnnnnnnnnnnnnnnnnnnnnnnnnnnnnnnnnnnnnnnnnnnnnnnnnnnnnnnnnnnnnnnnnn",
"nnnnnnnnnnnnnnnnnnnnnnnnnnnnnnnnnnnnnnnnnnnnnnnnnnnnnnnnnnnnnnnnnnnnnnnnnnnnnnnnnnnnnnnnnnnnnnnnnnnnnnnnnnnnnnnnnnnnnnnnnnnnnnnn",
"nnnnnnnnnnnnnnnnnnnnnnnnnnnnnnnnnnnnnnnnnnnnnnnnnnnnnnnnbbbbbbbbbbbbbbbnnnnnnnnnnnnnnnnnnnnnnnnnnnnnnnnnnnnnnnnnnnnnnnnnnnnnnnnn",
"nnnnnnnnnnnnnnnnnnnnnnnnnnnnnnnnnnnnnnnnnnnnnnnnnnbbbbbbbbbbbbbbbbbbbbbbbbbbbnnnnnnnnnnnnnnnnnnnnnnnnnnnnnnnnnnnnnnnnnnnnnnnnnnn",
"nnnnnnnnnnnnnnnnnnnnnnnnnnnnnnnnnnnnnnnnnnnnnnbbbbbbbbbbbbbbbbbbbbbbbbbbbbbbbbbbbnnnnnnnnnnnnnnnnnnnnnnnnnnnnnnnnnnnnnnnnnnnnnnn",
"nnnnnnnnnnnnnnnnnnnnnnnnnnnnnnnnnnnnnnnnnnnnbbbbbbbbbbbbbbbbbbbbbbbbbbbbbbbbbbbbbbbbnnnnnnnnnnnnnnnnnnnnnnnnnnnnnnnnnnnnnnnnnnnn",
"nnnnnnnnnnnnnnnnnnnnnnnnnnnnnnnnnnnnnnnnnnnnbbbbbbbbbbbbbbbbbbbbbbbbbbbbbbbbbbbbbbbbbbnnnnnnnnnnnnnnnnnnnnnnnnnnnnnnnnnnnnnnnnnn",
"nnnnnnnnnnnnnnnnnnnnnnnnnnnnnnnnnnnnnnnnnnnnncbbbbbbbbbbbbbbbbbbbbbbbbbbbbbbbbbbbbbbbbnnnnnnnnnnnnnnnnnnnnnnnnnnnnnnnnnnnnnnnnnn",
"nnnnnnnnnnnnnnnnnnnnnnnnnnnnnnnnnnnnnnnnnnnnnn6cbbbbbbbbbbbbbbbbbbbbbbbbbbbbbbbbbbbbbbnnnnnnnnnnnnnnnnnnnnnnnnnnnnnnnnnnnnnnnnnn",
"nnnnnnnnnnnnnnnnnnnnnnnnnnnnnnnnnnnbbbnnnnnnnnn2bbbbbbbbbbbbbbbbbbbbbbbbbbbbbbbbbbbbbbnnnnnnnnnnnnnnnnnnnnnnnnnnnnnnnnnnnnnnnnnn",
"nnnnnnnnnnnnnnnnnnnnnnnnnnnnnnnnnnbbbbbbnnnnnnnn3cbbbbbbbbbbbbbbbbbbbbbbbbbbbbbbbbbbbbnnnnnnnbnnnnnnnnnnnnnnnnnnnnnnnnnnnnnnnnnn",
"nnnnnnnnnnnnnnnnnnnnnnnnnnnnnnnnbbbbbbbbbnnnnnnn :ccbbbbbbbbbbbbbbbbbbbbbbvbbbbbbbvbbbnnnnnnnbbnnnnnnnnnnnnnnnnnnnnnnnnnnnnnnnnn",
"nnnnnnnnnnnnnnnnnnnnnnnnnnnnnnnbbbbvbbbvbvnnnnnnn <cbbbbbbbbbbbbbbbbbbbbbbbbbbvbbbbbbvnnnnnnnbbbbnnnnnnnnnnnnnnnnnnnnnnnnnnnnnnn",
"nnnnnnnnnnnnnnnnnnnnnnnnnnnnnbbbbbbbbbbbbbbnnnnnn  ;abbbbbbbbbbbbbbbbbbbbbvbbbbbbbbbbcnnnnnnnbcbbbnnnnnnnnnnnnnnnnnnnnnnnnnnnnnn",
"nnnnnnnnnnnnnnnnnnnnnnnnnnnncbbbbbvbbbbbbbbcnnnnnn  oybbbbbvbbvbbbbbbbbbbbbbbbbbbbbbbbnnnnnncbbbbbbnnnnnnnnnnnnnnnnnnnnnnnnnnnnn",
"nnnnnnnnnnnnnnnnnnnnnnnnnnncbbbbbvbvbbbvbbcbcnnnnnnn oybvbvbvbbbbvbvbbbbvbbbvbvbbvbvbcnnnnnnabvbbbcbbnnnnnnnnnnnnnnnnnnnnnnnnnnn",
"nnnnnnnnnnnnnnnnnnnnnnnnnnbbbbcbbvbbbvbbbbbbbbnnnnnnn oybbbbbbbvbbbbbbbbbbbvbbbbbbbbbcnnnnnnybbbbbbbbcnnnnnnnnnnnnnnnnnnnnnnnnnn",
"nnnnnnnnnnnnnnnnnnnnnnnnnbbbbbbbbbvvvbvbbbbbbbcnnnnnnn oybvbbvbbvbbbvvbbbvvbbvvbbcvbbcnnnnnnybbbbbbbcbbnnnnnnnnnnnnnnnnnnnnnnnnn",
"nnnnnnnnnnnnnnnnnnnnnnnncbbbcbcbvbbbbvbbbcvbbvbcnnnnnnn oyvvbbcbcbvbbbbbbvbbbvvbbbbbbbnnnnnnqcbccbbcbbbbnnnnnnnnnnnnnnnnnnnnnnnn",
"nnnnnnnnnnnnnnnnnnnnnnncbbbbbcbvbcbvbvbvcbcbcbcbbnnnnnnn X5cbbbvbvbcbvbcbbvbbvbbccbbbcnnnnnnqbbbcbbvbbcbcnnnnnnnnnnnnnnnnnnnnnnn",
"nnnnnnnnnnnnnnnnnnnnnncbcbcbcbcbbvvbbvvbbbbbbbbcbbnnnnnnn  >ccvbvbvbvbvbbvvvvbvvbbbcbcnnnnnn0bcbbbbccbvbvbnnnnnnnnnnnnnnnnnnnnnn",
"nnnnnnnnnnnnnnnnnnnnnbbcbbcbbcbbbvbvvbvvvbbcvvbbcbccnnnnnn  :cbvvbbvbvbvbvvbbvvbvbcbbcnnnnnnqvbvcbcbcbvvbcnnnnnnnnnnnnnnnnnnnnnn",
"nnnnnnnnnnnnnnnnnnnnccbvcbcbbbbcbvcbvvvbbcbcbvcbcbbccnnnnnn  :ccvvvvcbcbvvvvvvvvvcbvbcnnnnnn0bcbvbvbbvbvbcbnnnnnnnnnnnnnnnnnnnnn",
"nnnnnnnnnnnnnnnnnnncvbcbcbcbccbccbvvvvvbcvbvcvbbcbcbbcnnnnnn  :cbvvvvbbvvvbvvbbvvbcvbcnnnnnnqcbcvbvvvbcvvbcbnnnnnnnnnnnnnnnnnnnn",
"nnnnnnnnnnnnnnnnnnncvvbcbcbccbcbbvvvvvvvbcvvbvcvvbcbcbcnnnnnn  :gvvvvvvvvvvvvvvvbcbvccnnnnnn0vvvvvvvvvvvvcbcbnnnnnnnnnnnnnnnnnnn",
"nnnnnnnnnnnnnnnnnncbvvvvcbcbcbbcvvvvvvvvvvvvbcbcbcbcbcccnnnnnn  &qvbvvbvvvvvvvvvcvvvbcnnnnnn0cbbvvbvvvvbvbcbbnnnnnnnnnnnnnnnnnnn",
"nnnnnnnnnnnnnnnnncvccbvcbcbcvvcbvvvvcbvvvvvvvvcbcvcvcbvccnnnnnn  +ycvcvcvvvvvvvvbcbcccnnnnnn0vcccvcvvvcvcbvcbbnnnnnnnnnnnnnnnnnn",
"nnnnnnnnnnnnnnnnnvccbccbcvbcvbcvcbccvvvccbcvvbcccbccbccbccnnnnnnn +ycbbccbbcbccccbccccnnnnnn0vcvbcbcccbcvcbvbccnnnnnnnnnnnnnnnnn",
"nnnnnnnnnnnnnnnnccbcvcvvcvvcvccvvvvvcvcbccvvvcvvvccbcccbcvcnnnnnnn +yccvcccvccbbccbbccnnnnnn9vvcvccvbcbccbccccbnnnnnnnnnnnnnnnnn",
"nnnnnnnnnnnnnnncbccbvcccbccvvcvccvcvcvcvvvvvcvcvbccbbcbcccnnnnnnnnn Oqccvvvccvvccvccvcnnnnnn9cvvcccccbccvcvcbvvcnnnnnnnnnnnnnnnn",
"nnnnnnnnnnnnnnnccccccbvcccbcvcvcvccvcbcvvccccvcvccccccccannnnnnnnnnn O9cvcvcvcvcvcccccnnnnnn7ccvbcbccccvcvcvcccccnnnnnnnnnnnnnnn",
"nnnnnnnnnnnnnnccvvcvcccccccvccbccccvcvcccccvccvccccccccynnnnnnnnnnnnn .:ccccccbccbccccnnnnnn7vvvcccbcccccvcccccccnnnnnnnnnnnnnnn",
"nnnnnnnnnnnnnnccccccccccccvcccccbcvcccvccvcccvvccccccc2nnnnnnnnnnnnnnn  :cccccccccccccnnnnnn9ccccccccbcccccvccccccnnnnnnnnnnnnnn",
"nnnnnnnnnnnnnaccccccccccccvcvccccccccvccvcccccccccccc1nnnnnnnnnnnnnnnnn  :ccccccccccvcnnnnnn7ccccvccccccccccccccccnnnnnnnnnnnnnn",
"nnnnnnnnnnnnncccvcccccccccccccvcccccccccccccvccvcccc<nnnnnnnnnnnnnnnnnnn  :gcccccvccvvnnnnnn9ccccccvcccvcccccccccccnnnnnnnnnnnnn",
"nnnnnnnnnnnnaccccccccccccccccccccccccccccccccccccbg1nnnnnnnnnnnnnnnnnnnnn  :ccccccccccnnnnnn9ccccccccccccccccccccccnnnnnnnnnnnnn",
"nnnnnnnnnnnnccccccgccccccccccccccccccccccccccccccy-nnnnnnnnnnnnnnnnnnnnnnn  ;ycccccccannnnnn6ccgccccccgcccccccccccccnnnnnnnnnnnn",
"nnnnnnnnnnnycccccccccccccccggccccccgccccccccccgcr@nnnnnnnnnnnnnnnnnnnnnnnnn  @qcccccccnnnnnn9cccccccccccccccccgcccccnnnnnnnnnnnn",
"nnnnnnnnnnncccccccccccgcccccccccccccccaccccccccq@nnnnnnnnnnnnnnnnnnnnnnnnnnn  @qccccccnnnnnn6ccccccccccgccgcccccccccnnnnnnnnnnnn",
"nnnnnnnnnnnccacccccgccccgcccccacgccccccccacccct@nnnnnnnnnnnnnnnnnnnnnnnnnnnnnn @9cccccnnnnnn6ccccgcccgcccccccgcccccccnnnnnnnnnnn",
"nnnnnnnnnnacccccgcccgccgcccgccccccacccccccccaq@nnnnnnnnnnnnnnnnnnnnnnnnnnnnnnnn @qcccannnnnn6ccgccccccccgccgccccaccccnnnnnnnnnnn",
"nnnnnnnnnnacccccccccccccccccgcgcaccccacccccc<Xnnnnnnnnnnnnnnnnnnnnnnnnnnnnnnnnnn @qcccnnnnnn6ccccccccccccgcccccccccccnnnnnnnnnnn",
"nnnnnnnnnnacccacccgcgcccgcgccccccccccccacca1nnnnnnnnnnnnnnnnnnnnnnnnnnnnnnnnnnnnnn+6acnnnnnn6ccgcgcggcgccccccgcgcccaccnnnnnnnnnn",
"nnnnnnnnnqccacccccccccccgcccccccccccaccccc<nnnnnnnnnnnnnnnnnnnnnnnnnnnnnnnnnnnnnnnnn6annnnnn6accccccccccccacccccccccccnnnnnnnnnn",
"nnnnnnnnnaccccacgcgcacacccaccggccccccccaa1nnnnnnnnnnnnnnnnnnnnnnnnnnnnnnnnnnnnnnnnnnnnnnnnnn6cccgcacgcggaccccacaacaccannnnnnnnnn",
"nnnnnnnnnaacgccccccccccccgcgccccaacacacy;nnnnnnnnnnnnnnnnnnnnnnnnnnnnnnnnnnnnnnnnnnnnnnnnnnn6cccccaccccccccccacccaccccnnnnnnnnnn",
"nnnnnnnnnccccagccaacaccaccgcacacccccccq#nnnnnnnnnnnnnnnnnnnnnnnnnnnnnnnnnnnnnnnnnnnnnnnnnnnn6caccgcccaaccaaccccccccaccannnnnnnnn",
"nnnnnnnnncagaccccccaccgccaccacccgcacgq#nnnnnnnnnnnnnnnnnnnnnnnnnnnnnnnnnnnnnnnnnnnnnnnnnnnnn6ccggcccgccccccaccaccacaccannnnnnnnn",
"nnnnnnnnqcccccacaaccaccacgacccagcgccq#nnnnnnnnnnnnnnnnnnnnnnnnnnnnnnnnnnnnnnnnnnnnnnnnnnnnnn6ccacacaccacacccgccaccaccgcnnnnnnnnn",
"nnnnnnnnyccggccaccgcaccgccccgcgcgcc9#nnnnnnnnnnnnnnnnnnnnnnnnnnnnnnnnnnnnnnnnnnnnnnnnnnnnnnn6accgcaccagccaacaccaaaccccannnnnnnnn",
"nnnnnnnnycacacgccacgccacacagcgcaca2onnnnnnnnnnnnnnnnnnnnnnnnnnnnnnnnnnnnnnnnnnnnnnnnnnnnnnnn6cacccaccacacccaccaccccaacgnnnnnnnnn",
"nnnnnnnnaaccacaagcgccacaccgcccaca1nnnnnnnnnnnnnnnnnnnnnnnnnnnnnnnnnnnnnnnnnnnnnnnnnnnnnnnnnn3cacacacaacgccaccaacacgccacnnnnnnnnn",
"nnnnnnnncccacccccacggcgccacaacca<nnnnnnnnnnnnnnnnnnnnnnnnnnnnnnnnnnnnnnnnnnnnnnnnnnnnnnnnnnn6gcccgccccacaccaaccacacgccgannnnnnnn",
"nnnnnnnnacacagaccaaccaggccaccaa1nnnnnnnnnnnnnnnnnnnnnnnnnnnnnnnnnnnnnnnnnnnnnnnnnnnnnnnnnnnn5cgaacgaggcacgaacaccgcacaccynnnnnnnn",
"nnnnnnnnacgaccacacgggcgcaacacy:nnnnnnnnnnnnnnnnnnnnnnnnnnnnnnnnnnnnnnnnnnnnnnnnnnnnnnnnnnnnn5gcgcagcccacaccccaaccacacacynnnnnnnn",
"nnnnnnnnaagacgaggcacaccaacagq%nnnnnnnnnnnnnnnnnnnnnnnnnnnnnnnnnnnnnnnnnnnnnnnnnnnnnnnnnnnnnn5cggacacacagcgcccacaacacaccynnnnnnnn",
"nnnnnnnnaccacacacacacaaccac0$nnnnnnnnnnnnnnnnnnnnnnnnnnnnnnnnnnnnnnnnnnnnnnnnnnnnnnnnnnnnnnn3cacgacacacaacaaacacacaaacaynnnnnnnn",
"nnnnnnnnagccacacaaccaacgag0$nnnnnnnnnnnnnnnnnnnnnnnnnnnnnnnnnnnnnnnnnnnnnnnnnnnnnnnnnnnnnnnn6gcgacgcacgaaacaaccaacacaccynnnnnnnn",
"nnnnnnnnagaacaagacaaacagaq%nnnnnnnnnnnnnnnnnnnnnnnnnnnnnnnnnnnnnnnnnnnnnnnnnnnnnnnnnnnnnnnnn5aaacaacagaccaacaaacaacaacaynnnnnnnn",
"nnnnnnnnaccgcaggggggcgga3@nnnnnnnngnnnnnnnnnnnnnnnnnnnnnnnnnnnnnnnnnnnnnnnnnnnnnnnnnnnnnnnnn5accaggggggcgggggcggggggggaynnnnnnnn",
"nnnnnnnnaaagaacgggggaag<nnnnnnnnnggnnnnnnnnnnnnnnnnnnnnnnnnnnnnnnnnnnnnnnnnnnnnnnnnnnnnnnnnn5aaaggggggaagggggagggggggggynnnnnnnn",
"nnnnnnnnaagaacagggggga<nnnnnnnnngggnnnnnnnnnnnnnnnnnnnnnnnnnnnnnnnnnnnnnnnnnnnnnnnnnnnnnnnnn3aggggggcacacagaggggggggaggynnnnnnnn",
"nnnnnnnnaaggaacaggaga<nnnnnnnniagggnnnnnnnnnnnnnnnnnnnnnnnnnnnnnnnnnnnnnnnnnnnnnnnnnnnnnnnnn6agagggaaacaagaaggagggggcagwnnnnnnnn",
"nnnnnnnnagacacaaagai,nnnnnnnniagggannnnnnnnnnnnnnnnnnnnnnnnnnnnnnnnnnnnnnnnnnnnnnnnnnnnnnnnn5gcaaaacaaacagacgigaaggggagqnnnnnnnn",
"nnnnnnnnygaaagaaga9%nnnnnnnniaaggaannnnnnnnnnnnnnnnnnnnnnnnnnnnnnnnnnnnnnnnnnnnnnnnnnnnnnnnn5aaggaaaagaaaggaggagagaggggnnnnnnnnn",
"nnnnnnnn9aaagaaaa9%nnnnnnnnigaaaagannnnnnnnnnnnnnnnnnnnnnnnnnnnnnnnnnnnnnnnnnnnnnnnnnnnnnnnn3gaacagaagaagaaagigaaagaaginnnnnnnnn",
"nnnnnnnn6agaaaga9%nnnnnnnniaagagaaannnnnnnnnnnnnnnnnnnnnnnnnnnnnnnnnnnnnnnnnnnnnnnnnnnnnnnnn3agaaaaaaagaaaggggffgaaaaaannnnnnnnn",
"nnnnnnnn6iaaaaa9$nnnnnnnngggigagaaannnnnnnnnnnnnnnnnnnnnnnnnnnnnnnnnnnnnnnnnnnnnnnnnnnnnnnnn3aaaaaaaggigggaiafaaaaaaaainnnnnnnnn",
"nnnnnnnn*yaaay5#nnnnnnnniiaaaaaaaainnnnnnnnnnnnnnnnnnnnnnnnnnnnnnnnnnnnnnnnnnnnnnnnnnnnnnnnn2aaaaaaaiggiigigaaaaaaaaaaqnnnnnnnnn",
"nnnnnnnn%aaaa<nnnnnnnnnaigifaaaaaaannnnnnnnnnnnnnnnnnnnnnnnnnnnnnnnnnnnnnnnnnnnnnnnnnnnnnnnn2aaaaaaagiggaagaaaaaaaaaaaqnnnnnnnnn",
"nnnnnnnnn9aa<nnnnnnnnnyagiffaaaaaainnnnnnnnnnnnnnnnnnnnnnnnnnnnnnnnnnnnnnnnnnnnnnnnnnnnnnnnn2aaaaaaaigiiaaaaaaaaaaaaaannnnnnnnnn",
"nnnnnnnnn6y<nnnnnnnnyyaafigfffpfaaannnnnnnnnnnnnnnnnnnnnnnnnnnnnnnnnnnnnnnnnnnnnnnnnnnnnnnnn2aiaaaiaaigiaifigiifaaaaaynnnnnnnnnn",
"nnnnnnnnn;:nnnnnnnnyaaaaigipiifpaaynnnnnnnnnnnnnnnnnnnnnnnnnnnnnnnnnnnnnnnnnnnnnnnnnnnnnnnnn2aaaaaaaiaiaiififiaaaaiiaqnnnnnnnnnn",
"nnnnnnnnnnnnnnnnnnyaiaayiippipppaaynnnnnnnnnnnnnnnnnnnnnnnnnnnnnnnnnnnnnnnnnnnnnnnnnnnnnnnnn1iaiaaiiagiggifiififiaaia6nnnnnnnnnn",
"nnnnnnnnnnnnnnnnnqyiaaaappppppppaiynnnnnnnnnnnnnnnnnnnnnnnnnnnnnnnnnnnnnnnnnnnnnnnnnnnnnnnnn2aiiiiaiiiiiiiififiiaiiaynnnnnnnnnnn",
"nnnnnnnnnnnnnnnnriiiaiiiiiiiiifiiiynnnnnnnnnnnnnnnnnnnnnnnnnnnnnnnnnnnnnnnnnnnnnnnnnnnnnnnnn3aaaaiaiiiaaayaiayyyiiiiynnnnnnnnnnn",
"nnnnnnnnnnnnnnnyiiiiiiiaiaiiiiiiiiynnnnnnnnnnnnnnnnnnnnnnnnnnnnnnnnnnnnnnnnnnnnnnnnnnnnnnnnn-355333533353335526635571nnnnnnnnnnn",
"nnnnnnnnnnnnnniiiiiiiiiiiiiiiiiiiiinnnnnnnnnnnnnnnnnnnnnnnnnnnnnnnnnnnnnnnnnnnnnnnnnnnnnnnnnnn                    nnnnnnnnnnnnnn",
"nnnnnnnnnnnnnyiiiiiiiiiiiiiiiiiiiaynnnnnnnnnnnnnnnnnnnnnnnnnnnnnnnnnnnnnnnnnnnnnnnnnnnnnnnnnnnn                  nnnnnnnnnnnnnnn",
"nnnnnnnnnnnnryaiiiyiiiiiiiiiiiiiiiynnnnnnnnnnnnnnnnnnnnnnnnnnnnnnnnnnnnnnnnnnnnnnnnnnnnnnnnnnnnnnnnnnnnnnnnnnnnnnnnnnnnnnnnnnnnn",
"nnnnnnnnnnnn9yiyiiiiiiiiiiiiyiyiayynnnnnnnnnnnnnnnnnnnnnnnnnnnnnnnnnnnnnnnnnnnnnnnnnnnnnnnnnnnnnnnnnnnnnnnnnnnnnnnnnnnnnnnnnnnnn",
"nnnnnnnnnnnnnqiiiiiiririiiiiiiiiyyynnnnnnnnnnnnnnnnnnnnnnnnnnnnnnnnnnnnnnnnnnnnnnnnnnnnnnnnnnnnnnnnnnnnnnnnnnnnnnnnnnnnnnnnnnnnn",
"nnnnnnnnnnnnn2iyyiyririiitityyyiyiynnnnnnnnnnnnnnnnnnnnnnnnnnnnnnnnnnnnnnnnnnnnnnnnnnnnnnnnnnnnnnnnnnnnnnnnnnnnnnnnnnnnnnnnnnnnn",
"nnnnnnnnnnnnn#9yyyyiyiiyiyiyiiyyiyynnnnnnnyiyyyyuueeeueuteueeutuyyyyyyyyyyyyyyyyyyyyyyyyyyyyreeyyqwwwyqtyyeyqertynnnnnnnnnnnnnnn",
"nnnnnnnnnnnnnn<yayiyyyyiiriiyyyayyennnnnnyyyyiyiueuuuuuuuuuuuuuuyyyiiyyyyiiyyyyyiyiiyyiyyiiyiiyyyyyiyyiyyyyyyyyiynnnnnnnnnnnnnnn",
"nnnnnnnnnnnnnn+0yyyyiyyiryiyyyyyyyennnnnnyyiriyiuueueuuuuuuuuetuyyyiayyyyiyyayyyyyyyyayyyiyyyyyyiyyiyyyyyyyyyyiynnnnnnnnnnnnnnnn",
"nnnnnnnnnnnnnnn;yyyyyyyyyyyyyyyyyyennnnnnyyyyyyreuueueueueeueueuyiyyyyyyyyyyyyyyyyiyyyyyyyyyyyyyyyyyyyyyiyyyyyi0nnnnnnnnnnnnnnnn",
"nnnnnnnnnnnnnnnX3yyyyyyyyyyyyyyyyyqnnnnnnqyyyyyyeueuueueeueuutueyyyyyyyyyiyyyyyyyyyyyyyyyyyyyyyyyyyyyyyyyyyyyyynnnnnnnnnnnnnnnnn",
"nnnnnnnnnnnnnnnn*9yyyyyyyyyyyyyeyyynnnnnnqyyyyyyeuueeueuueuetueuyyyyyyyyyryyyyyyyyyyyyyyyyyyyyyyyyyqyyyyyyyyye6nnnnnnnnnnnnnnnnn",
"nnnnnnnnnnnnnnnn :eeeyyyyyyryyyyyy0nnnnnn9yyyyryeeueeueeeuquututyryyryqyryqyyyyeyyryyyeyyyyyyyeyyyyyyyyyytyye6nnnnnnnnnnnnnnnnnn",
"nnnnnnnnnnnnnnnnno3yeeyyqqyreeyyqyqnnnnnn9qyqyqruequequeeeeqttttyyryryyqryyyeeeyyrqyyeeyrrqyeyyeeyyyqyyyyeqtq-nnnnnnnnnnnnnnnnnn",
"nnnnnnnnnnnnnnnnn #7rrryyqryqryqyqqnnnnnn9qqyqyyqyytyyeytttttettqyqyyeqyqryrttttreerqyqyyyyyqyyqeerrereryqyy<nnnnnnnnnnnnnnnnnnn",
"nnnnnnnnnnnnnnnnnn -9qqqqyeeeeeeqy0nnnnnn9qyqyqeyqqyqqqqqtteetetyqyqqyqyeyqywtttqyqyrqyeqqqqyrqyeeeeeeeeerq2nnnnnnnnnnnnnnnnnnnn",
"nnnnnnnnnnnnnnnnnnn -9qqererqyqqqqqnnnnnn6qqyqqqqqyqqetqtqqetteeqqqyqqqqqqwqqttqeqeqqeqeqqyqqqtqqrereqqeqq5nnnnnnnnnnnnnnnnnnnnn",
"nnnnnnnnnnnnnnnnnnnnX2qqqqqqqqqeqq9nnnnnn9qqqqtqqqqqqqtqqtqq0e0tqqqqyqqqqeqrqqqweqqeqqeqqeqeqqqqqqqqqeqqq9*nnnnnnnnnnnnnnnnnnnnn",
"nnnnnnnnnnnnnnnnnnnn o1qqqqqqqqqqq0nnnnnn7qqqqqqqqqqqqqqqqtqqq0eqqqqqqqqqqyqy0qqqqqqqqqqqqqqqqqqqqqqqqqq7-nnnnnnnnnnnnnnnnnnnnnn",
"nnnnnnnnnnnnnnnnnnnnn o1qqqqqqqqqq9nnnnnn7qqqqqqqqqqqqqqq0qqqqt0qqqtqqqqqqqqqqqqqqqqqqqqqqqqqqqqqqqqqqq7-nnnnnnnnnnnnnnnnnnnnnnn",
"nnnnnnnnnnnnnnnnnnnnnn o10qqqqqqqq9nnnnnn7qqqqqqq0qqqqqqqqqqqq0eqqqqqqqqqqqqt0q00qqqqqq00qqqqqqqqqqqqq7=nnnnnnnnnnnnnnnnnnnnnnnn",
"nnnnnnnnnnnnnnnnnnnnnnn o1qq8qqq009nnnnnn6qqq00q0qqq0q0qq0q0q00e0q0q0q0q0q9q0q0qqqq0q0qqqqq00q0q0q9qq7=nnnnnnnnnnnnnnnnnnnnnnnnn",
"nnnnnnnnnnnnnnnnnnnnnnnn o1q900q009nnnnnn600000000q0000t000t00t00q000q0q000000000q0000q0000q00000q006=nnnnnnnnnnnnnnnnnnnnnnnnnn",
"nnnnnnnnnnnnnnnnnnnnnnnnn o:6000007nnnnnn60000000q0900000000000000000099000000000000000000000q000003*nnnnnnnnnnnnnnnnnnnnnnnnnnn",
"nnnnnnnnnnnnnnnnnnnnnnnnnn  *600099nnnnnn600000009900000080800009900000908000009909000090000009000<onnnnnnnnnnnnnnnnnnnnnnnnnnnn",
"nnnnnnnnnnnnnnnnnnnnnnnnnnn  *399q6nnnnnn60000089999709009q08080909999990008000099999999070099996;onnnnnnnnnnnnnnnnnnnnnnnnnnnnn",
"nnnnnnnnnnnnnnnnnnnnnnnnnnnn  o1906nnnnnn6967000998080089908088880089070808008000090999770099996* nnnnnnnnnnnnnnnnnnnnnnnnnnnnnn",
"nnnnnnnnnnnnnnnnnnnnnnnnnnnnnn .-66nnnnnn69907707908888879880808888897798808888898789997907096:@nnnnnnnnnnnnnnnnnnnnnnnnnnnnnnnn",
"nnnnnnnnnnnnnnnnnnnnnnnnnnnnnnnnnn:nnnnnn6797097988888889888888888888070888888887888087077792&.nnnnnnnnnnnnnnnnnnnnnnnnnnnnnnnnn",
"nnnnnnnnnnnnnnnnnnnnnnnnnnnnnnnnnnnnnnnnn39607797787888877888887888787077888887888870707993;Onnnnnnnnnnnnnnnnnnnnnnnnnnnnnnnnnnn",
"nnnnnnnnnnnnnnnnnnnnnnnnnnnnnnnnnnnnnnnnn309699988886868866767978887886788886788797770775;@ nnnnnnnnnnnnnnnnnnnnnnnnnnnnnnnnnnnn",
"nnnnnnnnnnnnnnnnnnnnnnnnnnnnnnnnnnnnnnnnn6679676686888888889996987788788868888866969866;+ nnnnnnnnnnnnnnnnnnnnnnnnnnnnnnnnnnnnnn",
"nnnnnnnnnnnnnnnnnnnnnnnnnnnnnnnnnnnnnnnnn=<569698686686868676796778778876686686879962;+ nnnnnnnnnnnnnnnnnnnnnnnnnnnnnnnnnnnnnnnn",
"nnnnnnnnnnnnnnnnnnnnnnnnnnnnnnnnnnnnnnnnnn.+-2666868868786969669778787788868868663:&. nnnnnnnnnnnnnnnnnnnnnnnnnnnnnnnnnnnnnnnnnn",
"nnnnnnnnnnnnnnnnnnnnnnnnnnnnnnnnnnnnnnnnnnn  .%*<666787866866776877878776977661;%o  nnnnnnnnnnnnnnnnnnnnnnnnnnnnnnnnnnnnnnnnnnnn",
"nnnnnnnnnnnnnnnnnnnnnnnnnnnnnnnnnnnnnnnnnnnn     +%;1156688896798778876662<,*%.   nnnnnnnnnnnnnnnnnnnnnnnnnnnnnnnnnnnnnnnnnnnnnn",
"nnnnnnnnnnnnnnnnnnnnnnnnnnnnnnnnnnnnnnnnnnnnnn        @#&::,1<:<,<<<,<-##X .   nnnnnnnnnnnnnnnnnnnnnnnnnnnnnnnnnnnnnnnnnnnnnnnnn",
"nnnnnnnnnnnnnnnnnnnnnnnnnnnnnnnnnnnnnnnnnnnnnnnnnn                         nnnnnnnnnnnnnnnnnnnnnnnnnnnnnnnnnnnnnnnnnnnnnnnnnnnnn",
"nnnnnnnnnnnnnnnnnnnnnnnnnnnnnnnnnnnnnnnnnnnnnnnnnnnnnnnn              nnnnnnnnnnnnnnnnnnnnnnnnnnnnnnnnnnnnnnnnnnnnnnnnnnnnnnnnnn",
"nnnnnnnnnnnnnnnnnnnnnnnnnnnnnnnnnnnnnnnnnnnnnnnnnnnnnnnnnnnnnnnnnnnnnnnnnnnnnnnnnnnnnnnnnnnnnnnnnnnnnnnnnnnnnnnnnnnnnnnnnnnnnnnn",
"nnnnnnnnnnnnnnnnnnnnnnnnnnnnnnnnnnnnnnnnnnnnnnnnnnnnnnnnnnnnnnnnnnnnnnnnnnnnnnnnnnnnnnnnnnnnnnnnnnnnnnnnnnnnnnnnnnnnnnnnnnnnnnnn",
"nnnnnnnnnnnnnnnnnnnnnnnnnnnnnnnnnnnnnnnnnnnnnnnnnnnnnnnnnnnnnnnnnnnnnnnnnnnnnnnnnnnnnnnnnnnnnnnnnnnnnnnnnnnnnnnnnnnnnnnnnnnnnnnn",
"nnnnnnnnnnnnnnnnnnnnnnnnnnnnnnnnnnnnnnnnnnnnnnnnnnnnnnnnnnnnnnnnnnnnnnnnnnnnnnnnnnnnnnnnnnnnnnnnnnnnnnnnnnnnnnnnnnnnnnnnnnnnnnnn",
"nnnnnnnnnnnnnnnnnnnnnnnnnnnnnnnnnnnnnnnnnnnnnnnnnnnnnnnnnnnnnnnnnnnnnnnnnnnnnnnnnnnnnnnnnnnnnnnnnnnnnnnnnnnnnnnnnnnnnnnnnnnnnnnn",
"nnnnnnnnnnnnnnnnnnnnnnnnnnnnnnnnnnnnnnnnnnnnnnnnnnnnnnnnnnnnnnnnnnnnnnnnnnnnnnnnnnnnnnnnnnnnnnnnnnnnnnnnnnnnnnnnnnnnnnnnnnnnnnnn",
"nnnnnnnnnnnnnnnnnnnnnnnnnnnnnnnnnnnnnnnnnnnnnnnnnnnnnnnnnnnnnnnnnnnnnnnnnnnnnnnnnnnnnnnnnnnnnnnnnnnnnnnnnnnnnnnnnnnnnnnnnnnnnnnn"
};
