/* XPM */
static char *terminal[] = {
/* columns rows colors chars-per-pixel */
"128 128 39 1 ",
"  c #000100010001",
". c #29FF29FF29FF",
"X c #35AE35AE35AE",
"o c #51CF51CF51CF",
"O c #66E166E166E1",
"+ c #734A734A734A",
"@ c #8A2A8A2A8A2A",
"# c #9E569E569E56",
"$ c #AAD6AAD6AAD6",
"% c #B78AB78AB78A",
"& c #C2A7C2A7C2A7",
"* c #CA03CA03CA03",
"= c #D39FD39FD39F",
"- c #DBB2DBB2DBB2",
"; c #DED9DE15DE15",
": c #E270E270E270",
"> c #E50EE3C6E50E",
", c #E3C6E50EE50E",
"< c #E776E776E776",
"1 c #E8A2E910E8A2",
"2 c #EC30EC30EC30",
"3 c #ECF7ECDAED08",
"4 c #EE02EE02EE02",
"5 c #F076F076F013",
"6 c #F1EDF1EDF1ED",
"7 c #F345F2F2F345",
"8 c #F433F433F433",
"9 c #F59EF558F558",
"0 c #F558F558F59E",
"q c #F6A4F6A4F6A4",
"w c #F71FF794F71F",
"e c #F86FF86FF86F",
"r c #F907F907F966",
"t c #F9EEF9EEF9EE",
"y c #FB08FB08FB08",
"u c #FC35FC35FC35",
"i c #FCCEFCD3FCCE",
"p c #FE1BFE1BFE1A",
"a c None",
/* pixels */
"aaaaaaaaaaaaaaaaaaaaaaaaaaaaaaaaaaaaaaaaaaaaaaaaaaaaaaaaaaaaaaaaaaaaaaaaaaaaaaaaaaaaaaaaaaaaaaaaaaaaaaaaaaaaaaaaaaaaaaaaaaaaaaaa",
"aaaaaaaaaaaaaaaaaaaaaaaaaaaaaaaaaaaaaaaaaaaaaaaaaaaaaaaaaaaaaaaaaaaaaaaaaaaaaaaaaaaaaaaaaaaaaaaaaaaaaaaaaaaaaaaaaaaaaaaaaaaaaaaa",
"aaaaaaaaaaaaaaaaaaaaaaaaaaaaaaaaaaaaaaaaaaaaaaaaaaaaaaaaaaaaaaaaaaaaaaaaaaaaaaaaaaaaaaaaaaaaaaaaaaaaaaaaaaaaaaaaaaaaaaaaaaaaaaaa",
"aaaaaaaaaaaaaaaaaaaaaaaaaaaaaaaaaaaaaaaaaaaaaaaaaaaaaaaaaaaaaaaaaaaaaaaaaaaaaaaaaaaaaaaaaaaaaaaaaaaaaaaaaaaaaaaaaaaaaaaaaaaaaaaa",
"aaaaaaaaaaaaaaaaaaaaaaaaaaaaaaaaaaaaaaaaaaaaaaaaaaaaaaaaaaaaaaaaaaaaaaaaaaaaaaaaaaaaaaaaaaaaaaaaaaaaaaaaaaaaaaaaaaaaaaaaaaaaaaaa",
"aaaaaaaaaaaaaaaaaaaaaaaaaaaaaaaaaaaaaaaaaaaaaaaaaaaaaaaaaaaaaaaaaaaaaaaaaaaaaaaaaaaaaaaaaaaaaaaaaaaaaaaaaaaaaaaaaaaaaaaaaaaaaaaa",
"aaaaaaaaaaaaaaaaaaaaaaaaaaaaaaaaaaaaaaaaaaaaaaaaaaaaaaaaaaaaaaaaaaaaaaaaaaaaaaaaaaaaaaaaaaaaaaaaaaaaaaaaaaaaaaaaaaaaaaaaaaaaaaaa",
"aaaaaaaaaaaaaaaaaaaaaaaaaaaaaaaaaaaaaaaaaaaaaaaaaaaaaaaaaaaaaaaaaaaaaaaaaaaaaaaaaaaaaaaaaaaaaaaaaaaaaaaaaaaaaaaaaaaaaaaaaaaaaaaa",
"aaaaaaaaaaaaaaaaaaaaaaaaaaaaaaaaaaaaaaaaaaaaaaaaaaaaaaaaaaaaaaaaaaaaaaaaaaaaaaaaaaaaaaaaaaaaaaaaaaaaaaaaaaaaaaaaaaaaaaaaaaaaaaaa",
"aaaaaaaaaaaaaaaaaaaaaaaaaaaaaaaaaaaaaaaaaaaaaaaaaaaaaaaaaaaaaaaaaaaaaaaaaaaaaaaaaaaaaaaaaaaaaaaaaaaaaaaaaaaaaaaaaaaaaaaaaaaaaaaa",
"aaaaaaaaaaaaaaaaaaaaaaaaaaaaaaaaaaaaaaaaaaaaaaaaaaaaaaaaaaaaaaaaaaaaaaaaaaaaaaaaaaaaaaaaaaaaaaaaaaaaaaaaaaaaaaaaaaaaaaaaaaaaaaaa",
"aaaaaaaaaaaaaaaaaaaaaaaaaaaaaaaaaaaaaaaaaaaaaaaaaaaaaaaaaaaaaaaaaaaaaaaaaaaaaaaaaaaaaaaaaaaaaaaaaaaaaaaaaaaaaaaaaaaaaaaaaaaaaaaa",
"aaaaaaaaaaaaaaaaaaaaaaaaaaaaaaaaaaaaaaaaaaaaaaaaaaaaaaaaaaaaaaaaaaaaaaaaaaaaaaaaaaaaaaaaaaaaaaaaaaaaaaaaaaaaaaaaaaaaaaaaaaaaaaaa",
"aaaaaaaaaaaaaaaaaaaaaaaaaaaaaaaaaaaaaaaaaaaaaaaaaaaaaaaaaaaaaaaaaaaaaaaaaaaaaaaaaaaaaaaaaaaaaaaaaaaaaaaaaaaaaaaaaaaaaaaaaaaaaaaa",
"aaaaaaaaaaaaaaaaaaaaaaaaaaaaaaaaaaaaaaaaaaaaaaaaaaaaaaaaaaaaaaaaaaaaaaaaaaaaaaaaaaaaaaaaaaaaaaaaaaaaaaaaaaaaaaaaaaaaaaaaaaaaaaaa",
"aaaaaaaaaaaaaaaaaaaaaaaaaaaaaaaaaaaaaaaaaaaaaaaaaaaaaaaaaaaaaaaaaaaaaaaaaaaaaaaaaaaaaaaaaaaaaaaaaaaaaaaaaaaaaaaaaaaaaaaaaaaaaaaa",
"aaaaaaaaaaaaaaaaaaaaaaaaaaaaaaaaaaaaaaaaaaaaaaaaaaaaaaaaaaaaaaaaaaaaaaaaaaaaaaaaaaaaaaaaaaaaaaaaaaaaaaaaaaaaaaaaaaaaaaaaaaaaaaaa",
"aaaaaaaaaaaaaaaaaaaaaaaaaaaaaaaaaaaaaaaaaaaaaaaaaaaaaaaaaaaaaaaaaaaaaaaaaaaaaaaaaaaaaaaaaaaaaaaaaaaaaaaaaaaaaaaaaaaaaaaaaaaaaaaa",
"aaaaaaaaaaaaaaaaaaaaaaaaaaaaaaaaaaaaaaaaaaaaaaaaaaaaaaaaaaaaaaaaaaaaaaaaaaaaaaaaaaaaaaaaaaaaaaaaaaaaaaaaaaaaaaaaaaaaaaaaaaaaaaaa",
"aaaaaaaaaaaaaaaaaaaaaaaaaaaaaaaaaaaaaaaaaaaaaaaaaaaaaaaaaaaaaaaaaaaaaaaaaaaaaaaaaaaaaaaaaaaaaaaaaaaaaaaaaaaaaaaaaaaaaaaaaaaaaaaa",
"aaaaaaaaaaaapppppppppppppppppppppppppppppppppppppppppppppppppppppppppppppppppppppppppppppppppppppppppppppppppppppppaaaaaaaaaaaaa",
"aaaaaaaaaapppppppppppppppppppppppppppppppppppppppppppppppppppppppppppppppppppppppppppppppppppppppppppppppppppppppppppaaaaaaaaaaa",
"aaaaaaaaapppppppppppppppppppppppppppppppppppppppppppppppppppppppppppppppppppppppppppppppppppppppppppppppppppppppppppppaaaaaaaaaa",
"aaaaaaaapppppppppppppppppppppppppppppppppppppppppppppppppppppppppppppppppppppppppppppppppppppppppppppppppppppppppppppppaaaaaaaaa",
"aaaaaaaappppppppppppppppppppppppppppppppppppppppppppppppppppppppppppppppppppppppppppppppppppppppppppppppppppppppppppppppaaaaaaaa",
"aaaaaaaappppppppppppppppppppppppppppppppppppppppppppppppppppppppppppppppppppppppppppppppppppppppppppppppppppppppppppppppaaaaaaaa",
"aaaaaaaeppppppppppppppppppppppppppppppppppppppppppppppppppppppppppppppppppppppppppppppppppppppppppppppppppppppppupppppppaaaaaaaa",
"aaaaaaa8ppppppypppppppppppppppppypppppppppppppppppppppppppppppyppppppppppppppppppppppppppppppypppppppppppppppypppppppippaaaaaaaa",
"aaaaaaa6ppppppppppppy6,=****&***********&************************************************&**************-<6yppppppppppppaaaaaaaa",
"aaaaaaa6pppupypppuy<O                                                                                      #4puppuppppypaaaaaaaa",
"aaaaaaa4pppppppppp4                                                                                         oeppppuuppppaaaaaaaa",
"aaaaaaa4pyppyppypp&aaaaaaaaaaaaaaaaaaaaaaaaaaaaaaaaaaaaaaaaaaaaaaaaaaaaaaaaaaaaaaaaaaaaaaaaaaaaaaaaaaaaaaaa  :ppyippppppaaaaaaaa",
"aaaaaaa4pypyppyppy#aaaaaaaaaaaaaaaaaaaaaaaaaaaaaaaaaaaaaaaaaaaaaaaaaaaaaaaaaaaaaaaaaaaaaaaaaaaaaaaaaaaaaaaaa =pppppyppypaaaaaaaa",
"aaaaaaa2pppipppppyaaaaaaaaaaaaaaaaaaaaaaaaaaaaaaaaaaaaaaaaaaaaaaaaaaaaaaaaaaaaaaaaaaaaaaaaaaaaaaaaaaaaaaaaaaa-ypyppppppyaaaaaaaa",
"aaaaaaa2iipppuypppaaaaaaaaaaaaaaaaaaaaaaaaaaaaaaaaaaaaaaaaaaaaaaaaaaaaaaaaaaaaaaaaaaaaaaaaaaaaaaaaaaaaaaaaaaa-ppypuppyypaaaaaaaa",
"aaaaaaa2ipiiipipypaaaaaaaaaaaaaaaaaaaaaaaaaaaaaaaaaaaaaaaaaaaaaaaaaaaaaaaaaaaaaaaaaaaaaaaaaaaaaaaaaaaaaaaaaaa;ypppyppuppaaaaaaaa",
"aaaaaaa2ypipippiypaaaaaaaaaaaaaaaaaaaaaaaaaaaaaaaaaaaaaaaaaaaaaaaaaaaaaaaaaaaaaaaaaaaaaaaaaaaaaaaaaaaaaaaaaaa;pypyppyppyaaaaaaaa",
"aaaaaaa2piiypyiippaaaaaaaaaaaaaaaaaaaaaaaaaaaaaaaaaaaaaaaaaaaaaaaaaaaaaaaaaaaaaaaaaaaaaaaaaaaaaaaaaaaaaaaaaaa;ppppypyppyaaaaaaaa",
"aaaaaaa2iiippiippyaaaaaaaapupyppaaaaaaaaaaaaaaaaaaaaaaaaaaaaaaaaaaaaaaaaaaaaaaaaaaaaaaaaaaaaaaaaaaaaaaaaaaaaa:puypypppypaaaaaaaa",
"aaaaaaa2upipyipyypaaaaaaaaypuppypypaaaaaaaaaaaaaaaaaaaaaaaaaaaaaaaaaaaaaaaaaaaaaaaaaaaaaaaaaaaaaaaaaaaaaaaaaa:uppupyyppyaaaaaaaa",
"aaaaaaa2iipypypyypaaaaaaaapypypypuuuypaaaaaaaaaaaaaaaaaaaaaaaaaaaaaaaaaaaaaaaaaaaaaaaaaaaaaaaaaaaaaaaaaaaaaaa:pyppiuypuiaaaaaaaa",
"aaaaaaa<uipyypuppuaaaaaaaaypypupypuppypypaaaaaaaaaaaaaaaaaaaaaaaaaaaaaaaaaaaaaaaaaaaaaaaaaaaaaaaaaaaaaaaaaaaa;ypyyippypyaaaaaaaa",
"aaaaaaa2iyypupiuyuaaaaaaaayypypyuppyypypyypyaaaaaaaaaaaaaaaaaaaaaaaaaaaaaaaaaaaaaaaaaaaaaaaaaaaaaaaaaaaaaaaaa;pyiyiyyuypaaaaaaaa",
"aaaaaaa<uppyyyyppuaaaaaaaaepypyyuyuypypypyypupuaaaaaaaaaaaaaaaaaaaaaaaaaaaaaaaaaaaaaaaaaaaaaaaaaaaaaaaaaaaaaa;yyypypuupyaaaaaaaa",
"aaaaaaa2uuuuppypyuaaaaaaaa=eypyyuuupuuupypuuypyuuuaaaaaaaaaaaaaaaaaaaaaaaaaaaaaaaaaaaaaaaaaaaaaaaaaaaaaaaaaaa;ypiyiyyypiaaaaaaaa",
"aaaaaaa<uuuuyuyypyaaaaaaaaao%<eyuuuyuuuuyuuupyuuuuuuuaaaaaaaaaaaaaaaaaaaaaaaaaaaaaaaaaaaaaaaaaaaaaaaaaaaaaaaa;pyypyppyyyaaaaaaaa",
"aaaaaaa<uuuuuupypyaaaaaaaaaa  .#-6yyyuuupyuuuuuuuuuuuuyaaaaaaaaaaaaaaaaaaaaaaaaaaaaaaaaaaaaaaaaaaaaaaaaaaaaaa;yyuyuuypyiaaaaaaaa",
"aaaaaaa,uuuuyuuuyyaaaaaaaaaaa    .@*2eyyuuuuyuuuuyuuuypyaaaaaaaaaaaaaaaaaaaaaaaaaaaaaaaaaaaaaaaaaaaaaaaaaaaaa;ypuuuyyypyaaaaaaaa",
"aaaaaaa<uyuuuyuuuyaaaaaaaaaaaaa      o%,8yuypyyypyyypypyaaaaaaaaaaaaaaaaaaaaaaaaaaaaaaaaaaaaaaaaaaaaaaaaaaaaa;pyyuyuypyyaaaaaaaa",
"aaaaaaa<yuyuyuyuyyaaaaaaaaaaaaaaaaa     X#4yyypyyypyyyyyaaaaaaaaaaaaaaaaaaaaaaaaaaaaaaaaaaaaaaaaaaaaaaaaaaaaa;yyuyuyyyyyaaaaaaaa",
"aaaaaaa,yuyyuuyyuyaaaaaaaaaaaaaaaaaaaa    &yyyyyyyyyyyyyaaaaaaaaaaaaaaaaaaaaaaaaaaaaaaaaaaaaaaaaaaaaaaaaaaaaa;yyyyyyyyyyaaaaaaaa",
"aaaaaaa,yuyyyyyuyyaaaaaaaaaaaaaaaaaaaaaaO*4yypyyypyyyyypaaaaaaaaaaaaaaaaaaaaaaaaaaaaaaaaaaaaaaaaaaaaaaaaaaaaa-yyuyuyyyyyaaaaaaaa",
"aaaaaaa<yyyyyyyyyyaaaaaaaaaaaaaaaaaaaa>6eyyyyyyyyyyyyyyyaaaaaaaaaaaaaaaaaaaaaaaaaaaaaaaaaaaaaaaaaaaaaaaaaaaaa-yyyyyyyyyyaaaaaaaa",
"aaaaaaa,yyyyyyyyyyaaaaaaaaaaaaaaaaa6eyyyyyyyyyyyyyyyyyyyaaaaaaaaaaaaaaaaaaaaaaaaaaaaaaaaaaaaaaaaaaaaaaaaaaaaa-yyyyyyyyyyaaaaaaaa",
"aaaaaaa,eyyyyyyyyyaaaaaaaaaaaaaayyyyyyyyyyyyyyyyyyyyyyy4aaaaaaaaaaaaaaaaaaaaaaaaaaaaaaaaaaaaaaaaaaaaaaaaaaaaa-yyyyyyyyyyaaaaaaaa",
"aaaaaaa>yyyyyyyyyyaaaaaaaaaaayeyyyyyyyyyyyyyyyyyyyye4;aaaaaaaaaaaaaaaaaaaaaaaaaaaaaaaaaaaaaaaaaaaaaaaaaaaaaaa-yyyyyyyyeyaaaaaaaa",
"aaaaaaa:yyyyyyeyyeaaaaaaaaayyyyyyeyyeyyyeyeyyyeye4*+.aaaaaaaaaaaaaaaaaaaaaaaaaaaaaaaaaaaaaaaaaaaaaaaaaaaaaaaa-eyyeyreyryaaaaaaaa",
"aaaaaaa:yyyyyyyyyyaaaaaaaayyyeyyyyyyyyyyyyyyye2&+  aaaaaaaaaaaaaaaaaaaaaaaaaaaaaaaaaaaaaaaaaaaaaaaaaaaaaaaaaa-yyyyyyyyyyaaaaaaaa",
"aaaaaaa:yyeyyeeyyyaaaaaaaayyyyeyyyeyyyyyeye2*o   aaaaaaaaaaaaaaaaaaaaaaaaaaaaaaaaaaaaaaaaaaaaaaaaaaaaaaaaaaaa-yeeyyyyryraaaaaaaa",
"aaaaaaa:eyeyyyyyyyaaaaaaaayeeyyyeeyyyeee<%o   aaaaaaaaaaaaaaaaaaaaaaaaaaaaaaaaaaaaaaaaaaaaaaaaaaaaaaaaaaaaaaa=yyyyeyryeyaaaaaaaa",
"aaaaaaa:yeeyeyyeeyaaaaaaaayyyyeyyeye6,&o   aaaaaaaaaaaaaaaaaaaaaaaaaaaaaaaaaaaaaaaaaaaaaaaaaaaaaaaaaaaaaaaaaa=ryeyeyryreaaaaaaaa",
"aaaaaaa:eyyyyeeyyeaaaaaaaa6yyeyyy6:$X   aaaaaaaaaaaaaaaaaaaaaaaaaaaaaaaaaaaaaaaaaaaaaaaaaaaaaaaaaaaaaaaaaaaaa=eeyeyeyryeaaaaaaaa",
"aaaaaaa;yyeeyeyyeeaaaaaaaa*6ee5;$o   aaaaaaaaaaaaaaaaaaaaaaaaaaaaaaaaaaaaaaaaaaaaaaaaaaaaaaaaaaaaaaaaaaaaaaaa-yyryreyeyeaaaaaaaa",
"aaaaaaa:yeeyeyeeeeaaaaaaaaaO@@X   aaaaaaaaaaaaaaaaaaaaaaaaaaaaaaaaaaaaaaaaaaaaaaaaaaaaaaaaaaaaaaaaaaaaaaaaaaa=ereeyreyeyaaaaaaaa",
"aaaaaaa;yeyerrrryeaaaaaaaaaaa aaaaaaaaaaaaaaaaaaaaaaaaaaaaaaaaaaaaaaaaaaaaaaaaaaaaaaaaaaaaaaaaaaaaaaaaaaaaaaa=eeeeeyrreeaaaaaaaa",
"aaaaaaa:eeeerrrreyaaaaaaaaaaaaaaaaaaaaaaaaaaaaaaaaaaaaaaaaaaaaaaaaaaaaaaaaaaaaaaaaaaaaaaaaaaaaaaaaaaaaaaaaaaa=yeeyeerryeaaaaaaaa",
"aaaaaaa;ereyyeeeeeaaaaaaaaaaaaaaaaaaaaaaaaaaaaaaaaaaaaaaaaaaaaaaaaaaaaaaaaaaaaaaaaaaaaaaaaaaaaaaaaaaaaaaaaaaa=yeeeeyereeaaaaaaaa",
"aaaaaaa:eeyeeeeeeeaaaaaaaaaaaaaaaaaaaaaaaaaaaaaaaaaaaaaaaaaaaaaaaaaaaaaaaaaaaaaaaaaaaaaaaaaaaaaaaaaaaaaaaaaaa=eeeeeeeeeeaaaaaaaa",
"aaaaaaa;eeeyeeeeeeaaaaaaaaaaaaaaaaaaaaaaaaaaaaaaaaaaaaaaaaaaaaaaaaaaaaaaaaaaaaaaaaaaaaaaaaaaaaaaaaaaaaaaaaaaa=eeeeeeeeeeaaaaaaaa",
"aaaaaaa;eeeeeeeeeeaaaaaaaaaaaaaaaaaaaaaaaaaaaaaaaaaaaaaaaaaaaaaaaaaaaaaaaaaaaaaaaaaaaaaaaaaaaaaaaaaaaaaaaaaaa=eeeeeeeeeeaaaaaaaa",
"aaaaaaa-eeeeeeeeeeaaaaaaaaaaaaaaaaaaaaaaaaaaaaaaaaaaaaaaaaaaaaaaaaaaaaaaaaaaaaaaaaaaaaaaaaaaaaaaaaaaaaaaaaaaa=eeeeeeeeeeaaaaaaaa",
"aaaaaaa-eeeeeeeeeeaaaaaaaaaaaaaaaaaaaaaaaaaaaaaaaaaaaaaaaaaaaaaaaaaaaaaaaaaaaaaaaaaaaaaaaaaaaaaaaaaaaaaaaaaaa*e8eee8eee8aaaaaaaa",
"aaaaaaa;eeee8eeeeeaaaaaaaaaaaaaaaaaaaaaaaaaaaaaaaaaaaaaaaaaaaaaaaaaaaaaaaaaaaaaaaaaaaaaaaaaaaaaaaaaaaaaaaaaaa=eeeeeeee8eaaaaaaaa",
"aaaaaaa;8eeeee8ee8aaaaaaaaaaaaaaaaaaaaaaaaaaaaaaaaaaaaaaaaaaaaaaaaaaaaaaaaaaaaaaaaaaaaaaaaaaaaaaaaaaaaaaaaaaa*eeee8e8eeeaaaaaaaa",
"aaaaaaa-eeeeee8eeeaaaaaaaaaaaaaaaaaaaaaaaaaaaaaaaaaaaaaaaaaaaaaaaaaaaaaaaaaaaaaaaaaaaaaaaaaaaaaaaaaaaaaaaaaaa=ee8ee8ee8eaaaaaaaa",
"aaaaaaa-8e8e8eeee8aaaaaaaaaaaaaaaaaaaaaaaaaaaaaaaaaaaaaaaaaaaaaaaaaaaaaaaaaaaaaaaaaaaaaaaaaaaaaaaaaaaaaaaaaaa*88e8e8e8eeaaaaaaaa",
"aaaaaaa-8ee86e6ee8aaaaaaaaaaaaaaaaaaaaaaaaaaaaaaaaaaaaaaaaaaaaaaaaaaaaaaaaaaaaaaaaaaaaaaaaaaaaaaaaaaaaaaaaaaa=ee88e8e6e8aaaaaaaa",
"aaaaaaa=e88eeeeeeeaaaaaaaaaaaaaaaaaaaaaaaaaaaaaaaaaaaaaaaaaaaaaaaaaaaaaaaaaaaaaaaaaaaaaaaaaaaaaaaaaaaaaaaaaaa*88eeeeeee8aaaaaaaa",
"aaaaaaa-ee8ee86ee6aaaaaaaaaaaaaaaaaaaaaaaaaaaaaaaaaaaaaaaaaaaaaaaaaaaaaaaaaaaaaaaaaaaaaaaaaaaaaaaaaaaaaaaaaaa*ee888ee66eaaaaaaaa",
"aaaaaaa=8e8e6eeee6aaaaaaaaaaaaaaaaaaaaaaaaaaaaaaaaaaaaaaaaaaaaaaaaaaaaaaaaaaaaaaaaaaaaaaaaaaaaaaaaaaaaaaaaaaa*8eee88e6eeaaaaaaaa",
"aaaaaaa-e6ee6ee66eaaaaaaaaaaaaaaaaaaaaaaaaaaaaaaaaaaaaaaaaaaaaaaaaaaaaaaaaaaaaaaaaaaaaaaaaaaaaaaaaaaaaaaaaaaa*6e888e88eeaaaaaaaa",
"aaaaaaa=6e68e66eeeaaaaaaaaaaaaaaaaaaaaaaaaaaaaaaaaaaaaaaaaaaaaaaaaaaaaaaaaaaaaaaaaaaaaaaaaaaaaaaaaaaaaaaaaaaa*778e888e88aaaaaaaa",
"aaaaaaa=e6eee6e676aaaaaaaaaaaaaaaaaaaaaaaaaaaaaaaaaaaaaaaaaaaaaaaaaaaaaaaaaaaaaaaaaaaaaaaaaaaaaaaaaaaaaaaaaaa*8ee88ee6e8aaaaaaaa",
"aaaaaaa-6e6e6e6ee8aaaaaaaaaaaaaaaaaaaaaaaaaaaaaaaaaaaaaaaaaaaaaaaaaaaaaaaaaaaaaaaaaaaaaaaaaaaaaaaaaaaaaaaaaaa*6e88888868aaaaaaaa",
"aaaaaaa=6ee676e6e6aaaaaaaaaaaaaaaaaaaaaaaaaaaaaaaaaaaaaaaaaaaaaaaaaaaa6e888888888888e88e88888888888aaaaaaaaaa*e888888e88aaaaaaaa",
"aaaaaaa=e66ee76e88aaaaaaaaaaaaaaaaaaaaaaaaaaaaaaaaaaaaaaaaaaaaaaaaaaaa66888888888888688688888888888aaaaaaaaaa*6688888888aaaaaaaa",
"aaaaaaa=6667887e86aaaaaaaaaaaaaaaaaaaaaaaaaaaaaaaaaaaaaaaaaaaaaaaaaaa4e6888886888888788888888888668aaaaaaaaaa*6688888886aaaaaaaa",
"aaaaaaa=68e6886688aaaaaaaaaaaaaaaaaaaaaaaaaaaaaaaaaaaaaaaaaaaaaaaaaaa3867877886e78878868886888868e6aaaaaaaaaa&6e68866688aaaaaaaa",
"aaaaaaa=7e77878786aaaaaaaaaaaaaaaaaaaaaaaaaaaaaaaaaaaaaaaaaaaaaaaaaaa,66886868667686868688688688778aaaaaaaaaa&8686886e66aaaaaaaa",
"aaaaaaa=6686688666aaaaaaaaaaaaaaaaaaaaaaaaaaaaaaaaaaaaaaaaaaaaaaaaaaa;68688686867778668668686686776aaaaaaaaaa*6688666666aaaaaaaa",
"aaaaaaa*6688686766aaaaaaaaaaaaaaaaaaaaaaaaaaaaaaaaaaaaaaaaaaaaaaaaaaa%66868666666676666666866666766aaaaaaaaaa&6666686666aaaaaaaa",
"aaaaaaa=6686667666aaaaaaaaaaaaaaaaaaaaaaaaaaaaaaaaaaaaaaaaaaaaaaaaaaaa&,1111<<2221<2111221111<223<=aaaaaaaaaa&6686666666aaaaaaaa",
"aaaaaaa=6666666766aaaaaaaaaaaaaaaaaaaaaaaaaaaaaaaaaaaaaaaaaaaaaaaaaaaaa......X....X.......X....Xaaaaaaaaaaaaa&5666666666aaaaaaaa",
"aaaaaaa=6666666665aaaaaaaaaaaaaaaaaaaaaaaaaaaaaaaaaaaaaaaaaaaaaaaaaaaaaa                       aaaaaaaaaaaaaa&5666666655aaaaaaaa",
"aaaaaaa=5666666665aaaaaaaaaaaaaaaaaaaaaaaaaaaaaaaaaaaaaaaaaaaaaaaaaaaaaaaaaaaaaaaaaaaaaaaaaaaaaaaaaaaaaaaaaaa&5656656565aaaaaaaa",
"aaaaaaa*5556566665aaaaaaaaaaaaaaaaaaaaaaaaaaaaaaaaaaaaaaaaaaaaaaaaaaaaaaaaaaaaaaaaaaaaaaaaaaaaaaaaaaaaaaaaaaa&5555655655aaaaaaaa",
"aaaaaaa*5556556565aaaaaaaaaaaaaaaaaaaaaaaaaaaaaaaaaaaaaaaaaaaaaaaaaaaaaaaaaaaaaaaaaaaaaaaaaaaaaaaaaaaaaaaaaaa&5555555555aaaaaaaa",
"aaaaaaa*5555555554aaaaaaaaaaaaaaaaaaaaaaaaaaaaaaaaaaaaaaaaaaaaaaaaaaaaaaaaaaaaaaaaaaaaaaaaaaaaaaaaaaaaaaaaaaa=5655555554aaaaaaaa",
"aaaaaaa=55555545552aaaaaaaaaaaaaaaaaaaaaaaaaaaaaaaaaaaaaaaaaaaaaaaaaaaaaaaaaaaaaaaaaaaaaaaaaaaaaaaaaaaaaaaaaa<5445455564aaaaaaaa",
"aaaaaaa*455455544552aaaaaaaaaaaaaaaaaaaaaaaaaaaaaaaaaaaaaaaaaaaaaaaaaaaaaaaaaaaaaaaaaaaaaaaaaaaaaaaaaaaaaaaa,55455444544aaaaaaaa",
"aaaaaaa*4545544654454444444444443443244444344444444444444444444444444444444443444444433444443444444443343323444544444444aaaaaaaa",
"aaaaaaa*4554454454544444454454444554554444454444444454444444444444544444444444444444444444444444444446364444454444445444aaaaaaaa",
"aaaaaaa*4444444444444454444544444444344444444444444444444444444444444444444444444444444444444444444444344444444444444443aaaaaaaa",
"aaaaaaa%3444444444444444444444444434444244444343442444443444343234434432434443422444443343444433343443433443433344444433aaaaaaaa",
"aaaaaaaa222233443433533344444442423444243224433333333334223323343224234224333342433233244334234233333334223323333333224,aaaaaaaa",
"aaaaaaaa&24334333433233232232242243323222242333442334232423342423432324224323322333232222423332233334232424342423222222aaaaaaaaa",
"aaaaaaaa.*24224233323342232242222224224222223222223222222232222222222222222242222222222222222222223222222222222222223<*aaaaaaaaa",
"aaaaaaaaa %:22222322222232222222222222222222222222222222222222222222222222222222222222222222222222222222222222222223;$aaaaaaaaaa",
"aaaaaaaaaa o%=::::::::,:::,,:::::::::>::::,::::::::::,::::::::,:::,:::::::::::,:::<:::::::::::,::::::,::::::::,::;=$oaaaaaaaaaaa",
"aaaaaaaaaaa   XXXXXXXXXXXXXXXXXXXXXXXXXXXXXXXXXXXXXXXXXXXXXXXXXXXXXXXXXXXXXXXXXXXXXXXXXXXXXXXXXXXXXXXXXXXXXXXXXXXX aaaaaaaaaaaaa",
"aaaaaaaaaaaa                                                                                                     aaaaaaaaaaaaaaa",
"aaaaaaaaaaaaaaaaaaaaaaaaaaaaaaaaaaaaaaaaaaaaaaaaaaaaaaaaaaaaaaaaaaaaaaaaaaaaaaaaaaaaaaaaaaaaaaaaaaaaaaaaaaaaaaaaaaaaaaaaaaaaaaaa",
"aaaaaaaaaaaaaaaaaaaaaaaaaaaaaaaaaaaaaaaaaaaaaaaaaaaaaaaaaaaaaaaaaaaaaaaaaaaaaaaaaaaaaaaaaaaaaaaaaaaaaaaaaaaaaaaaaaaaaaaaaaaaaaaa",
"aaaaaaaaaaaaaaaaaaaaaaaaaaaaaaaaaaaaaaaaaaaaaaaaaaaaaaaaaaaaaaaaaaaaaaaaaaaaaaaaaaaaaaaaaaaaaaaaaaaaaaaaaaaaaaaaaaaaaaaaaaaaaaaa",
"aaaaaaaaaaaaaaaaaaaaaaaaaaaaaaaaaaaaaaaaaaaaaaaaaaaaaaaaaaaaaaaaaaaaaaaaaaaaaaaaaaaaaaaaaaaaaaaaaaaaaaaaaaaaaaaaaaaaaaaaaaaaaaaa",
"aaaaaaaaaaaaaaaaaaaaaaaaaaaaaaaaaaaaaaaaaaaaaaaaaaaaaaaaaaaaaaaaaaaaaaaaaaaaaaaaaaaaaaaaaaaaaaaaaaaaaaaaaaaaaaaaaaaaaaaaaaaaaaaa",
"aaaaaaaaaaaaaaaaaaaaaaaaaaaaaaaaaaaaaaaaaaaaaaaaaaaaaaaaaaaaaaaaaaaaaaaaaaaaaaaaaaaaaaaaaaaaaaaaaaaaaaaaaaaaaaaaaaaaaaaaaaaaaaaa",
"aaaaaaaaaaaaaaaaaaaaaaaaaaaaaaaaaaaaaaaaaaaaaaaaaaaaaaaaaaaaaaaaaaaaaaaaaaaaaaaaaaaaaaaaaaaaaaaaaaaaaaaaaaaaaaaaaaaaaaaaaaaaaaaa",
"aaaaaaaaaaaaaaaaaaaaaaaaaaaaaaaaaaaaaaaaaaaaaaaaaaaaaaaaaaaaaaaaaaaaaaaaaaaaaaaaaaaaaaaaaaaaaaaaaaaaaaaaaaaaaaaaaaaaaaaaaaaaaaaa",
"aaaaaaaaaaaaaaaaaaaaaaaaaaaaaaaaaaaaaaaaaaaaaaaaaaaaaaaaaaaaaaaaaaaaaaaaaaaaaaaaaaaaaaaaaaaaaaaaaaaaaaaaaaaaaaaaaaaaaaaaaaaaaaaa",
"aaaaaaaaaaaaaaaaaaaaaaaaaaaaaaaaaaaaaaaaaaaaaaaaaaaaaaaaaaaaaaaaaaaaaaaaaaaaaaaaaaaaaaaaaaaaaaaaaaaaaaaaaaaaaaaaaaaaaaaaaaaaaaaa",
"aaaaaaaaaaaaaaaaaaaaaaaaaaaaaaaaaaaaaaaaaaaaaaaaaaaaaaaaaaaaaaaaaaaaaaaaaaaaaaaaaaaaaaaaaaaaaaaaaaaaaaaaaaaaaaaaaaaaaaaaaaaaaaaa",
"aaaaaaaaaaaaaaaaaaaaaaaaaaaaaaaaaaaaaaaaaaaaaaaaaaaaaaaaaaaaaaaaaaaaaaaaaaaaaaaaaaaaaaaaaaaaaaaaaaaaaaaaaaaaaaaaaaaaaaaaaaaaaaaa",
"aaaaaaaaaaaaaaaaaaaaaaaaaaaaaaaaaaaaaaaaaaaaaaaaaaaaaaaaaaaaaaaaaaaaaaaaaaaaaaaaaaaaaaaaaaaaaaaaaaaaaaaaaaaaaaaaaaaaaaaaaaaaaaaa",
"aaaaaaaaaaaaaaaaaaaaaaaaaaaaaaaaaaaaaaaaaaaaaaaaaaaaaaaaaaaaaaaaaaaaaaaaaaaaaaaaaaaaaaaaaaaaaaaaaaaaaaaaaaaaaaaaaaaaaaaaaaaaaaaa",
"aaaaaaaaaaaaaaaaaaaaaaaaaaaaaaaaaaaaaaaaaaaaaaaaaaaaaaaaaaaaaaaaaaaaaaaaaaaaaaaaaaaaaaaaaaaaaaaaaaaaaaaaaaaaaaaaaaaaaaaaaaaaaaaa",
"aaaaaaaaaaaaaaaaaaaaaaaaaaaaaaaaaaaaaaaaaaaaaaaaaaaaaaaaaaaaaaaaaaaaaaaaaaaaaaaaaaaaaaaaaaaaaaaaaaaaaaaaaaaaaaaaaaaaaaaaaaaaaaaa",
"aaaaaaaaaaaaaaaaaaaaaaaaaaaaaaaaaaaaaaaaaaaaaaaaaaaaaaaaaaaaaaaaaaaaaaaaaaaaaaaaaaaaaaaaaaaaaaaaaaaaaaaaaaaaaaaaaaaaaaaaaaaaaaaa"
};
