/* XPM */
static char *uextras[] = {
/* columns rows colors chars-per-pixel */
"128 128 52 1 ",
"  c #000100010001",
". c #2CEF2CEF2CEF",
"X c #3B713B713B71",
"o c #548554855485",
"O c #6BEB6BEB6BEB",
"+ c #734A734A734A",
"@ c #8A2A8A2A8A2A",
"# c #9C719C719C71",
"$ c #A921A921A921",
"% c #B60BB60BB60B",
"& c #BBE3BEAABBE3",
"* c #C2A7C2A7C2A7",
"= c #CB29CB29CB29",
"- c #D099CF8DCF8D",
"; c #D39FD39FD39F",
": c #D849D679D849",
"> c #D763D763D849",
", c #DC82DBB2DBB2",
"< c #E10CE1C0E10C",
"1 c #E46CE46CE3C6",
"2 c #E6E1E6E1E6E1",
"3 c #E809E924E809",
"4 c #EB37EB37EB37",
"5 c #ECFBECCBED1E",
"6 c #EEDDEEDDEEDD",
"7 c #F013F013F076",
"8 c #F076F013F076",
"9 c #F013F076F076",
"0 c #F193F193F193",
"q c #F324F326F311",
"w c #F47FF47FF47F",
"e c #F59EF558F558",
"r c #F558F59EF558",
"t c #F59EF59EF558",
"y c #F558F558F59E",
"u c #F59EF558F59E",
"i c #F558F59EF59E",
"p c #F6A4F6A4F6A4",
"a c #F794F794F75A",
"s c #F83AF83AF83A",
"d c #F910F911F932",
"f c #F9EEF9EEF9EE",
"g c #FA94FA6CFA6C",
"h c #FA6CFA94FA6C",
"j c #FA94FA94FA6C",
"k c #FA94FA6CFA94",
"l c #FB2CFB2CFB2C",
"z c #FBB7FB73FB73",
"x c #FC1BFC03FC1D",
"c c #FD06FD05FD05",
"v c #FE02FE03FE03",
"b c None",
/* pixels */
"bbbbbbbbbbbbbbbbbbbbbbbbbbbbbbbbbbbbbbbbbbbbbbbbbbbbbbbbbbbbbbbbbbbbbbbbbbbbbbbbbbbbbbbbbbbbbbbbbbbbbbbbbbbbbbbbbbbbbbbbbbbbbbbb",
"bbbbbbbbbbbbbbbbbbbbbbbbbbbbbbbbbbbbbbbbbbbbbbbbbbbbbbbbbbbbbbbbbbbbbbbbbbbbbbbbbbbbbbbbbbbbbbbbbbbbbbbbbbbbbbbbbbbbbbbbbbbbbbbb",
"bbbbbbbbbbbbbbbbbbbbbbbbbbbbbbbbbbbbbbbbbbbbbbbbbbbbbbbbbbbbbbbbbbbbbbbbbbbbbbbbbbbbbbbbbbbbbbbbbbbbbbbbbbbbbbbbbbbbbbbbbbbbbbbb",
"bbbbbbbbbbbbbbbbbbbbbbbbbbbbbbbbbbbbbbbbbbbbbbbbbbbbbbbbbbbbbbbbbbbbbbbbbbbbbbbbbbbbbbbbbbbbbbbbbbbbbbbbbbbbbbbbbbbbbbbbbbbbbbbb",
"bbbbbbbbbbbbbbbbbbbbbbbbbbbbbbbbbbbbbbbbbbbbbbbbbbbbbbbbbbbbbbbbbbbbbbbbbbbbbbbbbbbbbbbbbbbbbbbbbbbbbbbbbbbbbbbbbbbbbbbbbbbbbbbb",
"bbbbbbbbbbbbbbbbbbbbbbbbbbbbbbbbbbbbbbbbbbbbbbbbbbbbbbbbbbbbbbbbbbbbbbbbbbbbbbbbbbbbbbbbbbbbbbbbbbbbbbbbbbbbbbbbbbbbbbbbbbbbbbbb",
"bbbbbbbbbbbbbbbbbbbbbbbbbbbbbbbbbbbbbbbbbbbbbbbbbbbbbbbbbbbbbbbbbbbbbbbbbbbbbbbbbbbbbbbbbbbbbbbbbbbbbbbbbbbbbbbbbbbbbbbbbbbbbbbb",
"bbbbbbbbbbbbbbbbbbbbbbbbbbbbbbbbbbbbbbbbbbbbbbbbbbbbbbbbbbbbbbbbbbbbbbbbbbbbbbbbbbbbbbbbbbbbbbbbbbbbbbbbbbbbbbbbbbbbbbbbbbbbbbbb",
"bbbbbbbbbbbbbbbbbbbbbbbbbbbbbbbbbbbbbbbbbbbbbbbbbbbbbbbbbbbbbbbbbbbbbbbbbbbbbbbbbbbbbbbbbbbbbbbbbbbbbbbbbbbbbbbbbbbbbbbbbbbbbbbb",
"bbbbbbbbbbbbbbbbbbbbbbbbbbbbbbbbbbbbbbbbbbbbbbbbbbbbbbbbbbbbbbbbbbbbbbbbbbbbbbbbbbbbbbbbbbbbbbbbbbbbbbbbbbbbbbbbbbbbbbbbbbbbbbbb",
"bbbbbbbbbbbbbbbbbbbbbbbbbbbbbbbbbbbbbbbbbbbbbbbbbbbbbbbbbbbbbbbbbbbbbbbbbbbbbbbbbbbbbbbbbbbbbbbbbbbbbbbbbbbbbbbbbbbbbbbbbbbbbbbb",
"bbbbbbbbbbbbbbbbbbbbbbbbbbbbbbbbbbbbbbbbbbbbbbbbbbbbbbbbbbbbbbbbbbbbbbbbbbbbbbbbbbbbbbbbbbbbbbbbbbbbbbbbbbbbbbbbbbbbbbbbbbbbbbbb",
"bbbbbbbbbbbbbbbbbbbbbbbbbbbbbbbbbbbbbbbbbbbbbbbbbbbbbbbbbbbbbbbbbbbbbbbbbbbbbbbbbbbbbbbbbbbbbbbbbbbbbbbbbbbbbbbbbbbbbbbbbbbbbbbb",
"bbbbbbbbbbbbbbbbbbbbbbbbbbbbbbbbbbbbbbbbbbbbbbbbbbbbbbbbbbbbbbbbbbbbbbbbbbbbbbbbbbbbbbbbbbbbbbbbbbbbbbbbbbbbbbbbbbbbbbbbbbbbbbbb",
"bbbbbbbbbbbbbbbbbbbbbbbbvvvvvvvvvvvvvvvvbbbbbbbbbbbbbbbbbbbbbbbbbbbbbbbbbbbbbbbbbvvvvvvvvvvvvvvvvbbbbbbbbbbbbbbbbbbbbbbbbbbbbbbb",
"bbbbbbbbbbbbbbbbbbbbbbbbvvvvvvvvvvvvvvvvbbbbbbbbbbbbbbbbbbbbbbbbbbbbbbbbbbbbbbbbbvvvvvvvvvvvvvvvvbbbbbbbbbbbbbbbbbbbbbbbbbbbbbbb",
"bbbbbbbbbbbbbbbbbbbbbbbbvvvvvvvvvvvvvvvvbbbbbbbbbbbbbbbbbbbbbbbbbbbbbbbbbbbbbbbbbvvvvvvvvvvvvvvvvbbbbbbbbbbbbbbbbbbbbbbbbbbbbbbb",
"bbbbbbbbbbbbbbbbbbbbbbbbvvvvvvvvvvvvvvvvbbbbbbbbbbbbbbbbbbbbbbbbbbbbbbbbbbbbbbbbbvvvvvvvvvvvvvvvvbbbbbbbbbbbbbbbbbbbbbbbbbbbbbbb",
"bbbbbbbbbbbbbbbbbbbbbbbbvvvvvvvvvvvvvvvvbbbbbbbbbbbbbbbbbbbbbbbbbbbbbbbbbbbbbbbbbvvvvvvvvvvvvvvvvbbbbbbbbbbbbbbbbbbbbbbbbbbbbbbb",
"bbbbbbbbbbbbbbbbbbbbbbbbvvvvvvvvvvvvvvvvbbbbbbbbbbbbbbbbbbbbbbbbbbbbbbbbbbbbbbbbbvvvvvvvvvvvvvvvvbbbbbbbbbbbbbbbbbbbbbbbbbbbbbbb",
"bbbbbbbbbbbbbbbbbbbbbbbbvvvvvvvvvcvvvvvvbbbbbbbbbbbbbbbbbbbbbbbbbbbbbbbbbbbbbbbbbvvvvvvvvvvvvvvvvbbbbbbbbbbbbbbbbbbbbbbbbbbbbbbb",
"bbbbbbbbbbbbbbbbbbbbbbbbvvvvvvvvvvvvcvvcbbbbbbbbbbbbbbbbbbbbbbbbbbbbbbbbbbbbbbbbbvvvvvvvvvxvvvvvvbbbbbbbbbbbbbbbbbbbbbbbbbbbbbbb",
"bbbbbbbbbbbbbbbbbbbbbbbbvvvvvvvvvvvvvvvvbbbbbbbbbbbbbbbbbbbbbbbbbbbbbbbbbbbbbbbbbvvvvvvvvvvvcvcvvbbbbbbbbbbbbbbbbbbbbbbbbbbbbbbb",
"bbbbbbbbbbbbbbbbbbbbbbbbvvvvvvvvvcvcvvvvbbbbbbbbbbbbbbbbbbbbbbbbbbbbbbbbbbbbbbbbbvvvvvvvcvvcvvvvvbbbbbbbbbbbbbbbbbbbbbbbbbbbbbbb",
"bbbbbbbbbbbbbbbbbbbbbbbbvvvvvxvvccvvcvvcbbbbbbbbbbbbbbbbbbbbbbbbbbbbbbbbbbbbbbbbbvvvvvvxvvxvvvvvvbbbbbbbbbbbbbbbbbbbbbbbbbbbbbbb",
"bbbbbbbbbbbbbbbbbbbbbbbbvvvvvvvxvvvvvcvcbbbbbbbbbbbbbbbbbbbbbbbbbbbbbbbbbbbbbbbbbvvvvvvvvvcvvvxvvbbbbbbbbbbbbbbbbbbbbbbbbbbbbbbb",
"bbbbbbbbbbbbbbbbbbbbbbbbxvxxvvvvvcvvxvxvbbbbbbbbbbbbbbbbbbbbbbbbbbbbbbbbbbbbbbbbbvvxxvvxxvvvvxvvvbbbbbbbbbbbbbbbbbbbbbbbbbbbbbbb",
"bbbbbbbbbbbbbbbbbbbbbbbbvvvvxcvxvvcxvvvvbbbbbbbbbbbbbbbbbbbbbbbbbbbbbbbbbbbbbbbbbvvxvxvvcvvxvcccvbbbbbbbbbbbbbbbbbbbbbbbbbbbbbbb",
"bbbbbbbbbbbbbbbbbbbbbbbbxcvxvcvxvcvvvvvvbbbbbbbbbbbbbbbbbbbbbbbbbbbbbbbbbbbbbbbbbvvxvvvvvcvcvxvvvbbbbbbbbbbbbbbbbbbbbbbbbbbbbbbb",
"bbbbbbbbbbbbbbbbbbbbbbbbvvcvcvxvxvccvvvvbbbbbbbbbbbbbbbbbbbbbbbbbbbbbbbbbbbbbbbbbxvxvxxvxvcxxvxvvbbbbbbbbbbbbbbbbbbbbbbbbbbbbbbb",
"bbbbbbbbbbbbbbbbbbbbbbbbccxvxvvvvxxvxvvvbbbbbbbbbbbbbbbbbbbbbbbbbbbbbbbbbbbbbbbbbxvvxvxvxxvvvvxxvbbbbbbbbbbbbbbbbbbbbbbbbbbbbbbb",
"bbbbbbbbbbbbbbbbbbbbbbbbvcccvccxvxvxvxvvbbbbbbbbbbbbbbbbbbbbbbbbbbbbbbbbbbbbbbbbbvvxccvxvvxvxvcvvbbbbbbbbbbbbbbbbbbbbbbbbbbbbbbb",
"bbbbbbbbbbbbbbbbbbbbbbbbvxvxxcccxvxvccccbbbbbbbbbbbbbbbbbbbbbbbbbbbbbbbbbbbbbbbbbcccccccxcccccccxbbbbbbbbbbbbbbbbbbbbbbbbbbbbbbb",
"bbbbbbbbbbbbbbbbbbbbbbbbxvxvvxccvxcxcxccbbbbbbbbbbbbbbbbbbbbbbbbbbbbbbbbbbbbbbbbbccccxccccccccccvbbbbbbbbbbbbbbbbbbbbbbbbbbbbbbb",
"bbbbbbbbbbbbbbbbbbbbbbbbxcvxxvxvvxccxvccbbbbbbbbbbbbbbbbbbbbbbbbbbbbbbbbbbbbbbbbbvcccxcccccccccxxbbbbbbbbbbbbbbbbbbbbbbbbbbbbbbb",
"bbbbbbbbbbbbbbbbbbbbbbbbvxxvxvxxxxvxxvxcbbbbbbbbbbbbbbbbbbbbbbbbbbbbbbbbbbbbbbbbbxcxcccccxxccxccvbbbbbbbbbbbbbbbbbbbbbbbbbbbbbbb",
"bbbbbbbbbbbbbbbbbbbbbbbbxxxxvxvxxvvxxxxxbbbbbbbbbbbbbbbbbbbbbbbbbbbbbbbbbbbbbbbbbxxxccccxcxvxcxcvbbbbbbbbbbbbbbbbbbbbbbbbbbbbbbb",
"bbbbbbbbbbbbbbbbbbbbbbbbvxxxxcxxxxvxxvvxbbbbbbbbbbbbbbbbbbbbbbbbbbbbbbbbbbbbbbbbbvxvxcxxcxxxcccxxbbbbbbbbbbbbbbbbbbbbbbbbbbbbbbb",
"bbbbbbbbbbbbbbbbbbbbbbbbxxcvvxxxxvxxxvxxbbbbbbbbbbbbbbbbbbbbbbbbbbbbbbbbbbbbbbbbbvxxcxcccxcxcxxxxbbbbbbbbbbbbbbbbbbbbbbbbbbbbbbb",
"bbbbbbbbbbbbbbbbbbbbbbbbxcxxxxxvxxxxxxxxbbbbbbbbbbbbbbbbbbbbbbbbbbbbbbbbbbbbbbbbbxxxxxxxxcxxxxcxxbbbbbbbbbbbbbbbbbbbbbbbbbbbbbbb",
"bbbbbbbbbbbbbbbbbbbbbbbbxxxxxxxxxxxxxxxxbbbbbbbbbbbbbbbbbbbbbbbbbbbbbbbbbbbbbbbbbxxxxxxxxxxxxxxxxbbbbbbbbbbbbbbbbbbbbbbbbbbbbbbb",
"bbbbbbbbbbbbbbbbbbbbbbbbxxxxxxxxxxxxxxxxbbbbbbbbbbbvvvvvvvvvvvbbbbbbbbbbbbbbbbbbbxxxxxxxxxxxxxxxxbbbbbbbbbbbbbbbbbbbbbbbbbbbbbbb",
"bbbbbbbbbbbbbbbbbbbbbbbbxxxxxxxxxxxxxxxxbbbbbbbbbbvvvvvvvvvvvvvvvbbbbbbbbbbbbbbbbxxvxcxxxxxxxxxxxbbbbbbbbbbbbbbbbbbbbbbbbbbbbbbb",
"bbbbbbbbbbbbbbbbbbbbbbbbxxxxxxxxxxxxxxxxbbbbbbbbbbvvvvvvvvvvvvvvvvvbbbbbbbbbbbbbbxxxxxxxxxxxxxxxxbbbbbbbbbbbbbbbbbbbbbbbbbbbbbbb",
"bbbbbbbbbbbbbbbbbbbbbbbbxxxxxxxxxxxxxxxxbbbbbbbbbbb3vvvvvvvvvvvvvvvvvbbbbbbbbbbbbxxxxxxxxxxxxxxxxbbbbbbbbbbbbbbbbbbbbbbbbbbbbbbb",
"bbbbbbbbbbbbbbbbbbbbbbbbxxxxsxxxxxxxxxxxbbbbbbbbbbb bvvvvvvvvvvvvvvvvvbbbbbbbbbbbxxxxxxxxxxxxxxxxbbbbbbbbbbbbbbbbbbbbbbbbbbbbbbb",
"bbbbbbbbbbbbbbbbbbbbbbbbxhxxxxxxxxxxxxxxbbbbbbbbbbbb  ,vvvvvvvvvvvvvvvvbbbbbbbbbbxxxxxxxxxxxxsxxxbbbbbbbbbbbbbbbbbbbbbbbbbbbbbbb",
"bbbbbbbbbbbbbbbbbbbbbbbbxxxxxxhxxxxsxxxxbbbbbbbbbbbbbb.bxvvvvvcvvvvvvvvvbbbbbbbbbxxxsxxxsxxxxxxxxbbbbbbbbbbbbbbbbbbbbbbbbbbbbbbb",
"bbbbbbbbbbbbbbbbbbbbbbbbxxxxxxxhxxxsxxxxbbbbbbbbbbbbbbbb =vvvvvvvvvvvvvvbbbbbbbbbxxxxxxsxxsxsxxsxbbbbbbbbbbbbbbbbbbbbbbbbbbbbbbb",
"bbbbbbbbbbbbbbbbbbbbbbbbsxxssxxxxsxxxxxsbbbbbbbbbbbbbbbbb b<vvvvvvvvcvvvbbbbbbbbbxxxxsxxxxxxxxxxxbbbbbbbbbbbbbbbbbbbbbbbbbbbbbbb",
"bbbbbbbbbbbbbbbbbbbbbbbbxxxxxhxxxxxxhxxxbbbbbbbbbbbbbbbbbbb ,vvvvvvvvvvxxbbbbbbbbxxxxxxxxsxdsxsxxbbbbbbbbbbbbbbbbbbbbbbbbbbbbbbb",
"bbbbbbbbbbbbbbbbbbbbbbbbxsxsxxsxxsxsxxxsbbbbbbbbbbbbbbbbbbbb#vvvvvvvvvvvvbbbbbbbbxsxxdxsxxxxxxxxxbbbbbbbbbbbbbbbbbbbbbbbbbbbbbbb",
"bbbbbbbbbbbbbbbbbbbbbbbbxxsxxxxxhxxxsxhsbbbbvxbbbbbbbbbbbbbbbvvvvvvvxvvvvbbbbbbbbxxsxsxsxsxxsxxxxbbbbbbbbbbbbbbbbbbbbbbbbbbbbbbb",
"bbbbbbbbbbbbbbbbbbbbbbbbsxxxsxsxhhhsxxxxbbbbvvvvbbbbbbbbbbbbbxxvxvvvxvxvvbbbbbbbbxxxxxxxxxxssxsxxbbbbbbbbbbbbbbbbbbbbbbbbbbbbbbb",
"bbbbbbbbbbbbbbbbbbbbbbbbxxxxxxxsxsxxxssxbbbbxvvxvbbbbbbbbbbbsvvcvxvxvvxvxbbbbbbbbxxssxsxsxxxxxsxxbbbbbbbbbbbbbbbbbbbbbbbbbbbbbbb",
"bbbbbbbbbbbbbbbbbbbbbbbbsxssxsxshxsxhxxsbbbbvxvxvvvbbbbbbbbbxvxvxvxvxvxvvbbbbbbbbxsxxsxsxssxsxxsxbbbbbbbbbbbbbbbbbbbbbbbbbbbbbbb",
"bbbbbbbbbbbbbbbbbbbbbbbbxsxssxsxhhhsxsxxbbbbwvxvxxvxxbbbbbbxcxvxvxxvxvxvxbbbbbbbbxxsxsxxxsxsxsxsxbbbbbbbbbbbbbbbbbbbbbbbbbbbbbbb",
"bbbbbbbbbbbbbbbbbbbbbbbbxxsxxsxshhxhshhsbbbbbvcxxvxvxcbbbbbxccxvxxvxvxcvbbbbbbbbbxsxsxsxxsxxsxsxxbbbbbbbbbbbbbbbbbbbbbbbbbbbbbbb",
"bbbbbbbbbbbbbbbbbbbbbbbbxsxssxsxhxshsxsxbbbbbcvxccccxcxvxxvxxcxvvxxvxxxxbbbbbbbbbxsxxsxssxxsxsxsxbbbbbbbbbbbbbbbbbbbbbbbbbbbbbbb",
"bbbbbbbbbbbbbbbbbbbbbbbbsxsxxsxssshhxsxsbbbbbbxvxxcxvxxxvvxxxvxxxxxxvcxvbbbbbbbbbsxssxsxsssxsxsxsbbbbbbbbbbbbbbbbbbbbbbbbbbbbbbb",
"bbbbbbbbbbbbbbbbbbbbbbbbxsssxssxxssxsxsxbbbbbb<xxcvxxxxxxxvxxvxvcvxxxxxxbbbbbbbbbxsxsxxsxsxsssxsxbbbbbbbbbbbbbbbbbbbbbbbbbbbbbbb",
"bbbbbbbbbbbbbbbbbbbbbbbbsxxssxxshhxshshsbbbbbbbxxxxxxvvxxxxxxxxxxxxxxxxsbbbbbbbbbxxsxssxsxxsxssxxbbbbbbbbbbbbbbbbbbbbbbbbbbbbbbb",
"bbbbbbbbbbbbbbbbbbbbbbbbsssxsxsxsxsxssxxbbbbbbbbxxxxxxxxxxxxxxxxxxxxxxxsbbbbbbbbbxsxssxssssxsxsxsbbbbbbbbbbbbbbbbbbbbbbbbbbbbbbb",
"bbbbbbbbbbbbbbbbbbbbbbbbsxxsxssshssssxssbbbbbbbbb2xxxxxxxxxxxxxxxxxxxxxxbbbbbbbbbsssxsssxxssxsssxbbbbbbbbbbbbbbbbbbbbbbbbbbbbbbb",
"bbbbbbbbbbbbbbbbbbbbbbbbpxpxxpsssssxsxsxbbbbbbbbb ;xxxxxxxxxxxxxxxxxxxxxbbbbbbbbbxsxxssssdxsxssssbbbbbbbbbbbbbbbbbbbbbbbbbbbbbbb",
"bbbbbbbbbbbbbbbbbbbbbbbbxpspssxsssxsssssbbbbbbbbbb bxxxxxxxxxxsxxxxxxxxxbbbbbbbbbsspssxspxssssxsxbbbbbbbbbbbbbbbbbbbbbbbbbbbbbbb",
"bbbbbbbbbbbbbbbbbbbbbbbbpxsxpxxssxsssxssbbbbbbbbbbb b;xxsxxxxxxxxxxxxxxxbbbbbbbbbxxppxssssxsxssssbbbbbbbbbbbbbbbbbbbbbbbbbbbbbbb",
"bbbbbbbbbbbbbbbbbbbbbbbbspspxpsssssssssxbbbbbbbbbbbbb b6xxxxsxxxsxxxxsxxxbbbbbbbbssspxsssssssssssbbbbbbbbbbbbbbbbbbbbbbbbbbbbbbb",
"bbbbbbbbbbbbbbbbbbbbbbbbsxspssssssssssssbbbbbbbbbbbbbbb *xxxsxxxxxxxxxxsxxbbbbbbbxssssssssssxssssbbbbbbbbbbbbbbbbbbbbbbbbbbbbbbb",
"bbbbbbbbbbbbbbbbbbbbbbbbssspssssssssssssbbbbbbbbbbbbbbbb b;xxxxssxsxxsxxxxxbbbbbbssssssssssssssssbbbbbbbbbbbbbbbbbbbbbbbbbbbbbbb",
"bbbbbbbbbbbbbbbbbbbbbbbbpxssssssssssssssbbbbbbbbbbbbbbbbbb bsxxxxsxxsxsxsxxbbbbbbxsssssssssssssssbbbbbbbbbbbbbbbbbbbbbbbbbbbbbbb",
"bbbbbbbbbbbbbbbbbbbbbbbbppsssssrsssssssxbbbbbbbbbbbbbbbbbbb b=sxxxsxxxxsxsxxbbbbbssssssssssssssssbbbbbbbbbbbbbbbbbbbbbbbbbbbbbbb",
"bbbbbbbbbbbbbbbbbbbbbbbbssssswssssssssssbbbbbbbbbbbbbbbbbbbbb b6sxxsxxsxxsxssbbbbxsssrsssssssssssbbbbbbbbbbbbbbbbbbbbbbbbbbbbbbb",
"bbbbbbbbbbbbbbbbbbbbbbbbsssssssssssrrsrsbbbbbbbbbbbbbbbbbbbbbbb %sxxssxssxxsxsbbbssssssssssqsssssbbbbbbbbbbbbbbbbbbbbbbbbbbbbbbb",
"bbbbbbbbbbbbbbbbbbbbbbbbswwss0sssssssrssbbbbbbbbbbbbbbbbbbbbbbbb &xssxsxxxxxsxsbbswsrssswsssqssssbbbbbbbbbbbbbbbbbbbbbbbbbbbbbbb",
"bbbbbbbbbbbbbbbbbbbbbbbbsssssssssrrsrssrbbbbbbbbbbbbbbbbbbbbbbbbb ;sxsxsssssxsx66wsssrsrssssssxpsbbbbbbbbbbbbbbbbbbbbbbbbbbbbbbb",
"bbbbbbbbbbbbbbbbbbbbbbbbsssssswsssssssrs0bbbbbbbbbbbbbbbbbbbbbbbbb 6xsxxsxsxssxsswsswsrs0ssrppppsbbbbbbbbbbbbbbbbbbbbbbbbbbbbbbb",
"bbbbbbbbbbbbbbbbbbbbbbbbwswsqsssrrrssrsr0bbbbbbbbbbbbbbbbbbbbbbbbbbbssssxssssxsssswssssrssrsppppsbbbbbbbbbbbbbbbbbbbbbbbbbbbbbbb",
"bbbbbbbbbbbbbbbbbbbbbbbbwsssswsqsrrrrsrs0bbbbbbbbbbbbbbbbbbbbbbbbbbbbxsxssxsxssxsssswssswsrsqpsssbbbbbbbbbbbbbbbbbbbbbbbbbbbbbbb",
"bbbbbbbbbbbbbbbbbbbbbbbbssqqssqsrssrsrsrsbbbbbbbbbbbbbbbbbbbbbbbbbbbb*ssssssssssssswwrwrsrsrssqwsbbbbbbbbbbbbbbbbbbbbbbbbbbbbbbb",
"bbbbbbbbbbbbbbbbbbbbbbb#sqsssqssssrrpppppbbbbbbbbbbbbbbbbbbbbbbbbbbbb :sssssxsssssss0ss0ppppppsssbbbbbbbbbbbbbbbbbbbbbbbbbbbbbbb",
"bbbbbbbbbbbbbbbbbbbbbbbbsswqssqswrwspwwppbbbbbbbbbbbbbbbbbbbbbbbbbbbbbbssssssssssssss0ssppqpppppsbbbbbbbbbbbbbbbbbbbbbbbbbbbbbbb",
"bbbbbbbbbbbbbbbbbbbbbbbbqsswqqqqswwspspws0bbbbbbbbbbbbbbbbbbbbbbbbbbbbbbssssssssssssss0spppqspqp0bbbbbbbbbbbbbbbbbbbbbbbbbbbbbbb",
"bbbbbbbbbbbbbbbbbbbbbbbb6qsqsspswswwwwswqqbbbbbbbbbbbbbbbbbbbbbbbbbbbbbb%ssssssssssssss0qqsqqppw0bbbbbbbbbbbbbbbbbbbbbbbbbbbbbbb",
"bbbbbbbbbbbbbbbbbbbbbbbb4qsqs0pswwswwwsw0sbbbbbbbbbbbbbbbbbbbbbbbbbbbbbb =ssssssssssssr0qqpsqssq6bbbbbbbbbbbbbbbbbbbbbbbbbbbbbbb",
"bbbbbbbbbbbbbbbbbbbbbbbb=wqsqsqqsw0wwwww0sbbbbbbbbbbbbbbbbbbbbbbbbbbbbbbb 2srsrsrsrsrssssqqsqqqsbbbbbbbbbbbbbbbbbbbbbbbbbbbbbbbb",
"bbbbbbbbbbbbbbbbbbbbbbbb@wsww0wswwssswwwsq0bbbbbbbbbbbbbbbbbbbbbbbbbbbbbbbbrssswrssrrssspqqqsqwwbbbbbbbbbbbbbbbbbbbbbbbbbbbbbbbb",
"bbbbbbbbbbbbbbbbbbbbbbbbbw0wwss0ww0wwwww0ssbbbbbbbbbbbbbbbbbbbbbbbbbbbbbbbb#0rssrswssrsrqssqsqwqbbbbbbbbbbbbbbbbbbbbbbbbbbbbbbbb",
"bbbbbbbbbbbbbbbbbbbbbbbbb3wwwwwwwws00s0sqs00bbbbbbbbbbbbbbbbbbbbbbbbbbbbbbb %ws0ssrwpppqppwqqww6bbbbbbbbbbbbbbbbbbbbbbbbbbbbbbbb",
"bbbbbbbbbbbbbbbbbbbbbbbbb=wwwwwwww0ss0r0s0s0bbbbbbbbbbbbbbbbbbbbbbbbbbbbbbbbo1ss0sssppssqppwqwwbbbbbbbbbbbbbbbbbbbbbbbbbbbbbbbbb",
"bbbbbbbbbbbbbbbbbbbbbbbbbbq0qwqww0w0000s0sqs0bbbbbbbbbbbbbbbbbbbbbbbbbbbbbbb%;0ssw0spwqspppw000bbbbbbbbbbbbbbbbbbbbbbbbbbbbbbbbb",
"bbbbbbbbbbbbbbbbbbbbbbbbbb3qwqwqs0w0s00s000qs8bbbbbbbbbbbbbbbbbbbbbbbbbbbbb::*<w0swwqswsqpwps03bbbbbbbbbbbbbbbbbbbbbbbbbbbbbbbbb",
"bbbbbbbbbbbbbbbbbbbbbbbbbb%qqwqw0qqqqw0000wq0s0bbbbbbbbbbbbbbbbbbbbbbbbbbb662;%<swswwwwqwwpwsq<bbbbbbbbbbbbbbbbbbbbbbbbbbbbbbbbb",
"bbbbbbbbbbbbbbbbbbbbbbbbbb 3qqqq0qqqqqs0ss0q0000bbbbbbbbbbbbbbbbbbbbbbbbb0w06<=%,w0wwwqsswwwwq7bbbbbbbbbbbbbbbbbbbbbbbbbbbbbbbbb",
"bbbbbbbbbbbbbbbbbbbbbbbbbbb%80qq0qqq0qs000q0qq0q00bbbbbbbbbbbbbbbbbbbbb00s9006<*$4sswwwwqwwwwww7bbbbbbbbbbbbbbbbbbbbbbbbbbbbbbbb",
"bbbbbbbbbbbbbbbbbbbbbbbbbbb 3q0qqqq0000000qq0q0q0s000bbbbbbbbbbbbbbb00000000062,*,60qwwqqqwwwwqw0bbbbbbbbbbbbbbbbbbbbbbbbbbbbbbb",
"bbbbbbbbbbbbbbbbbbbbbbbbbbbbb000000000r000r00000000s90000bbbbbbb80000w0000000062,%,0rrs0r00w0r0000bbbbbbbbbbbbbbbbbbbbbbbbbbbbbb",
"bbbbbbbbbbbbbbbbbbbbbbbbbbbb =q0000000000000000000000000000000000000000000000084<-%,000r0rr000s000bbbbbbbbbbbbbbbbbbbbbbbbbbbbbb",
"bbbbbbbbbbbbbbbbbbbbbbbbbbbbb ;00000000000000000000000000000000000000000000000084<=$<0000w0rr00ss00bbbbbbbbbbbbbbbbbbbbbbbbbbbbb",
"bbbbbbbbbbbbbbbbbbbbbbbbbbbbb O090000000000000000000000000900000000000000008000863,*;000000w00000000bbbbbbbbbbbbbbbbbbbbbbbbbbbb",
"bbbbbbbbbbbbbbbbbbbbbbbbbbbbbb $090090990090600007900007880080880098888009000088862;%,000000000000000bbbbbbbbbbbbbbbbbbbbbbbbbbb",
"bbbbbbbbbbbbbbbbbbbbbbbbbbbbbbb $69890900600086080900070998080878990880800069090966<=%:000000000000000bbbbbbbbbbbbbbbbbbbbbbbbbb",
"bbbbbbbbbbbbbbbbbbbbbbbbbbbbbbb  $89990006066000880760608999097799999997880899988663,=#*600000090000000bbbbbbbbbbbbbbbbbbbbbbbbb",
"bbbbbbbbbbbbbbbbbbbbbbbbbbbbbbbb  $68867606086666866060699999977999999876888688986662;o =60009996060660bbbbbbbbbbbbbbbbbbbbbbbbb",
"bbbbbbbbbbbbbbbbbbbbbbbbbbbbbbbbb  o*00676666996896966076796979668686996776786996766*X  X266769670600676bbbbbbbbbbbbbbbbbbbbbbbb",
"bbbbbbbbbbbbbbbbbbbbbbbbbbbbbbbbbb   %666766666666666666666666666666666666666666666* bb  @666776666666676bbbbbbbbbbbbbbbbbbbbbbb",
"bbbbbbbbbbbbbbbbbbbbbbbbbbbbbbbbbbb   o*66666666666666666666666666666666666666666=o bbbbb $666666666666666bbbbbbbbbbbbbbbbbbbbbb",
"bbbbbbbbbbbbbbbbbbbbbbbbbbbbbbbbbbbbb   b,6666666666665666665666666666665666666,b bbbbbbbb -666666666666666bbbbbbbbbbbbbbbbbbbbb",
"bbbbbbbbbbbbbbbbbbbbbbbbbbbbbbbbbbbbbb    o%,66666666566566656566666666666646%O  bbbbbbbbbbb554664565545465bbbbbbbbbbbbbbbbbbbbb",
"bbbbbbbbbbbbbbbbbbbbbbbbbbbbbbbbbbbbbbbb     o%,5466566565655666464666646,%ob  bbbbbbbbbbbbbb46465555;-65546bbbbbbbbbbbbbbbbbbbb",
"bbbbbbbbbbbbbbbbbbbbbbbbbbbbbbbbbbbbbbbbbb      .+$;,,6464645555556,,:$O.    bbbbbbbbbbbbbbbb#555644$  b4464bbbbbbbbbbbbbbbbbbbb",
"bbbbbbbbbbbbbbbbbbbbbbbbbbbbbbbbbbbbbbbbbbbbb         .............        bbbbbbbbbbbbbbbbbb %66464bbb b644bbbbbbbbbbbbbbbbbbbb",
"bbbbbbbbbbbbbbbbbbbbbbbbbbbbbbbbbbbbbbbbbbbbbbbb                       bbbbbbbbbbbbbbbbbbbbbbbb,4644bbbbb444bbbbbbbbbbbbbbbbbbbb",
"bbbbbbbbbbbbbbbbbbbbbbbbbbbbbbbbbbbbbbbbbbbbbbbbbbbbbbb         bbbbbbbbbbbbbbbbbbbbbbbbbbbbbbbb2444;bbb4444bbbbbbbbbbbbbbbbbbbb",
"bbbbbbbbbbbbbbbbbbbbbbbbbbbbbbbbbbbbbbbbbbbbbbbbbbbbbbbbbbbbbbbbbbbbbbbbbbbbbbbbbbbbbbbbbbbbbbbbb4444324434bbbbbbbbbbbbbbbbbbbbb",
"bbbbbbbbbbbbbbbbbbbbbbbbbbbbbbbbbbbbbbbbbbbbbbbbbbbbbbbbbbbbbbbbbbbbbbbbbbbbbbbbbbbbbbbbbbbbbbbbb#32444433bbbbbbbbbbbbbbbbbbbbbb",
"bbbbbbbbbbbbbbbbbbbbbbbbbbbbbbbbbbbbbbbbbbbbbbbbbbbbbbbbbbbbbbbbbbbbbbbbbbbbbbbbbbbbbbbbbbbbbbbbb b;2422-bbbbbbbbbbbbbbbbbbbbbbb",
"bbbbbbbbbbbbbbbbbbbbbbbbbbbbbbbbbbbbbbbbbbbbbbbbbbbbbbbbbbbbbbbbbbbbbbbbbbbbbbbbbbbbbbbbbbbbbbbbbbb X++bbbbbbbbbbbbbbbbbbbbbbbbb",
"bbbbbbbbbbbbbbbbbbbbbbbbbbbbbbbbbbbbbbbbbbbbbbbbbbbbbbbbbbbbbbbbbbbbbbbbbbbbbbbbbbbbbbbbbbbbbbbbbbbbbbbbbbbbbbbbbbbbbbbbbbbbbbbb",
"bbbbbbbbbbbbbbbbbbbbbbbbbbbbbbbbbbbbbbbbbbbbbbbbbbbbbbbbbbbbbbbbbbbbbbbbbbbbbbbbbbbbbbbbbbbbbbbbbbbbbbbbbbbbbbbbbbbbbbbbbbbbbbbb",
"bbbbbbbbbbbbbbbbbbbbbbbbbbbbbbbbbbbbbbbbbbbbbbbbbbbbbbbbbbbbbbbbbbbbbbbbbbbbbbbbbbbbbbbbbbbbbbbbbbbbbbbbbbbbbbbbbbbbbbbbbbbbbbbb",
"bbbbbbbbbbbbbbbbbbbbbbbbbbbbbbbbbbbbbbbbbbbbbbbbbbbbbbbbbbbbbbbbbbbbbbbbbbbbbbbbbbbbbbbbbbbbbbbbbbbbbbbbbbbbbbbbbbbbbbbbbbbbbbbb",
"bbbbbbbbbbbbbbbbbbbbbbbbbbbbbbbbbbbbbbbbbbbbbbbbbbbbbbbbbbbbbbbbbbbbbbbbbbbbbbbbbbbbbbbbbbbbbbbbbbbbbbbbbbbbbbbbbbbbbbbbbbbbbbbb",
"bbbbbbbbbbbbbbbbbbbbbbbbbbbbbbbbbbbbbbbbbbbbbbbbbbbbbbbbbbbbbbbbbbbbbbbbbbbbbbbbbbbbbbbbbbbbbbbbbbbbbbbbbbbbbbbbbbbbbbbbbbbbbbbb",
"bbbbbbbbbbbbbbbbbbbbbbbbbbbbbbbbbbbbbbbbbbbbbbbbbbbbbbbbbbbbbbbbbbbbbbbbbbbbbbbbbbbbbbbbbbbbbbbbbbbbbbbbbbbbbbbbbbbbbbbbbbbbbbbb",
"bbbbbbbbbbbbbbbbbbbbbbbbbbbbbbbbbbbbbbbbbbbbbbbbbbbbbbbbbbbbbbbbbbbbbbbbbbbbbbbbbbbbbbbbbbbbbbbbbbbbbbbbbbbbbbbbbbbbbbbbbbbbbbbb",
"bbbbbbbbbbbbbbbbbbbbbbbbbbbbbbbbbbbbbbbbbbbbbbbbbbbbbbbbbbbbbbbbbbbbbbbbbbbbbbbbbbbbbbbbbbbbbbbbbbbbbbbbbbbbbbbbbbbbbbbbbbbbbbbb",
"bbbbbbbbbbbbbbbbbbbbbbbbbbbbbbbbbbbbbbbbbbbbbbbbbbbbbbbbbbbbbbbbbbbbbbbbbbbbbbbbbbbbbbbbbbbbbbbbbbbbbbbbbbbbbbbbbbbbbbbbbbbbbbbb"
};
