/* XPM */
static char *varicadview[] = {
/* columns rows colors chars-per-pixel */
"128 128 53 1 ",
"  c #000100010001",
". c #122212221825",
"X c #1E211E211E21",
"o c #35AE35AE35AE",
"O c #51CF51CF51CF",
"+ c #61BF61BF61BF",
"@ c #7A6E7A6E7A6E",
"# c #8C4E8C4E8C4E",
"$ c #989298929892",
"% c #A3DBA034A3DB",
"& c #A20BA5A4A20B",
"* c #AAD6AAD6AAD6",
"= c #B78AB78AB78A",
"- c #C159C159C159",
"; c #CB29CB29CB29",
": c #D497D497D497",
"> c #DADEDADEDADE",
", c #E1C0E1C0E1C0",
"< c #E46CE46CE3C6",
"1 c #E649E649E649",
"2 c #E898E924E924",
"3 c #EBB5EBB5EBB5",
"4 c #ECDCED1EECA8",
"5 c #EEDDEEDDEEDD",
"6 c #F076F013F013",
"7 c #F013F076F013",
"8 c #F076F076F013",
"9 c #F076F013F076",
"0 c #F013F076F076",
"q c #F1EDF1EDF1ED",
"w c #F315F319F31F",
"e c #F433F433F433",
"r c #F59EF558F558",
"t c #F511F59EF511",
"y c #F59EF59EF558",
"u c #F558F558F59E",
"i c #F59EF558F59E",
"p c #F558F59EF59E",
"a c #F665F665F665",
"s c #F794F75AF75A",
"d c #F794F794F75A",
"f c #F75AF75AF794",
"g c #F794F75AF794",
"h c #F75AF794F794",
"j c #F86FF86FF86F",
"k c #F9C1F9C1F9C1",
"l c #FA94FA6CFA6C",
"z c #FA6CFA6CFA94",
"x c #FB2CFB2CFB2C",
"c c #FBE5FBEEFBEA",
"v c #FCF8FCF7FCF6",
"b c #FDE2FDE2FDE2",
"n c None",
/* pixels */
"nnnnnnnnnnnnnnnnnnnnnnnnnnnnnnnnnnnnnnnnnnnnnnnnnnnnnnnnnnnnnnnnnnnnnnnnnnnnnnnnnnnnnnnnnnnnnnnnnnnnnnnnnnnnnnnnnnnnnnnnnnnnnnnn",
"nnnnnnnnnnnnnnnnnnnnnnnnnnnnnnnnnnnnnnnnnnnnnnnnnnnnnnnnnnnnnnnnnnnnnnnnnnnnnnnnnnnnnnnnnnnnnnnnnnnnnnnnnnnnnnnnnnnnnnnnnnnnnnnn",
"nnnnnnnnnnnnnnnnnnnnnnnnnnnnnnnnnnnnnnnnnnnnnnnnnnnnnnnnnnnnnnnnnnnnnnnnnnnnnnnnnnnnnnnnnnnnnnnnnnnnnnnnnnnnnnnnnnnnnnnnnnnnnnnn",
"nnnnnnnnnnnnnnnnnnnnnnnnnnnnnnnnnnnnnnnnnnnnnnnnnnnnnnnnnnnnnnnnnnnnnnnnnnnnnnnnnnnnnnnnnnnnnnnnnnnnnnnnnnnnnnnnnnnnnnnnnnnnnnnn",
"nnnnnnnnnnnnnnnnnnnnnnnnnnnnnnnnnnnnnnnnnnnnnnnnnnnnnnnnnnnnnnnnnnnnnnnnnnnnnnnnnnnnnnnnnnnnnnnnnnnnnnnnnnnnnnnnnnnnnnnnnnnnnnnn",
"nnnnnnnnnnnnnnnnnnnnnnnnnnnnnnnnnnnnnnnnnnnnnnnnnnnnnnnnnnnnnnnnnnnnnnnnnnnnnnnnnnnnnnnnnnnnnnnnnnnnnnnnnnnnnnnnnnnnnnnnnnnnnnnn",
"nnnnnnnnnnnnnnnnnnnnnnnnnnnnnnnnnnnnnnnnnnnnnnnnnnnnnnnnnnnnnnnnnnnnnnnnnnnnnnnnnnnnnnnnnnnnnnnnnnnnnnnnnnnnnnnnnnnnnnnnnnnnnnnn",
"nnnnnnnnnnnnnnnnnnnnnnnnnnnnnnnnnnnnnnnnnnnnnnnnnnnnnnnnnnnnnnnnnnnnnnnnnnnnnnnnnnnnnnnnnnnnnnnnnnnnnnnnnnnnnnnnnnnnnnnnnnnnnnnn",
"nnnnnnnnnnnnnnnnnnnnnnnnnnnnnnnnnnnnnnnnnnnnnnnnnnnnnnnnnnnnnnnnnnnnnnnnnnnnnnnnnnnnnnnnnnnnnnnnnnnnnnnnnnnnnnnnnnnnnnnnnnnnnnnn",
"nnnnnnnnnnnnnnnnnnnnnnnnnnnnnnnnnnnnnnnnnnnnnnnnnnnnnnnnnnnnnnnnnnnnnnnnnnnnnnnnnnnnnnnnnnnnnnnnnnnnnnnnnnnnnnnnnnnnnnnnnnnnnnnn",
"nnnnnnnnnnnnnnnnnnnnnnnnnnnnnnnnnnnnnnnnnnnnnnnnnnnnnnnnnnnnnnnnnnnnnnnnnnnnnnnnnnnnnnnnnnnnnnnnnnnnnnnnnnnnnnnnnnnnnnnnnnnnnnnn",
"nnnnnnnnnnnnnnnnnnnnnnnnnnnnnnnnnnnnnnnnnnnnnnnnnnnnnnnnnnnnnnnnnnnnnnnnnnnnnnnnnnnnnnnnnnnnnnnnnnnnnnnnnnnnnnnnnnnnnnnnnnnnnnnn",
"nnnnnnnnnnnnnnnnnnnnnnnnnnnnnnnnnnnnnnnnnnnnnnnnnnnnnnnnnnnnnnvvvnnnnnnnnnnnnnnnnnnnnnnnnnnnnnnnnnnnnnnnnnnnnnnnnnnnnnnnnnnnnnnn",
"nnnnnnnnnnnnnnnnnnnnnnnnnnnnnnnnnnnnnnnnnnnnnnnnnnnnnnnnnnnnvvvvvvvnnnnnnnnnnnnnnnnnnnnnnnnnnnnnnnnnnnnnnnnnnnnnnnnnnnnnnnnnnnnn",
"nnnnnnnnnnnnnnnnnnnnnnnnnnnnnnnnnnnnnnnnnnnnnnnnnnnnnnnnnnnvvvvvvvvvvnnnnnnnnnnnnnnnnnnnnnnnnnnnnnnnnnnnnnnnnnnnnnnnnnnnnnnnnnnn",
"nnnnnnnnnnnnnnnnnnnnnnnnnnnnnnnnnnnnnnnnnnnnnnnnnnnnnnnnnnvvvvvvvvvvvvnnnnnnnnnnnnnnnnnnnnnnnnnnnnnnnnnnnnnnnnnnnnnnnnnnnnnnnnnn",
"nnnnnnnnnnnnnnnnnnnnnnnnnnnnnnnnnnnnnnnnnnnnnnnnnnnnnnnnnvvvvvvvvvvvvvvnnnnnnnnnnnnnnnnnnnnnnnnnnnnnnnnnnnnnnnnnnnnnnnnnnnnnnnnn",
"nnnnnnnnnnnnnnnnnnnnnnnnnnnnnnnnnnnnnnnnnnnnnnnnnnnnnnnnvvvvvvzhzvvvvvvvnnnnnnnnnnnnnnnnnnnnnnnnnnnnnnnnnnnnnnnnnnnnnnnnnnnnnnnn",
"nnnnnnnnnnnnnnnnnnnnnnnnnnnnnnnnnnnnnnnnnnnnnnnnnnnnnnnnvvvvv3Onn=hvvvvvvnnnnnnnnnnnnnnnnnnnnnnnnnnnnnnnnnnnnnnnnnnnnnnnnnnnnnnn",
"nnnnnnnnnnnnnnnnnnnnnnnnnnnnnnnnnnnnnnnnnnnnnnnnnnnnnnnvvvvveonnnnnzvvvvvnnnnnnnnnnnnnnnnnnnnnnnnnnnnnnnnnnnnnnnnnnnnnnnnnnnnnnn",
"nnnnnnnnnnnnnnnnnnnnnnnnnnnnnnnnnnnnnnnnnnnnnnnnnnnnnnnvvvvv:nnnnnnwvvvvvnnnnnnnnnnnnnnnnnnnnnnnnnnnnnnnnnnnnnnnnnnnnnnnnnnnnnnn",
"nnnnnnnnnnnnnnnnnnnnnnnnnnnnnnnnnnnnnnnnnnnnnnnnnnnnnnnvvvvv>nnnnnn,vvvvvnnnnnnnnnnnnnnnnnnnnnnnnnnnnnnnnnnnnnnnnnnnnnnnnnnnnnnn",
"nnnnnnnnnnnnnnnnnnnnnnnnnnnnnnnnnnnnnnnnnnnnnnnnnnnnnnnvvvvvwnnnnnnhvvvvvnnnnnnnnnnnnnnnnnnnnnnnnnnnnnnnnnnnnnnnnnnnnnnnnnnnnnnn",
"nnnnnnnnnnnnnnnnnnnnnnnnnnnnnnnnnnnnnnnnnnnnnnnnnnnnnnnvvvvvvnnnnn1vvvvvvvnnnnnnnnnnnnnnnnnnnnnnnnnnnnnnnnnnnnnnnnnnnnnnnnnnnnnn",
"nnnnnnnnnnnnnnnnnnnnnnnnnnnnnnnnnnnnnnnnnnnnnnnnnnnnnnwvvvvvvvznnjvvvvvvvvnnnnnnnnnnnnnnnnnnnnnnnnnnnnnnnnnnnnnnnnnnnnnnnnnnnnnn",
"nnnnnnnnnnnnnnnnnnnnnnnnnnnnnnnnnnnnnnnnnnnnnnnnnnnnnnzvvvvvvvvvvvvvvvvvvvnnnnnnnnnnnnnnnnnnnnnnnnnnnnnnnnnnnnnnnnnnnnnnnnnnnnnn",
"nnnnnnnnnnnnnnnnnnnnnnnnnnnnnnnnnnnnnnnnnnnnnnnnnnnnnnzvvvvvvvvvvvvvvvvvvvnnnnnnnnnnnnnnnnnnnnnnnnnnnnnnnnnnnnnnnnnnnnnnnnnnnnnn",
"nnnnnnnnnnnnnnnnnnnnnnnnnnnnnnnnnnnnnnnnnnnnnnnnnnnnnnhvvvvvvvvvvvvvvvvvvvnnnnnnnnnnnnnnnnnnnnnnnnnnnnnnnnnnnnnnnnnnnnnnnnnnnnnn",
"nnnnnnnnnnnnnnnnnnnnnnnnnnnnnnnnnnnnnnnnnnnnnnnnnnnnnnkvvvvvvvvvvvvvvvvvvvnnnnnnnnnnnnnnnnnnnnnnnnnnnnnnnnnnnnnnnnnnnnnnnnnnnnnn",
"nnnnnnnnnnnnnnnnnnnnnnnnnnnnnnnnnnnnnnnnnnnnnnnnnnnnnnvlvvvvvvvvvvvvvvvvvvnnnnnnnnnnnnnnnnnnnnnnnnnnnnnnnnnnnnnnnnnnnnnnnnnnnnnn",
"nnnnnnnnnnnnnnnnnnnnnnnnnnnnnnnnnnnnnnnnnnnnnnnnnnnnnnvvvvvvvvvvvvvvvvvvvvnnnnnnnnnnnnnnnnnnnnnnnnnnnnnnnnnnnnnnnnnnnnnnnnnnnnnn",
"nnnnnnnnnnnnnnnnnnnnnnnnnnnnnnnnnnnnnnnnnnnnnnnnnnnnnnzvvvvvxvvvvvvvvvvzvvnnnnnnnnnnnnnnnnnnnnnnnnnnnnnnnnnnnnnnnnnnnnnnnnnnnnnn",
"nnnnnnnnnnnnnnnnnnnnnnnnnnnnnnnnnnnnnnnnnnnnnnnnnnnnnnvvvvvvvvvxvvvvvvxvvvznnnnnnnnnnnnnnnnnnnnnnnnnnnnnnnnnnnnnnnnnnnnnnnnnnnnn",
"nnnnnnnnnnnnnnnnnnnnnnnnnnnnnnnnnnnnnnnnnnnnnnnnnnnnnwvlzvvvzvvvvvxvvxvvvvznnnnnnnnnnnnnnnnnnnnnnnnnnnnnnnnnnnnnnnnnnnnnnnnnnnnn",
"nnnnnnnnnnnnnnnnnnnnnnnnnnnnnnnnnnnnnnnnnnnnnnnnnnnnnhzvvvzvvvvvxvvvvvvvxvznnnnnnnnnnnnnnnnnnnnnnnnnnnnnnnnnnnnnnnnnnnnnnnnnnnnn",
"nnnnnnnnnnnnnnnnnnnnnnnnnnnnnnnnnnnnnnnnnnnnnnnnnnnnnhvvzvxvvvzvzvzvvxxvvvznnnnnnnnnnnnnnnnnnnnnnnnnnnnnnnnnnnnnnnnnnnnnnnnnnnnn",
"nnnnnnnnnnnnnnnnnnnnnnnnnnnnnnnnnnnnnnnnnnnnnnnnnnnnnhvxvvvvzvvzvvxvvxvvzvxnnnnnnnnnnnnnnnnnnnnnnnnnnnnnnnnnnnnnnnnnnnnnnnnnnnnn",
"nnnnnnnnnnnnnnnnnnnnnnnnnnnnnnnnnnnnnnnnnnnnnnnnnnnnnjxvvzxvzvvzvxxvxvxvvxvnnnnnnnnnnnnnnnnnnnnnnnnnnnnnnnnnnnnnnnnnnnnnnnnnnnnn",
"nnnnnnnnnnnnnnnnnnnnnnnnnnnnnnnnnnnnnnnnnnnnnnnnnnnnnzvxvvzzvvvvvxvxvxvvxvxnnnnnnnnnnnnnnnnnnnnnnnnnnnnnnnnnnnnnnnnnnnnnnnnnnnnn",
"nnnnnnnnnnnnnnnnnnnnnnnnnnnnnnnnnnnnnnnnnnnnnnnnnnnnnzvxzvvvvzzvxvxvxvzzvxvnnnnnnnnnnnnnnnnnnnnnnnnnnnnnnnnnnnnnnnnnnnnnnnnnnnnn",
"nnnnnnnnnnnnnnnnnnnnnnnnnnnnnnnnnnnnnnnnnnnnnnnnnnnnnxvxxvxvvxvvvzxxvxxvvzxnnnnnnnnnnnnnnnnnnnnnnnnnnnnnnnnnnnnnnnnnnnnnnnnnnnnn",
"nnnnnnnnnnnnnnnnnnnnnnnnnnnnnnnnnnnnnnnnnnnnnnnnnnnnnxxvxvzvxvkzzvvxxvxxvxvznnnnnnnnnnnnnnnnnnnnnnnnnnnnnnnnnnnnnnnnnnnnnnnnnnnn",
"nnnnnnnnnnnnnnnnnnnnnnnnnnnnnnnnnnnnnnnnnnnnnnnnnnnn5zxxxvvkxvzvvxxvxvxvvxzznnnnnnnnnnnnnnnnnnnnnnnnnnnnnnnnnnnnnnnnnnnnnnnnnnnn",
"nnnnnnnnnnnnnnnnnnnnnnnnnnnnnnnnnnnnnnnnnnnnnnnnnnnnhzxxvkxxvkvzzvxxxxxxxxzznnnnnnnnnnnnnnnnnnnnnnnnnnnnnnnnnnnnnnnnnnnnnnnnnnnn",
"nnnnnnnnnnnnnnnnnnnnnnnnnnnnnnnnnnnnnnnnnnnnnnnnnnnnexxxzxzvzzzvxvxxxxxvzvzznnnnnnnnnnnnnnnnnnnnnnnnnnnnnnnnnnnnnnnnnnnnnnnnnnnn",
"nnnnnnnnnnnnnnnnnnnnnnnnnnnnnnnnnnnnnnnnnnnnnnnnnnnnexvxxvxkvvvzxxxvvzxxzvxxnnnnnnnnnnnnnnnnnnnnnnnnnnnnnnnnnnnnnnnnnnnnnnnnnnnn",
"nnnnnnnnnnnnnnnnnnnnnnnnnnnnnnnnnnnnnnnnnnnnnnnnnnnnevxxvxxvvlzvxxxxxxxxvzzznnnnnnnnnnnnnnnnnnnnnnnnnnnnnnnnnnnnnnnnnnnnnnnnnnnn",
"nnnnnnnnnnnnnnnnnnnnnnnnnnnnnnnnnnnnnnnnnnnnnnnnnnnnxxxxxxxkllzzxxxxxxxxxxxvnnnnnnnnnnnnnnnnnnnnnnnnnnnnnnnnnnnnnnnnnnnnnnnnnnnn",
"nnnnnnnnnnnnnnnnnnnnnnnnnnnnnnnnnnnnnnnnnnnnnnnnnnnnzzzzlvkvlllvxxxxkvkkvkkknnnnnnnnnnnnnnnnnnnnnnnnnnnnnnnnnnnnnnnnnnnnnnnnnnnn",
"nnnnnnnnnnnnnnnnnnnnnnnnnnnnnnnnnnnnnnnnnnnnnnnnnnnnzzvzvllllllzxxzxkvvkkvvknnnnnnnnnnnnnnnnnnnnnnnnnnnnnnnnnnnnnnnnnnnnnnnnnnnn",
"nnnnnnnnnnnnnnnnnnnnnnnnnnnnnnnnnnnnnnnnnnnnnnnnnnnnzvzzlllllllvxxxzvzvkkklkknnnnnnnnnnnnnnnnnnnnnnnnnnnnnnnnnnnnnnnnnnnnnnnnnnn",
"nnnnnnnnnnnnnnnnnnnnnnnnnnnnnnnnnnnnnnnnnnnnnnnnnnn<zzzzlllzvzllzzxzkkkvkvzvknnnnnnnnnnnnnnnnnnnnnnnnnnnnnnnnnnnnnnnnnnnnnnnnnnn",
"nnnnnnnnnnnnnnnnnnnnnnnnnnnnnnnnnnnnnnnnnnnnnnnnnnnwzzzzkzzzzzzzzzzzkzzzzzzzhnnnnnnnnnnnnnnnnnnnnnnnnnnnnnnnnnnnnnnnnnnnnnnnnnnn",
"nnnnnnnnnnnnnnnnnnnnnnnnnnnnnnnnnnnnnnnnnnnnnnnnnnnwzzzzzzzzzzkzzzzzkzzzzzzzhnnnnnnnnnnnnnnnnnnnnnnnnnnnnnnnnnnnnnnnnnnnnnnnnnnn",
"nnnnnnnnnnnnnnnnnnnnnnnnnnnnnnnnnnnnnnnnnnnnnnnnnnnwzzzzzzzzzzzzzzzzzllkkzzzznnnnnnnnnnnnnnnnnnnnnnnnnnnnnnnnnnnnnnnnnnnnnnnnnnn",
"nnnnnnnnnnnnnnnnnnnnnnnnnnnnnnnnnnnnnnnnnnnnnnnnnnnwkzkzzkkkzkkzzzzzlkklzkzzznnnnnnnnnnnnnnnnnnnnnnnnnnnnnnnnnnnnnnnnnnnnnnnnnnn",
"nnnnnnnnnnnnnnnnnnnnnnnnnnnnnnnnnnnnnnnnnnnnnnnnnnnhkkzzkzkkkzkzkzkzzkkkkkkkknnnnnnnnnnnnnnnnnnnnnnnnnnnnnnnnnnnnnnnnnnnnnnnnnnn",
"nnnnnnnnnnnnnnnnnnnnnnnnnnnnnnnnnnnnnnnnnnnnnnnnnnnzkkkkkkkkzkkkkkkkkkkkkkkkknnnnnnnnnnnnnnnnnnnnnnnnnnnnnnnnnnnnnnnnnnnnnnnnnnn",
"nnnnnnnnnnnnnnnnnnnnnnnnnnnnnnnnnnnnnnnnnnnnnnnnnnnhkkkkkkkkkkkkkkkkkkkkkkkkznnnnnnnnnnnnnnnnnnnnnnnnnnnnnnnnnnnnnnnnnnnnnnnnnnn",
"nnnnnnnnnnnnnnnnnnnnnnnnnnnnnnnnnnnnnnnnnnnnnnnnnnnzkkkkjkkkkkjkkkkkjkkkkkkkzhnnnnnnnnnnnnnnnnnnnnnnnnnnnnnnnnnnnnnnnnnnnnnnnnnn",
"nnnnnnnnnnnnnnnnnnnnnnnnnnnnnnnnnnnnnnnnnnnnnnnnnn>jzzkjkkjkkkkkjjkkkkkkhkkzhhnnnnnnnnnnnnnnnnnnnnnnnnnnnnnnnnnnnnnnnnnnnnnnnnnn",
"nnnnnnnnnnnnnnnnnnnnnnnnnnnnnnnnnnnnnnnnnnnnnnnnnn6zhzkzjkkkkjjkkkjkjkjkzzhzzhnnnnnnnnnnnnnnnnnnnnnnnnnnnnnnnnnnnnnnnnnnnnnnnnnn",
"nnnnnnnnnnnnnnnnnnnnnnnnnnnnnnnnnnnnnnnnnnnnnnnnnnwhzhzhkkkkjkjkkjkjjkjkhzzhzhnnnnnnnnnnnnnnnnnnnnnnnnnnnnnnnnnnnnnnnnnnnnnnnnnn",
"nnnnnnnnnnnnnnnnnnnnnnnnnnnnnnnnnnnnnnnnnnnnnnnnnn5zhzhzjjjjkjkjjkjkkjkjkjhzhhnnnnnnnnnnnnnnnnnnnnnnnnnnnnnnnnnnnnnnnnnnnnnnnnnn",
"nnnnnnnnnnnnnnnnnnnnnnnnnnnnnnnnnnnnnnnnnnnnnnnnnn6jjjjzzjjjjkjzjjjkzjjjjkjkjjnnnnnnnnnnnnnnnnnnnnnnnnnnnnnnnnnnnnnnnnnnnnnnnnnn",
"nnnnnnnnnnnnnnnnnnnnnnnnnnnnnnnnnnnnnnnnnnnnnnnnn>hzjjjjjjjzjjjjkjjjjjjzjjjkjjnnnnnnnnnnnnnnnnnnnnnnnnnnnnnnnnnnnnnnnnnnnnnnnnnn",
"nnnnnnnnnnnnnnnnnnnnnnnnnnnnnnnnnnnnnnnnnnnnnnnnnhjjjzjjjjjjjjjjjjjkzjjjjjjjjjhnnnnnnnnnnnnnnnnnnnnnnnnnnnnnnnnnnnnnnnnnnnnnnnnn",
"nnnnnnnnnnnnnnnnnnnnnnnnnnnnnnnnnnnnnnnnnnnnnnnnhhjjjjjjjjjjj84544ehjjjjjjjjjjhhnnnnnnnnnnnnnnnnnnnnnnnnnnnnnnnnnnnnnnnnnnnnnnnn",
"nnnnnnnnnnnnnnnnnnnnnnnnnnnnnnnnnnnnnnnnnnnnnnhhhjjjjjjjjjh4-O...X$:ejjjjjjjjjjjhnnnnnnnnnnnnnnnnnnnnnnnnnnnnnnnnnnnnnnnnnnnnnnn",
"nnnnnnnnnnnnnnnnnnnnnnnnnnnnnnnnnnnnnnnnnnnnnejjjhhjhjjhje;O        $1hjhjhjjhhjjjjnnnnnnnnnnnnnnnnnnnnnnnnnnnnnnnnnnnnnnnnnnnnn",
"nnnnnnnnnnnnnnnnnnnnnnnnnnnnnnnnnnnnnnnnnnnnrjhhhjhjhjhhh-  nnnnn    +1hhjjhhhjhhhhhnnnnnnnnnnnnnnnnnnnnnnnnnnnnnnnnnnnnnnnnnnnn",
"nnnnnnnnnnnnnnnnnnnnnnnnnnnnnnnnnnnnnnnnnnnhhjhhhhjhhjhh1onnnnnnnnnn  $ehhhjhjhhhhhhhnnnnnnnnnnnnnnnnnnnnnnnnnnnnnnnnnnnnnnnnnnn",
"nnnnnnnnnnnnnnnnnnnnnnnnnnnnnnnnnnnnnnnnnhjhhjjhhhhhhhh9@nnnnnnnnnnnn  :hhhhhjhjjejejjnnnnnnnnnnnnnnnnnnnnnnnnnnnnnnnnnnnnnnnnnn",
"nnnnnnnnnnnnnnnnnnnnnnnnnnnnnnnnnnnnnnnnejhhjrhhhhhjhjj2nnnnnnnnnnnnnn $ejhhhrhhjjjjrjhnnnnnnnnnnnnnnnnnnnnnnnnnnnnnnnnnnnnnnnnn",
"nnnnnnnnnnnnnnnnnnnnnnnnnnnnnnnnnnnnnnnhrrejejjjhhherjh:nnnnnnnnnnnnnnno6hhhhjhhhejhjjrjhnnnnnnnnnnnnnnnnnnnnnnnnnnnnnnnnnnnnnnn",
"nnnnnnnnnnnnnnnnnnnnnnnnnnnnnnnnnnnnnnhhjjjjjrejhhhhhhe:nnnnnnnnnnnnnnno6hehjejejhejejrjhhnnnnnnnnnnnnnnnnnnnnnnnnnnnnnnnnnnnnnn",
"nnnnnnnnnnnnnnnnnnnnnnnnnnnnnnnnnnnnwhhhjejeejjejjjeejr>nnnnnnnnnnnnnnnn4jjeehjehheehhehhhhnnnnnnnnnnnnnnnnnnnnnnnnnnnnnnnnnnnnn",
"nnnnnnnnnnnnnnnnnnnnnnnnnnnnnnnnnnnwhhehjeejjjejeehjhrh,nnnnnnnnnnnnnnnn6jejhrrhehjhhehhhehhnnnnnnnnnnnnnnnnnnnnnnnnnnnnnnnnnnnn",
"nnnnnnnnnnnnnnnnnnnnnnnnnnnnnnnnnnwhhehhjjejejjejejeher6nnnnnnnnnnnnnnn=ehhejeheehehehheehehhennnnnnnnnnnnnnnnnnnnnnnnnnnnnnnnnn",
"nnnnnnnnnnnnnnnnnnnnnnnnnnnnnnnnnwhhehheeejejeejejejehhennnnnnnnnnnnnnn<eejerhrjhjehehhhehehhjennnnnnnnnnnnnnnnnnnnnnnnnnnnnnnnn",
"nnnnnnnnnnnnnnnnnnnnnnnnnnnnnnnnhhwhehhehejheeejhehheeje8nnnnnnnnnnnnnneheheheheheheeejehehhheeennnnnnnnnnnnnnnnnnnnnnnnnnnnnnnn",
"nnnnnnnnnnnnnnnnnnnnnnnnnnnnnnehhhhweheheheejejeejehehejennnnnnnnnnnnn6hehehheejehejjejeeheejejehnnnnnnnnnnnnnnnnnnnnnnnnnnnnnnn",
"nnnnnnnnnnnnnnnnnnnnnnnnnnnnnwwhwhhwhheheehhjeeeeeheeejeeennnnnnnnnnnwheheheeeeeeeeeheeeheheeheerwnnnnnnnnnnnnnnnnnnnnnnnnnnnnnn",
"nnnnnnnnnnnnnnnnnnnnnnnnnnnnwwhrhhweeeewheeeeejeeheeejeeehhennnnnnn8weheeeehheheejejeejeeeeheeehhhhennnnnnnnnnnnnnnnnnnnnnnnnnnn",
"nnnnnnnnnnnnnnnnnnnnnnnnnnnwhwhewwehweeheeeeeeejeehheeeeheeeeeeneeerehweeeheeheweeejeheheheeeheewhwwwnnnnnnnnnnnnnnnnnnnnnnnnnnn",
"nnnnnnnnnnnnnnnnnnnnnnnnnwwheheehewheeehejeeeeeeeeeehheeeeheheeeeeeehwheheeeeeeheeeeeeeeheeeeeeewwwhhennnnnnnnnnnnnnnnnnnnnnnnnn",
"nnnnnnnnnnnnnnnnnnnnnnnnweeewhwhweheheeeeejeeeeeeheeeeeeeeeeeeeeeeereeweeewheeeeeeeeeeeeeeeeeeeeeewreeennnnnnnnnnnnnnnnnnnnnnnnn",
"nnnnnnnnnnnnnnnnnnnnnnnweeeeeeweeeweeeeeeeeeeeeeeeeeeeeeeeeheeeeeeeeeeeeeeeeeeeeeeeeeeeeeeeeeeeeewrweeeewnnnnnnnnnnnnnnnnnnnnnnn",
"nnnnnnnnnnnnnnnnnnnnnnweeeeeeeeeeeeeeeeeeeeeeeeeeeeeeeeeeeeeeeeeeeeeeeeeeeeeeeeeeeeeeeeeeeeeeeweeeeeeeeeewnnnnnnnnnnnnnnnnnnnnnn",
"nnnnnnnnnnnnnnnnnnnn8weeweeeweweee8eeeeeeeeeqeqeeeweeweeeweeeewweeeeewweweweewweeeeeqeeeeeeweeeeeeeeweewwwwnnnnnnnnnnnnnnnnnnnnn",
"nnnnnnnnnnnnnnnnnnn6wwwwweewweeweeeee8wweeeeeeeewe8wwewewwewwwwwwewewwwwewwewwwweqeeeewweewqewwwweewewwewwwwnnnnnnnnnnnnnnnnnnnn",
"nnnnnnnnnnnnnnnnnnwwwhwwwewweewewweeeewweeeqqeqewewwewwwwewwewwwwwewwwwwwwwwwwwweeqee8eweeqewewwwwwwwwwwwwwwwnnnnnnnnnnnnnnnnnnn",
"nnnnnnnnnnnnnnnnnwwwwwwwewwwwwwwwwwwwwwwwwwweeeewwwwwwwwwwwwwwwwewwwwwwwwwwwwwwweqwwwwww8ewww9ewwwwwwwwwwwwwwwwnnnnnnnnnnnnnnnnn",
"nnnnnnnnnnnnnnn86wwwwwwwwwwwwww9wwww9wwewwwwe8e6wwwwwwwwwwwwww5,<wwwwwwwwwwwwwwwqewwwwwwwewwwwwwwwwwwwwww9wwwww5nnnnnnnnnnnnnnnn",
"nnnnnnnnnnnnnn6www9wwwwww9wwwwwwwwwwwwww9wwwwwwwwwwwwww5wwww5>$.O=36wwwwwwwwwwwweeew9ewew6eww9w90www0wwwwww09wwwwnnnnnnnnnnnnnnn",
"nnnnnnnnnnnnn5wwwwwww6wwwww96ww6ww8wwe9w9we9w6e6w0w7wwwwww1=+.    O$>4www8ww9w6w96w6w99w6e9wwwww0ww9wwww0wwwwwwwwwnnnnnnnnnnnnnn",
"nnnnnnnnnnnnwww5wwwwwwwwwwww5w6w5wwww5w5w6www8www8w5www3,*O          $>57ww8wwwwwwwww68wwww8w58www8wwwww8www5www85w5nnnnnnnnnnnn",
"nnnnnnnnnnn8www7w7w58w5ww5w8ww5wwww5www8ww5w6ww5wwwww1;$.  nnnnnnnn    +=16w78w58658www585wwwwwww5ww58w5ww7w5w5wwwwwwnnnnnnnnnnn",
"nnnnnnnnnn3w5w8w5ww5w8ww5www8w5www5w5wwwww5wwwww5551-+  nnnnnnnnnnnnn    +*>375wwwww55www5w5w5w555wwww58w5www5ww5w55w5nnnnnnnnnn",
"nnnnnnnnnn5ww555355w5w5ww55w5w5w5w5ww5w55w5w5w5w4,#O  nnnnnnnnnnnnnnnnn    .$>58w55ww8w55ww55w5www55585ww55555335w5w5w5nnnnnnnnn",
"nnnnnnnnnn8855-+O+:688885w88w8w6888w88905ww5w51;#. nnnnnnnnnnnnnnnnnnnnnnn   .@-,6ww8w5w55w7088ww899858w577w3*OO$,8w58wnnnnnnnnn",
"nnnnnnnnn3885;    o:0890w8895966008889000555,-O  nnnnnnnnnnnnnnnnnnnnnnnnnnn    O=,39998w589008858998w75w074%   n@185w5nnnnnnnnn",
"nnnnnnnnn55w5#n    *6990500099680066806603:#o  nnnnnnnnnnnnnnnnnnnnnnnnnnnnnnn    o$:30500000656w50068777001o  nnn:50055nnnnnnnn",
"nnnnnnnnn855,nnnnn O1006006660076660606<-+X nnnnnnnnnnnnnnnnnnnnnnnnnnnnnnnnnnnnn   .#;<50507576w5505058700;nnnnnn*550w3nnnnnnnn",
"nnnnnnnn16562nnnnnn$5775505w555w56555>=O  nnnnnnnnnnnnnnnnnnnnnnnnnnnnnnnnnnnnnnnnn    O=<55856555558555555,nnnnnn-55555nnnnnnnn",
"nnnnnnnn35555:nnnnn,555555555555551>$.  nnnnnnnnnnnnnnnnnnnnnnnnnnnnnnnnnnnnnnnnnnnnn    O*:35585555555w5553nnnnnn155555nnnnnnnn",
"nnnnnnnn155654>nnn:35555555555551-OX nnnnnnnnnnnnnnnnnnnnnnnnnnnnnnnnnnnnnnnnnnnnnnnnnnn   X#:145555555555551nnnn,555555nnnnnnnn",
"nnnnnnnn>555555315555555555553:*O  nnnnnnnnnnnnnnnnnnnnnnnnnnnnnnnnnnnnnnnnnnnnnnnnnnnnnnn   .O-,55554555555553135555555nnnnnnnn",
"nnnnnnnn&5555555355555353551;#X  nnnnnnnnnnnnnnnnnnnnnnnnnnnnnnnnnnnnnnnnnnnnnnnnnnnnnnnnnnn    O*:353453554545355544553nnnnnnnn",
"nnnnnnnnn;155555455455543,-O  nnnnnnnnnnnnnnnnnnnnnnnnnnnnnnnnnnnnnnnnnnnnnnnnnnnnnnnnnnnnnnnn    .#:3355445545453455441nnnnnnnn",
"nnnnnnnnnn#:15335335533:#o  nnnnnnnnnnnnnnnnnnnnnnnnnnnnnnnnnnnnnnnnnnnnnnnnnnnnnnnnnnnnnnnnnnnnn   .@-,353433445345531nnnnnnnnn",
"nnnnnnnnnnnX@=;,11<<,-#X  nnnnnnnnnnnnnnnnnnnnnnnnnnnnnnnnnnnnnnnnnnnnnnnnnnnnnnnnnnnnnnnnnnnnnnnnn    O=,33534535331,nnnnnnnnnn",
"nnnnnnnnnnnnnnnoooooo  nnnnnnnnnnnnnnnnnnnnnnnnnnnnnnnnnnnnnnnnnnnnnnnnnnnnnnnnnnnnnnnnnnnnnnnnnnnnnn    o#=-,<<<,;*@nnnnnnnnnnn",
"nnnnnnnnnnnnnnnnnnnnnnnnnnnnnnnnnnnnnnnnnnnnnnnnnnnnnnnnnnnnnnnnnnnnnnnnnnnnnnnnnnnnnnnnnnnnnnnnnnnnnnnn     ooooo. nnnnnnnnnnnn",
"nnnnnnnnnnnnnnnnnnnnnnnnnnnnnnnnnnnnnnnnnnnnnnnnnnnnnnnnnnnnnnnnnnnnnnnnnnnnnnnnnnnnnnnnnnnnnnnnnnnnnnnnnnnn     nnnnnnnnnnnnnnn",
"nnnnnnnnnnnnnnnnnnnnnnnnnnnnnnnnnnnnnnnnnnnnnnnnnnnnnnnnnnnnnnnnnnnnnnnnnnnnnnnnnnnnnnnnnnnnnnnnnnnnnnnnnnnnnnnnnnnnnnnnnnnnnnnn",
"nnnnnnnnnnnnnnnnnnnnnnnnnnnnnnnnnnnnnnnnnnnnnnnnnnnnnnnnnnnnnnnnnnnnnnnnnnnnnnnnnnnnnnnnnnnnnnnnnnnnnnnnnnnnnnnnnnnnnnnnnnnnnnnn",
"nnnnnnnnnnnnnnnnnnnnnnnnnnnnnnnnnnnnnnnnnnnnnnnnnnnnnnnnnnnnnnnnnnnnnnnnnnnnnnnnnnnnnnnnnnnnnnnnnnnnnnnnnnnnnnnnnnnnnnnnnnnnnnnn",
"nnnnnnnnnnnnnnnnnnnnnnnnnnnnnnnnnnnnnnnnnnnnnnnnnnnnnnnnnnnnnnnnnnnnnnnnnnnnnnnnnnnnnnnnnnnnnnnnnnnnnnnnnnnnnnnnnnnnnnnnnnnnnnnn",
"nnnnnnnnnnnnnnnnnnnnnnnnnnnnnnnnnnnnnnnnnnnnnnnnnnnnnnnnnnnnnnnnnnnnnnnnnnnnnnnnnnnnnnnnnnnnnnnnnnnnnnnnnnnnnnnnnnnnnnnnnnnnnnnn",
"nnnnnnnnnnnnnnnnnnnnnnnnnnnnnnnnnnnnnnnnnnnnnnnnnnnnnnnnnnnnnnnnnnnnnnnnnnnnnnnnnnnnnnnnnnnnnnnnnnnnnnnnnnnnnnnnnnnnnnnnnnnnnnnn",
"nnnnnnnnnnnnnnnnnnnnnnnnnnnnnnnnnnnnnnnnnnnnnnnnnnnnnnnnnnnnnnnnnnnnnnnnnnnnnnnnnnnnnnnnnnnnnnnnnnnnnnnnnnnnnnnnnnnnnnnnnnnnnnnn",
"nnnnnnnnnnnnnnnnnnnnnnnnnnnnnnnnnnnnnnnnnnnnnnnnnnnnnnnnnnnnnnnnnnnnnnnnnnnnnnnnnnnnnnnnnnnnnnnnnnnnnnnnnnnnnnnnnnnnnnnnnnnnnnnn",
"nnnnnnnnnnnnnnnnnnnnnnnnnnnnnnnnnnnnnnnnnnnnnnnnnnnnnnnnnnnnnnnnnnnnnnnnnnnnnnnnnnnnnnnnnnnnnnnnnnnnnnnnnnnnnnnnnnnnnnnnnnnnnnnn",
"nnnnnnnnnnnnnnnnnnnnnnnnnnnnnnnnnnnnnnnnnnnnnnnnnnnnnnnnnnnnnnnnnnnnnnnnnnnnnnnnnnnnnnnnnnnnnnnnnnnnnnnnnnnnnnnnnnnnnnnnnnnnnnnn",
"nnnnnnnnnnnnnnnnnnnnnnnnnnnnnnnnnnnnnnnnnnnnnnnnnnnnnnnnnnnnnnnnnnnnnnnnnnnnnnnnnnnnnnnnnnnnnnnnnnnnnnnnnnnnnnnnnnnnnnnnnnnnnnnn",
"nnnnnnnnnnnnnnnnnnnnnnnnnnnnnnnnnnnnnnnnnnnnnnnnnnnnnnnnnnnnnnnnnnnnnnnnnnnnnnnnnnnnnnnnnnnnnnnnnnnnnnnnnnnnnnnnnnnnnnnnnnnnnnnn",
"nnnnnnnnnnnnnnnnnnnnnnnnnnnnnnnnnnnnnnnnnnnnnnnnnnnnnnnnnnnnnnnnnnnnnnnnnnnnnnnnnnnnnnnnnnnnnnnnnnnnnnnnnnnnnnnnnnnnnnnnnnnnnnnn"
};
