/* XPM */
static char *xfce4_mcs_manager[] = {
/* columns rows colors chars-per-pixel */
"128 128 63 1 ",
"  c #000100010001",
". c #2CEF2CEF2CEF",
"X c #35AE35AE35AE",
"o c #51CF51CF51CF",
"O c #6E666E666E66",
"+ c #70DB6BEB70DB",
"@ c #781378137813",
"# c #815585CE8155",
"$ c #8A2A8A2A8A2A",
"% c #9C719C719C71",
"& c #AAD6AAD6AAD6",
"* c #B78AB78AB78A",
"= c #C2A7C2A7C2A7",
"- c #CC4ACC4ACC4A",
"; c #D1A0CF8DCF8D",
": c #CF8DD1A0CF8D",
"> c #D1A0CF8DD1A0",
", c #CF8DD1A0D1A0",
"< c #D39FD39FD39F",
"1 c #D849D679D849",
"2 c #DA06DA06DA06",
"3 c #E31DE31DE31D",
"4 c #E50EE50EE3C6",
"5 c #E5ADE5ADE5AD",
"6 c #E924E898E924",
"7 c #EB37EB37EB37",
"8 c #EC30ED1EEC30",
"9 c #ECA8ED1EED1E",
"0 c #EF47EF47EF47",
"q c #F076F013F013",
"w c #F013F076F013",
"e c #F076F076F013",
"r c #F013F013F076",
"t c #F076F013F076",
"y c #F013F076F076",
"u c #F1EDF1EDF1ED",
"i c #F31EF31AF318",
"p c #F433F433F433",
"a c #F59EF558F558",
"s c #F59EF59EF558",
"d c #F558F558F59E",
"f c #F59EF558F59E",
"g c #F558F59EF59E",
"h c #F665F665F665",
"j c #F794F75AF75A",
"k c #F75AF794F75A",
"l c #F794F794F75A",
"z c #F75AF75AF794",
"x c #F794F75AF794",
"c c #F75AF794F794",
"v c #F86FF86FF86F",
"b c #F915F92CF927",
"n c #F9C1F9C1F9C1",
"m c #FA94FA6CFA6C",
"M c #FA6CFA94FA6C",
"N c #FA94FA94FA6C",
"B c #FA6CFA6CFA94",
"V c #FA94FA6CFA94",
"C c #FB08FB08FB08",
"Z c #FBF8FBF8FBE8",
"A c #FCE7FCE9FCF1",
"S c #FD9FFD9FFD9F",
"D c None",
/* pixels */
"DDDDDDDDDDDDDDDDDDDDDDDDDDDDDDDDDDDDDDDDDDDDDDDDDDDDDDDDDDDDDDDDDDDDDDDDDDDDDDDDDDDDDDDDDDDDDDDDDDDDDDDDDDDDDDDDDDDDDDDDDDDDDDDD",
"DDDDDDDDDDDDDDDDDDDDDDDDDDDDDDDDDDDDDDDDDDDDDDDDDDDDDDDDDDDDDDDDDDDDDDDDDDDDDDDDDDDDDDDDDDDDDDDDDDDDDDDDDDDDDDDDDDDDDDDDDDDDDDDD",
"DDDDDDDDDDDDDDDDDDDDDDDDDDDDDDDDDDDDDDDDDDDDDDDDDDDDDDDDDDDDDDDDDDDDDDDDDDDDDDDDDDDDDDDDDDDDDDDDDDDDDDDDDDDDDDDDDDDDDDDDDDDDDDDD",
"DDDDDDDDDDDDDDDDDDDDDDDDDDDDDDDDDDDDDDDDDDDDDDDDDDDDDDDDDDDDDDDDDDDDDDDDDDDDDDDDDDDDDDDDDDDDDDDDDDDDDDDDDDDDDDDDDDDDDDDDDDDDDDDD",
"DDDDDDDDDDDDDDDDDDDDDDDDDDDDDDDDDDDDDDDDDDDDDDDDDDDDDDDDDDDDDDDDDDDDDDDDDDDDDDDDDDDDDDDDDDDDDDDDDDDDDDDDDDDDDDDDDDDDDDDDDDDDDDDD",
"DDDDDDDDDDDDDDDDDDDDDDDDDDDDDDDDDDDDDDDDDDDDDDDDDDDDDDDDDDDDDDDDDDDDDDDDDDDDDDDDDDDDDDDDDDDDDDDDDDDDDDDDDDDDDDDDDDDDDDDDDDDDDDDD",
"DDDDDDDDDDDDDDDDDDDDDDDDDDDDDDDDDDDDDDDDDDDDDDDDDDDDDDDDDDDDDDDDDDDDDDDDDDDDDDDDDDDDDDDDDDDDDDDDDDDDDDDDDDDDDDDDDDDDDDDDDDDDDDDD",
"DDDDDDDDDDDDDDDDDDDDDDDDDDDDDDDDDDDDDDDDDDDDDDDDDDDDDDDDDDDDDDDDDDDDDDDDDDDDDDDDDDDDDDDDDDDDDDDDDDDDDDDDDDDDDDDDDDDDDDDDDDDDDDDD",
"DDDDDDDDDDDDDDDDDDDDDDDDDDDDDDDDDDDDDDDDDDDDDDDDDDDDDDDDDDDDDDDDDDDDDDDDDDDDDDDDDDDDDDDDDDDDDDDDDDDDDDDDDDDDDDDDDDDDDDDDDDDDDDDD",
"DDDDDDDDDDDDDDDDDDDDDDDDDDDDDDDDDDDDDDDDDDDDDDDDDDDDDDDDDDDDDDDDDDDDDDDDDDDDDDDDDDDDDDDDDDDDDDDDDDDDDDDDDDDDDDDDDDDDDDDDDDDDDDDD",
"DDDDDDDDDDDDDDDDDDDDDDDDDDDDDDDDDDDDDDDDDDDDDDDDDDDDDDDDDDDDDDDDDDDDDDDDDDDDDDDDDDDDDDDDDDDDDDDDDDDDDDDDDDDDDDDDDDDDDDDDDDDDDDDD",
"DDDDDDDDDDDDDDDDDDDDDDDDDDDDDDDDDDDDDDDDDDDDDDDDDDDDDDDDDDDDDDDDDDDDDDDDDDDDDDDDDDDDDDDDDDDDDDDDDDDDDDDDDDDDDDDDDDDDDDDDDDDDDDDD",
"DDDDDDDDDDDDDDDDDDDDDDDDDDDDDDDDDDDDDDDDDDDDDDDDDDDDDDDDDDDDDDDDDDDDDDDDDDDDDDDDDDDDDDDDDDDDDDDDDDDDDDDDDDDDDDDDDDDDDDDDDDDDDDDD",
"DDDDDDDDDDDDDDDDDDDDDDDDDDDDDDDDDDDDDDDDDDDDDDDDDDDDDDDDDDDDDDDDDDDDDDDDDDDDDDDDDDDDDDDDDDDDDDDDDDDDDDDDDDDDDDDDDDDDDDDDDDDDDDDD",
"DDDDDDDDDDDDDDDDDDDDDDDDDDDDDDDDDDDDDDDDDDDDDDDDDDDDDDDDDDDDDDDDDDDDDDDDDDDDDDDDDDDDDDDDDDDDDDDDDDDDDDDDDDDDDDDDDDDDDDDDDDDDDDDD",
"DDDDDDDDDDDDDDDDDDDDDDDDDDDDDDDDDDDDDDDDDDDDDDDDDDDDDDDDDDDDDDDDDDDDDDDDDDDDDDDDDDDDDDDDDDDDDDDDDDDDDDDDDDDDDDDDDDDDDDDDDDDDDDDD",
"DDDDDDDDDDDDDDDDDDDDDDDDDDDDDDDDDDDDDDDDDDDDDDDDDDDDDDDDDDDDDDDDDDDDDDDDDDDDDDDDDDDDDDDDDDDDDDDDDDDDDDDDDDDDDDDDDDDDDDDDDDDDDDDD",
"DDDDDDDDDDDDDDDDDDDDDDDDDDDDDDDDDDDDDDDDDDDDDDDDDDDDDDDDDDDDDDDDDDDDDDDDDDDDDDDDDDDDDDDDDDDDDDDDDDDDDDDDDDDDDDDDDDDDDDDDDDDDDDDD",
"DDDDDDDDDDDDDDDDDDDDDDDDDDDDDDDDDDDDDDDDDDDDDDDDDDDDDDDDDDDDDDDDDDDDDDDDDDDDDDDDDDDDDDDDDDDDDDDDDDDDDDDDDDDDDDDDDDDDDDDDDDDDDDDD",
"DDDDDDDDDDDDDDDDDDDDDDDDDDDDDDDDDDDDDDDDDDDDDDDDDDDDDDDDDDDDDDDDDDDDDDDDDDDDDDDDDDDDDDDDDDDDDDDDDDDDDDDDDDDDDDDDDDDDDDDDDDDDDDDD",
"DDDDDDDDDDDDDDDDDDDDDDDDDDDDDDDDDDDDDDDDDDDDDDDDDDDDDDDDDDDDDDDDDDDDDDDDDDDDDDDDDDDDDDDDDDDDDDDDDDDDDDDDDDDDDDDDDDDDDDDDDDDDDDDD",
"DDDDDDDDDDDDDDDDDDDDDDDDDDDDDDDDDDDDDDDDDDDDDDDDDDDDDDDDDDDDDDDDDDDDDDDDDDDDDDDDDDDDDDDDDDDDDDDDDDDDDDDDDDDDDDDDDDDDDDDDDDDDDDDD",
"DDDDDDDDDDDDDDDDDDDDDDSSSSSSSSSSSSSSDDDDDDDDDDDDDDDDDDDDDDSSSSSSSSSSSSSDDDDDDDDDDDDDDDDDDDDDDSSSSSSSSSSSSSSDDDDDDDDDDDDDDDDDDDDD",
"DDDDDDDDDDDDDDDDDDDDDDSSSSSSSSSSSSSSSDDDDDDDDDDDDDDDDDDDDSSSSSSSSSSSSSSSDDDDDDDDDDDDDDDDDDDDSSSSSSSSSSSSSSSDDDDDDDDDDDDDDDDDDDDD",
"DDDDDDDDDDDDDDDDDDDDDZSSSSSSSSSSSSSSSDDDDDDDDDDDDDDDDDDDDSSSSSSSSSSSSSSSADDDDDDDDDDDDDDDDDDDSSSSSSSSSSSSSSSSDDDDDDDDDDDDDDDDDDDD",
"DDDDDDDDDDDDDDDDDDDDDSSSSSSSSSSSSSSSSDDDDDDDDDDDDDDDDDDDDSSSSSSSSSSSSASSADDDDDDDDDDDDDDDDDDDSSZSSSSSSSSSSSSADDDDDDDDDDDDDDDDDDDD",
"DDDDDDDDDDDDDDDDDDDDDSZSSSSSSSSSSSSSSDDDDDDDDDDDDDDDDDDDDSSSSSSSSSSSSSSSSDDDDDDDDDDDDDDDDDDDSSSSSSSSSSSSSSSSDDDDDDDDDDDDDDDDDDDD",
"DDDDDDDDDDDDDDDDDDDDDZSSSSSSSSSSSSSSSDDDDDDDDDDDDDDDDDDDrSSSSSSSSSSSSSAAZDDDDDDDDDDDDDDDDDDDASSSSSSSSSSSSSSSDDDDDDDDDDDDDDDDDDDD",
"DDDDDDDDDDDDDDDDDDDDDZSSSSSSSSSSSSASSDDDDDDDDDDDDDDDDDDD9ASSSASSSSSSSSSSZDDDDDDDDDDDDDDDDDDDSSSZZSASSSSSSSZZDDDDDDDDDDDDDDDDDDDD",
"DDDDDDDDDDDDDDDDDDDDDZSSZASZSSSSSSSZSDDDDDDDDDDDDDDDDDDD6SZSZSSSSSSZSZSSZDDDDDDDDDDDDDDDDDDDZSASSSASSSZSSSSZDDDDDDDDDDDDDDDDDDDD",
"DDDDDDDDDDDDDDDDDDDDDZAASSASSSSZSZZSSDDDDDDDDDDDDDDDDDDD5SSSSSSASSZSSASAZDDDDDDDDDDDDDDDDDDDZASSSZSAASSSZSSZDDDDDDDDDDDDDDDDDDDD",
"DDDDDDDDDDDDDDDDDDDDDZSSSZSAAZSSSZSSSDDDDDDDDDDDDDDDDDDD5SZASZAASSSSZSZSZDDDDDDDDDDDDDDDDDDDSAZSASAAAASZSSZSDDDDDDDDDDDDDDDDDDDD",
"DDDDDDDDDDDDDDDDDDDDDZAASZSSZSSAAZSZZDDDDDDDDDDDDDDDDDDD5AAAASZASZSSZSAAZDDDDDDDDDDDDDDDDDDDZZZSAAASZZSASZSZDDDDDDDDDDDDDDDDDDDD",
"DDDDDDDDDDDDDDDDDDDDDZSZZSSZSZZSASSSSDDDDDDDDDDDDDDDDDDD9SAAAASAZSZZSSAZZDDDDDDDDDDDDDDDDDDDZSSSSAAAASSZZSZZDDDDDDDDDDDDDDDDDDDD",
"DDDDDDDDDDDDDDDDDDDDDZZSSSZSSSSZZSZSZDDDDDDDDDDDDZZSSZZZZSSZAASZSZSSZZZSZZZSSSSZDDDDDDDDDDDDZSSZZZAAASZSZSZZDDDDDDDDDDDDDDDDDDDD",
"DDDDDDDDDDDDDDDDDDDDDZZZZZSZZSZSSSZZSDDDDDDDDDDZSZSZSZZSZZSZZAASZSZSZSSZZZZZSZAZZSDDDDDDDDDDZSZSASAAZZSZSZZZDDDDDDDDDDDDDDDDDDDD",
"DDDDDDDDDDDDDDDDDDDDDZZZZZSZZSSZZZZZSDDDDDDDDDDSZSZSSZZZZAZSZASZAZSSSZZSZZSSAZSSZZDDDDDDDDDDZZZZAAAAAAZAZSZZDDDDDDDDDDDDDDDDDDDD",
"DDDDDDDDDDDDDDDDDDDDDZSSZSZAZZZZZZSZZDDDDDDDDDZZZSZZZZSSAZAZAZZAAZZZZASZSZZZZSZZSZZDDDDDDDDDZSSZZAZZZAAZZSSZDDDDDDDDDDDDDDDDDDDD",
"DDDDDDDDDDDDDDDDDDDDDZZZZZZZZAZSSAZZZDDDDDDDDDZZZZZSZSZZAAZSZZZZZSZASZZSAZZZZZAAZZZDDDDDDDDDZZZZAZZAZAAZZZZZDDDDDDDDDDDDDDDDDDDD",
"DDDDDDDDDDDDDDDDDDDDDvSZZSZSSZZZZZSZZDDDDDDDDDvZSZZZZZZZZZZZSZZAZZZZZZZZZZZSAZZZSZZDDDDDDDDDZZZZZZZAZZAZZSZZDDDDDDDDDDDDDDDDDDDD",
"DDDDDDDDDDDDDDDDDDDDDZZZSZZZZZZZZZSZZDDDDDDDDDvZZZZZZZZZi5<,:,,,>><:<<4pZZZZZZZZZZZDDDDDDDDDZZZZZZSZZZZZZZZZDDDDDDDDDDDDDDDDDDDD",
"DDDDDDDDDDDDDDDDDDDDDZZZZZAZZZZZZZZZZDDDDDDDDDvZZZZZZZv=                =vZZZZAZZZZDDDDDDDDDZSZZZZZZZZZZZZZZDDDDDDDDDDDDDDDDDDDD",
"DDDDDDDDDDDDDDDDDDDDDvZZZZZZZZZZZSZZZDDDDDDDDDpZZZZZZZ<                  <ZZZZZZZZZDDDDDDDDDZZZZZZZZZZZZZZZZDDDDDDDDDDDDDDDDDDDD",
"DDDDDDDDDDDDDDDDDDDDDZZZZZZZZZZZZZZZZDDDDDDDDDpZZZZZZvXDDDDDDDDDDDDDDDD  XpZZZZZZZvDDDDDDDDDZZZZZZZZZZZZZZZvDDDDDDDDDDDDDDDDDDDD",
"DDDDDDDDDDDDDDDDDDDDDvZZZZZZZZZZZZZZZDDDDDDDDDpZZZZZZiDDDDDDDDDDDDDDDDDD  iZZvZZZZvDDDDDDDDDZZZZZZZZZZZZZZZvDDDDDDDDDDDDDDDDDDDD",
"DDDDDDDDDDDDDDDDDDDDDvZZZZZZvZZZZZZZZDDDDDDDDDpZZZZZZvDDDDDDDDDDDDDDDDDDD iAZZZZZZvDDDDDDDDDvZZZZZZZZZZZZZZZDDDDDDDDDDDDDDDDDDDD",
"DDDDDDDDDDDDDDDDDDDDDZvZZZZZZZZZvZZZZDDDDDDDDDpZZZZZZZDDDDDDDDDDDDDDDDDDD%vvZZZZZZvDDDDDDDDDZZZZZZZZZZZZZZZvDDDDDDDDDDDDDDDDDDDD",
"DDDDDDDDDDDDDDDDDDDDDvZZZZZZZZZvZZZZZDDDDDDDDDiZZZvZZvvDDDDDDDDDDDDDDDDDD9ZZZZZZZZvDDDDDDDDDZZvZZZZZvZZZZZvZDDDDDDDDDDDDDDDDDDDD",
"DDDDDDDDDDDDDDDDDDDDDvZZZZvZZZZZZZZZZDDDDDDDDDiZZZZZZZZvDDDDDDDDDDDDDDDDvZZZvZvZZZvDDDDDDDDDZZvZZZvZvZvZZvZvDDDDDDDDDDDDDDDDDDDD",
"DDDDDDDDDDDDDDDDDDDDDvZZZZZZZvZZvZZZvDDDDDDDDDiZZvZZvZvZvZZZZZZZZZZZZZZZvZZZZZZZZZpDDDDDDDDDvZZZvZZZZZZZZZZZDDDDDDDDDDDDDDDDDDDD",
"DDDDDDDDDDDDDDDDDDDDDvZZZvZZZZZZZvZvZDDDDDDDDDiZZZZZZZZZvZvZZvZvZZZZZvZZZvZvZvZvZvvDDDDDDDDDZZZZZZvZZZZZZvZvDDDDDDDDDDDDDDDDDDDD",
"DDDDDDDDDDDDDDDDDDDDDvZvZZvvvZZvZZZZZDDDDDDDDDiZZvZvvvZZZZZZZZZZvvZZZZvZZZZZZZZZZZvDDDDDDDDDvZvZvZZZZvvZZZZZDDDDDDDDDDDDDDDDDDDD",
"DDDDDDDDDDDDDDDDDDDDDvZZZZvZvZZZZvZvZDDDDDDDDD9ZvZZZZZZZZZvZZvvZZZZvZvvZvZZZvZvZZZpDDDDDDDDDZZvZZZZvZvZZZZvvDDDDDDDDDDDDDDDDDDDD",
"DDDDDDDDDDDDDDDDDDDDDvvZvZZZZZvvZZZZvDDDDDDDDD-ZZZvvZvZvZvZvvZZZZvZvZZZvZZvZZZvZZZDDDDDDDDDDvZZvZvvZZvvZvZZvDDDDDDDDDDDDDDDDDDDD",
"DDDDDDDDDDDDDDDDDDDDDpZvvZZvvZZZvZZvZDDDDDDDDDD5ZvvZvZvZvZZvZZZvZvZZvvZZvZZvvZZvZrDDDDDDDDDDvvZZZvZZZZZvZZZvDDDDDDDDDDDDDDDDDDDD",
"DDDDDDDDDDDDDDDDDDDDDvZZZvZZvZvZZvvZZDDDDDDDDDD -9vivivivZvZZvvZvZvZZZvZvppvppvi2DDDDDDDDDDDZZvZvZZvvZvZvvZvDDDDDDDDDDDDDDDDDDDD",
"DDDDDDDDDDDDDDDDDDDDDvZZvZvZZvZvZZZvZDDDDDDDDDDD XXXXXXX1ZZvvZvZZZZZvZvZ9.XXXXXXDDDDDDDDDDDDvZZvZvZvZvZvvZvvDDDDDDDDDDDDDDDDDDDD",
"DDDDDDDDDDDDDDDDDDDDDvZvvZZvvZvZvvZvZDDDDDDDDDDDD       -ZZvZZZvvvvvZvZZ8     DDDDDDDDDDDDDDvnvZZvvvvZZvZvvvDDDDDDDDDDDDDDDDDDDD",
"DDDDDDDDDDDDDDDDDDDDDvZvvZvvvZvZvZvZZDDDDDDDDDDDDDDDD   -vvZZvvZvZZvvvZv9 DDDDDDDDDDDDDDDDDDvZZvvZvZvZvZZZZvDDDDDDDDDDDDDDDDDDDD",
"DDDDDDDDDDDDDDDDDDDDDvvvZvvZZvZvvZvvZDDDDDDDDDDDDDDDDDD -ZvvvvZvZvZvvZvZ9DDDDDDDDDDDDDDDDDDDvvnnZvvZvvZvvvZvDDDDDDDDDDDDDDDDDDDD",
"DDDDDDDDDDDDDDDDDDDDDvvZvZZvZvZvZvZvvDDDDDDDDDDDDDDDDDDD<vvvZvZvvZvZZvvviDDDDDDDDDDDDDDDDDDDvnnvBBnnZZvZZvvvDDDDDDDDDDDDDDDDDDDD",
"DDDDDDDDDDDDDDDDDDD33vZvvvvvvZvvZvvZviDDDDDDDDDDDDDDDDDD1ZZvZvvvvvvvvZvZpDDDDDDDDDDDDDDDDDDDvZvZvvnnvvvvvvvvDDDDDDDDDDDDDDDDDDDD",
"DDDDDDDDDDDDvvvvZZvZvvvvvvvvvZvZvvZvZZvvZvZZZvDDDDDDDDDD<vvvvZvZvvvvvvZvpDDDDDDDDDDDDDDDDDDDvvZvvZZvZvvvZvvvDDDDDDDDDDDDDDDDDDDD",
"DDDDDDDDDDDDZvZvvvvvvZvZZvvZvvvvvvvvvvvvvvvvvvDDDDDDDDDD1ZvZvvvvZvvZvvvZpDDDDDDDDDDDDDDDDDDDvvvvvvvvvvvZvZvvDDDDDDDDDDDDDDDDDDDD",
"DDDDDDDDDDDvZvZvvZvvvvvvvvvZvZvvvZvvvvZvZvZvvvZDDDDDDDDD2vvvvvvvvZvvvZvvpDDDDDDDDDDDDDDDDDDDvvvvvvvvvZvvvvvvDDDDDDDDDDDDDDDDDDDD",
"DDDDDDDDDDDvvvvvvvvvvZvZZvvvvvvZvvvvvvvvvvvvZvvDDDDDDDDD1ZvvvvZvvvvvvvvvpDDDDDDDDDDDDDDDDDDDvvvvvvvvvvvvvvvvDDDDDDDDDDDDDDDDDDDD",
"DDDDDDDDDDDvvvvvvvvvvZvvvvvvvvvvvvvvZvvvvvvvvvvDDDDDDDDD2vvvvvvvvZvvvvvvpDDDDDDDDDDDDDDDDDDDvvvvvvZvvvvvvvvvDDDDDDDDDDDDDDDDDDDD",
"DDDDDDDDDDDvvvvvvvvvvviiiiiiiiiiiiivvvZvvvvvvvvDDDDDDDDD1vZvvvvvvvvvvvvvvDDDDDDDDDDDDDDDDDDDvvvvvvvvvvZvvvvvDDDDDDDDDDDDDDDDDDDD",
"DDDDDDDDDDDvvvvvvvvi<#..........X..#<ivvvvvvvvvDDDDDDDDD1vvvvvvvvvvvvvvviDDDDDDDDDDDDDDDDDDDvvvvvvvvvvvvvvvvDDDDDDDDDDDDDDDDDDDD",
"DDDDDDDDDDDvvvvvvvi%                 %ivvvvvvvvDDDDDDDDD1vvvvvvvvvvvvvvvvDDDDDDDDDDDDDDDDDDDvvvvvvvvvvvvvvviDDDDDDDDDDDDDDDDDDDD",
"DDDDDDDDDDDvvivvvv5  DDDDDDDDDDDDD    3vvvvvvvvDDDDDDDDD<vvvvvvvvvvvvvvviDDDDDDDDDDDDDDDDDDDvpvvpvvvpvvvvvvvDDDDDDDDDDDDDDDDDDDD",
"DDDDDDDDDDDvvvvvvv&DDDDDDDDDDDDDDDDD  %vpvvvvvvDDDDDDDDD<pvvpvvvvvvpvvpviDDDDDDDDDDDDDDDDDDDvvvvvvvvvvvvvpvvDDDDDDDDDDDDDDDDDDDD",
"DDDDDDDDDDDvvvvpvv%DDDDDDDDDDDDDDDDDDD#vvvvvvvvDDDDDDDDD1pvvpvvpvpvpvvvviDDDDDDDDDDDDvviii99vvvvvpvvpvvpvpvv9vvvivvDDDDDDDDDDDDD",
"DDDDDDDDDDDvpvvvpv2DDDDDDDDDDDDDDDDDDD-vvvvppvvDDDDDDDDD1vvvvvvvvvvvvpvviDDDDDDDDDDvvvpvvvvvpvpvvvvvvvvvvvpvvvvpvvvpvDDDDDDDDDDD",
"DDDDDDDDDDDvvpvvvv9DDDDDDDDDDDDDDDDDDD7vvppvvpvDDDDDDDDD;vvvppvvvpvvpvviiDDDDDDDDDpvvvvvvvvvvpivvipvivvvvivvvvpvvpvvvDDDDDDDDDDD",
"DDDDDDDDDDDivvpvvvv9DDDDDDDDDDDDDDDDD5pvvpvvvvpDDDDDDDDD<vpvvvvpvvivvvvviDDDDDDDDDvivivpvvvpvvvvvvvpvvpvvvvpivvvvvvpvvDDDDDDDDDD",
"DDDDDDDDDDDvvipvivviviDDDDDDDDDDDDD9ivvivpvvvvvDDDDDDDDD<vvpvvvpivvivviiiDDDDDDDDDvvvvpvivvivivvvivivvvivivvivvpvivvivDDDDDDDDDD",
"DDDDDDDDDDDvvvvpvvivvivvivvvvvvpvvvpvvpvpvviiivDDDDDDDDD-ppvppvvvppvivvviDDDDDDDD3vvipvvvppvvvvipvvvvivvpvpvivviivvpvvDDDDDDDDDD",
"DDDDDDDDDDDiivivviivivviivivvipvvvpvivvpvipvvvvDDDDDDDDD<vpvpvvpvpvpviviiDDDDDDDD3vpvpvpvvv9835334443444379vvivvvvpvviDDDDDDDDDD",
"DDDDDDDDDDDivivvivvvpvivvviivvvvvivvivpvvivivivDDDDDDDDD<vipvppvpvpvvivviDDDDDDDD2pviviviv2#X             .=7viviivpviDDDDDDDDDD",
"DDDDDDDDDDDevpvvvpvvpvppvppvvpppiiviivvvivviviiDDDDDDDDD<vivivppviviivviiDDDDDDDD1pvivivv3                  &ivivvviviDDDDDDDDDD",
"DDDDDDDDDDD1vipippppvpvppvviivpvivivivipvipviv5DDDDDDDDD-vvivppvviivvpipqDDDDDDDD<vpvivii* DDDDDDDDDDDDDD    3iviivpiiDDDDDDDDDD",
"DDDDDDDDDDDD1ivipvvvivpppvivipppiiviivvviviii3DDDDDDDDDD-iivvipvivpvivvpqDDDDDDDD<iviviieXDDDDDDDDDDDDDDDDD  -iviviiviDDDDDDDDDD",
"DDDDDDDDDDDD #******-9pvpppivivvvvivr<****==$DDDDDDDDDDD-viiiviiiviiiiviiDDDDDDDD-viiivieDDDDDDDDDDDDDDDDDDD -piipivviDDDDDDDDDD",
"DDDDDDDDDDDDD       .9vpvipviiiiiivii@     DDDDDDDDDDDDD-vivivivivivvviv9DDDDDDDD<vivvivv-DDDDDDDDDDDDDDDDDDD5vvviviipDDDDDDDDDD",
"DDDDDDDDDDDDDDD     .9ippipvvpvpvippi#   DDDDDDDDDDDDDDD-pvpiiivipipiiiiiDDDDDDDD-iiiiiii7DDDDDDDDDDDDDDDDDD=iiiipiiiiDDDDDDDDDD",
"DDDDDDDDDDDDDDDDDDD .9ppppppipppipppi#DDDDDDDDDDDDDDDDDD-pviippppvppivii9DDDDDDDD-pvppiivi9DDDDDDDDDDDDDDDD29iiipppvpiDDDDDDDDDD",
"DDDDDDDDDDDDDDDDDDDDX9ppppppipppipppi%DDDDDDDDDDDDDDDDDD-piiipppiippipppeDDDDDDDD-ppppppiiviiiv9iiiiiiiiiiiiviivpppppiDDDDDDDDDD",
"DDDDDDDDDDDDDDDDDDDDD9ppiiiiiiviiviiiDDDDDDDDDDDDDDDDDDD-pppppppppppppii9DDDDDDDD-ppppiippppiiivviiviiipviiiiviipppiiiDDDDDDDDDD",
"DDDDDDDDDDDDDDDDDDDDDtipviivpiiiiiiiiDDDDDDDDDDDDDDDDDDD-piiipiippiipipi9DDDDDDDD-pppipipiiiiiiiiiiiiiiiiiiiv9iiipiiieDDDDDDDDDD",
"DDDDDDDDDDDDDDDDDDDDD9viiiiiiiiiiiiviDDDDDDDDDDDDDDDDDDD-ipiipipippiiiii9DDDDDDDD-iiipiiiiipviiiiiiiviiiiiiiiiiiiiiiiiDDDDDDDDDD",
"DDDDDDDDDDDDDDDDDDDDD9iiiiiiipiiiiiiiDDDDDDDDDDDDDDDDDDD-iiiiitiiiiiiiii9DDDDDDDD$9iipiiiiiiiiiiiiiiqiiiiiiiiiiiiiiii7DDDDDDDDDD",
"DDDDDDDDDDDDDDDDDDDDD7iiiiiiiiiiiiiiiDDDDDDDDDDDDDDDDDDD-iiiiiiiiiiiiiii9DDDDDDDDD1iiiiiiiiiiiiiiiiiiieipiiiviiiiiii9DDDDDDDDDDD",
"DDDDDDDDDDDDDDDDDDDDD7ii9iipiiiiiiv9iDDDDDDDDDDDDDDDDDDD=iiiiiiiiiiiiiii9DDDDDDDDDD-7iwwi9wwiieiiiiiiiiiiiii9q9i9i95DDDDDDDDDDDD",
"DDDDDDDDDDDDDDDDDDDDD9iiiiiiiitviieiiDDDDDDDDDDDDDDDDDDD-iyieiiiwi9iiiii9DDDDDDDDDD o++@++@*9iii9viiiiiii9i7$++@+@#DDDDDDDDDDDDD",
"DDDDDDDDDDDDDDDDDDDDD8iqiii99ii9ii9iiDDDDDDDDDDDDDDDDDDD-iriieieiiii9iiq9DDDDDDDDDDD       O9iiiiq9iiyiwiei7.     DDDDDDDDDDDDDD",
"DDDDDDDDDDDDDDDDDDDDD8ie9iii9iqiieiiiDDDDDDDDDDDDDDDDDDD-eiii9iiiiiiiiii8DDDDDDDDDDDDDD    +9iii9iiieiiiiii7.  DDDDDDDDDDDDDDDDD",
"DDDDDDDDDDDDDDDDDDDDD7iiiiiiiii9iie99DDDDDDDDDDDDDDDDDDD=iqeiieeq9qi9i9e7DDDDDDDDDDDDDDDDD +qi9eiq9ii9iqi997DDDDDDDDDDDDDDDDDDDD",
"DDDDDDDDDDDDDDDDDDDDD89i9eq9qii9ie9iiDDDDDDDDDDDDDDDDDDD=iiqq9iqi9ieeiii7DDDDDDDDDDDDDDDDDD#9iqi9eii9i9eeit8DDDDDDDDDDDDDDDDDDDD",
"DDDDDDDDDDDDDDDDDDDDD7ieiiqii9ii9iieqDDDDDDDDDDDDDDDDDDD=i9iqiqiii9iqq9i7DDDDDDDDDDDDDDDDDD#9qqiieeeiqieett8DDDDDDDDDDDDDDDDDDDD",
"DDDDDDDDDDDDDDDDDDDDD79iqii999iteeee9DDDDDDDDDDDDDDDDDDD=qi9qiqq9i9iiqqe7DDDDDDDDDDDDDDDDDD$9tttqqqq9irrqqq9DDDDDDDDDDDDDDDDDDDD",
"DDDDDDDDDDDDDDDDDDDDD7i9q9qiiqi9tetttDDDDDDDDDDDDDDDDDDD=q9iqt9qi9i99qqq5DDDDDDDDDDDDDDDDDD$9itt9i9ii99rqiq9DDDDDDDDDDDDDDDDDDDD",
"DDDDDDDDDDDDDDDDDDDDD5ei9ii9qt9tetq9qDDDDDDDDDDDDDDDDDDD=iqt9t9iit9tiq9i7DDDDDDDDDDDDDDDDDD$9qiti9i9qtqti999DDDDDDDDDDDDDDDDDDDD",
"DDDDDDDDDDDDDDDDDDDDD79eq9qt9t9qqe9i9DDDDDDDDDDDDDDDDDDD=t9t9qi999i99qq95DDDDDDDDDDDDDDDDDDD9q99qqqt99i99qq8DDDDDDDDDDDDDDDDDDDD",
"DDDDDDDDDDDDDDDDDDDDD5q99t9qqq9ii9q99DDDDDDDDDDDDDDDDDDD*9e99q9qq99i9tq94DDDDDDDDDDDDDDDDDDD8qqq99i9q99qqqq7DDDDDDDDDDDDDDDDDDDD",
"DDDDDDDDDDDDDDDDDDDDD*999q9q9q999qq94DDDDDDDDDDDDDDDDDDDD3i9i99qt99qq997DDDDDDDDDDDDDDDDDDDD-999tqq99ii99971DDDDDDDDDDDDDDDDDDDD",
"DDDDDDDDDDDDDDDDDDDDDD-79i9qi99q9q81DDDDDDDDDDDDDDDDDDDDD$2999qqq99tq95DDDDDDDDDDDDDDDDDDDDDD-8qe999999q971DDDDDDDDDDDDDDDDDDDDD",
"DDDDDDDDDDDDDDDDDDDDDD +&&&&&&&&&&%DDDDDDDDDDDDDDDDDDDDDDD.%&&&&&&&&&&DDDDDDDDDDDDDDDDDDDDDDD #&&&&&&&&&*#DDDDDDDDDDDDDDDDDDDDDD",
"DDDDDDDDDDDDDDDDDDDDDDD          DDDDDDDDDDDDDDDDDDDDDDDDD           DDDDDDDDDDDDDDDDDDDDDDDDD          DDDDDDDDDDDDDDDDDDDDDDDD",
"DDDDDDDDDDDDDDDDDDDDDDDDD      DDDDDDDDDDDDDDDDDDDDDDDDDDDDD       DDDDDDDDDDDDDDDDDDDDDDDDDDDDD      DDDDDDDDDDDDDDDDDDDDDDDDDD",
"DDDDDDDDDDDDDDDDDDDDDDDDDDDDDDDDDDDDDDDDDDDDDDDDDDDDDDDDDDDDDDDDDDDDDDDDDDDDDDDDDDDDDDDDDDDDDDDDDDDDDDDDDDDDDDDDDDDDDDDDDDDDDDDD",
"DDDDDDDDDDDDDDDDDDDDDDDDDDDDDDDDDDDDDDDDDDDDDDDDDDDDDDDDDDDDDDDDDDDDDDDDDDDDDDDDDDDDDDDDDDDDDDDDDDDDDDDDDDDDDDDDDDDDDDDDDDDDDDDD",
"DDDDDDDDDDDDDDDDDDDDDDDDDDDDDDDDDDDDDDDDDDDDDDDDDDDDDDDDDDDDDDDDDDDDDDDDDDDDDDDDDDDDDDDDDDDDDDDDDDDDDDDDDDDDDDDDDDDDDDDDDDDDDDDD",
"DDDDDDDDDDDDDDDDDDDDDDDDDDDDDDDDDDDDDDDDDDDDDDDDDDDDDDDDDDDDDDDDDDDDDDDDDDDDDDDDDDDDDDDDDDDDDDDDDDDDDDDDDDDDDDDDDDDDDDDDDDDDDDDD",
"DDDDDDDDDDDDDDDDDDDDDDDDDDDDDDDDDDDDDDDDDDDDDDDDDDDDDDDDDDDDDDDDDDDDDDDDDDDDDDDDDDDDDDDDDDDDDDDDDDDDDDDDDDDDDDDDDDDDDDDDDDDDDDDD",
"DDDDDDDDDDDDDDDDDDDDDDDDDDDDDDDDDDDDDDDDDDDDDDDDDDDDDDDDDDDDDDDDDDDDDDDDDDDDDDDDDDDDDDDDDDDDDDDDDDDDDDDDDDDDDDDDDDDDDDDDDDDDDDDD",
"DDDDDDDDDDDDDDDDDDDDDDDDDDDDDDDDDDDDDDDDDDDDDDDDDDDDDDDDDDDDDDDDDDDDDDDDDDDDDDDDDDDDDDDDDDDDDDDDDDDDDDDDDDDDDDDDDDDDDDDDDDDDDDDD",
"DDDDDDDDDDDDDDDDDDDDDDDDDDDDDDDDDDDDDDDDDDDDDDDDDDDDDDDDDDDDDDDDDDDDDDDDDDDDDDDDDDDDDDDDDDDDDDDDDDDDDDDDDDDDDDDDDDDDDDDDDDDDDDDD",
"DDDDDDDDDDDDDDDDDDDDDDDDDDDDDDDDDDDDDDDDDDDDDDDDDDDDDDDDDDDDDDDDDDDDDDDDDDDDDDDDDDDDDDDDDDDDDDDDDDDDDDDDDDDDDDDDDDDDDDDDDDDDDDDD",
"DDDDDDDDDDDDDDDDDDDDDDDDDDDDDDDDDDDDDDDDDDDDDDDDDDDDDDDDDDDDDDDDDDDDDDDDDDDDDDDDDDDDDDDDDDDDDDDDDDDDDDDDDDDDDDDDDDDDDDDDDDDDDDDD",
"DDDDDDDDDDDDDDDDDDDDDDDDDDDDDDDDDDDDDDDDDDDDDDDDDDDDDDDDDDDDDDDDDDDDDDDDDDDDDDDDDDDDDDDDDDDDDDDDDDDDDDDDDDDDDDDDDDDDDDDDDDDDDDDD",
"DDDDDDDDDDDDDDDDDDDDDDDDDDDDDDDDDDDDDDDDDDDDDDDDDDDDDDDDDDDDDDDDDDDDDDDDDDDDDDDDDDDDDDDDDDDDDDDDDDDDDDDDDDDDDDDDDDDDDDDDDDDDDDDD",
"DDDDDDDDDDDDDDDDDDDDDDDDDDDDDDDDDDDDDDDDDDDDDDDDDDDDDDDDDDDDDDDDDDDDDDDDDDDDDDDDDDDDDDDDDDDDDDDDDDDDDDDDDDDDDDDDDDDDDDDDDDDDDDDD",
"DDDDDDDDDDDDDDDDDDDDDDDDDDDDDDDDDDDDDDDDDDDDDDDDDDDDDDDDDDDDDDDDDDDDDDDDDDDDDDDDDDDDDDDDDDDDDDDDDDDDDDDDDDDDDDDDDDDDDDDDDDDDDDDD",
"DDDDDDDDDDDDDDDDDDDDDDDDDDDDDDDDDDDDDDDDDDDDDDDDDDDDDDDDDDDDDDDDDDDDDDDDDDDDDDDDDDDDDDDDDDDDDDDDDDDDDDDDDDDDDDDDDDDDDDDDDDDDDDDD",
"DDDDDDDDDDDDDDDDDDDDDDDDDDDDDDDDDDDDDDDDDDDDDDDDDDDDDDDDDDDDDDDDDDDDDDDDDDDDDDDDDDDDDDDDDDDDDDDDDDDDDDDDDDDDDDDDDDDDDDDDDDDDDDDD",
"DDDDDDDDDDDDDDDDDDDDDDDDDDDDDDDDDDDDDDDDDDDDDDDDDDDDDDDDDDDDDDDDDDDDDDDDDDDDDDDDDDDDDDDDDDDDDDDDDDDDDDDDDDDDDDDDDDDDDDDDDDDDDDDD",
"DDDDDDDDDDDDDDDDDDDDDDDDDDDDDDDDDDDDDDDDDDDDDDDDDDDDDDDDDDDDDDDDDDDDDDDDDDDDDDDDDDDDDDDDDDDDDDDDDDDDDDDDDDDDDDDDDDDDDDDDDDDDDDDD"
};
