/* XPM */
static char *baobab[] = {
/* columns rows colors chars-per-pixel */
"24 24 45 1 ",
"  c #4A244A1F4A38",
". c #437040C45AFB",
"X c #56A256A056B8",
"o c #5C105C0D5C15",
"O c #54A852206A78",
"+ c #643A643C643A",
"@ c #7AF97AF97AF9",
"# c #47FA39A79DC9",
"$ c #6E5F5DFFE5D6",
"% c #6D0D61A1E850",
"& c #79DD6BA0ED78",
"* c #89677A1AD1B1",
"= c #878E7D17F557",
"- c #8B498B498B49",
"; c #9E959E959E95",
": c #B3DCB3DCB3DC",
"> c #91F18552CFD8",
", c #8F408926F1A4",
"< c #A4B6A566F8B1",
"1 c #E82EE827E844",
"2 c #E731E568ED62",
"3 c #EACFEACCEAD9",
"4 c #EC5DEC59EC6E",
"5 c #ECFBECC3EDBB",
"6 c #EDA1ED9FEDA9",
"7 c #ED5BECC2EF42",
"8 c #F025F025F025",
"9 c #EAF6E791F3C5",
"0 c #EBBAE7A8F551",
"q c #EB66E86BF340",
"w c #F1D0F1D0F1D0",
"e c #F2FEF2FEF2FE",
"r c #F3A4F3A4F3A4",
"t c #F504F504F504",
"y c #F5EEF5EEF5EF",
"u c #F6A3F6A3F6A4",
"i c #F7CCF7CCF7CC",
"p c #F914F914F915",
"a c #F9FFF9FFF9FF",
"s c #FB20FB20FB21",
"d c #FC20FC20FC20",
"f c #FD1AFD1AFD1A",
"g c #FE0BFE0BFE0B",
"h c #FEC4FEC4FEC4",
"j c None",
/* pixels */
"jjjjjjjjjjjjjjjjjjjjjjjj",
"jjjjjjjjjjjjjjjjjjjjjjjj",
"jjjjgggggggggggggggdjjjj",
"jjjjggggggggggggggddjjjj",
"jjjgggggggggggggdddddjjj",
"jjjggggggggdggdgdddddjjj",
"jjjgggggggdddddddddddjjj",
"jjjgggggddddidddidiidjjj",
"jjgddddddddiddiiiiiiijjj",
"jjggddiddidiiiiiiiiiiijj",
"jjdddidiiidiiiiiitrirrjj",
"jjdddddidiiiiiiririrrrjj",
"jjddddpdiidiiiiirirrrrjj",
"jdddiddidiiiirrrrr8r888j",
"jdiddiiiiririrrr8888884j",
"jidiiiiirirrr8r88888848j",
"jdiiirirrrrr8r888484444j",
"iiiirirrr8r8888484447771",
"jrr8rr88884844441494092j",
"j:-@++oXoooXooXXXO#$=&>j",
"j;@oXX    XXXX   .#%<,*j",
"jjjjjjjjjjjjjjjjjjjjjjjj",
"jjjjjjjjjjjjjjjjjjjjjjjj",
"jjjjjjjjjjjjjjjjjjjjjjjj"
};
