/* XPM */
static char *browser[] = {
/* columns rows colors chars-per-pixel */
"24 24 27 1 ",
"  c #7842787D785E",
". c #80B7808C808A",
"X c #AB2AAB2FAB46",
"o c #B2AFB2E8B2EA",
"O c #C438C43AC44F",
"+ c #CA03C9EDC9FE",
"@ c #CE1CCE15CE5D",
"# c #D344D333D34D",
"$ c #E78FE79AE79B",
"% c #EACDEAC7EAC8",
"& c #EDFAEE0EEE0D",
"* c #F05AF052F055",
"= c #F0CCF0C4F0CA",
"- c #F18AF18EF18F",
"; c #F2FFF306F307",
": c #F43FF444F442",
"> c #F4CEF4D0F4D0",
", c #F663F65FF65A",
"< c #F730F733F733",
"1 c #F7D9F7D6F7D7",
"2 c #F89CF89AF89B",
"3 c #FA05FA05FA06",
"4 c #FB27FB24FB25",
"5 c #FC45FC44FC45",
"6 c #FCFFFD00FCFE",
"7 c #FE02FE03FE02",
"8 c None",
/* pixels */
"888888888888888888888888",
"888888888888888888888888",
"888888888666658888888888",
"888888856566655668888888",
"888888551155555556888888",
"888886555555555515688888",
"888866565888855155658888",
"888565551688885565565888",
"888555555888865;;1555888",
"885515188888851551155888",
"8851;1888888855551151588",
"8815588888885511511;5188",
"881;15888888511111111188",
"88;5111158885;;;1111;188",
"88;585111588851111111888",
"888161;;11588885;1;1;888",
"888%51*;;15888851;1;;888",
"8888;51;;;188888;;;*8888",
"8888O;5**1888888;;*88888",
"88888o$*;5888888;$888888",
"888888.+$;155;;%#8888888",
"88888888 XO@#+o888888888",
"888888888888888888888888",
"888888888888888888888888"
};
