/* XPM */
static char *ccc_large[] = {
/* columns rows colors chars-per-pixel */
"24 24 18 1 ",
"  c #D6DFD6F5D6CE",
". c #E56BE578E571",
"X c #EB37EB3BEB2B",
"o c #ECA5ECA5ECA0",
"O c #EDF9EDF9EDE8",
"+ c #EED9EEDEEEDA",
"@ c #F092F08FF088",
"# c #F2C1F2C3F2C1",
"$ c #F51BF51AF51B",
"% c #F5D7F5D0F5D3",
"& c #F6E7F6E0F6E1",
"* c #F7F3F7F5F7DF",
"= c #F92BF92AF929",
"- c #FA4CFA48FA49",
"; c #FAE7FAE6FAE6",
": c #FBEBFBEBFBEA",
"> c #FD2BFD2CFD2A",
", c None",
/* pixels */
",,,,,,,,,,,,,,,,,,,,,,,,",
",,,,,,,,,,,,,,,,,,,,,,,,",
",,,,,,,,,,,,,,,,,,,,,,,,",
",,,,,,,,,,,,,,,,,,,,,,,,",
",,,,,,,,,,,,,,,,,,,,,,,,",
",,,,,,,,,,,,,,,,,,,,,,,,",
",,,,,,,,,,,,,,,,,,,,,,,,",
",,,,,,,,,>>,,>>>>>>,,,,,",
",,,,,,,,>>:::>>>::>>,,,,",
",,,,,,,::>::,X#::*+,:::,",
",,,,,,::::::,,,::,,,:::,",
",,,,,:::*::*,,,::,,,*:*,",
",,,,**:* ***,,,::,,,**:,",
",,,***##,***,,,**,,,***,",
",,****,*#***,,,**,,,#*#,",
",,#*#,,.,##*,,,**,,,##*,",
",,++,,,,,++,,,,++,,,,+#,",
",,,,,,,,,,,,,,,,,,,,,,,,",
",,,,,,,,,,,,,,,,,,,,,,,,",
",,,,,,,,,,,,,,,,,,,,,,,,",
",,,,,,,,,,,,,,,,,,,,,,,,",
",,,,,,,,,,,,,,,,,,,,,,,,",
",,,,,,,,,,,,,,,,,,,,,,,,",
",,,,,,,,,,,,,,,,,,,,,,,,"
};
