/* XPM */
static char *cmake[] = {
/* columns rows colors chars-per-pixel */
"24 24 21 1 ",
"  c #66F166F366F3",
". c #E02AE02FE029",
"X c #E2F5E2F9E2F4",
"o c #EB3DEB3EEB3B",
"O c #EC11EC11EC11",
"+ c #EDEFEDF2EDF0",
"@ c #EEF8EEF9EEFA",
"# c #F0F3F0F4F0F3",
"$ c #F2E4F2E3F2E1",
"% c #F455F455F445",
"& c #F52CF52BF51E",
"* c #F616F614F5EC",
"= c #F6FEF6F8F6E4",
"- c #F817F816F811",
"; c #F916F914F913",
": c #F9A9F9A9F9A9",
"> c #FAF5FAF5FAF8",
", c #FC38FC38FC38",
"< c #FCFBFCFBFCFB",
"1 c #FDD8FDD8FDD8",
"2 c None",
/* pixels */
"222222222222222222222222",
"222222222222222222222222",
"222222222221122222222222",
"222222222221122222222222",
"222222222211112222222222",
"2222222222,1112222222222",
"222222222,,,,,,222222222",
"222222222,,,,,,222222222",
"22222222,,,,=;,,22222222",
"22222222,,,,,,=,22222222",
"2222222,==,==,,=,2222222",
"2222222==,=,,=,-,2222222",
"222222=,====O=====222222",
"222222=====%2%====222222",
"22222=====%22%===%=22222",
"22222%%%%2222%=%%%=22222",
"2222%%%%%2222+%%%+%+2222",
"2222%+%++%%+2+%%%%%%2222",
"222++++++%++++++o+#++222",
"222+++++++++%++++++++222",
"22oo+ooOo+oooo+ooo+o+o22",
"22X....X....X...X...XX22",
"222 22222222222222222222",
"222222222222222222222222"
};
