/* XPM */
static char *control_center2[] = {
/* columns rows colors chars-per-pixel */
"24 24 30 1 ",
"  c #8C898CE08CAF",
". c #91B191D491D0",
"X c #9A969AB59AB3",
"o c #D19CD19CD194",
"O c #D9C5D9C0D9CC",
"+ c #DC05DC04DC0F",
"@ c #E13CE12BE127",
"# c #E324E31EE332",
"$ c #E5A3E5ADE59E",
"% c #E769E779E778",
"& c #E94EE942E94A",
"* c #EBA4EBABEBB2",
"= c #ECECECDBECEA",
"- c #ED94ED95ED94",
"; c #EFCAEFD1EFC9",
": c #F091F08FF08F",
"> c #F1F9F1F0F1F8",
", c #F340F344F340",
"< c #F445F448F441",
"1 c #F517F516F51C",
"2 c #F63CF63DF640",
"3 c #F6DFF6DBF6E2",
"4 c #F7B7F7B6F7B9",
"5 c #F8F7F8FAF8F7",
"6 c #FA52FA4CFA4F",
"7 c #FB0DFB0DFB0E",
"8 c #FC1AFC1AFC1E",
"9 c #FCEBFCEBFCEF",
"0 c #FD89FD89FD89",
"q c None",
/* pixels */
"qqqqqqqqqqqqqqqqqqqqqqqq",
"qqqqqqqqqqqqqqqqqqqqqqqq",
"qqqqqqqqqqqqqqqqqqqqqqqq",
"qqqqqqqqqqqqqqqqqqqqqqqq",
"qqqq000qqqq00qqqq000qqqq",
"qqqq000qqqq000qqq000qqqq",
"qqqq800qq000800qq000qqqq",
"qqqq888qq8>%%>88q888qqqq",
"qqqq888qq8qqqo88q888qqqq",
"qqqq888qq8488884q888qqqq",
"qqqq488qq+=88>#qq888qqqq",
"qqq4448qqq&884qqq444qqqq",
"qq8>&&=48qq444qqq844qqqq",
"qq8&qqq>4qq444qq44444qqq",
"qq4444>44qq444q44&%%>4qq",
"qq#+>>4%qqq4>>q>=qqq+4qq",
"qqqq>4=qqq=4>>q:<4>>>>qq",
"qqqq>>>qqq&>>>qq+=4>#%qq",
"qqqq=>>qqq&>>>qqq%=>qqqq",
"qqqq&==qqqq&&=qqq%&=qqqq",
"qqqqq.qqqqq Xqqqqq qqqqq",
"qqqqqqqqqqqqqqqqqqqqqqqq",
"qqqqqqqqqqqqqqqqqqqqqqqq",
"qqqqqqqqqqqqqqqqqqqqqqqq"
};
