/* XPM */
static char *dia_menu[] = {
/* columns rows colors chars-per-pixel */
"24 24 58 1 ",
"  c #918C918491F3",
". c #939C93B29350",
"X c #9846984C9858",
"o c #AA1ABF14911B",
"O c #B77AB786B799",
"+ c #C1FBDA8D9FA0",
"@ c #E53CF86CB371",
"# c #C134C132C149",
"$ c #C454C430C425",
"% c #C5B1C5C6C585",
"& c #D607D61ED602",
"* c #DCD6DCDADCBB",
"= c #DE6AEC98C8D2",
"- c #ED8DF93AD439",
"; c #E209E20EE1D6",
": c #E533E55BE52D",
"> c #E706E715E70E",
", c #E9EBE9F7E9CF",
"< c #EB19EB13EB16",
"1 c #EC5BEC5FEC65",
"2 c #EDE3EDE7EDE4",
"3 c #EEF7EEF1EEE9",
"4 c #EF6BEF6DEF73",
"5 c #F02FF042F027",
"6 c #EC88F3CFE269",
"7 c #EF83F679E4EF",
"8 c #F2F6F9BDE71F",
"9 c #F167F689EA6E",
"0 c #F32FF5F6EFEC",
"q c #F4F3FA0EECBC",
"w c #F681FB27EECD",
"e c #F14BF149F146",
"r c #F208F207F21D",
"t c #F24FF389F10F",
"y c #F2F0F2ECF2F6",
"u c #F42DF431F435",
"i c #F51CF51FF520",
"p c #F661F662F662",
"a c #F6E0F6DBF6D3",
"s c #F855F858F855",
"d c #F604F94AF1B3",
"f c #F7B1FA9DF3AE",
"g c #F856F88AF825",
"h c #F893FB63F4A3",
"j c #FA1CFBA3F83C",
"k c #F8BCF8BBF8C5",
"l c #F9FCFA01F9FF",
"z c #F9FFFA90F977",
"x c #FAE0FB5DFA67",
"c c #FAFBFAF8FAFD",
"v c #FBF4FBF6FBFA",
"b c #FC2AFD6DFA7D",
"n c #FC53FCC6FBDF",
"m c #FCF8FDADFC14",
"M c #FCF6FD02FCED",
"N c #FD87FDD0FD30",
"B c #FDCEFDD1FDC8",
"V c None",
/* pixels */
"VVVVVVVVVVVVVVVVVVVVVVVV",
"VVVV@VVVVVVVVVVVVVVVVVVV",
"VVV-mMmwVVVVVVVVVVVVVVVV",
"VVM8MMMhhMMMMMVVVVVVVVVV",
"VMMqMMMhbMMMMMMMMMVVVVVV",
"Vkg7MMMdtkkkkMMMMMMMVVVV",
"VVV+6q9=oVVV%VO&3kMMMVVV",
"VVVVtkkVVVVVMVVVV#uMkMVV",
"VVVVkMMVVVVkMVVVVVVukkVV",
"VVVVkkkVVVVbkMVVVVVVpMMV",
"VVVVpkkVVVkkkkVVVVVVukkV",
"VVVVpkkVVVkp,kkVVVVVVpkV",
"VVVVuppVVppVVppVVVVVVkkV",
"VVVVuppVVppVV3ppVVVVpppV",
"VVVVuppVppppppppVVVVpppV",
"VVVV3up3>,>>>>>,3VVuuuVV",
"VVVV3uuVVVVVVVVVVuuu3,VV",
"VVVV3uu3VVVVVVV33uu36VVV",
"V3u3u333u33u3u3uuu>VVVVV",
"V,,,333,,,>,,,>;&OVVVVVV",
"VVXX*,,%.X..X.VVVVVVVVVV",
"VVVVV;;VVVVVVVVVVVVVVVVV",
"VVVVVVVVVVVVVVVVVVVVVVVV",
"VVVVVVVVVVVVVVVVVVVVVVVV"
};
