/* XPM */
static char *gbrainy[] = {
/* columns rows colors chars-per-pixel */
"24 24 30 1 ",
"  c #C1A4C1CDC1C1",
". c #C9BAC9D3C9C3",
"X c #CCC3CD18CCE6",
"o c #D02BD08DD06C",
"O c #D724D71CD71E",
"+ c #DE5CDE55DE5A",
"@ c #DF3FDF39DF58",
"# c #E38AE390E396",
"$ c #E58DE5A5E5A3",
"% c #E7E0E7DBE7DE",
"& c #E92BE930E92E",
"* c #EB29EB2CEB35",
"= c #ED35ED35ED2F",
"- c #EEEEEEEEEEF0",
"; c #F032F032F034",
": c #F1A4F1A4F1AA",
"> c #F34DF34DF34E",
", c #F419F41AF418",
"< c #F4F8F4FFF4FA",
"1 c #F5D4F5C7F5CA",
"2 c #F6B8F6BBF6B9",
"3 c #F7DBF7DFF7DE",
"4 c #F907F906F905",
"5 c #FA4AFA4DFA4C",
"6 c #FB01FB00FAFC",
"7 c #FBDFFBD9FBDD",
"8 c #FCDBFCDBFCDB",
"9 c #FDFDFDF9FDFE",
"0 c #FE8CFE84FE8B",
"q c None",
/* pixels */
"qqqqqqqqqqqqqqqqqqqqqqqq",
"qq00000000000000000000qq",
"q0000070000000000000000q",
"q7000000077777007007007q",
"q0007073# #3#q+>7770700q",
"q77073qqqqqq7qqqX>70007q",
"q7777qqqqqqq7qqqqq#7778q",
"q777qqqqqqq7qqqqqqq#777q",
"q37qqqqqqq7qqqq7737q377q",
"q77qqqqqqqqqq7>33qq3*77q",
"q77qqqqqq3333qqq3qqqq37q",
"q37qqqqqq;qqqqqqq3qqq33q",
"q333qqq3>qqqqqqqq3qqq33q",
"q333333>qqqqqqqqq3>3333q",
"q333333qqqqqqqqq>*qq>3>q",
"q>>>>3>3qqqqqq>>qqqq;>3q",
"q;>>3>>>>>>>**qqqqqq>>>q",
"q;>;;>>>;>>>#O;qqqq>>>>q",
"q*>;;;;>;;>;>qq;;;;;;;;q",
"q;;;;;;;;;;;;;q+;;;;;;;q",
"q**;*;**;*;**;**;**;;**q",
"q+*****************;**#q",
"qq XXXXXXXXXXXXXXXXXXoqq",
"qqqqqqqqqqqqqqqqqqqqqqqq"
};
