/* XPM */
static char *gcolor2[] = {
/* columns rows colors chars-per-pixel */
"24 24 33 1 ",
"  c #9C1B9C2C9C2B",
". c #B461B46CB461",
"X c #B6A1B6BAB69F",
"o c #C008C01FC024",
"O c #C410C40AC415",
"+ c #C9FCC9E5CA04",
"@ c #CD78CD7DCD7F",
"# c #D279D28ED28F",
"$ c #D704D70ED701",
"% c #DD88DD81DD76",
"& c #DF6ADF6BDF6B",
"* c #E2E3E2EEE2E7",
"= c #E598E58BE592",
"- c #E6F7E6FAE6FD",
"; c #E914E924E92A",
": c #EC22EC21EC22",
"> c #ED5BED5BED5E",
", c #EECCEEC2EEBE",
"< c #F004F007F003",
"1 c #F16EF172F172",
"2 c #F28BF286F290",
"3 c #F3ACF3A9F3AB",
"4 c #F4C1F4CAF4C2",
"5 c #F673F663F665",
"6 c #F6ABF6A5F6A4",
"7 c #F7ECF7F8F7F6",
"8 c #F8DBF8D9F8D9",
"9 c #F9E4F9E5F9E6",
"0 c #FAFFFB03FB01",
"q c #FBDBFBDEFBDC",
"w c #FD0BFD0AFD08",
"e c #FE35FE35FE2E",
"r c None",
/* pixels */
"rrrrrrrrrrrrrrrrrrrrrrrr",
"rrrrrrrrrrrwwrrrrrrrrrrr",
"rrrrrrrrww0730wwrrrrrrrr",
"rrrrrrww07rrrr-0wwrrrrrr",
"rrrrww0>rrrrrrrr&30wrrrr",
"rr0w0-rrrrrrrrrrrr+7wwrr",
"rr0000rrrrrrrrrrrrr00wrr",
"rr03$70rrrrrrrrrr003>0rr",
"rr00rr;00rrrrrr000rr00rr",
"rr07rrr+300rrr00>rrr70rr",
"rr70rrrrr&70003rrrrr77rr",
"rr70rrrrrr.>7;rrrrrr70rr",
"rr37rrrrrrr;7rrrrrrr77rr",
"rr37rrrrrrr>3rrrrrrr37rr",
"rrr7rrrrrrr>7rrrrrrr3rrr",
"rrr37rrrrrr;3rrrrrr33rrr",
"rrrO;3rrrrr;3rrrrr33-rrr",
"rrrr *3rrrr-3rrrr3>rrrrr",
"rrrrrr@;3rr->rr3>;rrrrrr",
"rrrrrrr.*>r*;r>>&rrrrrrr",
"rrrrrrrrr#;;>;-rrrrrrrrr",
"rrrrrrrrrr.--&rrrrrrrrrr",
"rrrrrrrrrrrrorrrrrrrrrrr",
"rrrrrrrrrrrrrrrrrrrrrrrr"
};
