/* XPM */
static char *geany[] = {
/* columns rows colors chars-per-pixel */
"24 24 30 1 ",
"  c #92A493369316",
". c #C53EC53DC541",
"X c #D5E2D626D5FF",
"o c #D813D83BD845",
"O c #D9ADD9BCD98A",
"+ c #E166E185E182",
"@ c #E2FFE320E30E",
"# c #E483E491E485",
"$ c #E79FE79FE7A8",
"% c #E903E901E8F7",
"& c #EB64EB7CEB7A",
"* c #ED0DECFDECEE",
"= c #EDA0ED99ED8A",
"- c #EE89EE8EEEA3",
"; c #F018F019F014",
": c #F0E2F0E1F0DE",
"> c #F299F299F2AF",
", c #F3A2F399F396",
"< c #F53FF53EF53E",
"1 c #F609F602F603",
"2 c #F6ECF6E6F6E6",
"3 c #F83AF83AF839",
"4 c #F8D6F8E1F8D9",
"5 c #F9C9F9CAF9C7",
"6 c #FA7EFA79FA81",
"7 c #FB48FB47FB45",
"8 c #FBC9FBCEFBCA",
"9 c #FD0CFD0DFD0A",
"0 c #FDC8FDCAFDC8",
"q c None",
/* pixels */
"qqqqqqqqqqqqqqqqqqqqqqqq",
"qqqqqqqqqqqqqqqqqqqqqqqq",
"qqqqqqqqqqqqqqqqq999qqqq",
"qqqqqqqqqqqqq99777qqqqqq",
"qqqqqqqqqqqq97*qqqqqqqqq",
"qqqqqqqqqqq77qqqqqqqqqqq",
"qqqqqqqqqq77qqq7qqqqqqqq",
"qqqqqqqqq77qqq73qqqqqqqq",
"qqqqqqq77qqq773qqqqqqqqq",
"qqqqqqq>qq73>qqqqqqqqqqq",
"qqqqq3733*&qqqqqqqqqqqqq",
"qq7>>qqqqqqqqqqqqqqqqqqq",
"q3>qqqqqqqqqqqqqqqqqqqqq",
"q>qqqqqqqqqqqqqqqqqqqqqq",
"qqqqqqqqqqqqqqqqqqqqqqqq",
"qqqqqqqqqq>>>qqqqqq>>qqq",
"qq>>qqqqqq$**qqqq>*XX*qq",
"qqq$;qqqq>*>>>*;>*qqq$qq",
"qqqq$*qq>****:*>*qq**&qq",
"qqqqqO*********&&qqqqqqq",
"qqqqqq.$&&&&&&&+qqqqqqqq",
"qqqqqqq .XXXOoXqqqqqqqqq",
"qqqqqqqqqqqqqqqqqqqqqqqq",
"qqqqqqqqqqqqqqqqqqqqqqqq"
};
