/* XPM */
static char *google_earth[] = {
/* columns rows colors chars-per-pixel */
"24 24 35 1 ",
"  c #9832982C984E",
". c #A32EA315A321",
"X c #B033B03DB043",
"o c #B1DDB1D3B1CB",
"O c #C1D5C1D1C1EF",
"+ c #C64BC648C652",
"@ c #C97DC99DC994",
"# c #CCBACCB7CCB7",
"$ c #D0E7D0E3D0E7",
"% c #D7F7D7FBD7F9",
"& c #DE43DE46DE20",
"* c #DF70DF76DF63",
"= c #E30FE30FE2EB",
"- c #E5B3E5C4E5B5",
"; c #E763E756E755",
": c #E947E947E932",
"> c #EC38EC36EC37",
", c #EDE7EDE3EDEE",
"< c #EF51EF50EF4B",
"1 c #F085F083F088",
"2 c #F2E9F2EBF2EF",
"3 c #F3DAF3D8F3DC",
"4 c #F51AF514F513",
"5 c #F65BF65CF659",
"6 c #F6DEF6E1F6E1",
"7 c #F774F779F771",
"8 c #F7FCF7F9F7FC",
"9 c #F8DBF8DAF8DC",
"0 c #F9E3F9E4F9E6",
"q c #FA82FA81FA78",
"w c #FAF9FAF8FAF6",
"e c #FBF4FBF3FBF5",
"r c #FD1DFD1EFD1B",
"t c #FDF4FDF4FDF4",
"y c None",
/* pixels */
"yyyyyyyyyyyyyyyyyyyyyyyy",
"yyyyyyyyyyyyyyyyyyyyyyyy",
"yyyyyyyyyeeeyyyyyyyyyyyy",
"yyyyyyeeeeeeeeyyyyyyyyyy",
"yyyyyyy%%2eeeeeeyyyyyyyy",
"yyyyyyyyyy@4eeeeeyyyyyyy",
"yyyyyyyyyyyy4eeeeeyyyyyy",
"yyyyeeeyyyyyy2eeeeyyyyyy",
"yyyeeeeeeyyyyy>eeeeyyyyy",
"yyeee9eeeeeyyyy;eeeeyyyy",
"yy4ee49eeeeeyyyy%4eeeeyy",
"yye9eeeee4e4eeyyy+,ee4yy",
"yye4e94ee4ee4e4yyyy*44yy",
"yy4e94e44e44e44e4yyyyyyy",
"yy244ee4944ee94e4eeyyyyy",
"yy>*+;24e444444444444yyy",
"yyyyyy.%>244444444242yyy",
"yyyyyyyyyO%>,224422,yyyy",
"yyyyyyyyyyyy o+++Ooyyyyy",
"yyyyyyyy2yyyyyyyyyyyyyyy",
"yyyyyyy;,,2,1,,,,yyyyyyy",
"yyyyyyyyo$*==*%#yyyyyyyy",
"yyyyyyyyyyyyyyyyyyyyyyyy",
"yyyyyyyyyyyyyyyyyyyyyyyy"
};
