/* XPM */
static char *graveman[] = {
/* columns rows colors chars-per-pixel */
"24 24 42 1 ",
"  c #9290928E9263",
". c #ACB5ACB5ACB2",
"X c #AFBEAFABAF7C",
"o c #B9E1B9D4BA19",
"O c #BC7DBC7FBC6A",
"+ c #BF1DBF1CBEEB",
"@ c #C4BFC4BFC469",
"# c #C582C573C560",
"$ c #D56DD567D544",
"% c #D958D956D92E",
"& c #DDF6DDF7DDF9",
"* c #DFA7DF9DDF91",
"= c #E30EE307E2FA",
"- c #E51AE505E500",
"; c #E86BE86AE875",
": c #E9A8E9A3E993",
"> c #EAE5EAE3EAE4",
", c #EC34EC29EBE9",
"< c #ED37ED32ED24",
"1 c #EE4CEE44EE10",
"2 c #EE6DEE72EE6A",
"3 c #EF31EF39EEFA",
"4 c #EFC0EFC5EFBD",
"5 c #F088F088F05A",
"6 c #F107F0FFF0FF",
"7 c #F182F185F148",
"8 c #F211F20BF1E3",
"9 c #F329F325F2F6",
"0 c #F41DF419F423",
"q c #F531F534F511",
"w c #F65DF65FF65D",
"e c #F722F720F71C",
"r c #F773F77AF780",
"t c #F7FDF7FDF7FC",
"y c #F8FCF8FCF8FC",
"u c #FA53FA54FA5D",
"i c #FB0AFB0AFB08",
"p c #FBFEFBFDFC00",
"a c #FC7CFC7BFC7B",
"s c #FCE6FCE6FCE4",
"d c #FE09FE0DFE0C",
"f c None",
/* pixels */
"ffffffffffffffffffffffff",
"fffffffffsssssssffffffff",
"fffffffsssssssssssffffff",
"fffffssssssiiisssssfffff",
"ffffsssse*ff>fO-isssffff",
"fffsssi6ffffsffff6sssfff",
"fffsssfffffsffffff6isiff",
"ffiistffffiifffffffiisff",
"ffiiifffffiiiffffff6iiff",
"ffiiiffffiiiiiifffffiiif",
"fiiiffffi6iiiiifefffeief",
"feeifffiff%4eeiffiffeiif",
"feeeffeeffff>ieffeefeief",
"ffeeffeeefff46ffeeeeeeef",
"ffeeef4eeeff6ffeee6fe6ef",
"ff4eeffe6efe6f5ee6f6qeff",
"ff-6eef66>5e6ff>q6fq66ff",
"fff>6666;$6666>.46656fff",
"ffff,6664>64665=44544fff",
"ffff#>6644446644444>ffff",
"fffffX*>44>4,4>4,>*fffff",
"fffffffo%>->,>-=%fffffff",
"fffffffff XO#oXfffffffff",
"ffffffffffffffffffffffff"
};
