/* XPM */
static char *kxsldbg[] = {
/* columns rows colors chars-per-pixel */
"24 24 29 1 ",
"  c #AC4EAC5CAC6E",
". c #BFA1BF76BFAC",
"X c #D001CFE6D017",
"o c #D23BD252D259",
"O c #DFEDE039E03A",
"+ c #E396E349E398",
"@ c #E417E40DE415",
"# c #E69BE69BE6A3",
"$ c #EAD4EAD2EAD3",
"% c #EB91EB8EEB93",
"& c #EE68EE64EE6F",
"* c #EEB3EEB6EEB9",
"= c #F1A3F1A6F1A3",
"- c #F29BF29BF298",
"; c #F445F442F43F",
": c #F4D3F4D2F4D0",
"> c #F599F596F59A",
", c #F67BF65EF66C",
"< c #F6CFF6D2F6CE",
"1 c #F7DFF7D0F7DC",
"2 c #F878F869F873",
"3 c #F92EF911F928",
"4 c #FA4FFA54FA4F",
"5 c #FB28FB29FB2B",
"6 c #FC46FC48FC46",
"7 c #FD57FD56FD55",
"8 c #FDF1FDEEFDF2",
"9 c #FE7FFE7FFE86",
"0 c None",
/* pixels */
"000000000000000000000000",
"000000000000000000000000",
"000000000000000000000000",
"000000007700000000000000",
"000000077770000000000000",
"000077777777770000000000",
"000007777477470000000000",
"00004444%o%4470000000000",
"00044440000:444000000000",
"000444400000444:00000000",
"000@;::0000:::;000000000",
"0000%:::00;:::0000000000",
"00000;;;::;::;0000000000",
"0000%%%%%%%%%%0000000000",
"00000X0.%%@. 00007700000",
"00000000o+00007777777000",
"000000000000004744474000",
"000000000000004640044400",
"0000000000000:4:000:4:00",
"00000000000000;;:00::;00",
"00000000000000%;;;;;;000",
"00000000000000%@@%%@@000",
"00000000000000000+@00000",
"000000000000000000000000"
};
