/* XPM */
static char *opera[] = {
/* columns rows colors chars-per-pixel */
"24 24 29 1 ",
"  c #8865881E8813",
". c #9AE99A8F9AA2",
"X c #9D4D9CE19D01",
"o c #A2FFA2B5A2B7",
"O c #A349A31AA323",
"+ c #B898B85CB847",
"@ c #BEF5BECCBEEB",
"# c #D4BCD458D483",
"$ c #DEF1DEADDEDA",
"% c #E370E362E368",
"& c #E60CE5FDE600",
"* c #E9B6E9A1E9AB",
"= c #EB00EAC3EAE7",
"- c #EE70EE68EE68",
"; c #EEDAEED8EEDB",
": c #F119F101F106",
"> c #F205F208F1FE",
", c #F3F9F3F8F3FA",
"< c #F55CF55CF55A",
"1 c #F635F637F638",
"2 c #F699F698F698",
"3 c #F853F851F851",
"4 c #F8FBF8FCF8F9",
"5 c #FA29FA26FA28",
"6 c #FAD9FADBFAD9",
"7 c #FBEAFBEAFBE6",
"8 c #FD1CFD1AFD1D",
"9 c #FE1DFE1EFE1E",
"0 c None",
/* pixels */
"000000000000000000000000",
"000000000000000000000000",
"000000000000000000000000",
"000000000888888800000000",
"00000008887*&78880000000",
"000000888700007888000000",
"00000888870000;888800000",
"000077778000000778770000",
"000077777000000777770000",
"000077377000000777370000",
"000337777000000337737000",
"000373333000000373333000",
"000333337000000333333000",
"000,33333000000,33333000",
"00003,,3300000033,,30000",
"0000:3,,3000000,,3,30000",
"0000&3,,,000000,,,,;0000",
"00000*,,,;00000;,,,00000",
"00000+%,,,0000;,;;000000",
"000000o%;;;;;;;;*0000000",
"00000000@$***&%#00000000",
"0000000000 Xo.0000000000",
"000000000000000000000000",
"000000000000000000000000"
};
