/* XPM */
static char *picasa[] = {
/* columns rows colors chars-per-pixel */
"24 24 30 1 ",
"  c #92A29251924A",
". c #9AAA9A459A4B",
"X c #B7A8B7D0B796",
"o c #CA85CA7FCA86",
"O c #D1E6D180D183",
"+ c #D4FBD4E4D4E3",
"@ c #D9F3D9D6D9E8",
"# c #DF78DF1CDF1F",
"$ c #E23EE23FE23E",
"% c #E51CE50AE509",
"& c #E70BE6C6E6C3",
"* c #E8D3E8C7E8C5",
"= c #EB70EB68EB68",
"- c #EBE8EBDCEC0C",
"; c #ED3FED28ED39",
": c #EEFAEEFCEEF8",
"> c #F01EF020F016",
", c #F1B8F1B6F1C2",
"< c #F305F306F335",
"1 c #F37BF378F379",
"2 c #F4F7F4DEF4FA",
"3 c #F6B3F6B1F6B6",
"4 c #F828F827F823",
"5 c #F8B7F8B3F8B8",
"6 c #F9DFF9E1F9E1",
"7 c #FB28FB29FB27",
"8 c #FC3DFC3CFC40",
"9 c #FD45FD45FD44",
"0 c #FE1DFE1DFE1D",
"q c None",
/* pixels */
"qqqqqqqqqqqqqqqqqqqqqqqq",
"qqqqqqqqqq9999qqqqqqqqqq",
"qqqqqqqqq9999999qqqqqqqq",
"qqqqq999q$999999q9qqqqqq",
"qqqq99999q@79999q799qqqq",
"qqqq999999qo7999q799qqqq",
"qqq99997797qq399q7977qqq",
"qq77777977qqqq19q77979qq",
"qq7777771qqqqqq3q77777qq",
"qq773773qqqqqqqqq37777qq",
"qq77771qqqqqqqqqq37777qq",
"qq373qqqqqqqqqqqq33537qq",
"qq33qqqqqqqqqqqqq33773qq",
"qq1qq33qqqqqqqqqq13333qq",
"qqqq333qqqqqqqqqq13113qq",
"qqq3311qqqqqqqqqqqXXXqqq",
"qq*121>qq1>1>1>1qq*>qqqq",
"qqq*111q111>1>>1>11>>qqq",
"qqqq&1>q>>>>>>>>>>>>qqqq",
"qqqqX&*q*>;-*>;;>**qqqqq",
"qqqqqqqq--*>**>**#qqqqqq",
"qqqqqqqqO#&&*&#+qqqqqqqq",
"qqqqqqqqqq ...qqqqqqqqqq",
"qqqqqqqqqqqqqqqqqqqqqqqq"
};
