/* XPM */
static char *python[] = {
/* columns rows colors chars-per-pixel */
"24 24 33 1 ",
"  c #DD5CDD55DD37",
". c #D3A7F7DAFC17",
"X c #D9FAF59EFA25",
"o c #DFFAF9B9FCF5",
"O c #E0E2E0D8E0DA",
"+ c #E2B0E2B2E2D1",
"@ c #E48FE495E49F",
"# c #E775E76DE766",
"$ c #E9E2E9F0E9E5",
"% c #EC0FEC21EC23",
"& c #ED68ED63ED40",
"* c #EEC7EEC2EEB9",
"= c #F018F013F010",
"- c #E7EBF7A0FA89",
"; c #F11BF100F104",
": c #F221F215F20D",
"> c #F318F308F305",
", c #F382F370F36D",
"< c #F399F394F39C",
"1 c #F53FF53EF551",
"2 c #F5AFF5B3F5CA",
"3 c #F70BF71AF71F",
"4 c #F819F820F821",
"5 c #F9E3F9F8F9FA",
"6 c #FA97FA79FA6C",
"7 c #FA77FA7FFA87",
"8 c #FA23FB86FC03",
"9 c #FAE8FAECFAEE",
"0 c #FC18FC19FC1A",
"q c #F958FD5CFE41",
"w c #FD04FD04FD04",
"e c #FE3DFE3BFE3A",
"r c None",
/* pixels */
"rrrrrrrrrrrrrrrrrrrrrrrr",
"rrrrrrrrrrrrrrrrrrrrrrrr",
"rrrrrrrrrrrrrrrrrrrrrrrr",
"rrrrrrrrrrrrrrrrrrrrrrrr",
"rrrrrrrrrrrrrrrrrrrrrrrr",
"rrrrrrrrrrrrrrrrrrrrrrrr",
"rrrwwwwwwww00wwrrrrrrrrr",
"rrrww0wwwww00rr00wrrrrrr",
"rr00w0w0000000qrrr00rrrr",
"rr003rrrr00rrXo.-rr30rrr",
"rrrrrrrrr03rrrrrrrrr;3rr",
"rr4rrrrrr333rrrrrrrrr3rr",
"r3333rrrr;;333rrrrrrrr3r",
"r;;;;;rrrr*;%**;rrrrrr*r",
"r**;***%r**%rrr#%%*****r",
"r%%*%%%%%%rrrrrrrr ++#rr",
"r######+rrrrrrrrrrrrrrrr",
"r+ +rrrrrrrrrrrrrrrrrrrr",
"rrrrrrrrrrrrrrrrrrrrrrrr",
"rrrrrrrrrrrrrrrrrrrrrrrr",
"rrrrrrrrrrrrrrrrrrrrrrrr",
"rrrrrrrrrrrrrrrrrrrrrrrr",
"rrrrrrrrrrrrrrrrrrrrrrrr",
"rrrrrrrrrrrrrrrrrrrrrrrr"
};
