/* XPM */
static char *terminal[] = {
/* columns rows colors chars-per-pixel */
"24 24 32 1 ",
"  c #A9A0A9A5A9A0",
". c #AA24AA33AA24",
"X c #B240B235B25A",
"o c #B66BB659B66B",
"O c #BBABBBC0BBCB",
"+ c #CA88CA7CCA97",
"@ c #D389D372D371",
"# c #D479D470D46C",
"$ c #D832D825D823",
"% c #E2DBE2DDE2D2",
"& c #E83EE83EE853",
"* c #EA86EA86EA40",
"= c #ECD4ECD0ECD3",
"- c #EDA3ED91EDAC",
"; c #EEC0EE96EEBE",
": c #F063F03FF068",
"> c #F0C1F0B1F0B5",
", c #F273F289F26D",
"< c #F32BF306F32C",
"1 c #F3ADF392F3AF",
"2 c #F51AF512F521",
"3 c #F5E2F5E3F5E2",
"4 c #F6ABF6B1F6AA",
"5 c #F76FF7A0F76F",
"6 c #F7AAF7ABF7AE",
"7 c #F898F897F89E",
"8 c #FA11FA17FA16",
"9 c #FAEAFAEBFAE9",
"0 c #FC2AFC2CFC29",
"q c #FD11FD11FD11",
"w c #FDDFFDDDFDDE",
"e c None",
/* pixels */
"eeeeeeeeeeeeeeeeeeeeeeee",
"eeeeeeeeeeeeeeeeeeeeeeee",
"eeeeeeeeeeeeeeeeeeeeeeee",
"eeeeeeeeeeeeeeeeeeeeeeee",
"eeqqqqqqqqqqqqqqqqqqqqee",
"e000$#@@############0qee",
"e00eeeeeeeeeeeeeeeee2qee",
"e00eeqqeeeeeeeeeeeee20ee",
"e00ee=20qqeeeeeeeeee0qee",
"e20eeee%00eeeeeeeeee20ee",
"e20ee0022>eeeeeeeeee20ee",
"e20ee>&@eeeeeeeeeeee20ee",
"e20eeeeeeeeeeeeeeeee12ee",
"e22eeeeeeeeeeeeeeeee>0ee",
"e22eeeeeeeeeeeeeeeee=2ee",
"e>2eeeeeeeeeeeeeeeee=2ee",
"e=>eeeeeeeeee>>>>>>e=>ee",
"e=2eeeeeeeeeee...oee*>ee",
"e*==eeeeeeeeeeeeeeee=>ee",
"e&====================ee",
"eeoOOOOOOOOOOOOOOOOOO+ee",
"eeeeeeeeeeeeeeeeeeeeeeee",
"eeeeeeeeeeeeeeeeeeeeeeee",
"eeeeeeeeeeeeeeeeeeeeeeee"
};
