/* XPM */
static char *varicadview[] = {
/* columns rows colors chars-per-pixel */
"24 24 34 1 ",
"  c #91CE91B191C4",
". c #995B99A39936",
"X c #A7A1A7B4A7E4",
"o c #B938B939B93C",
"O c #C042C040C038",
"+ c #CD78CD93CD77",
"@ c #D3C7D3DAD3D1",
"# c #D7D7D7E3D7E6",
"$ c #DD87DD95DD87",
"% c #E03AE03FE018",
"& c #E0B8E0C1E0BF",
"* c #E1C5E1E2E1D0",
"= c #E52CE51EE50A",
"- c #E832E834E832",
"; c #E9CDE9CCE9CF",
": c #EBE7EBE1EBDA",
"> c #ED7AED80ED7E",
", c #EEE4EEDEEED8",
"< c #F02BF02FF042",
"1 c #F0D6F0DCF0E1",
"2 c #F2C4F2BFF2BB",
"3 c #F3D1F3D1F3C3",
"4 c #F51CF515F51F",
"5 c #F66EF66CF672",
"6 c #F73AF738F739",
"7 c #F7C1F7C4F7C4",
"8 c #F8DEF8DFF8E1",
"9 c #FA25FA26FA24",
"0 c #FAC2FAB8FABE",
"q c #FB6EFB7CFB71",
"w c #FC1BFC1CFC1B",
"e c #FD13FD15FD13",
"r c #FDBDFDBDFDBA",
"t c None",
/* pixels */
"tttttttttttttttttttttttt",
"tttttttttttttttttttttttt",
"ttttttttttteettttttttttt",
"tttttttttte0eetttttttttt",
"tttttttttte0eetttttttttt",
"tttttttttteeeetttttttttt",
"tttttttttteeeetttttttttt",
"tttttttttt0w00tttttttttt",
"tttttttttt0000tttttttttt",
"tttttttttt0000tttttttttt",
"tttttttttt0000tttttttttt",
"ttttttttt700700ttttttttt",
"ttttttttt77>:77ttttttttt",
"tttttttt77>tt:77tttttttt",
"ttttttt3773tt>773ttttttt",
"ttttt377737tt73377tttttt",
"tttt3333333733373333tttt",
"ttt3333333>%*>3333333ttt",
"tt:->33>:%tttX#:>3>3-:tt",
"tt%+>:-+ttttttt +=>>@-tt",
"tt-:%otttttttttttto%-:tt",
"tttttttttttttttttttt.ttt",
"tttttttttttttttttttttttt",
"tttttttttttttttttttttttt"
};
