/* XPM */
static char *xfce4_mcs_manager[] = {
/* columns rows colors chars-per-pixel */
"24 24 29 1 ",
"  c #8A8D8AC78AC2",
". c #91EC920591FF",
"X c #9A669A939A8F",
"o c #D18CD18ED17F",
"O c #D99FD99BD998",
"+ c #DBEFDBE6DBF2",
"@ c #DE95DE85DE98",
"# c #E12CE117E11E",
"$ c #E314E308E31A",
"% c #E410E40AE40B",
"& c #E75BE76BE76A",
"* c #E943E940E94C",
"= c #ECA0EC9DECA3",
"- c #ED89ED8BED84",
"; c #EFC5EFCBEFBF",
": c #F1DCF1E1F1DF",
"> c #F302F303F301",
", c #F43CF440F439",
"< c #F511F510F513",
"1 c #F62FF63CF634",
"2 c #F6CEF6CBF6CC",
"3 c #F7AFF7ABF7AF",
"4 c #F8F3F8F7F8F7",
"5 c #FA5CFA54FA54",
"6 c #FB1DFB1DFB1A",
"7 c #FC2EFC2EFC36",
"8 c #FCEFFCF1FCF3",
"9 c #FD88FD89FD85",
"0 c None",
/* pixels */
"000000000000000000000000",
"000000000000000000000000",
"000000000000000000000000",
"000000000000000000000000",
"000099900009900009990000",
"000099900009990009990000",
"000079900999979009990000",
"0000777007:&&:7707770000",
"0000777007000o7707770000",
"000077700737777307770000",
"000037700+=77:#007770000",
"0003337000*7730003330000",
"007:=*=37003330003730000",
"003=000:3003330033333000",
"00333333300333033&#&:300",
"00#@:3:#0003::0::000@300",
"0000:3=000=:3:0:3:33:300",
"0000:::000*:::00+=::##00",
"0000:::000&::=000#::0000",
"0000*==0000*==000&*=0000",
"00000.00000 X00000.00000",
"000000000000000000000000",
"000000000000000000000000",
"000000000000000000000000"
};
